<?xml version="1.0" standalone="no"?>
<!DOCTYPE svg PUBLIC "-//W3C//DTD SVG 20010904//EN"
 "http://www.w3.org/TR/2001/REC-SVG-20010904/DTD/svg10.dtd">
<svg version="1.0" xmlns="http://www.w3.org/2000/svg"
 width="505.000000pt" height="264.000000pt" viewBox="0 0 505.000000 264.000000"
 preserveAspectRatio="xMidYMid meet">
<metadata>
Created by potrace 1.16, written by Peter Selinger 2001-2019
</metadata>
<g transform="translate(0.000000,264.000000) scale(0.100000,-0.100000)"
fill="#000000" stroke="none">
<path d="M976 2501 c-3 -4 1 -17 9 -27 8 -10 15 -14 15 -7 0 6 -5 15 -10 18
-6 4 -8 11 -5 16 4 5 4 9 1 9 -3 0 -7 -4 -10 -9z"/>
<path d="M1012 2480 c0 -19 2 -27 5 -17 2 9 2 25 0 35 -3 9 -5 1 -5 -18z"/>
<path d="M1034 2499 c-3 -6 -1 -16 5 -22 15 -15 14 -30 -1 -21 -7 5 -8 3 -3
-5 5 -9 10 -10 18 -2 7 7 6 15 -2 25 -7 8 -10 20 -6 26 3 5 4 10 1 10 -3 0 -8
-5 -12 -11z"/>
<path d="M1122 2480 c0 -19 2 -27 5 -17 2 9 2 25 0 35 -3 9 -5 1 -5 -18z"/>
<path d="M1189 2478 c-3 -22 -1 -34 4 -29 5 5 7 21 5 37 -3 27 -4 26 -9 -8z"/>
<path d="M1272 2480 c0 -19 2 -27 5 -17 2 9 2 25 0 35 -3 9 -5 1 -5 -18z"/>
<path d="M3621 2480 c0 -33 1 -34 11 -12 8 17 8 26 0 34 -9 9 -12 4 -11 -22z"/>
<path d="M3653 2483 c-7 -15 -11 -29 -8 -31 3 -3 5 1 5 9 0 11 2 11 10 -1 7
-11 10 -7 10 18 0 39 -2 39 -17 5z"/>
<path d="M3810 2478 c0 -23 3 -29 9 -19 8 12 4 51 -5 51 -2 0 -4 -15 -4 -32z"/>
<path d="M3972 2480 c0 -19 2 -27 5 -17 2 9 2 25 0 35 -3 9 -5 1 -5 -18z"/>
<path d="M4142 2480 c0 -19 2 -27 5 -17 2 9 2 25 0 35 -3 9 -5 1 -5 -18z"/>
<path d="M1572 2475 c0 -16 2 -22 5 -12 2 9 2 23 0 30 -3 6 -5 -1 -5 -18z"/>
<path d="M3862 2470 c0 -19 2 -27 5 -17 2 9 2 25 0 35 -3 9 -5 1 -5 -18z"/>
<path d="M4172 2475 c0 -16 2 -22 5 -12 2 9 2 23 0 30 -3 6 -5 -1 -5 -18z"/>
<path d="M1144 2475 c-9 -23 10 -40 25 -22 9 11 8 17 -4 27 -12 10 -16 9 -21
-5z m13 -17 c-3 -8 -6 -5 -6 6 -1 11 2 17 5 13 3 -3 4 -12 1 -19z"/>
<path d="M1322 2470 c0 -14 2 -19 5 -12 2 6 2 18 0 25 -3 6 -5 1 -5 -13z"/>
<path d="M1368 2472 c4 -10 7 -12 10 -4 2 7 9 9 15 5 7 -3 8 -2 4 2 -14 16
-36 14 -29 -3z"/>
<path d="M1476 2475 c-9 -26 -7 -32 5 -12 6 10 9 21 6 23 -2 3 -7 -2 -11 -11z"/>
<path d="M1513 2474 c-3 -8 -2 -19 3 -24 5 -5 9 1 9 16 0 28 -3 30 -12 8z"/>
<path d="M1650 2470 c0 -11 2 -20 4 -20 2 0 6 9 9 20 3 11 1 20 -4 20 -5 0 -9
-9 -9 -20z"/>
<path d="M1682 2470 c0 -14 2 -19 5 -12 2 6 2 18 0 25 -3 6 -5 1 -5 -13z"/>
<path d="M1704 2466 c0 -14 4 -22 8 -20 4 3 8 14 8 25 0 10 -4 19 -8 19 -4 0
-8 -11 -8 -24z"/>
<path d="M3479 2478 c7 -9 9 -23 5 -30 -6 -10 -4 -11 7 0 11 10 10 15 -6 30
-17 15 -18 15 -6 0z"/>
<path d="M3570 2470 c-6 -11 -8 -20 -6 -20 3 0 10 9 16 20 6 11 8 20 6 20 -3
0 -10 -9 -16 -20z"/>
<path d="M3701 2468 c5 -10 11 -18 13 -18 2 0 6 8 8 18 4 12 -1 18 -13 18 -14
0 -15 -4 -8 -18z"/>
<path d="M3842 2470 c0 -14 2 -19 5 -12 2 6 2 18 0 25 -3 6 -5 1 -5 -13z"/>
<path d="M3914 2476 c-4 -10 -2 -22 4 -28 8 -8 13 -7 18 6 4 10 2 22 -4 28 -8
8 -13 7 -18 -6z m13 -18 c-3 -8 -6 -5 -6 6 -1 11 2 17 5 13 3 -3 4 -12 1 -19z"/>
<path d="M4017 2471 c-4 -17 -3 -21 5 -13 5 5 8 16 6 23 -3 8 -7 3 -11 -10z"/>
<path d="M4194 2466 c0 -14 4 -22 8 -20 4 3 8 14 8 25 0 10 -4 19 -8 19 -4 0
-8 -11 -8 -24z"/>
<path d="M4220 2464 c0 -14 4 -23 9 -20 5 3 7 15 4 26 -7 28 -13 25 -13 -6z"/>
<path d="M4248 2463 c5 -21 7 -23 10 -9 2 10 0 22 -6 28 -6 6 -7 0 -4 -19z"/>
<path d="M3736 2463 c-6 -14 -5 -15 5 -6 7 7 10 15 7 18 -3 3 -9 -2 -12 -12z"/>
<path d="M382 2375 c0 -16 2 -22 5 -12 2 9 2 23 0 30 -3 6 -5 -1 -5 -18z"/>
<path d="M432 2375 c0 -16 2 -22 5 -12 2 9 2 23 0 30 -3 6 -5 -1 -5 -18z"/>
<path d="M2932 2375 c0 -16 2 -22 5 -12 2 9 2 23 0 30 -3 6 -5 -1 -5 -18z"/>
<path d="M400 2375 c0 -8 5 -15 10 -15 6 0 10 7 10 15 0 8 -4 15 -10 15 -5 0
-10 -7 -10 -15z"/>
<path d="M2876 2377 c3 -10 9 -15 12 -12 3 3 0 11 -7 18 -10 9 -11 8 -5 -6z"/>
<path d="M2951 2374 c0 -11 3 -14 6 -6 3 7 2 16 -1 19 -3 4 -6 -2 -5 -13z"/>
<path d="M326 2365 c4 -8 8 -15 10 -15 2 0 4 7 4 15 0 8 -4 15 -10 15 -5 0 -7
-7 -4 -15z"/>
<path d="M3262 2297 c-2 -31 1 -38 15 -35 9 2 18 9 19 16 1 7 0 8 -3 2 -10
-20 -22 -9 -26 23 -4 31 -4 31 -5 -6z"/>
<path d="M586 2305 c-9 -26 -7 -32 5 -12 6 10 9 21 6 23 -2 3 -7 -2 -11 -11z"/>
<path d="M682 2295 c0 -16 2 -22 5 -12 2 9 2 23 0 30 -3 6 -5 -1 -5 -18z"/>
<path d="M792 2295 c0 -16 2 -22 5 -12 2 9 2 23 0 30 -3 6 -5 -1 -5 -18z"/>
<path d="M815 2295 c0 -14 3 -25 8 -25 4 0 7 11 7 25 0 14 -3 25 -7 25 -5 0
-8 -11 -8 -25z"/>
<path d="M3222 2290 c0 -19 2 -27 5 -17 2 9 2 25 0 35 -3 9 -5 1 -5 -18z"/>
<path d="M3102 2290 c0 -14 2 -19 5 -12 2 6 2 18 0 25 -3 6 -5 1 -5 -13z"/>
<path d="M3120 2295 c0 -8 4 -15 10 -15 5 0 7 7 4 15 -4 8 -8 15 -10 15 -2 0
-4 -7 -4 -15z"/>
<path d="M3380 2289 c0 -11 -4 -18 -9 -14 -5 3 -12 2 -15 -3 -2 -4 4 -9 15 -9
14 -1 19 5 19 23 0 13 -2 24 -5 24 -3 0 -5 -9 -5 -21z"/>
<path d="M3180 2280 c6 -11 12 -20 14 -20 2 0 2 9 -1 20 -3 11 -9 20 -15 20
-5 0 -4 -9 2 -20z"/>
<path d="M3311 2274 c0 -11 3 -14 6 -6 3 7 2 16 -1 19 -3 4 -6 -2 -5 -13z"/>
<path d="M2049 2199 l-44 -40 45 33 c25 18 47 34 49 35 2 2 2 5 -1 8 -3 3 -25
-13 -49 -36z"/>
<path d="M4589 2223 c-24 -17 -59 -52 -59 -60 0 -2 19 11 43 29 23 18 44 34
46 35 2 2 2 5 0 8 -3 2 -16 -3 -30 -12z"/>
<path d="M470 2200 c0 -5 11 -10 25 -10 14 0 25 5 25 10 0 6 -11 10 -25 10
-14 0 -25 -4 -25 -10z"/>
<path d="M572 2190 c0 -14 2 -19 5 -12 2 6 2 18 0 25 -3 6 -5 1 -5 -13z"/>
<path d="M3051 2173 c0 -21 3 -31 6 -23 3 8 11 18 17 22 8 5 7 8 -1 8 -19 0
-16 18 5 23 13 4 11 5 -5 6 -20 1 -23 -4 -22 -36z"/>
<path d="M432 2175 c0 -16 2 -22 5 -12 2 9 2 23 0 30 -3 6 -5 -1 -5 -18z"/>
<path d="M4565 2146 c-26 -31 -52 -53 -58 -49 -6 3 -7 1 -3 -5 7 -11 -268
-302 -286 -302 -6 0 -21 -9 -35 -20 -14 -11 -39 -20 -55 -20 -32 0 -98 -55
-98 -81 0 -8 9 1 20 18 12 20 30 35 47 38 62 13 73 15 73 12 0 -2 -32 -32 -71
-66 -46 -41 -73 -60 -78 -53 -5 8 -26 -6 -60 -38 -29 -28 -61 -50 -70 -50 -10
0 -26 -7 -37 -15 -17 -13 -16 -14 16 -5 57 16 56 12 -5 -35 -61 -47 -85 -53
-45 -10 13 14 19 25 14 25 -5 0 -24 -22 -41 -49 -25 -37 -61 -68 -150 -128
-165 -111 -234 -151 -300 -175 -31 -11 -66 -26 -77 -34 -11 -7 -46 -19 -78
-25 -32 -6 -58 -15 -58 -19 0 -4 19 -4 41 1 81 19 61 2 -69 -56 -73 -32 -132
-62 -132 -66 0 -18 86 22 346 161 54 30 87 40 142 45 39 4 79 13 89 20 13 10
2 10 -52 0 -39 -8 -71 -12 -73 -11 -1 2 32 24 74 50 75 45 100 52 74 21 -7 -9
-11 -18 -8 -21 3 -2 12 6 21 20 9 13 30 27 46 31 26 5 40 14 88 55 7 5 17 10
22 10 5 0 15 16 23 36 9 27 43 60 143 139 71 57 177 147 235 199 118 108 149
126 213 126 31 0 52 6 68 21 20 16 20 18 4 11 -11 -5 -46 -12 -78 -15 l-57 -6
87 94 c48 52 91 92 95 89 4 -3 8 1 8 8 0 7 32 48 71 91 39 43 69 80 66 83 -2
3 -26 -20 -52 -50z m-570 -566 c-16 -16 -31 -27 -34 -24 -6 6 45 54 56 54 4 0
-6 -13 -22 -30z m-55 -45 c-7 -9 -15 -13 -19 -10 -3 3 1 10 9 15 21 14 24 12
10 -5z m-188 -180 c-12 -22 -102 -85 -122 -85 -9 0 -21 -5 -28 -12 -6 -6 -14
-9 -18 -6 -3 4 7 13 23 21 15 9 52 34 82 56 58 43 78 51 63 26z"/>
<path d="M382 2170 c0 -14 2 -19 5 -12 2 6 2 18 0 25 -3 6 -5 1 -5 -13z"/>
<path d="M400 2175 c0 -8 5 -15 10 -15 6 0 10 7 10 15 0 8 -4 15 -10 15 -5 0
-10 -7 -10 -15z"/>
<path d="M2861 2174 c0 -11 3 -14 6 -6 3 7 2 16 -1 19 -3 4 -6 -2 -5 -13z"/>
<path d="M2932 2170 c0 -14 2 -19 5 -12 2 6 2 18 0 25 -3 6 -5 1 -5 -13z"/>
<path d="M2951 2174 c0 -11 3 -14 6 -6 3 7 2 16 -1 19 -3 4 -6 -2 -5 -13z"/>
<path d="M3112 2165 c0 -16 2 -22 5 -12 2 9 2 23 0 30 -3 6 -5 -1 -5 -18z"/>
<path d="M3003 2173 c9 -2 23 -2 30 0 6 3 -1 5 -18 5 -16 0 -22 -2 -12 -5z"/>
<path d="M250 2146 c0 -2 11 -6 25 -8 13 -3 22 -1 19 3 -5 9 -44 13 -44 5z"/>
<path d="M2045 2105 c-33 -24 -64 -40 -70 -37 -5 3 -7 2 -3 -2 3 -4 -26 -35
-65 -69 -40 -34 -115 -103 -167 -153 -78 -74 -102 -92 -134 -97 -36 -6 -92
-44 -81 -55 3 -3 15 4 28 15 24 23 67 39 67 26 0 -16 -118 -125 -121 -114 -3
7 -18 -3 -34 -21 -17 -18 -21 -25 -9 -15 28 23 41 22 19 -3 -10 -11 -24 -20
-32 -20 -7 0 -30 -9 -50 -20 -21 -11 -43 -20 -50 -20 -6 0 -14 -4 -18 -9 -8
-13 63 8 94 27 33 21 -78 -83 -166 -155 -129 -106 -337 -233 -382 -233 -22 0
-51 -11 -127 -47 -28 -13 -68 -27 -90 -30 -21 -3 -42 -10 -45 -15 -3 -5 -39
-17 -80 -27 -88 -22 -72 -27 21 -7 64 14 180 50 315 100 39 14 86 26 106 26
19 0 44 7 55 15 18 14 17 14 -9 5 -16 -5 -38 -10 -50 -10 -18 1 -14 5 18 25
22 14 46 23 53 20 7 -2 15 2 18 10 4 8 35 29 71 46 35 17 67 37 70 45 3 8 13
14 22 14 13 0 13 2 2 9 -9 6 -10 11 -2 15 6 4 11 5 11 3 0 -7 124 107 285 263
164 160 236 210 301 210 40 0 104 19 104 31 0 6 -6 6 -17 1 -10 -6 -43 -13
-73 -16 -30 -4 -65 -14 -78 -22 -48 -32 -31 -4 40 64 81 77 175 156 258 217
30 21 57 40 59 42 2 2 2 5 0 7 -2 3 -31 -15 -64 -39z"/>
<path d="M2768 2143 c6 -2 18 -2 25 0 6 3 1 5 -13 5 -14 0 -19 -2 -12 -5z"/>
<path d="M276 2107 c3 -10 9 -15 12 -12 3 3 0 11 -7 18 -10 9 -11 8 -5 -6z"/>
<path d="M2785 2109 c-4 -6 -5 -12 -2 -15 2 -3 7 2 10 11 7 17 1 20 -8 4z"/>
<path d="M260 2070 l-25 -8 28 -1 c15 -1 27 4 27 9 0 6 -1 10 -2 9 -2 -1 -14
-5 -28 -9z"/>
<path d="M2768 2063 c6 -2 18 -2 25 0 6 3 1 5 -13 5 -14 0 -19 -2 -12 -5z"/>
<path d="M272 2024 c-7 -8 -8 -14 -3 -14 10 0 25 19 20 25 -2 1 -10 -3 -17
-11z"/>
<path d="M2778 2013 c7 -3 16 -2 19 1 4 3 -2 6 -13 5 -11 0 -14 -3 -6 -6z"/>
<path d="M326 1987 c3 -10 9 -15 12 -12 3 3 0 11 -7 18 -10 9 -11 8 -5 -6z"/>
<path d="M280 1981 c0 -8 -7 -11 -17 -6 -15 5 -16 4 -5 -6 9 -10 15 -10 24 -1
6 6 9 15 5 19 -4 3 -7 1 -7 -6z"/>
<path d="M382 1965 c0 -16 2 -22 5 -12 2 9 2 23 0 30 -3 6 -5 -1 -5 -18z"/>
<path d="M432 1965 c0 -16 2 -22 5 -12 2 9 2 23 0 30 -3 6 -5 -1 -5 -18z"/>
<path d="M2932 1965 c0 -16 2 -22 5 -12 2 9 2 23 0 30 -3 6 -5 -1 -5 -18z"/>
<path d="M355 1970 c3 -5 8 -10 11 -10 2 0 4 5 4 10 0 6 -5 10 -11 10 -5 0 -7
-4 -4 -10z"/>
<path d="M400 1965 c0 -8 5 -15 10 -15 6 0 10 7 10 15 0 8 -4 15 -10 15 -5 0
-10 -7 -10 -15z"/>
<path d="M2876 1967 c3 -10 9 -15 12 -12 3 3 0 11 -7 18 -10 9 -11 8 -5 -6z"/>
<path d="M2951 1964 c0 -11 3 -14 6 -6 3 7 2 16 -1 19 -3 4 -6 -2 -5 -13z"/>
<path d="M260 1930 c-12 -8 -12 -10 -1 -10 11 0 11 -3 1 -15 -11 -13 -10 -14
3 -9 9 3 15 14 14 25 -1 10 -1 19 -2 19 0 0 -7 -5 -15 -10z"/>
<path d="M2775 1930 c-3 -5 -2 -10 4 -10 5 0 13 5 16 10 3 6 2 10 -4 10 -5 0
-13 -4 -16 -10z"/>
<path d="M2775 1900 c-3 -6 1 -7 9 -4 18 7 21 14 7 14 -6 0 -13 -4 -16 -10z"/>
<path d="M2751 1850 c1 -19 3 -27 6 -17 2 9 14 18 26 18 21 1 21 2 2 6 -11 3
-23 10 -27 17 -4 6 -7 -5 -7 -24z"/>
<path d="M253 1853 c9 -2 23 -2 30 0 6 3 -1 5 -18 5 -16 0 -22 -2 -12 -5z"/>
<path d="M239 1781 c8 -5 20 -7 28 -4 7 3 13 0 13 -5 0 -6 -7 -13 -15 -15 -11
-4 -10 -4 2 -3 10 1 19 9 21 19 3 13 -4 17 -30 17 -23 0 -29 -3 -19 -9z"/>
<path d="M326 1775 c4 -8 8 -15 10 -15 2 0 4 7 4 15 0 8 -4 15 -10 15 -5 0 -7
-7 -4 -15z"/>
<path d="M2750 1781 c0 -4 11 -6 25 -3 14 2 25 6 25 8 0 2 -11 4 -25 4 -14 0
-25 -4 -25 -9z"/>
<path d="M382 1760 c0 -14 2 -19 5 -12 2 6 2 18 0 25 -3 6 -5 1 -5 -13z"/>
<path d="M400 1759 c0 -11 5 -17 10 -14 6 3 10 13 10 21 0 8 -4 14 -10 14 -5
0 -10 -9 -10 -21z"/>
<path d="M432 1760 c0 -14 2 -19 5 -12 2 6 2 18 0 25 -3 6 -5 1 -5 -13z"/>
<path d="M2861 1763 c-1 -12 -9 -24 -18 -26 -17 -4 -17 -5 0 -6 19 -1 32 21
24 41 -3 7 -6 3 -6 -9z"/>
<path d="M2932 1760 c0 -14 2 -19 5 -12 2 6 2 18 0 25 -3 6 -5 1 -5 -13z"/>
<path d="M2952 1760 c0 -14 2 -19 5 -12 2 6 2 18 0 25 -3 6 -5 1 -5 -13z"/>
<path d="M2778 1753 c7 -3 16 -2 19 1 4 3 -2 6 -13 5 -11 0 -14 -3 -6 -6z"/>
<path d="M318 1733 c7 -3 16 -2 19 1 4 3 -2 6 -13 5 -11 0 -14 -3 -6 -6z"/>
<path d="M272 1714 c-7 -8 -8 -14 -3 -14 10 0 25 19 20 25 -2 1 -10 -3 -17
-11z"/>
<path d="M2778 1703 c7 -3 16 -2 19 1 4 3 -2 6 -13 5 -11 0 -14 -3 -6 -6z"/>
<path d="M250 1678 c0 -4 6 -8 14 -8 8 0 17 4 20 8 2 4 -4 8 -15 8 -10 0 -19
-4 -19 -8z"/>
<path d="M2778 1673 c7 -3 16 -2 19 1 4 3 -2 6 -13 5 -11 0 -14 -3 -6 -6z"/>
<path d="M258 1653 c6 -2 18 -2 25 0 6 3 1 5 -13 5 -14 0 -19 -2 -12 -5z"/>
<path d="M2778 1653 c7 -3 16 -2 19 1 4 3 -2 6 -13 5 -11 0 -14 -3 -6 -6z"/>
<path d="M2770 1636 c0 -2 7 -6 15 -10 8 -3 15 -1 15 4 0 6 -7 10 -15 10 -8 0
-15 -2 -15 -4z"/>
<path d="M243 1603 c9 -2 25 -2 35 0 9 3 1 5 -18 5 -19 0 -27 -2 -17 -5z"/>
<path d="M2763 1603 c9 -2 23 -2 30 0 6 3 -1 5 -18 5 -16 0 -22 -2 -12 -5z"/>
<path d="M265 1580 l-20 -9 20 -1 20 -1 -20 -9 c-19 -8 -19 -9 3 -9 16 -1 22
5 22 19 0 11 -1 20 -2 19 -2 0 -12 -4 -23 -9z"/>
<path d="M322 1555 c0 -16 2 -22 5 -12 2 9 2 23 0 30 -3 6 -5 -1 -5 -18z"/>
<path d="M382 1555 c0 -16 2 -22 5 -12 2 9 2 23 0 30 -3 6 -5 -1 -5 -18z"/>
<path d="M432 1555 c0 -16 2 -22 5 -12 2 9 2 23 0 30 -3 6 -5 -1 -5 -18z"/>
<path d="M2778 1573 c7 -3 16 -2 19 1 4 3 -2 6 -13 5 -11 0 -14 -3 -6 -6z"/>
<path d="M2842 1550 c0 -19 2 -27 5 -17 2 9 2 25 0 35 -3 9 -5 1 -5 -18z"/>
<path d="M2932 1555 c0 -16 2 -22 5 -12 2 9 2 23 0 30 -3 6 -5 -1 -5 -18z"/>
<path d="M400 1555 c0 -8 5 -15 10 -15 6 0 10 7 10 15 0 8 -4 15 -10 15 -5 0
-10 -7 -10 -15z"/>
<path d="M2876 1557 c3 -10 9 -15 12 -12 3 3 0 11 -7 18 -10 9 -11 8 -5 -6z"/>
<path d="M2951 1554 c0 -11 3 -14 6 -6 3 7 2 16 -1 19 -3 4 -6 -2 -5 -13z"/>
<path d="M2778 1553 c7 -3 16 -2 19 1 4 3 -2 6 -13 5 -11 0 -14 -3 -6 -6z"/>
<path d="M250 1521 c0 -5 9 -7 20 -4 11 3 20 7 20 9 0 2 -9 4 -20 4 -11 0 -20
-4 -20 -9z"/>
<path d="M2778 1523 c7 -3 16 -2 19 1 4 3 -2 6 -13 5 -11 0 -14 -3 -6 -6z"/>
<path d="M265 1500 c-19 -8 -19 -9 3 -9 12 -1 22 4 22 9 0 6 -1 10 -2 9 -2 0
-12 -4 -23 -9z"/>
<path d="M2770 1500 c0 -6 7 -10 15 -10 8 0 15 2 15 4 0 2 -7 6 -15 10 -8 3
-15 1 -15 -4z"/>
<path d="M250 1471 c0 -5 9 -7 20 -4 11 3 20 7 20 9 0 2 -9 4 -20 4 -11 0 -20
-4 -20 -9z"/>
<path d="M2778 1473 c7 -3 16 -2 19 1 4 3 -2 6 -13 5 -11 0 -14 -3 -6 -6z"/>
<path d="M1280 1455 c-11 -13 -10 -14 4 -9 9 3 16 10 16 15 0 13 -6 11 -20 -6z"/>
<path d="M250 1441 c0 -5 9 -7 20 -4 11 3 20 7 20 9 0 2 -9 4 -20 4 -11 0 -20
-4 -20 -9z"/>
<path d="M2778 1443 c7 -3 16 -2 19 1 4 3 -2 6 -13 5 -11 0 -14 -3 -6 -6z"/>
<path d="M258 1413 c6 -2 18 -2 25 0 6 3 1 5 -13 5 -14 0 -19 -2 -12 -5z"/>
<path d="M2778 1413 c7 -3 16 -2 19 1 4 3 -2 6 -13 5 -11 0 -14 -3 -6 -6z"/>
<path d="M250 1392 c0 -4 9 -8 20 -8 11 0 20 4 20 8 0 4 -9 8 -20 8 -11 0 -20
-4 -20 -8z"/>
<path d="M2778 1393 c7 -3 16 -2 19 1 4 3 -2 6 -13 5 -11 0 -14 -3 -6 -6z"/>
<path d="M322 1350 c0 -19 2 -27 5 -17 2 9 2 25 0 35 -3 9 -5 1 -5 -18z"/>
<path d="M1500 1340 c0 -35 3 -40 23 -39 16 1 18 2 5 6 -21 5 -24 29 -5 36 10
4 10 6 0 6 -19 1 -16 19 5 24 13 4 11 5 -5 6 -20 1 -23 -4 -23 -39z"/>
<path d="M1691 1366 c-7 -8 -11 -23 -8 -33 4 -14 5 -14 6 4 2 34 21 38 21 4 0
-16 -5 -32 -10 -34 -6 -3 -5 -4 2 -3 16 3 23 55 10 68 -5 5 -14 3 -21 -6z"/>
<path d="M1755 1369 c-5 -8 -4 -10 3 -5 8 5 12 -3 12 -24 0 -18 -4 -29 -10
-25 -5 3 -10 1 -10 -5 0 -24 25 -2 28 24 4 32 -11 55 -23 35z"/>
<path d="M1797 1374 c-11 -11 -8 -46 3 -39 6 3 10 -1 10 -10 0 -9 -4 -13 -10
-10 -5 3 -10 1 -10 -5 0 -24 25 -2 28 24 4 29 -9 52 -21 40z"/>
<path d="M1835 1369 c-4 -6 -4 -13 -1 -16 3 -4 6 -1 6 6 0 7 5 9 12 5 7 -4 8
-3 4 4 -9 15 -13 15 -21 1z"/>
<path d="M2842 1350 c0 -19 2 -27 5 -17 2 9 2 25 0 35 -3 9 -5 1 -5 -18z"/>
<path d="M258 1363 c6 -2 18 -2 25 0 6 3 1 5 -13 5 -14 0 -19 -2 -12 -5z"/>
<path d="M382 1350 c0 -14 2 -19 5 -12 2 6 2 18 0 25 -3 6 -5 1 -5 -13z"/>
<path d="M400 1351 c0 -12 5 -21 10 -21 6 0 10 6 10 14 0 8 -4 18 -10 21 -5 3
-10 -3 -10 -14z"/>
<path d="M432 1350 c0 -14 2 -19 5 -12 2 6 2 18 0 25 -3 6 -5 1 -5 -13z"/>
<path d="M2778 1363 c7 -3 16 -2 19 1 4 3 -2 6 -13 5 -11 0 -14 -3 -6 -6z"/>
<path d="M2862 1350 c0 -14 2 -19 5 -12 2 6 2 18 0 25 -3 6 -5 1 -5 -13z"/>
<path d="M2932 1350 c0 -14 2 -19 5 -12 2 6 2 18 0 25 -3 6 -5 1 -5 -13z"/>
<path d="M3950 1330 c0 -35 3 -40 23 -39 16 1 18 2 5 6 -10 2 -18 11 -18 18 0
7 8 16 18 18 16 4 16 5 0 6 -10 0 -18 5 -18 10 0 5 8 12 18 14 13 4 11 5 -5 6
-20 1 -23 -4 -23 -39z"/>
<path d="M4168 1363 c6 -2 12 -18 12 -34 0 -18 -4 -28 -10 -24 -5 3 -10 1 -10
-5 0 -7 6 -10 13 -8 6 3 13 21 15 41 3 30 0 37 -15 36 -10 0 -13 -3 -5 -6z"/>
<path d="M4240 1363 c5 -2 10 -19 10 -36 0 -33 -14 -28 -23 8 l-5 20 -1 -20
c-1 -30 16 -52 29 -39 15 15 9 67 -8 70 -7 1 -8 0 -2 -3z"/>
<path d="M4276 1363 c5 -5 12 -12 15 -16 3 -5 9 -2 12 7 5 12 0 16 -15 16 -12
0 -17 -3 -12 -7z"/>
<path d="M4325 1362 c14 -9 18 -65 5 -57 -6 3 -10 1 -10 -5 0 -7 6 -10 13 -8
6 3 13 21 14 41 2 29 -2 37 -15 37 -10 0 -13 -3 -7 -8z"/>
<path d="M1554 1345 c-3 -8 -4 -20 -1 -27 3 -7 6 -2 7 12 2 23 3 23 9 -5 l7
-30 5 33 c4 23 2 32 -8 32 -8 0 -16 -7 -19 -15z"/>
<path d="M1600 1350 c0 -6 5 -8 10 -5 6 3 10 -3 10 -15 0 -13 -4 -19 -12 -14
-7 5 -8 3 -3 -5 10 -17 28 2 23 25 -3 19 -28 32 -28 14z"/>
<path d="M1640 1330 c0 -16 2 -30 4 -30 2 0 6 14 8 30 3 17 1 30 -4 30 -4 0
-8 -13 -8 -30z"/>
<path d="M2951 1344 c0 -11 3 -14 6 -6 3 7 2 16 -1 19 -3 4 -6 -2 -5 -13z"/>
<path d="M265 1340 c-16 -7 -17 -9 -3 -9 9 -1 20 4 23 9 7 11 7 11 -20 0z"/>
<path d="M1842 1330 c-16 -26 -15 -30 6 -29 11 0 12 2 4 6 -10 4 -10 8 -1 19
7 8 10 16 8 19 -3 2 -10 -5 -17 -15z"/>
<path d="M4000 1320 c0 -16 2 -30 4 -30 2 0 6 14 8 30 3 17 1 30 -4 30 -4 0
-8 -13 -8 -30z"/>
<path d="M4030 1320 c0 -16 2 -30 4 -30 2 0 6 14 8 30 3 17 1 30 -4 30 -4 0
-8 -13 -8 -30z"/>
<path d="M4071 1343 c8 -2 20 -16 26 -31 l11 -27 1 27 c1 16 8 28 19 31 9 2
-3 4 -28 4 -25 0 -38 -2 -29 -4z"/>
<path d="M4151 1334 c0 -11 3 -14 6 -6 3 7 2 16 -1 19 -3 4 -6 -2 -5 -13z"/>
<path d="M2778 1333 c7 -3 16 -2 19 1 4 3 -2 6 -13 5 -11 0 -14 -3 -6 -6z"/>
<path d="M4282 1310 c0 -14 2 -19 5 -12 2 6 2 18 0 25 -3 6 -5 1 -5 -13z"/>
<path d="M277 1291 c-4 -18 -10 -22 -24 -17 -14 6 -16 5 -5 -5 10 -11 15 -10
28 3 9 9 14 22 12 29 -3 8 -7 4 -11 -10z"/>
<path d="M4060 1300 c0 -6 7 -10 15 -10 8 0 15 2 15 4 0 2 -7 6 -15 10 -8 3
-15 1 -15 -4z"/>
<path d="M2756 1276 c7 -19 30 -21 40 -4 4 7 3 8 -5 4 -6 -4 -19 -2 -27 5 -12
10 -13 9 -8 -5z"/>
<path d="M270 1240 c-23 -7 -23 -8 -3 -9 12 -1 25 4 28 9 3 6 5 10 3 9 -2 -1
-14 -5 -28 -9z"/>
<path d="M2773 1233 c9 -2 23 -2 30 0 6 3 -1 5 -18 5 -16 0 -22 -2 -12 -5z"/>
<path d="M1501 1197 c-1 -23 3 -36 9 -32 6 3 10 1 10 -6 0 -7 2 -10 5 -7 3 2
-1 22 -9 44 l-15 39 0 -38z"/>
<path d="M1534 1215 c-3 -8 -1 -27 4 -42 10 -27 10 -26 11 15 1 43 -5 54 -15
27z"/>
<path d="M1700 1190 c0 -33 3 -40 20 -40 24 0 38 44 20 65 -23 28 -40 18 -40
-25z m35 0 c0 -13 -6 -25 -12 -27 -9 -3 -13 6 -13 27 0 21 4 30 13 28 6 -3 12
-15 12 -28z"/>
<path d="M2039 1214 c-11 -14 -11 -18 6 -30 17 -13 18 -16 5 -25 -13 -9 -13
-10 0 -6 17 4 26 55 12 69 -5 5 -14 2 -23 -8z m17 -21 c-10 -10 -19 5 -10 18
6 11 8 11 12 0 2 -7 1 -15 -2 -18z"/>
<path d="M2086 1222 c-3 -5 1 -9 9 -9 8 0 12 4 9 9 -3 4 -7 8 -9 8 -2 0 -6 -4
-9 -8z"/>
<path d="M2159 1218 c-1 -7 -1 -19 0 -27 2 -7 -2 -10 -8 -6 -16 9 -13 -4 4
-21 13 -14 15 -11 15 25 0 37 -8 58 -11 29z"/>
<path d="M2186 1222 c-3 -5 1 -9 9 -9 8 0 12 4 9 9 -3 4 -7 8 -9 8 -2 0 -6 -4
-9 -8z"/>
<path d="M3985 1211 c-3 -10 -1 -29 4 -42 9 -21 10 -19 10 19 1 45 -4 54 -14
23z"/>
<path d="M4193 1224 c20 -6 24 -60 5 -67 -8 -2 -7 -3 2 -3 10 1 15 12 15 36 0
27 -4 35 -20 37 -16 1 -16 1 -2 -3z"/>
<path d="M4547 1223 c-14 -13 -6 -41 13 -46 16 -4 20 0 19 16 0 12 -3 16 -6
10 -2 -7 -9 -13 -14 -13 -14 0 -11 28 4 33 6 3 7 6 1 6 -6 1 -14 -2 -17 -6z"/>
<path d="M4590 1220 c0 -6 5 -8 12 -4 8 5 9 2 5 -9 -3 -9 -1 -19 4 -23 7 -4 9
3 7 17 -3 23 -28 40 -28 19z"/>
<path d="M4668 1218 c-2 -7 -1 -26 3 -43 6 -28 7 -26 8 13 1 42 -3 53 -11 30z"/>
<path d="M4718 1223 c-2 -5 -1 -24 3 -43 l6 -35 2 43 c1 39 -3 52 -11 35z"/>
<path d="M1567 1203 c-12 -11 -8 -23 8 -23 8 0 15 7 15 15 0 16 -12 20 -23 8z"/>
<path d="M1605 1200 c-3 -6 1 -7 9 -4 18 7 21 14 7 14 -6 0 -13 -4 -16 -10z"/>
<path d="M1641 1178 c2 -28 2 -29 6 -8 3 14 10 28 17 32 7 5 5 8 -6 8 -14 0
-18 -8 -17 -32z"/>
<path d="M1760 1196 c0 -9 7 -16 16 -16 9 0 14 5 12 12 -6 18 -28 21 -28 4z"/>
<path d="M1821 1194 c0 -11 3 -14 6 -6 3 7 2 16 -1 19 -3 4 -6 -2 -5 -13z"/>
<path d="M1854 1199 c-3 -5 1 -6 8 -4 9 4 14 -2 15 -15 1 -11 -3 -20 -8 -20
-6 0 -7 5 -4 10 3 6 1 10 -5 10 -18 0 -6 -25 13 -28 12 -3 17 4 17 21 0 14 6
27 13 30 6 2 0 4 -16 4 -15 0 -30 -3 -33 -8z"/>
<path d="M1934 1196 c-8 -22 3 -49 19 -43 6 2 12 14 12 27 0 27 -22 39 -31 16z
m26 -16 c0 -11 -4 -20 -10 -20 -5 0 -10 9 -10 20 0 11 5 20 10 20 6 0 10 -9
10 -20z"/>
<path d="M1999 1178 c4 -28 6 -29 9 -9 2 13 0 27 -5 32 -6 6 -7 -3 -4 -23z"/>
<path d="M4014 1196 c-9 -22 2 -46 21 -46 12 0 15 8 13 27 -3 30 -25 42 -34
19z m26 -6 c0 -5 -4 -10 -10 -10 -5 0 -10 5 -10 10 0 6 5 10 10 10 6 0 10 -4
10 -10z"/>
<path d="M4060 1199 c0 -5 5 -7 10 -4 6 3 10 2 10 -4 0 -5 -6 -12 -12 -14 -8
-3 -6 -6 5 -6 11 -1 17 6 17 19 0 11 -7 20 -15 20 -8 0 -15 -5 -15 -11z"/>
<path d="M4101 1178 c2 -30 2 -31 6 -5 5 34 20 35 26 2 4 -23 4 -23 3 2 -1 18
-7 29 -18 31 -15 3 -18 -3 -17 -30z"/>
<path d="M4234 1196 c-9 -22 2 -46 21 -46 12 0 15 8 13 27 -3 30 -25 42 -34
19z m26 -6 c0 -5 -4 -10 -10 -10 -5 0 -10 5 -10 10 0 6 5 10 10 10 6 0 10 -4
10 -10z"/>
<path d="M4322 1180 c0 -19 2 -27 5 -17 2 9 2 25 0 35 -3 9 -5 1 -5 -18z"/>
<path d="M4340 1200 c0 -5 7 -7 15 -4 8 4 15 8 15 10 0 2 -7 4 -15 4 -8 0 -15
-4 -15 -10z"/>
<path d="M4411 1180 c0 -29 1 -32 10 -17 7 11 7 23 0 35 -9 14 -10 11 -10 -18z"/>
<path d="M4430 1206 c0 -2 7 -7 16 -10 8 -3 12 -2 9 4 -6 10 -25 14 -25 6z"/>
<path d="M4471 1178 c2 -30 2 -31 6 -5 5 34 20 35 26 2 4 -23 4 -23 3 2 -1 18
-7 29 -18 31 -15 3 -18 -3 -17 -30z"/>
<path d="M1801 1183 c-1 -12 4 -25 9 -28 12 -7 12 2 0 30 -8 19 -9 19 -9 -2z"/>
<path d="M2090 1190 c-10 -6 -11 -10 -2 -10 6 0 12 -5 12 -11 0 -5 -4 -7 -10
-4 -5 3 -10 1 -10 -4 0 -16 20 -13 26 4 9 23 1 36 -16 25z"/>
<path d="M3961 1190 c0 -8 4 -22 9 -30 12 -18 12 -2 0 25 -6 13 -9 15 -9 5z"/>
<path d="M4281 1184 c0 -11 3 -14 6 -6 3 7 2 16 -1 19 -3 4 -6 -2 -5 -13z"/>
<path d="M4301 1184 c0 -11 3 -14 6 -6 3 7 2 16 -1 19 -3 4 -6 -2 -5 -13z"/>
<path d="M260 1180 l-25 -8 28 -1 c15 -1 27 4 27 9 0 6 -1 10 -2 9 -2 -1 -14
-5 -28 -9z"/>
<path d="M4350 1180 c-13 -8 -12 -10 3 -10 9 0 17 5 17 10 0 12 -1 12 -20 0z"/>
<path d="M1601 1168 c-1 -20 14 -24 25 -6 4 6 3 8 -4 4 -5 -3 -13 0 -15 6 -3
8 -6 6 -6 -4z"/>
<path d="M2763 1173 c9 -2 23 -2 30 0 6 3 -1 5 -18 5 -16 0 -22 -2 -12 -5z"/>
<path d="M355 1161 c-3 -5 -2 -12 3 -15 5 -3 9 1 9 9 0 17 -3 19 -12 6z"/>
<path d="M382 1145 c0 -16 2 -22 5 -12 2 9 2 23 0 30 -3 6 -5 -1 -5 -18z"/>
<path d="M432 1145 c0 -16 2 -22 5 -12 2 9 2 23 0 30 -3 6 -5 -1 -5 -18z"/>
<path d="M1566 1158 c3 -4 9 -8 15 -8 5 0 9 4 9 8 0 5 -7 9 -15 9 -8 0 -12 -4
-9 -9z"/>
<path d="M1760 1158 c0 -4 4 -8 9 -8 6 0 12 4 15 8 3 5 -1 9 -9 9 -8 0 -15 -4
-15 -9z"/>
<path d="M2187 1159 c7 -7 15 -10 18 -7 3 3 -2 9 -12 12 -14 6 -15 5 -6 -5z"/>
<path d="M2870 1165 c0 -5 5 -17 10 -25 5 -8 10 -10 10 -5 0 6 -5 17 -10 25
-5 8 -10 11 -10 5z"/>
<path d="M4440 1160 c-13 -8 -12 -10 3 -10 9 0 17 5 17 10 0 12 -1 12 -20 0z"/>
<path d="M4547 1159 c7 -7 15 -10 18 -7 3 3 -2 9 -12 12 -14 6 -15 5 -6 -5z"/>
<path d="M4600 1160 c-13 -8 -12 -10 3 -10 9 0 17 5 17 10 0 12 -1 12 -20 0z"/>
<path d="M400 1145 c0 -8 5 -15 10 -15 6 0 10 7 10 15 0 8 -4 15 -10 15 -5 0
-10 -7 -10 -15z"/>
<path d="M2932 1140 c0 -14 2 -19 5 -12 2 6 2 18 0 25 -3 6 -5 1 -5 -13z"/>
<path d="M2951 1144 c0 -11 3 -14 6 -6 3 7 2 16 -1 19 -3 4 -6 -2 -5 -13z"/>
<path d="M4068 1153 c7 -3 16 -2 19 1 4 3 -2 6 -13 5 -11 0 -14 -3 -6 -6z"/>
<path d="M4348 1153 c7 -3 16 -2 19 1 4 3 -2 6 -13 5 -11 0 -14 -3 -6 -6z"/>
<path d="M585 1000 c-3 -5 -13 -10 -22 -10 -9 0 -24 -7 -34 -16 -10 -9 -33
-20 -51 -24 -33 -8 -33 -8 -5 -9 16 -1 41 7 55 18 15 10 37 22 50 25 12 4 22
12 22 17 0 12 -7 12 -15 -1z"/>
<path d="M432 935 c0 -16 2 -22 5 -12 2 9 2 23 0 30 -3 6 -5 -1 -5 -18z"/>
<path d="M2932 935 c0 -16 2 -22 5 -12 2 9 2 23 0 30 -3 6 -5 -1 -5 -18z"/>
<path d="M411 934 c0 -11 3 -14 6 -6 3 7 2 16 -1 19 -3 4 -6 -2 -5 -13z"/>
<path d="M2951 934 c0 -11 3 -14 6 -6 3 7 2 16 -1 19 -3 4 -6 -2 -5 -13z"/>
<path d="M832 885 c0 -16 2 -22 5 -12 2 9 2 23 0 30 -3 6 -5 -1 -5 -18z"/>
<path d="M1025 899 c-4 -6 -5 -12 -2 -15 2 -3 7 2 10 11 7 17 1 20 -8 4z"/>
<path d="M1220 893 c0 -13 5 -23 10 -23 13 0 13 11 0 30 -8 12 -10 11 -10 -7z"/>
<path d="M1412 880 c0 -19 2 -27 5 -17 2 9 2 25 0 35 -3 9 -5 1 -5 -18z"/>
<path d="M1612 880 c0 -19 2 -27 5 -17 2 9 2 25 0 35 -3 9 -5 1 -5 -18z"/>
<path d="M1646 895 c4 -8 8 -15 10 -15 2 0 4 7 4 15 0 8 -4 15 -10 15 -5 0 -7
-7 -4 -15z"/>
<path d="M1812 880 c0 -19 2 -27 5 -17 2 9 2 25 0 35 -3 9 -5 1 -5 -18z"/>
<path d="M1852 880 c0 -19 2 -27 5 -17 2 9 2 25 0 35 -3 9 -5 1 -5 -18z"/>
<path d="M2012 880 c0 -19 2 -27 5 -17 2 9 2 25 0 35 -3 9 -5 1 -5 -18z"/>
<path d="M2212 880 c0 -19 2 -27 5 -17 2 9 2 25 0 35 -3 9 -5 1 -5 -18z"/>
<path d="M2247 895 c-4 -8 -3 -16 1 -19 4 -3 9 4 9 15 2 23 -3 25 -10 4z"/>
<path d="M3146 895 c4 -8 8 -15 10 -15 2 0 4 7 4 15 0 8 -4 15 -10 15 -5 0 -7
-7 -4 -15z"/>
<path d="M3352 880 c0 -19 2 -27 5 -17 2 9 2 25 0 35 -3 9 -5 1 -5 -18z"/>
<path d="M3750 899 c0 -5 -6 -7 -12 -3 -8 5 -8 1 2 -12 8 -10 15 -20 16 -22 1
-2 2 9 2 23 0 14 -2 25 -4 25 -2 0 -4 -5 -4 -11z"/>
<path d="M4002 885 c0 -16 2 -22 5 -12 2 9 2 23 0 30 -3 6 -5 -1 -5 -18z"/>
<path d="M4168 892 c9 -10 19 -14 21 -9 2 5 -3 13 -10 18 -24 15 -30 10 -11
-9z"/>
<path d="M4554 895 c-3 -8 -4 -20 -2 -27 3 -7 7 -1 10 15 6 29 1 36 -8 12z"/>
<path d="M4753 884 c0 -17 2 -22 7 -13 5 6 6 18 3 26 -8 19 -10 16 -10 -13z"/>
<path d="M652 880 c0 -14 2 -19 5 -12 2 6 2 18 0 25 -3 6 -5 1 -5 -13z"/>
<path d="M672 880 c0 -14 2 -19 5 -12 2 6 2 18 0 25 -3 6 -5 1 -5 -13z"/>
<path d="M852 880 c0 -14 2 -19 5 -12 2 6 2 18 0 25 -3 6 -5 1 -5 -13z"/>
<path d="M872 880 c0 -14 2 -19 5 -12 2 6 2 18 0 25 -3 6 -5 1 -5 -13z"/>
<path d="M1047 886 c-4 -10 -5 -21 -2 -24 9 -9 17 6 13 25 -3 17 -4 17 -11 -1z"/>
<path d="M1072 880 c0 -14 2 -19 5 -12 2 6 2 18 0 25 -3 6 -5 1 -5 -13z"/>
<path d="M1252 880 c0 -14 2 -19 5 -12 2 6 2 18 0 25 -3 6 -5 1 -5 -13z"/>
<path d="M1272 880 c0 -14 2 -19 5 -12 2 6 2 18 0 25 -3 6 -5 1 -5 -13z"/>
<path d="M2952 880 c0 -14 2 -19 5 -12 2 6 2 18 0 25 -3 6 -5 1 -5 -13z"/>
<path d="M2972 880 c0 -14 2 -19 5 -12 2 6 2 18 0 25 -3 6 -5 1 -5 -13z"/>
<path d="M3952 880 c0 -14 2 -19 5 -12 2 6 2 18 0 25 -3 6 -5 1 -5 -13z"/>
<path d="M3970 885 c0 -8 5 -15 10 -15 6 0 10 7 10 15 0 8 -4 15 -10 15 -5 0
-10 -7 -10 -15z"/>
<path d="M4202 880 c0 -14 2 -19 5 -12 2 6 2 18 0 25 -3 6 -5 1 -5 -13z"/>
<path d="M4382 880 c0 -14 2 -19 5 -12 2 6 2 18 0 25 -3 6 -5 1 -5 -13z"/>
<path d="M4402 880 c0 -14 2 -19 5 -12 2 6 2 18 0 25 -3 6 -5 1 -5 -13z"/>
<path d="M4577 886 c-4 -10 -5 -21 -2 -24 9 -9 17 6 13 25 -3 17 -4 17 -11 -1z"/>
<path d="M4777 881 c-4 -17 -3 -21 5 -13 5 5 8 16 6 23 -3 8 -7 3 -11 -10z"/>
<path d="M4158 853 c7 -3 16 -2 19 1 4 3 -2 6 -13 5 -11 0 -14 -3 -6 -6z"/>
<path d="M1148 823 c6 -2 18 -2 25 0 6 3 1 5 -13 5 -14 0 -19 -2 -12 -5z"/>
<path d="M1353 795 c0 -22 2 -30 4 -17 2 12 2 30 0 40 -3 9 -5 -1 -4 -23z"/>
<path d="M1401 794 c1 -34 2 -36 9 -14 7 22 8 22 9 4 1 -11 8 -21 16 -21 19 0
20 -3 -10 37 l-25 34 1 -40z"/>
<path d="M3679 793 c5 -37 6 -37 9 -8 2 16 9 33 15 37 8 5 4 8 -8 8 -18 0 -20
-5 -16 -37z"/>
<path d="M3863 795 c0 -22 2 -30 4 -17 2 12 2 30 0 40 -3 9 -5 -1 -4 -23z"/>
<path d="M1192 785 c0 -16 2 -22 5 -12 2 9 2 23 0 30 -3 6 -5 -1 -5 -18z"/>
<path d="M1211 782 l1 -27 7 25 8 25 4 -25 5 -25 5 26 c4 19 1 25 -13 26 -13
1 -18 -5 -17 -25z"/>
<path d="M1510 785 c0 -14 2 -25 4 -25 2 0 6 11 8 25 3 14 1 25 -3 25 -5 0 -9
-11 -9 -25z"/>
<path d="M3732 785 c0 -16 2 -22 5 -12 2 9 2 23 0 30 -3 6 -5 -1 -5 -18z"/>
<path d="M3752 785 c0 -16 2 -22 5 -12 2 9 2 23 0 30 -3 6 -5 -1 -5 -18z"/>
<path d="M3772 785 c0 -16 2 -22 5 -12 2 9 2 23 0 30 -3 6 -5 -1 -5 -18z"/>
<path d="M3822 785 c0 -16 2 -22 5 -12 2 9 2 23 0 30 -3 6 -5 -1 -5 -18z"/>
<path d="M3922 785 c0 -16 2 -22 5 -12 2 9 2 23 0 30 -3 6 -5 -1 -5 -18z"/>
<path d="M3944 796 c-3 -8 -4 -21 -1 -28 3 -7 6 -2 7 12 l2 25 8 -25 c7 -23 8
-23 9 -3 1 27 -17 40 -25 19z"/>
<path d="M4052 785 c0 -16 2 -22 5 -12 2 9 2 23 0 30 -3 6 -5 -1 -5 -18z"/>
<path d="M1466 791 c-4 -7 -5 -15 -2 -18 9 -9 19 4 14 18 -4 11 -6 11 -12 0z"/>
<path d="M1492 780 c0 -14 2 -19 5 -12 2 6 2 18 0 25 -3 6 -5 1 -5 -13z"/>
<path d="M3982 780 c0 -14 2 -19 5 -12 2 6 2 18 0 25 -3 6 -5 1 -5 -13z"/>
<path d="M4002 780 c0 -14 2 -19 5 -12 2 6 2 18 0 25 -3 6 -5 1 -5 -13z"/>
<path d="M1257 777 c-3 -8 3 -14 16 -15 12 0 17 2 12 6 -6 4 -13 11 -16 15 -4
4 -9 2 -12 -6z"/>
<path d="M3790 770 c0 -5 5 -10 11 -10 5 0 7 5 4 10 -3 6 -8 10 -11 10 -2 0
-4 -4 -4 -10z"/>
<path d="M1054 629 c-29 -32 -27 -121 5 -151 l23 -23 -17 28 c-23 36 -24 107
-1 141 20 31 16 34 -10 5z"/>
<path d="M1205 628 c9 -15 17 -47 17 -73 0 -26 -8 -58 -17 -73 l-17 -27 23 23
c20 18 24 33 24 77 0 44 -4 59 -24 77 l-23 23 17 -27z"/>
<path d="M3494 629 c-29 -32 -27 -121 5 -151 l23 -23 -17 28 c-23 36 -24 107
-1 141 20 31 16 34 -10 5z"/>
<path d="M3655 628 c9 -15 17 -47 17 -73 0 -26 -8 -58 -17 -73 l-17 -27 23 23
c20 18 24 33 24 77 0 44 -4 59 -24 77 l-23 23 17 -27z"/>
<path d="M1337 634 c-4 -4 -7 -18 -7 -31 0 -17 9 -27 36 -38 29 -12 35 -19 31
-35 -3 -11 -1 -18 4 -14 5 3 9 16 9 29 0 19 -9 28 -36 40 -39 16 -41 38 -6 43
16 2 25 -4 31 -20 l10 -23 0 25 c1 22 -4 26 -32 28 -18 1 -36 -1 -40 -4z"/>
<path d="M1438 633 c7 -3 12 -25 12 -58 0 -33 -5 -55 -12 -58 -7 -3 3 -5 22
-5 19 0 29 2 23 5 -8 3 -13 25 -13 58 0 33 5 55 13 58 6 3 -4 5 -23 5 -19 0
-29 -2 -22 -5z"/>
<path d="M1517 634 c-4 -4 -7 -18 -7 -31 0 -17 9 -27 36 -38 29 -12 35 -19 31
-35 -3 -11 -1 -18 4 -14 5 3 9 16 9 29 0 19 -9 28 -36 40 -39 16 -41 38 -6 43
16 2 25 -4 31 -20 l10 -23 0 25 c1 22 -4 26 -32 28 -18 1 -36 -1 -40 -4z"/>
<path d="M3538 633 c8 -3 12 -26 12 -64 0 -50 3 -59 18 -59 13 0 14 2 4 9 -19
12 -11 55 11 59 23 5 33 -25 18 -50 -10 -16 -10 -19 0 -16 44 15 32 73 -15 73
-22 -1 -26 4 -26 27 0 20 -5 28 -17 27 -11 0 -13 -3 -5 -6z"/>
<path d="M3787 634 c-4 -4 -7 -18 -7 -31 0 -17 9 -27 36 -38 29 -12 35 -19 31
-35 -3 -11 -1 -18 4 -14 5 3 9 16 9 29 0 19 -9 28 -36 40 -39 16 -41 38 -6 43
16 2 25 -4 31 -20 l10 -23 0 25 c1 22 -4 26 -32 28 -18 1 -36 -1 -40 -4z"/>
<path d="M3889 631 c9 -6 12 -25 10 -65 l-4 -56 53 0 c47 0 52 2 52 23 -1 20
-2 20 -11 5 -6 -11 -22 -18 -39 -18 -26 0 -30 4 -30 26 0 21 4 25 20 21 12 -3
20 0 20 8 0 8 -8 11 -20 8 -16 -4 -20 0 -20 21 0 21 5 26 24 26 14 0 32 -10
40 -22 16 -23 21 -13 10 16 -5 12 -20 16 -63 16 -35 0 -51 -4 -42 -9z"/>
<path d="M4018 633 c7 -3 12 -25 12 -58 0 -33 -5 -55 -12 -58 -7 -3 3 -5 22
-5 19 0 29 2 23 5 -8 3 -13 25 -13 58 0 33 5 55 13 58 6 3 -4 5 -23 5 -19 0
-29 -2 -22 -5z"/>
<path d="M4091 613 c0 -27 1 -27 9 -5 6 15 18 22 35 22 29 0 29 0 -17 -67 -15
-23 -28 -44 -28 -47 0 -3 20 -6 44 -6 37 0 45 4 49 22 8 29 1 36 -8 9 -4 -14
-15 -21 -31 -21 -13 0 -24 2 -24 5 0 2 14 26 30 52 17 26 30 51 30 55 0 4 -20
8 -45 8 -43 0 -45 -1 -44 -27z"/>
<path d="M1105 581 c-5 -10 -4 -16 3 -19 8 -2 7 -8 -3 -19 -8 -8 -13 -19 -10
-24 10 -15 23 -10 21 8 0 10 7 19 18 21 15 3 18 0 13 -17 -4 -17 -1 -21 16
-20 12 0 16 3 10 6 -7 2 -13 18 -13 33 0 16 -4 32 -10 35 -6 3 -7 -1 -4 -9 4
-10 1 -16 -9 -16 -9 0 -17 8 -19 18 -3 14 -5 15 -13 3z"/>
<path d="M1330 528 c0 -10 4 -18 9 -18 5 0 18 -3 28 -6 15 -5 15 -3 -2 7 -11
7 -23 17 -27 23 -5 7 -8 4 -8 -6z"/>
<path d="M1510 528 c0 -10 4 -18 9 -18 5 0 18 -3 28 -6 15 -5 15 -3 -2 7 -11
7 -23 17 -27 23 -5 7 -8 4 -8 -6z"/>
<path d="M3780 528 c0 -10 4 -18 9 -18 5 0 18 -3 28 -6 15 -5 15 -3 -2 7 -11
7 -23 17 -27 23 -5 7 -8 4 -8 -6z"/>
<path d="M1922 269 c-12 -5 -22 -15 -22 -23 0 -8 -6 -17 -12 -19 -10 -4 -10
-6 0 -6 7 -1 12 -15 12 -35 0 -19 -6 -37 -12 -39 -7 -3 -2 -6 12 -6 24 -1 25
2 22 39 -4 36 -2 40 18 40 20 0 22 -4 18 -40 -3 -31 0 -40 12 -40 12 0 14 10
12 45 -4 42 -6 45 -33 45 -31 0 -41 23 -14 34 9 3 15 0 15 -9 0 -8 7 -15 15
-15 21 0 19 27 -3 32 -10 3 -28 1 -40 -3z"/>
<path d="M308 263 c7 -3 12 -25 12 -58 0 -33 -5 -55 -12 -58 -7 -3 7 -5 32 -5
25 0 37 2 28 5 -22 5 -25 53 -4 53 8 0 17 -6 19 -12 3 -7 6 0 6 16 1 23 -2 27
-11 18 -19 -19 -28 -14 -28 13 0 20 5 25 25 25 14 0 29 -8 35 -21 14 -25 24
-18 15 10 -6 18 -14 21 -68 20 -34 0 -56 -3 -49 -6z"/>
<path d="M452 259 c2 -6 8 -10 13 -10 5 0 11 4 13 10 2 6 -4 11 -13 11 -9 0
-15 -5 -13 -11z"/>
<path d="M1033 262 c-13 -2 -23 -8 -23 -14 0 -5 7 -8 15 -4 12 4 15 -4 15 -44
0 -38 -4 -50 -17 -53 -10 -3 2 -5 27 -5 25 0 37 2 28 5 -13 3 -18 18 -20 61
-3 53 -5 57 -25 54z"/>
<path d="M1131 261 c-8 -5 -11 -16 -8 -26 4 -9 11 -14 16 -10 6 3 8 12 4 20
-3 8 0 15 6 15 21 0 24 -31 5 -45 -18 -13 -18 -14 -1 -15 11 0 17 -8 17 -25 0
-31 -25 -33 -34 -3 -4 18 -8 20 -17 11 -26 -26 34 -57 68 -35 17 11 11 101 -8
113 -18 11 -30 11 -48 0z"/>
<path d="M1388 264 c7 -4 12 -26 12 -59 0 -33 -5 -55 -12 -58 -7 -3 12 -6 43
-6 65 -1 97 16 84 45 -5 10 -9 33 -9 49 -1 30 -1 30 -66 32 -36 1 -59 0 -52
-3z m92 -24 c0 -15 -7 -20 -25 -20 -18 0 -25 5 -25 20 0 15 7 20 25 20 18 0
25 -5 25 -20z m0 -45 c16 -19 -3 -45 -31 -45 -14 0 -19 7 -19 30 0 23 5 30 19
30 10 0 24 -7 31 -15z"/>
<path d="M2537 252 c3 -13 -4 -20 -29 -27 -23 -7 -34 -17 -36 -33 -5 -34 14
-50 61 -50 l42 0 -3 64 c-3 54 -7 64 -22 64 -12 0 -17 -6 -13 -18z m-2 -68 c0
-19 -5 -29 -15 -29 -16 0 -25 28 -16 51 10 25 31 10 31 -22z"/>
<path d="M2705 205 c0 -51 3 -65 15 -65 12 0 14 12 12 65 -5 89 -27 89 -27 0z"/>
<path d="M2762 258 c6 -18 28 -21 28 -4 0 9 -7 16 -16 16 -9 0 -14 -5 -12 -12z"/>
<path d="M3143 250 c-3 -11 -10 -20 -17 -20 -6 0 -5 -4 3 -9 9 -6 12 -21 9
-45 -4 -33 -2 -36 22 -35 14 0 19 3 13 6 -7 2 -13 20 -13 39 0 20 5 34 13 34
8 0 8 3 -2 9 -8 5 -11 16 -8 25 4 9 2 16 -4 16 -6 0 -13 -9 -16 -20z"/>
<path d="M3180 260 c0 -5 5 -10 10 -10 6 0 10 5 10 10 0 6 -4 10 -10 10 -5 0
-10 -4 -10 -10z"/>
<path d="M3487 252 c-18 -19 -22 -59 -9 -78 11 -16 48 -34 71 -34 22 0 67 38
57 48 -4 3 -13 -4 -22 -16 -29 -41 -84 -17 -84 37 0 34 17 51 51 51 19 0 30
-6 34 -20 9 -27 25 -25 25 3 0 22 -5 24 -53 26 -41 1 -58 -3 -70 -17z"/>
<path d="M1738 240 c-10 -11 -14 -20 -9 -20 6 0 11 -17 13 -37 2 -30 7 -38 23
-38 11 0 20 7 21 15 0 9 -1 10 -3 3 -9 -26 -23 -12 -23 21 0 24 5 36 18 39 15
4 15 5 0 6 -9 0 -18 8 -20 16 -2 13 -6 12 -20 -5z"/>
<path d="M2025 243 c-16 -28 -3 -97 19 -101 18 -4 36 13 36 33 -1 6 -7 1 -15
-9 -14 -19 -15 -18 -15 16 0 20 6 39 13 41 10 4 10 6 0 6 -7 1 -13 8 -13 16 0
20 -13 19 -25 -2z"/>
<path d="M3835 243 c-16 -28 -3 -97 19 -101 18 -4 36 13 36 33 -1 6 -7 1 -15
-9 -14 -19 -15 -18 -15 16 0 20 6 39 13 41 10 4 10 6 0 6 -7 1 -13 8 -13 16 0
20 -13 19 -25 -2z"/>
<path d="M445 185 c0 -38 3 -45 20 -45 18 0 20 5 17 45 -3 34 -8 45 -21 45
-12 0 -16 -10 -16 -45z"/>
<path d="M524 222 c-7 -4 -13 -29 -15 -57 -4 -47 -3 -50 21 -52 14 -1 18 0 8
3 -29 9 -21 24 12 24 30 0 40 -14 18 -24 -7 -3 -4 -5 7 -3 12 1 20 10 20 22 0
15 -9 22 -35 26 -19 4 -25 7 -14 8 25 1 49 26 39 40 -4 7 1 8 11 4 12 -4 15
-3 10 5 -8 13 -64 16 -82 4z m36 -22 c0 -11 -4 -20 -9 -20 -14 0 -23 18 -16
30 10 17 25 11 25 -10z"/>
<path d="M629 188 l6 -43 80 -2 c44 -1 74 0 68 3 -15 7 -17 60 -3 69 6 3 10 1
10 -4 0 -6 5 -11 10 -11 6 0 10 6 10 14 0 9 -13 14 -41 14 -31 1 -39 -2 -30
-11 6 -6 11 -24 11 -40 0 -22 -4 -28 -17 -25 -13 2 -19 14 -21 41 -4 49 -27
49 -27 0 0 -28 -5 -38 -17 -41 -15 -3 -18 4 -18 37 0 27 -4 41 -13 41 -10 0
-12 -11 -8 -42z"/>
<path d="M836 214 c-38 -38 5 -88 58 -68 9 3 16 11 16 16 0 6 -6 5 -15 -2 -16
-13 -45 -7 -45 10 0 5 14 10 30 10 23 0 30 5 30 19 0 32 -48 42 -74 15z m52
-12 c2 -7 -6 -12 -17 -12 -21 0 -27 11 -14 24 9 9 26 2 31 -12z"/>
<path d="M1237 223 c-12 -11 -8 -23 8 -23 8 0 15 7 15 15 0 16 -12 20 -23 8z"/>
<path d="M1550 216 c-34 -42 30 -101 68 -62 16 18 16 18 -6 7 -23 -12 -42 -8
-42 10 0 5 14 9 30 9 18 0 30 5 30 13 0 34 -57 50 -80 23z m58 -13 c2 -8 -5
-13 -17 -13 -12 0 -21 6 -21 16 0 18 31 15 38 -3z"/>
<path d="M1647 223 c-16 -15 -5 -35 24 -45 22 -8 28 -13 20 -21 -9 -9 -17 -8
-31 1 -16 10 -20 10 -20 -1 0 -9 11 -14 33 -13 25 1 33 6 35 23 3 17 -3 24
-22 29 -14 3 -26 10 -26 15 0 13 24 11 38 -3 9 -9 12 -8 12 5 0 12 -8 17 -28
17 -16 0 -32 -3 -35 -7z"/>
<path d="M2175 184 c0 -37 3 -44 20 -44 16 0 20 7 20 37 0 22 5 38 14 41 10 3
12 -5 9 -37 -3 -36 -1 -41 17 -41 16 0 20 6 20 37 0 27 4 38 15 38 19 0 26
-55 8 -66 -9 -6 -5 -9 13 -9 24 0 25 2 20 43 l-6 42 -75 2 -75 1 0 -44z"/>
<path d="M2366 214 c-9 -8 -16 -22 -16 -29 0 -21 29 -45 54 -45 28 0 46 18 46
45 0 43 -53 61 -84 29z m59 -13 c8 -26 -5 -53 -24 -49 -29 6 -27 68 3 68 8 0
17 -8 21 -19z"/>
<path d="M2600 216 c-34 -42 30 -101 68 -62 16 18 16 18 -6 7 -23 -12 -42 -8
-42 10 0 5 14 9 30 9 18 0 30 5 30 13 0 34 -57 50 -80 23z m58 -13 c2 -8 -5
-13 -17 -13 -12 0 -21 6 -21 16 0 18 31 15 38 -3z"/>
<path d="M2765 185 c0 -33 4 -45 15 -45 12 0 14 10 12 45 -2 25 -9 45 -16 45
-6 0 -11 -18 -11 -45z"/>
<path d="M2825 184 c0 -34 4 -44 16 -44 12 0 15 7 11 25 -4 25 12 55 30 55 6
0 8 -18 6 -40 -3 -37 -2 -40 22 -40 15 0 20 3 13 8 -6 4 -13 23 -15 42 -3 33
-5 35 -43 37 l-40 1 0 -44z"/>
<path d="M2953 217 c-5 -7 -8 -32 -8 -57 0 -37 4 -45 20 -47 11 -2 14 0 8 3
-23 10 -13 24 17 24 32 0 41 -16 13 -23 -14 -4 -13 -5 4 -6 12 0 25 4 28 9 11
18 -16 40 -49 41 l-31 1 33 9 c17 5 32 16 32 24 0 8 5 15 10 15 6 0 10 4 10 9
0 13 -77 11 -87 -2z m42 -17 c0 -7 -6 -15 -12 -17 -8 -3 -13 4 -13 17 0 13 5
20 13 18 6 -3 12 -11 12 -18z"/>
<path d="M3202 218 c-29 -29 -3 -78 42 -78 18 0 46 27 46 45 0 36 -62 59 -88
33z m53 -32 c0 -35 -20 -45 -34 -17 -14 25 -3 53 18 49 10 -2 16 -13 16 -32z"/>
<path d="M3305 184 c0 -40 2 -44 24 -44 19 0 21 3 11 15 -18 22 -4 54 22 47
15 -3 19 -1 16 9 -3 8 -20 15 -39 16 -34 2 -34 2 -34 -43z"/>
<path d="M3637 223 c-12 -11 -8 -23 8 -23 8 0 15 5 15 10 0 6 5 10 10 10 6 0
10 -7 10 -15 0 -8 -8 -15 -19 -15 -10 0 -24 -6 -30 -14 -16 -19 6 -34 49 -33
34 1 36 2 32 31 -3 17 -9 37 -14 44 -11 13 -50 17 -61 5z m43 -58 c0 -8 -7
-15 -15 -15 -8 0 -15 7 -15 15 0 8 7 15 15 15 8 0 15 -7 15 -15z"/>
<path d="M3737 223 c-16 -15 -5 -35 24 -45 22 -8 28 -13 20 -21 -9 -9 -17 -8
-31 1 -16 10 -20 10 -20 -1 0 -9 11 -14 33 -13 25 1 33 6 35 23 3 17 -3 24
-22 29 -14 3 -26 10 -26 15 0 13 24 11 38 -3 9 -9 12 -8 12 5 0 12 -8 17 -28
17 -16 0 -32 -3 -35 -7z"/>
<path d="M3909 217 c15 -15 14 -64 -1 -70 -7 -3 3 -5 22 -5 19 0 29 2 23 5
-15 6 -17 59 -3 68 6 3 10 1 10 -4 0 -6 5 -11 10 -11 6 0 10 6 10 14 0 9 -13
14 -41 14 -31 1 -39 -2 -30 -11z"/>
<path d="M4006 214 c-9 -8 -16 -22 -16 -29 0 -21 29 -45 54 -45 28 0 46 18 46
45 0 43 -53 61 -84 29z m59 -13 c8 -26 -5 -53 -24 -49 -29 6 -27 68 3 68 8 0
17 -8 21 -19z"/>
<path d="M4185 184 c0 -40 2 -44 24 -44 19 0 21 3 11 15 -18 22 -4 54 22 47
15 -3 19 -1 16 9 -3 8 -20 15 -39 16 -34 2 -34 2 -34 -43z"/>
<path d="M4278 198 c6 -46 18 -57 60 -56 l37 0 -4 44 c-2 33 -7 44 -20 44 -12
0 -16 -9 -16 -37 0 -20 -6 -38 -12 -40 -9 -3 -13 8 -13 36 0 33 -4 41 -18 41
-15 0 -18 -6 -14 -32z"/>
<path d="M4405 184 c0 -34 4 -44 16 -44 12 0 15 7 11 25 -4 25 12 55 30 55 6
0 8 -18 6 -40 -3 -37 -2 -40 22 -39 14 0 19 3 13 6 -16 6 -17 45 -1 61 22 22
30 13 26 -28 -3 -36 -1 -40 18 -40 20 0 21 3 14 36 -5 19 -11 39 -15 42 -4 4
-37 7 -73 8 l-67 1 0 -43z"/>
<path d="M4586 214 c-9 -8 -16 -22 -16 -29 0 -21 29 -45 54 -45 28 0 46 18 46
45 0 43 -53 61 -84 29z m59 -13 c8 -26 -5 -53 -24 -49 -29 6 -27 68 3 68 8 0
17 -8 21 -19z"/>
<path d="M4689 217 c15 -15 14 -64 -1 -70 -7 -3 3 -5 22 -5 19 0 29 2 23 5
-15 6 -17 59 -3 68 6 3 10 1 10 -4 0 -6 5 -11 10 -11 6 0 10 6 10 14 0 9 -13
14 -41 14 -31 1 -39 -2 -30 -11z"/>
<path d="M1232 158 c6 -18 28 -21 28 -4 0 9 -7 16 -16 16 -9 0 -14 -5 -12 -12z"/>
<path d="M4790 154 c0 -17 22 -14 28 4 2 7 -3 12 -12 12 -9 0 -16 -7 -16 -16z"/>
</g>
</svg>
