<?xml version="1.0" standalone="no"?>
<!DOCTYPE svg PUBLIC "-//W3C//DTD SVG 20010904//EN"
 "http://www.w3.org/TR/2001/REC-SVG-20010904/DTD/svg10.dtd">
<svg version="1.0" xmlns="http://www.w3.org/2000/svg"
 width="702.000000pt" height="476.000000pt" viewBox="0 0 702.000000 476.000000"
 preserveAspectRatio="xMidYMid meet">
<metadata>
Created by potrace 1.16, written by Peter Selinger 2001-2019
</metadata>
<g transform="translate(0.000000,476.000000) scale(0.100000,-0.100000)"
fill="#000000" stroke="none">
<path d="M584 4585 c-17 -13 -17 -14 -2 -15 12 0 18 -11 21 -37 3 -31 4 -29 5
15 1 28 1 52 -1 52 -2 0 -12 -7 -23 -15z"/>
<path d="M657 4594 c-14 -14 -7 -26 8 -14 12 10 19 10 28 1 9 -9 5 -17 -21
-37 -41 -33 -41 -44 3 -44 19 0 35 5 35 10 0 6 -12 10 -27 10 l-28 1 28 15
c20 11 27 22 25 37 -3 22 -36 35 -51 21z"/>
<path d="M732 4588 c-16 -16 -15 -50 2 -74 12 -15 18 -17 33 -8 21 13 27 36
19 70 -7 26 -34 32 -54 12z m44 -23 c7 -26 -11 -59 -27 -49 -10 6 -12 58 -2
67 13 13 23 7 29 -18z"/>
<path d="M860 2525 l0 -2025 885 0 c682 0 885 -3 885 -12 0 -9 3 -9 12 0 9 9
457 12 1955 12 l1943 0 0 2025 0 2025 -2840 0 -2840 0 0 -2025z m711 1988 l2
-28 4 28 4 27 465 0 464 0 1 -27 2 -28 4 28 4 27 470 0 469 0 1 -27 2 -28 4
28 4 27 260 0 259 0 -24 -62 c-44 -117 -58 -149 -64 -143 -3 2 -22 -22 -42
-55 -20 -33 -39 -57 -43 -54 -3 3 -10 -4 -17 -15 -6 -12 -14 -19 -18 -17 -5 3
-20 -15 -34 -39 l-27 -44 48 -3 47 -3 -50 -118 c-28 -65 -52 -114 -54 -108 -7
20 -20 12 -41 -25 -26 -43 -26 -44 -1 -44 18 0 19 -3 9 -22 -6 -12 -19 -30
-28 -39 -26 -29 -83 -139 -72 -139 20 0 12 -24 -35 -105 -25 -44 -48 -89 -50
-99 -5 -26 -24 -45 -24 -26 -1 10 -8 6 -21 -10 -12 -14 -23 -23 -26 -20 -3 3
-16 -14 -30 -37 l-25 -43 31 0 c29 0 31 -2 20 -22 -11 -20 -13 -20 -24 -5 -11
16 -15 13 -38 -25 l-25 -43 25 -5 c24 -5 25 -6 10 -19 -14 -11 -17 -11 -17 0
0 8 -9 1 -19 -14 -10 -16 -22 -28 -26 -27 -8 2 -45 -50 -45 -62 0 -5 9 -8 20
-8 26 0 25 -3 -7 -61 -20 -37 -29 -46 -39 -38 -9 8 -16 5 -24 -11 -6 -11 -15
-18 -19 -16 -4 3 -14 -6 -22 -20 -7 -14 -41 -47 -75 -72 -310 -237 -513 -463
-724 -807 -24 -38 -53 -86 -65 -105 -12 -19 -62 -106 -111 -192 -56 -100 -94
-157 -103 -155 -8 1 -28 -21 -46 -50 -17 -29 -34 -50 -38 -47 -3 3 -10 -4 -17
-15 -6 -12 -15 -19 -19 -17 -4 3 -28 -30 -54 -72 -33 -56 -42 -78 -32 -80 10
-2 0 -22 -33 -65 -54 -71 -130 -176 -178 -249 -30 -47 -33 -49 -43 -29 -16 28
-22 27 -48 -14 -29 -43 -29 -45 2 -45 18 0 23 -4 19 -15 -4 -9 -13 -13 -24
-10 -12 4 -22 -5 -36 -30 l-19 -35 -16 22 -17 21 -24 -39 c-13 -21 -34 -56
-47 -76 l-23 -38 29 0 c21 0 24 -3 13 -9 -8 -6 -17 -8 -21 -5 -4 2 -10 -4 -14
-15 -3 -10 -23 -31 -45 -46 -30 -21 -43 -25 -53 -16 -11 8 -17 5 -26 -13 -8
-14 -29 -28 -54 -36 -38 -11 -42 -10 -59 12 -9 12 -18 26 -18 31 0 19 -21 3
-41 -33 l-23 -40 -108 0 -108 0 0 330 0 330 28 1 27 2 -27 4 -28 4 0 335 0
334 28 1 27 2 -27 4 -28 4 0 330 0 329 28 1 27 2 -27 4 -28 4 0 330 0 329 28
1 27 2 -27 4 -28 4 0 335 0 334 28 1 27 2 -27 4 -28 4 0 330 0 329 350 0 350
0 1 -27z m2830 0 l2 -28 4 28 4 27 470 0 469 0 1 -27 2 -28 4 28 4 27 465 0
464 0 1 -27 2 -28 4 28 4 27 115 0 114 0 0 -330 0 -330 -27 -1 -28 -2 28 -4
c31 -5 35 -23 10 -39 -10 -6 -78 -59 -151 -118 -129 -102 -150 -117 -137 -96
4 6 -13 10 -44 10 -54 0 -59 -4 -36 -34 22 -29 19 -36 -20 -36 -33 0 -35 -2
-25 -21 16 -28 5 -49 -24 -49 -18 0 -24 -4 -20 -15 5 -11 -1 -15 -20 -15 -18
0 -24 -4 -20 -15 5 -11 -1 -15 -20 -15 -28 0 -33 -9 -14 -28 9 -9 5 -12 -20
-12 -24 0 -30 -4 -26 -15 5 -11 -1 -15 -20 -15 -24 0 -26 -2 -15 -21 10 -19 4
-28 -52 -85 -49 -49 -70 -64 -92 -64 -25 0 -28 -2 -17 -15 11 -13 3 -15 -61
-15 -57 0 -70 -3 -61 -12 19 -19 14 -28 -14 -28 -19 0 -25 -4 -20 -15 4 -11
-1 -15 -19 -15 -30 0 -30 0 -4 -44 24 -41 35 -45 44 -16 4 11 10 18 15 15 5
-3 14 4 20 15 6 11 15 18 20 15 5 -3 13 3 19 12 7 12 10 14 11 4 0 -8 -25 -42
-56 -77 -51 -59 -59 -64 -96 -64 l-40 0 16 -25 c22 -33 21 -35 -19 -35 -38 0
-42 -5 -20 -34 8 -11 15 -23 15 -28 0 -4 -34 -8 -75 -8 l-76 0 23 -40 c13 -22
26 -40 29 -40 3 0 12 11 19 25 7 14 17 25 22 25 13 0 9 -24 -8 -48 -12 -18
-25 -22 -70 -22 l-55 0 25 -42 25 -43 -61 -93 c-50 -75 -66 -92 -86 -92 -21 0
-22 -2 -12 -15 11 -13 8 -15 -20 -15 -32 0 -32 0 -16 -25 16 -24 15 -27 -10
-70 -14 -25 -30 -45 -35 -45 -5 0 -8 -3 -7 -7 4 -15 -47 -93 -61 -93 -8 0 -11
-6 -7 -15 4 -11 -2 -15 -24 -15 -27 0 -29 -2 -18 -19 15 -25 -3 -71 -31 -78
-13 -3 -17 -11 -14 -24 4 -14 0 -19 -16 -19 -14 0 -19 -5 -15 -15 5 -11 -1
-15 -21 -15 -20 0 -26 -4 -21 -15 4 -11 -1 -15 -19 -15 -29 0 -31 -8 -10 -36
22 -29 18 -34 -20 -34 -40 0 -41 -2 -19 -35 13 -19 13 -27 2 -44 -7 -12 -23
-21 -35 -21 -25 0 -29 -10 -11 -28 9 -9 5 -12 -21 -12 -29 0 -32 -2 -21 -15
11 -13 8 -15 -18 -15 -24 0 -30 -4 -26 -15 5 -11 -1 -15 -21 -15 l-27 0 21
-36 22 -37 -27 -38 c-15 -22 -29 -39 -31 -39 -5 0 3 15 29 53 l19 27 -56 0
-57 0 22 -35 22 -35 -61 0 -61 0 26 -40 c20 -30 30 -38 39 -30 9 8 15 8 20 0
3 -5 -10 -30 -31 -55 -33 -41 -40 -45 -80 -45 -49 0 -50 -1 -28 -35 l16 -25
-41 0 -41 0 17 -26 c17 -26 16 -26 -38 -80 -71 -71 -183 -164 -198 -164 -6 0
-11 -4 -11 -9 0 -9 -114 -87 -167 -115 -18 -9 -51 -16 -74 -16 -36 0 -40 -2
-29 -15 11 -13 5 -15 -41 -15 -41 0 -50 -3 -41 -12 18 -18 15 -35 -8 -41 -11
-3 -18 -1 -14 4 3 5 -17 9 -45 9 -41 0 -49 -3 -45 -15 5 -11 -1 -15 -19 -15
-20 0 -24 -4 -20 -19 4 -17 -8 -23 -84 -47 -51 -16 -120 -29 -165 -32 -56 -3
-75 -7 -72 -17 3 -8 -15 -16 -58 -24 -35 -7 -68 -14 -75 -16 -7 -2 -10 2 -6
11 4 11 -6 14 -52 14 -51 0 -56 -2 -45 -15 20 -25 4 -32 -115 -49 -60 -9 -128
-19 -149 -23 -28 -4 -37 -3 -32 5 5 9 -9 12 -49 12 -53 0 -55 -1 -45 -20 10
-19 8 -20 -35 -20 -42 0 -58 -11 -35 -25 23 -14 7 -25 -35 -25 -42 0 -45 2
-46 28 l-2 27 -4 -27 -4 -28 -465 0 -464 0 -1 28 -2 27 -4 -27 -4 -28 -109 0
c-103 0 -108 1 -124 25 -15 23 -15 25 3 35 25 13 44 13 36 0 -13 -21 7 -31 22
-11 9 14 25 21 46 21 24 0 28 3 19 12 -18 18 -15 30 21 70 17 21 47 56 65 78
19 23 42 40 54 40 14 0 18 4 14 16 -4 10 4 30 19 50 22 29 32 34 66 34 44 0
45 2 24 33 -13 20 -13 25 1 45 13 18 25 22 75 22 32 0 59 2 59 6 0 3 -11 22
-25 42 -14 20 -25 40 -25 44 0 5 20 8 45 8 25 0 45 3 45 8 -1 17 -26 38 -40
34 -13 -5 -13 -3 -1 11 8 10 28 17 47 17 26 0 32 4 28 15 -4 8 -12 15 -20 15
-8 0 -14 2 -14 6 0 13 103 164 113 164 6 0 7 3 4 6 -4 4 1 20 10 35 13 21 25
29 46 29 25 0 28 2 17 15 -11 13 -8 21 15 45 30 31 79 41 88 18 2 -7 7 -10 11
-7 4 4 -1 20 -11 37 -24 42 -6 62 54 62 36 0 44 3 39 15 -4 11 2 15 20 15 21
0 24 4 19 20 -5 17 -2 20 20 20 l26 0 -18 31 c-18 30 -18 31 6 50 13 10 30 19
38 19 8 0 11 5 7 11 -7 12 97 119 115 119 7 0 10 4 7 8 -3 5 24 39 59 76 35
37 62 71 62 74 -1 4 8 8 21 10 12 2 20 7 17 12 -11 18 26 60 52 60 18 0 24 4
19 15 -4 11 2 15 26 15 26 0 29 2 18 15 -11 13 -8 15 20 15 32 0 32 0 16 25
-24 36 -20 45 20 45 31 0 35 2 24 15 -11 13 -8 15 14 15 23 0 26 3 21 20 -5
17 -2 20 20 20 20 0 26 4 21 15 -4 12 4 15 39 15 25 0 45 3 45 6 0 4 -9 22
-21 41 -16 25 -26 32 -40 28 -13 -4 -19 -2 -19 9 0 13 12 16 61 16 56 0 60 2
54 20 -5 16 -2 20 19 20 18 0 24 4 20 15 -5 11 1 15 20 15 18 0 24 4 20 15 -5
11 1 15 20 15 32 0 32 1 0 50 -26 39 -27 40 -41 20 -8 -11 -18 -18 -23 -15 -5
3 -11 -4 -15 -15 -3 -11 -11 -20 -17 -20 -5 0 -19 -10 -30 -23 -34 -38 -16 -5
72 133 46 73 92 135 102 138 10 2 15 8 12 13 -10 17 7 49 27 49 10 0 20 7 20
15 1 8 2 19 3 24 0 5 24 24 51 43 28 19 70 48 95 65 333 230 1066 682 1657
1023 127 74 230 137 227 141 -5 9 -117 -54 -498 -279 -472 -278 -865 -521
-1281 -790 -22 -15 -83 -57 -136 -94 -53 -37 -99 -68 -103 -68 -12 0 25 61 40
67 8 3 13 12 10 19 -4 10 3 14 25 14 29 0 29 0 13 25 -15 23 -15 27 0 50 9 14
25 25 36 25 17 0 18 3 9 18 -14 23 13 82 37 82 14 0 14 3 4 15 -11 13 -6 15
39 15 l51 0 -26 41 c-31 50 -26 69 21 69 40 0 41 2 19 35 -16 25 -16 25 20 25
42 0 43 2 16 45 -17 27 -18 37 -9 64 9 25 16 31 40 31 29 0 29 0 15 29 -18 33
-13 41 26 41 l29 0 -17 30 c-17 28 -17 31 -1 65 15 32 21 35 58 35 l41 0 -21
34 c-12 18 -21 40 -21 47 0 22 102 259 111 259 5 0 6 7 3 15 -5 11 1 15 20 15
26 0 26 1 12 21 -20 29 -10 49 25 49 28 0 28 0 12 28 -16 28 -15 32 21 123 21
52 42 104 47 117 8 22 11 22 204 22 l195 0 1 -27z m-571 -373 c0 -5 -2 -10 -4
-10 -3 0 -8 5 -11 10 -3 6 -1 10 4 10 6 0 11 -4 11 -10z m2700 -630 l0 -310
-27 -1 -28 -2 28 -4 27 -4 0 -330 0 -329 -27 -1 -28 -2 28 -4 27 -4 0 -330 0
-329 -27 -1 -28 -2 28 -4 27 -4 0 -335 0 -334 -27 -1 -28 -2 28 -4 27 -4 0
-330 0 -329 -115 0 -115 0 -1 28 -2 27 -4 -27 -4 -28 -465 0 -464 0 -1 28 -2
27 -4 -27 -4 -28 -470 0 -469 0 -1 28 -2 27 -4 -27 -4 -28 -465 0 -464 0 -1
28 -2 27 -4 -27 -4 -28 -370 0 c-203 0 -369 3 -369 8 1 22 25 36 84 47 l66 13
17 -29 c22 -36 29 -36 48 1 19 37 36 46 102 55 45 6 54 4 59 -10 6 -16 9 -15
24 5 12 16 39 26 105 40 83 17 90 17 102 2 7 -10 13 -21 13 -26 0 -5 10 6 23
24 20 30 36 37 147 71 109 33 126 36 136 23 10 -13 17 -10 50 20 22 20 52 41
68 48 25 10 31 9 42 -7 8 -10 14 -15 14 -9 0 5 11 23 24 39 24 29 25 29 39 11
13 -18 15 -18 32 12 l19 31 18 -29 c10 -17 20 -30 22 -30 4 0 46 68 46 76 0 2
-12 4 -27 4 -22 0 -12 9 57 55 46 30 84 54 85 52 1 -1 7 -12 13 -23 18 -34 67
-27 92 14 11 18 20 35 20 37 0 3 -19 5 -42 5 l-43 0 55 50 c30 27 58 49 61 50
3 0 11 -12 18 -27 9 -19 15 -23 23 -15 8 8 15 8 24 1 9 -7 19 0 38 28 l26 38
-46 3 -47 3 34 35 c21 22 35 30 40 23 4 -7 18 8 36 39 24 42 31 48 39 35 9
-14 14 -11 33 20 12 20 20 41 17 46 -4 5 31 58 76 117 78 101 158 193 158 181
0 -9 55 47 73 75 21 33 21 38 2 38 -8 0 -15 5 -15 10 0 6 6 10 13 10 7 0 26
22 42 50 17 27 34 50 38 50 4 0 23 16 42 35 20 19 38 34 42 34 4 -1 17 17 31
40 l24 41 -31 0 c-29 0 -30 2 -19 20 12 19 14 19 25 4 11 -15 13 -14 24 9 7
15 15 24 20 22 4 -3 14 4 22 15 7 11 16 18 19 15 5 -5 88 127 88 139 0 3 -14
6 -30 6 l-31 0 16 31 c10 18 22 28 29 26 8 -3 19 5 26 18 7 14 16 22 21 20 4
-3 17 11 30 31 l22 36 16 -21 c17 -22 17 -22 39 18 l23 40 -46 3 -46 3 89 130
c51 75 95 129 103 128 8 -2 36 34 68 87 50 86 167 240 193 256 6 4 14 2 16 -5
3 -8 12 -2 23 16 11 16 19 22 19 13 1 -11 4 -10 12 4 10 18 12 18 23 3 11 -15
13 -14 24 9 6 14 15 23 20 20 5 -3 12 2 16 12 6 16 7 16 17 -1 9 -17 12 -15
35 18 14 20 23 39 20 41 -3 3 -26 8 -52 12 l-46 7 36 35 c30 29 37 32 46 20 8
-13 12 -11 29 10 11 14 20 22 20 18 0 -4 16 8 35 27 19 19 39 35 44 35 5 0 11
7 15 15 3 8 11 15 18 15 7 0 30 31 52 69 28 49 58 85 110 128 86 72 266 213
272 213 2 0 4 -139 4 -310z m-3340 -664 c0 -2 -11 -23 -25 -47 -122 -209 -311
-470 -329 -452 -2 3 -19 -20 -36 -51 -18 -31 -36 -54 -40 -51 -5 3 -16 -7 -24
-22 -8 -15 -18 -27 -23 -25 -4 2 -18 -13 -31 -32 -19 -31 -20 -36 -6 -36 14 0
14 -3 4 -15 -12 -14 -15 -13 -30 10 l-17 25 -13 -25 c-7 -13 -17 -22 -21 -19
-4 2 -13 -5 -19 -16 -6 -11 -15 -18 -19 -16 -4 3 -14 -6 -21 -19 -7 -13 -17
-22 -21 -19 -5 3 -21 -18 -36 -45 -16 -28 -33 -51 -40 -51 -7 0 -17 -9 -23
-20 -6 -11 -14 -19 -18 -16 -4 2 -27 -28 -50 -67 -42 -71 -42 -72 -20 -79 l23
-6 -22 -7 c-12 -4 -25 -16 -28 -26 -4 -10 -13 -19 -21 -19 -8 0 -14 -6 -14
-13 0 -22 -49 -61 -79 -63 l-28 -2 36 67 c210 379 416 670 615 865 101 98 232
211 320 273 28 20 56 29 56 19z m2085 -386 c3 -5 -1 -10 -10 -10 -9 0 -13 5
-10 10 3 6 8 10 10 10 2 0 7 -4 10 -10z m-135 -241 c0 -5 -9 -9 -20 -9 -22 0
-23 1 -14 24 5 13 9 14 20 5 8 -6 14 -15 14 -20z m-2610 -274 c-10 -12 -16
-13 -26 -4 -20 16 -18 19 12 19 22 0 25 -2 14 -15z m-120 -129 c0 -11 -19 -15
-25 -6 -3 5 1 10 9 10 9 0 16 -2 16 -4z m-140 -186 c0 -5 -5 -10 -11 -10 -5 0
-7 5 -4 10 3 6 8 10 11 10 2 0 4 -4 4 -10z m-115 -30 c-3 -5 2 -10 11 -10 16
0 16 -2 -1 -20 -23 -25 -42 -11 -26 19 7 12 14 21 17 21 3 0 2 -4 -1 -10z
m-235 -339 c-5 -11 -15 -23 -22 -27 -7 -5 -8 -2 -3 7 21 37 44 55 25 20z m-42
-61 c-7 -10 -14 -17 -17 -15 -4 4 18 35 25 35 2 0 -1 -9 -8 -20z m-28 -33 c0
-7 -8 -22 -18 -33 -10 -10 -42 -54 -71 -97 -30 -43 -56 -76 -58 -73 -3 2 22
41 54 86 32 45 65 92 73 106 17 28 20 29 20 11z m-50 -137 c0 -5 -5 -10 -11
-10 -5 0 -7 5 -4 10 3 6 8 10 11 10 2 0 4 -4 4 -10z m-300 -295 c-7 -8 -14
-15 -15 -15 -2 0 -5 7 -9 15 -4 10 1 15 16 15 17 0 18 -2 8 -15z m1208 -212
c2 -8 -6 -13 -22 -13 -19 0 -24 4 -19 15 6 18 34 16 41 -2z m-1463 -3 c-3 -5
-16 -10 -28 -9 -20 1 -20 2 3 9 14 4 26 8 28 9 2 1 0 -3 -3 -9z"/>
<path d="M1364 4380 c1 -43 2 -45 31 -45 29 0 30 2 31 45 l2 45 -7 -40 c-5
-31 -10 -40 -26 -40 -16 0 -21 9 -26 40 l-7 40 2 -45z"/>
<path d="M1453 4404 c-7 -18 4 -31 30 -36 10 -1 18 -7 18 -13 0 -16 -33 -18
-42 -3 -7 10 -9 9 -9 -5 0 -15 7 -18 33 -15 24 2 32 8 32 23 0 12 -9 21 -23
25 -28 6 -34 23 -9 28 9 2 17 -1 17 -7 0 -6 4 -11 10 -11 5 0 7 7 4 15 -8 20
-53 19 -61 -1z"/>
<path d="M1546 4380 c-19 -48 -20 -58 -4 -42 15 15 48 16 48 2 0 -5 4 -10 10
-10 5 0 2 20 -8 45 -9 25 -19 45 -23 45 -4 0 -14 -18 -23 -40z m28 5 c3 -8 1
-15 -4 -15 -6 0 -10 7 -10 15 0 8 2 15 4 15 2 0 6 -7 10 -15z"/>
<path d="M1666 4380 c-19 -48 -20 -58 -4 -42 15 15 48 16 48 2 0 -5 4 -10 10
-10 5 0 2 20 -8 45 -9 25 -19 45 -23 45 -4 0 -14 -18 -23 -40z m28 5 c3 -8 1
-15 -4 -15 -6 0 -10 7 -10 15 0 8 2 15 4 15 2 0 6 -7 10 -15z"/>
<path d="M1843 4375 c0 -27 2 -40 4 -28 2 12 11 27 18 33 16 13 18 10 29 -35
2 -11 4 -4 3 15 -2 30 -5 35 -24 33 -13 -2 -23 4 -26 15 -3 9 -5 -5 -4 -33z"/>
<path d="M2311 4386 c-12 -18 -21 -36 -21 -40 0 -3 23 -6 50 -6 28 0 50 3 50
6 0 13 -42 74 -50 74 -5 0 -18 -15 -29 -34z"/>
<path d="M1809 4405 c-7 -6 2 -75 10 -75 3 0 6 15 6 34 0 34 -7 51 -16 41z"/>
<path d="M1742 4368 c-2 -34 0 -38 23 -38 23 0 25 4 23 38 -1 36 -1 36 -5 5
-3 -19 -10 -33 -18 -33 -8 0 -15 14 -18 33 -4 31 -4 31 -5 -5z"/>
<path d="M1920 4385 c-19 -23 -8 -50 20 -50 16 0 26 6 28 18 4 18 -14 47 -28
47 -4 0 -13 -7 -20 -15z m37 -11 c8 -21 -13 -42 -28 -27 -13 13 -5 43 11 43 6
0 13 -7 17 -16z"/>
<path d="M1998 4392 c-19 -4 -26 -62 -8 -62 6 0 10 11 10 25 0 30 7 31 40 4
l25 -21 -24 6 c-16 3 -21 2 -14 -5 13 -13 45 -8 50 8 2 6 -5 14 -16 18 -12 3
-21 10 -21 15 0 5 8 7 18 3 14 -5 15 -3 5 7 -10 10 -15 11 -27 1 -8 -6 -16 -8
-18 -4 -1 5 -11 7 -20 5z"/>
<path d="M1300 4250 c0 -22 -4 -40 -10 -40 -5 0 -10 5 -10 10 0 6 -4 10 -10
10 -5 0 -7 -7 -3 -16 3 -8 15 -14 27 -12 17 2 22 11 24 46 2 25 -1 42 -7 42
-6 0 -11 -18 -11 -40z"/>
<path d="M1666 4250 c-19 -48 -20 -58 -4 -42 15 15 48 16 48 2 0 -5 4 -10 10
-10 5 0 2 20 -8 45 -9 25 -19 45 -23 45 -4 0 -14 -18 -23 -40z m28 5 c3 -8 1
-15 -4 -15 -6 0 -10 7 -10 15 0 8 2 15 4 15 2 0 6 -7 10 -15z"/>
<path d="M1843 4245 c0 -27 2 -40 4 -28 2 12 11 27 18 33 16 13 18 10 29 -35
2 -11 4 -4 3 15 -2 30 -5 35 -24 33 -13 -2 -23 4 -26 15 -3 9 -5 -5 -4 -33z"/>
<path d="M1809 4275 c-7 -6 2 -75 10 -75 3 0 6 15 6 34 0 34 -7 51 -16 41z"/>
<path d="M1345 4262 c-6 -4 -12 -19 -13 -34 -2 -25 2 -28 28 -28 25 0 30 4 30
23 0 21 -16 47 -29 47 -4 0 -11 -4 -16 -8z m25 -12 c0 -5 -7 -10 -16 -10 -8 0
-12 5 -9 10 3 6 10 10 16 10 5 0 9 -4 9 -10z m0 -30 c0 -5 -7 -10 -16 -10 -8
0 -12 5 -9 10 3 6 10 10 16 10 5 0 9 -4 9 -10z"/>
<path d="M1418 4263 c-14 -3 -18 -15 -18 -48 0 -34 -4 -44 -20 -48 -30 -8 -26
-45 5 -53 14 -3 25 -12 25 -20 0 -16 -26 -19 -35 -4 -3 6 -11 10 -17 10 -7 0
-6 -6 2 -15 16 -20 44 -19 61 1 11 14 10 18 -6 30 -10 8 -25 14 -32 14 -7 0
-13 4 -13 9 0 17 20 23 35 11 9 -8 15 -8 15 -2 0 6 -6 13 -12 15 -10 4 -10 6
0 6 6 1 12 7 12 15 0 7 9 16 21 19 16 4 20 12 17 33 -3 29 -12 34 -40 27z m32
-34 c0 -10 -7 -19 -15 -19 -15 0 -21 31 -9 43 11 10 24 -3 24 -24z"/>
<path d="M1485 4260 c-3 -5 -3 -14 0 -20 3 -5 1 -10 -4 -10 -6 0 -11 -7 -11
-15 0 -10 10 -15 30 -15 26 0 30 3 30 29 0 17 -6 31 -16 35 -21 8 -22 8 -29
-4z m30 -10 c3 -5 -1 -10 -9 -10 -9 0 -16 5 -16 10 0 6 4 10 9 10 6 0 13 -4
16 -10z m0 -30 c-3 -5 -10 -10 -16 -10 -5 0 -9 5 -9 10 0 6 7 10 16 10 8 0 12
-4 9 -10z"/>
<path d="M1563 4263 c-7 -2 -12 -19 -12 -36 l1 -32 7 29 c3 17 11 30 16 30 6
0 13 -13 17 -30 6 -28 6 -28 5 5 -2 35 -11 44 -34 34z"/>
<path d="M1742 4238 c-2 -34 0 -38 23 -38 23 0 25 4 23 38 -1 36 -1 36 -5 5
-3 -19 -10 -33 -18 -33 -8 0 -15 14 -18 33 -4 31 -4 31 -5 -5z"/>
<path d="M1920 4255 c-19 -23 -8 -50 20 -50 16 0 26 6 28 18 4 18 -14 47 -28
47 -4 0 -13 -7 -20 -15z m37 -11 c8 -21 -13 -42 -28 -27 -13 13 -5 43 11 43 6
0 13 -7 17 -16z"/>
<path d="M1998 4262 c-19 -4 -26 -62 -8 -62 6 0 10 11 10 25 0 30 7 31 40 4
l25 -21 -24 6 c-16 3 -21 2 -14 -5 13 -13 45 -8 50 8 2 6 -5 14 -16 18 -12 3
-21 10 -21 15 0 5 8 7 18 3 14 -5 15 -3 5 7 -10 10 -15 11 -27 1 -8 -6 -16 -8
-18 -4 -1 5 -11 7 -20 5z"/>
<path d="M1449 4154 c-11 -14 -10 -18 6 -30 10 -8 25 -14 32 -14 7 0 13 -5 13
-10 0 -18 -29 -23 -47 -9 -14 12 -16 12 -11 -1 3 -9 17 -15 34 -15 40 0 48 39
10 49 -26 6 -34 20 -17 31 5 3 12 1 16 -5 3 -5 11 -10 17 -10 7 0 6 6 -2 15
-16 19 -34 19 -51 -1z"/>
<path d="M1260 4134 c0 -53 38 -82 68 -52 14 14 16 78 3 78 -6 0 -11 -17 -13
-37 -2 -26 -8 -38 -18 -38 -10 0 -16 12 -18 38 -4 41 -22 51 -22 11z"/>
<path d="M1531 4113 c1 -27 4 -38 6 -25 3 14 12 22 24 22 11 0 23 -10 28 -22
7 -18 9 -13 9 25 0 47 0 47 -34 47 l-34 0 1 -47z m57 25 c-7 -20 -48 -23 -48
-4 0 11 9 16 26 16 16 0 24 -5 22 -12z"/>
<path d="M1665 4124 c-17 -41 -20 -68 -4 -41 12 21 49 23 49 2 0 -8 4 -15 9
-15 6 0 3 20 -6 45 -8 25 -19 45 -24 45 -5 0 -16 -16 -24 -36z m35 -5 c0 -5
-4 -9 -10 -9 -5 0 -10 7 -10 16 0 8 5 12 10 9 6 -3 10 -10 10 -16z"/>
<path d="M1808 4150 c-5 -17 3 -80 11 -80 7 0 6 79 -2 86 -3 3 -7 0 -9 -6z"/>
<path d="M1841 4115 c1 -49 1 -49 10 -17 12 39 31 37 41 -4 6 -27 6 -27 5 6
-2 26 -7 36 -22 39 -11 2 -23 8 -27 15 -4 6 -7 -11 -7 -39z"/>
<path d="M1743 4108 c1 -26 7 -33 25 -34 19 -1 22 3 21 35 -1 35 -2 35 -8 7
-8 -40 -28 -44 -35 -7 l-6 31 3 -32z"/>
<path d="M1917 4134 c-15 -16 -7 -53 14 -59 27 -9 42 6 37 36 -3 24 -36 38
-51 23z m40 -20 c8 -21 -13 -42 -28 -27 -13 13 -5 43 11 43 6 0 13 -7 17 -16z"/>
<path d="M1980 4104 c0 -19 5 -34 10 -34 6 0 10 14 10 30 0 17 5 30 10 30 6 0
10 -4 10 -9 0 -5 9 -13 20 -16 11 -3 20 -11 20 -16 0 -6 -10 -7 -22 -4 -18 6
-20 4 -12 -5 14 -15 46 -10 52 8 2 7 -5 16 -17 19 -12 3 -21 10 -21 15 0 6 7
8 15 4 8 -3 15 -1 15 3 0 5 -20 9 -45 9 -45 0 -45 0 -45 -34z"/>
<path d="M2312 4100 c13 -22 25 -40 28 -40 3 0 15 18 28 40 l23 40 -51 0 -51
0 23 -40z"/>
<path d="M1280 3994 c0 -45 0 -45 33 -42 30 3 32 5 30 38 0 19 -1 38 -2 43 -1
4 -14 7 -31 7 -29 0 -30 -2 -30 -46z m50 21 c0 -8 -9 -15 -20 -15 -11 0 -20 7
-20 15 0 8 9 15 20 15 11 0 20 -7 20 -15z m5 -40 c0 -5 -10 -11 -22 -13 -16
-2 -23 2 -23 13 0 11 7 15 23 13 12 -2 22 -7 22 -13z"/>
<path d="M1499 4025 c-7 -6 2 -75 10 -75 3 0 6 16 5 35 -1 35 -6 49 -15 40z"/>
<path d="M1569 4025 c-7 -6 2 -75 10 -75 3 0 6 15 6 34 0 34 -7 51 -16 41z"/>
<path d="M1879 4025 c-7 -6 2 -75 10 -75 3 0 6 15 6 34 0 34 -7 51 -16 41z"/>
<path d="M1370 4005 c-26 -31 14 -75 43 -46 7 7 4 8 -10 5 -12 -3 -24 -1 -27
5 -5 7 3 11 18 11 28 0 33 9 14 28 -16 16 -23 15 -38 -3z m33 -12 c-7 -2 -19
-2 -25 0 -7 3 -2 5 12 5 14 0 19 -2 13 -5z"/>
<path d="M1437 4013 c-12 -12 -7 -33 7 -33 8 0 18 -5 22 -12 5 -8 0 -9 -14 -6
-12 4 -22 2 -22 -3 0 -5 11 -9 25 -9 30 0 35 29 5 37 -11 3 -17 9 -15 14 3 4
13 5 22 2 11 -4 14 -3 9 5 -8 13 -29 16 -39 5z"/>
<path d="M1618 4012 c-19 -4 -26 -62 -8 -62 6 0 10 11 10 24 0 13 6 26 13 29
17 6 5 14 -15 9z"/>
<path d="M1655 4010 c-3 -5 -3 -14 0 -20 3 -5 1 -10 -4 -10 -6 0 -11 -7 -11
-15 0 -10 10 -15 30 -15 26 0 30 3 30 29 0 17 -6 31 -16 35 -21 8 -22 8 -29
-4z m30 -10 c3 -5 -1 -10 -9 -10 -9 0 -16 5 -16 10 0 6 4 10 9 10 6 0 13 -4
16 -10z m0 -30 c-3 -5 -10 -10 -16 -10 -5 0 -9 5 -9 10 0 6 7 10 16 10 8 0 12
-4 9 -10z"/>
<path d="M1722 3988 c-1 -20 -5 -45 -8 -55 -5 -14 -4 -15 5 -7 7 7 11 29 8 55
-3 42 -4 42 -5 7z"/>
<path d="M1750 4005 c-26 -31 14 -75 43 -46 7 7 4 8 -10 5 -12 -3 -24 -1 -27
5 -5 7 3 11 18 11 28 0 33 9 14 28 -16 16 -23 15 -38 -3z m33 -12 c-7 -2 -19
-2 -25 0 -7 3 -2 5 12 5 14 0 19 -2 13 -5z"/>
<path d="M1820 4005 c-26 -31 14 -75 43 -46 9 9 5 11 -13 9 -17 -2 -25 2 -25
12 0 9 9 15 22 14 18 0 20 2 12 13 -15 17 -24 16 -39 -2z"/>
<path d="M1920 4005 c-19 -23 -8 -50 20 -50 16 0 26 6 28 18 4 18 -14 47 -28
47 -4 0 -13 -7 -20 -15z m37 -11 c8 -21 -13 -42 -28 -27 -13 13 -5 43 11 43 6
0 13 -7 17 -16z"/>
<path d="M1998 4013 c-19 -5 -26 -63 -8 -63 6 0 10 11 10 25 0 36 27 31 35 -6
5 -22 3 -34 -6 -40 -11 -7 -11 -9 -1 -9 15 0 57 88 47 98 -3 3 -8 -4 -12 -16
-7 -27 -19 -28 -26 -2 -5 20 -8 21 -39 13z"/>
<path d="M2160 3990 c0 -6 67 -10 180 -10 113 0 180 4 180 10 0 6 -67 10 -180
10 -113 0 -180 -4 -180 -10z"/>
<path d="M6224 3933 c31 -57 32 -57 55 -20 11 19 21 37 21 41 0 3 -20 6 -45 6
l-46 0 15 -27z"/>
<path d="M6191 3820 c12 -21 26 -37 30 -35 4 3 16 21 28 40 l20 35 -50 0 -50
0 22 -40z"/>
<path d="M4101 895 c12 -19 24 -37 28 -39 3 -3 17 13 29 35 l23 39 -50 0 -50
0 20 -35z"/>
<path d="M3551 660 c13 -22 25 -40 28 -40 6 0 51 66 51 75 0 3 -23 5 -51 5
l-50 0 22 -40z"/>
<path d="M586 3915 c-17 -13 -17 -15 -4 -15 12 0 18 -11 21 -37 3 -31 4 -29 5
15 1 28 1 52 0 52 -2 0 -12 -7 -22 -15z"/>
<path d="M655 3915 c-3 -8 -7 -21 -9 -27 -8 -27 13 -59 36 -56 19 2 24 10 26
42 2 24 -2 42 -10 47 -20 13 -38 11 -43 -6z m40 -40 c0 -43 -29 -40 -33 3 -3
28 0 33 15 30 13 -2 18 -12 18 -33z"/>
<path d="M729 3906 c-7 -14 -9 -36 -5 -51 5 -21 12 -26 34 -23 23 2 28 8 30
36 6 57 -38 85 -59 38z m47 -40 c-10 -39 -36 -33 -36 7 0 41 9 52 28 33 9 -9
12 -24 8 -40z"/>
<path d="M646 3238 c-3 -7 -4 -29 -3 -48 2 -30 5 -35 27 -35 23 0 25 4 25 45
0 39 -3 45 -23 48 -12 2 -24 -3 -26 -10z m39 -7 c7 -12 -12 -24 -25 -16 -11 7
-4 25 10 25 5 0 11 -4 15 -9z m1 -42 c10 -17 -13 -36 -27 -22 -12 12 -4 33 11
33 5 0 12 -5 16 -11z"/>
<path d="M724 3237 c-3 -8 -4 -30 -2 -49 2 -28 7 -33 28 -33 23 0 25 4 25 45
0 39 -3 45 -23 48 -13 2 -24 -3 -28 -11z m41 -38 c0 -24 -5 -34 -15 -34 -16 0
-25 37 -16 62 10 26 31 8 31 -28z"/>
<path d="M380 3125 c0 -18 5 -25 20 -25 13 0 20 7 20 20 0 11 5 20 11 20 7 0
9 -10 5 -26 -5 -17 -3 -23 4 -19 5 3 10 17 10 31 0 17 -5 24 -20 24 -11 0 -20
-6 -20 -14 0 -8 -5 -18 -12 -22 -8 -5 -9 0 -6 14 4 12 2 22 -3 22 -5 0 -9 -11
-9 -25z"/>
<path d="M381 3073 c-1 -20 4 -23 34 -23 19 0 35 5 35 10 0 6 -13 10 -29 10
-16 0 -32 6 -34 13 -3 6 -6 2 -6 -10z"/>
<path d="M392 3031 c-8 -4 -12 -19 -10 -32 2 -19 9 -24 33 -24 24 0 31 5 33
24 4 23 -11 41 -33 41 -5 0 -16 -4 -23 -9z m46 -28 c-2 -10 -12 -18 -23 -18
-11 0 -21 8 -23 18 -3 13 3 17 23 17 20 0 26 -4 23 -17z"/>
<path d="M380 2931 c0 -11 -8 -22 -17 -24 -10 -3 7 -4 37 -4 31 0 41 2 23 4
-19 3 -33 10 -33 18 0 8 14 15 33 18 31 4 31 4 -5 5 -31 2 -38 -1 -38 -17z"/>
<path d="M373 2875 c-16 -17 -3 -22 43 -17 24 3 34 9 33 21 0 10 -2 11 -6 4
-5 -15 -50 -18 -55 -4 -1 5 -8 3 -15 -4z"/>
<path d="M380 2830 c0 -5 14 -10 30 -10 42 0 40 -27 -2 -33 -32 -4 -32 -4 5
-5 35 -2 37 0 37 28 0 28 -3 30 -35 30 -19 0 -35 -4 -35 -10z"/>
<path d="M391 2746 c-19 -7 -36 -17 -38 -23 -4 -11 85 -49 94 -39 3 3 -2 8
-11 12 -21 8 -21 33 2 50 22 17 1 17 -47 0z m19 -26 c0 -5 -7 -10 -15 -10 -8
0 -15 5 -15 10 0 6 7 10 15 10 8 0 15 -4 15 -10z"/>
<path d="M350 2618 c0 -4 6 -8 14 -8 8 0 17 -6 19 -12 4 -10 6 -10 6 0 1 7 14
12 33 12 46 0 31 8 -24 12 -27 3 -48 1 -48 -4z"/>
<path d="M392 2581 c-8 -4 -12 -19 -10 -32 2 -19 9 -24 33 -24 24 0 31 5 33
24 4 23 -11 41 -33 41 -5 0 -16 -4 -23 -9z m46 -28 c-2 -10 -12 -18 -23 -18
-11 0 -21 8 -23 18 -3 13 3 17 23 17 20 0 26 -4 23 -17z"/>
<path d="M644 2566 c-3 -8 -4 -29 -2 -48 2 -28 7 -33 28 -33 19 0 26 6 28 24
4 26 -15 44 -36 36 -8 -3 -12 0 -9 7 2 7 14 12 26 11 13 -2 20 1 16 7 -9 15
-45 12 -51 -4z m44 -53 c-2 -10 -10 -18 -18 -18 -8 0 -16 8 -18 18 -2 12 3 17
18 17 15 0 20 -5 18 -17z"/>
<path d="M724 2567 c-3 -8 -4 -30 -2 -49 2 -28 7 -33 28 -33 23 0 25 4 25 45
0 39 -3 45 -23 48 -13 2 -24 -3 -28 -11z m41 -38 c0 -24 -5 -34 -15 -34 -16 0
-25 37 -16 62 10 26 31 8 31 -28z"/>
<path d="M380 2462 c0 -19 5 -22 38 -21 26 1 30 3 12 6 -14 2 -31 12 -37 21
-12 14 -13 13 -13 -6z"/>
<path d="M387 2413 c-12 -11 -8 -51 6 -57 10 -5 10 -7 0 -12 -7 -3 -13 -16
-13 -29 0 -14 -7 -25 -17 -28 -10 -3 6 -5 35 -6 51 -1 52 0 52 28 0 16 -6 32
-12 35 -10 5 -10 7 0 12 15 7 16 50 2 59 -7 4 -9 -2 -4 -19 4 -16 2 -26 -5
-26 -6 0 -11 11 -11 25 0 24 -18 34 -33 18z m19 -40 c-11 -11 -19 6 -11 24 8
17 8 17 12 0 3 -10 2 -21 -1 -24z m34 -57 c0 -19 -14 -28 -34 -20 -25 10 -19
34 9 34 15 0 25 -6 25 -14z"/>
<path d="M380 2210 l0 -50 35 0 c19 0 35 5 35 10 0 6 -14 10 -31 10 -39 0 -34
22 7 31 l29 7 -32 1 c-22 1 -33 6 -33 15 0 9 13 16 33 19 31 4 31 4 -5 5 l-38
2 0 -50z"/>
<path d="M404 2131 c41 -9 46 -31 7 -31 -17 0 -31 -5 -31 -11 0 -6 14 -9 33
-7 27 2 33 8 35 31 3 25 1 27 -35 26 -35 -1 -36 -2 -9 -8z"/>
<path d="M350 2061 c0 -6 17 -11 38 -13 l37 -3 -37 -22 c-21 -12 -38 -27 -38
-33 0 -5 22 -10 50 -10 28 0 50 5 50 10 0 6 -17 10 -37 10 l-38 0 38 22 c53
31 48 48 -13 48 -27 0 -50 -4 -50 -9z"/>
<path d="M658 1879 c-34 -44 -34 -49 -4 -49 13 0 26 -5 28 -12 8 -24 14 17 8
57 l-5 40 -27 -36z m22 -19 c0 -11 -7 -20 -15 -20 -18 0 -19 12 -3 28 16 16
18 15 18 -8z"/>
<path d="M725 1895 c-3 -8 -7 -21 -9 -27 -8 -27 13 -59 36 -56 19 2 24 10 26
42 2 24 -2 42 -10 47 -20 13 -38 11 -43 -6z m40 -40 c0 -43 -29 -40 -33 3 -3
28 0 33 15 30 13 -2 18 -12 18 -33z"/>
<path d="M647 1224 c-14 -14 -7 -26 8 -14 12 10 19 10 28 1 9 -9 5 -17 -21
-37 -41 -33 -41 -44 3 -44 19 0 35 5 35 10 0 6 -12 10 -27 10 l-28 1 28 15
c20 11 27 22 25 37 -3 22 -36 35 -51 21z"/>
<path d="M724 1217 c-3 -8 -4 -30 -2 -49 2 -28 7 -33 28 -33 23 0 25 4 25 45
0 39 -3 45 -23 48 -13 2 -24 -3 -28 -11z m41 -38 c0 -24 -5 -34 -15 -34 -16 0
-25 37 -16 62 10 26 31 8 31 -28z"/>
<path d="M717 553 c-4 -3 -7 -20 -7 -38 0 -56 43 -75 61 -28 7 19 7 35 0 50
-10 22 -40 31 -54 16z m38 -43 c0 -18 -5 -35 -12 -37 -14 -5 -28 40 -19 63 10
27 31 9 31 -26z"/>
<path d="M1520 406 c0 -8 -3 -22 -6 -31 -5 -13 -2 -15 20 -9 22 5 26 3 26 -16
0 -19 -4 -21 -27 -15 -21 5 -25 4 -17 -5 7 -6 22 -10 35 -8 33 4 34 52 2 56
-28 4 -30 22 -3 22 11 0 20 5 20 10 0 6 -11 10 -25 10 -15 0 -25 -6 -25 -14z"/>
<path d="M1601 406 c-7 -8 -11 -30 -9 -48 2 -25 8 -34 25 -36 31 -4 48 33 34
71 -12 30 -32 35 -50 13z m37 -42 c-4 -35 -32 -39 -36 -6 -4 27 17 57 30 44 5
-5 8 -22 6 -38z"/>
<path d="M2467 413 c-4 -3 -7 -16 -7 -28 0 -16 6 -21 23 -21 13 1 22 -5 22
-14 0 -9 -9 -15 -22 -14 -13 0 -23 -3 -23 -8 0 -5 12 -8 28 -6 21 2 27 8 27
28 0 18 -6 26 -22 28 -31 5 -29 22 2 22 14 0 25 5 25 10 0 11 -43 14 -53 3z"/>
<path d="M2540 405 c-7 -9 -10 -18 -6 -22 3 -4 13 2 20 13 14 19 15 19 22 0 5
-14 0 -24 -19 -38 -37 -27 -34 -38 11 -37 36 1 36 2 7 8 l-30 7 28 18 c30 20
36 50 11 60 -23 9 -30 8 -44 -9z"/>
<path d="M3410 406 c0 -8 -3 -22 -6 -31 -5 -13 -2 -15 20 -9 22 5 26 3 26 -16
0 -19 -4 -21 -27 -15 -21 5 -25 4 -17 -5 7 -6 22 -10 35 -8 33 4 34 52 2 56
-28 4 -30 22 -3 22 11 0 20 5 20 10 0 6 -11 10 -25 10 -15 0 -25 -6 -25 -14z"/>
<path d="M3503 393 c-28 -38 -29 -53 -3 -53 11 0 20 -5 20 -10 0 -6 6 -5 14 2
8 7 10 15 6 18 -5 3 -10 21 -12 40 l-3 35 -22 -32z m17 -23 c0 -11 -7 -20 -15
-20 -13 0 -14 4 -5 20 6 11 13 20 15 20 3 0 5 -9 5 -20z"/>
<path d="M4350 392 c0 -23 4 -28 23 -28 13 1 22 -5 22 -14 0 -10 -9 -14 -29
-13 -20 2 -26 -1 -19 -8 6 -6 21 -9 34 -7 33 4 34 52 2 56 -31 5 -29 22 3 22
14 0 23 4 19 10 -3 6 -17 10 -31 10 -20 0 -24 -5 -24 -28z"/>
<path d="M4429 396 c-7 -14 -9 -36 -5 -51 5 -21 12 -26 34 -23 21 2 27 8 27
28 0 18 -6 26 -22 28 -23 3 -29 13 -16 25 3 4 12 2 20 -5 7 -6 17 -8 20 -4 8
8 -16 26 -35 26 -7 0 -17 -11 -23 -24z m46 -47 c0 -7 -8 -15 -17 -17 -18 -3
-25 18 -11 32 10 10 28 1 28 -15z"/>
<path d="M5296 404 c-12 -30 -6 -44 16 -41 15 1 23 -4 26 -17 3 -15 -1 -18
-22 -14 -14 3 -26 1 -26 -3 0 -16 58 -10 64 7 7 19 -10 44 -30 44 -8 0 -14 5
-14 10 0 6 9 10 20 10 11 0 20 5 20 10 0 16 -47 11 -54 -6z"/>
<path d="M5383 412 c-6 -4 -10 -25 -10 -47 2 -35 5 -40 28 -43 32 -4 40 12 30
59 -7 34 -25 46 -48 31z m35 -20 c2 -7 -3 -12 -12 -12 -9 0 -16 7 -16 16 0 17
22 14 28 -4z m2 -48 c0 -9 -7 -14 -17 -12 -25 5 -28 28 -4 28 12 0 21 -6 21
-16z"/>
<path d="M6251 406 c-7 -8 -11 -30 -9 -48 2 -28 7 -33 28 -33 20 0 25 5 25 25
0 19 -6 26 -23 28 -19 3 -21 6 -11 18 9 12 15 12 27 2 13 -11 14 -10 10 2 -7
21 -32 24 -47 6z m37 -59 c2 -10 -3 -17 -12 -17 -18 0 -29 16 -21 31 9 14 29
6 33 -14z"/>
<path d="M6319 396 c-7 -14 -9 -36 -5 -51 5 -21 12 -26 34 -23 23 2 28 8 30
36 6 57 -38 85 -59 38z m47 -40 c-10 -39 -36 -33 -36 7 0 41 9 52 28 33 9 -9
12 -24 8 -40z"/>
<path d="M3700 125 c0 -56 3 -65 18 -64 10 0 12 3 5 6 -8 3 -13 25 -13 58 0
33 5 55 13 58 7 3 5 6 -5 6 -15 1 -18 -8 -18 -64z"/>
<path d="M4015 125 c0 -45 4 -65 13 -65 8 0 12 20 12 65 0 45 -4 65 -12 65 -9
0 -13 -20 -13 -65z"/>
<path d="M3388 168 c-6 -19 6 -71 17 -75 8 -2 11 30 6 80 -1 12 -19 8 -23 -5z"/>
<path d="M3433 125 c0 -22 2 -30 4 -17 2 12 2 30 0 40 -3 9 -5 -1 -4 -23z"/>
<path d="M3460 125 c0 -19 5 -35 10 -35 6 0 10 14 10 30 0 42 27 40 33 -2 l4
-33 1 33 c1 20 7 32 16 32 9 0 16 -13 19 -32 4 -32 4 -32 5 5 l2 37 -50 0 -50
0 0 -35z"/>
<path d="M3584 146 c-11 -29 1 -51 29 -54 15 -2 27 1 27 6 0 6 -8 8 -19 5 -10
-3 -22 0 -25 6 -5 7 4 11 24 11 25 0 31 3 26 16 -3 9 -6 18 -6 20 0 11 -51 2
-56 -10z m46 -6 c0 -5 -9 -10 -21 -10 -11 0 -17 5 -14 10 3 6 13 10 21 10 8 0
14 -4 14 -10z"/>
<path d="M3745 124 c12 -30 13 -40 3 -52 -11 -13 -10 -14 2 -10 16 5 55 98 41
98 -5 0 -12 -12 -16 -27 l-7 -28 -10 28 c-5 15 -14 27 -19 27 -5 0 -2 -16 6
-36z"/>
<path d="M3814 146 c-15 -38 22 -74 49 -47 7 7 4 8 -10 5 -12 -3 -24 -1 -27 5
-5 7 3 11 19 11 20 0 26 4 23 18 -4 22 -46 29 -54 8z m41 -6 c3 -5 -3 -10 -15
-10 -12 0 -18 5 -15 10 3 6 10 10 15 10 5 0 12 -4 15 -10z"/>
<path d="M3890 151 c0 -5 9 -7 20 -4 11 3 20 1 20 -5 0 -6 -10 -12 -22 -14
-35 -5 -29 -32 8 -36 29 -3 30 -2 26 33 -4 29 -8 35 -28 35 -13 0 -24 -4 -24
-9z m40 -41 c0 -5 -7 -10 -15 -10 -8 0 -15 5 -15 10 0 6 7 10 15 10 8 0 15 -4
15 -10z"/>
<path d="M3971 123 c1 -27 3 -31 6 -13 2 14 12 31 21 38 14 11 13 12 -6 12
-19 0 -22 -5 -21 -37z"/>
</g>
</svg>
