<?xml version="1.0" standalone="no"?>
<!DOCTYPE svg PUBLIC "-//W3C//DTD SVG 20010904//EN"
 "http://www.w3.org/TR/2001/REC-SVG-20010904/DTD/svg10.dtd">
<svg version="1.0" xmlns="http://www.w3.org/2000/svg"
 width="372.000000pt" height="210.000000pt" viewBox="0 0 372.000000 210.000000"
 preserveAspectRatio="xMidYMid meet">
<metadata>
Created by potrace 1.16, written by Peter Selinger 2001-2019
</metadata>
<g transform="translate(0.000000,210.000000) scale(0.100000,-0.100000)"
fill="#000000" stroke="none">
<path d="M92 2050 c0 -14 2 -19 5 -12 2 6 2 18 0 25 -3 6 -5 1 -5 -13z"/>
<path d="M1892 2050 c0 -14 2 -19 5 -12 2 6 2 18 0 25 -3 6 -5 1 -5 -13z"/>
<path d="M61 2044 c0 -11 3 -14 6 -6 3 7 2 16 -1 19 -3 4 -6 -2 -5 -13z"/>
<path d="M335 1896 c-4 -65 -5 -120 -1 -123 3 -4 6 19 6 50 0 107 17 57 29
-85 6 -79 20 -215 31 -303 14 -109 18 -174 12 -205 l-8 -45 -13 82 c-7 45 -10
86 -7 92 4 6 4 39 0 73 -5 45 -9 57 -15 43 -4 -11 -8 -14 -8 -7 -1 6 -8 12
-16 12 -11 0 -15 -12 -15 -47 0 -85 -30 -595 -41 -696 -5 -53 -17 -119 -24
-145 -19 -60 -18 -88 1 -42 l14 35 -5 -40 -4 -40 14 30 c7 17 25 87 39 155 33
154 54 230 65 230 11 0 29 -43 51 -127 l19 -68 -5 55 c-5 61 -4 60 21 -20 21
-67 46 -103 98 -141 49 -36 71 -36 114 -3 18 14 39 24 46 21 6 -2 32 -39 57
-82 49 -87 94 -125 145 -125 18 0 68 18 111 40 44 22 93 40 112 40 27 0 36 6
53 35 22 37 33 38 42 5 4 -17 3 -19 -8 -10 -12 10 -18 5 -32 -24 -9 -20 -20
-36 -25 -36 -18 0 -7 -18 15 -24 12 -3 36 -17 52 -31 l30 -25 -39 21 c-56 32
-109 29 -191 -11 -42 -21 -90 -35 -122 -38 -51 -4 -54 -3 -90 35 -21 22 -50
60 -65 86 -15 26 -34 50 -43 53 -9 4 -31 -8 -55 -30 -33 -30 -48 -36 -83 -36
-79 0 -109 42 -152 208 -52 207 -63 205 -114 -21 -17 -76 -42 -166 -55 -200
-13 -34 -24 -81 -25 -103 l-1 -42 78 25 c94 30 165 28 297 -12 122 -36 259
-42 435 -21 139 18 147 17 318 -15 63 -11 141 -18 200 -18 l97 2 -65 7 c-36 5
-92 18 -125 31 -33 13 -63 22 -68 21 -4 -1 -6 1 -5 5 1 5 -26 36 -60 69 -55
56 -63 70 -87 148 -14 48 -30 84 -34 81 -5 -2 -14 -18 -21 -35 -11 -27 -17
-30 -54 -30 -24 0 -71 -13 -111 -30 -79 -33 -148 -39 -183 -14 -12 8 -40 50
-61 93 -50 98 -62 109 -104 92 -65 -27 -83 -25 -106 8 -38 53 -110 214 -125
281 -9 36 -22 137 -31 225 -8 88 -24 234 -35 325 -11 91 -25 226 -31 300 -6
74 -15 139 -19 143 -4 5 -11 -43 -15 -107z m42 -508 c-3 -8 -6 -5 -6 6 -1 11
2 17 5 13 3 -3 4 -12 1 -19z m127 -573 c19 -38 49 -91 65 -117 36 -56 61 -61
117 -23 49 33 63 24 117 -80 53 -102 43 -103 -14 0 -22 40 -46 75 -53 78 -7 3
-27 -4 -44 -15 -35 -22 -42 -34 -14 -23 12 4 14 3 7 -4 -19 -20 -84 8 -134 57
-47 46 -89 130 -92 185 -1 17 -3 15 -8 -8 -4 -17 -7 10 -7 65 l0 95 13 -70 c7
-38 28 -101 47 -140z m-90 -82 c8 -27 22 -77 31 -113 20 -81 42 -140 61 -161
14 -15 9 -16 -49 -16 -53 -1 -76 -6 -126 -32 -34 -17 -63 -31 -66 -31 -2 0 5
20 16 44 10 24 35 110 54 191 20 81 38 152 41 156 11 19 23 7 38 -38z m196
-115 c0 -5 -9 -3 -20 4 -11 7 -20 16 -20 20 0 5 9 3 20 -4 11 -7 20 -16 20
-20z m568 -55 c-10 -2 -28 -2 -40 0 -13 2 -5 4 17 4 22 1 32 -1 23 -4z m-73
-43 c3 -6 -1 -7 -9 -4 -18 7 -21 14 -7 14 6 0 13 -4 16 -10z m-28 -16 c-3 -3
-12 -4 -19 -1 -8 3 -5 6 6 6 11 1 17 -2 13 -5z m-42 -23 c-3 -6 -11 -8 -17 -5
-6 4 -5 9 3 15 16 10 23 4 14 -10z m-267 -42 c15 -22 40 -56 56 -75 15 -19 25
-34 22 -34 -13 0 -201 72 -210 80 -4 4 1 11 11 14 11 4 30 18 43 31 32 34 46
32 78 -16z m233 22 c-8 -5 -20 -7 -28 -4 -21 8 -15 13 15 13 20 0 23 -3 13 -9z
m314 -21 c10 -11 16 -20 13 -20 -3 0 -13 9 -23 20 -10 11 -16 20 -13 20 3 0
13 -9 23 -20z m97 -110 c6 0 9 -3 5 -6 -9 -10 -103 53 -121 81 -28 43 -17 38
45 -19 33 -31 65 -56 71 -56z m-52 65 c11 -13 10 -14 -4 -9 -9 3 -16 10 -16
15 0 13 6 11 20 -6z"/>
<path d="M1022 1940 c0 -14 2 -19 5 -12 2 6 2 18 0 25 -3 6 -5 1 -5 -13z"/>
<path d="M930 1941 c0 -6 4 -13 10 -16 6 -3 7 1 4 9 -7 18 -14 21 -14 7z"/>
<path d="M1001 1934 c0 -11 3 -14 6 -6 3 7 2 16 -1 19 -3 4 -6 -2 -5 -13z"/>
<path d="M992 1835 c0 -16 2 -22 5 -12 2 9 2 23 0 30 -3 6 -5 -1 -5 -18z"/>
<path d="M1022 1836 c1 -14 5 -23 9 -20 7 4 0 44 -7 44 -2 0 -3 -11 -2 -24z"/>
<path d="M1102 1835 c0 -16 2 -22 5 -12 2 9 2 23 0 30 -3 6 -5 -1 -5 -18z"/>
<path d="M1122 1835 c0 -16 2 -22 5 -12 2 9 2 23 0 30 -3 6 -5 -1 -5 -18z"/>
<path d="M1372 1835 c0 -16 2 -22 5 -12 2 9 2 23 0 30 -3 6 -5 -1 -5 -18z"/>
<path d="M162 1836 c7 -8 15 -12 17 -11 5 6 -10 25 -20 25 -5 0 -4 -6 3 -14z"/>
<path d="M1150 1831 c0 -6 4 -13 10 -16 6 -3 7 1 4 9 -7 18 -14 21 -14 7z"/>
<path d="M1216 1827 c3 -10 9 -15 12 -12 3 3 0 11 -7 18 -10 9 -11 8 -5 -6z"/>
<path d="M1251 1824 c0 -11 3 -14 6 -6 3 7 2 16 -1 19 -3 4 -6 -2 -5 -13z"/>
<path d="M1281 1824 c0 -11 3 -14 6 -6 3 7 2 16 -1 19 -3 4 -6 -2 -5 -13z"/>
<path d="M1335 1831 c-3 -5 -1 -12 5 -16 5 -3 10 1 10 9 0 18 -6 21 -15 7z"/>
<path d="M890 1745 c0 -33 2 -35 33 -35 32 0 33 1 29 35 -4 31 -8 35 -33 35
-26 0 -29 -3 -29 -35z"/>
<path d="M1490 1756 c0 -9 -4 -14 -10 -11 -5 3 -10 2 -10 -4 0 -5 5 -13 10
-16 6 -3 10 -1 10 6 0 8 5 7 17 -2 15 -13 15 -12 3 11 -17 34 -20 36 -20 16z"/>
<path d="M990 1741 c0 -11 4 -22 9 -25 4 -3 6 6 3 19 -5 30 -12 33 -12 6z"/>
<path d="M1622 1735 c0 -16 2 -22 5 -12 2 9 2 23 0 30 -3 6 -5 -1 -5 -18z"/>
<path d="M1087 1728 c9 -10 17 -18 19 -18 1 0 0 8 -3 18 -2 10 -11 19 -19 19
-11 0 -11 -4 3 -19z"/>
<path d="M1122 1730 c0 -14 2 -19 5 -12 2 6 2 18 0 25 -3 6 -5 1 -5 -13z"/>
<path d="M1142 1730 c0 -14 2 -19 5 -12 2 6 2 18 0 25 -3 6 -5 1 -5 -13z"/>
<path d="M1162 1730 c0 -14 2 -19 5 -12 2 6 2 18 0 25 -3 6 -5 1 -5 -13z"/>
<path d="M1180 1736 c0 -8 4 -17 9 -20 5 -4 7 3 4 14 -6 23 -13 26 -13 6z"/>
<path d="M1212 1730 c0 -14 2 -19 5 -12 2 6 2 18 0 25 -3 6 -5 1 -5 -13z"/>
<path d="M1352 1730 c0 -14 2 -19 5 -12 2 6 2 18 0 25 -3 6 -5 1 -5 -13z"/>
<path d="M1372 1730 c0 -14 2 -19 5 -12 2 6 2 18 0 25 -3 6 -5 1 -5 -13z"/>
<path d="M1742 1730 c0 -14 2 -19 5 -12 2 6 2 18 0 25 -3 6 -5 1 -5 -13z"/>
<path d="M1390 1731 c0 -6 4 -13 10 -16 6 -3 7 1 4 9 -7 18 -14 21 -14 7z"/>
<path d="M1540 1731 c0 -6 4 -13 10 -16 6 -3 7 1 4 9 -7 18 -14 21 -14 7z"/>
<path d="M1640 1731 c0 -6 4 -13 10 -16 6 -3 7 1 4 9 -7 18 -14 21 -14 7z"/>
<path d="M323 1645 c0 -44 2 -61 4 -37 2 23 2 59 0 80 -2 20 -4 1 -4 -43z"/>
<path d="M992 1650 c0 -19 2 -27 5 -17 2 9 2 25 0 35 -3 9 -5 1 -5 -18z"/>
<path d="M1071 1634 c0 -11 3 -14 6 -6 3 7 2 16 -1 19 -3 4 -6 -2 -5 -13z"/>
<path d="M1121 1634 c0 -11 3 -14 6 -6 3 7 2 16 -1 19 -3 4 -6 -2 -5 -13z"/>
<path d="M2012 1620 c0 -19 2 -27 5 -17 2 9 2 25 0 35 -3 9 -5 1 -5 -18z"/>
<path d="M2072 1620 c0 -14 2 -19 5 -12 2 6 2 18 0 25 -3 6 -5 1 -5 -13z"/>
<path d="M346 1568 c-5 -20 -6 -44 -3 -55 3 -12 5 -8 7 12 l2 30 8 -30 8 -30
0 30 c0 17 -3 41 -8 55 -7 24 -7 23 -14 -12z"/>
<path d="M900 1549 c0 -26 3 -30 23 -27 16 2 23 11 25 31 3 23 0 27 -22 27
-22 0 -26 -4 -26 -31z"/>
<path d="M992 1555 c0 -16 2 -22 5 -12 2 9 2 23 0 30 -3 6 -5 -1 -5 -18z"/>
<path d="M1052 1555 c0 -16 2 -22 5 -12 2 9 2 23 0 30 -3 6 -5 -1 -5 -18z"/>
<path d="M1152 1550 c0 -14 2 -19 5 -12 2 6 2 18 0 25 -3 6 -5 1 -5 -13z"/>
<path d="M1201 1544 c0 -11 3 -14 6 -6 3 7 2 16 -1 19 -3 4 -6 -2 -5 -13z"/>
<path d="M1231 1544 c0 -11 3 -14 6 -6 3 7 2 16 -1 19 -3 4 -6 -2 -5 -13z"/>
<path d="M1251 1544 c0 -11 3 -14 6 -6 3 7 2 16 -1 19 -3 4 -6 -2 -5 -13z"/>
<path d="M1271 1544 c0 -11 3 -14 6 -6 3 7 2 16 -1 19 -3 4 -6 -2 -5 -13z"/>
<path d="M1381 1544 c0 -11 3 -14 6 -6 3 7 2 16 -1 19 -3 4 -6 -2 -5 -13z"/>
<path d="M170 1536 c0 -8 -5 -16 -12 -18 -7 -3 -6 -7 5 -11 13 -5 17 -1 17 18
0 14 -2 25 -5 25 -3 0 -5 -6 -5 -14z"/>
<path d="M313 1435 c0 -44 2 -61 4 -37 2 23 2 59 0 80 -2 20 -4 1 -4 -43z"/>
<path d="M992 1460 c0 -19 2 -27 5 -17 2 9 2 25 0 35 -3 9 -5 1 -5 -18z"/>
<path d="M1092 1460 c0 -19 2 -27 5 -17 2 9 2 25 0 35 -3 9 -5 1 -5 -18z"/>
<path d="M1221 1485 c0 -5 6 -21 14 -35 8 -14 14 -20 14 -15 0 6 -6 21 -14 35
-8 14 -14 21 -14 15z"/>
<path d="M1272 1460 c0 -19 2 -27 5 -17 2 9 2 25 0 35 -3 9 -5 1 -5 -18z"/>
<path d="M1292 1455 c0 -16 2 -22 5 -12 2 9 2 23 0 30 -3 6 -5 -1 -5 -18z"/>
<path d="M1472 1455 c0 -16 2 -22 5 -12 2 9 2 23 0 30 -3 6 -5 -1 -5 -18z"/>
<path d="M1022 1450 c0 -14 2 -19 5 -12 2 6 2 18 0 25 -3 6 -5 1 -5 -13z"/>
<path d="M1042 1450 c0 -14 2 -19 5 -12 2 6 2 18 0 25 -3 6 -5 1 -5 -13z"/>
<path d="M1112 1450 c0 -14 2 -19 5 -12 2 6 2 18 0 25 -3 6 -5 1 -5 -13z"/>
<path d="M1060 1451 c0 -6 4 -13 10 -16 6 -3 7 1 4 9 -7 18 -14 21 -14 7z"/>
<path d="M1130 1451 c0 -6 4 -13 10 -16 6 -3 7 1 4 9 -7 18 -14 21 -14 7z"/>
<path d="M1310 1451 c0 -6 4 -13 10 -16 6 -3 7 1 4 9 -7 18 -14 21 -14 7z"/>
<path d="M1411 1444 c0 -11 3 -14 6 -6 3 7 2 16 -1 19 -3 4 -6 -2 -5 -13z"/>
<path d="M1451 1444 c0 -11 3 -14 6 -6 3 7 2 16 -1 19 -3 4 -6 -2 -5 -13z"/>
<path d="M1501 1444 c0 -11 3 -14 6 -6 3 7 2 16 -1 19 -3 4 -6 -2 -5 -13z"/>
<path d="M1560 1451 c0 -6 4 -13 10 -16 6 -3 7 1 4 9 -7 18 -14 21 -14 7z"/>
<path d="M2610 951 l0 -459 25 -4 c14 -3 36 -3 50 0 l25 4 0 459 0 459 -50 0
-50 0 0 -459z"/>
<path d="M882 1368 c3 -30 6 -33 38 -33 32 0 35 3 38 33 3 31 3 32 -38 32 -41
0 -41 -1 -38 -32z"/>
<path d="M991 1395 c0 -13 28 -50 33 -44 3 2 -4 15 -14 29 -11 14 -20 21 -19
15z"/>
<path d="M1042 1370 c0 -19 2 -27 5 -17 2 9 2 25 0 35 -3 9 -5 1 -5 -18z"/>
<path d="M1182 1365 c0 -16 2 -22 5 -12 2 9 2 23 0 30 -3 6 -5 -1 -5 -18z"/>
<path d="M1112 1360 c0 -14 2 -19 5 -12 2 6 2 18 0 25 -3 6 -5 1 -5 -13z"/>
<path d="M1151 1354 c0 -11 3 -14 6 -6 3 7 2 16 -1 19 -3 4 -6 -2 -5 -13z"/>
<path d="M392 1335 c0 -16 4 -43 8 -60 l8 -30 0 30 c0 17 -4 44 -8 60 l-8 30
0 -30z"/>
<path d="M3193 1342 l-23 -3 0 -410 0 -409 50 0 50 0 0 409 0 409 -27 3 c-16
2 -38 3 -50 1z"/>
<path d="M303 1235 c0 -38 2 -53 4 -32 2 20 2 52 0 70 -2 17 -4 1 -4 -38z"/>
<path d="M992 1270 c0 -19 2 -27 5 -17 2 9 2 25 0 35 -3 9 -5 1 -5 -18z"/>
<path d="M1021 1284 c0 -11 3 -14 6 -6 3 7 2 16 -1 19 -3 4 -6 -2 -5 -13z"/>
<path d="M1111 1264 c0 -11 3 -14 6 -6 3 7 2 16 -1 19 -3 4 -6 -2 -5 -13z"/>
<path d="M3450 876 l0 -386 50 0 50 0 -2 383 -3 382 -47 3 -48 3 0 -385z"/>
<path d="M165 1210 c3 -5 8 -10 11 -10 2 0 4 5 4 10 0 6 -5 10 -11 10 -5 0 -7
-4 -4 -10z"/>
<path d="M882 1178 c3 -30 6 -33 38 -33 32 0 35 3 38 33 3 31 3 32 -38 32 -41
0 -41 -1 -38 -32z"/>
<path d="M992 1180 c0 -19 2 -27 5 -17 2 9 2 25 0 35 -3 9 -5 1 -5 -18z"/>
<path d="M1017 1191 c-2 -10 -1 -24 3 -30 4 -7 7 1 8 18 1 35 -3 40 -11 12z"/>
<path d="M1162 1180 c0 -19 2 -27 5 -17 2 9 2 25 0 35 -3 9 -5 1 -5 -18z"/>
<path d="M1202 1180 c0 -19 2 -27 5 -17 2 9 2 25 0 35 -3 9 -5 1 -5 -18z"/>
<path d="M1322 1180 c0 -19 2 -27 5 -17 2 9 2 25 0 35 -3 9 -5 1 -5 -18z"/>
<path d="M1362 1180 c0 -19 2 -27 5 -17 2 9 2 25 0 35 -3 9 -5 1 -5 -18z"/>
<path d="M48 1193 c7 -3 16 -2 19 1 4 3 -2 6 -13 5 -11 0 -14 -3 -6 -6z"/>
<path d="M2012 1170 c0 -19 2 -27 5 -17 2 9 2 25 0 35 -3 9 -5 1 -5 -18z"/>
<path d="M1092 1160 c0 -19 2 -27 5 -17 2 9 2 25 0 35 -3 9 -5 1 -5 -18z"/>
<path d="M1110 1186 c0 -2 8 -10 18 -17 15 -13 16 -12 3 4 -13 16 -21 21 -21
13z"/>
<path d="M1252 1160 c0 -19 2 -27 5 -17 2 9 2 25 0 35 -3 9 -5 1 -5 -18z"/>
<path d="M1432 1160 c0 -19 2 -27 5 -17 2 9 2 25 0 35 -3 9 -5 1 -5 -18z"/>
<path d="M1864 1178 c-5 -7 -3 -8 6 -3 10 6 11 1 6 -21 -5 -23 -4 -26 4 -14 9
11 13 12 17 3 2 -7 12 -13 21 -13 14 0 15 2 3 9 -12 7 -12 13 -3 24 7 7 9 17
5 20 -11 11 -51 8 -59 -5z m51 -8 c-3 -5 -10 -10 -16 -10 -5 0 -9 5 -9 10 0 6
7 10 16 10 8 0 12 -4 9 -10z"/>
<path d="M2041 1174 c0 -11 3 -14 6 -6 3 7 2 16 -1 19 -3 4 -6 -2 -5 -13z"/>
<path d="M2072 1170 c0 -14 2 -19 5 -12 2 6 2 18 0 25 -3 6 -5 1 -5 -13z"/>
<path d="M1071 1164 c0 -11 3 -14 6 -6 3 7 2 16 -1 19 -3 4 -6 -2 -5 -13z"/>
<path d="M293 1070 c0 -36 2 -50 4 -32 2 17 2 47 0 65 -2 17 -4 3 -4 -33z"/>
<path d="M48 1113 c7 -3 16 -2 19 1 4 3 -2 6 -13 5 -11 0 -14 -3 -6 -6z"/>
<path d="M992 1085 c0 -16 2 -22 5 -12 2 9 2 23 0 30 -3 6 -5 -1 -5 -18z"/>
<path d="M1016 1093 c-4 -9 -3 -20 1 -24 4 -4 9 3 9 17 2 28 -1 31 -10 7z"/>
<path d="M1201 1074 c0 -11 3 -14 6 -6 3 7 2 16 -1 19 -3 4 -6 -2 -5 -13z"/>
<path d="M33 1053 c9 -2 23 -2 30 0 6 3 -1 5 -18 5 -17 0 -22 -2 -12 -5z"/>
<path d="M890 985 c0 -32 2 -35 30 -35 28 0 30 3 30 35 0 32 -2 35 -30 35 -28
0 -30 -3 -30 -35z"/>
<path d="M992 990 c0 -19 2 -27 5 -17 2 9 2 25 0 35 -3 9 -5 1 -5 -18z"/>
<path d="M1017 1000 c-3 -11 2 -25 11 -32 13 -11 14 -11 7 2 -5 8 -8 23 -7 33
4 23 -4 22 -11 -3z"/>
<path d="M282 960 c-1 -25 -9 -85 -17 -135 -14 -88 -19 -163 -10 -154 9 10 36
251 32 292 l-4 42 -1 -45z"/>
<path d="M1085 980 c21 -24 26 -25 19 -6 -3 8 -13 17 -22 21 -13 5 -13 2 3
-15z"/>
<path d="M1140 986 c0 -2 8 -10 18 -17 15 -13 16 -12 3 4 -13 16 -21 21 -21
13z"/>
<path d="M1132 900 c0 -19 2 -27 5 -17 2 9 2 25 0 35 -3 9 -5 1 -5 -18z"/>
<path d="M1182 900 c0 -19 2 -27 5 -17 2 9 2 25 0 35 -3 9 -5 1 -5 -18z"/>
<path d="M1362 900 c0 -19 2 -27 5 -17 2 9 2 25 0 35 -3 9 -5 1 -5 -18z"/>
<path d="M1442 900 c0 -19 2 -27 5 -17 2 9 2 25 0 35 -3 9 -5 1 -5 -18z"/>
<path d="M1581 904 c-1 -21 4 -31 14 -31 9 0 11 4 6 11 -5 6 -11 20 -14 31 -3
14 -5 10 -6 -11z"/>
<path d="M990 912 c0 -4 10 -13 23 -21 22 -14 22 -14 3 8 -20 22 -26 25 -26
13z"/>
<path d="M1207 907 c-3 -8 -2 -20 3 -26 5 -9 8 -4 8 13 0 29 -3 32 -11 13z"/>
<path d="M1392 895 c0 -16 2 -22 5 -12 2 9 2 23 0 30 -3 6 -5 -1 -5 -18z"/>
<path d="M2522 895 c0 -16 2 -22 5 -12 2 9 2 23 0 30 -3 6 -5 -1 -5 -18z"/>
<path d="M1112 890 c0 -14 2 -19 5 -12 2 6 2 18 0 25 -3 6 -5 1 -5 -13z"/>
<path d="M1280 904 c0 -13 18 -39 24 -34 2 3 -2 14 -10 24 -8 11 -14 16 -14
10z"/>
<path d="M1492 890 c0 -14 2 -19 5 -12 2 6 2 18 0 25 -3 6 -5 1 -5 -13z"/>
<path d="M1512 890 c0 -14 2 -19 5 -12 2 6 2 18 0 25 -3 6 -5 1 -5 -13z"/>
<path d="M1070 891 c0 -5 7 -12 16 -15 14 -5 15 -4 4 9 -14 17 -20 19 -20 6z"/>
<path d="M1561 884 c0 -11 3 -14 6 -6 3 7 2 16 -1 19 -3 4 -6 -2 -5 -13z"/>
<path d="M158 873 c7 -3 16 -2 19 1 4 3 -2 6 -13 5 -11 0 -14 -3 -6 -6z"/>
<path d="M2012 715 c0 -16 2 -22 5 -12 2 9 2 23 0 30 -3 6 -5 -1 -5 -18z"/>
<path d="M2072 715 c0 -16 2 -22 5 -12 2 9 2 23 0 30 -3 6 -5 -1 -5 -18z"/>
<path d="M2041 714 c0 -11 3 -14 6 -6 3 7 2 16 -1 19 -3 4 -6 -2 -5 -13z"/>
<path d="M2337 694 c-4 -4 -7 -65 -7 -136 l0 -128 55 0 56 0 -3 133 -3 132
-45 3 c-25 2 -49 0 -53 -4z"/>
<path d="M162 590 c0 -19 2 -27 5 -17 2 9 2 25 0 35 -3 9 -5 1 -5 -18z"/>
<path d="M3356 478 c3 -4 9 -8 15 -8 5 0 9 4 9 8 0 5 -7 9 -15 9 -8 0 -12 -4
-9 -9z"/>
<path d="M2890 420 c0 -29 1 -30 50 -30 49 0 50 1 50 30 0 29 -1 30 -50 30
-49 0 -50 -1 -50 -30z"/>
<path d="M3333 443 c15 -2 39 -2 55 0 15 2 2 4 -28 4 -30 0 -43 -2 -27 -4z"/>
<path d="M2092 285 c0 -16 2 -22 5 -12 2 9 2 23 0 30 -3 6 -5 -1 -5 -18z"/>
<path d="M242 185 c0 -16 2 -22 5 -12 2 9 2 23 0 30 -3 6 -5 -1 -5 -18z"/>
<path d="M992 185 c0 -16 2 -22 5 -12 2 9 2 23 0 30 -3 6 -5 -1 -5 -18z"/>
<path d="M1051 184 c0 -11 3 -14 6 -6 3 7 2 16 -1 19 -3 4 -6 -2 -5 -13z"/>
<path d="M2891 184 c0 -11 3 -14 6 -6 3 7 2 16 -1 19 -3 4 -6 -2 -5 -13z"/>
<path d="M2931 184 c0 -11 3 -14 6 -6 3 7 2 16 -1 19 -3 4 -6 -2 -5 -13z"/>
<path d="M965 61 c0 -21 3 -27 12 -20 7 7 14 6 18 -1 3 -5 12 -10 18 -10 7 0
6 4 -3 10 -12 7 -12 12 -2 22 15 15 16 28 2 28 -5 0 -9 -5 -7 -11 1 -6 -4 -14
-12 -17 -10 -3 -12 0 -8 12 4 9 1 16 -6 16 -7 0 -12 -13 -12 -29z"/>
<path d="M1031 24 c0 -11 3 -14 6 -6 3 7 2 16 -1 19 -3 4 -6 -2 -5 -13z"/>
<path d="M1051 24 c0 -11 3 -14 6 -6 3 7 2 16 -1 19 -3 4 -6 -2 -5 -13z"/>
</g>
</svg>
