<?xml version="1.0" standalone="no"?>
<!DOCTYPE svg PUBLIC "-//W3C//DTD SVG 20010904//EN"
 "http://www.w3.org/TR/2001/REC-SVG-20010904/DTD/svg10.dtd">
<svg version="1.0" xmlns="http://www.w3.org/2000/svg"
 width="864.000000pt" height="216.000000pt" viewBox="0 0 864.000000 216.000000"
 preserveAspectRatio="xMidYMid meet">
<metadata>
Created by potrace 1.16, written by Peter Selinger 2001-2019
</metadata>
<g transform="translate(0.000000,216.000000) scale(0.100000,-0.100000)"
fill="#000000" stroke="none">
<path d="M1080 1080 l0 -820 3355 0 3355 0 0 820 0 820 -3355 0 -3355 0 0
-820z m6700 0 l0 -810 -3345 0 -3345 0 0 810 0 810 3345 0 3345 0 0 -810z"/>
<path d="M2955 1325 c-14 -13 -25 -29 -25 -34 0 -14 41 -41 63 -41 23 0 33
-26 16 -46 -10 -12 -24 -15 -56 -10 -42 5 -59 -6 -27 -18 42 -16 95 -1 114 34
15 28 2 49 -41 61 -27 9 -39 18 -39 30 0 21 38 34 70 26 24 -6 36 8 14 17 -32
12 -66 5 -89 -19z"/>
<path d="M2775 1227 c-23 -19 -31 -42 -56 -162 -34 -167 -33 -155 -14 -155 8
0 17 12 21 28 3 15 7 32 9 38 2 6 17 9 34 6 40 -6 85 13 99 41 22 46 23 66 4
85 -18 18 -18 19 0 42 24 30 24 76 -1 90 -32 16 -68 12 -96 -13z m83 -33 c3
-22 -23 -50 -52 -55 -32 -6 -28 -24 6 -34 62 -18 43 -95 -23 -95 -17 0 -32 6
-35 15 -9 21 15 145 33 173 18 30 67 27 71 -4z"/>
<path d="M3085 1236 c-5 -6 -10 -31 -10 -56 0 -41 2 -45 25 -47 14 -1 18 0 8
3 -29 9 -19 83 11 85 13 0 14 2 1 6 -8 3 -17 9 -20 13 -3 4 -9 3 -15 -4z"/>
<path d="M4420 1120 c0 -80 4 -130 10 -130 6 0 10 50 10 130 0 80 -4 130 -10
130 -6 0 -10 -50 -10 -130z"/>
<path d="M5856 1233 c-2 -10 -12 -58 -21 -108 -9 -49 -19 -100 -22 -112 -4
-18 -1 -23 13 -23 16 0 22 18 42 123 12 67 22 125 22 130 0 15 -29 6 -34 -10z"/>
<path d="M7120 1120 c0 -80 4 -130 10 -130 6 0 10 25 10 56 l0 55 43 -3 c39
-3 44 -6 70 -55 37 -70 68 -74 33 -5 -13 27 -32 54 -40 62 -15 12 -15 14 4 27
20 14 27 66 12 90 -11 18 -58 33 -103 33 l-39 0 0 -130z m110 90 c25 -25 25
-45 -1 -71 -14 -14 -30 -19 -52 -17 -29 3 -32 6 -35 42 -2 21 -1 44 2 52 8 21
63 17 86 -6z"/>
<path d="M1635 1233 c-35 -9 -55 -35 -55 -69 0 -36 22 -53 85 -68 40 -10 55
-24 55 -52 0 -27 -26 -44 -70 -44 -17 0 -40 5 -51 10 -15 8 -19 7 -19 -3 0
-17 30 -27 83 -27 27 0 45 7 62 25 47 47 23 95 -59 119 -30 9 -57 23 -60 32
-16 41 44 75 97 55 22 -9 27 -8 27 4 0 8 -8 15 -17 15 -10 0 -27 2 -38 4 -11
2 -29 2 -40 -1z"/>
<path d="M3236 1223 c-2 -10 -12 -58 -21 -108 -9 -49 -19 -100 -22 -112 -4
-18 -1 -23 13 -23 16 0 22 18 42 123 12 67 22 125 22 130 0 15 -29 6 -34 -10z"/>
<path d="M5630 1176 c0 -8 5 -16 10 -18 15 -5 37 -156 29 -201 -5 -31 -3 -37
10 -35 8 2 18 19 22 38 4 20 33 78 63 130 30 52 53 96 51 98 -12 12 -36 -13
-70 -74 -41 -73 -48 -72 -59 10 -3 28 -12 53 -19 58 -19 12 -37 9 -37 -6z"/>
<path d="M2110 1141 c0 -4 7 -17 16 -30 16 -22 16 -25 0 -51 -9 -16 -16 -30
-16 -32 0 -5 322 1 398 8 l62 6 0 43 c0 42 -2 44 -32 49 -51 8 -428 14 -428 7z"/>
<path d="M3860 1142 c0 -5 5 -13 12 -20 9 -9 -28 -12 -170 -12 l-182 0 0 -25
0 -26 173 1 c94 0 176 1 181 0 5 0 3 -7 -4 -15 -9 -11 -9 -15 -1 -15 13 0 111
48 111 54 0 7 -62 44 -93 55 -15 6 -27 7 -27 3z"/>
<path d="M4880 1144 c0 -3 7 -18 15 -33 12 -25 12 -31 0 -47 -29 -38 -20 -43
78 -38 50 2 185 7 300 10 l207 6 0 43 0 43 -177 6 c-98 3 -233 8 -300 11 -68
2 -123 2 -123 -1z"/>
<path d="M6637 1125 c5 -14 -23 -15 -246 -13 l-251 3 0 -28 0 -28 251 3 c234
3 250 2 245 -14 -2 -10 0 -18 5 -18 12 0 109 49 109 55 0 6 -97 55 -109 55 -6
0 -8 -7 -4 -15z"/>
<path d="M5955 1093 c-4 -13 -10 -23 -14 -23 -3 0 -6 -30 -6 -68 0 -66 1 -67
28 -70 15 -2 27 1 27 7 0 6 -9 11 -21 11 -19 0 -20 4 -14 43 9 53 12 57 36 57
10 0 19 5 19 10 0 6 -9 10 -19 10 -12 0 -21 8 -24 23 l-4 22 -8 -22z"/>
<path d="M3335 1083 c-4 -13 -10 -23 -14 -23 -3 0 -6 -30 -6 -68 0 -66 1 -67
28 -70 15 -2 27 1 27 7 0 6 -9 11 -21 11 -19 0 -20 4 -14 43 9 53 12 57 36 57
10 0 19 5 19 10 0 6 -9 10 -19 10 -12 0 -21 8 -24 23 l-4 22 -8 -22z"/>
<path d="M2910 1060 c0 -6 48 -10 125 -10 77 0 125 4 125 10 0 6 -48 10 -125
10 -77 0 -125 -4 -125 -10z"/>
<path d="M2961 968 c-21 -110 -23 -128 -13 -128 6 0 16 26 22 58 18 91 21 92
45 17 23 -74 49 -98 60 -53 27 116 32 158 20 158 -8 0 -18 -26 -26 -70 -6 -38
-15 -67 -19 -65 -4 3 -16 34 -25 70 -14 49 -22 65 -36 65 -13 0 -20 -13 -28
-52z"/>
</g>
</svg>
