<?xml version="1.0" standalone="no"?>
<!DOCTYPE svg PUBLIC "-//W3C//DTD SVG 20010904//EN"
 "http://www.w3.org/TR/2001/REC-SVG-20010904/DTD/svg10.dtd">
<svg version="1.0" xmlns="http://www.w3.org/2000/svg"
 width="1430.000000pt" height="944.000000pt" viewBox="0 0 1430.000000 944.000000"
 preserveAspectRatio="xMidYMid meet">
<metadata>
Created by potrace 1.16, written by Peter Selinger 2001-2019
</metadata>
<g transform="translate(0.000000,944.000000) scale(0.100000,-0.100000)"
fill="#000000" stroke="none">
<path d="M0 4715 l0 -4715 7150 0 7150 0 0 4715 0 4715 -7150 0 -7150 0 0
-4715z m12434 2899 c9 -3 16 -15 16 -25 0 -16 8 -19 43 -20 72 -2 112 2 115
12 6 15 51 10 72 -8 25 -21 26 -49 3 -63 -17 -10 -17 -10 0 -20 9 -6 17 -20
17 -30 0 -16 -7 -20 -35 -20 -27 0 -37 6 -48 27 l-14 26 -14 -29 c-11 -22 -23
-30 -57 -36 -23 -4 -52 -4 -64 1 -11 4 -41 4 -67 0 -25 -3 -56 -3 -67 2 -12 4
-24 5 -27 2 -3 -3 -36 -5 -73 -5 -59 0 -70 4 -86 24 l-18 23 -6 -22 c-5 -17
-14 -23 -36 -23 -29 0 -30 1 -25 38 6 48 30 109 50 129 14 15 20 15 42 3 14
-7 25 -18 25 -24 0 -10 37 -11 178 -7 24 1 32 6 32 19 0 30 13 38 44 26z m373
-15 c9 -9 20 -9 43 1 25 10 36 10 55 0 17 -9 31 -10 52 -2 19 6 36 6 46 0 11
-6 24 -5 38 2 24 14 61 7 83 -16 18 -18 22 -95 6 -124 -11 -21 -74 -45 -91
-34 -7 4 -28 7 -48 8 -35 1 -36 2 -41 46 l-5 45 -8 -42 c-9 -52 -31 -60 -142
-53 l-80 5 2 28 c1 15 10 35 19 45 16 16 16 17 1 20 -23 5 -23 58 1 71 23 14
55 14 69 0z m-507 -240 c0 -27 46 -26 53 1 5 18 14 20 77 20 63 0 72 -2 77
-20 6 -21 26 -25 131 -20 52 2 52 2 52 -29 0 -21 -5 -31 -15 -31 -10 0 -15
-10 -15 -27 0 -16 -4 -33 -8 -39 -9 -14 -122 -16 -139 -3 -9 8 -17 8 -25 1 -7
-5 -26 -9 -43 -8 -16 1 -83 -1 -149 -4 -151 -9 -166 -6 -166 30 0 16 6 30 13
33 10 4 10 7 0 18 -25 26 -9 78 27 91 8 3 41 6 73 6 50 1 57 -1 57 -19z m502
8 c10 -11 17 -11 40 2 22 13 31 14 47 4 16 -10 26 -10 46 -1 19 8 34 9 54 2
16 -7 37 -7 51 -2 54 20 89 -14 90 -88 0 -87 3 -86 -220 -85 -118 1 -198 5
-204 11 -12 12 20 80 38 81 6 0 1 4 -11 9 -34 14 -29 59 7 73 26 10 49 7 62
-6z m-824 -239 c5 -7 12 -22 15 -33 4 -18 5 -18 6 2 0 12 11 28 23 34 18 10
24 8 39 -10 24 -29 89 -30 89 -1 0 15 7 20 29 20 20 0 30 -6 34 -20 3 -14 14
-20 31 -20 19 0 26 5 26 20 0 16 7 20 30 20 23 0 30 -4 30 -20 0 -16 7 -20 38
-21 63 -1 135 -9 151 -18 8 -5 24 -5 37 1 49 23 96 -18 78 -66 -9 -22 -54 -32
-65 -15 -6 11 0 15 26 17 37 3 41 11 25 43 -23 42 -80 14 -80 -40 0 -25 34
-45 66 -38 16 3 24 0 24 -9 0 -9 -11 -14 -27 -14 l-28 0 41 -41 c36 -35 44
-40 62 -30 27 15 72 14 72 -1 0 -9 3 -9 12 0 17 17 73 15 89 -4 11 -14 13 -14
21 0 11 19 64 21 72 4 5 -10 7 -10 12 0 9 19 84 15 100 -5 22 -29 18 -115 -6
-141 -23 -24 -78 -30 -98 -10 -9 9 -12 9 -12 -1 0 -8 -10 -11 -27 -9 -25 3
-29 8 -34 48 -4 31 -6 36 -7 16 -3 -55 -24 -66 -128 -66 -85 0 -93 2 -99 20
-5 14 2 32 19 54 l25 34 -22 6 c-14 3 -26 0 -33 -9 -6 -8 -16 -15 -22 -15 -6
0 -12 -19 -14 -42 l-3 -43 -90 -2 c-49 0 -94 2 -100 7 -5 4 -38 6 -72 5 -68
-3 -79 3 -86 50 l-4 30 -2 -31 c-1 -37 -26 -63 -42 -47 -8 8 -20 7 -41 -2 -35
-14 -64 -10 -72 12 -8 19 1 33 20 33 11 0 8 9 -12 35 -24 32 -26 38 -14 60 14
27 41 32 84 15 16 -6 27 -6 31 0 10 16 33 11 39 -8 3 -10 19 -23 36 -29 29
-11 30 -10 30 17 0 27 3 29 55 35 30 4 62 4 71 1 12 -5 15 -2 10 10 -3 8 -6
22 -6 29 0 11 -34 13 -167 14 -291 0 -263 -4 -265 34 l-1 32 -4 -32 c-4 -30
-7 -33 -39 -33 l-34 0 0 78 c0 76 9 102 36 102 6 0 16 -6 22 -12z m802 1 c8 0
27 3 41 6 17 5 31 2 42 -9 13 -14 19 -14 42 -2 31 16 55 11 55 -11 0 -11 6
-10 26 6 57 45 104 12 104 -72 0 -63 -13 -83 -60 -91 -46 -8 -65 5 -56 37 3
14 2 29 -4 32 -6 4 -10 -8 -10 -29 0 -33 -2 -36 -30 -36 -24 0 -30 4 -30 21
l0 21 -17 -21 c-20 -23 -28 -25 -129 -23 -54 2 -73 6 -78 17 -6 16 12 65 27
76 5 3 -1 9 -12 12 -59 15 -17 85 44 72 16 -3 37 -6 45 -6z m-180 -79 c0 -5
-9 -10 -21 -10 -11 0 -17 5 -14 10 3 6 13 10 21 10 8 0 14 -4 14 -10z m-573
-400 c3 -11 14 -20 24 -20 10 0 21 -4 24 -10 3 -5 19 -7 35 -3 19 3 36 0 47
-8 13 -11 17 -11 20 -1 6 17 70 15 77 -3 3 -8 -3 -20 -13 -27 -13 -10 -18 -25
-17 -53 l1 -40 -235 0 -235 0 0 85 0 85 51 3 c36 2 54 -1 64 -13 8 -9 29 -15
55 -15 34 0 44 4 48 20 3 12 14 20 27 20 13 0 24 -8 27 -20z m462 -4 c11 -8
15 -8 18 2 7 18 60 15 67 -4 6 -16 8 -16 24 0 10 9 35 16 55 16 36 0 37 -1 39
-37 5 -103 -7 -133 -52 -133 -35 0 -50 18 -58 72 l-7 43 -5 -55 c-6 -61 -25
-74 -47 -30 -8 16 -13 19 -13 9 0 -36 -31 -47 -131 -48 -81 -1 -98 2 -103 15
-10 25 1 49 29 64 31 17 40 40 15 40 -23 0 -32 13 -24 33 8 22 45 28 71 12 19
-13 22 -13 27 3 5 14 14 17 44 14 20 -2 43 -9 51 -16z m-101 -253 c4 -26 4
-26 142 -25 52 1 102 -1 111 -4 22 -6 29 -38 22 -90 -6 -48 -31 -62 -77 -44
-17 6 -36 6 -56 -1 -23 -9 -34 -8 -46 2 -11 9 -38 12 -79 11 -52 -3 -65 0 -74
15 -8 15 -10 15 -11 2 0 -8 -13 -30 -29 -48 -33 -37 -64 -38 -69 -3 -3 19 -9
22 -53 22 l-49 0 0 85 c0 81 1 85 24 91 26 6 106 -12 106 -25 0 -12 36 -20 60
-14 11 3 20 13 20 22 0 24 10 32 35 29 12 -2 21 -12 23 -25z m389 6 c8 -8 20
-8 45 1 25 9 40 10 53 2 13 -7 26 -7 41 0 15 7 32 7 51 0 20 -6 36 -6 47 0 21
12 59 4 80 -18 17 -16 22 -109 8 -131 -11 -17 -54 -31 -74 -24 -9 3 -54 4
-100 1 -46 -3 -119 -3 -163 0 l-80 5 2 28 c1 15 10 35 19 45 16 16 16 17 1 20
-23 5 -23 58 1 71 23 14 55 14 69 0z m-643 -195 c9 -3 16 -15 16 -25 0 -16 8
-19 58 -20 31 -1 77 -3 102 -4 26 -2 48 2 52 9 5 7 8 5 8 -5 0 -15 5 -15 40
-7 22 6 46 8 55 4 20 -7 19 -43 -2 -55 -17 -9 -17 -11 2 -25 18 -13 21 -12 37
12 15 23 15 28 3 35 -8 4 -15 18 -15 31 0 31 50 54 85 38 17 -8 32 -8 53 0 24
9 35 9 53 -3 20 -13 28 -13 48 -3 15 8 31 9 41 4 9 -5 22 -5 31 1 18 11 80 11
98 0 18 -12 8 -76 -20 -131 -16 -30 -27 -40 -45 -40 -33 0 -38 18 -21 68 14
39 13 42 -4 42 -15 0 -18 -9 -21 -52 -3 -50 -5 -53 -31 -56 -22 -3 -30 1 -34
17 l-5 20 -17 -20 c-18 -22 -19 -23 -161 -20 -52 0 -102 1 -110 1 -8 0 -58 1
-110 3 -52 2 -108 -1 -123 -6 -23 -8 -32 -5 -52 13 -14 13 -25 18 -29 11 -4
-6 -28 -9 -54 -8 -47 2 -47 2 -53 42 -5 40 -15 34 -21 -15 -2 -15 -10 -26 -23
-29 -11 -2 -22 -6 -25 -10 -3 -4 -23 -12 -45 -19 -22 -6 -58 -27 -79 -47 -37
-33 -38 -35 -15 -35 13 0 30 9 37 20 7 11 19 20 27 20 8 0 20 -9 27 -20 16
-25 48 -26 48 -1 0 14 6 17 26 13 33 -6 46 -40 42 -111 -3 -56 -3 -56 -39 -62
-20 -3 -44 -2 -54 1 -10 3 -38 3 -63 -1 -25 -3 -73 -3 -106 1 -57 7 -62 6 -84
-18 -12 -14 -20 -27 -18 -30 3 -2 53 -5 113 -6 104 -1 108 -2 121 -26 17 -32
10 -105 -13 -130 -14 -15 -31 -19 -93 -18 -43 0 -83 5 -89 10 -9 7 -13 7 -13
-2 0 -7 -15 -11 -42 -10 -87 4 -95 1 -107 -27 -6 -16 -22 -48 -36 -72 -14 -24
-24 -46 -22 -47 2 -2 19 1 38 6 19 6 61 15 94 20 33 5 87 14 120 20 166 32
208 40 300 54 246 38 321 46 422 45 77 -1 98 -4 73 -9 -19 -4 -55 -12 -80 -18
-59 -12 -140 -48 -140 -62 0 -5 15 -10 33 -10 180 -2 275 -6 289 -13 13 -7 17
-3 20 15 2 19 10 23 44 25 39 3 42 1 48 -28 3 -18 6 -55 6 -84 l0 -53 -82 -4
c-58 -4 -92 -1 -113 9 -19 9 -31 10 -33 3 -2 -5 -17 -10 -33 -10 -27 0 -29 3
-30 38 l-1 37 -8 -33 c-4 -18 -9 -35 -11 -37 -7 -6 -198 -12 -226 -7 -17 3
-30 15 -37 33 -9 26 -36 41 -36 21 0 -4 -12 -15 -27 -24 -16 -10 -41 -29 -58
-43 -16 -14 -41 -36 -55 -48 -14 -12 -60 -52 -103 -89 -90 -78 -177 -162 -177
-172 0 -3 10 -4 23 -1 12 3 34 2 47 -3 14 -5 36 -6 50 -2 14 4 34 4 45 0 11
-4 34 -2 52 3 25 8 37 7 57 -7 22 -14 26 -24 26 -62 0 -46 -23 -94 -45 -94 -7
0 -15 -4 -17 -10 -2 -6 -14 -4 -30 4 -17 9 -30 11 -34 5 -3 -5 -20 -9 -37 -9
-39 2 -87 -11 -147 -38 l-45 -21 35 -1 c19 -1 113 -1 207 -1 95 0 175 -4 177
-8 8 -12 -10 -111 -21 -122 -11 -11 -504 -16 -522 -5 -6 4 -11 20 -11 37 0 34
-8 36 -43 9 -14 -11 -29 -20 -35 -20 -5 0 -19 -9 -32 -20 -13 -11 -18 -20 -13
-20 6 0 28 -17 49 -38 54 -53 79 -66 105 -52 23 13 69 5 69 -11 0 -5 10 -3 22
5 29 21 57 20 80 -1 14 -13 18 -31 18 -85 0 -83 -3 -85 -108 -77 -37 2 -49 -5
-35 -23 6 -7 28 -53 48 -103 21 -49 45 -107 53 -128 11 -26 24 -40 42 -44 14
-3 30 -9 35 -14 11 -8 61 -27 160 -59 127 -42 153 -48 240 -60 118 -16 128
-21 30 -15 -78 4 -165 21 -235 46 -119 41 -223 82 -237 92 -18 13 -16 0 8 -63
11 -30 24 -70 29 -89 10 -41 18 -48 50 -53 19 -2 26 -10 29 -33 l4 -30 6 30
c5 23 12 31 34 33 18 2 29 -2 33 -12 4 -11 19 -16 44 -16 22 0 42 -5 46 -11 4
-8 9 -8 17 0 6 6 24 11 39 11 18 0 28 5 28 14 0 8 10 18 22 22 16 5 26 1 36
-15 8 -11 23 -21 33 -21 10 0 21 -5 24 -10 5 -7 11 -8 18 -1 7 5 67 10 134 10
l122 1 6 -33 c4 -18 5 -51 3 -72 l-3 -40 -162 -2 c-120 -1 -163 1 -163 10 0 9
-2 9 -8 0 -6 -9 -47 -12 -152 -10 l-145 2 -7 30 c-4 18 -5 7 -3 -27 3 -32 11
-72 19 -90 8 -18 27 -73 43 -122 28 -89 28 -89 63 -93 19 -1 42 -4 50 -5 8 -1
25 2 36 6 15 4 27 1 38 -9 9 -9 16 -12 16 -7 0 16 54 24 84 12 26 -9 28 -14
25 -58 -1 -26 1 -55 5 -64 18 -40 2 -48 -91 -47 -52 1 -91 6 -95 13 -5 8 -12
8 -25 0 -20 -13 -19 -46 3 -99 8 -19 14 -42 14 -52 0 -15 17 -21 98 -36 174
-31 308 -47 401 -47 88 0 119 -12 64 -25 -33 -7 -90 -51 -80 -61 3 -4 38 -6
77 -5 59 1 69 -1 64 -14 -4 -10 -20 -15 -50 -15 -29 0 -44 -4 -44 -12 0 -19
12 -34 33 -41 24 -9 11 -30 -14 -24 -11 3 -19 1 -19 -5 0 -5 15 -8 32 -6 46 4
51 35 9 51 -42 16 -39 27 8 27 39 0 40 -1 43 -37 2 -28 8 -39 22 -41 18 -4 19
-3 3 13 -23 22 -22 65 1 66 16 1 16 2 0 6 -18 5 -24 19 -10 26 4 2 33 1 64 -2
37 -5 65 -3 79 5 50 26 75 -11 67 -101 -3 -39 -4 -40 -47 -43 -30 -2 -49 2
-62 14 -18 16 -19 16 -19 0 0 -15 -17 -16 -162 -15 -226 1 -210 4 -235 -36
-31 -47 -29 -59 5 -41 18 9 33 11 43 5 10 -5 28 -4 47 3 22 8 40 9 59 2 27 -9
28 -11 28 -88 0 -78 0 -80 -27 -87 -15 -4 -55 -5 -89 -2 -50 5 -62 10 -68 27
-8 21 -8 21 -15 -2 -8 -23 -23 -27 -83 -23 -37 3 -39 -2 -18 -53 18 -41 17
-41 50 -20 32 21 55 5 55 -40 1 -34 -4 -37 47 32 10 14 25 22 37 20 17 -2 22
-11 24 -45 2 -23 10 -47 18 -53 18 -16 18 -39 -1 -46 -8 -4 -15 -12 -15 -20 0
-9 -11 -14 -30 -14 -16 0 -30 4 -30 9 0 5 -11 11 -25 13 -16 4 -25 1 -25 -8 0
-7 -5 -14 -12 -16 -15 -5 93 -224 132 -266 16 -18 36 -32 44 -32 8 0 18 -5 22
-11 4 -8 9 -8 17 0 19 19 65 13 72 -10 l7 -21 15 21 c10 15 25 21 54 21 44 0
60 -20 40 -51 -8 -15 -8 -24 1 -38 14 -23 -2 -68 -27 -77 -25 -10 -67 6 -72
26 -7 26 -23 15 -23 -14 0 -23 -1 -23 -144 -24 -136 -2 -145 0 -151 18 -4 12
1 31 14 49 25 35 20 41 -24 27 -31 -10 -34 -15 -37 -51 l-3 -40 -249 -2 c-170
-2 -254 1 -263 8 -15 13 -18 49 -3 49 6 0 7 18 4 42 -8 60 7 74 84 82 58 5 64
4 69 -14 6 -24 41 -27 57 -5 9 13 44 20 119 25 4 0 7 10 7 23 0 22 -1 22 -117
20 -198 -5 -286 -2 -306 9 -13 7 -26 7 -41 0 -34 -17 -105 -23 -126 -12 -15 8
-20 8 -20 -1 0 -26 -33 -49 -70 -49 -45 0 -60 14 -61 60 0 31 -1 32 -9 13 -9
-23 -43 -30 -110 -25 -14 1 -56 3 -95 5 -66 2 -70 3 -74 27 -4 34 -16 40 -81
40 -30 0 -107 7 -170 15 -63 9 -169 23 -235 31 -66 8 -149 20 -185 25 -36 6
-96 14 -135 18 -38 5 -97 13 -130 19 -33 6 -107 18 -165 27 -58 9 -139 22
-180 30 -41 8 -118 21 -170 30 -52 9 -126 23 -165 30 -38 7 -110 21 -160 30
-49 9 -119 22 -155 30 -36 7 -103 21 -150 30 -210 41 -366 74 -432 91 -32 8
-67 14 -79 14 -12 0 -45 6 -73 14 -28 8 -82 21 -121 29 -38 8 -106 23 -150 32
-44 9 -107 23 -140 30 -33 8 -94 21 -135 30 -87 18 -182 40 -260 60 -30 7 -91
21 -135 30 -44 9 -98 21 -120 27 -22 6 -58 14 -80 18 -22 4 -62 13 -90 20 -94
23 -160 38 -235 55 -41 9 -100 22 -130 30 -30 7 -89 21 -130 30 -76 16 -143
31 -260 59 -36 8 -99 22 -140 31 -79 18 -146 34 -247 59 -35 9 -72 16 -84 16
-12 0 -45 6 -73 14 -28 8 -87 22 -131 31 -44 9 -107 23 -140 30 -33 7 -96 21
-140 30 -44 9 -107 23 -140 30 -33 8 -94 20 -135 29 -315 64 -472 95 -610 121
-47 9 -116 23 -155 31 -38 8 -80 14 -93 14 -13 0 -51 6 -85 14 -101 23 -441
78 -737 120 -540 77 -1198 134 -1570 138 l-155 1 165 8 c91 4 372 13 625 19
253 6 507 15 565 20 58 5 148 9 200 9 52 0 199 8 325 16 127 9 336 22 465 30
331 21 638 43 830 60 91 9 188 15 215 15 28 0 124 6 215 15 91 8 253 21 360
30 193 15 396 30 765 59 105 9 278 23 385 32 107 9 220 14 250 12 57 -3 -21
-11 -440 -43 -107 -8 -249 -20 -315 -26 -66 -6 -181 -14 -255 -19 -74 -5 -189
-13 -255 -19 -185 -16 -478 -39 -715 -56 -118 -9 -289 -22 -380 -30 -91 -9
-185 -15 -210 -15 -25 0 -133 -6 -240 -15 -485 -37 -1609 -95 -1855 -95 -114
-1 -54 -16 110 -29 83 -6 193 -16 245 -22 52 -6 138 -14 190 -19 52 -5 131
-14 175 -20 44 -6 132 -18 195 -26 231 -30 592 -86 770 -119 41 -8 118 -21
170 -30 52 -9 127 -23 165 -30 39 -8 104 -20 145 -29 100 -19 230 -45 310 -61
36 -7 103 -21 150 -30 47 -9 110 -23 141 -31 30 -8 66 -14 79 -14 13 0 46 -6
74 -14 28 -8 83 -21 121 -29 39 -8 106 -23 150 -32 44 -9 107 -23 140 -30 33
-7 96 -21 140 -30 44 -9 105 -23 135 -30 70 -17 163 -38 265 -60 44 -10 100
-24 124 -31 25 -8 53 -14 64 -14 11 0 43 -6 71 -14 28 -8 87 -22 131 -31 44
-10 103 -23 130 -30 28 -8 86 -21 130 -30 44 -9 103 -22 130 -29 28 -8 86 -21
130 -31 44 -9 105 -23 135 -30 30 -7 89 -21 130 -30 41 -9 100 -22 130 -30 30
-7 91 -21 135 -30 44 -9 105 -23 135 -30 30 -7 91 -21 135 -30 44 -9 107 -23
140 -30 33 -7 96 -21 140 -30 44 -9 107 -23 140 -30 126 -28 240 -52 425 -88
178 -36 239 -49 300 -62 36 -9 77 -15 92 -15 15 0 39 -5 54 -11 16 -5 58 -14
94 -19 36 -5 92 -14 125 -20 184 -35 256 -47 485 -84 255 -40 653 -93 870
-116 58 -7 113 -14 123 -16 14 -5 17 2 17 38 0 46 13 68 39 68 33 0 91 -21 91
-33 0 -9 55 -12 219 -12 121 0 223 3 227 7 11 11 34 -11 34 -33 0 -10 -9 -23
-20 -29 -26 -14 -26 -36 0 -43 26 -7 67 53 45 66 -8 4 -15 18 -15 31 0 31 50
54 85 38 17 -8 32 -8 53 0 24 9 35 9 53 -3 20 -13 28 -13 48 -3 26 14 61 3 61
-18 0 -6 9 -3 20 7 l20 18 -25 27 c-40 41 -29 46 15 6 22 -20 44 -36 50 -36 5
0 16 -16 24 -35 15 -36 36 -47 36 -20 0 8 3 15 6 15 3 0 51 -45 106 -100 84
-84 103 -98 118 -90 26 14 70 13 70 -2 0 -6 3 -8 6 -5 4 4 -1 18 -10 31 -9 14
-15 35 -14 48 2 31 -25 90 -52 116 -13 12 -19 25 -15 33 5 7 4 10 -2 6 -10 -6
-33 33 -33 54 0 6 -8 21 -18 34 -16 20 -20 21 -28 8 -7 -11 -25 -15 -62 -15
l-53 2 22 -40 c32 -56 18 -60 -16 -5 -26 40 -33 45 -67 45 -34 0 -38 3 -38 26
0 14 7 32 15 40 11 11 12 20 5 34 -14 25 -13 29 8 28 9 0 24 1 32 3 28 8 22
-35 -10 -66 -16 -16 -30 -32 -30 -37 0 -4 21 -7 48 -6 36 1 39 2 15 5 -39 5
-40 11 -7 42 17 16 24 33 22 50 -3 23 -8 26 -41 26 -20 0 -37 1 -37 1 0 1 11
9 25 18 17 11 31 13 47 7 53 -19 67 20 15 45 -27 13 -33 21 -31 44 1 15 12 38
25 51 l22 22 -21 8 c-28 10 -28 27 0 56 25 27 60 30 78 8 10 -12 15 -13 20 -4
4 6 22 12 40 14 23 1 40 12 57 34 l24 31 -40 0 c-22 0 -42 4 -45 9 -3 5 -28 1
-54 -9 -27 -10 -52 -15 -58 -12 -12 9 -18 52 -19 127 l0 60 49 3 c35 2 53 -2
67 -14 15 -14 36 -17 97 -16 49 1 81 6 87 14 5 7 29 23 53 34 l43 22 -44 6
c-25 4 -94 11 -153 16 -60 5 -125 14 -144 19 -19 5 -61 12 -92 15 l-58 6 7
-32 c3 -18 12 -48 19 -67 8 -18 14 -41 14 -49 0 -28 -22 3 -31 45 -19 92 -32
113 -69 118 -19 3 -54 9 -76 14 l-42 8 -6 -45 c-10 -72 -7 -260 4 -267 17 -10
12 -45 -5 -39 -12 5 -15 -2 -15 -29 0 -22 6 -37 15 -41 10 -4 15 1 15 14 0 31
48 27 56 -4 4 -17 11 -23 21 -19 10 4 7 -4 -8 -21 l-24 -28 -3 41 c-2 23 -7
39 -13 36 -12 -8 -12 -135 1 -135 6 0 10 7 10 15 0 16 30 55 42 55 5 0 8 -8 8
-17 0 -14 3 -13 23 5 24 23 52 29 62 13 3 -5 -7 -11 -22 -13 -22 -2 -29 -9
-31 -31 -3 -26 -1 -28 33 -25 l36 2 -3 46 c-3 43 -5 45 -35 48 -25 2 -33 -1
-33 -12 0 -9 -7 -16 -16 -16 -24 0 -11 24 19 34 17 6 37 6 55 0 24 -8 27 -15
30 -58 2 -33 -1 -52 -10 -57 -17 -11 -127 -8 -134 3 -3 5 -12 4 -20 -3 -11 -9
-18 -9 -26 -1 -13 13 -64 -13 -79 -40 -13 -23 10 -61 31 -52 32 14 55 9 58
-13 3 -19 8 -21 38 -16 51 8 74 -17 74 -79 0 -51 -5 -54 -75 -50 -11 0 -113 1
-227 2 -226 1 -223 0 -228 60 -6 68 0 108 18 112 34 9 42 -2 42 -63 0 -45 3
-59 15 -59 19 0 37 35 33 63 -3 23 -1 24 130 26 35 1 44 5 54 26 10 21 8 28
-15 51 -24 24 -33 26 -75 22 -26 -3 -56 -2 -67 2 -11 4 -33 3 -50 -2 -16 -4
-42 -6 -57 -2 -23 4 -28 11 -28 35 0 16 5 29 12 29 9 0 9 3 0 12 -19 19 -15
75 7 90 20 14 28 5 -229 275 -32 34 -55 50 -65 47 -18 -7 -18 -6 -4 -58 6 -22
17 -68 26 -101 30 -122 46 -181 59 -225 56 -186 101 -288 140 -319 23 -18 24
-21 8 -21 -25 0 -34 7 -70 55 -26 34 -113 202 -147 285 -5 14 -17 41 -25 60
-21 50 -37 89 -57 140 -67 168 -87 194 -143 181 -12 -4 -60 -5 -107 -3 -85 3
-85 4 -85 30 0 16 10 35 24 47 21 17 22 22 10 36 -11 12 -11 16 -2 16 7 0 20
2 28 4 28 7 22 -35 -10 -66 -16 -16 -30 -32 -30 -37 0 -4 21 -7 48 -6 36 1 39
2 15 5 -39 5 -40 11 -7 42 17 16 24 33 22 50 -3 23 -8 26 -41 26 -33 0 -35 2
-20 13 10 7 32 12 48 11 48 -2 55 0 55 16 0 9 -12 20 -26 25 -67 26 30 35 159
15 43 -7 47 -6 47 13 0 30 -14 35 -56 17 -43 -18 -79 -21 -54 -5 8 6 32 15 53
20 l38 11 -7 52 c-4 29 -11 63 -16 77 -5 14 -13 45 -18 70 -4 25 -13 68 -20
95 -6 28 -18 75 -25 105 -8 30 -20 82 -29 115 -8 33 -20 82 -27 108 -8 34 -15
45 -22 38 -6 -6 -24 -11 -39 -11 -27 0 -28 2 -29 48 l-1 47 -9 -44 c-5 -24
-10 -46 -12 -48 -5 -4 -67 -7 -82 -3 -5 1 -24 2 -41 1 l-30 -1 -12 -97 c-7
-54 -12 -119 -12 -145 0 -26 -7 -95 -16 -154 -9 -59 -14 -127 -12 -151 2 -23
0 -43 -3 -43 -4 0 -10 -10 -14 -22 -5 -13 -11 -32 -15 -43 -9 -25 -3 115 16
386 20 296 24 269 -36 269 -35 0 -52 4 -56 14 -7 17 25 76 41 77 5 0 0 4 -12
9 -13 5 -23 17 -23 27 0 34 18 48 59 48 l40 0 6 65 c8 82 14 102 24 77 6 -17
8 -17 24 1 16 18 16 21 2 35 -8 9 -15 20 -15 25 0 15 57 35 81 29 11 -3 27 -3
35 0 24 9 -12 51 -39 46 -34 -7 -45 14 -48 91 -3 81 9 94 70 78 58 -14 69 2
113 153 55 188 53 173 35 211 -9 19 -17 43 -17 52 0 10 -7 27 -15 38 -8 10
-15 27 -15 36 0 9 -5 29 -12 43 -11 24 -15 25 -88 25 l-77 0 -7 -202 c-5 -112
-12 -239 -16 -283 -5 -49 -6 4 -2 140 3 121 6 258 7 305 1 47 4 91 8 97 4 6 6
28 5 49 -2 67 7 81 49 76 36 -5 37 -4 23 14 -24 30 -35 34 -42 16 -5 -14 -7
-13 -7 5 -1 17 10 27 42 41 48 22 114 82 176 161 41 52 42 55 22 63 -12 4 -21
13 -21 20 0 8 -5 6 -11 -4 -13 -22 -55 -23 -63 -2 -8 20 -8 128 0 148 8 21 63
21 71 0 5 -15 7 -15 15 0 11 20 57 21 64 1 4 -8 15 -15 25 -15 10 0 19 -6 20
-12 0 -10 2 -10 6 0 2 6 15 12 27 12 12 0 35 14 51 30 16 17 34 30 41 30 6 0
17 7 24 15 16 19 57 20 57 1 0 -7 -6 -13 -14 -12 -8 1 -21 -11 -30 -26 -14
-22 -15 -29 -4 -42 9 -11 17 -13 25 -6 7 5 47 7 98 3 l86 -6 5 -49 c10 -83 1
-89 -126 -87 -86 1 -112 -2 -126 -15 -22 -20 -35 -21 -27 0 3 9 2 12 -5 9 -6
-4 -8 -13 -5 -20 2 -7 -1 -18 -7 -24 -11 -11 -32 -76 -44 -132 l-5 -26 84 14
c45 7 124 21 173 30 l91 16 36 73 36 73 -26 3 c-38 4 -42 42 -7 78 l26 27 -25
7 c-28 7 -32 17 -15 47 8 16 20 20 57 19 89 -3 98 -1 110 24 9 19 8 25 -4 30
-9 4 -14 21 -14 51 l0 46 -31 -18 c-17 -10 -33 -24 -36 -30 -3 -7 -11 -13 -18
-13 -7 0 -15 -7 -19 -15 -3 -8 -10 -15 -16 -15 -23 0 -7 19 55 65 37 27 65 55
65 65 0 25 23 41 56 38 16 -1 49 8 74 19 25 12 59 26 75 32 24 8 26 10 8 10
-12 1 -24 5 -28 11 -7 11 23 108 36 116 5 3 9 14 9 24 0 31 40 37 63 9 23 -29
74 -27 95 2 15 21 52 26 52 7 0 -8 6 -6 17 5 18 18 32 21 57 11z m91 -258 c14
-10 25 -11 37 -5 10 5 33 9 50 9 18 0 47 2 64 6 57 11 71 -5 72 -89 l2 -73
-35 -13 c-20 -7 -45 -9 -58 -5 -12 4 -37 6 -54 5 -33 -3 -33 -2 -34 46 -1 46
-1 47 -9 14 -15 -61 -25 -65 -152 -63 l-78 2 0 30 c0 18 6 33 15 36 8 4 15 12
15 19 0 7 -7 15 -15 19 -18 7 -18 16 0 40 10 13 29 19 70 21 30 1 58 5 62 9
10 10 28 7 48 -8z m650 -465 c11 0 29 1 40 1 11 0 29 -1 40 -1 11 -1 34 1 51
5 21 4 34 1 43 -9 11 -14 15 -14 41 1 34 19 56 11 78 -29 14 -27 11 -114 -5
-130 -9 -9 -71 -11 -330 -9 -82 0 -83 0 -83 25 0 15 11 36 25 49 24 23 25 24
5 29 -58 15 -15 85 45 73 16 -4 39 -6 50 -5z m-2804 -252 l11 -21 14 21 c18
25 74 30 74 6 0 -12 18 -15 100 -15 82 0 100 3 100 15 0 24 39 17 51 -9 12
-26 36 -25 52 1 12 19 29 16 55 -12 19 -20 28 -23 44 -14 14 7 23 7 34 -2 11
-9 18 -9 30 2 14 11 18 10 30 -6 20 -27 18 -45 -12 -101 -14 -27 -29 -65 -34
-84 -4 -19 -13 -57 -20 -85 -6 -27 -18 -76 -26 -107 -58 -240 -78 -307 -90
-312 -7 -3 -11 17 -12 57 -1 34 -9 116 -16 182 -8 66 -20 165 -26 219 -6 55
-12 101 -14 103 -2 2 -97 5 -212 6 l-209 2 -3 74 c-2 41 -1 80 2 88 9 22 64
16 77 -8z m2101 -450 c14 -8 28 -7 49 2 24 9 35 9 54 -1 20 -11 30 -11 51 -1
34 15 54 0 54 -43 l0 -31 26 37 c51 72 88 60 98 -32 9 -74 -3 -100 -44 -100
-17 0 -30 4 -30 9 0 5 -11 11 -25 13 -17 4 -25 1 -25 -8 0 -9 -12 -14 -31 -14
-23 0 -32 5 -37 22 -5 21 -6 21 -12 3 -9 -26 -34 -31 -135 -27 -84 3 -85 4
-85 30 0 14 10 36 22 49 17 18 18 23 6 23 -33 0 -33 64 0 73 30 8 43 7 64 -4z
m-1972 -489 c18 -18 33 -20 128 -20 60 0 112 -3 115 -7 4 -3 29 -7 57 -8 43
-2 49 1 52 19 2 17 10 21 43 22 22 1 43 -4 47 -10 4 -6 8 -43 8 -83 l0 -71
-50 -4 c-35 -2 -50 1 -50 10 0 6 -4 12 -10 12 -5 0 -10 -4 -10 -10 0 -16 -52
-11 -72 7 -10 9 -18 27 -18 40 0 38 -17 26 -24 -18 -8 -51 -35 -50 -54 1 l-12
35 3 -42 3 -43 -201 0 c-456 0 -1428 -41 -2150 -91 -82 -6 -220 -14 -305 -19
-85 -5 -195 -14 -245 -20 -49 -5 -128 -9 -175 -8 -79 1 -75 2 65 14 657 58
2092 135 2523 134 217 0 222 0 212 19 -14 27 -13 104 3 123 32 40 86 49 117
18z m-129 -241 c19 -19 31 -20 177 -20 117 1 160 5 171 15 18 16 68 18 94 5
13 -8 17 -23 17 -72 0 -34 -4 -67 -8 -74 -5 -7 -43 -13 -101 -15 -81 -2 -95 0
-107 16 -12 17 -14 17 -20 3 -7 -20 -64 -24 -64 -4 0 9 -2 9 -8 0 -7 -11 -148
-19 -232 -14 -31 1 -60 45 -60 91 0 70 94 116 141 69z m-8454 -187 c9 -5 7
-25 -9 -77 -11 -39 -22 -85 -25 -102 -4 -27 -10 -33 -29 -33 -13 0 -41 -6 -61
-14 -21 -7 -57 -18 -80 -23 -39 -9 -42 -8 -47 13 -8 32 3 104 21 134 23 38 84
90 113 96 14 3 30 7 35 9 19 6 70 5 82 -3z m11105 -45 c5 -9 10 -9 20 1 8 8
43 12 100 12 115 0 115 1 65 -135 -12 -31 -21 -41 -41 -43 -35 -4 -43 21 -24
75 16 43 16 43 -8 43 -23 0 -24 -4 -24 -60 l0 -60 -30 0 c-26 0 -30 4 -30 28
l-1 27 -16 -27 c-17 -27 -18 -27 -118 -25 -97 2 -100 3 -103 26 -2 15 6 33 23
51 l26 27 -25 7 c-28 7 -32 17 -16 46 9 17 22 19 103 19 58 -1 95 -5 99 -12z
m-11614 -243 c7 -13 32 -15 144 -15 109 1 138 -2 148 -14 11 -13 4 -15 -54
-15 l-66 0 0 -45 c0 -25 5 -45 10 -45 6 0 10 11 10 24 0 35 10 56 26 56 10 0
14 -12 14 -40 0 -22 5 -40 10 -40 6 0 10 11 10 24 0 35 10 56 26 56 10 0 14
-12 14 -40 0 -30 4 -40 16 -40 14 0 16 8 11 48 -4 33 -3 40 3 25 5 -13 13 -23
18 -23 5 0 7 -11 4 -25 -4 -23 -1 -25 32 -25 l36 0 0 45 c0 44 -1 45 -32 46
-32 2 -32 2 -4 6 36 6 70 -28 64 -62 -5 -26 7 -35 48 -35 25 0 42 35 30 65 -3
8 -1 25 4 37 7 18 9 8 9 -39 1 -35 5 -63 11 -63 6 0 10 10 10 23 l1 22 20 -24
c25 -30 36 -21 14 13 -16 24 -16 25 4 23 23 -1 47 -48 37 -72 -5 -13 -36 -15
-238 -13 l-233 3 -4 40 -5 40 -5 -40 -6 -40 -130 -1 c-86 -1 -132 2 -137 10
-9 13 -11 128 -2 149 8 22 120 22 132 1z m565 -21 c2 -21 0 -42 -4 -47 -5 -6
-9 7 -9 31 0 24 -5 43 -12 46 -8 4 -7 6 3 6 12 1 18 -10 22 -36z m177 21 c0
-14 2 -14 15 -1 11 12 47 15 165 16 l150 1 0 -26 c0 -25 -17 -72 -45 -124 -14
-25 -16 -25 -142 -25 l-128 0 -6 35 -6 35 -2 -37 c-1 -35 -3 -38 -31 -38 -29
0 -30 2 -30 44 0 30 -5 46 -15 50 -20 7 -19 45 2 68 20 23 73 25 73 2z m-131
-33 c14 -9 7 -31 -10 -31 -6 0 -7 5 -4 10 3 6 1 10 -4 10 -6 0 -11 5 -11 10 0
12 10 13 29 1z m-214 -31 c4 -6 -5 -10 -20 -10 -15 0 -24 4 -20 10 3 6 12 10
20 10 8 0 17 -4 20 -10z m93 -1 c-10 -5 -18 -16 -18 -24 0 -8 8 -19 18 -25 16
-10 15 -10 -3 -8 -35 5 -33 68 2 68 17 -1 17 -1 1 -11z m-94 -44 c-6 -16 -44
-21 -44 -7 0 14 12 22 31 22 12 0 16 -5 13 -15z m9103 -277 c-3 -8 -6 -5 -6 6
-1 11 2 17 5 13 3 -3 4 -12 1 -19z m-210 -73 c20 -13 54 -18 147 -21 231 -7
231 -7 229 -28 -1 -11 5 -25 13 -33 17 -18 18 -34 1 -57 -12 -16 -31 -18 -188
-16 -96 0 -208 2 -249 3 l-75 2 -3 67 c-4 91 8 112 59 105 22 -3 51 -13 66
-22z m2810 -227 c9 -7 17 -7 27 2 8 6 25 10 38 8 22 -3 23 -7 23 -88 0 -82 -1
-85 -24 -88 -13 -2 -28 2 -32 10 -7 10 -9 10 -9 0 0 -9 -37 -12 -162 -10 -163
3 -163 3 -166 27 -2 15 6 33 23 51 l26 27 -25 7 c-28 7 -32 17 -16 46 9 17 23
19 147 19 81 0 143 -5 150 -11z m-1153 -363 c-4 -8 -15 -15 -25 -15 -10 0 -19
7 -19 15 0 9 9 15 25 15 18 0 23 -4 19 -15z m200 -811 c12 -5 16 -20 16 -61 0
-39 4 -54 13 -51 6 3 13 19 15 36 2 23 9 33 26 38 36 9 448 -4 458 -14 5 -5 8
-33 6 -63 l-3 -54 -44 -1 c-24 -1 -61 -5 -83 -8 -21 -4 -47 -2 -57 4 -13 6
-29 6 -50 -1 -24 -8 -37 -7 -60 4 -16 8 -33 11 -38 7 -9 -9 -87 -14 -180 -12
l-63 2 0 84 c0 58 4 86 13 89 6 3 13 6 14 6 1 1 8 -2 17 -5z m656 -4 c13 -7
27 -6 44 2 18 8 33 8 48 1 15 -6 31 -6 50 1 20 7 33 7 51 -3 18 -10 30 -10 45
-2 54 29 92 -5 92 -82 0 -86 -4 -88 -160 -87 -252 0 -265 2 -268 28 -2 15 5
32 18 44 l21 20 -20 15 c-27 18 -27 38 1 57 26 18 51 20 78 6z"/>
<path d="M12124 7573 c-3 -10 -14 -39 -25 -65 -22 -53 -22 -58 -10 -58 5 0 13
9 16 20 9 27 48 26 69 -2 16 -23 16 -23 9 7 -7 35 -42 115 -49 115 -2 0 -7 -8
-10 -17z m26 -55 c0 -10 -7 -18 -15 -18 -17 0 -18 4 -8 38 4 18 8 20 14 10 5
-7 9 -21 9 -30z"/>
<path d="M12413 7520 c0 -41 2 -58 4 -37 2 20 2 54 0 75 -2 20 -4 3 -4 -38z"/>
<path d="M12627 7558 c-2 -7 -1 -33 2 -58 5 -37 10 -46 29 -48 12 -2 22 1 22
7 0 6 -7 11 -15 11 -10 0 -15 10 -15 30 0 20 5 30 15 30 8 0 15 5 15 10 0 6
-7 10 -15 10 -8 0 -15 5 -15 10 0 14 -17 12 -23 -2z"/>
<path d="M12212 7503 c3 -47 4 -48 39 -51 l37 -3 3 50 c3 36 0 51 -8 51 -8 0
-13 -15 -13 -40 0 -33 -3 -40 -20 -40 -17 0 -20 7 -20 40 0 22 -5 40 -11 40
-6 0 -9 -19 -7 -47z"/>
<path d="M12332 7538 c-7 -7 -12 -24 -12 -38 0 -32 17 -50 47 -50 32 0 29 18
-4 22 -22 2 -28 8 -28 28 0 20 6 26 28 28 15 2 27 8 27 13 0 13 -44 11 -58 -3z"/>
<path d="M12462 7538 c-7 -7 -12 -24 -12 -38 0 -14 5 -31 12 -38 14 -14 68
-16 68 -2 0 6 -13 10 -30 10 -20 0 -30 5 -30 15 0 10 10 15 30 15 18 0 30 5
30 13 0 18 -21 37 -40 37 -9 0 -21 -5 -28 -12z m48 -18 c0 -5 -9 -10 -20 -10
-11 0 -20 5 -20 10 0 6 9 10 20 10 11 0 20 -4 20 -10z"/>
<path d="M12550 7498 c0 -26 5 -48 10 -48 6 0 10 16 10 36 0 27 5 37 20 41 30
8 24 22 -10 21 -29 -1 -30 -3 -30 -50z"/>
<path d="M12749 7573 c-13 -15 -12 -16 9 -11 34 9 39 -16 11 -57 -13 -19 -27
-35 -31 -35 -5 0 -8 -4 -8 -10 0 -5 20 -10 45 -10 48 0 62 17 19 22 l-26 3 21
27 c26 33 27 64 2 78 -25 13 -26 13 -42 -7z"/>
<path d="M12857 7578 c-13 -7 -17 -23 -17 -62 0 -54 8 -66 45 -66 22 0 37 61
24 97 -12 36 -28 45 -52 31z m43 -65 c0 -40 -2 -44 -22 -41 -18 2 -24 11 -26
36 -4 37 12 64 34 55 9 -3 14 -20 14 -50z"/>
<path d="M13049 7571 c-21 -17 -22 -22 -11 -46 10 -21 18 -26 37 -23 21 4 23
3 14 -13 -5 -11 -19 -19 -29 -19 -11 0 -20 -4 -20 -10 0 -13 26 -13 51 0 27
15 28 105 0 120 -15 7 -25 5 -42 -9z m39 -47 c-19 -19 -38 -11 -38 16 0 24 21
31 40 14 12 -12 12 -16 -2 -30z"/>
<path d="M12964 7564 c3 -9 6 -38 6 -65 0 -27 5 -49 10 -49 6 0 10 28 10 65 0
53 -3 65 -16 65 -11 0 -14 -5 -10 -16z"/>
<path d="M12945 7550 c3 -5 8 -10 11 -10 2 0 4 5 4 10 0 6 -5 10 -11 10 -5 0
-7 -4 -4 -10z"/>
<path d="M12268 7354 c-11 -11 -10 -134 1 -134 6 0 11 17 13 38 2 30 7 38 26
40 20 3 22 -1 22 -37 0 -23 4 -41 8 -41 4 0 5 21 2 48 -4 42 -8 47 -30 47 -18
0 -26 6 -30 23 -3 13 -8 20 -12 16z"/>
<path d="M12420 7290 c0 -40 4 -70 10 -70 6 0 10 30 10 70 0 40 -4 70 -10 70
-6 0 -10 -30 -10 -70z"/>
<path d="M12467 7353 c-11 -10 -8 -133 3 -133 6 0 10 30 10 70 0 70 -1 76 -13
63z"/>
<path d="M12160 7330 c-11 -20 -10 -21 39 -58 31 -24 20 -46 -20 -38 -16 3
-29 1 -29 -4 0 -11 33 -13 68 -4 32 9 25 45 -10 62 -38 18 -36 42 2 42 17 0
30 5 30 10 0 6 -16 10 -35 10 -24 0 -37 -6 -45 -20z"/>
<path d="M12370 7340 c0 -5 5 -10 10 -10 6 0 10 5 10 10 0 6 -4 10 -10 10 -5
0 -10 -4 -10 -10z"/>
<path d="M12370 7270 c0 -27 5 -50 10 -50 6 0 10 23 10 50 0 28 -4 50 -10 50
-5 0 -10 -22 -10 -50z"/>
<path d="M12517 7313 c-14 -14 -7 -81 9 -87 24 -9 52 -7 59 4 4 7 -2 9 -17 5
-16 -4 -29 -1 -37 9 -12 14 -9 16 23 16 38 0 43 8 26 41 -10 18 -50 26 -63 12z
m53 -23 c0 -5 -12 -10 -26 -10 -14 0 -23 4 -19 10 3 6 15 10 26 10 10 0 19 -4
19 -10z"/>
<path d="M12610 7268 c0 -26 5 -48 10 -48 6 0 10 16 10 36 0 27 5 37 20 41 30
8 24 22 -10 21 -29 -1 -30 -3 -30 -50z"/>
<path d="M12735 7339 c-10 -16 4 -24 17 -11 39 39 37 -23 -3 -71 l-30 -37 48
2 c37 1 40 2 15 5 l-33 4 31 39 c26 33 29 43 20 60 -11 21 -54 28 -65 9z"/>
<path d="M12836 7328 c-10 -37 -7 -83 6 -96 37 -37 76 13 61 78 -7 28 -14 36
-35 38 -19 2 -27 -2 -32 -20z m52 -42 c4 -46 -10 -65 -33 -46 -15 13 -21 71
-8 84 18 18 38 -1 41 -38z"/>
<path d="M12930 7335 c0 -12 4 -14 19 -6 14 8 22 7 31 -4 10 -13 9 -20 -6 -38
-11 -12 -25 -26 -31 -30 -7 -4 -13 -15 -13 -22 0 -11 11 -15 43 -14 41 2 41 2
8 8 l-33 6 27 29 c37 40 32 80 -12 84 -25 2 -33 -1 -33 -13z"/>
<path d="M13029 7329 c-13 -26 -5 -89 13 -101 48 -30 89 44 58 103 -14 26 -56
25 -71 -2z m61 -38 c0 -31 -13 -61 -25 -61 -18 0 -27 55 -14 88 10 26 11 26
25 8 8 -11 14 -27 14 -35z"/>
<path d="M12183 7050 c0 -41 2 -58 4 -37 2 20 2 54 0 75 -2 20 -4 3 -4 -38z"/>
<path d="M12290 7097 c0 -18 -5 -23 -27 -22 -21 0 -30 -6 -37 -28 -14 -38 2
-62 43 -63 l31 -1 0 69 c0 37 -2 68 -5 68 -3 0 -5 -10 -5 -23z m-5 -72 c0 -23
-4 -30 -20 -30 -15 0 -21 8 -23 33 -3 30 -1 33 20 30 18 -2 23 -9 23 -33z"/>
<path d="M11940 7045 c0 -53 3 -65 16 -65 12 0 15 7 12 30 -4 28 -3 30 29 30
30 0 33 -3 33 -30 0 -16 3 -30 8 -30 4 0 7 29 7 65 0 36 -3 65 -7 65 -5 0 -8
-13 -8 -30 0 -27 -3 -30 -30 -30 -27 0 -30 3 -30 30 0 20 -5 30 -15 30 -12 0
-15 -14 -15 -65z"/>
<path d="M12080 7071 c0 -6 9 -11 19 -11 11 0 23 -4 26 -10 3 -5 -3 -10 -13
-10 -25 0 -46 -25 -39 -45 4 -9 19 -14 42 -13 l36 1 -3 46 c-3 44 -5 46 -35
49 -19 2 -33 -1 -33 -7z m44 -66 c-4 -8 -12 -15 -20 -15 -8 0 -14 7 -14 15 0
8 9 15 20 15 13 0 18 -5 14 -15z"/>
<path d="M12335 7070 c-7 -11 -1 -13 33 -10 33 2 27 -17 -9 -24 -25 -5 -30
-10 -27 -28 2 -19 10 -23 41 -25 35 -1 37 1 37 29 0 16 -5 38 -10 49 -11 20
-54 26 -65 9z m55 -59 c0 -6 -5 -13 -10 -16 -15 -9 -43 3 -35 15 8 13 45 13
45 1z"/>
<path d="M12430 7028 c0 -56 17 -65 22 -10 2 29 7 37 23 37 16 0 21 -9 26 -40
6 -39 6 -39 8 12 l1 53 -40 -2 -40 -1 0 -49z"/>
<path d="M12208 6884 c-11 -11 -10 -134 1 -134 6 0 11 17 13 38 2 29 7 37 23
37 16 0 21 -8 23 -37 2 -21 6 -38 10 -38 4 0 6 20 4 45 -4 42 -6 45 -32 45
-23 0 -29 5 -32 26 -2 14 -6 22 -10 18z"/>
<path d="M12360 6820 c0 -40 4 -70 10 -70 6 0 10 30 10 70 0 40 -4 70 -10 70
-6 0 -10 -30 -10 -70z"/>
<path d="M12407 6883 c-11 -10 -8 -133 3 -133 6 0 10 30 10 70 0 70 -1 76 -13
63z"/>
<path d="M12120 6873 c-37 -14 -31 -45 11 -67 36 -18 31 -41 -8 -40 -18 1 -33
-2 -33 -8 0 -5 19 -8 43 -6 34 2 43 7 45 25 2 16 -5 26 -27 38 -42 21 -41 45
2 46 27 0 29 2 12 9 -23 10 -25 10 -45 3z"/>
<path d="M12310 6870 c0 -5 5 -10 10 -10 6 0 10 5 10 10 0 6 -4 10 -10 10 -5
0 -10 -4 -10 -10z"/>
<path d="M12680 6870 c-8 -5 -11 -12 -7 -16 4 -4 13 -2 19 4 7 7 16 12 20 12
10 0 11 -57 1 -62 -5 -2 -19 -15 -32 -31 l-24 -27 49 1 c46 2 47 2 14 9 -28 5
-31 8 -17 14 9 5 17 12 17 18 0 5 7 16 15 24 19 19 19 29 -1 48 -18 18 -32 20
-54 6z"/>
<path d="M12785 6863 c-15 -15 -20 -68 -9 -97 4 -9 18 -16 34 -16 23 0 29 5
34 30 13 69 -23 120 -59 83z m43 -47 c4 -46 -10 -65 -33 -46 -27 22 -16 94 14
88 11 -2 17 -16 19 -42z"/>
<path d="M12988 6873 c-9 -3 -20 -14 -24 -26 -9 -28 31 -63 52 -46 8 6 14 7
14 2 0 -16 -24 -41 -45 -46 -14 -3 -12 -5 9 -6 35 -1 55 22 56 64 0 46 -22 66
-62 58z m42 -45 c0 -5 -7 -11 -16 -15 -22 -8 -35 16 -22 41 10 19 11 19 24 1
8 -10 14 -23 14 -27z"/>
<path d="M12880 6855 c-10 -12 -10 -15 4 -15 12 0 16 -10 16 -45 0 -25 5 -45
10 -45 6 0 10 27 10 60 0 62 -13 77 -40 45z"/>
<path d="M12150 6836 c0 -2 7 -6 15 -10 8 -3 15 -1 15 4 0 6 -7 10 -15 10 -8
0 -15 -2 -15 -4z"/>
<path d="M12310 6795 c0 -25 5 -45 10 -45 6 0 10 20 10 45 0 25 -4 45 -10 45
-5 0 -10 -20 -10 -45z"/>
<path d="M12450 6795 c0 -45 0 -45 35 -45 19 0 35 4 35 9 0 5 -8 7 -18 4 -10
-2 -24 3 -31 11 -12 14 -9 16 23 16 36 0 41 5 30 34 -4 10 -18 16 -40 16 -34
0 -34 -1 -34 -45z m60 25 c0 -5 -9 -10 -20 -10 -11 0 -20 5 -20 10 0 6 9 10
20 10 11 0 20 -4 20 -10z"/>
<path d="M12556 6824 c-10 -25 -7 -74 4 -74 6 0 10 12 10 28 0 31 9 47 30 55
9 3 4 6 -11 6 -16 1 -29 -6 -33 -15z"/>
<path d="M12690 7095 c0 -12 4 -14 19 -6 14 8 22 7 31 -4 10 -13 9 -20 -6 -38
-11 -12 -25 -26 -31 -30 -7 -4 -13 -15 -13 -22 0 -11 11 -15 43 -14 41 2 41 2
8 8 l-33 6 27 29 c37 40 32 80 -12 84 -25 2 -33 -1 -33 -13z"/>
<path d="M12800 7091 c-15 -29 -12 -87 5 -101 8 -7 25 -10 40 -6 22 6 25 11
25 54 0 26 -5 53 -12 60 -18 18 -46 14 -58 -7z m48 -59 c-2 -25 -8 -37 -18
-37 -20 0 -27 84 -8 96 18 11 30 -14 26 -59z"/>
<path d="M12910 7095 c-10 -12 -10 -15 3 -15 12 0 17 -13 20 -52 3 -50 3 -49
5 15 2 67 -5 80 -28 52z"/>
<path d="M12997 7103 c-4 -3 -7 -19 -7 -34 0 -29 24 -50 48 -42 6 3 12 0 12
-5 0 -13 -21 -29 -45 -35 -16 -4 -14 -5 7 -6 46 -2 74 61 48 110 -10 18 -50
26 -63 12z m53 -33 c0 -24 -25 -33 -40 -14 -10 11 -10 17 0 28 15 19 40 10 40
-14z"/>
<path d="M11998 6644 c-12 -11 -10 -134 2 -134 6 0 10 10 10 23 l1 22 18 -22
c11 -13 22 -23 25 -23 14 0 4 23 -18 43 -16 15 -26 37 -28 61 -2 21 -6 34 -10
30z"/>
<path d="M11770 6569 l0 -60 43 3 c38 3 42 6 45 31 2 16 -1 27 -9 27 -9 0 -8
4 1 15 21 26 4 45 -40 45 l-40 0 0 -61z m68 34 c-2 -10 -13 -19 -26 -21 -17
-3 -22 2 -22 17 0 16 6 21 26 21 19 0 25 -5 22 -17z m7 -43 c9 -15 -14 -40
-36 -40 -14 0 -19 7 -19 25 0 20 5 25 24 25 14 0 28 -5 31 -10z"/>
<path d="M11894 6591 c3 -5 15 -7 26 -4 32 8 23 -11 -11 -24 -47 -18 -36 -47
19 -51 41 -3 42 -2 42 27 0 49 -9 61 -47 61 -19 0 -32 -4 -29 -9z m46 -56 c0
-8 -6 -15 -14 -15 -17 0 -28 14 -19 24 12 12 33 6 33 -9z"/>
<path d="M12035 6589 c-4 -6 -5 -13 -2 -16 7 -7 27 6 27 18 0 12 -17 12 -25
-2z"/>
<path d="M12087 6578 c-4 -12 -4 -33 -1 -45 5 -18 13 -23 40 -23 19 0 34 4 34
8 0 4 -12 8 -27 7 -14 0 -28 6 -30 13 -3 8 6 12 27 12 27 0 31 3 28 23 -5 33
-63 38 -71 5z m58 2 c4 -6 -5 -10 -20 -10 -15 0 -24 4 -20 10 3 6 12 10 20 10
8 0 17 -4 20 -10z"/>
<path d="M12180 6555 c0 -33 4 -45 15 -45 10 0 15 11 15 35 0 22 6 38 18 44
14 9 11 10 -15 11 -32 0 -33 -1 -33 -45z"/>
<path d="M12318 6633 c-10 -2 -18 -9 -18 -14 0 -12 17 -12 25 1 9 15 35 0 35
-21 0 -11 -7 -22 -15 -25 -8 -4 -15 -12 -15 -19 0 -7 -7 -15 -15 -19 -32 -12
-13 -26 33 -24 36 1 39 2 15 5 -18 2 -33 8 -33 14 0 5 4 9 8 9 7 0 42 52 42
63 0 9 -31 37 -38 36 -4 -1 -15 -3 -24 -6z"/>
<path d="M12428 6632 c-23 -4 -34 -65 -19 -98 9 -20 17 -25 39 -22 25 3 27 6
30 59 3 59 -6 71 -50 61z m42 -63 c0 -29 -23 -55 -40 -44 -14 9 -13 78 2 93
17 17 38 -11 38 -49z"/>
<path d="M12633 6633 c-26 -5 -36 -33 -31 -84 3 -32 6 -34 38 -34 29 0 36 4
38 23 4 30 -16 55 -40 49 -10 -3 -18 -1 -18 3 0 14 31 41 41 35 5 -4 9 -1 9 4
0 6 -3 10 -7 10 -5 -1 -18 -4 -30 -6z m27 -89 c0 -33 -33 -30 -38 4 -3 17 2
22 17 22 16 0 21 -6 21 -26z"/>
<path d="M12517 6623 c-12 -12 -7 -25 7 -20 12 5 16 -6 19 -46 l3 -52 2 63 c2
46 -1 62 -11 62 -8 0 -17 -3 -20 -7z"/>
<path d="M12350 6323 l0 -68 32 -2 c40 -3 58 12 58 47 0 33 -22 54 -50 47 -16
-4 -20 0 -20 19 0 13 -4 24 -10 24 -6 0 -10 -29 -10 -67z m70 -23 c0 -25 -4
-30 -25 -30 -21 0 -25 5 -25 30 0 25 4 30 25 30 21 0 25 -5 25 -30z"/>
<path d="M12150 6315 c0 -64 0 -65 28 -65 28 1 62 20 62 37 0 17 -35 43 -58
43 -13 0 -22 6 -22 15 0 9 9 15 25 15 16 0 25 -6 25 -15 0 -8 5 -15 10 -15 6
0 10 9 10 19 0 21 -19 31 -56 31 -23 0 -24 -3 -24 -65z m60 -25 c0 -15 -7 -20
-25 -20 -18 0 -25 5 -25 20 0 15 7 20 25 20 18 0 25 -5 25 -20z"/>
<path d="M12240 6347 c0 -1 9 -20 20 -42 25 -50 25 -60 -2 -79 l-22 -16 22 0
c17 0 28 12 47 56 14 31 25 64 25 73 -1 28 -30 -19 -30 -48 l-1 -26 -14 25
c-8 14 -14 33 -15 43 0 9 -7 17 -15 17 -8 0 -15 -1 -15 -3z"/>
<path d="M12464 6325 c-15 -23 -15 -27 0 -50 11 -17 26 -25 46 -25 17 0 30 5
30 10 0 6 -13 10 -30 10 -20 0 -30 5 -30 15 0 10 10 15 30 15 31 0 39 17 18
38 -19 19 -46 14 -64 -13z m56 -5 c0 -5 -9 -10 -20 -10 -11 0 -20 5 -20 10 0
6 9 10 20 10 11 0 20 -4 20 -10z"/>
<path d="M12570 6325 c-15 -40 3 -75 40 -75 16 0 30 5 30 10 0 6 -13 10 -30
10 -20 0 -30 5 -30 15 0 10 10 15 30 15 17 0 30 4 30 9 0 46 -54 58 -70 16z
m60 -5 c0 -5 -11 -10 -25 -10 -14 0 -25 5 -25 10 0 6 11 10 25 10 14 0 25 -4
25 -10z"/>
<path d="M12251 6254 c0 -11 3 -14 6 -6 3 7 2 16 -1 19 -3 4 -6 -2 -5 -13z"/>
<path d="M12719 6373 c-13 -15 -12 -16 9 -11 34 9 39 -16 11 -57 -13 -19 -27
-35 -31 -35 -5 0 -8 -4 -8 -10 0 -5 20 -10 45 -10 48 0 62 17 19 22 l-26 3 21
27 c26 33 27 64 2 78 -25 13 -26 13 -42 -7z"/>
<path d="M12828 6379 c-21 -12 -25 -98 -6 -117 33 -33 72 8 66 68 -4 39 -34
64 -60 49z m42 -65 c0 -36 -3 -44 -19 -44 -23 0 -35 39 -21 74 15 41 40 23 40
-30z"/>
<path d="M12914 6375 c-18 -15 -18 -15 11 -13 43 4 45 -28 5 -67 -16 -16 -30
-32 -30 -37 0 -4 20 -8 45 -8 25 0 45 5 45 10 0 6 -14 10 -31 10 l-31 0 26 31
c31 36 33 64 7 79 -25 13 -24 13 -47 -5z"/>
<path d="M13020 6370 c-23 -23 -26 -57 -8 -95 12 -27 36 -33 56 -13 7 7 12 33
12 60 0 37 -4 50 -20 58 -15 8 -24 6 -40 -10z m50 -51 c0 -31 -12 -49 -31 -49
-16 0 -19 7 -19 44 0 26 5 46 13 49 15 6 37 -20 37 -44z"/>
<path d="M11861 6128 c-12 -29 -26 -61 -31 -70 -8 -14 -6 -18 5 -18 8 0 15 9
15 20 0 15 7 20 29 20 21 0 32 -6 36 -20 3 -11 11 -20 17 -20 6 0 8 8 5 18
-16 48 -39 108 -46 115 -5 4 -18 -16 -30 -45z m38 -25 c1 -7 -6 -13 -14 -13
-17 0 -18 4 -8 39 6 23 7 23 14 5 4 -10 8 -25 8 -31z"/>
<path d="M12030 6165 c0 -8 5 -15 10 -15 6 0 10 7 10 15 0 8 -4 15 -10 15 -5
0 -10 -7 -10 -15z"/>
<path d="M12090 6160 c0 -11 -7 -20 -15 -20 -8 0 -15 -4 -15 -10 0 -5 7 -10
16 -10 14 0 16 -7 11 -40 -3 -22 -1 -40 4 -40 5 0 9 18 9 39 0 22 5 42 13 44
9 4 9 8 -2 15 -15 11 -6 36 10 27 5 -4 9 -1 9 4 0 6 -9 11 -20 11 -13 0 -20
-7 -20 -20z"/>
<path d="M12524 6164 c-18 -15 -18 -15 9 -9 41 8 45 -17 8 -64 -17 -21 -31
-42 -31 -45 0 -3 20 -6 45 -6 25 0 45 5 45 10 0 6 -14 10 -31 10 l-30 0 25 33
c31 40 32 49 8 70 -23 21 -24 21 -48 1z"/>
<path d="M12626 6161 c-23 -25 -18 -99 7 -115 28 -18 52 4 55 54 3 39 -16 80
-38 80 -4 0 -15 -9 -24 -19z m44 -57 c0 -37 -3 -44 -20 -44 -17 0 -20 7 -20
44 0 26 5 46 13 49 21 8 27 -3 27 -49z"/>
<path d="M12732 6158 c-17 -17 -15 -33 3 -18 13 11 15 5 15 -44 0 -31 3 -56 8
-56 4 0 5 29 4 65 -4 66 -9 74 -30 53z"/>
<path d="M12810 6160 c0 -5 14 -10 31 -10 17 0 29 -3 27 -7 -2 -5 -10 -21 -17
-38 -7 -16 -17 -38 -22 -47 -5 -10 -6 -18 -1 -18 10 0 32 37 42 69 4 14 11 34
15 44 6 14 1 17 -34 17 -23 0 -41 -4 -41 -10z"/>
<path d="M11950 6088 c0 -26 5 -48 10 -48 6 0 10 16 10 36 0 27 5 37 20 41 30
8 24 22 -10 21 -29 -1 -30 -3 -30 -50z"/>
<path d="M12030 6090 c0 -27 5 -50 10 -50 6 0 10 23 10 50 0 28 -4 50 -10 50
-5 0 -10 -22 -10 -50z"/>
<path d="M12142 6119 c-11 -17 -11 -27 -2 -50 21 -50 80 -34 80 21 0 50 -53
69 -78 29z m63 -29 c0 -20 -6 -26 -27 -28 -25 -3 -28 0 -28 28 0 28 3 31 28
28 21 -2 27 -8 27 -28z"/>
<path d="M12236 6123 c10 -32 38 -83 45 -83 4 0 13 17 19 38 19 58 30 61 30 9
0 -35 4 -47 15 -47 11 0 15 12 15 50 0 49 -1 50 -30 50 -22 0 -30 -5 -30 -17
-1 -10 -7 -29 -15 -43 l-14 -25 -1 25 c-1 24 -21 60 -33 60 -4 0 -4 -8 -1 -17z"/>
<path d="M12388 6115 c-16 -36 3 -75 37 -75 14 0 25 5 25 10 0 6 -11 10 -25
10 -21 0 -25 5 -25 30 0 25 4 30 25 30 14 0 25 5 25 10 0 6 -11 10 -25 10 -17
0 -29 -8 -37 -25z"/>
<path d="M11872 6040 c-13 -21 -6 -26 15 -12 7 4 9 13 5 19 -6 9 -11 6 -20 -7z"/>
<path d="M11804 5985 c-10 -8 -26 -15 -34 -15 -8 0 -21 -4 -29 -9 -12 -8 -12
-12 0 -27 13 -18 16 -17 57 23 41 42 45 58 6 28z"/>
<path d="M11852 5928 c6 -18 28 -21 28 -4 0 9 -7 16 -16 16 -9 0 -14 -5 -12
-12z"/>
<path d="M11970 5917 c0 -20 -4 -23 -30 -19 -25 3 -30 0 -36 -22 -3 -14 -3
-37 0 -51 6 -22 12 -25 41 -23 l35 2 0 68 c0 37 -2 68 -5 68 -3 0 -5 -10 -5
-23z m0 -67 c0 -25 -4 -30 -25 -30 -27 0 -41 20 -31 45 3 8 17 15 31 15 21 0
25 -5 25 -30z"/>
<path d="M11640 5866 c0 -52 3 -66 15 -66 9 0 15 9 15 25 0 16 6 25 15 25 8 0
15 -6 15 -14 0 -15 28 -42 35 -34 3 3 -3 16 -14 29 -18 22 -18 25 -3 42 23 26
4 51 -42 55 l-36 3 0 -65z m68 27 c-5 -26 -38 -29 -38 -4 0 15 6 21 21 21 14
0 19 -5 17 -17z"/>
<path d="M11760 5875 c-15 -40 3 -75 40 -75 16 0 30 5 30 10 0 6 -13 10 -30
10 -20 0 -30 5 -30 15 0 10 10 15 30 15 17 0 30 4 30 9 0 46 -54 58 -70 16z
m60 -5 c0 -5 -11 -10 -25 -10 -14 0 -25 5 -25 10 0 6 11 10 25 10 14 0 25 -4
25 -10z"/>
<path d="M11850 5850 c0 -38 4 -50 15 -50 11 0 15 12 15 50 0 38 -4 50 -15 50
-11 0 -15 -12 -15 -50z"/>
<path d="M11187 5737 c-32 -27 -34 -37 -9 -37 18 0 51 45 40 55 -2 3 -17 -5
-31 -18z"/>
<path d="M10986 5703 c-3 -3 -6 -25 -6 -47 l0 -41 -28 42 c-38 60 -52 56 -52
-17 0 -33 4 -60 10 -60 6 0 10 19 10 41 0 36 2 40 15 29 8 -7 15 -17 15 -22 0
-11 38 -53 44 -47 2 2 6 30 8 62 4 54 -1 75 -16 60z"/>
<path d="M11508 5702 c-10 -2 -18 -8 -18 -13 0 -6 7 -6 18 0 13 7 23 6 30 -1
17 -17 15 -24 -18 -58 -16 -17 -30 -35 -30 -40 0 -6 19 -9 43 -8 37 1 38 2 9
5 l-33 4 26 30 c42 51 28 93 -27 81z"/>
<path d="M11608 5702 c-22 -4 -34 -65 -19 -98 13 -30 56 -33 71 -5 12 23 13
71 2 87 -9 14 -33 21 -54 16z m42 -58 c0 -32 -10 -54 -25 -54 -18 0 -27 55
-14 88 10 26 11 26 25 8 8 -11 14 -30 14 -42z"/>
<path d="M11708 5702 c-23 -4 -34 -65 -19 -98 9 -20 17 -25 39 -22 25 3 27 6
30 59 3 59 -6 71 -50 61z m42 -63 c0 -29 -23 -55 -40 -44 -14 9 -13 78 2 93
17 17 38 -11 38 -49z"/>
<path d="M11808 5702 c-13 -2 -18 -13 -18 -39 0 -34 1 -35 30 -31 48 7 35 -33
-15 -45 -14 -3 -10 -5 11 -6 27 -1 32 3 42 35 17 57 -6 96 -50 86z m40 -35 c4
-20 -25 -34 -40 -19 -15 15 -1 44 19 40 10 -2 19 -11 21 -21z"/>
<path d="M11041 5628 l-1 -48 40 0 40 0 0 45 c0 54 -18 60 -22 8 -2 -30 -7
-38 -23 -38 -16 0 -21 9 -26 40 l-6 40 -2 -47z"/>
<path d="M11140 5625 c0 -54 18 -60 22 -7 2 30 7 38 26 40 20 3 22 -1 22 -37
0 -23 3 -41 8 -41 4 0 6 20 4 45 l-4 45 -39 0 -39 0 0 -45z"/>
<path d="M11254 5646 c-11 -44 3 -66 42 -66 19 0 34 4 34 9 0 4 -11 6 -24 4
-15 -3 -25 1 -29 11 -5 13 1 16 28 16 35 0 40 5 29 34 -4 10 -18 16 -40 16
-27 0 -35 -5 -40 -24z m56 4 c0 -5 -7 -10 -15 -10 -8 0 -15 5 -15 10 0 6 7 10
15 10 8 0 15 -4 15 -10z"/>
<path d="M11354 5658 c-4 -6 4 -20 19 -33 34 -26 34 -39 2 -33 -14 3 -25 1
-25 -3 0 -5 16 -9 36 -9 31 0 35 3 32 23 -2 12 -13 26 -25 32 -31 13 -29 23 5
28 26 4 25 4 -5 6 -17 0 -35 -4 -39 -11z"/>
<path d="M11001 5532 c-12 -13 -21 -25 -21 -27 0 -6 -66 -81 -111 -126 -42
-42 -44 -46 -20 -39 33 9 175 84 191 100 3 3 24 18 46 33 24 16 44 38 46 52 5
22 2 24 -53 27 -50 3 -60 0 -78 -20z"/>
<path d="M12315 5529 c-169 -18 -346 -45 -520 -79 -33 -7 -82 -16 -110 -20
-27 -4 -75 -12 -105 -18 -30 -6 -71 -14 -91 -17 -35 -5 -38 -9 -107 -148 -40
-79 -72 -149 -72 -155 0 -7 8 -12 18 -13 13 0 13 -2 -4 -9 -19 -7 -74 -68 -74
-81 0 -3 47 -3 83 0 4 1 8 16 8 34 2 27 2 28 6 7 6 -32 52 -79 78 -80 12 0 26
-5 33 -12 8 -8 15 -8 26 1 7 6 30 11 50 9 31 -2 36 -6 36 -26 0 -15 -7 -26
-20 -29 -22 -6 -27 -29 -7 -36 12 -5 -11 -29 -130 -129 -52 -44 -62 -58 -62
-85 -1 -18 4 -33 9 -33 6 0 10 4 10 9 0 5 10 13 23 18 12 4 43 22 70 38 39 25
47 35 47 60 0 17 5 36 12 43 15 15 69 16 100 1 18 -8 33 -6 68 10 l45 21 -77
0 -78 0 0 30 c0 23 -3 28 -16 23 -12 -4 -15 -2 -12 8 3 8 12 13 20 13 11 -1
14 7 11 34 -5 44 20 74 57 70 21 -2 46 15 120 82 52 47 109 100 127 118 19 17
36 32 38 32 2 0 18 13 34 29 17 16 66 57 110 91 68 51 81 66 81 89 0 36 46 61
107 58 23 0 56 6 75 15 18 9 44 21 58 26 29 12 31 12 -75 1z"/>
<path d="M11045 5429 c-65 -45 -123 -77 -169 -93 -10 -4 -17 -8 -15 -11 5 -4
211 16 218 21 3 3 40 135 37 133 0 0 -32 -23 -71 -50z"/>
<path d="M12647 5463 c-11 -10 -8 -133 3 -133 6 0 10 30 10 70 0 70 -1 76 -13
63z"/>
<path d="M12690 5400 c0 -40 4 -70 10 -70 6 0 10 30 10 70 0 40 -4 70 -10 70
-6 0 -10 -30 -10 -70z"/>
<path d="M12190 5450 c-10 -6 -15 -25 -15 -55 0 -30 5 -49 15 -55 19 -12 70
-13 70 -1 0 4 -11 6 -24 4 -18 -4 -29 2 -40 19 -28 43 3 87 57 79 9 -1 17 3
17 8 0 14 -60 14 -80 1z"/>
<path d="M12290 5421 c0 -6 9 -11 19 -11 11 0 23 -4 26 -10 3 -5 -3 -10 -13
-10 -25 0 -46 -25 -39 -45 4 -9 19 -14 42 -13 l36 1 -3 46 c-3 44 -5 46 -35
49 -19 2 -33 -1 -33 -7z m44 -66 c-4 -8 -12 -15 -20 -15 -8 0 -14 7 -14 15 0
8 9 15 20 15 13 0 18 -5 14 -15z"/>
<path d="M12391 5380 c1 -47 3 -50 8 -20 4 23 14 38 29 45 12 5 22 13 22 17 0
12 -28 9 -36 -3 -4 -8 -9 -7 -15 2 -5 9 -8 -7 -8 -41z"/>
<path d="M12460 5378 c0 -26 5 -48 10 -48 6 0 10 16 10 36 0 27 5 37 20 41 30
8 24 22 -10 21 -29 -1 -30 -3 -30 -50z"/>
<path d="M12539 5408 c-7 -17 -7 -32 0 -51 9 -23 16 -28 37 -25 36 4 51 29 38
65 -13 38 -59 45 -75 11z m59 -30 c-2 -25 -8 -33 -23 -33 -20 0 -31 25 -21 51
3 8 15 14 26 14 18 0 21 -5 18 -32z"/>
<path d="M12216 5404 c-3 -9 -4 -20 0 -25 9 -15 41 -10 48 7 8 20 8 20 -20 28
-15 5 -24 2 -28 -10z"/>
<path d="M11355 5370 c-27 -4 -84 -13 -125 -19 -41 -7 -89 -15 -106 -17 -23
-3 -33 -11 -42 -37 -15 -42 -15 -47 2 -47 17 0 26 -21 26 -60 0 -24 8 -31 63
-58 115 -56 107 -60 187 101 38 77 70 141 70 143 0 4 -5 4 -75 -6z"/>
<path d="M11020 5319 c-25 -4 -79 -8 -120 -9 l-75 -1 35 -16 c19 -8 46 -21 60
-28 26 -13 65 -19 112 -17 23 2 28 8 34 37 3 20 5 37 3 39 -2 1 -24 -1 -49 -5z"/>
<path d="M10819 5271 c11 -11 31 -21 44 -21 13 0 28 -5 34 -11 7 -7 13 -7 17
-1 6 10 -40 36 -88 48 l-29 7 22 -22z"/>
<path d="M10730 5220 c-8 -5 -11 -12 -7 -16 4 -4 13 -2 19 4 36 36 39 -27 3
-66 -14 -15 -25 -30 -25 -34 0 -5 19 -7 43 -7 l42 2 -35 7 c-28 5 -31 8 -17
14 9 5 17 12 17 18 0 5 7 16 15 24 19 19 19 29 -1 48 -18 18 -32 20 -54 6z"/>
<path d="M10835 5213 c-15 -15 -20 -68 -9 -97 4 -9 18 -16 34 -16 23 0 28 5
33 33 11 71 -22 117 -58 80z m45 -54 c0 -42 -13 -57 -35 -39 -18 15 -19 53 -4
81 16 30 39 5 39 -42z"/>
<path d="M10938 5223 c-15 -4 -18 -15 -18 -64 l0 -59 30 0 c24 0 33 6 41 27
20 53 -9 106 -53 96z m42 -64 c0 -42 -13 -57 -35 -39 -18 15 -19 53 -4 81 16
30 39 5 39 -42z"/>
<path d="M11026 5221 c-12 -5 -15 -10 -9 -14 6 -4 16 0 23 8 14 17 13 17 -14
6z"/>
<path d="M11068 5195 c3 -19 -3 -32 -27 -52 -17 -15 -31 -31 -31 -35 0 -5 21
-7 48 -6 36 1 39 2 15 5 -18 2 -33 6 -33 8 0 2 11 16 25 31 27 29 34 74 11 74
-9 0 -12 -8 -8 -25z"/>
<path d="M10720 5169 c0 -5 5 -7 10 -4 6 3 10 8 10 11 0 2 -4 4 -10 4 -5 0
-10 -5 -10 -11z"/>
<path d="M11020 5169 c0 -5 5 -7 10 -4 6 3 10 8 10 11 0 2 -4 4 -10 4 -5 0
-10 -5 -10 -11z"/>
<path d="M11100 5140 c0 -6 5 -10 11 -10 6 0 9 -12 7 -27 -3 -26 -7 -28 -50
-31 -45 -3 -48 -5 -54 -38 -3 -19 -3 -38 1 -42 6 -6 51 -7 140 -1 16 1 31 -4
33 -11 3 -7 22 7 48 35 24 26 42 51 39 55 -3 5 -22 14 -43 20 -20 7 -46 18
-57 24 -40 24 -75 36 -75 26z"/>
<path d="M10894 5076 c-7 -18 -7 -16 34 -134 29 -83 29 -83 38 -50 9 28 5 45
-24 113 -40 94 -40 93 -48 71z"/>
<path d="M10968 5072 c-33 -4 -33 -8 -12 -62 18 -46 26 -43 44 13 14 44 7 54
-32 49z"/>
<path d="M11132 4968 c-7 -7 -12 -18 -12 -25 0 -7 -6 -13 -12 -13 -10 0 -10
-2 0 -9 9 -5 13 -22 11 -44 -2 -20 0 -39 4 -43 4 -4 7 13 7 39 0 35 4 47 18
50 16 4 16 5 0 6 -22 1 -24 19 -3 27 16 6 21 24 7 24 -4 0 -13 -5 -20 -12z"/>
<path d="M11342 4968 c-7 -7 -12 -18 -12 -25 0 -7 -6 -13 -12 -13 -9 0 -9 -3
1 -9 10 -6 12 -21 8 -50 -3 -23 -1 -41 4 -41 5 0 9 20 9 44 0 34 4 46 18 49
16 4 16 5 0 6 -22 1 -24 19 -3 27 16 6 21 24 7 24 -4 0 -13 -5 -20 -12z"/>
<path d="M11280 4960 c0 -5 5 -10 11 -10 5 0 7 5 4 10 -3 6 -8 10 -11 10 -2 0
-4 -4 -4 -10z"/>
<path d="M11619 4960 c-8 -6 -5 -9 11 -12 35 -5 35 -22 1 -61 -41 -46 -39 -57
9 -57 22 0 40 5 40 10 0 6 -14 10 -31 10 l-32 0 27 25 c32 29 36 80 7 88 -10
2 -25 1 -32 -3z"/>
<path d="M11718 4959 c-21 -12 -25 -98 -6 -117 33 -33 72 8 66 68 -4 39 -34
64 -60 49z m40 -56 c-3 -54 -23 -67 -39 -27 -12 34 2 74 26 74 13 0 15 -10 13
-47z"/>
<path d="M11916 4954 c-19 -19 -21 -83 -3 -108 19 -26 49 -16 59 19 17 64 -21
125 -56 89z m42 -48 c4 -43 -7 -60 -31 -50 -30 11 -19 98 12 92 11 -2 17 -16
19 -42z"/>
<path d="M11012 4893 c0 -38 3 -54 5 -36 3 25 9 32 30 35 58 7 51 68 -8 68
l-29 0 2 -67z m53 32 c0 -13 -8 -21 -22 -23 -19 -3 -23 1 -23 23 0 22 4 26 23
23 14 -2 22 -10 22 -23z"/>
<path d="M11815 4947 c-12 -10 -14 -16 -7 -21 7 -4 12 -2 12 3 0 6 4 11 10 11
5 0 11 -26 13 -57 l3 -58 2 68 c2 70 -2 76 -33 54z"/>
<path d="M11208 4920 c30 -13 28 -28 -5 -32 -22 -2 -28 -8 -28 -28 0 -22 5
-25 38 -27 l38 -1 -3 46 c-3 44 -5 47 -33 49 -27 2 -28 2 -7 -7z m20 -52 c-7
-19 -38 -22 -38 -4 0 10 9 16 21 16 12 0 19 -5 17 -12z"/>
<path d="M11282 4873 c-2 -47 -6 -64 -19 -72 -17 -10 -17 -10 0 -11 24 0 29
17 24 86 l-3 59 -2 -62z"/>
<path d="M11409 4922 c35 -11 37 -30 4 -34 -22 -2 -28 -8 -28 -28 0 -22 5 -25
38 -27 l38 -1 -3 46 c-3 46 -4 47 -38 49 -28 1 -30 0 -11 -5z m29 -54 c-7 -19
-38 -22 -38 -4 0 10 9 16 21 16 12 0 19 -5 17 -12z"/>
<path d="M11491 4875 c1 -27 3 -41 6 -30 2 11 6 30 9 43 2 13 15 27 27 32 19
7 18 8 -10 7 -33 -2 -33 -2 -32 -52z"/>
<path d="M11798 4865 c-2 -19 0 -35 4 -35 4 0 8 16 8 35 0 19 -2 35 -4 35 -2
0 -6 -16 -8 -35z"/>
<path d="M11063 4862 c-17 -3 -23 -10 -24 -30 -2 -39 2 -65 11 -82 7 -12 11
-9 20 15 6 16 15 32 20 35 5 3 5 19 2 35 -6 24 -12 29 -29 27z"/>
<path d="M10971 4844 c0 -11 3 -14 6 -6 3 7 2 16 -1 19 -3 4 -6 -2 -5 -13z"/>
<path d="M11354 4806 c-3 -7 -4 -36 -2 -64 l3 -51 65 61 65 60 -40 -4 c-22 -3
-50 -1 -63 3 -16 6 -24 5 -28 -5z"/>
<path d="M10980 4796 c0 -8 4 -17 9 -21 5 -3 12 -19 16 -36 4 -17 13 -33 21
-36 8 -3 14 -16 14 -29 0 -13 5 -24 11 -24 7 0 9 9 4 23 -3 12 -10 36 -14 52
-16 58 -31 85 -46 85 -8 0 -15 -6 -15 -14z"/>
<path d="M11103 4793 c-4 -10 -13 -24 -20 -31 -7 -7 -13 -28 -13 -45 l0 -32
28 45 c39 62 45 80 26 80 -8 0 -18 -8 -21 -17z"/>
<path d="M11146 4785 c-9 -13 -16 -27 -16 -30 0 -3 -12 -24 -26 -47 -22 -34
-24 -45 -15 -65 6 -13 11 -35 11 -49 0 -14 9 -39 21 -55 11 -16 17 -34 13 -41
-5 -7 -2 -9 9 -5 9 3 18 1 20 -6 2 -8 27 -12 68 -12 58 0 64 -2 67 -22 2 -14
-4 -26 -17 -33 -12 -6 -21 -19 -21 -30 0 -36 -12 -50 -41 -50 -23 0 -29 -5
-29 -20 0 -24 42 -70 64 -70 8 0 27 -7 43 -15 15 -8 46 -22 68 -31 22 -9 54
-23 72 -32 18 -9 35 -14 38 -10 3 3 1 25 -5 49 -5 24 -13 62 -18 84 l-8 40
-67 3 c-66 3 -67 3 -67 31 0 15 9 36 21 47 l20 18 -20 8 c-50 18 -10 86 45 75
l23 -4 -19 38 c-11 20 -25 39 -31 41 -9 3 -12 36 -11 111 2 89 0 107 -13 107
-8 0 -15 -9 -15 -20 0 -17 -7 -20 -41 -20 -31 0 -42 4 -45 18 -8 28 -59 26
-78 -3z"/>
<path d="M10942 4753 c-7 -27 -16 -64 -21 -83 -4 -19 -13 -46 -18 -60 -6 -14
-15 -40 -21 -57 -10 -32 -9 -33 17 -33 22 0 33 10 61 58 19 31 38 59 42 60 13
6 9 66 -6 87 -7 11 -16 32 -20 48 -9 39 -20 33 -34 -20z"/>
<path d="M11540 4695 l0 -65 38 2 c36 1 36 1 5 5 -27 4 -33 9 -33 29 0 20 5
24 30 24 17 0 30 5 30 10 0 6 -13 10 -30 10 -20 0 -30 5 -30 15 0 10 10 15 30
15 17 0 30 5 30 10 0 6 -16 10 -35 10 l-35 0 0 -65z"/>
<path d="M11640 4720 c0 -5 11 -10 25 -10 35 0 31 -16 -6 -24 -25 -5 -30 -10
-27 -28 2 -18 10 -23 36 -24 32 -1 32 -1 32 48 0 47 -1 48 -30 48 -16 0 -30
-4 -30 -10z m50 -44 c0 -18 -15 -36 -31 -36 -18 0 -26 20 -12 33 7 8 43 10 43
3z"/>
<path d="M11737 4723 c-16 -15 -6 -41 18 -47 33 -9 32 -34 -2 -39 -26 -4 -26
-4 5 -6 26 -1 32 3 32 20 0 11 -10 29 -22 40 l-23 18 23 1 c12 0 22 5 22 10 0
11 -43 14 -53 3z"/>
<path d="M11820 4721 c0 -6 14 -11 30 -11 17 0 30 -4 30 -9 0 -5 -13 -11 -30
-14 -24 -5 -30 -12 -30 -32 0 -23 3 -25 35 -23 l36 2 -3 46 c-3 43 -5 45 -35
48 -19 2 -33 -1 -33 -7z m60 -45 c0 -18 -15 -36 -31 -36 -18 0 -26 20 -12 33
7 8 43 10 43 3z"/>
<path d="M11910 4715 c0 -9 7 -32 16 -53 15 -35 16 -36 30 -18 8 11 14 31 15
45 0 21 4 18 16 -17 17 -50 36 -50 44 -1 3 19 9 40 13 47 4 7 3 12 -3 12 -5 0
-15 -17 -22 -37 -7 -21 -13 -33 -15 -28 -1 6 -5 22 -8 38 -9 37 -21 34 -38
-10 l-15 -36 -7 36 c-7 36 -26 52 -26 22z"/>
<path d="M11015 4637 c-4 -15 -11 -27 -15 -27 -5 0 -12 -9 -15 -20 -3 -11 -12
-26 -18 -33 -7 -7 -18 -24 -26 -37 l-14 -25 28 25 c47 44 86 109 76 128 -8 14
-10 13 -16 -11z"/>
<path d="M11039 4600 c-1 -5 -2 -15 -3 -21 0 -5 -10 -18 -21 -27 -11 -9 -31
-29 -44 -44 -19 -22 -21 -28 -9 -28 9 0 18 9 21 19 4 17 14 20 57 19 28 0 54
3 58 6 3 4 1 19 -4 34 -8 21 -15 26 -34 24 -21 -4 -22 -2 -11 12 9 11 10 16 2
16 -6 0 -12 -4 -12 -10z"/>
<path d="M11396 4555 c10 -43 25 -69 33 -58 3 6 12 12 19 14 8 3 0 17 -23 39
l-36 35 7 -30z"/>
<path d="M10851 4474 c-14 -16 -19 -29 -13 -33 6 -3 12 -24 15 -46 l4 -40 1
43 c2 30 6 42 17 42 8 0 15 5 15 10 0 6 -7 10 -17 10 -14 0 -14 2 2 20 10 11
14 20 8 20 -5 0 -20 -12 -32 -26z"/>
<path d="M11061 4474 c-14 -16 -19 -29 -13 -33 6 -3 12 -24 15 -46 l4 -40 1
43 c2 30 6 42 17 42 8 0 15 5 15 10 0 6 -7 10 -15 10 -20 0 -19 10 3 26 9 7
12 14 6 14 -6 0 -21 -12 -33 -26z"/>
<path d="M10740 4426 c0 -37 4 -66 10 -66 6 0 10 11 10 24 0 18 6 26 21 28 56
8 48 70 -10 76 l-31 3 0 -65z m60 24 c0 -13 -7 -20 -19 -20 -10 0 -21 9 -24
20 -4 16 0 20 19 20 17 0 24 -6 24 -20z"/>
<path d="M11010 4479 c0 -5 5 -7 10 -4 6 3 10 8 10 11 0 2 -4 4 -10 4 -5 0
-10 -5 -10 -11z"/>
<path d="M11335 4481 c-3 -5 7 -11 22 -13 37 -4 38 -19 3 -58 -16 -18 -30 -37
-30 -42 0 -4 19 -7 43 -7 41 2 41 2 9 8 l-34 6 26 24 c18 17 26 35 26 58 0 30
-3 33 -29 33 -17 0 -32 -4 -36 -9z"/>
<path d="M11440 4471 c-32 -60 10 -133 59 -102 18 11 19 84 2 105 -18 22 -48
20 -61 -3z m50 -52 c0 -35 -4 -49 -14 -49 -26 0 -37 75 -14 98 19 19 28 3 28
-49z"/>
<path d="M11540 4471 c-15 -29 -12 -87 5 -101 8 -7 25 -10 40 -6 22 6 25 11
25 54 0 26 -5 53 -12 60 -18 18 -46 14 -58 -7z m48 -59 c-2 -26 -8 -38 -20
-40 -15 -3 -18 4 -18 46 0 31 5 52 13 55 18 6 29 -19 25 -61z"/>
<path d="M11638 4438 c-5 -69 -2 -78 32 -78 37 0 40 6 33 73 -6 54 -7 57 -33
57 -27 0 -28 -3 -32 -52z m50 20 c-3 -7 -11 -13 -18 -13 -7 0 -15 6 -17 13 -3
7 4 12 17 12 13 0 20 -5 18 -12z m2 -53 c15 -18 5 -35 -21 -35 -12 0 -19 7
-19 18 0 33 20 42 40 17z"/>
<path d="M10915 4451 c-3 -7 2 -11 14 -11 11 0 23 -4 26 -10 3 -5 -3 -10 -13
-10 -25 0 -46 -25 -39 -45 4 -9 19 -14 42 -13 l36 1 -3 46 c-3 41 -6 46 -30
49 -14 2 -29 -2 -33 -7z m39 -66 c-4 -8 -12 -15 -20 -15 -8 0 -14 7 -14 15 0
8 9 15 20 15 13 0 18 -5 14 -15z"/>
<path d="M11012 4402 c-1 -45 -6 -64 -17 -68 -19 -8 -19 -24 0 -24 19 0 27 34
22 101 l-3 54 -2 -63z"/>
<path d="M11120 4451 c0 -6 9 -11 19 -11 11 0 23 -4 26 -10 3 -5 -3 -10 -13
-10 -25 0 -46 -25 -39 -45 4 -9 19 -14 42 -13 l36 1 -3 46 c-3 44 -5 46 -35
49 -19 2 -33 -1 -33 -7z m44 -66 c-4 -8 -12 -15 -20 -15 -8 0 -14 7 -14 15 0
8 9 15 20 15 13 0 18 -5 14 -15z"/>
<path d="M11221 4410 c1 -47 3 -50 8 -20 4 23 14 38 29 45 12 5 22 13 22 17 0
12 -28 9 -36 -3 -4 -8 -9 -7 -15 2 -5 9 -8 -7 -8 -41z"/>
<path d="M10904 4325 c24 -18 46 -19 46 -2 0 7 -14 13 -33 14 -30 2 -31 1 -13
-12z"/>
<path d="M11040 4331 c0 -6 16 -13 37 -17 20 -4 48 -13 62 -20 30 -16 31 -16
24 16 -4 23 -9 26 -64 28 -35 2 -59 -1 -59 -7z"/>
<path d="M11472 4332 c-11 -7 -11 -20 2 -69 9 -34 16 -73 16 -87 0 -22 9 -30
68 -56 37 -17 75 -35 84 -40 10 -6 20 -10 23 -10 10 0 5 30 -12 67 -9 21 -25
58 -36 83 -47 111 -50 115 -92 118 -22 1 -46 -2 -53 -6z"/>
<path d="M11078 4290 c21 -18 23 -27 21 -89 -3 -64 -1 -73 25 -106 26 -32 65
-89 103 -150 7 -11 17 -30 22 -42 14 -29 31 -38 31 -15 0 10 -6 38 -14 63 -7
24 -21 73 -31 109 -10 36 -23 85 -31 110 -7 25 -16 57 -19 72 -4 20 -13 29
-33 33 -15 4 -43 13 -62 21 l-35 14 23 -20z"/>
<path d="M10704 4268 c-5 -7 0 -9 14 -6 12 4 26 0 33 -8 12 -15 5 -28 -33 -67
-28 -28 -22 -37 25 -36 41 2 41 2 9 8 l-34 6 26 24 c18 17 26 35 26 58 0 30
-3 33 -29 33 -17 0 -33 -5 -37 -12z"/>
<path d="M10807 4273 c-4 -3 -7 -30 -7 -59 0 -50 2 -54 27 -60 19 -5 30 -2 40
11 16 22 17 69 3 96 -10 18 -50 26 -63 12z m51 -61 c-3 -53 -23 -66 -38 -26
-14 35 4 86 26 77 11 -4 14 -18 12 -51z"/>
<path d="M10910 4260 c-16 -30 -8 -91 13 -104 26 -17 51 4 55 47 4 44 -12 77
-38 77 -11 0 -24 -9 -30 -20z m48 -58 c-2 -25 -8 -37 -18 -37 -20 0 -27 84 -8
96 18 11 30 -14 26 -59z"/>
<path d="M10997 4274 c-13 -13 4 -24 22 -14 10 5 21 6 25 3 13 -13 5 -34 -16
-42 -21 -8 -21 -8 6 -15 34 -8 32 -37 -4 -48 -23 -6 -23 -7 5 -5 30 2 30 2 30
62 0 60 0 60 -30 63 -17 2 -34 0 -38 -4z"/>
<path d="M11220 4240 c0 -22 138 -423 172 -500 11 -25 23 -54 28 -65 52 -126
124 -230 166 -241 38 -10 28 -24 -16 -24 -22 0 -40 -1 -40 -3 0 -2 9 -22 20
-45 24 -50 60 -59 60 -16 0 22 2 24 15 11 9 -9 15 -41 18 -88 l3 -74 2 78 c1
43 6 77 12 77 6 0 10 -12 10 -27 0 -21 3 -24 12 -15 19 19 62 14 81 -8 19 -23
24 -105 6 -116 -6 -3 -32 -6 -58 -6 l-48 0 7 -40 c9 -49 10 -49 67 -59 27 -4
63 -11 81 -15 l32 -6 0 60 c0 55 -2 61 -22 64 -35 5 -35 44 -2 79 l28 29 -26
0 c-26 0 -26 1 -12 30 9 17 22 30 29 30 8 0 18 18 23 43 l10 42 1 -41 c1 -32
6 -43 19 -46 17 -5 18 -1 11 31 -4 20 -12 50 -18 66 -6 17 -23 68 -38 115 -24
71 -32 85 -53 90 -24 6 -25 10 -31 100 -5 67 -14 115 -34 165 -14 39 -29 79
-32 90 -7 25 -33 55 -47 55 -6 0 -42 16 -80 35 -39 19 -71 33 -72 32 -1 -1 1
-22 6 -47 9 -45 24 -139 55 -325 9 -55 23 -136 32 -181 8 -44 13 -93 11 -110
-3 -20 -7 -6 -16 46 -7 41 -19 111 -27 155 -7 44 -21 125 -30 180 -9 55 -25
142 -34 194 -20 106 -9 96 -173 165 -38 16 -89 39 -100 44 -5 2 -8 -1 -8 -8z"/>
<path d="M10677 4123 c-4 -3 -7 -20 -7 -36 0 -22 4 -28 16 -23 9 3 18 6 20 6
2 0 4 14 4 30 0 28 -17 40 -33 23z"/>
<path d="M10727 4123 c-4 -3 -7 -17 -7 -29 0 -32 30 -46 68 -32 24 9 34 9 53
-4 23 -15 26 -14 68 9 2 1 -2 16 -8 32 -12 29 -14 29 -90 30 -43 0 -81 -2 -84
-6z"/>
<path d="M10918 4101 c3 -14 9 -32 15 -39 6 -7 13 -32 17 -55 4 -23 18 -78 30
-122 12 -44 26 -98 30 -120 4 -22 12 -58 18 -80 10 -38 23 -92 58 -245 25
-107 47 -180 55 -180 4 0 30 11 58 26 33 16 51 31 51 43 0 22 30 32 54 19 14
-8 16 -6 10 19 -4 15 -10 33 -13 38 -4 6 -17 37 -30 70 -12 33 -27 69 -31 80
-5 11 -19 45 -31 75 -11 30 -27 69 -34 85 -8 17 -22 50 -33 75 -38 90 -55 126
-78 173 -13 27 -24 55 -24 62 0 7 -4 15 -8 17 -4 2 -17 21 -28 43 -18 35 -26
40 -56 41 -32 1 -34 -1 -30 -25z"/>
<path d="M11046 4115 c4 -8 10 -15 15 -15 5 0 9 -5 9 -10 0 -12 41 -73 53 -78
4 -2 7 -8 7 -13 0 -6 20 -41 45 -79 25 -38 45 -74 45 -79 0 -6 4 -11 9 -11 5
0 14 -13 21 -30 7 -16 16 -30 21 -30 5 0 9 -5 9 -10 0 -6 10 -25 22 -43 13
-18 24 -34 25 -36 2 -2 5 -2 8 1 7 6 -25 99 -40 118 -7 8 -16 25 -19 38 -4 12
-12 22 -17 22 -5 0 -9 5 -9 11 0 12 -77 132 -133 207 -23 30 -47 52 -58 52
-12 0 -16 -5 -13 -15z"/>
<path d="M11230 4125 c0 -5 5 -17 10 -25 5 -8 10 -10 10 -5 0 6 -5 17 -10 25
-5 8 -10 11 -10 5z"/>
<path d="M11038 4055 c17 -33 43 -87 57 -120 15 -33 34 -76 42 -95 29 -65 50
-115 68 -160 10 -25 23 -58 30 -75 7 -16 21 -50 30 -75 17 -44 26 -65 59 -143
14 -33 18 -36 36 -27 11 6 20 15 20 21 0 26 -335 702 -357 720 -8 7 -1 -14 15
-46z"/>
<path d="M11250 4057 c0 -10 5 -27 10 -38 6 -10 14 -38 19 -61 20 -98 44 -170
76 -230 19 -35 46 -87 60 -115 23 -46 45 -75 45 -59 0 3 -13 32 -29 63 -49 98
-131 309 -150 389 -5 17 -13 39 -19 50 -11 18 -11 18 -12 1z"/>
<path d="M10575 4029 c-10 -16 4 -24 17 -11 39 39 37 -23 -3 -71 l-30 -37 48
2 c37 1 40 2 15 5 l-33 4 31 39 c26 33 29 43 20 60 -11 21 -54 28 -65 9z"/>
<path d="M10674 4006 c-9 -51 7 -91 37 -91 30 0 45 37 35 88 -6 33 -10 37 -36
37 -25 0 -30 -5 -36 -34z m62 -12 c7 -28 -9 -74 -26 -74 -18 0 -32 52 -21 77
14 31 39 29 47 -3z"/>
<path d="M10777 4033 c-4 -3 -7 -30 -7 -59 0 -50 2 -54 27 -60 19 -5 30 -2 40
11 16 22 17 69 3 96 -10 18 -50 26 -63 12z m51 -61 c-3 -53 -23 -66 -38 -26
-14 35 4 86 26 77 11 -4 14 -18 12 -51z"/>
<path d="M10886 4024 c-8 -22 -8 -26 4 -19 6 4 10 -13 10 -44 0 -28 5 -51 10
-51 6 0 10 28 10 65 0 49 -3 65 -14 65 -8 0 -17 -7 -20 -16z"/>
<path d="M11100 3996 c0 -4 11 -23 23 -44 23 -35 59 -109 189 -382 89 -187 90
-190 101 -190 5 0 6 10 3 23 -4 12 -14 45 -22 72 -8 28 -19 70 -25 95 -5 25
-14 47 -19 48 -6 2 -10 10 -10 18 0 8 -4 14 -9 14 -5 0 -14 14 -21 30 -7 17
-16 30 -21 30 -5 0 -9 5 -9 10 0 12 -41 73 -52 78 -5 2 -8 8 -8 13 0 6 -20 41
-45 79 -25 38 -45 72 -45 75 0 4 -7 13 -15 21 -8 9 -15 13 -15 10z"/>
<path d="M10656 3798 c-3 -50 -5 -123 -5 -162 l2 -71 13 95 c15 112 18 230 5
230 -4 0 -11 -41 -15 -92z"/>
<path d="M11280 3851 c0 -6 4 -13 10 -16 6 -3 7 1 4 9 -7 18 -14 21 -14 7z"/>
<path d="M12123 3750 c-1 -41 1 -66 4 -55 2 11 6 30 9 43 3 14 12 22 24 22 17
0 20 -7 20 -40 0 -22 5 -40 11 -40 6 0 9 17 7 43 -3 39 -5 42 -35 45 -26 3
-33 8 -36 30 -2 15 -4 -7 -4 -48z"/>
<path d="M11796 3803 c-3 -3 -6 -33 -6 -65 0 -41 4 -58 13 -58 9 0 12 10 9 30
-4 29 -3 30 32 30 33 0 36 -2 36 -30 0 -16 4 -30 8 -30 10 0 9 116 -1 126 -4
4 -7 -7 -7 -24 0 -29 -3 -32 -30 -32 -25 0 -30 4 -30 24 0 26 -12 40 -24 29z"/>
<path d="M11953 3763 c30 -5 37 -23 8 -23 -24 0 -45 -25 -37 -45 3 -9 18 -15
41 -15 35 0 35 0 35 45 l0 45 -37 -1 c-31 -2 -33 -3 -10 -6z m25 -55 c-7 -19
-38 -22 -38 -4 0 10 9 16 21 16 12 0 19 -5 17 -12z"/>
<path d="M12030 3725 c0 -44 1 -45 33 -45 l32 0 -25 13 c-14 7 -25 21 -25 32
0 11 11 25 25 32 l25 13 -32 0 c-32 0 -33 -1 -33 -45z"/>
<path d="M12229 3749 c-18 -35 3 -69 43 -68 l33 1 -29 7 c-41 9 -46 31 -7 31
26 0 31 4 31 25 0 21 -5 25 -30 25 -20 0 -33 -7 -41 -21z m56 1 c4 -6 -5 -10
-20 -10 -15 0 -24 4 -20 10 3 6 12 10 20 10 8 0 17 -4 20 -10z"/>
<path d="M12330 3725 c0 -54 18 -60 22 -8 2 27 8 39 21 41 14 3 17 -4 17 -37
0 -51 18 -54 22 -4 2 27 8 39 21 41 14 3 17 -4 17 -37 0 -23 5 -41 11 -41 6 0
9 17 7 43 l-3 42 -67 3 -68 2 0 -45z"/>
<path d="M12070 3719 c0 -5 5 -7 10 -4 6 3 10 8 10 11 0 2 -4 4 -10 4 -5 0
-10 -5 -10 -11z"/>
<path d="M11359 3663 c19 -54 49 -103 63 -103 5 0 0 16 -12 36 -13 19 -31 53
-41 75 -26 52 -29 49 -10 -8z"/>
<path d="M11384 3565 c12 -30 37 -117 43 -146 5 -25 7 -26 36 -15 18 6 33 11
35 12 8 4 -19 53 -43 76 -16 16 -24 32 -19 39 4 7 3 9 -4 5 -6 -3 -20 6 -33
21 -16 20 -20 22 -15 8z"/>
<path d="M11460 3535 c0 -13 34 -65 42 -65 10 0 -18 56 -32 65 -5 3 -10 3 -10
0z"/>
<path d="M10642 3460 c0 -19 2 -27 5 -17 2 9 2 25 0 35 -3 9 -5 1 -5 -18z"/>
<path d="M11512 3435 c9 -10 21 -16 28 -13 7 2 -1 10 -16 17 -27 12 -28 11
-12 -4z"/>
<path d="M11468 3388 c-30 -11 -33 -19 -18 -49 8 -14 21 -19 56 -19 25 0 44 3
42 8 -3 4 -11 22 -18 40 -15 34 -20 36 -62 20z"/>
<path d="M11410 3361 c0 -6 5 -13 10 -16 6 -3 10 1 10 9 0 9 -4 16 -10 16 -5
0 -10 -4 -10 -9z"/>
<path d="M11370 3350 c-37 -9 -33 -36 5 -32 36 5 34 3 26 23 -4 11 -14 13 -31
9z"/>
<path d="M11282 3273 l-2 -73 35 0 c19 0 35 5 35 10 0 6 -13 10 -30 10 -29 0
-29 1 -33 63 l-3 62 -2 -72z"/>
<path d="M11843 3333 c-23 -8 -13 -20 12 -15 21 4 25 1 25 -20 0 -14 -12 -34
-30 -48 -42 -36 -38 -50 15 -50 25 0 45 5 45 10 0 6 -14 10 -31 10 l-31 0 27
31 c14 18 25 41 23 52 -3 21 -34 37 -55 30z"/>
<path d="M11946 3324 c-19 -19 -21 -83 -3 -108 19 -26 49 -16 59 19 17 64 -21
125 -56 89z m42 -48 c4 -43 -7 -60 -31 -50 -17 6 -25 73 -10 88 18 18 38 -1
41 -38z"/>
<path d="M12143 3333 c-23 -9 -14 -20 12 -15 21 4 25 1 25 -20 0 -14 -12 -34
-30 -48 -42 -36 -38 -50 15 -50 25 0 45 5 45 10 0 6 -14 10 -31 10 l-31 0 26
31 c31 36 33 64 7 79 -11 5 -21 10 -23 9 -2 0 -9 -3 -15 -6z"/>
<path d="M11317 3323 c-4 -3 -7 -24 -7 -45 0 -26 4 -38 14 -38 20 0 28 32 17
64 -11 28 -14 30 -24 19z"/>
<path d="M12048 3323 c-10 -2 -18 -11 -18 -20 0 -13 3 -13 15 -3 13 11 15 5
15 -44 0 -31 5 -56 10 -56 6 0 10 28 10 65 0 36 -3 64 -7 64 -5 -1 -16 -3 -25
-6z"/>
<path d="M11394 3292 c41 -10 46 -32 7 -32 -28 0 -31 -3 -31 -30 0 -29 2 -30
35 -28 l36 2 -3 46 c-3 44 -4 45 -38 47 -33 1 -33 1 -6 -5z m34 -54 c-5 -15
-48 -24 -48 -10 0 14 12 22 33 22 10 0 17 -5 15 -12z"/>
<path d="M11470 3250 c0 -27 5 -50 10 -50 6 0 10 21 10 46 0 38 3 45 18 42 12
-2 18 -15 20 -46 2 -23 7 -42 12 -42 5 0 10 19 12 42 2 31 8 44 21 46 14 3 17
-4 17 -42 0 -26 5 -46 11 -46 6 0 9 19 7 48 l-3 47 -67 3 -68 2 0 -50z"/>
<path d="M11709 3292 c35 -11 37 -30 4 -34 -22 -2 -28 -8 -28 -28 0 -22 5 -25
38 -27 l38 -1 -3 46 c-3 46 -4 47 -38 49 -28 1 -30 0 -11 -5z m29 -54 c-7 -19
-38 -22 -38 -4 0 10 9 16 21 16 12 0 19 -5 17 -12z"/>
<path d="M12100 3267 l0 -30 25 23 c14 13 25 24 25 26 0 1 -11 4 -25 6 -22 5
-25 2 -25 -25z"/>
<path d="M11183 3263 c-48 -23 -52 -28 -46 -52 8 -34 19 -41 73 -41 25 0 74
-7 110 -15 82 -18 80 -18 80 3 1 15 2 15 13 2 7 -9 28 -21 48 -27 36 -10 37
-10 29 16 -7 28 0 27 -172 30 l-68 1 0 55 c0 30 -3 55 -7 54 -5 0 -32 -12 -60
-26z"/>
<path d="M11500 3185 c0 -7 33 -65 38 -69 4 -2 33 -7 65 -10 l57 -7 -12 28
c-19 46 -30 53 -91 56 -31 2 -57 3 -57 2z"/>
<path d="M11898 3182 c-27 -3 -28 -5 -28 -68 0 -55 3 -64 18 -64 10 0 42 -6
72 -14 30 -8 56 -13 58 -12 1 2 -7 35 -20 74 -23 77 -41 91 -100 84z"/>
<path d="M10970 3154 c19 -22 49 -36 61 -29 5 4 -6 15 -25 26 -44 23 -53 24
-36 3z"/>
<path d="M11080 3148 c25 -11 51 -25 57 -30 10 -8 10 -4 2 21 -10 29 -14 31
-57 31 l-47 -1 45 -21z"/>
<path d="M11150 3161 c1 -15 17 -26 40 -26 19 0 26 -6 28 -25 2 -14 6 -32 9
-40 3 -8 5 -19 4 -23 -1 -5 3 -5 10 -2 10 7 120 -60 127 -77 2 -5 10 -8 17 -8
7 0 15 -3 17 -7 4 -10 65 -53 73 -53 4 0 13 -7 22 -15 28 -28 26 -7 -4 57 -17
35 -42 90 -55 123 -24 58 -26 60 -69 67 -187 30 -219 34 -219 29z"/>
<path d="M11431 3114 c6 -11 28 -59 45 -99 54 -125 81 -173 102 -183 21 -9 23
-9 17 6 -4 9 -11 31 -16 47 -5 17 -13 39 -17 50 -17 38 -34 90 -44 133 -6 28
-15 42 -26 42 -9 0 -28 3 -41 7 -13 3 -22 2 -20 -3z"/>
<path d="M10939 3086 c-12 -27 -5 -91 12 -102 6 -3 21 -3 35 0 21 6 24 12 24
50 0 60 -8 76 -36 76 -16 0 -28 -8 -35 -24z m61 -41 c0 -28 -24 -60 -38 -51
-16 10 -15 79 0 94 10 10 15 9 25 -5 7 -9 13 -26 13 -38z"/>
<path d="M11034 3076 c-9 -51 7 -91 37 -91 30 0 45 37 35 88 -6 33 -10 37 -36
37 -25 0 -30 -5 -36 -34z m62 -12 c7 -28 -9 -74 -26 -74 -20 0 -34 48 -22 75
15 32 40 32 48 -1z"/>
<path d="M11163 3080 c-9 -16 -21 -30 -25 -30 -4 0 -8 -9 -8 -20 0 -16 7 -20
30 -20 22 0 30 -5 31 -17 0 -14 2 -15 6 -3 3 8 11 18 17 22 8 5 7 8 -1 8 -9 0
-13 16 -13 45 0 52 -12 57 -37 15z m27 -30 c0 -25 -4 -30 -25 -30 -24 0 -24 0
-7 30 22 38 32 38 32 0z"/>
<path d="M11520 3098 c0 -4 6 -22 14 -40 17 -42 35 -94 46 -133 5 -16 14 -45
22 -63 12 -31 11 -35 -7 -48 -19 -14 -18 -16 14 -79 19 -36 31 -68 28 -72 -4
-3 -12 7 -19 23 -7 16 -15 31 -19 34 -3 3 -16 28 -30 55 -13 28 -30 57 -39 65
-21 20 -78 60 -85 60 -3 0 -11 5 -18 10 -22 18 -101 75 -132 94 -16 11 22 -33
85 -96 118 -119 239 -249 253 -274 4 -8 13 -14 19 -14 7 0 6 6 -2 15 -7 9 -9
19 -5 23 4 4 10 1 12 -6 10 -27 31 -38 67 -34 30 3 36 8 31 21 -4 9 -11 34
-17 57 -9 33 -19 44 -55 62 -23 11 -43 17 -43 11 0 -5 14 -38 31 -75 17 -36
29 -67 26 -70 -7 -7 -21 16 -41 66 -10 25 -27 61 -37 81 -22 42 -14 57 15 31
12 -10 38 -26 59 -35 l38 -17 -6 22 c-4 13 -25 46 -46 75 -22 29 -39 54 -39
57 0 3 -13 25 -30 49 -16 25 -30 50 -30 56 0 6 -4 11 -9 11 -5 0 -13 10 -17
23 -7 23 -34 66 -34 55z"/>
<path d="M11550 3087 c0 -9 7 -22 15 -31 8 -8 15 -18 15 -23 0 -4 20 -39 45
-76 25 -38 45 -72 45 -77 0 -4 7 -10 15 -14 19 -7 19 13 0 84 -8 30 -15 71
-15 91 0 34 -2 37 -37 42 -21 3 -48 9 -60 13 -17 5 -23 2 -23 -9z"/>
<path d="M11700 3063 c0 -12 140 -293 146 -293 2 0 4 62 4 139 l0 138 -52 6
c-29 4 -63 9 -75 13 -13 3 -23 2 -23 -3z"/>
<path d="M11684 3036 c3 -10 11 -49 16 -85 18 -124 31 -152 90 -193 29 -21 55
-37 56 -35 4 3 -153 318 -162 326 -4 3 -4 -3 0 -13z"/>
<path d="M11240 2992 c0 -9 118 -139 235 -259 40 -41 82 -74 98 -77 l27 -6
-22 26 c-54 63 -178 194 -243 256 -64 62 -95 81 -95 60z"/>
<path d="M11113 2966 c-26 -12 -25 -21 18 -114 16 -34 29 -66 29 -71 0 -5 6
-22 14 -38 17 -36 38 -83 66 -153 42 -102 91 -202 97 -196 3 3 -1 23 -9 43
-22 55 -62 188 -93 313 -9 36 -23 88 -31 116 -8 28 -14 60 -14 72 0 13 -6 22
-15 22 -8 0 -15 5 -15 10 0 12 -18 11 -47 -4z"/>
<path d="M12472 2885 c-7 -8 -9 -15 -4 -15 5 0 15 7 22 15 16 19 -1 19 -18 0z"/>
<path d="M12160 2810 l0 -60 38 0 c45 0 72 23 72 62 0 34 -30 58 -73 58 l-37
0 0 -60z m81 24 c12 -33 -11 -74 -41 -74 -17 0 -20 7 -20 50 0 47 2 50 25 50
18 0 28 -7 36 -26z"/>
<path d="M12738 2842 c-26 -3 -28 -7 -28 -48 0 -24 5 -44 10 -44 6 0 10 13 10
29 0 19 8 35 22 45 26 18 23 23 -14 18z"/>
<path d="M12315 2833 c30 -7 43 -23 19 -23 -25 0 -44 -18 -44 -42 0 -14 8 -18
35 -18 35 0 35 0 35 45 0 44 0 45 -32 44 -22 -1 -26 -3 -13 -6z m29 -58 c-6
-16 -44 -21 -44 -7 0 14 12 22 31 22 12 0 16 -5 13 -15z"/>
<path d="M12390 2795 c0 -25 5 -45 10 -45 6 0 10 11 10 24 0 35 10 56 26 56
10 0 14 -12 14 -40 0 -22 5 -40 10 -40 6 0 10 11 10 24 0 35 10 56 26 56 10 0
14 -12 14 -40 0 -29 4 -40 15 -40 16 0 19 28 9 68 -6 20 -12 22 -75 22 l-69 0
0 -45z"/>
<path d="M12813 2833 c35 -6 34 -16 -3 -30 -20 -8 -30 -18 -30 -32 0 -18 6
-21 40 -21 l40 0 0 45 0 45 -37 -1 c-31 -2 -33 -3 -10 -6z m27 -58 c0 -8 -9
-15 -20 -15 -20 0 -26 11 -13 23 12 13 33 7 33 -8z"/>
<path d="M11736 2766 c3 -7 17 -19 31 -25 l26 -12 -24 25 c-26 28 -41 34 -33
12z"/>
<path d="M11756 2691 c11 -68 13 -71 50 -71 31 0 34 3 34 29 0 16 2 36 6 44 4
10 -8 17 -46 24 l-50 10 6 -36z"/>
<path d="M11517 2609 c-5 -20 2 -30 47 -62 26 -19 11 -40 -25 -35 -16 3 -29 1
-29 -4 0 -11 51 -10 69 1 22 14 6 58 -24 65 -33 8 -33 36 -1 36 14 0 28 5 31
10 4 6 -8 10 -28 10 -27 0 -36 -5 -40 -21z"/>
<path d="M12150 2615 c0 -12 4 -13 19 -6 10 6 21 7 25 4 10 -10 7 -43 -4 -43
-5 0 -10 -7 -10 -15 0 -8 -4 -15 -10 -15 -5 0 -14 -9 -20 -20 -10 -19 -8 -20
37 -19 43 1 44 2 15 8 l-32 6 25 35 c32 46 25 80 -16 80 -19 0 -29 -5 -29 -15z"/>
<path d="M12251 2611 c-6 -11 -11 -36 -11 -55 0 -62 72 -76 85 -16 13 61 -48
120 -74 71z m49 -52 c0 -35 -4 -49 -14 -49 -26 0 -37 75 -14 98 19 19 28 3 28
-49z"/>
<path d="M12362 2618 c-16 -16 -15 -29 2 -22 12 4 16 -6 19 -48 3 -51 3 -50 5
15 2 67 -3 78 -26 55z"/>
<path d="M12450 2601 c0 -23 6 -30 26 -35 37 -10 30 -51 -8 -51 -14 1 -24 -3
-22 -7 8 -12 49 -9 62 4 22 22 14 49 -18 61 -36 14 -40 37 -5 37 14 0 25 5 25
10 0 6 -13 10 -30 10 -26 0 -30 -3 -30 -29z"/>
<path d="M11622 2588 c-7 -7 -12 -27 -12 -45 0 -26 5 -34 24 -39 34 -8 66 12
66 41 0 44 -50 71 -78 43z m53 -19 c12 -19 -4 -61 -23 -57 -30 6 -28 68 2 68
8 0 18 -5 21 -11z"/>
<path d="M11725 2548 c0 -27 3 -48 8 -48 4 0 7 15 7 34 0 26 5 36 20 41 29 9
24 25 -7 22 -26 -2 -28 -5 -28 -49z"/>
<path d="M11802 2588 c-7 -7 -12 -26 -12 -44 0 -26 5 -33 25 -38 35 -9 65 9
65 39 0 44 -50 71 -78 43z m53 -19 c12 -19 -4 -61 -23 -57 -30 6 -28 68 2 68
8 0 18 -5 21 -11z"/>
<path d="M11940 2532 c0 -11 22 -32 32 -32 5 0 4 9 -2 20 -11 20 -30 28 -30
12z"/>
<path d="M11782 2460 c7 -11 16 -16 21 -11 12 12 0 31 -19 31 -12 0 -12 -3 -2
-20z"/>
<path d="M12174 2451 c37 -38 46 -39 37 -3 -6 20 -14 28 -37 30 l-29 4 29 -31z"/>
<path d="M11790 2396 c0 -9 7 -16 16 -16 9 0 14 5 12 12 -6 18 -28 21 -28 4z"/>
<path d="M11883 2330 c0 -41 2 -58 4 -37 2 20 2 54 0 75 -2 20 -4 3 -4 -38z"/>
<path d="M11522 2328 l-2 -68 38 2 c36 1 36 1 5 5 -32 4 -32 5 -36 66 l-3 62
-2 -67z"/>
<path d="M12169 2366 c-12 -27 -5 -91 12 -102 6 -3 21 -3 35 0 23 6 25 10 22
64 -3 54 -5 57 -30 60 -22 3 -30 -2 -39 -22z m61 -41 c0 -28 -24 -60 -38 -51
-16 10 -15 79 0 94 10 10 15 9 25 -5 7 -9 13 -26 13 -38z"/>
<path d="M12288 2376 c-22 -16 -23 -27 -3 -20 12 5 15 -4 15 -45 0 -28 5 -51
10 -51 6 0 10 28 10 65 0 68 -3 73 -32 51z"/>
<path d="M12392 2360 c-9 -16 -20 -30 -24 -30 -5 0 -8 -9 -8 -20 0 -16 7 -20
31 -20 24 0 30 -4 25 -15 -3 -8 -1 -15 4 -15 6 0 10 6 10 14 0 8 6 17 13 19
10 4 10 6 0 6 -9 1 -13 17 -13 46 0 52 -14 58 -38 15z m28 -30 c0 -25 -4 -30
-25 -30 -24 0 -24 0 -7 30 22 38 32 38 32 0z"/>
<path d="M11340 2371 c0 -6 4 -13 10 -16 6 -3 7 1 4 9 -7 18 -14 21 -14 7z"/>
<path d="M11610 2346 c0 -9 8 -12 25 -8 15 2 25 0 25 -7 0 -6 -8 -11 -19 -11
-24 0 -45 -25 -37 -45 4 -10 17 -14 41 -13 30 3 35 7 35 28 0 52 -11 70 -41
70 -18 0 -29 -5 -29 -14z m50 -55 c0 -6 -5 -13 -10 -16 -15 -9 -43 3 -35 15 8
13 45 13 45 1z"/>
<path d="M11700 2308 c0 -36 4 -48 15 -48 11 0 15 11 15 41 0 33 3 40 18 37
12 -2 18 -14 20 -41 4 -49 22 -48 22 2 0 46 -14 60 -58 59 -32 -1 -32 -2 -32
-50z"/>
<path d="M11790 2351 c0 -5 9 -11 20 -14 15 -4 20 -14 20 -41 0 -20 5 -36 10
-36 11 0 14 59 4 84 -6 17 -54 23 -54 7z"/>
<path d="M11925 2350 c-7 -11 0 -13 28 -11 28 3 20 -14 -13 -26 -55 -21 -33
-50 38 -51 18 -1 22 5 22 29 0 17 -5 39 -10 50 -11 20 -54 26 -65 9z m45 -65
c0 -8 -6 -15 -14 -15 -17 0 -28 14 -19 24 12 12 33 6 33 -9z"/>
<path d="M11714 2134 c-18 -15 -18 -15 9 -9 41 8 45 -17 8 -64 -17 -21 -31
-42 -31 -45 0 -10 78 -7 85 4 4 6 -7 10 -25 10 l-31 0 25 33 c31 40 32 49 8
70 -23 21 -24 21 -48 1z"/>
<path d="M11816 2131 c-23 -25 -18 -99 7 -115 28 -18 52 4 55 54 3 39 -16 80
-38 80 -4 0 -15 -9 -24 -19z m44 -57 c0 -37 -3 -44 -20 -44 -17 0 -20 7 -20
44 0 26 5 46 13 49 21 8 27 -3 27 -49z"/>
<path d="M11080 2074 l0 -65 36 3 c65 5 73 69 10 76 -34 4 -35 32 -1 32 16 0
25 -6 25 -15 0 -8 5 -15 10 -15 11 0 13 11 4 34 -4 11 -19 16 -45 16 l-39 0 0
-66z m75 -24 c0 -9 -11 -16 -27 -18 -23 -3 -28 1 -28 18 0 17 5 21 28 18 16
-2 27 -9 27 -18z"/>
<path d="M11922 2128 c-17 -17 -15 -33 3 -18 13 11 15 5 15 -44 0 -31 3 -56 8
-56 4 0 5 29 4 65 -4 66 -9 74 -30 53z"/>
<path d="M12016 2125 c-18 -13 -15 -20 7 -16 4 0 7 -21 7 -49 0 -33 4 -50 13
-50 9 0 11 18 9 65 -2 36 -7 65 -10 65 -4 0 -16 -7 -26 -15z"/>
<path d="M11202 2098 c-7 -7 -12 -24 -12 -40 0 -29 23 -48 59 -48 31 0 26 18
-6 22 -42 5 -41 28 1 28 23 0 36 5 36 13 0 19 -21 37 -45 37 -12 0 -26 -5 -33
-12z m53 -18 c4 -6 -5 -10 -20 -10 -15 0 -24 4 -20 10 3 6 12 10 20 10 8 0 17
-4 20 -10z"/>
<path d="M11301 2060 c1 -55 1 -55 9 -15 4 22 4 47 -1 55 -5 10 -8 -5 -8 -40z"/>
<path d="M11325 2100 c-3 -5 3 -10 14 -10 12 0 21 5 21 10 0 6 -6 10 -14 10
-8 0 -18 -4 -21 -10z"/>
<path d="M11382 2098 c-17 -17 -15 -63 3 -78 8 -7 24 -10 35 -7 11 3 20 2 20
-3 0 -16 -27 -29 -48 -23 -13 3 -22 1 -22 -6 0 -6 16 -11 35 -11 42 0 55 20
55 88 0 48 0 49 -33 50 -19 1 -39 -4 -45 -10z m50 -25 c7 -27 -2 -43 -23 -43
-14 0 -19 7 -19 30 0 23 5 30 19 30 10 0 21 -8 23 -17z"/>
<path d="M11486 2094 c-18 -46 1 -84 41 -84 32 0 29 18 -4 22 -42 5 -41 28 1
28 20 0 36 4 36 9 0 26 -15 41 -40 41 -16 0 -30 -7 -34 -16z m59 -14 c4 -6 -7
-10 -25 -10 -18 0 -29 4 -25 10 3 6 15 10 25 10 10 0 22 -4 25 -10z"/>
<path d="M11580 2074 c0 -18 3 -39 6 -48 11 -29 24 -16 24 24 0 29 4 40 15 40
8 0 15 4 15 9 0 5 -13 9 -30 9 -27 -1 -30 -4 -30 -34z"/>
<path d="M11980 2051 c0 -30 4 -41 16 -41 11 0 14 9 12 37 -4 52 -28 56 -28 4z"/>
<path d="M12080 2051 c0 -23 2 -41 4 -41 8 0 12 71 4 76 -4 3 -8 -13 -8 -35z"/>
<path d="M12430 1960 c6 -11 13 -20 16 -20 2 0 0 9 -6 20 -6 11 -13 20 -16 20
-2 0 0 -9 6 -20z"/>
<path d="M11878 1924 c-11 -11 -10 -134 1 -134 6 0 11 17 13 38 2 30 7 38 26
40 20 3 22 -1 22 -37 0 -23 3 -41 8 -41 4 0 6 20 4 45 -4 42 -6 45 -32 45 -23
0 -29 5 -32 26 -2 14 -6 22 -10 18z"/>
<path d="M12030 1860 c0 -40 4 -70 10 -70 6 0 10 30 10 70 0 40 -4 70 -10 70
-6 0 -10 -30 -10 -70z"/>
<path d="M12083 1860 c0 -41 2 -58 4 -37 2 20 2 54 0 75 -2 20 -4 3 -4 -38z"/>
<path d="M11788 1913 c-30 -8 -19 -63 12 -63 19 0 34 -26 24 -42 -4 -6 -20 -7
-37 -4 -23 5 -28 3 -20 -5 6 -6 26 -9 44 -7 28 2 35 8 37 28 2 20 -3 28 -28
37 -41 16 -40 43 3 44 27 0 29 2 12 9 -22 10 -23 10 -47 3z"/>
<path d="M11985 1910 c3 -5 8 -10 11 -10 2 0 4 5 4 10 0 6 -5 10 -11 10 -5 0
-7 -4 -4 -10z"/>
<path d="M12350 1910 c-8 -5 -11 -12 -7 -16 4 -4 13 -2 19 4 7 7 16 12 20 12
10 0 11 -57 1 -62 -5 -2 -19 -15 -32 -31 l-24 -27 49 1 c46 2 47 2 14 9 -28 5
-31 8 -17 14 9 5 17 14 17 22 0 8 4 14 9 14 16 0 19 40 4 55 -17 17 -32 19
-53 5z"/>
<path d="M12680 1913 c-39 -14 -55 -88 -26 -113 23 -19 61 -8 64 18 4 30 -16
55 -40 49 -24 -7 -24 19 1 32 10 6 21 7 25 4 3 -3 6 -1 6 5 0 13 -6 14 -30 5z
m18 -85 c-2 -13 -10 -23 -18 -23 -8 0 -16 10 -18 23 -3 17 2 22 18 22 16 0 21
-5 18 -22z"/>
<path d="M12445 1880 c-4 -16 -4 -43 0 -60 5 -25 12 -30 35 -30 25 0 30 5 36
35 10 57 -1 85 -35 85 -25 0 -31 -5 -36 -30z m59 4 c18 -48 -9 -99 -39 -74
-17 14 -19 43 -5 71 13 23 36 25 44 3z"/>
<path d="M12550 1895 c-10 -12 -10 -15 4 -15 12 0 16 -10 16 -45 0 -25 5 -45
10 -45 6 0 10 27 10 60 0 62 -13 77 -40 45z"/>
<path d="M11980 1835 c0 -25 5 -45 10 -45 6 0 10 20 10 45 0 25 -4 45 -10 45
-5 0 -10 -20 -10 -45z"/>
<path d="M12124 1866 c-3 -8 -4 -27 -2 -43 3 -24 8 -28 41 -31 20 -2 37 1 37
5 0 5 -12 9 -27 8 -14 0 -28 6 -30 13 -3 8 6 12 27 12 27 0 31 3 28 23 -2 17
-11 23 -36 25 -21 2 -34 -2 -38 -12z m56 -6 c0 -5 -9 -10 -21 -10 -11 0 -17 5
-14 10 3 6 13 10 21 10 8 0 14 -4 14 -10z"/>
<path d="M12226 1858 c-9 -35 -7 -68 4 -68 6 0 10 12 10 28 0 31 9 47 30 55 9
3 4 6 -11 6 -20 1 -28 -5 -33 -21z"/>
<path d="M12073 5933 c-21 -8 -14 -26 8 -20 34 9 34 -21 0 -63 -17 -21 -31
-41 -31 -44 0 -3 20 -6 45 -6 25 0 45 5 45 10 0 6 -11 10 -25 10 -30 0 -31 4
-5 37 24 31 25 46 4 67 -16 17 -21 18 -41 9z"/>
<path d="M12167 5922 c-10 -11 -17 -36 -17 -61 0 -35 4 -43 25 -53 21 -9 29
-9 42 5 23 22 22 81 -2 107 -22 25 -27 25 -48 2z m43 -58 c0 -38 -3 -45 -17
-42 -22 4 -30 62 -13 84 19 22 30 7 30 -42z"/>
<path d="M12269 5913 c-12 -15 -12 -16 4 -10 15 6 17 0 17 -48 0 -30 3 -55 8
-55 4 0 5 29 4 65 -4 68 -10 77 -33 48z"/>
<path d="M12360 5902 c0 -22 7 -30 30 -39 39 -15 31 -43 -12 -43 -17 0 -27 -4
-23 -10 9 -15 51 -12 65 5 20 24 4 65 -25 65 -16 0 -25 6 -25 15 0 9 9 15 25
15 14 0 25 5 25 10 0 6 -13 10 -30 10 -26 0 -30 -4 -30 -28z"/>
<path d="M12780 5445 c0 -12 4 -14 19 -6 14 8 22 7 31 -4 10 -13 9 -20 -6 -38
-11 -12 -25 -26 -31 -30 -7 -4 -13 -15 -13 -22 0 -11 11 -15 43 -14 41 2 41 2
8 8 l-33 6 27 29 c37 40 32 80 -12 84 -25 2 -33 -1 -33 -13z"/>
<path d="M12879 5439 c-13 -26 -5 -89 13 -101 48 -30 89 44 58 103 -14 26 -56
25 -71 -2z m61 -38 c0 -31 -13 -61 -25 -61 -18 0 -27 55 -14 88 10 26 11 26
25 8 8 -11 14 -27 14 -35z"/>
<path d="M12987 5454 c-14 -15 -6 -24 12 -15 34 19 44 -21 14 -55 -50 -54 -50
-54 3 -52 38 1 41 2 16 5 l-33 4 26 35 c33 43 30 78 -5 82 -14 2 -29 0 -33 -4z"/>
<path d="M13087 5453 c-4 -3 -7 -30 -7 -59 0 -52 8 -64 46 -64 24 0 37 50 24
93 -8 29 -16 37 -34 37 -12 0 -26 -3 -29 -7z m53 -64 c0 -42 -13 -57 -35 -39
-18 15 -20 71 -3 88 19 19 38 -6 38 -49z"/>
<path d="M10390 5170 c0 -40 4 -70 10 -70 6 0 10 10 10 23 l1 22 18 -22 c27
-32 47 -29 22 4 -20 24 -20 27 -5 45 21 22 7 24 -18 1 -17 -15 -18 -14 -18 25
0 23 -4 42 -10 42 -6 0 -10 -30 -10 -70z"/>
<path d="M10022 5158 c1 -57 2 -58 5 -15 4 44 23 69 23 29 0 -26 23 -72 35
-69 6 2 17 23 25 48 l15 44 3 -47 c2 -27 8 -48 13 -48 6 0 9 24 7 60 -2 50 -6
60 -20 60 -11 0 -18 -8 -18 -19 0 -10 -6 -31 -14 -45 l-14 -27 -18 45 c-28 67
-44 60 -42 -16z"/>
<path d="M10184 5181 c3 -5 15 -7 26 -4 32 8 23 -11 -11 -24 -47 -18 -36 -47
19 -51 41 -3 42 -2 42 27 0 49 -9 61 -47 61 -19 0 -32 -4 -29 -9z m46 -56 c0
-8 -6 -15 -14 -15 -17 0 -28 14 -19 24 12 12 33 6 33 -9z"/>
<path d="M10280 5145 c0 -54 18 -60 22 -7 2 30 7 38 26 40 20 3 22 -1 22 -37
0 -23 3 -41 8 -41 4 0 6 20 4 45 l-4 45 -39 0 -39 0 0 -45z"/>
<path d="M10493 5145 c0 -27 2 -38 4 -22 2 15 2 37 0 50 -2 12 -4 0 -4 -28z"/>
<path d="M10531 5170 c-2 -63 30 -96 43 -45 4 14 10 25 15 25 5 0 12 -11 15
-25 4 -14 11 -25 16 -25 14 0 30 36 29 67 l-1 28 -13 -30 -13 -30 -11 28 c-14
35 -30 34 -44 -3 l-12 -31 -12 33 c-10 30 -12 31 -12 8z"/>
<path d="M10483 5072 l-43 -3 0 -47 c0 -26 7 -90 15 -142 8 -52 15 -114 15
-137 0 -55 23 -204 27 -178 4 23 28 116 49 191 8 28 14 59 14 69 0 17 5 37 44
176 9 31 16 58 16 61 0 8 -84 14 -137 10z"/>
<path d="M12114 4755 c-18 -15 -18 -15 11 -13 41 4 44 -21 6 -63 -17 -18 -31
-37 -31 -41 0 -5 19 -7 43 -6 37 1 38 2 9 5 l-33 4 31 35 c35 40 38 69 11 84
-25 13 -24 13 -47 -5z"/>
<path d="M12227 4758 c-13 -7 -17 -23 -17 -63 0 -50 2 -55 24 -61 14 -3 29 -3
34 0 16 10 22 63 11 95 -12 34 -28 43 -52 29z m43 -63 c0 -48 -13 -64 -35 -45
-18 15 -20 71 -4 87 22 22 39 2 39 -42z"/>
<path d="M12450 4756 c0 -8 -3 -16 -7 -18 -9 -3 -53 -64 -53 -73 0 -3 14 -5
30 -5 20 0 30 -5 30 -15 0 -8 5 -15 10 -15 6 0 10 6 10 14 0 8 6 17 13 20 10
5 10 7 0 12 -8 3 -13 24 -13 50 0 24 -4 44 -10 44 -5 0 -10 -6 -10 -14z m0
-56 c0 -11 -7 -20 -15 -20 -18 0 -19 12 -3 28 16 16 18 15 18 -8z"/>
<path d="M12334 4744 c3 -9 6 -38 6 -65 0 -27 5 -49 10 -49 6 0 10 28 10 65 0
53 -3 65 -16 65 -11 0 -14 -5 -10 -16z"/>
<path d="M12305 4730 c4 -6 11 -8 16 -5 14 9 11 15 -7 15 -8 0 -12 -5 -9 -10z"/>
<path d="M10560 4220 c0 -40 4 -70 10 -70 6 0 10 30 10 70 0 40 -4 70 -10 70
-6 0 -10 -30 -10 -70z"/>
<path d="M10617 4283 c-11 -10 -8 -133 3 -133 6 0 10 30 10 70 0 70 -1 76 -13
63z"/>
<path d="M10106 4255 c-20 -31 -20 -54 0 -83 15 -22 74 -32 74 -12 0 5 -6 7
-14 4 -28 -11 -56 15 -56 50 0 36 13 46 56 46 13 0 24 5 24 10 0 6 -15 10 -34
10 -25 0 -38 -6 -50 -25z"/>
<path d="M10210 4241 c0 -6 11 -11 25 -11 34 0 31 -13 -6 -27 -44 -17 -36 -47
14 -51 l38 -3 -3 48 c-3 46 -4 48 -35 51 -19 2 -33 -1 -33 -7z m50 -66 c0 -8
-9 -15 -20 -15 -11 0 -20 7 -20 15 0 8 9 15 20 15 11 0 20 -7 20 -15z"/>
<path d="M10311 4200 c1 -47 3 -50 8 -20 4 23 14 38 29 45 12 5 22 13 22 17 0
12 -28 9 -36 -3 -4 -8 -9 -7 -15 2 -5 9 -8 -7 -8 -41z"/>
<path d="M10380 4200 c0 -27 4 -50 9 -50 10 0 20 68 13 88 -10 28 -22 8 -22
-38z"/>
<path d="M10410 4240 c0 -5 7 -10 15 -10 8 0 15 5 15 10 0 6 -7 10 -15 10 -8
0 -15 -4 -15 -10z"/>
<path d="M10460 4231 c-23 -43 -5 -81 37 -81 30 0 49 44 34 77 -13 29 -56 31
-71 4z m55 -36 c0 -23 -4 -30 -20 -30 -15 0 -21 8 -23 33 -3 30 -1 33 20 30
18 -2 23 -9 23 -33z"/>
<path d="M10491 4194 c0 -11 3 -14 6 -6 3 7 2 16 -1 19 -3 4 -6 -2 -5 -13z"/>
<path d="M10140 4215 c0 -18 5 -25 19 -25 23 0 37 30 19 42 -24 14 -38 8 -38
-17z"/>
<path d="M10443 3980 c0 -41 2 -58 4 -37 2 20 2 54 0 75 -2 20 -4 3 -4 -38z"/>
<path d="M10480 3980 c0 -40 4 -70 10 -70 6 0 10 30 10 70 0 40 -4 70 -10 70
-6 0 -10 -30 -10 -70z"/>
<path d="M9977 4022 c-21 -23 -22 -76 -1 -96 8 -9 30 -15 47 -15 l32 1 -30 7
c-57 12 -60 92 -4 99 41 6 46 22 8 22 -22 0 -42 -7 -52 -18z"/>
<path d="M10080 4001 c0 -6 11 -11 24 -11 36 0 40 -17 6 -24 -24 -4 -30 -11
-30 -31 0 -23 3 -25 35 -23 l36 2 -3 46 c-3 43 -5 45 -35 48 -19 2 -33 -1 -33
-7z m54 -66 c-4 -8 -15 -15 -25 -15 -10 0 -19 7 -19 15 0 9 9 15 25 15 18 0
23 -4 19 -15z"/>
<path d="M10180 3958 c0 -26 5 -48 10 -48 6 0 10 16 10 36 0 27 5 37 20 41 30
8 24 22 -10 21 -29 -1 -30 -3 -30 -50z"/>
<path d="M10261 3960 c1 -47 3 -50 8 -20 4 23 14 38 29 45 12 5 22 13 22 17 0
12 -28 9 -36 -3 -4 -8 -9 -7 -15 2 -5 9 -8 -7 -8 -41z"/>
<path d="M10336 3994 c-38 -38 -3 -93 50 -80 19 5 24 13 24 39 0 53 -40 75
-74 41z m49 -39 c0 -39 -31 -48 -41 -11 -7 30 2 48 24 44 11 -2 17 -13 17 -33z"/>
<path d="M10010 3985 c-15 -17 -5 -35 20 -35 22 0 35 30 18 42 -18 11 -24 10
-38 -7z"/>
<path d="M12558 3802 c-10 -2 -18 -8 -18 -13 0 -6 7 -6 18 0 13 7 23 6 30 -1
17 -17 15 -24 -18 -58 -16 -17 -30 -35 -30 -40 0 -6 19 -9 43 -8 37 1 38 2 9
5 l-33 4 26 30 c42 51 28 93 -27 81z"/>
<path d="M12656 3794 c-17 -16 -21 -80 -7 -102 5 -8 21 -12 37 -10 27 3 29 6
32 53 3 38 -1 52 -14 62 -23 17 -29 16 -48 -3z m42 -62 c-2 -25 -8 -37 -18
-37 -20 0 -27 84 -8 96 18 11 30 -14 26 -59z"/>
<path d="M12749 3784 c-12 -15 -11 -16 8 -10 20 7 22 3 26 -46 l3 -53 2 63 c2
65 -10 80 -39 46z"/>
<path d="M12863 3793 c20 -2 37 -5 37 -6 0 -1 -11 -24 -24 -52 -14 -27 -23
-52 -20 -54 7 -7 12 2 39 62 l25 57 -48 -2 c-43 -1 -44 -2 -9 -5z"/>
<path d="M1003 3505 c0 -44 2 -59 6 -40 7 35 15 35 42 1 11 -15 25 -26 31 -26
6 0 -2 16 -17 35 l-27 36 26 26 c15 14 24 28 21 31 -3 3 -21 -9 -39 -27 l-35
-34 -4 34 c-2 19 -4 3 -4 -36z"/>
<path d="M1104 3506 c-11 -44 3 -66 42 -66 19 0 34 4 34 9 0 4 -11 6 -24 4
-15 -3 -25 1 -29 11 -5 13 1 16 28 16 35 0 40 5 29 34 -4 10 -18 16 -40 16
-27 0 -35 -5 -40 -24z m56 4 c0 -5 -7 -10 -15 -10 -8 0 -15 5 -15 10 0 6 7 10
15 10 8 0 15 -4 15 -10z"/>
<path d="M1211 3480 c2 -43 2 -44 8 -10 4 23 14 39 31 47 25 13 25 13 -7 11
-32 -2 -33 -3 -32 -48z"/>
<path d="M1898 3562 c-13 -2 -18 -13 -18 -39 0 -34 1 -35 30 -31 48 7 35 -33
-15 -45 -14 -3 -10 -5 11 -6 27 -1 32 3 42 35 17 57 -6 96 -50 86z m40 -35 c4
-20 -25 -34 -40 -19 -15 15 -1 44 19 40 10 -2 19 -11 21 -21z"/>
<path d="M1987 3563 c-9 -2 -15 -9 -12 -14 4 -5 13 -5 24 1 42 22 42 -35 1
-70 -17 -13 -30 -28 -30 -32 0 -4 21 -7 48 -6 36 1 39 2 15 5 -18 2 -33 6 -33
8 0 2 11 16 25 31 24 26 34 74 16 74 -5 0 -15 2 -23 4 -7 2 -21 2 -31 -1z"/>
<path d="M2070 3558 c0 -5 14 -8 31 -8 27 0 30 -3 23 -22 -3 -13 -13 -36 -21
-51 -8 -16 -12 -31 -9 -34 8 -8 26 7 26 21 0 8 7 27 15 42 22 43 19 52 -25 56
-22 2 -40 0 -40 -4z"/>
<path d="M1789 3544 c-12 -15 -11 -16 8 -10 20 7 22 3 26 -46 l3 -53 2 63 c2
65 -10 80 -39 46z"/>
<path d="M2066 3504 c-6 -24 -2 -43 8 -33 11 10 17 59 8 59 -5 0 -13 -12 -16
-26z"/>
<path d="M1980 3509 c0 -5 5 -7 10 -4 6 3 10 8 10 11 0 2 -4 4 -10 4 -5 0 -10
-5 -10 -11z"/>
<path d="M10300 3045 l0 -65 29 0 c39 0 74 30 74 63 0 39 -29 67 -70 67 l-33
0 0 -65z m64 39 c24 -9 21 -71 -3 -84 -34 -18 -41 -12 -41 40 0 51 7 58 44 44z"/>
<path d="M10340 3043 c0 -21 3 -24 9 -14 5 8 7 20 4 28 -8 21 -13 15 -13 -14z"/>
<path d="M10431 3058 c-19 -37 1 -80 35 -76 36 4 51 29 38 65 -13 38 -55 44
-73 11z m67 -24 c4 -25 -22 -49 -43 -40 -15 5 -21 47 -8 60 14 14 48 1 51 -20z"/>
<path d="M10530 3028 c0 -36 4 -48 15 -48 11 0 15 11 15 41 0 33 3 40 18 37
12 -2 18 -14 20 -41 4 -49 22 -48 22 2 0 46 -14 60 -58 59 -32 -1 -32 -2 -32
-50z"/>
<path d="M10620 3071 c0 -5 9 -11 20 -14 15 -4 20 -14 20 -41 0 -20 5 -36 10
-36 11 0 14 59 4 84 -6 17 -54 23 -54 7z"/>
<path d="M10706 3064 c-7 -19 10 -44 30 -44 8 0 14 -7 14 -16 0 -12 -7 -15
-25 -12 -14 3 -25 1 -25 -3 0 -5 14 -9 30 -9 44 0 50 26 14 56 l-29 23 28 1
c15 0 27 5 27 10 0 17 -57 11 -64 -6z"/>
<path d="M12948 2872 c-10 -2 -18 -8 -18 -13 0 -6 7 -6 18 0 13 7 23 6 30 -1
17 -17 15 -24 -18 -58 -16 -17 -30 -35 -30 -40 0 -6 19 -9 43 -8 37 1 38 2 9
5 l-33 4 26 30 c42 51 28 93 -27 81z"/>
<path d="M13048 2872 c-22 -4 -34 -65 -19 -98 13 -30 56 -33 71 -5 12 23 13
71 2 87 -9 14 -33 21 -54 16z m42 -58 c0 -32 -10 -54 -25 -54 -18 0 -27 55
-14 88 10 26 11 26 25 8 8 -11 14 -30 14 -42z"/>
<path d="M13143 2873 c-7 -2 -13 -9 -13 -14 0 -6 7 -6 19 0 41 23 42 -21 0
-72 l-30 -37 48 1 c43 2 45 2 14 8 l-33 6 26 28 c25 27 36 77 17 77 -5 0 -15
2 -23 4 -7 3 -19 2 -25 -1z"/>
<path d="M13243 2863 c-7 -2 -13 -9 -13 -15 0 -6 7 -8 15 -4 12 4 15 -4 15
-44 0 -28 5 -50 10 -50 6 0 10 27 10 60 0 60 -5 67 -37 53z"/>
<path d="M13216 2801 c-4 -7 -5 -15 -2 -18 9 -9 19 4 14 18 -4 11 -6 11 -12 0z"/>
<path d="M12230 1625 l0 -65 35 0 c19 0 35 5 35 10 0 6 -11 10 -25 10 -24 0
-25 3 -25 55 0 30 -4 55 -10 55 -6 0 -10 -28 -10 -65z"/>
<path d="M12330 1650 c0 -5 11 -10 25 -10 35 0 31 -16 -6 -24 -25 -5 -30 -10
-27 -28 2 -18 10 -23 36 -24 32 -1 32 -1 32 48 0 47 -1 48 -30 48 -16 0 -30
-4 -30 -10z m48 -52 c-5 -15 -48 -24 -48 -10 0 14 12 22 33 22 10 0 17 -5 15
-12z"/>
<path d="M12420 1610 c0 -27 4 -50 9 -50 10 0 20 68 13 88 -10 28 -22 8 -22
-38z"/>
<path d="M12450 1650 c0 -5 7 -10 15 -10 8 0 15 5 15 10 0 6 -7 10 -15 10 -8
0 -15 -4 -15 -10z"/>
<path d="M12502 1648 c-18 -18 -15 -27 13 -38 14 -5 25 -14 25 -20 0 -5 -11
-10 -25 -10 -14 0 -25 -5 -25 -11 0 -6 14 -9 33 -7 44 4 50 38 10 58 l-28 14
28 4 c15 2 27 8 27 13 0 13 -44 11 -58 -3z"/>
<path d="M12592 1648 c-15 -15 -16 -60 0 -76 14 -14 68 -16 68 -2 0 6 -13 10
-30 10 -20 0 -30 5 -30 15 0 10 10 15 31 15 26 0 30 3 27 23 -3 25 -45 36 -66
15z m53 -18 c4 -6 -5 -10 -19 -10 -14 0 -26 5 -26 10 0 6 9 10 19 10 11 0 23
-4 26 -10z"/>
<path d="M12691 1605 l2 -50 6 40 c5 32 11 41 29 43 20 3 22 -1 22 -37 0 -23
5 -41 10 -41 15 0 12 76 -4 89 -7 6 -25 10 -40 9 -25 -2 -26 -5 -25 -53z"/>
<path d="M12858 1693 c-10 -3 -18 -9 -18 -14 0 -6 8 -9 18 -8 52 5 56 -14 12
-56 -42 -40 -39 -55 10 -55 22 0 40 5 40 10 0 6 -11 10 -25 10 -28 0 -33 14
-10 27 8 5 17 23 21 40 5 24 2 33 -12 40 -11 5 -27 8 -36 6z"/>
<path d="M12956 1681 c-23 -25 -18 -99 7 -115 28 -18 52 4 55 54 3 39 -16 80
-38 80 -4 0 -15 -9 -24 -19z m44 -57 c0 -37 -3 -44 -20 -44 -17 0 -20 7 -20
44 0 26 5 46 13 49 21 8 27 -3 27 -49z"/>
<path d="M13049 1683 c-13 -15 -12 -16 9 -11 34 9 39 -16 11 -57 -13 -19 -27
-35 -31 -35 -5 0 -8 -4 -8 -10 0 -5 20 -10 45 -10 48 0 62 17 19 22 l-26 3 21
27 c26 33 27 64 2 78 -25 13 -26 13 -42 -7z"/>
<path d="M13158 1689 c-21 -12 -25 -98 -6 -117 33 -33 72 8 66 68 -4 39 -34
64 -60 49z m42 -65 c0 -36 -3 -44 -19 -44 -23 0 -35 39 -21 74 15 41 40 23 40
-30z"/>
</g>
</svg>
