<?xml version="1.0" standalone="no"?>
<!DOCTYPE svg PUBLIC "-//W3C//DTD SVG 20010904//EN"
 "http://www.w3.org/TR/2001/REC-SVG-20010904/DTD/svg10.dtd">
<svg version="1.0" xmlns="http://www.w3.org/2000/svg"
 width="1430.000000pt" height="944.000000pt" viewBox="0 0 1430.000000 944.000000"
 preserveAspectRatio="xMidYMid meet">
<metadata>
Created by potrace 1.16, written by Peter Selinger 2001-2019
</metadata>
<g transform="translate(0.000000,944.000000) scale(0.100000,-0.100000)"
fill="#000000" stroke="none">
<path d="M0 4715 l0 -4715 7150 0 7150 0 0 4715 0 4715 -7150 0 -7150 0 0
-4715z m12174 2880 c8 -18 17 -20 85 -18 42 1 88 2 104 2 20 1 27 6 27 21 0
15 7 20 29 20 20 0 30 -6 34 -20 5 -18 14 -20 81 -20 43 0 85 5 96 12 16 10
25 10 47 -4 36 -21 41 -53 13 -68 -21 -11 -19 -25 3 -25 7 0 13 -13 14 -30 l2
-30 -9 30 c-4 17 -8 24 -9 18 0 -7 -8 -13 -16 -13 -10 0 -15 11 -15 35 0 24 5
35 15 35 8 0 15 5 15 10 0 6 -6 10 -14 10 -8 0 -17 6 -19 13 -10 24 -25 -15
-20 -52 7 -55 11 -61 33 -61 11 0 20 -5 20 -11 0 -6 -12 -9 -27 -7 -22 2 -30
10 -39 43 -12 40 -16 38 -28 -17 -7 -32 11 -30 -256 -29 -145 0 -177 3 -186
16 -14 19 -24 19 -24 0 0 -10 -11 -15 -35 -15 -30 0 -35 3 -35 23 0 13 4 27 9
33 5 5 14 27 21 49 22 71 64 96 84 50z m648 8 c10 -9 18 -11 18 -6 0 20 51 25
77 8 18 -12 28 -14 36 -6 14 14 67 15 67 1 0 -5 13 -1 30 8 27 15 32 16 57 2
26 -14 28 -21 31 -81 4 -89 -6 -96 -130 -91 l-48 2 -1 48 c-1 26 -3 38 -6 27
-17 -78 -24 -82 -150 -77 -80 3 -83 4 -83 28 0 13 10 34 22 46 l21 21 -21 8
c-28 11 -28 44 0 63 29 21 57 20 80 -1z m-516 -218 c8 -32 54 -36 54 -5 0 21
6 22 100 24 44 1 45 0 48 -32 3 -28 5 -31 23 -22 11 6 52 10 92 8 65 -3 72 -5
75 -25 2 -14 -4 -26 -17 -33 -15 -8 -21 -21 -21 -46 0 -33 -2 -35 -27 -30 -56
11 -380 5 -422 -9 -10 -3 -30 -1 -43 4 -24 9 -25 14 -25 77 0 81 18 107 72
103 19 -2 37 0 41 4 16 16 44 6 50 -18z m501 4 c8 -8 21 -8 46 2 28 10 39 10
50 0 11 -9 21 -9 40 0 18 8 34 9 54 1 20 -6 36 -6 47 0 21 12 59 4 80 -18 22
-21 22 -117 0 -138 -15 -15 -36 -21 -59 -16 -5 1 -46 1 -90 1 -159 -2 -248 0
-257 6 -13 7 -1 52 19 72 15 15 15 16 0 19 -23 5 -23 58 1 71 23 14 55 14 69
0z m-585 -224 c13 -30 48 -34 48 -6 0 11 9 23 20 26 23 7 50 -10 50 -31 0 -11
19 -14 83 -14 57 0 89 -5 104 -15 18 -13 22 -13 33 0 19 23 56 18 73 -9 21
-32 12 -97 -15 -104 -24 -6 -23 -8 14 -43 20 -18 39 -27 48 -23 33 14 61 16
74 5 10 -8 16 -9 21 -1 9 14 68 13 83 -2 9 -9 15 -9 24 0 7 7 25 12 40 12 15
0 28 -5 28 -12 0 -9 3 -9 12 0 17 17 78 15 100 -5 27 -24 25 -109 -4 -140 -24
-26 -98 -34 -98 -10 0 9 -2 9 -9 -1 -4 -8 -19 -12 -32 -10 -20 2 -25 10 -29
48 l-5 45 -8 -34 c-12 -57 -20 -61 -123 -61 -86 0 -93 2 -99 21 -5 14 0 31 14
50 26 35 26 35 0 42 -12 3 -22 0 -25 -8 -3 -7 -14 -15 -25 -18 -15 -4 -19 -14
-19 -46 l0 -42 -90 2 c-50 1 -92 5 -95 9 -2 4 -35 6 -72 4 -73 -3 -83 3 -83
49 0 15 -4 27 -10 27 -5 0 -10 -15 -10 -34 0 -39 -14 -53 -34 -37 -10 8 -21 7
-41 -3 -34 -18 -69 -7 -73 23 -3 16 2 21 20 21 l23 1 -22 18 c-23 19 -33 67
-19 89 9 15 51 16 78 1 14 -8 23 -8 31 0 16 16 37 13 37 -4 0 -9 12 -20 26
-25 33 -13 34 -13 34 5 0 21 62 44 110 42 41 -3 45 0 32 20 -6 10 -38 12 -217
14 -11 0 -59 0 -106 -2 -48 -1 -92 1 -98 5 -6 4 -12 19 -12 34 -1 27 -1 27 -8
-3 -5 -25 -11 -30 -36 -30 l-30 0 -3 81 c-3 87 3 99 47 87 14 -4 21 -14 22
-32 l2 -26 4 27 c2 14 11 29 20 32 22 9 53 -3 53 -20 0 -10 12 -14 40 -14 33
0 40 3 40 19 0 37 46 41 62 6z m543 6 c11 -5 33 -4 48 2 20 6 36 6 53 -2 16
-7 32 -7 49 -1 30 11 55 3 55 -18 0 -13 3 -12 14 3 9 13 26 19 51 19 47 0 65
-23 65 -82 0 -57 -12 -78 -55 -92 -42 -14 -67 0 -64 34 3 42 -4 50 -10 11 -5
-32 -11 -41 -30 -43 -13 -2 -27 2 -31 9 -7 10 -15 9 -41 -4 -18 -8 -37 -13
-41 -11 -4 3 -34 6 -67 7 -81 3 -93 16 -63 67 17 30 19 40 9 40 -21 0 -38 25
-31 43 9 24 52 32 89 18z m-884 -447 c8 -8 32 -14 51 -14 27 0 37 5 41 20 7
26 57 28 64 2 7 -29 52 -40 140 -36 89 4 112 -7 75 -35 -18 -13 -21 -23 -16
-53 l7 -38 -47 -1 c-25 0 -100 0 -166 0 -66 0 -154 0 -195 0 l-75 1 0 84 c0
58 4 86 13 90 19 8 91 -5 108 -20z m604 12 c15 -11 23 -11 43 0 28 14 48 10
56 -13 5 -13 8 -13 22 1 19 19 58 30 80 22 10 -4 14 -16 12 -35 -1 -16 4 -37
12 -47 9 -10 10 -15 3 -10 -9 5 -13 -1 -13 -19 0 -42 -17 -65 -49 -65 -38 0
-55 24 -56 76 0 24 -3 44 -7 44 -5 0 -8 -20 -8 -45 0 -25 -4 -45 -10 -45 -6 0
-10 27 -10 60 0 60 -6 70 -28 48 -15 -15 -16 -32 -2 -23 6 4 10 -13 10 -44 0
-39 4 -51 15 -51 8 0 15 -4 15 -10 0 -5 -7 -10 -15 -10 -9 0 -19 18 -27 48
l-13 47 -5 -45 -5 -45 -110 0 c-128 0 -141 11 -81 66 36 33 38 44 8 44 -25 0
-26 32 -2 45 17 9 29 9 51 0 24 -10 31 -9 44 4 20 20 45 20 70 2z m-94 -238
c1 -7 2 -20 3 -28 0 -8 10 -16 21 -18 11 -2 24 -8 29 -12 5 -5 15 -3 22 4 8 9
42 14 99 14 79 1 87 -1 101 -22 10 -17 13 -36 8 -66 -8 -48 -38 -67 -83 -52
-15 5 -36 4 -53 -2 -23 -8 -33 -6 -58 12 -16 13 -30 18 -30 12 0 -17 -100 -12
-106 5 -5 11 -12 3 -27 -26 -11 -22 -26 -43 -33 -46 -8 -3 -11 -9 -8 -15 3 -5
11 -4 19 2 8 7 19 9 25 5 5 -3 10 1 10 9 0 9 9 16 20 16 18 0 25 -11 21 -34
-1 -5 8 -5 21 -1 13 4 38 9 56 12 30 5 32 4 32 -26 0 -24 -5 -32 -25 -37 -24
-6 -26 -17 -4 -20 5 -1 14 -2 19 -3 6 0 10 -14 10 -31 l0 -29 -111 1 c-87 1
-112 4 -116 16 -5 12 -7 12 -15 -2 -10 -18 -83 -23 -94 -5 -4 8 -9 8 -17 0
-19 -19 -104 -14 -116 7 -10 16 -10 16 -11 0 0 -28 -86 -26 -93 2 -3 11 -10
20 -15 20 -5 0 -12 -9 -15 -20 -6 -23 -52 -28 -60 -7 -7 18 3 67 18 92 7 11
15 32 19 48 5 22 12 27 36 27 18 0 33 -7 39 -18 8 -14 18 -18 43 -14 18 3 37
11 41 19 5 8 21 13 35 12 15 -2 37 1 50 5 28 9 62 -1 62 -20 0 -10 12 -14 40
-14 25 0 40 5 40 13 0 26 -17 36 -65 39 l-50 3 -3 77 c-3 70 -1 78 18 88 26
14 94 4 114 -16 8 -8 19 -14 25 -14 6 0 11 -7 11 -15 0 -18 9 -19 33 -1 19 15
24 41 5 30 -7 -4 -4 2 6 14 21 24 55 30 57 10z m395 -8 c7 -7 20 -7 35 -2 13
4 56 7 94 5 39 -2 79 -4 90 -4 11 0 31 2 45 5 50 12 81 -47 66 -128 -5 -26
-13 -37 -35 -44 -16 -6 -32 -8 -35 -5 -3 3 -45 5 -93 3 -48 -1 -95 -2 -103 -1
-8 0 -48 1 -87 0 l-73 0 0 31 c0 18 6 33 15 36 8 4 15 12 15 19 0 7 -7 15 -15
19 -23 9 -18 51 8 64 29 14 60 15 73 2z m-186 -202 c0 -9 3 -9 12 0 15 15 84
16 93 2 4 -7 11 -8 18 -1 7 5 54 10 106 10 l94 1 -6 -39 c-2 -21 -15 -61 -28
-90 -20 -43 -28 -51 -51 -51 -24 0 -28 4 -28 28 0 15 7 40 15 56 19 36 19 36
-5 36 -17 0 -20 -7 -20 -47 0 -59 -10 -76 -41 -71 -20 2 -25 10 -30 48 -6 43
-6 43 -7 9 -1 -20 -8 -41 -15 -47 -6 -6 -56 -11 -109 -11 -89 -1 -97 1 -103
20 -5 13 2 31 20 54 19 26 22 35 11 35 -21 0 -29 17 -22 46 6 21 12 24 51 24
28 0 45 -4 45 -12z m-1580 -177 c54 -37 61 -39 89 -28 26 10 34 8 59 -10 l29
-21 20 20 c35 35 59 17 66 -49 7 -64 0 -113 -17 -113 -6 0 -19 -16 -28 -34
-20 -41 -12 -47 49 -39 23 3 43 1 47 -5 4 -6 28 -8 61 -5 l55 6 0 -31 c0 -17
3 -37 6 -46 5 -13 8 -13 20 -1 8 7 14 18 14 24 0 6 6 11 13 12 6 0 2 4 -10 9
-31 13 -29 46 3 67 21 14 31 15 56 5 22 -8 36 -8 54 0 18 8 31 8 49 0 19 -9
31 -9 50 0 19 8 31 8 50 0 19 -9 31 -9 50 0 67 30 121 -63 81 -140 l-14 -28
36 3 c20 1 28 0 17 -3 -37 -10 -100 -43 -130 -68 l-30 -25 36 -1 c24 0 39 5
43 15 3 8 17 15 31 15 14 0 28 -7 31 -15 4 -8 15 -15 25 -15 10 0 19 7 19 15
0 9 9 15 25 15 16 0 25 -6 25 -15 0 -8 5 -15 10 -15 12 0 13 -119 2 -137 -6
-9 -51 -13 -162 -12 -85 0 -170 0 -188 -1 -26 0 -37 -6 -50 -30 -9 -16 -22
-32 -29 -34 -17 -7 -5 21 23 52 41 44 26 56 -16 12 -22 -23 -40 -46 -40 -51 0
-5 -4 -9 -10 -9 -19 0 -10 19 30 60 22 23 40 46 40 51 0 5 4 9 10 9 5 0 10 26
12 58 l3 57 56 0 c35 1 65 7 82 18 15 9 31 17 37 17 17 0 11 18 -7 24 -19 5
-58 7 -228 6 -75 0 -102 4 -109 14 -8 12 -12 12 -22 -2 -10 -14 -33 -17 -146
-17 -130 0 -133 -1 -136 -22 -2 -12 3 -37 11 -55 8 -18 17 -42 20 -53 24 -90
101 -249 132 -273 13 -10 26 -34 30 -53 13 -66 83 -117 142 -103 56 14 98 -22
53 -46 -14 -8 -20 -21 -20 -45 0 -34 -1 -35 -40 -35 -37 0 -40 -2 -31 -19 6
-10 24 -23 40 -29 25 -9 32 -7 55 17 15 16 26 39 26 55 0 16 10 36 26 51 19
18 22 25 12 25 -9 0 -21 7 -28 15 -10 13 -8 20 14 41 20 21 32 25 53 20 37 -9
43 -9 79 -1 23 5 35 2 48 -10 13 -13 20 -15 29 -6 14 14 64 14 69 0 2 -7 15
-4 36 8 36 20 58 13 80 -28 14 -27 11 -114 -6 -131 -17 -17 -84 -12 -99 8 -12
16 -13 16 -13 1 0 -12 -8 -17 -30 -17 -29 0 -30 2 -31 48 l-1 47 -8 -38 c-4
-21 -12 -43 -18 -49 -6 -6 -50 -10 -106 -9 -82 1 -96 -1 -105 -17 -8 -15 -4
-20 21 -31 22 -10 33 -10 41 -2 15 15 49 14 70 -1 12 -10 17 -32 19 -85 2 -40
6 -73 9 -73 3 0 25 6 50 14 24 8 69 17 99 19 62 6 39 -4 -55 -23 -58 -12 -108
-28 -170 -55 -26 -12 -1 -14 194 -14 l224 -1 -8 -32 c-4 -18 -10 -49 -14 -68
l-6 -35 -75 -2 c-41 -1 -91 -2 -110 -3 -39 -1 -48 -1 -137 0 -34 0 -64 -3 -66
-7 -3 -5 8 -46 24 -93 17 -47 40 -119 53 -160 41 -129 33 -121 157 -181 63
-31 134 -64 159 -74 25 -9 54 -22 64 -27 67 -35 268 -86 401 -102 17 -1 -7 -4
-53 -5 -46 0 -113 6 -150 14 -37 8 -98 22 -137 31 -74 16 -103 25 -257 75 -54
18 -100 30 -103 27 -3 -3 0 -23 8 -44 14 -39 27 -83 62 -199 10 -33 24 -78 31
-100 8 -23 14 -48 14 -58 0 -11 8 -17 23 -17 26 0 52 -17 60 -40 5 -13 6 -13
6 1 1 9 13 21 27 28 22 10 30 9 44 -4 11 -10 19 -12 21 -6 2 6 18 13 34 17 53
10 95 -49 66 -95 -6 -9 -4 -19 5 -29 30 -29 13 -47 -49 -50 -75 -4 -87 8 -87
87 0 62 -9 74 -36 47 -18 -19 -18 -27 1 -20 12 5 15 -4 15 -45 0 -28 5 -51 10
-51 6 0 10 -4 10 -10 0 -5 -6 -10 -14 -10 -15 0 -26 30 -26 73 0 15 -4 27 -10
27 -5 0 -10 -12 -10 -27 -1 -16 -9 -38 -19 -50 -21 -25 -67 -31 -74 -10 -3 9
-7 9 -18 0 -8 -6 -59 -12 -119 -14 -58 -2 -120 -8 -137 -13 -29 -8 -33 -14
-33 -42 l0 -32 79 -4 c43 -2 97 0 120 3 23 3 44 3 46 -1 7 -12 70 3 82 19 10
13 12 2 13 -61 0 -45 4 -78 10 -78 6 0 10 12 10 27 l0 26 23 -26 c30 -36 44
-34 18 2 l-20 28 20 22 c25 27 6 28 -21 1 l-20 -20 1 47 c1 27 4 38 6 27 3
-17 11 -22 36 -20 27 1 32 -2 29 -19 -9 -70 16 -189 70 -340 5 -16 12 -42 15
-56 3 -16 42 -63 98 -119 l94 -94 36 11 c20 7 37 7 41 2 15 -25 20 -4 7 32
-18 55 -10 61 13 10 16 -32 23 -39 41 -35 11 3 31 0 43 -6 15 -8 30 -8 50 -2
21 8 33 7 47 -3 15 -11 22 -11 45 1 15 8 36 14 46 14 23 0 46 -25 37 -40 -9
-15 -25 -12 -25 5 0 21 -26 19 -50 -5 -23 -23 -28 -88 -8 -108 30 -30 73 2 61
46 -3 13 -1 22 6 22 20 0 25 -50 6 -70 -23 -25 -80 -27 -89 -4 -7 18 -21 11
-21 -9 0 -7 -12 -13 -26 -15 -15 -2 -44 -18 -65 -37 -38 -33 -38 -34 -14 -36
43 -3 105 3 113 10 10 10 57 1 57 -10 0 -5 19 -9 43 -9 33 -1 38 -3 24 -11 -9
-5 -22 -7 -27 -4 -6 4 -10 -13 -10 -44 0 -28 5 -51 10 -51 6 0 10 16 10 36 0
27 5 37 20 41 11 3 20 11 20 19 0 17 68 30 89 17 18 -11 28 -110 13 -125 -17
-17 -94 -14 -106 4 -8 14 -11 14 -20 2 -10 -13 -32 -16 -111 -15 -11 0 -43 0
-71 0 l-50 0 8 -47 c39 -233 70 -364 86 -370 7 -2 12 -8 12 -13 0 -14 -52 -11
-99 6 -44 15 -66 12 -75 -11 -7 -18 -36 -18 -72 0 -24 13 -29 13 -39 0 -6 -9
-22 -14 -36 -12 -20 2 -25 10 -30 48 l-6 45 -1 -42 c-2 -51 -9 -54 -132 -50
-81 2 -85 3 -88 25 -2 15 5 33 19 48 19 20 20 24 6 24 -11 0 -17 8 -17 25 0
32 50 61 80 45 13 -7 26 -7 44 2 20 8 32 8 51 0 41 -19 42 -14 5 18 -26 22
-45 29 -77 30 l-42 0 -3 42 c-4 57 -26 62 -30 6 l-3 -43 -62 -2 c-35 -1 -66 3
-69 8 -3 6 -11 5 -20 -2 -11 -9 -17 -9 -28 0 -12 10 -21 9 -43 -6 -35 -22 -43
-33 -43 -60 0 -27 24 -31 46 -8 22 22 41 18 48 -8 5 -20 10 -22 41 -19 51 6
77 -23 73 -80 -3 -38 -6 -43 -34 -49 -17 -3 -65 -3 -105 0 -102 8 -107 6 -120
-42 -35 -135 -43 -157 -57 -157 -13 0 -13 3 1 18 10 10 17 27 17 38 0 10 7 37
15 59 8 22 14 51 15 65 0 25 -1 26 -57 20 -32 -3 -92 -3 -133 0 l-75 5 -3 77
c-3 69 -1 78 18 88 33 18 50 -4 50 -61 0 -27 4 -49 9 -49 10 0 25 30 22 44 -5
21 25 37 63 36 23 -1 64 -1 91 -1 48 1 52 3 63 34 15 41 15 47 1 47 -7 0 -18
8 -25 18 -13 16 -13 16 -14 0 0 -15 -10 -18 -52 -19 -29 -1 -78 -2 -108 -3
-30 -1 -70 0 -87 2 -29 4 -33 8 -33 33 0 20 5 29 17 29 15 0 15 1 0 18 -24 27
-21 58 9 81 34 27 68 27 93 0 30 -33 44 -18 15 16 -26 29 -184 266 -198 295
-8 17 -20 37 -59 97 -15 24 -27 46 -27 50 -1 5 -9 18 -19 31 -17 19 -29 22
-89 22 l-69 0 13 -62 c7 -35 19 -97 27 -138 49 -251 73 -368 92 -442 8 -32 22
-86 31 -120 17 -67 45 -160 66 -219 8 -20 26 -53 41 -73 29 -37 21 -50 -10
-18 -42 43 -151 341 -140 382 3 11 2 18 -2 15 -5 -2 -14 15 -20 38 -25 85 -39
136 -85 325 -30 120 -48 189 -62 238 -8 28 -14 58 -14 66 0 14 -60 16 -512 22
-624 8 -1646 33 -3213 81 -269 8 -713 22 -985 30 -1849 56 -3403 90 -4415 97
l-210 1 190 7 c291 11 605 30 758 46 75 8 159 14 185 14 26 0 99 7 162 15 63
8 178 21 255 30 330 38 793 105 1245 180 47 7 130 21 185 30 55 9 134 23 175
30 41 8 118 21 170 30 149 25 403 70 510 90 41 8 116 21 165 30 50 9 125 23
168 31 140 26 231 43 292 55 33 6 83 15 110 19 28 4 79 12 115 19 36 7 97 19
135 26 39 7 97 18 130 25 33 6 89 15 125 20 36 5 81 14 100 20 19 5 48 10 64
10 15 0 58 6 95 14 36 8 111 22 166 31 55 9 136 22 180 30 44 8 125 21 180 30
55 8 141 22 190 30 83 14 134 21 395 60 52 7 129 19 170 25 41 7 109 16 150
20 41 5 113 13 160 19 146 19 329 40 490 55 85 9 207 20 270 26 110 11 450 28
573 29 l59 1 -7 31 c-12 52 2 97 35 114 39 20 66 19 89 -4 17 -17 39 -20 173
-24 84 -3 161 -9 171 -12 13 -6 17 -2 17 18 0 23 3 25 43 24 l42 -2 7 -65 c10
-91 6 -100 -48 -100 -24 0 -44 4 -44 9 0 5 -18 7 -40 4 -48 -7 -80 16 -80 56
0 34 -17 15 -22 -24 -2 -22 -8 -30 -23 -31 -11 0 -29 -4 -41 -7 -11 -4 -68 -7
-125 -6 -57 1 -165 2 -239 2 -346 2 -1195 -83 -1885 -188 -198 -30 -304 -47
-385 -60 -47 -8 -130 -21 -185 -30 -55 -9 -131 -23 -170 -31 -38 -8 -81 -14
-95 -14 -14 0 -56 -6 -95 -14 -38 -8 -113 -22 -165 -31 -90 -15 -143 -24 -348
-61 -108 -19 -326 -59 -457 -85 -33 -6 -82 -15 -110 -19 -58 -8 -153 -26 -245
-46 -36 -8 -75 -14 -88 -14 -13 0 -51 -6 -85 -14 -71 -16 -170 -35 -242 -45
-27 -5 -79 -13 -115 -20 -106 -20 -209 -39 -315 -56 -55 -9 -134 -23 -175 -30
-104 -19 -344 -58 -540 -89 -216 -34 -291 -45 -405 -61 -66 -9 -159 -22 -206
-30 -47 -8 -99 -15 -115 -15 -16 0 -76 -6 -134 -14 -226 -32 -537 -64 -845
-87 -82 -6 -154 -12 -160 -13 -5 -2 190 -5 435 -9 888 -12 1999 -40 4020 -102
1522 -46 2501 -74 2880 -80 173 -3 455 -10 625 -15 171 -5 399 -9 509 -10 185
0 198 1 191 18 -4 9 -11 31 -15 47 -4 17 -15 56 -25 88 -15 52 -19 57 -38 51
-12 -3 -24 -6 -27 -6 -176 -1 -190 6 -147 71 21 32 23 40 12 45 -8 3 -15 14
-15 25 0 15 9 22 34 26 19 4 43 4 54 1 30 -10 37 12 13 38 l-22 23 45 13 c24
7 50 9 57 5 8 -5 10 -4 5 3 -4 7 3 16 17 23 23 10 24 14 15 57 -11 62 -36 191
-53 272 -7 36 -21 103 -30 150 -23 114 -21 110 -50 110 -23 0 -25 4 -26 48
l-1 47 -12 -40 c-7 -26 -21 -44 -37 -52 -25 -12 -69 -8 -69 7 0 13 -57 -19
-63 -34 -3 -7 -10 -67 -17 -132 -6 -66 -16 -155 -22 -199 -5 -44 -12 -105 -15
-135 -3 -30 -12 -64 -19 -75 -13 -18 -14 -17 -13 15 0 19 4 60 9 90 5 30 14
138 20 240 6 102 13 193 16 202 4 14 -4 17 -53 20 -55 3 -58 5 -61 30 -2 18 4
33 17 45 26 22 26 29 1 36 -21 6 -25 23 -10 47 8 14 64 19 100 9 12 -3 16 10
20 69 3 48 10 76 19 82 11 6 12 12 3 22 -6 8 -8 18 -4 24 11 16 71 34 77 23 7
-11 16 -11 33 0 12 7 12 12 1 30 -11 16 -24 21 -56 21 -41 0 -43 2 -43 29 0
16 6 31 15 35 8 3 15 15 15 26 0 11 -7 23 -15 26 -8 4 -15 14 -15 23 1 18 29
72 30 56 0 -14 73 -36 83 -26 9 9 -52 61 -71 61 -18 0 -14 10 12 31 30 24 93
152 77 157 -6 2 -11 17 -11 33 0 27 -2 28 -24 18 -13 -6 -27 -20 -29 -30 -3
-12 -14 -19 -31 -19 -22 0 -25 -4 -21 -27 2 -16 6 -48 9 -73 l6 -45 -15 34
c-8 18 -15 50 -15 70 0 20 -7 125 -15 234 -8 108 -22 286 -30 395 -8 108 -15
224 -16 257 0 72 -23 262 -32 271 -4 4 -37 6 -74 4 -38 -1 -77 -2 -88 -2 -11
1 -66 1 -122 1 l-103 0 0 85 c0 76 2 85 20 91 26 8 80 -3 100 -20 9 -9 45 -14
95 -15 154 -3 165 -2 166 18 1 11 4 8 8 -8 7 -22 12 -25 51 -22 30 2 48 9 57
22 17 24 43 26 43 4 0 -8 14 -20 30 -25 17 -6 30 -17 30 -25 0 -8 5 -14 10
-14 6 0 10 -20 10 -45 l0 -45 -77 -2 c-43 0 -90 0 -104 1 -25 2 -26 0 -23 -41
2 -24 10 -137 18 -253 51 -700 48 -664 71 -653 15 7 35 6 60 -1 32 -9 42 -8
57 5 10 10 26 14 40 11 21 -5 25 0 42 56 28 94 47 157 61 207 7 25 18 64 25
88 10 33 11 60 2 125 -6 45 -14 117 -18 161 -5 66 -9 79 -25 83 -10 3 -19 10
-19 17 0 7 -4 6 -9 -2 -5 -8 -21 -12 -37 -10 -29 3 -29 4 -32 74 -2 56 1 75
13 88 21 21 30 20 53 -5 16 -16 21 -17 25 -5 3 8 3 23 0 35 -4 16 -14 21 -56
23 -56 3 -72 22 -42 51 8 9 15 20 15 26 0 6 6 11 13 12 6 0 2 4 -10 9 -20 8
-21 12 -12 34 6 13 22 30 35 37 14 7 22 19 19 26 -3 7 -8 20 -11 28 -12 28 37
16 96 -24z m1226 -489 c12 -16 13 -16 19 1 8 20 65 24 65 5 0 -9 3 -9 12 0 7
7 34 12 60 12 43 0 48 -2 48 -22 0 -13 3 -46 6 -74 6 -49 6 -51 -24 -63 -43
-18 -76 -11 -80 17 -3 18 2 22 25 23 23 1 24 3 6 6 -12 2 -25 13 -28 24 -11
34 -25 20 -25 -25 0 -45 -14 -66 -31 -49 -12 12 -59 5 -59 -8 0 -5 -19 -9 -43
-9 -24 0 -52 -7 -63 -15 -19 -14 -19 -14 2 -15 13 0 24 -8 27 -20 3 -12 14
-20 25 -20 11 0 22 -6 25 -12 3 -10 7 -10 18 -1 19 15 237 17 255 2 9 -7 14
-33 14 -70 l0 -59 -102 -2 c-57 -1 -112 -1 -123 0 -11 0 -56 1 -100 1 -205 -1
-307 1 -314 6 -4 2 -23 -11 -41 -30 -19 -19 -38 -35 -44 -35 -5 0 3 14 19 30
28 29 28 30 7 30 -21 0 -22 4 -22 79 0 56 4 82 14 90 20 17 56 -3 57 -32 1
-21 1 -21 8 2 3 13 15 29 24 35 15 9 22 7 37 -11 21 -26 62 -30 100 -9 14 8
41 23 60 33 l35 18 -37 3 c-50 4 -58 30 -22 77 20 27 23 35 11 35 -23 0 -29
16 -15 39 15 24 22 26 112 29 56 1 72 -2 82 -16z m382 -212 c2 -6 13 -3 25 5
27 19 46 19 68 -1 16 -14 20 -14 43 1 19 13 30 14 39 7 8 -7 18 -7 27 -2 24
15 96 12 110 -5 14 -17 8 -49 -23 -117 -18 -40 -26 -48 -49 -48 -24 0 -28 4
-28 28 0 15 7 39 14 55 14 26 14 27 -10 27 -23 0 -24 -3 -24 -55 0 -54 0 -55
-29 -55 -17 0 -33 5 -36 10 -4 7 -11 8 -18 1 -15 -12 -34 -14 -134 -12 -83 1
-83 1 -83 27 0 15 10 36 24 49 23 22 24 23 5 28 -57 15 -14 84 46 73 16 -4 31
-11 33 -16z m-443 -639 c11 -5 31 -4 44 1 14 5 35 5 50 0 14 -5 37 -6 51 -2
41 10 59 1 62 -34 l3 -31 19 32 c23 37 38 45 70 37 20 -5 24 -14 29 -66 7 -76
-4 -108 -37 -108 -14 0 -27 4 -30 9 -10 15 -55 19 -60 5 -8 -22 -57 -17 -63 6
-5 19 -5 19 -22 0 -18 -22 -26 -24 -133 -22 l-78 2 0 33 c0 21 8 39 23 52 l22
20 -22 3 c-18 3 -23 10 -23 32 0 29 12 37 55 38 11 0 29 -3 40 -7z m-2123
-233 c9 -7 18 -22 20 -33 4 -18 6 -17 18 7 18 38 49 46 71 19 15 -18 29 -21
113 -23 92 -3 96 -2 96 19 0 29 36 20 54 -15 l13 -25 22 22 c26 26 47 27 60 4
8 -14 23 -18 78 -18 79 -1 85 -8 57 -80 -17 -47 -33 -55 -54 -30 -11 13 -14
13 -26 -2 -11 -16 -16 -16 -35 -5 -15 10 -24 11 -32 3 -14 -14 -64 -14 -72 -1
-5 7 -11 8 -19 1 -6 -5 -52 -10 -101 -11 -50 0 -97 -1 -105 -2 -8 -1 -61 0
-117 0 l-103 2 0 78 c0 95 19 123 62 90z m-4 -434 c12 -4 22 -13 22 -20 0 -11
31 -14 162 -14 136 0 164 3 180 17 17 15 18 13 18 -60 0 -45 4 -77 10 -77 6 0
10 32 10 75 0 60 3 75 15 75 12 0 15 -16 17 -77 l2 -78 3 78 c3 60 7 77 19 77
12 0 14 -15 12 -82 l-3 -83 -60 -1 c-33 -1 -72 -5 -87 -9 -21 -5 -32 -2 -52
18 -21 22 -25 22 -29 7 -4 -15 -18 -18 -88 -20 -218 -6 -220 -5 -246 24 -27
31 -30 74 -8 116 18 35 53 47 103 34z m2870 -216 c72 0 132 -4 140 -10 8 -7
12 -7 12 1 0 6 17 11 40 11 34 0 42 -4 55 -30 19 -37 19 -83 0 -121 l-16 -29
-197 2 -197 3 -3 26 c-2 17 6 34 24 52 17 17 22 27 13 27 -33 1 -42 16 -28 48
7 17 17 28 21 26 5 -3 66 -5 136 -6z m-630 -14 c7 -13 31 -15 152 -15 95 1
147 -3 157 -10 7 -7 14 -10 16 -8 1 2 7 13 13 24 8 14 23 21 50 22 30 2 35 0
22 -8 -24 -14 -27 -139 -3 -139 12 0 15 14 15 68 1 50 3 63 11 50 5 -10 9 -46
7 -80 l-3 -63 -94 -3 c-87 -3 -95 -1 -109 19 l-15 22 -8 -21 c-6 -15 -17 -22
-34 -22 -23 0 -25 4 -26 43 l-2 42 -6 -40 -6 -40 -119 -3 c-111 -2 -121 -1
-143 19 -32 31 -33 103 -1 136 27 28 111 33 126 7z m-119 -433 c8 -5 26 -5 42
1 18 6 39 7 57 1 15 -5 38 -7 52 -3 36 10 60 -6 60 -38 l0 -27 19 29 c40 60
91 60 91 0 0 -19 5 -42 11 -52 17 -28 -14 -82 -46 -82 -14 0 -25 5 -25 10 0 6
-13 10 -30 10 -16 0 -30 -5 -30 -11 0 -6 -12 -9 -27 -7 -25 3 -29 8 -34 48 -5
34 -6 37 -7 14 -4 -61 -17 -67 -144 -65 -69 1 -77 3 -83 22 -5 14 0 31 14 50
25 34 26 39 6 39 -22 0 -20 57 3 63 29 8 56 7 71 -2z m-1559 -136 c0 -8 -4
-15 -10 -15 -5 0 -7 7 -4 15 4 8 8 15 10 15 2 0 4 -7 4 -15z m-9006 -52 c-4
-21 -13 -55 -20 -77 -8 -21 -14 -46 -14 -55 0 -33 -26 -50 -105 -72 -44 -12
-88 -23 -97 -26 -26 -8 -34 55 -14 115 31 92 109 151 204 152 l53 0 -7 -37z
m8795 -29 c22 -15 157 -25 318 -24 53 1 73 -11 54 -34 -9 -10 -8 -15 4 -20 9
-3 15 -18 15 -35 0 -25 -6 -31 -35 -41 -19 -6 -39 -9 -45 -5 -14 8 -201 10
-227 1 -13 -4 -33 -1 -50 8 -20 10 -34 11 -46 5 -9 -6 -39 -9 -65 -7 l-47 3
-3 73 c-4 92 6 106 63 97 22 -3 51 -13 64 -21z m-9387 -221 c10 -9 18 -11 18
-6 0 14 26 24 45 17 8 -4 15 -12 15 -20 0 -15 16 -17 176 -14 64 1 104 -3 109
-9 6 -12 -5 -14 -67 -13 l-38 0 1 -52 c2 -51 2 -51 8 -11 5 31 10 40 26 40 16
0 21 -8 23 -37 2 -21 7 -38 11 -38 5 0 6 11 3 25 -5 27 12 55 34 55 10 0 14
-13 14 -40 0 -22 5 -40 10 -40 13 0 13 55 -1 83 -10 21 -9 21 5 3 8 -10 17
-24 20 -30 3 -7 11 -4 20 8 10 13 21 16 33 10 16 -7 16 -8 -4 -11 -56 -10 -55
-63 2 -61 33 1 35 3 35 34 0 18 6 34 14 37 9 4 12 0 9 -13 -8 -31 15 -62 45
-58 26 3 27 6 27 60 1 31 4 60 8 64 4 4 7 -23 7 -59 0 -38 4 -67 10 -67 6 0
10 9 10 20 0 26 8 25 30 -2 10 -13 21 -20 24 -17 4 3 -2 17 -13 30 -19 25 -19
25 5 48 23 22 36 17 13 -6 -7 -7 -6 -15 5 -26 9 -9 16 -27 16 -41 0 -25 -1
-26 -72 -27 -248 -2 -403 2 -407 12 -2 8 -6 7 -11 -1 -7 -11 -105 -14 -235 -7
l-40 2 -3 71 c-2 56 1 75 13 88 20 20 24 20 47 -1z m850 5 c15 15 51 15 65 1
7 -7 17 -8 29 -1 21 10 158 15 187 6 21 -7 22 -31 1 -92 -27 -84 -22 -82 -197
-83 -85 -1 -160 2 -166 5 -6 4 -11 25 -11 47 0 21 -4 39 -10 39 -5 0 -10 13
-10 30 0 38 42 63 77 47 17 -8 27 -7 35 1z m-211 -10 c1 -7 0 -22 -1 -33 -2
-16 0 -17 14 -6 25 21 25 9 0 -17 l-22 -23 -4 46 c-2 25 0 45 4 45 5 0 9 -6 9
-12z m-73 -69 c-22 -13 -23 -23 -1 -44 16 -16 15 -17 -3 -13 -34 6 -31 68 3
68 17 -1 17 -1 1 -11z m-94 -44 c-4 -8 -12 -15 -20 -15 -8 0 -14 7 -14 15 0 8
9 15 20 15 13 0 18 -5 14 -15z m11224 -148 c3 -13 -4 -17 -27 -17 -36 0 -37 3
-15 25 19 19 38 15 42 -8z m-10 -55 c3 -16 -2 -22 -17 -22 -26 0 -36 17 -20
36 16 19 33 13 37 -14z m296 -102 c18 -6 34 -6 52 2 19 9 30 9 44 0 14 -8 26
-8 48 0 24 10 36 9 56 -2 21 -10 31 -11 52 -1 44 20 55 1 52 -88 l-3 -76 -40
-1 c-99 -3 -216 -4 -280 -2 -65 3 -70 5 -73 26 -2 14 5 33 17 46 20 21 20 22
1 34 -26 16 -25 37 2 56 26 19 37 20 72 6z m-736 -662 c7 -7 12 -34 12 -60 0
-26 4 -48 9 -48 10 0 25 30 22 44 -1 4 4 15 11 23 10 12 46 14 236 9 124 -3
229 -9 234 -14 5 -5 8 -33 6 -63 l-3 -54 -65 -4 c-36 -2 -77 -3 -92 -2 -65 2
-74 2 -103 0 -16 -1 -39 -1 -50 0 -11 1 -73 2 -138 1 -65 0 -122 2 -127 5 -6
3 -10 39 -10 80 0 60 3 76 18 84 22 13 26 13 40 -1z m652 2 c13 -7 27 -6 45 2
20 9 31 9 45 0 14 -8 26 -8 49 1 24 9 36 9 51 -1 14 -8 27 -9 45 -2 33 13 73
3 85 -20 14 -27 12 -113 -3 -134 -7 -10 -25 -17 -42 -16 -17 0 -38 0 -47 1
-10 0 -84 0 -165 -1 -92 0 -150 3 -157 10 -8 8 -5 22 11 49 19 33 20 40 8 45
-24 9 -19 55 8 66 30 12 45 12 67 0z m-1730 -258 c13 -15 43 -17 247 -17 l233
0 0 -27 c0 -18 -5 -28 -15 -28 -10 0 -15 -10 -15 -29 0 -40 -18 -51 -86 -54
-46 -1 -64 -7 -80 -24 -15 -17 -33 -23 -62 -23 -44 0 -52 10 -53 63 0 29 -1
30 -11 11 -7 -16 -22 -23 -60 -27 -28 -4 -58 -3 -66 2 -8 4 -45 6 -83 3 l-69
-5 0 86 c0 59 4 87 13 91 22 9 92 -5 107 -22z m590 18 c13 -7 27 -6 45 2 20 9
31 8 50 -2 20 -11 30 -11 51 -1 44 20 55 1 52 -88 -3 -71 -4 -76 -27 -79 -13
-2 -28 1 -34 7 -7 7 -16 7 -30 -1 -25 -13 -188 -11 -202 3 -7 7 -3 23 12 48
19 33 20 40 8 45 -24 9 -19 55 8 66 30 12 45 12 67 0z m308 -88 l-3 -77 -30 0
c-28 0 -30 3 -33 39 -2 22 -11 45 -19 51 -40 30 24 97 70 73 15 -8 17 -20 15
-86z"/>
<path d="M12423 7530 c0 -41 2 -58 4 -37 2 20 2 54 0 75 -2 20 -4 3 -4 -38z"/>
<path d="M12116 7543 c-28 -78 -29 -83 -18 -83 6 0 14 9 17 20 4 13 15 20 32
20 16 0 27 -7 30 -20 4 -16 23 -30 23 -16 0 6 -30 78 -42 104 -16 32 -24 28
-42 -25z m40 -31 c-3 -2 -12 -2 -21 2 -13 5 -13 9 -3 26 13 20 13 20 21 -2 4
-11 5 -23 3 -26z"/>
<path d="M12210 7521 c0 -46 14 -60 58 -59 32 1 32 2 32 50 0 59 -18 64 -22 6
-2 -31 -8 -44 -20 -46 -15 -3 -18 4 -18 42 0 34 -4 46 -15 46 -11 0 -15 -11
-15 -39z"/>
<path d="M12343 7553 c-19 -7 -17 -80 3 -87 31 -12 50 -6 24 7 -35 18 -39 54
-6 63 14 3 26 10 26 15 0 10 -27 11 -47 2z"/>
<path d="M12465 7536 c-16 -23 -11 -54 9 -68 15 -10 66 -10 66 0 0 5 -13 7
-30 4 -23 -3 -30 0 -30 12 0 11 9 16 30 16 22 0 30 5 30 18 0 44 -50 56 -75
18z m50 -6 c3 -5 -3 -10 -14 -10 -12 0 -21 5 -21 10 0 6 6 10 14 10 8 0 18 -4
21 -10z"/>
<path d="M12560 7508 c0 -27 5 -48 10 -48 6 0 10 15 10 34 0 26 5 36 20 41 31
10 24 24 -10 22 -29 -2 -30 -4 -30 -49z"/>
<path d="M12750 7575 c0 -12 4 -13 19 -6 10 6 21 7 25 4 10 -10 7 -43 -4 -43
-5 0 -10 -7 -10 -15 0 -8 -4 -15 -10 -15 -5 0 -14 -9 -20 -20 -10 -19 -8 -20
37 -19 43 1 44 2 15 8 l-32 6 25 35 c32 46 25 80 -16 80 -19 0 -29 -5 -29 -15z"/>
<path d="M12851 7571 c-6 -11 -11 -36 -11 -55 0 -62 72 -76 85 -16 13 61 -48
120 -74 71z m49 -52 c0 -35 -4 -49 -14 -49 -26 0 -37 75 -14 98 19 19 28 3 28
-49z"/>
<path d="M12964 7578 c-4 -6 -2 -14 4 -16 7 -2 12 -24 12 -53 0 -27 3 -49 8
-49 4 0 5 29 4 65 -4 62 -12 79 -28 53z"/>
<path d="M13046 7566 c-10 -39 3 -58 35 -54 16 3 29 2 29 -2 0 -9 -31 -36 -50
-43 -11 -4 -9 -6 5 -6 42 -1 62 36 50 95 -5 29 -10 34 -34 34 -22 0 -30 -6
-35 -24z m62 -17 c4 -21 -34 -31 -48 -13 -7 7 -9 18 -5 24 10 16 49 8 53 -11z"/>
<path d="M12178 7360 c-22 -18 -22 -18 -4 -39 10 -11 27 -23 37 -26 34 -11 22
-35 -16 -35 -19 0 -35 -4 -35 -10 0 -11 39 -13 64 -4 9 3 16 17 16 31 0 18 -8
28 -30 36 -16 6 -30 17 -30 24 0 8 12 13 30 13 34 0 40 15 10 23 -11 3 -30 -3
-42 -13z"/>
<path d="M12270 7310 c0 -40 4 -70 10 -70 6 0 10 18 10 40 0 33 3 40 20 40 17
0 20 -7 20 -40 0 -28 4 -40 14 -40 11 0 13 9 10 38 -9 60 -12 65 -39 60 -21
-4 -25 -1 -25 18 0 13 -4 24 -10 24 -6 0 -10 -30 -10 -70z"/>
<path d="M12380 7364 c0 -8 5 -12 10 -9 6 4 8 11 5 16 -9 14 -15 11 -15 -7z"/>
<path d="M12420 7310 c0 -56 3 -70 15 -70 12 0 15 14 15 70 0 56 -3 70 -15 70
-12 0 -15 -14 -15 -70z"/>
<path d="M12470 7310 c0 -40 4 -70 10 -70 6 0 10 30 10 70 0 40 -4 70 -10 70
-6 0 -10 -30 -10 -70z"/>
<path d="M12383 7290 c0 -30 2 -43 4 -27 2 15 2 39 0 55 -2 15 -4 2 -4 -28z"/>
<path d="M12524 7319 c-17 -19 -17 -23 -3 -47 10 -19 24 -28 47 -30 18 -2 32
1 32 7 0 6 -13 11 -30 11 -20 0 -30 5 -30 15 0 10 10 15 30 15 31 0 39 17 18
38 -18 18 -43 15 -64 -9z m56 -9 c0 -5 -9 -10 -20 -10 -11 0 -20 5 -20 10 0 6
9 10 20 10 11 0 20 -4 20 -10z"/>
<path d="M12620 7288 c0 -27 5 -48 10 -48 6 0 10 16 10 36 0 27 5 37 20 41 31
8 24 22 -10 20 -29 -2 -30 -4 -30 -49z"/>
<path d="M12749 7363 c-13 -15 -12 -16 9 -11 34 9 39 -16 11 -57 -13 -19 -27
-35 -31 -35 -5 0 -8 -4 -8 -10 0 -5 20 -10 45 -10 48 0 62 17 19 22 l-26 3 21
27 c26 33 27 64 2 78 -25 13 -26 13 -42 -7z"/>
<path d="M12857 7368 c-13 -7 -17 -23 -17 -62 0 -54 8 -66 45 -66 22 0 37 61
24 97 -12 36 -28 45 -52 31z m43 -65 c0 -40 -2 -44 -22 -41 -18 2 -24 11 -26
36 -4 37 12 64 34 55 9 -3 14 -20 14 -50z"/>
<path d="M12944 7365 c-18 -15 -18 -15 11 -13 43 4 45 -28 5 -67 -16 -16 -30
-32 -30 -37 0 -4 20 -8 45 -8 25 0 45 5 45 10 0 6 -14 10 -31 10 l-31 0 26 31
c31 36 33 64 7 79 -25 13 -24 13 -47 -5z"/>
<path d="M13050 7360 c-23 -23 -26 -57 -8 -95 12 -27 36 -33 56 -13 7 7 12 33
12 60 0 37 -4 50 -20 58 -15 8 -24 6 -40 -10z m50 -51 c0 -31 -12 -49 -31 -49
-16 0 -19 7 -19 44 0 26 5 46 13 49 15 6 37 -20 37 -44z"/>
<path d="M12180 7095 c0 -43 4 -75 10 -75 6 0 10 32 10 75 0 43 -4 75 -10 75
-6 0 -10 -32 -10 -75z"/>
<path d="M12300 7142 c0 -26 -3 -28 -29 -24 -34 5 -47 -19 -36 -68 6 -27 10
-30 41 -28 l34 2 0 73 c0 40 -2 73 -5 73 -3 0 -5 -13 -5 -28z m-5 -67 c0 -31
-19 -42 -44 -26 -9 6 -11 18 -7 36 5 20 12 26 29 23 17 -2 22 -10 22 -33z"/>
<path d="M11958 7154 c-12 -11 -10 -134 2 -134 6 0 10 14 10 30 0 27 3 30 30
30 27 0 30 -3 30 -30 0 -18 5 -30 13 -30 9 0 12 18 12 63 -1 61 -17 91 -23 42
-3 -20 -9 -25 -32 -25 -25 0 -29 4 -32 31 -2 17 -6 27 -10 23z"/>
<path d="M12109 7111 c35 -9 37 -29 4 -33 -22 -2 -28 -8 -28 -28 0 -21 5 -25
33 -26 32 -1 32 -1 32 48 0 48 0 48 -32 47 -30 -1 -30 -2 -9 -8z m29 -53 c-5
-15 -48 -24 -48 -10 0 14 12 22 33 22 10 0 17 -5 15 -12z"/>
<path d="M12350 7111 c0 -5 9 -7 20 -4 14 4 20 0 20 -11 0 -10 -9 -16 -25 -16
-14 0 -28 -7 -31 -15 -10 -24 15 -44 52 -43 32 1 34 3 34 38 0 20 -5 41 -12
48 -14 14 -58 16 -58 3z m40 -56 c0 -8 -7 -15 -15 -15 -8 0 -15 7 -15 15 0 8
7 15 15 15 8 0 15 -7 15 -15z"/>
<path d="M12440 7068 c0 -59 18 -64 22 -5 2 34 7 42 23 42 16 0 21 -9 26 -45
l7 -45 -2 50 -1 50 -37 0 -38 1 0 -48z"/>
<path d="M12562 7108 c-16 -16 -15 -48 2 -70 15 -21 66 -24 66 -5 0 7 -11 13
-27 12 -14 0 -28 6 -30 13 -3 8 6 12 27 12 27 0 31 3 28 23 -3 25 -45 36 -66
15z m48 -13 c0 -8 -9 -15 -20 -15 -11 0 -20 7 -20 15 0 8 9 15 20 15 11 0 20
-7 20 -15z"/>
<path d="M12210 6880 c0 -73 17 -98 22 -33 2 27 8 39 21 41 14 3 17 -4 17 -37
0 -26 5 -41 13 -41 8 0 11 14 9 45 -4 42 -6 45 -33 45 -24 0 -29 4 -29 25 0
14 -4 25 -10 25 -6 0 -10 -30 -10 -70z"/>
<path d="M12367 6943 c-4 -3 -7 -35 -7 -70 0 -49 3 -63 15 -63 12 0 15 14 15
70 0 64 -6 81 -23 63z"/>
<path d="M12417 6943 c-11 -10 -8 -133 3 -133 6 0 10 30 10 70 0 70 -1 76 -13
63z"/>
<path d="M12451 6934 c0 -11 3 -14 6 -6 3 7 2 16 -1 19 -3 4 -6 -2 -5 -13z"/>
<path d="M12130 6933 c-37 -14 -31 -45 11 -67 36 -18 31 -41 -8 -40 -18 1 -33
-2 -33 -7 0 -5 18 -9 40 -9 35 0 40 3 40 23 0 12 3 32 6 45 5 17 2 22 -12 22
-16 0 -16 -2 -4 -10 24 -15 2 -24 -25 -10 -36 19 -32 40 8 40 24 0 28 3 17 10
-17 11 -19 11 -40 3z"/>
<path d="M12693 6933 c-7 -2 -13 -9 -13 -14 0 -6 7 -6 19 0 41 23 42 -21 0
-72 l-30 -37 48 1 c43 2 45 2 14 8 l-33 6 26 28 c25 27 36 77 17 77 -5 0 -15
2 -23 4 -7 3 -19 2 -25 -1z"/>
<path d="M12798 6933 c-15 -4 -18 -15 -18 -64 l0 -59 30 0 c24 0 33 6 41 27
20 53 -9 106 -53 96z m42 -64 c0 -42 -13 -57 -35 -39 -18 15 -19 53 -4 81 16
30 39 5 39 -42z"/>
<path d="M12998 6932 c-9 -2 -20 -13 -24 -25 -9 -28 31 -63 52 -46 8 6 14 8
14 3 -1 -16 -25 -42 -45 -47 -14 -3 -10 -5 11 -6 37 -1 44 11 44 74 0 44 -13
56 -52 47z m39 -47 c-2 -5 -13 -11 -25 -13 -18 -3 -22 2 -22 21 0 14 6 27 13
30 14 5 39 -22 34 -38z"/>
<path d="M12889 6913 c-12 -15 -12 -16 4 -10 15 6 17 0 17 -43 0 -28 5 -50 10
-50 6 0 10 27 10 60 0 63 -13 77 -41 43z"/>
<path d="M12323 6855 c0 -27 2 -38 4 -22 2 15 2 37 0 50 -2 12 -4 0 -4 -28z"/>
<path d="M12460 6879 c-20 -36 2 -69 45 -69 19 0 35 4 35 8 0 5 -13 7 -30 4
-23 -3 -30 0 -30 12 0 11 9 16 31 16 26 0 30 3 27 23 -4 32 -62 37 -78 6z m55
1 c3 -5 -3 -10 -14 -10 -12 0 -21 5 -21 10 0 6 6 10 14 10 8 0 18 -4 21 -10z"/>
<path d="M12572 6888 c-14 -14 -16 -78 -2 -78 6 0 10 12 10 28 0 31 9 47 30
55 11 4 9 6 -5 6 -12 1 -26 -4 -33 -11z"/>
<path d="M12713 7153 c-23 -9 -14 -20 12 -15 21 4 25 1 25 -20 0 -14 -12 -34
-30 -48 -42 -36 -38 -50 15 -50 25 0 45 5 45 10 0 6 -14 10 -31 10 l-31 0 26
31 c31 36 33 64 7 79 -11 5 -21 10 -23 9 -2 0 -9 -3 -15 -6z"/>
<path d="M12816 7144 c-19 -19 -21 -83 -3 -108 19 -26 49 -16 59 19 17 64 -21
125 -56 89z m42 -48 c4 -43 -7 -60 -31 -50 -30 11 -19 98 12 92 11 -2 17 -16
19 -42z"/>
<path d="M13010 7142 c-17 -13 -21 -24 -16 -40 9 -26 28 -30 25 -4 -3 31 1 42
15 42 22 0 28 -31 9 -52 -16 -18 -16 -19 1 -12 16 6 17 4 7 -14 -7 -12 -21
-22 -31 -22 -11 0 -20 -4 -20 -10 0 -5 11 -10 24 -10 52 0 75 97 30 127 -19
12 -24 11 -44 -5z"/>
<path d="M12918 7143 c-10 -2 -18 -11 -18 -20 0 -13 3 -13 15 -3 13 11 15 5
15 -44 0 -31 5 -56 10 -56 6 0 10 28 10 65 0 36 -3 64 -7 64 -5 -1 -16 -3 -25
-6z"/>
<path d="M12000 6660 c0 -40 4 -70 10 -70 6 0 10 10 10 22 l0 21 25 -23 c31
-29 42 -22 14 9 l-21 22 23 25 c13 14 17 24 10 24 -7 0 -21 -10 -32 -22 l-18
-23 -1 43 c0 23 -4 42 -10 42 -6 0 -10 -30 -10 -70z"/>
<path d="M11780 6655 l0 -65 33 0 c47 0 56 10 55 60 -2 57 -12 70 -54 70 l-34
0 0 -65z m68 28 c-5 -26 -44 -29 -51 -4 -4 18 0 21 25 21 23 0 29 -4 26 -17z
m0 -55 c-5 -34 -44 -37 -50 -4 -5 23 -2 26 24 26 25 0 29 -4 26 -22z"/>
<path d="M11905 6681 c-4 -7 4 -11 19 -11 31 0 35 -17 5 -22 -24 -3 -48 -33
-36 -45 5 -4 24 -8 43 -8 l35 -2 -3 46 c-3 41 -6 46 -30 49 -14 2 -29 -2 -33
-7z m43 -63 c-7 -19 -38 -22 -38 -4 0 10 9 16 21 16 12 0 19 -5 17 -12z"/>
<path d="M12102 6678 c-18 -18 -15 -75 4 -82 22 -9 64 -7 64 2 0 4 -12 8 -27
7 -41 0 -40 23 1 27 34 3 35 4 23 28 -14 28 -46 37 -65 18z m48 -18 c0 -5 -9
-10 -21 -10 -11 0 -17 5 -14 10 3 6 13 10 21 10 8 0 14 -4 14 -10z"/>
<path d="M12190 6638 c0 -26 5 -48 10 -48 6 0 10 15 10 34 0 26 5 36 20 41 30
10 24 24 -10 23 -29 -1 -30 -3 -30 -50z"/>
<path d="M12315 6710 c-10 -17 2 -25 18 -12 8 7 17 9 20 5 14 -14 6 -40 -24
-76 l-30 -37 48 2 c37 1 40 2 15 5 l-33 4 32 41 c25 31 30 44 22 57 -12 19
-58 27 -68 11z"/>
<path d="M12414 6686 c-9 -51 7 -91 37 -91 30 0 45 37 35 88 -6 33 -10 37 -36
37 -25 0 -30 -5 -36 -34z m62 -12 c7 -28 -9 -74 -26 -74 -18 0 -32 52 -21 77
14 31 39 29 47 -3z"/>
<path d="M12615 6689 c-30 -57 1 -111 55 -94 14 4 20 15 20 36 0 25 -5 30 -30
36 -16 3 -30 9 -30 14 0 12 36 30 44 22 3 -3 6 -1 6 5 0 7 -11 12 -25 12 -17
0 -29 -9 -40 -31z m50 -39 c10 -16 -5 -50 -21 -50 -9 0 -14 11 -14 30 0 30 21
42 35 20z"/>
<path d="M12360 6413 c0 -67 0 -68 27 -70 41 -2 63 14 63 46 0 34 -22 55 -50
48 -16 -4 -20 0 -20 19 0 13 -4 24 -10 24 -6 0 -10 -29 -10 -67z m64 -8 c8
-23 -4 -45 -25 -45 -14 0 -19 7 -19 30 0 23 5 30 19 30 10 0 21 -7 25 -15z"/>
<path d="M12390 6390 c0 -5 5 -10 10 -10 6 0 10 5 10 10 0 6 -4 10 -10 10 -5
0 -10 -4 -10 -10z"/>
<path d="M12150 6404 l0 -65 36 3 c65 5 73 69 10 76 -34 4 -35 32 -1 32 16 0
25 -6 25 -15 0 -8 5 -15 10 -15 16 0 11 37 -6 44 -9 3 -29 6 -45 6 l-29 0 0
-66z m68 -26 c3 -13 -3 -18 -22 -18 -20 0 -26 5 -26 21 0 15 5 20 22 17 13 -2
24 -11 26 -20z"/>
<path d="M12257 6428 c5 -7 15 -31 22 -52 13 -37 12 -41 -9 -58 l-22 -18 25 0
c15 0 27 7 30 18 3 9 14 41 25 70 22 57 15 72 -10 20 l-15 -33 -17 33 c-9 17
-21 32 -27 32 -7 0 -8 -5 -2 -12z"/>
<path d="M12476 6424 c-18 -46 1 -84 41 -84 32 0 29 18 -4 22 -42 5 -41 28 1
28 20 0 36 4 36 9 0 26 -15 41 -40 41 -16 0 -30 -7 -34 -16z m59 -14 c4 -6 -7
-10 -25 -10 -18 0 -29 4 -25 10 3 6 15 10 25 10 10 0 22 -4 25 -10z"/>
<path d="M12582 6428 c-7 -7 -12 -24 -12 -38 0 -14 5 -31 12 -38 14 -14 68
-16 68 -2 0 6 -13 10 -30 10 -20 0 -30 5 -30 15 0 10 10 15 30 15 18 0 30 5
30 13 0 18 -21 37 -40 37 -9 0 -21 -5 -28 -12z m48 -18 c0 -5 -9 -10 -20 -10
-11 0 -20 5 -20 10 0 6 9 10 20 10 11 0 20 -4 20 -10z"/>
<path d="M12262 6350 c0 -14 2 -19 5 -12 2 6 2 18 0 25 -3 6 -5 1 -5 -13z"/>
<path d="M12107 6279 c-9 -6 -17 -16 -17 -24 0 -7 -6 -16 -12 -18 -10 -4 -10
-6 0 -6 7 -1 12 -16 12 -41 0 -22 5 -40 10 -40 6 0 10 18 10 39 0 22 5 42 13
44 10 4 10 6 0 6 -20 1 -15 29 5 33 9 2 13 6 7 10 -6 3 -18 2 -28 -3z"/>
<path d="M11880 6265 c0 -8 -6 -26 -14 -38 -7 -12 -16 -35 -20 -52 -6 -27 -5
-28 7 -12 8 9 26 17 40 17 14 0 31 -8 36 -17 18 -31 13 7 -8 62 -19 49 -41 71
-41 40z m30 -52 c0 -7 -7 -13 -15 -13 -15 0 -21 31 -8 43 8 8 23 -12 23 -30z"/>
<path d="M12035 6270 c3 -5 10 -10 16 -10 5 0 9 5 9 10 0 6 -7 10 -16 10 -8 0
-12 -4 -9 -10z"/>
<path d="M12340 6270 c0 -5 5 -10 10 -10 6 0 10 5 10 10 0 6 -4 10 -10 10 -5
0 -10 -4 -10 -10z"/>
<path d="M11971 6191 c2 -35 3 -38 6 -16 10 65 53 78 53 15 0 -29 4 -40 15
-40 11 0 15 12 15 45 l0 46 -45 -2 -45 -3 1 -45z"/>
<path d="M12147 6218 c-4 -12 -4 -33 -1 -45 5 -18 13 -23 39 -23 37 0 51 23
41 66 -5 19 -13 24 -40 24 -26 0 -35 -5 -39 -22z m61 -20 c-2 -25 -8 -33 -23
-33 -20 0 -31 25 -21 51 3 8 15 14 26 14 18 0 21 -5 18 -32z"/>
<path d="M12241 6234 c2 -5 11 -26 19 -46 8 -21 19 -38 25 -38 11 0 48 80 41
88 -10 9 -26 -11 -26 -33 0 -37 -18 -39 -28 -4 -4 18 -14 35 -21 37 -8 3 -12
1 -10 -4z"/>
<path d="M12340 6195 c0 -25 5 -45 10 -45 6 0 10 20 10 45 0 25 -4 45 -10 45
-5 0 -10 -20 -10 -45z"/>
<path d="M12394 6226 c-3 -8 -4 -27 -2 -43 2 -24 8 -28 36 -31 17 -2 32 1 32
6 0 5 -10 8 -22 8 -19 -1 -23 4 -23 29 0 23 6 31 25 36 23 6 22 7 -8 8 -20 1
-35 -5 -38 -13z"/>
<path d="M12733 6473 c-21 -8 -14 -26 8 -20 34 9 34 -21 0 -63 -17 -21 -31
-41 -31 -44 0 -3 20 -6 45 -6 25 0 45 5 45 10 0 6 -11 10 -25 10 -30 0 -31 4
-5 37 24 31 25 46 4 67 -16 17 -21 18 -41 9z"/>
<path d="M12831 6461 c-25 -25 -27 -68 -5 -99 19 -27 36 -28 58 -3 24 27 18
89 -11 108 -19 13 -24 12 -42 -6z m49 -52 c0 -27 -11 -49 -25 -49 -19 0 -27
44 -14 77 10 27 11 27 25 9 8 -11 14 -28 14 -37z"/>
<path d="M12924 6465 c-18 -15 -18 -15 11 -13 41 4 44 -21 6 -63 -17 -18 -31
-37 -31 -41 0 -5 18 -8 40 -8 22 0 40 5 40 10 0 6 -12 10 -26 10 l-26 0 26 31
c31 36 33 64 7 79 -25 13 -24 13 -47 -5z"/>
<path d="M13037 6468 c-13 -7 -17 -23 -17 -62 0 -54 8 -66 45 -66 22 0 37 61
24 97 -12 36 -28 45 -52 31z m43 -65 c0 -40 -2 -44 -22 -41 -18 2 -24 11 -26
36 -4 37 12 64 34 55 9 -3 14 -20 14 -50z"/>
<path d="M12530 6270 c-8 -5 -11 -12 -7 -16 4 -4 13 -2 19 4 7 7 16 12 20 12
10 0 11 -57 1 -62 -5 -2 -19 -15 -32 -31 l-24 -27 49 1 c46 2 47 2 14 9 -28 5
-31 8 -17 14 9 5 17 12 17 18 0 5 7 16 15 24 19 19 19 29 -1 48 -18 18 -32 20
-54 6z"/>
<path d="M12810 6268 c0 -5 14 -8 30 -8 34 0 39 -17 14 -55 -9 -13 -14 -32
-11 -42 3 -13 9 -7 21 22 9 22 21 48 26 57 14 26 14 26 -35 30 -25 2 -45 0
-45 -4z"/>
<path d="M12625 6240 c-4 -16 -4 -43 0 -60 5 -25 12 -30 35 -30 25 0 30 5 36
35 10 57 -1 85 -35 85 -25 0 -31 -5 -36 -30z m59 4 c10 -27 7 -61 -9 -74 -18
-15 -31 -7 -39 25 -12 46 32 90 48 49z"/>
<path d="M12730 6255 c-10 -12 -10 -15 4 -15 12 0 16 -10 16 -45 0 -25 5 -45
10 -45 6 0 10 27 10 60 0 62 -13 77 -40 45z"/>
<path d="M10950 6103 c0 -11 7 -23 15 -27 19 -7 19 3 0 28 -15 19 -15 19 -15
-1z"/>
<path d="M10980 6111 c0 -5 7 -14 15 -21 12 -10 15 -10 15 3 0 8 -7 17 -15 21
-8 3 -15 2 -15 -3z"/>
<path d="M10740 6000 c0 -73 17 -98 22 -33 2 27 8 39 21 41 14 3 17 -4 17 -37
0 -27 4 -41 13 -41 10 0 11 12 7 48 -5 43 -7 47 -32 47 -23 -1 -28 4 -28 22 0
13 -4 23 -10 23 -6 0 -10 -30 -10 -70z"/>
<path d="M10260 5995 c0 -65 0 -65 28 -65 16 0 37 6 48 14 16 12 17 18 7 34
-6 11 -9 30 -6 42 7 26 -10 40 -49 40 -28 0 -28 -1 -28 -65z m58 28 c-2 -10
-13 -19 -26 -21 -17 -3 -22 2 -22 17 0 16 6 21 26 21 19 0 25 -5 22 -17z m2
-58 c0 -20 -5 -25 -25 -25 -20 0 -25 5 -25 25 0 20 5 25 25 25 20 0 25 -5 25
-25z"/>
<path d="M10895 6049 c-11 -16 3 -23 19 -10 17 14 36 7 36 -14 0 -8 -13 -29
-30 -47 -16 -18 -30 -36 -30 -40 0 -5 19 -7 43 -7 29 2 34 3 15 6 -16 2 -28 6
-28 8 0 2 11 21 25 41 19 28 22 40 14 55 -10 20 -54 26 -64 8z"/>
<path d="M11000 6041 c-15 -29 -12 -87 5 -101 8 -7 25 -10 40 -6 22 6 25 11
25 54 0 26 -5 53 -12 60 -18 18 -46 14 -58 -7z m48 -59 c-2 -25 -8 -37 -18
-37 -20 0 -27 84 -8 96 18 11 30 -14 26 -59z"/>
<path d="M11094 6026 c-9 -51 7 -91 37 -91 30 0 45 37 35 88 -6 33 -10 37 -36
37 -25 0 -30 -5 -36 -34z m62 -12 c7 -28 -9 -74 -26 -74 -18 0 -32 52 -21 77
14 31 39 29 47 -3z"/>
<path d="M11215 6027 c-37 -61 -37 -67 -5 -67 19 0 30 -6 33 -17 4 -16 5 -16
6 -1 0 9 9 19 19 21 16 4 16 5 0 6 -14 1 -18 10 -18 46 0 25 -3 45 -7 45 -5 0
-17 -15 -28 -33z m25 -27 c0 -23 -4 -30 -20 -30 -20 0 -20 1 -5 30 9 17 18 30
20 30 3 0 5 -13 5 -30z"/>
<path d="M10371 5980 c1 -47 3 -50 8 -20 4 23 14 38 29 45 12 5 22 13 22 17 0
12 -28 9 -36 -3 -4 -8 -9 -7 -15 2 -5 9 -8 -7 -8 -41z"/>
<path d="M10440 6021 c0 -6 11 -11 24 -11 36 0 40 -17 6 -24 -24 -4 -30 -11
-30 -31 0 -23 3 -25 35 -23 l36 2 -3 46 c-3 43 -5 45 -35 48 -19 2 -33 -1 -33
-7z m54 -66 c-4 -8 -15 -15 -25 -15 -10 0 -19 7 -19 15 0 9 9 15 25 15 18 0
23 -4 19 -15z"/>
<path d="M10540 5981 c0 -28 5 -51 10 -51 6 0 10 18 10 41 0 36 2 40 23 37 17
-2 23 -12 28 -43 7 -38 7 -38 5 10 l-1 50 -37 3 -38 3 0 -50z"/>
<path d="M10662 6018 c-7 -7 -12 -27 -12 -45 0 -27 5 -34 26 -39 14 -4 30 -2
35 3 6 6 1 9 -13 9 -19 -1 -23 4 -23 29 0 23 5 31 23 33 12 2 22 8 22 13 0 13
-44 11 -58 -3z"/>
<path d="M10702 5984 c-7 -8 -8 -14 -3 -14 10 0 25 19 20 25 -2 1 -10 -3 -17
-11z"/>
<path d="M11184 5919 c-4 -7 -27 -10 -60 -7 -39 3 -55 1 -58 -9 -3 -8 -2 -12
3 -9 5 3 14 -8 21 -24 11 -27 17 -30 56 -30 39 0 47 4 63 31 11 18 17 38 14
45 -6 17 -29 18 -39 3z"/>
<path d="M10980 5895 c0 -8 7 -15 15 -15 8 0 24 -9 35 -20 11 -11 22 -20 25
-20 13 0 3 32 -15 50 -24 24 -60 27 -60 5z"/>
<path d="M10912 5783 c2 -65 2 -66 5 -15 l4 53 30 -40 c16 -23 29 -45 29 -51
0 -5 7 -10 15 -10 12 0 15 14 15 65 0 40 -4 65 -11 65 -7 0 -10 -18 -7 -50 1
-28 2 -50 1 -50 -1 0 -16 23 -34 50 -18 28 -36 50 -41 50 -4 0 -7 -30 -6 -67z"/>
<path d="M11495 5839 c-11 -16 3 -23 19 -10 17 14 36 7 36 -14 0 -8 -13 -29
-30 -47 -16 -18 -30 -36 -30 -40 0 -5 21 -7 48 -6 36 1 39 2 15 5 -18 2 -33 7
-33 9 0 3 12 20 26 39 21 28 23 37 14 54 -11 22 -54 29 -65 10z"/>
<path d="M11599 5826 c-12 -27 -5 -91 12 -102 6 -3 21 -3 35 0 23 6 25 10 22
64 -3 54 -5 57 -30 60 -22 3 -30 -2 -39 -22z m61 -41 c0 -28 -24 -60 -38 -51
-16 10 -15 79 0 94 10 10 15 9 25 -5 7 -9 13 -26 13 -38z"/>
<path d="M11694 5816 c-9 -51 7 -91 37 -91 30 0 45 37 35 88 -6 33 -10 37 -36
37 -25 0 -30 -5 -36 -34z m62 -12 c7 -28 -9 -74 -26 -74 -18 0 -32 52 -21 77
14 31 39 29 47 -3z"/>
<path d="M11802 5838 c-26 -26 1 -84 34 -71 12 4 15 1 12 -13 -1 -10 -14 -21
-28 -25 -20 -6 -21 -7 -5 -8 28 -1 42 10 54 43 21 52 -31 110 -67 74z m48 -28
c0 -11 -5 -22 -11 -26 -16 -10 -32 11 -24 34 7 25 35 18 35 -8z"/>
<path d="M11042 5773 c3 -47 4 -48 39 -51 l37 -3 3 50 c3 36 0 51 -8 51 -9 0
-13 -16 -13 -45 0 -38 -3 -45 -20 -45 -17 0 -20 7 -20 45 0 25 -5 45 -11 45
-6 0 -9 -19 -7 -47z"/>
<path d="M11150 5784 c0 -18 3 -41 7 -51 6 -13 9 -8 13 22 4 32 10 41 28 43
20 3 22 -1 22 -37 0 -23 4 -41 8 -41 4 0 5 21 2 48 -5 47 -5 47 -42 47 -36 1
-38 -1 -38 -31z"/>
<path d="M11271 5801 c-14 -26 -14 -54 1 -69 13 -13 68 -17 68 -4 0 4 -12 8
-27 7 -14 0 -28 6 -30 13 -3 8 6 12 27 12 28 0 31 3 28 28 -4 35 -51 45 -67
13z m54 -11 c4 -6 -5 -10 -19 -10 -14 0 -26 5 -26 10 0 6 9 10 19 10 11 0 23
-4 26 -10z"/>
<path d="M11366 5804 c-7 -19 10 -44 30 -44 8 0 14 -7 14 -16 0 -12 -7 -15
-25 -12 -14 3 -25 1 -25 -3 0 -5 14 -9 30 -9 44 0 50 26 14 56 l-29 23 28 1
c15 0 27 5 27 10 0 17 -57 11 -64 -6z"/>
<path d="M11010 5672 c1 -15 9 -78 18 -141 l18 -114 13 44 c7 24 19 62 26 84
21 66 26 96 20 124 -5 24 -11 27 -50 29 -43 1 -45 0 -45 -26z"/>
<path d="M11121 5684 c0 -11 3 -14 6 -6 3 7 2 16 -1 19 -3 4 -6 -2 -5 -13z"/>
<path d="M11146 5622 c-7 -21 -1 -58 25 -167 5 -22 14 -67 19 -100 6 -33 16
-79 23 -102 l12 -41 48 31 c46 30 47 31 29 51 -20 23 -70 117 -82 156 -5 14
-18 50 -30 80 -12 30 -25 69 -29 85 -7 29 -8 29 -15 7z"/>
<path d="M11970 5605 c0 -21 -5 -25 -30 -25 -29 0 -30 -2 -30 -45 l0 -45 40 0
40 0 0 70 c0 40 -4 70 -10 70 -5 0 -10 -11 -10 -25z m0 -70 c0 -37 -18 -47
-40 -20 -16 19 -3 55 21 55 15 0 19 -7 19 -35z"/>
<path d="M11865 5610 c3 -5 8 -10 11 -10 2 0 4 5 4 10 0 6 -5 10 -11 10 -5 0
-7 -4 -4 -10z"/>
<path d="M11650 5550 c0 -33 4 -60 10 -60 6 0 10 11 10 25 0 14 6 25 13 25 8
0 20 -11 27 -25 7 -14 17 -25 22 -25 5 0 2 14 -7 30 -9 17 -11 30 -5 30 5 0
10 14 10 30 0 28 -2 30 -40 30 l-40 0 0 -60z m65 40 c8 -13 -13 -40 -31 -40
-8 0 -14 10 -14 25 0 18 5 25 19 25 11 0 23 -5 26 -10z"/>
<path d="M11110 5579 c-6 -11 -10 -28 -8 -37 2 -10 8 -1 15 21 12 41 10 48 -7
16z"/>
<path d="M11764 5566 c-3 -8 -4 -27 -2 -43 3 -24 8 -28 41 -31 20 -2 37 1 37
5 0 5 -12 9 -27 8 -14 0 -28 6 -30 13 -3 8 6 12 27 12 27 0 31 3 28 23 -2 17
-11 23 -36 25 -21 2 -34 -2 -38 -12z m56 -6 c0 -5 -9 -10 -21 -10 -11 0 -17 5
-14 10 3 6 13 10 21 10 8 0 14 -4 14 -10z"/>
<path d="M11860 5535 c0 -25 5 -45 10 -45 6 0 10 20 10 45 0 25 -4 45 -10 45
-5 0 -10 -20 -10 -45z"/>
<path d="M11111 5483 c-7 -27 -19 -73 -27 -103 -25 -93 -24 -194 3 -204 9 -4
21 -2 27 4 5 5 25 10 44 10 32 0 34 -2 29 -27 -7 -35 1 -53 23 -53 11 0 22 -4
25 -10 3 -6 -5 -10 -19 -10 -16 0 -27 -7 -31 -20 -9 -29 2 -41 36 -38 28 2 29
4 29 49 0 44 -2 48 -27 52 -16 2 -11 3 10 2 36 -3 38 -2 35 23 -2 22 2 28 20
30 13 2 22 -2 22 -9 0 -10 4 -9 16 2 10 10 14 29 12 50 l-3 34 -41 -37 c-23
-21 -44 -34 -48 -31 -4 4 -4 0 0 -10 3 -9 2 -17 -4 -17 -6 0 -13 6 -15 13 -4
10 -6 10 -6 0 -1 -7 -6 -13 -12 -13 -5 0 -8 4 -4 9 3 6 1 29 -4 53 -5 24 -16
77 -25 118 -34 163 -38 180 -46 180 -4 0 -13 -21 -19 -47z m123 -428 c-4 -8
-15 -15 -25 -15 -10 0 -19 7 -19 15 0 9 9 15 25 15 18 0 23 -4 19 -15z"/>
<path d="M11081 5480 c-7 -25 -19 -61 -26 -80 -6 -19 -9 -46 -5 -60 6 -23 8
-21 14 15 4 22 14 61 23 87 8 26 13 56 11 65 -2 10 -9 -1 -17 -27z"/>
<path d="M11021 5270 c-7 -25 -17 -55 -22 -67 -5 -13 -5 -23 -1 -23 12 0 29
14 35 30 4 12 6 12 6 -2 1 -9 6 -20 13 -24 7 -5 8 -3 3 6 -4 7 -11 38 -15 69
l-6 56 -13 -45z"/>
<path d="M11143 5163 c-7 -3 -13 -11 -13 -18 0 -22 -29 -26 -40 -5 -8 14 -21
20 -45 20 l-35 0 0 -65 c0 -37 4 -65 10 -65 6 0 10 11 10 25 0 17 6 25 18 25
9 0 26 7 36 15 35 27 48 19 44 -25 -2 -22 0 -40 4 -40 5 0 8 18 8 39 0 22 6
42 13 45 10 5 10 7 0 12 -18 8 -16 22 5 26 9 2 13 6 7 9 -5 4 -16 4 -22 2z
m-68 -43 c0 -8 -10 -16 -22 -18 -18 -3 -23 2 -23 18 0 16 5 21 23 18 12 -2 22
-10 22 -18z"/>
<path d="M11353 5163 c-7 -2 -13 -11 -13 -19 0 -8 -7 -14 -15 -14 -8 0 -15 -4
-15 -10 0 -5 7 -10 16 -10 13 0 15 -8 12 -40 -2 -22 0 -40 4 -40 5 0 8 18 8
39 0 22 5 42 13 44 9 4 9 8 -2 15 -16 11 -5 36 11 26 7 -4 8 -2 4 4 -4 7 -8
12 -9 11 -1 0 -8 -3 -14 -6z"/>
<path d="M11280 5150 c0 -5 5 -10 10 -10 6 0 10 5 10 10 0 6 -4 10 -10 10 -5
0 -10 -4 -10 -10z"/>
<path d="M11610 5145 c0 -12 4 -14 19 -6 14 8 22 7 31 -4 10 -13 9 -20 -6 -38
-11 -12 -25 -26 -31 -30 -7 -4 -13 -15 -13 -22 0 -11 11 -15 43 -14 41 2 41 2
8 8 l-33 6 27 29 c37 40 32 80 -12 84 -25 2 -33 -1 -33 -13z"/>
<path d="M11709 5139 c-13 -26 -5 -89 13 -101 48 -30 89 44 58 103 -14 26 -56
25 -71 -2z m61 -38 c0 -31 -13 -61 -25 -61 -18 0 -27 55 -14 88 10 26 11 26
25 8 8 -11 14 -27 14 -35z"/>
<path d="M11824 5148 c-4 -6 -2 -14 4 -16 7 -2 12 -24 12 -53 0 -27 3 -49 8
-49 4 0 5 29 4 65 -4 62 -12 79 -28 53z"/>
<path d="M11917 5153 c-4 -3 -7 -30 -7 -59 0 -52 8 -64 46 -64 24 0 37 50 24
93 -8 29 -16 37 -34 37 -12 0 -26 -3 -29 -7z m53 -64 c0 -42 -13 -57 -35 -39
-18 15 -20 71 -3 88 19 19 38 -6 38 -49z"/>
<path d="M11278 5068 l-3 -63 -45 4 c-25 1 -51 7 -57 13 -9 7 -17 7 -27 -1 -7
-6 -20 -9 -27 -6 -8 3 -20 -4 -27 -15 -10 -17 -10 -20 5 -21 10 -1 21 -1 26 0
4 0 7 -10 7 -24 0 -16 6 -25 15 -25 8 0 15 5 15 11 0 6 7 3 16 -5 20 -20 63
-21 91 -1 18 13 22 13 27 0 4 -12 10 -10 30 10 14 14 34 25 46 25 40 0 18 34
-27 43 -28 5 -33 4 -33 -12 0 -12 -10 -21 -25 -25 -29 -7 -45 -1 -45 17 0 7 4
6 10 -3 7 -12 13 -12 27 -4 14 8 19 27 21 78 2 39 -1 66 -7 66 -6 0 -11 -28
-13 -62z"/>
<path d="M11400 5121 c0 -6 9 -11 20 -11 27 0 26 -18 -1 -22 -24 -3 -48 -33
-36 -45 5 -4 24 -8 43 -8 l35 -2 -3 46 c-3 42 -5 46 -30 49 -16 2 -28 -1 -28
-7z m38 -63 c-7 -19 -38 -22 -38 -4 0 10 9 16 21 16 12 0 19 -5 17 -12z"/>
<path d="M11490 5078 c0 -27 5 -48 10 -48 6 0 10 16 10 36 0 27 5 37 20 41 31
8 24 22 -10 20 -29 -2 -30 -4 -30 -49z"/>
<path d="M10964 5075 c-17 -46 -44 -132 -44 -139 0 -3 9 -6 20 -6 28 0 41 40
38 114 -3 57 -4 59 -14 31z"/>
<path d="M11160 5089 c0 -5 5 -7 10 -4 6 3 10 8 10 11 0 2 -4 4 -10 4 -5 0
-10 -5 -10 -11z"/>
<path d="M11060 5050 c-9 -6 -10 -10 -3 -10 6 0 15 5 18 10 8 12 4 12 -15 0z"/>
<path d="M11061 5006 c-25 -39 -27 -53 -6 -36 8 7 15 19 15 26 0 8 4 14 9 14
5 0 11 7 15 15 10 28 -12 15 -33 -19z"/>
<path d="M10989 4984 c-14 -37 -6 -39 15 -4 10 17 13 30 6 30 -6 0 -15 -12
-21 -26z"/>
<path d="M11400 4987 c0 -21 20 -35 41 -30 24 7 24 12 2 29 -23 17 -43 18 -43
1z"/>
<path d="M10860 4931 c0 -26 -24 -33 -38 -10 -8 13 -24 19 -47 19 l-35 0 0
-65 c0 -37 4 -65 10 -65 6 0 10 11 10 25 0 18 5 25 19 25 10 0 24 7 31 15 7 8
21 15 33 15 17 0 19 -5 14 -40 -3 -22 -1 -40 4 -40 5 0 9 18 9 39 0 22 5 42
13 44 9 4 9 8 -2 15 -15 11 -6 36 10 27 5 -4 9 -1 9 4 0 6 -9 11 -20 11 -13 0
-20 -7 -20 -19z m-60 -31 c0 -13 -7 -20 -20 -20 -13 0 -20 7 -20 20 0 13 7 20
20 20 13 0 20 -7 20 -20z"/>
<path d="M11010 4935 c0 -9 5 -15 11 -13 6 2 11 8 11 13 0 5 -5 11 -11 13 -6
2 -11 -4 -11 -13z"/>
<path d="M11070 4930 c0 -11 -7 -20 -15 -20 -8 0 -15 -4 -15 -10 0 -5 7 -10
15 -10 11 0 15 -12 17 -42 l1 -43 4 40 c3 22 10 43 16 47 9 6 8 11 -3 18 -13
9 -12 12 4 25 19 15 19 15 -2 15 -15 0 -22 -6 -22 -20z"/>
<path d="M11358 4942 c-10 -2 -18 -8 -18 -13 0 -6 8 -9 18 -8 52 5 56 -14 12
-56 -42 -40 -39 -55 10 -55 22 0 40 5 40 10 0 6 -11 10 -25 10 -27 0 -34 17
-11 26 17 6 28 46 20 67 -7 18 -23 25 -46 19z"/>
<path d="M11451 4931 c-23 -23 -26 -46 -11 -86 13 -34 36 -42 61 -19 27 25 23
91 -8 111 -19 13 -24 12 -42 -6z m49 -46 c0 -33 -10 -55 -25 -55 -18 0 -27 44
-15 75 9 23 13 25 25 15 8 -7 15 -23 15 -35z"/>
<path d="M11556 4934 c-19 -19 -21 -83 -3 -108 19 -26 49 -16 58 18 17 64 -20
125 -55 90z m44 -60 c0 -41 -2 -45 -22 -42 -40 5 -38 88 2 88 17 0 20 -6 20
-46z"/>
<path d="M11657 4937 c-11 -9 -15 -28 -14 -67 2 -49 4 -55 25 -58 27 -4 56 27
41 44 -5 6 -6 25 -3 42 7 37 -22 60 -49 39z m43 -28 c0 -12 -29 -24 -37 -16
-3 4 -3 13 0 21 6 16 37 11 37 -5z m0 -65 c0 -8 -10 -14 -25 -14 -26 0 -35 25
-12 33 18 6 37 -3 37 -19z"/>
<path d="M10920 4900 c0 -5 11 -10 25 -10 35 0 31 -16 -5 -23 -22 -5 -30 -12
-30 -27 0 -25 25 -37 44 -21 11 9 15 9 19 -1 3 -7 6 11 6 40 1 51 1 52 -29 52
-16 0 -30 -4 -30 -10z m48 -52 c-5 -15 -48 -24 -48 -10 0 14 12 22 33 22 10 0
17 -5 15 -12z"/>
<path d="M11010 4846 c0 -53 -3 -65 -17 -70 -11 -3 -7 -4 7 -3 24 2 25 6 28
70 2 42 -1 67 -8 67 -6 0 -10 -26 -10 -64z"/>
<path d="M11130 4900 c0 -5 11 -10 25 -10 35 0 31 -16 -6 -24 -25 -5 -30 -10
-27 -28 2 -18 10 -23 36 -24 32 -1 32 -1 32 48 0 47 -1 48 -30 48 -16 0 -30
-4 -30 -10z m48 -52 c-5 -15 -48 -24 -48 -10 0 14 12 22 33 22 10 0 17 -5 15
-12z"/>
<path d="M11220 4860 c0 -59 16 -67 22 -11 4 45 1 61 -13 61 -5 0 -9 -22 -9
-50z"/>
<path d="M11250 4900 c0 -5 7 -10 15 -10 8 0 15 5 15 10 0 6 -7 10 -15 10 -8
0 -15 -4 -15 -10z"/>
<path d="M11301 4879 c-10 -22 -10 -37 -2 -61 6 -17 11 -42 11 -56 l0 -25 26
24 26 24 -24 5 c-31 8 -36 46 -8 72 12 11 20 21 18 22 -2 1 -10 7 -18 13 -13
10 -18 7 -29 -18z"/>
<path d="M11271 4840 c-1 -33 -18 -50 -51 -50 -20 0 -32 -9 -49 -40 -12 -22
-26 -40 -32 -40 -5 0 -9 -5 -9 -11 0 -6 -21 -38 -46 -71 -37 -47 -44 -62 -33
-69 38 -24 62 -10 186 106 l65 60 -15 70 c-9 39 -16 59 -16 45z"/>
<path d="M11080 4792 c-14 -1 -30 -11 -35 -21 -40 -75 -94 -186 -92 -187 3 -3
59 -6 75 -5 6 1 12 8 12 16 0 8 4 15 8 15 4 0 36 41 70 91 47 67 58 89 43 84
-11 -3 -28 -2 -38 2 -10 5 -29 7 -43 5z"/>
<path d="M11518 4794 c-3 -3 -19 -6 -35 -6 -30 -1 -30 -1 -25 -52 2 -28 6 -53
8 -55 2 -2 15 2 29 9 19 10 25 21 25 46 0 25 5 34 21 39 17 6 19 9 8 16 -16
10 -24 11 -31 3z"/>
<path d="M11596 4791 c-18 -7 -18 -8 5 -14 13 -4 35 -7 49 -7 24 1 24 1 6 15
-22 16 -31 17 -60 6z"/>
<path d="M10854 4755 c-6 -19 -7 -32 -3 -30 4 3 10 -1 13 -7 3 -9 9 -8 20 6
13 17 18 17 33 5 16 -12 17 -12 6 2 -7 8 -10 25 -6 37 8 32 -9 27 -30 -9 -10
-18 -20 -29 -24 -26 -3 4 2 18 11 32 12 18 13 25 4 25 -7 0 -18 -16 -24 -35z"/>
<path d="M11350 4755 l-33 -34 12 -55 12 -55 59 30 c56 30 58 32 50 62 -4 18
-11 44 -14 60 -9 39 -44 36 -86 -8z"/>
<path d="M10950 4751 c0 -11 4 -21 9 -21 18 0 21 18 6 30 -13 10 -15 9 -15 -9z"/>
<path d="M11540 4685 l0 -65 35 0 c19 0 35 5 35 10 0 6 -11 10 -25 10 -18 0
-25 5 -25 20 0 15 7 20 25 20 34 0 32 18 -2 22 -38 4 -36 31 2 39 29 6 29 6
-7 8 l-38 1 0 -65z"/>
<path d="M10980 4725 c-7 -9 -19 -14 -27 -11 -9 4 -11 1 -7 -6 4 -6 1 -16 -7
-22 -8 -6 -20 -28 -26 -48 -9 -31 -8 -38 5 -43 8 -3 16 -4 17 -3 1 2 18 36 38
76 34 67 37 93 7 57z"/>
<path d="M10870 4685 c-18 -19 -38 -31 -44 -28 -7 3 -6 1 1 -7 9 -10 17 -8 41
9 16 11 32 30 35 41 3 11 4 20 3 20 -1 0 -17 -16 -36 -35z"/>
<path d="M11664 4712 c41 -10 46 -32 7 -32 -28 0 -31 -3 -31 -30 0 -29 2 -30
35 -28 l36 2 -3 46 c-3 44 -4 45 -38 47 -33 1 -33 1 -6 -5z m34 -54 c-5 -15
-48 -24 -48 -10 0 14 12 22 33 22 10 0 17 -5 15 -12z"/>
<path d="M11743 4713 c-22 -8 -14 -28 17 -41 17 -8 30 -18 30 -23 0 -5 -13 -9
-30 -9 -16 0 -30 -5 -30 -11 0 -6 14 -9 33 -7 25 2 33 8 35 26 3 17 -2 25 -17
29 -28 7 -27 30 2 36 20 4 20 4 -3 5 -14 0 -31 -2 -37 -5z"/>
<path d="M11853 4713 c15 -2 27 -10 27 -18 0 -8 -12 -15 -27 -17 -22 -2 -28
-8 -28 -28 0 -22 5 -25 38 -28 l38 -3 -3 48 c-3 47 -3 48 -38 49 -26 1 -28 1
-7 -3z m27 -58 c0 -8 -9 -15 -20 -15 -20 0 -26 11 -13 23 12 13 33 7 33 -8z"/>
<path d="M11928 4670 c22 -68 31 -67 47 4 5 23 8 27 16 15 5 -7 9 -26 9 -41 0
-45 24 -32 41 22 12 40 13 50 2 50 -7 0 -13 -10 -13 -22 0 -13 -4 -29 -9 -37
-7 -11 -11 -5 -16 22 -9 47 -31 48 -39 2 -8 -41 -26 -37 -26 6 0 18 -5 29 -14
29 -12 0 -12 -8 2 -50z"/>
<path d="M11273 4677 c-18 -21 -34 -37 -37 -37 -2 0 -25 -20 -52 -45 -26 -25
-52 -45 -57 -45 -5 0 -4 -7 3 -15 9 -10 9 -15 1 -15 -6 0 -11 -5 -11 -10 0 -7
6 -7 18 -1 9 5 56 28 104 52 48 23 85 46 82 51 -3 5 -9 30 -12 55 l-7 46 -32
-36z"/>
<path d="M10840 4685 c-11 -13 -10 -14 4 -9 9 3 16 10 16 15 0 13 -6 11 -20
-6z"/>
<path d="M11482 4671 c-11 -7 -12 -19 -4 -62 6 -30 13 -79 17 -109 3 -30 11
-76 16 -102 10 -45 14 -49 67 -74 31 -15 59 -30 62 -33 13 -16 115 -58 119
-49 2 5 -3 26 -11 46 -20 50 -38 101 -48 137 -5 17 -20 61 -34 99 -14 38 -26
71 -26 72 0 2 -27 4 -60 4 l-60 0 0 40 c0 40 -11 49 -38 31z"/>
<path d="M10850 4630 l-35 -19 31 -1 c21 0 34 6 38 16 9 24 5 24 -34 4z"/>
<path d="M11420 4635 c-14 -8 -38 -20 -53 -26 -17 -7 -26 -17 -23 -25 3 -7 10
-41 17 -76 6 -35 13 -68 14 -74 3 -9 49 -35 108 -62 5 -3 7 24 5 59 -6 75 -30
219 -38 219 -3 0 -16 -7 -30 -15z"/>
<path d="M10838 4588 c5 -5 16 -8 23 -6 8 3 3 7 -10 11 -17 4 -21 3 -13 -5z"/>
<path d="M10890 4565 c0 -17 -1 -16 90 -20 l65 -2 -44 15 c-34 11 -49 12 -63
3 -14 -9 -18 -8 -18 4 0 8 -7 15 -15 15 -8 0 -15 -7 -15 -15z"/>
<path d="M11293 4569 c-6 -6 -32 -21 -59 -34 l-47 -23 59 -26 c32 -15 72 -33
88 -42 28 -14 28 -14 22 8 -4 13 -9 47 -13 76 -6 53 -23 68 -50 41z"/>
<path d="M10727 4514 c-13 -13 4 -24 23 -14 13 7 19 6 24 -6 7 -18 -4 -42 -33
-68 -31 -28 -26 -36 22 -34 38 1 39 2 8 5 l-34 4 33 34 c41 43 39 79 -5 83
-17 2 -34 0 -38 -4z"/>
<path d="M10824 4486 c-9 -51 7 -91 37 -91 30 0 45 37 35 88 -6 33 -10 37 -36
37 -25 0 -30 -5 -36 -34z m64 -18 c4 -29 -13 -68 -29 -68 -16 0 -32 47 -25 75
9 37 50 32 54 -7z"/>
<path d="M10930 4501 c-31 -59 10 -133 58 -102 17 10 18 86 2 106 -17 21 -47
19 -60 -4z m50 -52 c0 -35 -4 -49 -14 -49 -26 0 -37 75 -14 98 19 19 28 3 28
-49z"/>
<path d="M11025 4509 c-10 -16 4 -24 17 -11 36 36 38 -18 3 -64 -14 -18 -25
-35 -25 -38 0 -3 19 -5 43 -4 36 1 37 2 10 5 l-32 4 29 41 c23 32 27 44 19 59
-10 20 -54 26 -64 8z"/>
<path d="M11147 4493 c-9 -3 -23 -17 -31 -31 -12 -23 -12 -29 1 -40 22 -21 11
-46 -22 -52 -28 -5 -27 -6 20 -18 68 -18 154 -43 187 -54 14 -5 42 -13 62 -18
35 -8 36 -7 29 19 -3 14 -10 36 -14 49 -5 13 -9 34 -9 48 0 13 -5 24 -11 24
-6 0 -44 15 -83 34 -80 38 -103 45 -129 39z"/>
<path d="M11395 4358 c14 -93 16 -98 43 -104 15 -3 37 -10 50 -15 33 -13 34
-12 28 21 -3 17 -9 43 -12 60 -4 23 -16 35 -56 55 -27 14 -52 25 -55 25 -2 0
-2 -19 2 -42z"/>
<path d="M10915 4350 c32 -21 41 -20 32 5 -4 8 -18 15 -34 15 l-28 0 30 -20z"/>
<path d="M10966 4362 c-2 -4 1 -16 7 -27 11 -18 16 -19 46 -9 21 7 30 14 22
18 -21 13 -71 25 -75 18z"/>
<path d="M10826 4346 c3 -9 13 -16 22 -16 8 0 13 1 11 3 -2 1 -12 9 -22 16
-15 12 -17 12 -11 -3z"/>
<path d="M10890 4324 c0 -8 5 -12 10 -9 6 4 8 11 5 16 -9 14 -15 11 -15 -7z"/>
<path d="M11070 4331 c0 -6 4 -13 10 -16 6 -3 7 1 4 9 -7 18 -14 21 -14 7z"/>
<path d="M11100 4331 c0 -5 7 -14 15 -21 20 -17 19 -34 -1 -26 -14 6 -15 4 -4
-9 9 -11 15 -12 20 -5 8 14 63 -55 58 -72 -3 -7 -13 2 -23 20 -11 18 -24 32
-29 32 -5 0 -2 -8 7 -18 10 -10 17 -24 17 -30 0 -7 3 -12 8 -12 4 0 15 -14 25
-31 10 -18 20 -29 24 -25 3 3 -1 14 -10 24 -18 20 -22 36 -8 30 21 -7 140
-199 135 -216 -5 -14 -4 -14 4 -3 9 12 14 9 29 -17 10 -18 21 -32 26 -32 4 0
7 -7 7 -15 0 -8 3 -15 8 -15 4 0 18 -18 32 -41 23 -36 107 -105 117 -95 3 2
-4 22 -15 43 -34 64 -54 127 -128 390 -18 68 -23 71 -149 108 -33 10 -80 24
-104 31 -52 16 -61 17 -61 5z"/>
<path d="M11520 4313 c0 -52 12 -91 29 -96 9 -3 67 -23 129 -45 116 -41 122
-40 103 11 -7 18 -39 39 -118 78 -59 29 -116 60 -125 68 -17 13 -18 12 -18
-16z"/>
<path d="M10127 4299 c-27 -16 -38 -54 -26 -86 13 -34 26 -43 62 -43 38 0 34
18 -4 22 -38 4 -54 26 -45 61 5 23 12 27 41 27 40 0 54 15 22 24 -28 7 -29 7
-50 -5z"/>
<path d="M10570 4240 c0 -40 4 -70 10 -70 6 0 10 30 10 70 0 40 -4 70 -10 70
-6 0 -10 -30 -10 -70z"/>
<path d="M10623 4240 c0 -41 2 -58 4 -37 2 20 2 54 0 75 -2 20 -4 3 -4 -38z"/>
<path d="M10723 4303 c-21 -8 -14 -26 8 -20 34 9 34 -21 0 -63 -17 -21 -31
-41 -31 -44 0 -3 20 -6 45 -6 25 0 45 5 45 10 0 6 -11 10 -25 10 -30 0 -31 4
-5 37 24 31 25 46 4 67 -16 17 -21 18 -41 9z"/>
<path d="M10822 4294 c-17 -12 -22 -25 -22 -60 0 -38 4 -46 25 -56 21 -9 29
-9 42 5 24 23 22 83 -3 107 -18 18 -21 19 -42 4z m38 -60 c0 -38 -3 -45 -17
-42 -22 4 -30 62 -13 84 19 22 30 7 30 -42z"/>
<path d="M10920 4288 c-46 -49 1 -153 48 -106 18 18 15 94 -4 112 -20 20 -19
20 -44 -6z m50 -49 c0 -31 -12 -49 -31 -49 -16 0 -19 7 -19 44 0 26 5 46 13
49 15 6 37 -20 37 -44z"/>
<path d="M11013 4294 c-17 -14 -17 -15 2 -13 53 4 62 -14 18 -33 l-28 -11 33
-9 c41 -11 37 -32 -6 -36 -40 -4 -42 -22 -2 -22 31 0 57 31 44 52 -4 7 -7 26
-6 44 3 37 -25 51 -55 28z"/>
<path d="M10220 4261 c0 -6 11 -11 25 -11 35 0 31 -16 -6 -24 -25 -5 -30 -10
-27 -28 2 -19 10 -23 41 -25 l38 -1 -3 46 c-3 45 -4 47 -35 50 -19 2 -33 -1
-33 -7z m48 -53 c-7 -19 -38 -22 -38 -4 0 10 9 16 21 16 12 0 19 -5 17 -12z"/>
<path d="M10321 4220 c1 -55 1 -55 9 -15 4 22 4 47 -1 55 -5 10 -8 -5 -8 -40z"/>
<path d="M10345 4260 c-4 -6 3 -10 14 -10 18 0 21 -6 21 -40 0 -29 4 -40 15
-40 11 0 15 11 15 40 0 29 4 40 15 40 8 0 15 4 15 9 0 12 -88 13 -95 1z"/>
<path d="M10466 4254 c-10 -25 -7 -59 6 -72 38 -38 94 15 68 63 -16 29 -64 35
-74 9z m64 -34 c0 -25 -4 -30 -25 -30 -14 0 -28 7 -31 15 -10 25 4 45 31 45
21 0 25 -5 25 -30z"/>
<path d="M10144 4245 c-10 -25 10 -39 35 -26 21 12 29 31 12 31 -5 0 -16 3
-25 6 -10 4 -18 0 -22 -11z"/>
<path d="M11100 4218 c0 -25 12 -45 48 -84 58 -64 83 -93 147 -169 76 -92 89
-105 98 -105 5 0 -12 24 -37 52 -33 38 -44 58 -40 73 4 14 3 16 -4 7 -7 -10
-20 1 -51 45 -118 165 -141 198 -141 205 0 5 -4 8 -10 8 -5 0 -10 -15 -10 -32z"/>
<path d="M11425 4218 c12 -58 58 -223 86 -308 19 -59 58 -144 63 -138 2 1 -3
46 -10 98 -7 52 -21 152 -31 223 -15 110 -20 127 -36 127 -10 0 -32 7 -48 16
l-31 16 7 -34z"/>
<path d="M11545 4138 c3 -35 12 -112 20 -173 8 -60 18 -136 21 -167 3 -32 9
-58 13 -58 5 0 6 -11 3 -25 -2 -13 -1 -36 2 -50 6 -23 8 -24 22 -10 22 22 41
19 48 -9 5 -22 10 -24 41 -19 46 7 75 -17 75 -63 0 -38 17 -55 22 -22 2 13 8
23 14 23 11 0 44 29 44 39 0 4 -11 4 -25 0 -22 -5 -25 -3 -25 18 0 17 8 29 25
36 14 6 25 18 25 27 0 12 4 11 20 -5 36 -36 51 -19 31 32 -5 13 -17 52 -26 88
-9 36 -23 83 -30 105 -7 22 -22 74 -35 115 -13 41 -28 80 -34 87 -11 12 -77
38 -131 52 -17 4 -39 12 -50 18 -11 6 -33 13 -48 17 l-28 7 6 -63z"/>
<path d="M11803 4159 c12 -31 28 -41 107 -68 54 -19 220 -67 260 -76 21 -5 21
-4 -5 9 -16 8 -50 22 -75 31 -25 10 -99 44 -166 76 -66 33 -123 59 -126 59 -4
0 -1 -14 5 -31z"/>
<path d="M10903 4139 c4 -13 7 -27 7 -31 0 -5 9 -8 19 -8 17 0 20 -10 24 -97
3 -54 9 -116 15 -138 6 -22 18 -76 27 -120 9 -44 22 -109 30 -145 9 -36 15
-74 15 -85 0 -11 8 -48 18 -83 l18 -64 72 59 c69 55 73 60 69 93 -2 19 -14 60
-26 90 -13 30 -27 71 -33 90 -5 19 -14 39 -19 44 -5 6 -9 18 -9 27 0 10 -6 30
-14 46 -8 15 -22 48 -31 73 -10 25 -24 61 -33 80 -8 19 -20 49 -27 65 -47 109
-49 113 -76 113 -14 -1 -32 3 -39 7 -10 6 -12 2 -7 -16z"/>
<path d="M11063 4152 c-13 -8 -11 -14 43 -157 9 -22 19 -53 24 -70 12 -42 66
-189 78 -211 6 -11 16 -34 23 -53 12 -32 13 -33 22 -13 23 52 67 31 67 -32 l1
-41 27 32 c15 17 37 34 50 38 12 3 22 11 22 16 0 8 -23 51 -58 104 -6 11 -17
29 -22 40 -6 11 -31 52 -58 91 -26 40 -67 102 -91 138 -24 36 -48 66 -52 66
-5 0 -9 5 -9 10 0 12 -37 50 -47 50 -5 0 -14 -4 -20 -8z"/>
<path d="M10697 4137 c-11 -29 -9 -43 4 -30 6 6 9 19 7 29 -3 18 -4 18 -11 1z"/>
<path d="M10726 4134 c-4 -9 -5 -18 -4 -19 22 -17 46 -22 66 -14 27 10 72 2
72 -13 0 -6 6 -5 15 2 8 7 15 22 15 35 0 21 -4 22 -79 23 -65 2 -80 -1 -85
-14z"/>
<path d="M10996 4128 c3 -5 9 -6 14 -3 5 3 19 -15 31 -40 27 -58 38 -51 13 9
-15 36 -24 45 -41 44 -12 -1 -19 -6 -17 -10z"/>
<path d="M11220 4121 c0 -5 7 -15 17 -22 15 -13 15 -12 4 9 -12 23 -21 28 -21
13z"/>
<path d="M11021 4080 c14 -31 19 -36 19 -24 0 6 -7 19 -16 30 -14 18 -14 18
-3 -6z"/>
<path d="M10593 4083 c-21 -8 -15 -20 10 -19 17 1 21 -4 19 -23 -1 -13 -10
-30 -20 -37 -9 -7 -13 -16 -9 -20 10 -11 57 44 57 67 0 15 -29 41 -42 38 -2 0
-9 -3 -15 -6z"/>
<path d="M10787 4072 c-35 -39 -11 -128 31 -120 41 8 51 96 14 124 -23 18 -26
17 -45 -4z m43 -53 c0 -43 -3 -50 -17 -47 -31 6 -29 98 2 98 11 0 15 -13 15
-51z"/>
<path d="M10687 4073 c-4 -3 -7 -30 -7 -59 0 -52 8 -64 45 -64 20 0 38 72 25
104 -9 25 -46 36 -63 19z m48 -53 c0 -38 -3 -45 -20 -45 -22 0 -31 30 -20 72
4 16 12 23 23 21 13 -3 17 -14 17 -48z"/>
<path d="M10889 4063 c-12 -15 -12 -16 4 -10 15 6 17 0 17 -48 0 -30 3 -55 8
-55 4 0 5 29 4 65 -4 68 -10 77 -33 48z"/>
<path d="M11271 4045 c12 -19 25 -35 30 -35 6 0 -2 16 -17 35 -14 19 -28 35
-30 35 -2 0 6 -16 17 -35z"/>
<path d="M11040 4035 c0 -6 4 -15 8 -20 4 -6 18 -37 31 -70 13 -33 29 -73 36
-90 8 -16 17 -42 20 -58 4 -15 11 -30 16 -33 5 -3 9 -15 9 -28 0 -12 7 -31 15
-42 8 -10 15 -27 15 -36 0 -10 6 -32 14 -50 8 -18 20 -48 27 -66 6 -18 14 -31
16 -28 4 4 -51 179 -74 233 -7 17 -13 36 -13 43 0 7 -6 24 -14 38 -8 15 -22
45 -31 67 -9 22 -23 52 -31 67 -16 30 -19 52 -4 43 6 -4 7 1 3 11 -4 12 -8 14
-11 5 -3 -8 -8 -7 -18 6 -7 10 -14 13 -14 8z"/>
<path d="M11253 3970 c9 -14 35 -56 59 -95 23 -38 46 -71 50 -73 5 -2 8 -8 8
-12 0 -5 15 -34 33 -64 l33 -54 27 16 c35 21 34 28 -5 67 -18 18 -60 63 -93
100 -108 121 -128 141 -112 115z"/>
<path d="M10570 3966 c0 -12 10 -16 40 -16 22 0 40 5 40 10 0 6 -11 10 -24 10
-13 0 -31 3 -40 6 -11 4 -16 1 -16 -10z"/>
<path d="M11350 3941 c0 -6 4 -13 10 -16 6 -3 7 1 4 9 -7 18 -14 21 -14 7z"/>
<path d="M10681 3914 c0 -11 3 -14 6 -6 3 7 2 16 -1 19 -3 4 -6 -2 -5 -13z"/>
<path d="M10672 3775 c0 -16 2 -22 5 -12 2 9 2 23 0 30 -3 6 -5 -1 -5 -18z"/>
<path d="M11490 3741 c30 -35 56 -58 58 -52 3 9 7 9 18 0 11 -9 14 -7 14 10 0
23 -10 27 -27 10 -10 -10 -26 1 -55 39 -7 9 -24 26 -38 37 -13 11 0 -9 30 -44z"/>
<path d="M11485 3686 c-30 -17 -45 -33 -38 -40 4 -3 34 -6 67 -5 34 0 55 3 49
6 -7 2 -13 9 -13 14 0 6 5 7 12 3 7 -4 8 -3 4 5 -4 6 -12 9 -17 5 -6 -3 -18 1
-27 9 -13 12 -21 12 -37 3z"/>
<path d="M11640 3590 c0 -40 4 -70 10 -70 6 0 10 30 10 70 0 40 -4 70 -10 70
-6 0 -10 -30 -10 -70z"/>
<path d="M11280 3585 l0 -65 43 2 c36 1 38 2 10 5 l-33 4 0 60 c0 33 -4 59
-10 59 -6 0 -10 -28 -10 -65z"/>
<path d="M11837 3644 c-13 -13 4 -24 23 -14 13 7 19 6 24 -6 7 -18 -4 -42 -33
-68 -31 -28 -26 -36 22 -34 38 1 39 2 8 5 l-34 4 33 34 c41 43 39 79 -5 83
-17 2 -34 0 -38 -4z"/>
<path d="M11934 3616 c-9 -51 7 -91 37 -91 30 0 45 37 35 88 -6 33 -10 37 -36
37 -25 0 -30 -5 -36 -34z m62 -12 c7 -28 -9 -74 -26 -74 -18 0 -30 48 -20 75
12 32 38 32 46 -1z"/>
<path d="M12135 3639 c-10 -16 4 -24 17 -11 39 39 37 -23 -3 -71 l-30 -37 48
2 c37 1 40 2 15 5 l-33 4 31 39 c26 33 29 43 20 60 -11 21 -54 28 -65 9z"/>
<path d="M11375 3610 c-7 -11 -1 -13 33 -10 33 2 27 -17 -9 -24 -25 -5 -30
-10 -27 -28 2 -19 10 -23 41 -25 35 -1 37 1 37 29 0 16 -5 38 -10 49 -11 20
-54 26 -65 9z m55 -59 c0 -6 -5 -13 -10 -16 -15 -9 -43 3 -35 15 8 13 45 13
45 1z"/>
<path d="M11473 3569 c-3 -57 14 -67 19 -11 2 29 7 37 23 37 16 0 21 -9 26
-40 l5 -40 5 40 c3 32 8 40 24 40 16 0 21 -9 26 -40 7 -38 7 -38 5 10 l-1 50
-65 1 -65 1 -2 -48z"/>
<path d="M11700 3610 c0 -5 9 -10 19 -10 11 0 23 -4 26 -10 3 -5 -3 -10 -13
-10 -25 0 -46 -25 -38 -45 3 -10 16 -15 36 -13 29 2 30 4 30 50 0 47 -1 48
-30 48 -16 0 -30 -4 -30 -10z m44 -65 c-4 -8 -15 -15 -25 -15 -10 0 -19 7 -19
15 0 9 9 15 25 15 18 0 23 -4 19 -15z"/>
<path d="M12110 3584 c0 -29 1 -29 22 -5 15 18 15 19 -3 24 -15 4 -19 0 -19
-19z"/>
<path d="M11251 3485 c0 -11 6 -31 14 -45 18 -31 18 -16 0 30 -9 23 -14 28
-14 15z"/>
<path d="M11306 3472 c17 -71 27 -73 139 -33 33 12 66 24 72 26 7 2 10 11 7
19 -5 12 -27 15 -115 15 l-109 0 6 -27z"/>
<path d="M11543 3488 c5 -15 46 -13 61 2 7 7 -3 10 -28 10 -26 0 -36 -4 -33
-12z"/>
<path d="M11185 3439 c-27 -22 -51 -45 -53 -50 -2 -5 -8 -9 -13 -9 -14 0 -49
-33 -49 -47 0 -17 5 -16 65 3 142 47 134 42 122 77 -23 73 -18 71 -72 26z"/>
<path d="M11280 3469 c0 -4 7 -22 15 -40 10 -25 14 -29 15 -13 0 17 -29 70
-30 53z"/>
<path d="M11562 3463 c-6 -2 -10 -8 -7 -13 6 -10 55 0 55 11 0 10 -27 11 -48
2z"/>
<path d="M11496 3425 c4 -8 8 -15 10 -15 2 0 4 7 4 15 0 8 -4 15 -10 15 -5 0
-7 -7 -4 -15z"/>
<path d="M11534 3415 c-4 -8 -4 -33 -2 -55 2 -22 3 -40 2 -40 0 0 -15 23 -32
50 -17 28 -36 50 -42 50 -6 0 -9 -26 -8 -67 l1 -68 6 55 6 55 28 -42 c15 -24
27 -47 27 -53 0 -5 7 -10 15 -10 12 0 15 14 15 70 0 69 -5 85 -16 55z"/>
<path d="M11580 3420 c0 -5 5 -10 10 -10 6 0 10 5 10 10 0 6 -4 10 -10 10 -5
0 -10 -4 -10 -10z"/>
<path d="M11365 3398 c-11 -6 -21 -12 -23 -13 -2 -1 4 -18 12 -36 7 -19 21
-52 29 -74 45 -117 49 -123 101 -151 82 -43 181 -93 182 -91 1 1 -4 36 -11 77
-8 41 -14 94 -14 118 l-1 42 -64 0 c-36 0 -68 5 -72 11 -4 8 -9 8 -17 0 -16
-16 -54 -13 -61 5 -3 9 -6 40 -6 70 0 58 -11 67 -55 42z"/>
<path d="M11580 3340 c0 -27 5 -50 10 -50 6 0 10 23 10 50 0 28 -4 50 -10 50
-5 0 -10 -22 -10 -50z"/>
<path d="M11631 3336 l2 -51 6 42 c8 49 14 58 36 50 10 -4 15 -20 15 -47 0
-22 4 -40 9 -40 4 0 6 11 4 24 -6 29 12 66 32 66 11 0 15 -12 15 -45 0 -25 5
-45 10 -45 11 0 13 42 4 77 -6 20 -12 22 -70 21 l-64 -2 1 -50z"/>
<path d="M11823 3383 c15 -2 27 -10 27 -18 0 -8 -12 -15 -27 -17 -22 -2 -28
-8 -28 -28 0 -22 5 -25 38 -28 l38 -3 -3 48 c-3 47 -3 48 -38 49 -26 1 -28 1
-7 -3z m27 -58 c0 -8 -9 -15 -20 -15 -20 0 -26 11 -13 23 12 13 33 7 33 -8z"/>
<path d="M11890 3338 c0 -26 5 -48 10 -48 6 0 10 15 10 34 0 24 7 39 21 50 21
14 21 15 -10 14 -30 -1 -31 -2 -31 -50z"/>
<path d="M11310 3370 c0 -5 6 -24 14 -42 26 -63 48 -138 43 -151 -3 -7 4 -12
18 -12 19 0 21 3 14 25 -17 55 -41 115 -48 125 -5 5 -11 22 -15 38 -6 25 -26
39 -26 17z"/>
<path d="M11290 3365 c0 -5 5 -17 10 -25 5 -8 10 -10 10 -5 0 6 -5 17 -10 25
-5 8 -10 11 -10 5z"/>
<path d="M11225 3351 c-16 -4 -40 -13 -52 -19 -12 -7 -32 -12 -45 -12 -13 0
-30 -5 -38 -10 -24 -15 6 -38 64 -49 26 -5 53 -14 59 -20 6 -6 18 -11 27 -11
10 0 31 -7 49 -16 18 -9 34 -14 36 -12 5 4 -6 40 -34 115 -17 45 -18 45 -66
34z"/>
<path d="M11045 3330 c-3 -5 -1 -10 4 -10 6 0 11 5 11 10 0 6 -2 10 -4 10 -3
0 -8 -4 -11 -10z"/>
<path d="M11316 3290 c3 -14 11 -32 16 -40 6 -10 7 -7 2 10 -3 14 -11 32 -16
40 -6 10 -7 7 -2 -10z"/>
<path d="M11033 3293 c9 -2 23 -2 30 0 6 3 -1 5 -18 5 -16 0 -22 -2 -12 -5z"/>
<path d="M10954 3271 c4 -5 20 -16 36 -25 17 -8 28 -10 25 -5 -4 5 -20 16 -37
25 -16 9 -27 11 -24 5z"/>
<path d="M11666 3254 c4 -16 3 -25 -3 -21 -5 3 -6 -20 0 -61 4 -37 10 -85 13
-107 4 -37 10 -44 60 -74 30 -18 58 -31 61 -28 2 3 -14 41 -38 84 -23 43 -52
98 -66 122 -13 25 -22 49 -20 55 2 6 15 -12 29 -39 14 -28 37 -70 51 -95 14
-25 37 -68 51 -97 15 -28 30 -54 35 -57 9 -6 21 136 21 254 l0 77 -92 2 c-50
1 -95 4 -100 7 -5 3 -6 -6 -2 -22z"/>
<path d="M11908 3272 c-28 -3 -28 -4 -28 -80 0 -42 -3 -120 -6 -173 l-7 -97
41 -26 c34 -21 53 -26 109 -26 l68 1 19 42 c11 23 23 44 28 48 4 3 3 18 -2 35
-36 111 -70 228 -70 245 0 11 -6 21 -12 24 -20 6 -110 11 -140 7z"/>
<path d="M11045 3250 c4 -6 11 -8 16 -5 14 9 11 15 -7 15 -8 0 -12 -5 -9 -10z"/>
<path d="M11114 3245 c22 -17 46 -20 46 -6 0 5 -10 11 -22 15 -37 9 -44 6 -24
-9z"/>
<path d="M10849 3214 c-11 -14 -10 -16 11 -12 37 5 37 -30 0 -70 -16 -18 -30
-35 -30 -38 0 -2 20 -4 45 -4 25 0 45 5 45 10 0 6 -12 10 -26 10 l-26 0 26 34
c31 41 32 48 8 69 -23 21 -36 21 -53 1z"/>
<path d="M11057 3215 c-20 -15 -24 -94 -5 -113 29 -29 67 0 68 51 0 54 -31 86
-63 62z m43 -61 c0 -36 -3 -44 -19 -44 -23 0 -35 39 -21 74 15 41 40 23 40
-30z"/>
<path d="M11189 3225 c-4 -3 -5 -24 -2 -46 5 -35 4 -39 -17 -39 -21 0 -22 1
-6 25 19 28 20 35 6 35 -5 0 -10 -6 -10 -14 0 -7 -7 -19 -15 -26 -25 -21 -18
-40 15 -40 22 0 30 -5 31 -17 0 -14 2 -15 6 -3 3 8 11 18 17 23 8 5 8 9 -1 15
-6 4 -13 27 -15 51 -2 23 -6 40 -9 36z"/>
<path d="M10946 3205 c-11 -30 -6 -92 9 -105 37 -31 73 22 57 85 -6 22 -15 31
-34 33 -16 2 -28 -3 -32 -13z m54 -51 c0 -41 -2 -45 -22 -42 -40 5 -38 88 2
88 17 0 20 -6 20 -46z"/>
<path d="M11230 3197 c0 -17 22 -42 79 -90 l78 -65 -14 41 c-27 79 -38 96 -68
108 -16 6 -38 15 -47 20 -25 13 -28 12 -28 -14z"/>
<path d="M11386 3142 c4 -9 8 -29 8 -44 1 -14 4 -24 7 -22 3 2 12 -16 20 -39
7 -23 18 -45 23 -49 6 -4 11 -23 13 -42 3 -50 19 -76 48 -76 26 0 26 24 -1 34
-8 3 -14 10 -14 17 0 6 6 9 13 6 8 -3 2 19 -15 54 -15 32 -28 64 -28 71 0 7
-7 22 -15 32 -8 11 -15 27 -15 35 0 9 -12 21 -26 28 -23 11 -25 10 -18 -5z
m102 -201 c3 -8 -1 -12 -9 -9 -7 2 -15 10 -17 17 -3 8 1 12 9 9 7 -2 15 -10
17 -17z"/>
<path d="M11240 3105 c-12 -22 -10 -28 15 -62 15 -21 33 -42 40 -48 6 -5 30
-36 54 -67 35 -46 49 -58 71 -58 l28 0 -24 67 c-14 37 -22 73 -20 80 3 6 0 10
-7 8 -7 -3 -39 20 -72 50 -33 30 -63 55 -66 55 -3 0 -12 -11 -19 -25z"/>
<path d="M11449 3112 c5 -10 17 -37 26 -62 10 -25 32 -75 49 -112 l31 -68 65
0 65 0 -9 73 -10 72 -112 57 c-72 36 -110 50 -105 40z"/>
<path d="M11130 3058 c0 -18 8 -68 17 -110 l18 -78 63 0 63 0 -23 43 c-13 23
-25 44 -28 47 -10 10 -50 69 -50 75 0 9 -43 55 -52 55 -4 0 -8 -15 -8 -32z"/>
<path d="M11054 3037 c21 -50 46 -133 46 -151 0 -10 9 -16 24 -16 26 0 26 -12
-4 142 -11 55 -12 56 -45 56 l-34 0 13 -31z"/>
<path d="M11190 3061 c0 -6 5 -13 11 -16 6 -4 13 -14 17 -24 4 -9 27 -46 52
-83 37 -57 49 -68 72 -68 30 0 38 17 13 26 -8 4 -15 12 -15 20 0 8 -4 14 -8
14 -5 0 -23 21 -41 46 -18 25 -43 56 -56 70 -23 24 -45 32 -45 15z"/>
<path d="M11693 2955 c4 -26 7 -56 7 -66 0 -17 9 -19 75 -19 41 0 75 4 75 9 0
16 -53 61 -109 93 l-54 30 6 -47z"/>
<path d="M11870 2885 c0 -8 9 -15 20 -15 11 0 20 2 20 5 0 2 -9 9 -20 15 -16
9 -20 8 -20 -5z"/>
<path d="M11114 2844 c3 -9 9 -28 12 -42 2 -15 11 -53 19 -84 8 -32 22 -85 30
-118 22 -88 42 -169 56 -224 19 -74 24 -36 6 42 -9 37 -22 101 -31 142 -8 41
-22 109 -30 150 -9 41 -17 88 -19 104 -1 20 -9 32 -26 38 -19 7 -22 5 -17 -8z"/>
<path d="M11337 2833 c4 -10 18 -36 32 -58 38 -60 50 -79 57 -95 4 -8 27 -45
51 -82 24 -37 43 -71 43 -77 0 -5 3 -11 8 -13 11 -5 52 -66 52 -78 0 -5 4 -10
8 -10 4 0 25 -22 45 -50 49 -66 64 -64 27 5 -36 66 -43 81 -62 125 -16 36 -31
69 -68 152 -12 26 -48 81 -81 122 -50 64 -64 76 -89 76 -24 0 -28 -3 -23 -17z"/>
<path d="M11418 2843 c6 -2 12 -11 12 -18 0 -7 3 -15 8 -17 4 -1 17 -16 30
-32 27 -35 28 -26 5 31 -15 35 -23 43 -43 42 -14 0 -19 -3 -12 -6z"/>
<path d="M11490 2832 c0 -10 7 -27 15 -38 8 -10 15 -27 15 -36 0 -24 32 -91
49 -104 8 -6 11 -16 7 -23 -4 -6 -3 -10 2 -9 5 2 44 -30 86 -70 43 -41 80 -71
83 -68 3 3 0 12 -6 20 -7 8 -10 20 -6 26 4 6 3 10 -2 9 -18 -3 -33 1 -33 10 0
5 -19 42 -43 83 -23 40 -58 106 -77 145 -31 64 -38 73 -62 73 -20 0 -28 -5
-28 -18z"/>
<path d="M11574 2838 c-4 -6 -3 -8 4 -5 5 4 36 -22 69 -57 l58 -63 -3 46 c-6
90 -6 91 -67 91 -30 0 -57 -5 -61 -12z"/>
<path d="M11705 2828 c3 -13 11 -52 18 -87 16 -82 37 -93 37 -20 0 58 16 78
63 79 22 0 27 4 27 25 0 24 -2 25 -75 25 -73 0 -75 -1 -70 -22z"/>
<path d="M11876 2843 c-3 -4 -6 -13 -5 -22 0 -12 2 -11 8 3 7 17 11 14 31 -22
25 -45 54 -55 63 -22 3 14 14 20 31 20 30 0 33 8 9 26 -15 11 -16 13 -2 14 8
0 24 -7 35 -15 27 -20 44 -19 44 4 0 18 -8 19 -104 19 -57 0 -107 -2 -110 -5z"/>
<path d="M11580 2813 c0 -7 29 -67 64 -128 52 -94 62 -110 74 -123 10 -11 12
-8 12 15 0 73 -13 103 -66 159 -30 31 -54 60 -54 64 0 4 -7 10 -15 14 -8 3
-15 2 -15 -1z"/>
<path d="M11798 2769 c-28 -16 -22 -48 12 -67 39 -22 39 -42 0 -42 -16 0 -30
-5 -30 -11 0 -6 14 -9 33 -7 28 3 32 7 35 34 3 27 -1 33 -27 42 -40 14 -40 32
-1 32 32 0 40 14 14 24 -19 7 -15 8 -36 -5z"/>
<path d="M11880 2710 c0 -40 4 -70 10 -70 6 0 10 18 10 40 0 33 3 40 20 40 17
0 20 -7 20 -40 0 -28 4 -40 14 -40 11 0 13 9 10 38 -9 60 -12 65 -39 60 -21
-4 -25 -1 -25 18 0 13 -4 24 -10 24 -6 0 -10 -30 -10 -70z"/>
<path d="M11990 2771 c0 -6 5 -13 10 -16 6 -3 10 1 10 9 0 9 -4 16 -10 16 -5
0 -10 -4 -10 -9z"/>
<path d="M12030 2710 c0 -56 3 -70 15 -70 12 0 15 14 15 70 0 56 -3 70 -15 70
-12 0 -15 -14 -15 -70z"/>
<path d="M12093 2710 c0 -41 2 -58 4 -37 2 20 2 54 0 75 -2 20 -4 3 -4 -38z"/>
<path d="M12359 2763 c-13 -15 -12 -16 9 -11 34 9 39 -16 11 -57 -13 -19 -27
-35 -31 -35 -5 0 -8 -4 -8 -10 0 -5 20 -10 45 -10 25 0 45 5 45 10 0 6 -11 10
-25 10 -30 0 -32 11 -5 35 25 23 26 61 1 75 -25 13 -26 13 -42 -7z"/>
<path d="M12466 2765 c-19 -19 -22 -95 -4 -113 19 -19 44 -14 57 11 30 56 -14
141 -53 102z m44 -61 c0 -36 -3 -44 -19 -44 -23 0 -35 39 -21 74 15 41 40 23
40 -30z"/>
<path d="M12574 2754 c3 -9 6 -38 6 -65 0 -27 5 -49 10 -49 6 0 10 28 10 65 0
53 -3 65 -16 65 -11 0 -14 -5 -10 -16z"/>
<path d="M12555 2740 c3 -5 8 -10 11 -10 2 0 4 5 4 10 0 6 -5 10 -11 10 -5 0
-7 -4 -4 -10z"/>
<path d="M11990 2703 c0 -21 5 -45 10 -53 7 -11 10 0 10 38 0 28 -4 52 -10 52
-5 0 -10 -17 -10 -37z"/>
<path d="M12134 2715 c-15 -23 -15 -27 0 -50 11 -17 26 -25 46 -25 17 0 30 5
30 10 0 6 -13 10 -30 10 -20 0 -30 5 -30 15 0 10 10 15 30 15 31 0 39 17 18
38 -19 19 -46 14 -64 -13z m56 -5 c0 -5 -9 -10 -20 -10 -11 0 -20 5 -20 10 0
6 9 10 20 10 11 0 20 -4 20 -10z"/>
<path d="M12253 2728 c-16 -20 -26 -88 -13 -88 5 0 10 16 10 36 0 27 5 37 20
41 11 3 20 9 20 14 0 13 -26 11 -37 -3z"/>
<path d="M12326 2711 c-3 -5 0 -11 8 -14 8 -3 17 1 20 9 6 15 -19 20 -28 5z"/>
<path d="M12552 2680 c0 -19 2 -27 5 -17 2 9 2 25 0 35 -3 9 -5 1 -5 -18z"/>
<path d="M12277 2694 c-12 -12 -8 -100 6 -125 11 -21 19 -24 67 -23 37 1 68 9
93 24 59 35 49 49 -40 52 l-78 3 3 33 c1 17 -2 32 -7 32 -5 0 -16 2 -23 5 -8
3 -17 2 -21 -1z"/>
<path d="M11733 2639 c3 -13 11 -53 19 -88 7 -35 18 -66 25 -68 7 -3 13 -10
13 -15 0 -6 -6 -5 -15 2 -10 9 -15 9 -15 1 0 -6 4 -11 8 -11 5 0 8 -8 8 -17 0
-10 4 -42 8 -70 8 -50 10 -53 37 -53 28 0 29 2 29 50 0 46 -2 50 -24 50 -28 0
-53 24 -36 35 6 4 22 -1 35 -9 l25 -16 0 52 c-1 51 -3 55 -62 117 -47 50 -60
59 -55 40z"/>
<path d="M11893 2623 c-13 -3 -23 -12 -23 -21 0 -9 -3 -26 -6 -37 -4 -14 3
-30 22 -48 15 -15 24 -31 20 -35 -4 -4 -13 1 -20 11 -7 9 -16 17 -20 17 -12 0
-6 -88 7 -93 10 -4 10 -6 0 -6 -16 -1 -18 -91 -3 -91 6 0 10 7 10 15 0 10 10
15 30 15 26 0 30 -4 30 -26 0 -21 3 -24 21 -19 20 7 19 6 -3 -20 l-23 -27 -3
41 c-5 68 -22 46 -22 -29 0 -40 4 -70 10 -70 6 0 10 10 10 22 l0 21 23 -21
c27 -25 46 -30 27 -7 -11 13 -10 18 6 29 10 8 15 18 11 23 -5 4 -15 -1 -23
-11 -7 -11 -17 -16 -21 -12 -5 4 7 21 26 38 29 26 39 29 74 25 22 -3 50 -16
66 -30 22 -22 28 -23 39 -11 10 11 10 14 -1 14 -8 0 -20 6 -26 13 -8 11 -6 20
9 37 12 13 18 30 16 37 -7 17 -7 17 41 -7 34 -16 46 -17 74 -8 19 6 40 12 47
14 6 2 12 10 12 17 0 23 -45 36 -105 30 -70 -7 -75 -2 -75 94 0 82 8 90 78 75
40 -9 40 -9 30 14 -10 21 -18 24 -57 24 -25 -1 -75 -1 -111 -1 -35 0 -66 -2
-68 -4 -3 -2 3 -16 12 -30 9 -14 13 -25 9 -25 -5 0 -17 14 -28 30 -14 21 -28
30 -47 30 -14 0 -32 2 -40 4 -7 2 -23 1 -35 -1z"/>
<path d="M11814 2612 c-7 -5 -3 -15 12 -32 l24 -25 0 33 c0 31 -13 40 -36 24z"/>
<path d="M12490 2610 c0 -5 4 -10 9 -10 6 0 13 5 16 10 3 6 -1 10 -9 10 -9 0
-16 -4 -16 -10z"/>
<path d="M11580 2594 c0 -3 29 -66 65 -140 l66 -134 35 0 c33 0 36 2 30 23 -4
12 -10 41 -13 65 -5 35 -13 48 -47 75 -22 17 -59 51 -82 75 -38 39 -54 50 -54
36z"/>
<path d="M12455 2560 c-3 -5 1 -10 9 -10 9 0 16 5 16 10 0 6 -4 10 -9 10 -6 0
-13 -4 -16 -10z"/>
<path d="M12170 2495 c0 -61 1 -65 23 -65 13 0 35 6 50 13 22 10 27 18 27 51
0 46 -20 65 -67 66 l-33 0 0 -65z m81 24 c15 -30 -6 -69 -38 -69 -21 0 -23 5
-23 45 0 41 2 45 25 45 15 0 29 -8 36 -21z"/>
<path d="M12210 2495 c0 -8 5 -15 10 -15 6 0 10 7 10 15 0 8 -4 15 -10 15 -5
0 -10 -7 -10 -15z"/>
<path d="M12650 2533 c-10 -12 -11 -18 -2 -21 7 -2 12 -21 12 -43 0 -32 3 -39
20 -39 23 0 27 15 5 24 -8 3 -15 17 -15 31 0 16 6 25 15 25 8 0 15 5 15 10 0
6 -7 10 -16 10 -8 0 -12 5 -9 10 10 16 -9 11 -25 -7z"/>
<path d="M12300 2521 c0 -6 14 -11 30 -11 17 0 30 -4 30 -9 0 -5 -13 -11 -30
-14 -24 -5 -30 -12 -30 -32 0 -23 3 -25 35 -23 l36 2 -3 46 c-3 43 -5 45 -35
48 -19 2 -33 -1 -33 -7z m58 -53 c-5 -15 -48 -24 -48 -10 0 14 12 22 33 22 10
0 17 -5 15 -12z"/>
<path d="M12400 2480 c0 -27 5 -50 10 -50 6 0 10 18 10 40 0 33 3 40 20 40 17
0 20 -7 20 -40 0 -22 5 -40 10 -40 6 0 10 18 10 40 0 33 3 40 20 40 17 0 20
-7 20 -40 0 -22 5 -40 11 -40 6 0 9 19 7 48 l-3 47 -67 3 -68 2 0 -50z"/>
<path d="M12570 2505 c0 -15 6 -25 14 -25 7 0 19 -7 26 -15 11 -13 8 -15 -14
-15 -14 0 -26 -5 -26 -11 0 -6 12 -9 28 -7 19 2 28 9 30 26 2 14 -2 22 -11 22
-8 0 -20 7 -27 15 -11 13 -8 15 14 15 14 0 26 5 26 10 0 6 -13 10 -30 10 -25
0 -30 -4 -30 -25z"/>
<path d="M12800 2521 c0 -6 11 -11 25 -11 35 0 31 -16 -6 -24 -25 -5 -30 -10
-27 -28 2 -19 10 -23 41 -25 l38 -1 -3 46 c-3 45 -4 47 -35 50 -19 2 -33 -1
-33 -7z m48 -53 c-7 -19 -38 -22 -38 -4 0 10 9 16 21 16 12 0 19 -5 17 -12z"/>
<path d="M12400 2410 c-29 -4 -36 -9 -38 -33 -3 -23 0 -28 15 -27 40 5 43 1
45 -62 l2 -63 3 55 c5 64 15 80 54 80 25 0 29 4 29 28 0 25 -3 27 -38 27 -20
0 -53 -2 -72 -5z"/>
<path d="M12330 2345 c0 -8 5 -15 10 -15 6 0 10 7 10 15 0 8 -4 15 -10 15 -5
0 -10 -7 -10 -15z"/>
<path d="M11527 2323 c-18 -17 -5 -49 23 -61 19 -9 30 -21 30 -34 0 -17 -5
-20 -30 -16 -16 3 -30 1 -30 -4 0 -11 51 -10 68 1 21 13 10 44 -21 59 -37 18
-35 42 3 42 17 0 30 5 30 10 0 11 -63 14 -73 3z"/>
<path d="M12150 2315 c0 -12 4 -14 19 -6 14 8 22 7 31 -4 10 -13 9 -20 -6 -38
-11 -12 -25 -26 -31 -30 -7 -4 -13 -15 -13 -22 0 -11 11 -15 43 -14 41 2 41 2
8 8 l-33 6 27 29 c37 40 32 80 -12 84 -25 2 -33 -1 -33 -13z"/>
<path d="M12260 2311 c-15 -29 -12 -87 5 -101 8 -7 25 -10 40 -6 22 6 25 11
25 54 0 26 -5 53 -12 60 -18 18 -46 14 -58 -7z m46 -15 c10 -39 1 -81 -18 -84
-15 -3 -18 4 -18 46 0 27 3 52 7 55 12 13 23 7 29 -17z"/>
<path d="M12370 2315 c-10 -12 -10 -15 3 -15 12 0 17 -13 20 -52 3 -50 3 -49
5 15 2 67 -5 80 -28 52z"/>
<path d="M12450 2301 c0 -24 5 -29 31 -35 25 -5 30 -10 27 -28 -2 -18 -9 -23
-30 -23 -16 1 -28 -3 -28 -7 0 -13 55 -9 68 4 22 22 14 49 -18 61 -36 14 -40
37 -5 37 14 0 25 5 25 10 0 6 -16 10 -35 10 -32 0 -35 -3 -35 -29z"/>
<path d="M11626 2281 c-35 -38 4 -92 54 -76 26 8 29 79 4 89 -26 10 -40 7 -58
-13z m61 -17 c8 -20 -8 -48 -31 -52 -12 -3 -16 4 -16 32 0 30 4 36 20 36 11 0
23 -7 27 -16z"/>
<path d="M11730 2248 c0 -27 5 -48 10 -48 6 0 10 16 10 36 0 27 5 37 20 41 31
8 24 22 -10 20 -29 -2 -30 -4 -30 -49z"/>
<path d="M11806 2281 c-35 -38 4 -92 54 -76 26 8 29 79 4 89 -26 10 -40 7 -58
-13z m61 -17 c8 -20 -8 -48 -30 -52 -16 -3 -26 22 -19 51 5 22 41 22 49 1z"/>
<path d="M12010 2287 c0 -10 8 -13 25 -9 15 2 25 0 25 -7 0 -6 -8 -11 -19 -11
-24 0 -45 -25 -37 -45 3 -9 18 -15 41 -15 l36 0 -3 48 c-3 45 -4 47 -35 50
-23 2 -33 -1 -33 -11z m50 -62 c0 -8 -9 -15 -20 -15 -11 0 -20 7 -20 15 0 8 9
15 20 15 11 0 20 -7 20 -15z"/>
<path d="M12340 2196 c-13 -25 -13 -29 3 -41 9 -7 17 -18 17 -25 0 -8 -11 -3
-28 13 -15 15 -43 29 -62 33 -33 6 -34 5 -15 -9 11 -8 31 -18 45 -22 14 -4 38
-19 55 -34 16 -14 23 -17 15 -7 -13 18 -13 19 2 13 9 -3 22 0 28 7 6 8 21 16
35 18 19 4 29 -3 53 -41 35 -54 89 -107 98 -98 4 3 2 19 -4 34 -5 15 -15 54
-22 85 l-11 58 -50 -3 c-35 -1 -49 -6 -49 -17 -1 -12 -3 -12 -14 3 -7 9 -26
17 -44 17 -24 0 -31 5 -34 22 -3 20 -4 20 -18 -6z"/>
<path d="M11520 2050 l0 -70 40 0 c22 0 40 5 40 10 0 6 -13 10 -30 10 l-30 0
0 60 c0 33 -4 60 -10 60 -6 0 -10 -30 -10 -70z"/>
<path d="M11880 2050 c0 -40 4 -70 10 -70 6 0 10 30 10 70 0 40 -4 70 -10 70
-6 0 -10 -30 -10 -70z"/>
<path d="M12084 2105 c-18 -15 -18 -15 11 -13 41 4 44 -21 6 -63 -17 -18 -31
-37 -31 -41 0 -5 18 -8 40 -8 22 0 40 5 40 10 0 6 -12 10 -26 10 l-26 0 26 31
c31 36 33 64 7 79 -25 13 -24 13 -47 -5z"/>
<path d="M12393 2072 c-18 -26 -33 -51 -33 -55 0 -4 14 -7 30 -7 20 0 30 -5
30 -15 0 -21 17 -19 22 3 6 24 -3 122 -10 122 -4 0 -22 -21 -39 -48z m27 -17
c0 -16 -6 -25 -15 -25 -18 0 -19 16 -2 35 16 19 17 19 17 -10z"/>
<path d="M12174 2076 c-12 -69 31 -124 63 -80 14 19 17 71 7 98 -4 9 -18 16
-35 16 -24 0 -29 -5 -35 -34z m62 -10 c8 -34 -4 -66 -26 -66 -20 0 -32 34 -23
68 7 30 41 29 49 -2z"/>
<path d="M12304 2094 c3 -9 6 -38 6 -65 0 -27 5 -49 10 -49 6 0 10 28 10 65 0
53 -3 65 -16 65 -11 0 -14 -5 -10 -16z"/>
<path d="M12460 2083 c0 -26 7 -37 37 -57 36 -25 64 -26 30 -2 -9 7 -17 18
-17 25 0 6 -4 11 -10 11 -5 0 -16 12 -24 28 l-15 27 -1 -32z"/>
<path d="M12275 2080 c4 -6 11 -8 16 -5 14 9 11 15 -7 15 -8 0 -12 -5 -9 -10z"/>
<path d="M11615 2070 c-4 -6 7 -10 24 -10 40 0 40 -16 0 -24 -25 -5 -30 -10
-27 -28 2 -19 10 -23 41 -25 36 -1 37 0 37 36 0 20 -5 42 -12 49 -15 15 -54
16 -63 2z m55 -55 c0 -9 -9 -15 -25 -15 -18 0 -23 4 -19 15 4 8 15 15 25 15
10 0 19 -7 19 -15z"/>
<path d="M11710 2028 c0 -26 5 -48 10 -48 6 0 10 18 10 41 0 36 2 40 23 37 17
-2 23 -11 28 -43 l6 -40 2 43 c1 38 4 42 25 42 22 0 25 -5 29 -42 3 -42 4 -42
5 9 l2 51 -70 -1 -70 0 0 -49z"/>
<path d="M11935 2071 c-4 -7 4 -11 19 -11 36 0 33 -16 -4 -23 -51 -11 -32 -57
23 -54 27 2 28 4 25 47 -3 40 -6 45 -30 48 -14 2 -29 -2 -33 -7z m45 -56 c0
-8 -9 -15 -20 -15 -11 0 -20 7 -20 15 0 8 9 15 20 15 11 0 20 -7 20 -15z"/>
<path d="M12078 5613 c-10 -2 -18 -9 -18 -14 0 -12 14 -11 27 2 6 6 16 8 22 5
16 -10 13 -46 -4 -52 -8 -4 -15 -12 -15 -19 0 -7 -7 -15 -15 -19 -32 -12 -13
-26 33 -24 36 1 39 2 15 5 -18 2 -33 8 -33 14 0 5 4 9 8 9 7 0 42 52 42 63 0
9 -31 37 -38 36 -4 -1 -15 -3 -24 -6z"/>
<path d="M12176 5604 c-17 -16 -21 -80 -7 -102 5 -8 21 -12 37 -10 27 3 29 6
32 53 3 38 -1 52 -14 62 -23 17 -29 16 -48 -3z m42 -62 c-2 -25 -8 -37 -18
-37 -20 0 -27 84 -8 96 18 11 30 -14 26 -59z"/>
<path d="M12277 5603 c-12 -12 -7 -25 7 -20 12 5 16 -6 19 -46 l3 -52 2 63 c2
46 -1 62 -11 62 -8 0 -17 -3 -20 -7z"/>
<path d="M12360 5580 c0 -27 3 -30 31 -30 26 0 30 -3 27 -22 -2 -18 -9 -23
-30 -23 -16 1 -28 -3 -28 -7 0 -4 16 -8 35 -8 29 0 36 4 41 26 7 25 -16 53
-43 54 -25 0 -12 29 15 33 22 3 20 4 -10 6 -36 1 -38 -1 -38 -29z"/>
<path d="M12075 5419 c-4 -5 -18 -14 -31 -19 -13 -5 -24 -15 -24 -22 0 -9 3
-9 12 0 7 7 25 12 40 12 21 0 28 5 28 20 0 21 -15 27 -25 9z"/>
<path d="M12120 5340 c0 -73 17 -98 22 -32 2 29 7 37 23 37 16 0 21 -8 23 -37
4 -50 22 -49 22 1 0 43 -19 66 -50 58 -16 -4 -20 0 -20 19 0 13 -4 24 -10 24
-6 0 -10 -30 -10 -70z"/>
<path d="M11800 5335 c0 -37 4 -65 10 -65 6 0 10 14 10 30 0 27 3 30 30 30 27
0 30 -3 30 -30 0 -17 5 -30 13 -30 8 0 12 20 12 65 0 45 -4 65 -12 65 -8 0
-13 -13 -13 -30 0 -27 -3 -30 -30 -30 -27 0 -30 3 -30 30 0 17 -4 30 -10 30
-6 0 -10 -28 -10 -65z"/>
<path d="M11940 5360 c0 -5 11 -10 25 -10 14 0 25 -4 25 -10 0 -5 -8 -10 -19
-10 -24 0 -45 -25 -37 -45 4 -10 17 -14 41 -13 30 3 35 7 35 28 0 52 -11 70
-41 70 -16 0 -29 -4 -29 -10z m50 -59 c0 -6 -5 -13 -10 -16 -15 -9 -43 3 -35
15 8 13 45 13 45 1z"/>
<path d="M12046 5354 c-22 -21 -20 -61 3 -74 24 -12 51 -13 51 -1 0 5 -9 7
-20 4 -14 -4 -21 1 -25 20 -8 32 0 47 26 47 10 0 19 5 19 10 0 16 -37 12 -54
-6z"/>
<path d="M12240 5345 c-15 -40 3 -75 40 -75 16 0 30 4 30 8 0 4 -12 8 -27 7
-14 0 -28 6 -30 13 -3 8 6 12 26 12 31 0 38 11 25 44 -10 26 -53 20 -64 -9z
m55 -5 c4 -6 -5 -10 -20 -10 -15 0 -24 4 -20 10 3 6 12 10 20 10 8 0 17 -4 20
-10z"/>
<path d="M12330 5318 c0 -36 4 -48 15 -48 11 0 15 11 15 41 0 33 3 40 18 37
12 -2 18 -14 20 -41 4 -49 22 -48 22 2 0 46 -14 60 -58 59 -32 -1 -32 -2 -32
-50z"/>
<path d="M12420 5361 c0 -5 9 -11 20 -14 15 -4 20 -14 20 -41 0 -20 5 -36 10
-36 11 0 14 59 4 84 -6 17 -54 23 -54 7z"/>
<path d="M11851 5294 c0 -11 3 -14 6 -6 3 7 2 16 -1 19 -3 4 -6 -2 -5 -13z"/>
<path d="M12547 5394 c-13 -13 4 -24 22 -14 41 22 42 -26 1 -65 -16 -16 -30
-32 -30 -37 0 -4 21 -7 48 -6 36 1 39 2 15 5 -39 5 -40 11 -7 42 36 34 30 75
-11 79 -17 2 -34 0 -38 -4z"/>
<path d="M12656 5378 c-10 -37 -7 -83 6 -96 37 -37 76 13 61 78 -7 28 -14 36
-35 38 -19 2 -27 -2 -32 -20z m52 -42 c4 -46 -10 -65 -33 -46 -15 13 -21 71
-8 84 18 18 38 -1 41 -38z"/>
<path d="M12768 5386 c-22 -16 -23 -27 -3 -20 12 5 15 -4 15 -45 0 -28 5 -51
10 -51 6 0 10 28 10 65 0 68 -3 73 -32 51z"/>
<path d="M12840 5390 c0 -5 14 -10 30 -10 30 0 39 -17 20 -36 -6 -6 -15 -25
-20 -43 -8 -28 -7 -31 5 -21 8 6 19 28 26 48 6 20 15 41 20 47 18 18 8 25 -36
25 -25 0 -45 -4 -45 -10z"/>
<path d="M12129 4750 c-8 -6 -5 -9 11 -12 34 -5 34 -20 0 -63 -16 -21 -30 -42
-30 -46 0 -5 18 -9 40 -9 45 0 55 17 13 22 l-28 3 23 23 c41 41 18 110 -29 82z"/>
<path d="M12227 4742 c-10 -11 -17 -36 -17 -61 0 -35 4 -43 25 -53 21 -10 29
-9 43 5 24 25 22 92 -3 111 -26 20 -29 20 -48 -2z m43 -53 c0 -43 -3 -50 -17
-47 -31 6 -29 98 2 98 11 0 15 -13 15 -51z"/>
<path d="M12458 4754 c-3 -3 -4 -23 -1 -45 5 -36 4 -39 -17 -39 -22 0 -22 1
-7 18 10 10 17 24 17 31 0 15 -18 -3 -37 -37 -18 -30 -17 -32 17 -32 20 0 30
-5 30 -15 0 -8 5 -15 10 -15 6 0 10 6 10 14 0 8 6 17 13 20 10 5 10 7 0 12 -8
3 -13 24 -13 50 0 40 -8 53 -22 38z"/>
<path d="M12325 4737 c-12 -10 -14 -16 -7 -21 7 -4 12 -2 12 3 0 6 4 11 10 11
5 0 11 -26 13 -57 l3 -58 2 68 c2 70 -2 76 -33 54z"/>
<path d="M10403 4460 c0 -41 2 -65 4 -52 5 24 33 31 33 8 0 -8 7 -17 16 -20
25 -10 26 -2 4 22 -24 26 -25 31 -3 48 10 7 15 16 10 20 -4 4 -17 -3 -30 -17
l-22 -24 -6 45 c-5 36 -6 30 -6 -30z"/>
<path d="M10020 4455 c0 -45 4 -65 13 -65 8 0 11 16 10 52 l-3 53 15 -35 c8
-19 18 -43 21 -53 10 -29 26 -15 43 38 l16 50 3 -52 c4 -77 23 -66 20 12 -2
70 -20 88 -38 40 -28 -72 -33 -80 -37 -65 -13 45 -38 90 -50 90 -9 0 -13 -17
-13 -65z"/>
<path d="M10490 4510 c0 -5 5 -10 10 -10 6 0 10 5 10 10 0 6 -4 10 -10 10 -5
0 -10 -4 -10 -10z"/>
<path d="M10190 4481 c0 -6 9 -11 19 -11 11 0 23 -4 26 -10 3 -5 -3 -10 -13
-10 -25 0 -46 -25 -39 -45 4 -9 19 -14 42 -13 l36 1 -3 46 c-3 44 -5 46 -35
49 -19 2 -33 -1 -33 -7z m44 -66 c-4 -8 -12 -15 -20 -15 -8 0 -14 7 -14 15 0
8 9 15 20 15 13 0 18 -5 14 -15z"/>
<path d="M10291 4435 l2 -50 6 40 c5 32 11 41 29 43 20 3 22 -1 22 -37 0 -23
5 -41 10 -41 15 0 12 76 -4 89 -7 6 -25 10 -40 9 -25 -2 -26 -5 -25 -53z"/>
<path d="M10490 4440 c0 -27 5 -50 10 -50 6 0 10 23 10 50 0 28 -4 50 -10 50
-5 0 -10 -22 -10 -50z"/>
<path d="M10530 4479 c0 -28 24 -89 36 -89 6 0 16 17 21 38 l9 37 13 -38 c15
-45 34 -44 42 4 3 19 9 40 13 47 4 7 3 12 -3 12 -5 0 -12 -13 -16 -30 -8 -37
-25 -49 -25 -18 0 25 -16 56 -24 47 -3 -3 -12 -20 -19 -38 l-14 -34 -7 37 c-6
33 -26 52 -26 25z"/>
<path d="M10002 4080 c-62 -26 -39 -130 30 -130 19 0 28 5 28 16 0 8 -5 12
-11 9 -5 -4 -21 -4 -35 -1 -20 5 -24 12 -24 45 0 41 10 50 58 52 24 0 25 1 7
9 -25 11 -25 11 -53 0z"/>
<path d="M10090 4041 c0 -4 11 -6 25 -3 18 3 25 0 25 -12 0 -11 -9 -16 -31
-16 -27 0 -30 -3 -27 -27 3 -25 7 -28 41 -30 36 -1 37 0 37 36 0 20 -5 42 -12
49 -14 14 -58 16 -58 3z m48 -53 c-7 -19 -38 -22 -38 -4 0 10 9 16 21 16 12 0
19 -5 17 -12z"/>
<path d="M10180 3998 c0 -26 5 -48 10 -48 6 0 10 15 10 34 0 24 7 39 21 50 21
14 21 15 -10 14 -30 -1 -31 -2 -31 -50z"/>
<path d="M10260 3998 c0 -27 5 -48 10 -48 6 0 10 15 10 33 0 36 8 51 30 60 8
3 0 4 -17 4 -32 -2 -33 -3 -33 -49z"/>
<path d="M10336 4034 c-21 -20 -20 -37 2 -64 14 -18 25 -22 45 -16 23 5 27 11
27 45 0 51 -40 70 -74 35z m60 -20 c4 -17 2 -29 -7 -35 -27 -17 -39 -9 -39 26
0 28 4 35 20 35 13 0 22 -9 26 -26z"/>
<path d="M10016 4031 c-8 -13 4 -41 18 -41 14 0 37 35 29 44 -10 9 -41 7 -47
-3z"/>
<path d="M12797 3863 c-9 -2 -15 -9 -12 -14 4 -5 13 -5 24 1 42 22 42 -35 1
-70 -17 -13 -30 -28 -30 -32 0 -4 21 -7 48 -6 36 1 39 2 15 5 -18 2 -33 6 -33
8 0 2 11 16 25 31 24 26 34 74 16 74 -5 0 -15 2 -23 4 -7 2 -21 2 -31 -1z"/>
<path d="M12908 3862 c-23 -4 -34 -65 -19 -98 9 -20 17 -25 39 -22 25 3 27 6
30 59 3 59 -6 71 -50 61z m42 -63 c0 -29 -23 -55 -40 -44 -14 9 -13 78 2 93
17 17 38 -11 38 -49z"/>
<path d="M13003 3863 c-7 -2 -13 -9 -13 -14 0 -6 7 -6 19 0 41 22 42 -23 1
-69 -16 -18 -30 -35 -30 -37 0 -2 21 -2 48 -1 36 1 39 2 15 5 l-33 4 25 37
c29 43 30 46 9 66 -16 17 -21 18 -41 9z"/>
<path d="M13096 3854 c-16 -15 -21 -69 -10 -98 4 -10 18 -16 35 -16 23 0 32 6
40 27 13 34 2 80 -21 93 -24 13 -26 13 -44 -6z m44 -55 c0 -35 -4 -49 -14 -49
-25 0 -35 55 -15 91 16 31 29 12 29 -42z"/>
<path d="M12657 3873 c-11 -10 -8 -133 3 -133 6 0 10 30 10 70 0 70 -1 76 -13
63z"/>
<path d="M12215 3863 c-11 -3 -23 -10 -27 -17 -12 -18 -9 -81 4 -94 14 -14 78
-16 78 -3 0 4 -11 6 -24 4 -35 -7 -61 34 -45 71 9 20 20 26 43 26 24 0 27 3
16 10 -8 5 -17 9 -20 9 -3 -1 -14 -4 -25 -6z"/>
<path d="M12226 3813 c-4 -9 0 -23 7 -30 12 -12 17 -12 32 3 16 17 16 18 -1
31 -23 17 -31 16 -38 -4z"/>
<path d="M12300 3821 c0 -4 11 -6 25 -3 15 2 25 0 25 -7 0 -6 -8 -11 -19 -11
-24 0 -45 -25 -37 -45 3 -9 18 -15 41 -15 32 0 35 2 35 29 0 47 -10 61 -41 61
-16 0 -29 -4 -29 -9z m50 -50 c0 -6 -5 -13 -10 -16 -15 -9 -43 3 -35 15 8 13
45 13 45 1z"/>
<path d="M12390 3785 c0 -33 4 -45 15 -45 10 0 15 11 15 35 0 22 6 38 18 44
14 9 11 10 -15 11 -32 0 -33 -1 -33 -45z"/>
<path d="M12471 3780 c2 -43 2 -44 8 -10 4 23 14 39 31 47 25 13 25 13 -7 11
-32 -2 -33 -3 -32 -48z"/>
<path d="M12544 3816 c-3 -8 -4 -27 -2 -43 3 -24 8 -28 40 -31 30 -3 38 1 43
18 4 12 4 32 1 46 -5 20 -13 24 -42 24 -21 0 -37 -6 -40 -14z m61 -15 c8 -26
-5 -53 -24 -49 -29 6 -27 68 3 68 8 0 17 -8 21 -19z"/>
<path d="M12121 3416 c-9 -11 -6 -12 14 -8 36 6 33 -28 -5 -71 -16 -19 -30
-37 -30 -41 0 -3 20 -6 45 -6 51 0 63 20 13 21 -18 0 -27 3 -20 6 6 2 12 11
12 18 0 7 7 15 15 19 22 8 19 53 -4 66 -25 13 -26 13 -40 -4z"/>
<path d="M12228 3419 c-21 -12 -25 -98 -6 -117 33 -33 72 8 66 68 -4 39 -34
64 -60 49z m40 -56 c-3 -54 -23 -67 -39 -27 -12 34 2 74 26 74 13 0 15 -10 13
-47z"/>
<path d="M12430 3386 c-38 -56 -38 -66 1 -66 24 0 30 -4 25 -15 -3 -9 0 -15 8
-15 8 0 16 8 18 18 6 27 -3 122 -12 122 -5 0 -23 -20 -40 -44z m30 -16 c0 -24
-4 -30 -21 -30 -20 0 -20 1 -2 30 9 17 19 30 20 30 2 0 3 -13 3 -30z"/>
<path d="M12321 3406 c-7 -9 -8 -17 -2 -20 5 -3 12 0 14 6 3 7 6 -13 6 -44 1
-32 6 -58 11 -58 6 0 10 28 10 65 0 67 -13 83 -39 51z"/>
<path d="M10310 3155 c0 -63 1 -65 25 -65 44 0 75 28 75 68 0 42 -21 61 -67
62 l-33 0 0 -65z m76 21 c10 -41 -4 -66 -37 -66 -28 0 -29 2 -29 45 0 43 1 45
30 45 23 0 31 -5 36 -24z"/>
<path d="M10350 3154 c0 -8 5 -12 10 -9 6 3 10 10 10 16 0 5 -4 9 -10 9 -5 0
-10 -7 -10 -16z"/>
<path d="M10439 3167 c-15 -33 4 -77 34 -77 30 0 47 18 47 50 0 14 -5 31 -12
38 -20 20 -57 14 -69 -11z m61 -27 c0 -25 -4 -30 -25 -30 -21 0 -25 5 -25 30
0 25 4 30 25 30 21 0 25 -5 25 -30z"/>
<path d="M10540 3138 c0 -26 5 -48 10 -48 6 0 10 18 10 41 0 36 2 40 23 37 17
-2 23 -11 28 -43 l6 -40 2 43 c1 38 4 42 25 42 22 0 25 -5 29 -42 3 -42 4 -42
5 9 l2 51 -70 -1 -70 0 0 -49z"/>
<path d="M10710 3166 c0 -17 7 -26 25 -30 14 -4 25 -11 25 -16 0 -6 -11 -10
-25 -10 -14 0 -25 -4 -25 -10 0 -5 14 -10 30 -10 24 0 30 4 30 21 0 11 -10 29
-22 40 l-23 18 23 1 c12 0 22 5 22 10 0 6 -13 10 -30 10 -25 0 -30 -4 -30 -24z"/>
<path d="M990 2925 c0 -37 4 -65 10 -65 6 0 10 15 10 33 l1 32 28 -35 c33 -39
52 -37 21 3 -25 32 -25 48 1 70 11 10 18 21 15 24 -3 4 -20 -6 -36 -22 l-30
-29 0 27 c0 15 -4 27 -10 27 -6 0 -10 -28 -10 -65z"/>
<path d="M1107 2953 c-14 -14 -7 -81 9 -87 23 -9 54 -7 54 3 0 5 -8 7 -18 4
-10 -2 -24 3 -31 11 -12 14 -9 16 23 16 38 0 43 8 26 41 -10 18 -50 26 -63 12z
m53 -23 c0 -5 -12 -10 -26 -10 -14 0 -23 4 -19 10 3 6 15 10 26 10 10 0 19 -4
19 -10z"/>
<path d="M1200 2908 c0 -26 5 -48 10 -48 6 0 10 16 10 36 0 27 5 37 20 41 30
8 24 22 -10 21 -29 -1 -30 -3 -30 -50z"/>
<path d="M1792 2978 c-16 -16 -15 -29 2 -22 12 4 16 -6 19 -48 3 -51 3 -50 5
15 2 67 -3 78 -26 55z"/>
<path d="M1876 2974 c-10 -25 -7 -42 10 -59 12 -12 19 -13 30 -4 8 6 14 7 14
2 0 -13 -22 -40 -40 -47 -8 -3 -2 -3 15 0 16 3 31 7 33 9 7 7 5 92 -2 103 -11
17 -53 14 -60 -4z m54 -29 c0 -15 -19 -24 -37 -17 -16 5 -17 24 -1 40 13 13
38 -2 38 -23z"/>
<path d="M1970 2975 c0 -12 4 -14 19 -6 14 8 22 7 31 -4 10 -13 9 -20 -6 -38
-11 -12 -25 -26 -31 -30 -7 -4 -13 -15 -13 -22 0 -11 11 -15 43 -14 41 2 41 2
8 8 l-33 6 27 29 c37 40 32 80 -12 84 -25 2 -33 -1 -33 -13z"/>
<path d="M2060 2980 c0 -5 14 -10 30 -10 36 0 37 -11 10 -65 -11 -21 -17 -41
-14 -44 8 -8 34 29 34 49 0 9 7 25 15 36 25 34 18 44 -30 44 -25 0 -45 -4 -45
-10z"/>
<path d="M2060 2923 c0 -26 1 -26 15 -7 19 25 19 34 0 34 -10 0 -15 -10 -15
-27z"/>
<path d="M12944 2555 c-18 -15 -18 -15 11 -13 43 4 45 -28 5 -67 -16 -16 -30
-32 -30 -37 0 -4 20 -8 45 -8 25 0 45 5 45 10 0 6 -14 10 -31 10 l-31 0 26 31
c31 36 33 64 7 79 -25 13 -24 13 -47 -5z"/>
<path d="M13056 2554 c-20 -20 -21 -97 -1 -114 22 -18 48 -8 56 24 17 64 -20
125 -55 90z m44 -60 c0 -41 -2 -45 -22 -42 -40 5 -38 88 2 88 17 0 20 -6 20
-46z"/>
<path d="M13153 2563 c-21 -8 -14 -26 8 -20 34 9 34 -21 0 -63 -17 -21 -31
-41 -31 -44 0 -3 20 -6 45 -6 25 0 45 5 45 10 0 6 -11 10 -25 10 -30 0 -31 4
-5 37 24 31 25 46 4 67 -16 17 -21 18 -41 9z"/>
<path d="M13264 2544 c3 -9 6 -38 6 -65 0 -27 5 -49 10 -49 6 0 10 28 10 65 0
53 -3 65 -16 65 -11 0 -14 -5 -10 -16z"/>
<path d="M13235 2530 c4 -6 11 -8 16 -5 14 9 11 15 -7 15 -8 0 -12 -5 -9 -10z"/>
<path d="M13227 2487 c-3 -8 -1 -20 4 -28 6 -10 9 -7 9 14 0 29 -5 35 -13 14z"/>
<path d="M12240 1841 l0 -71 35 0 c19 0 35 5 35 10 0 6 -11 10 -25 10 -24 0
-25 3 -25 54 0 30 -4 58 -10 61 -6 4 -10 -20 -10 -64z"/>
<path d="M12335 1860 c-4 -6 7 -10 24 -10 40 0 40 -16 0 -24 -25 -5 -30 -10
-27 -28 2 -19 10 -23 41 -25 36 -1 37 0 37 36 0 20 -5 42 -12 49 -15 15 -54
16 -63 2z m55 -55 c0 -9 -9 -15 -25 -15 -18 0 -23 4 -19 15 4 8 15 15 25 15
10 0 19 -7 19 -15z"/>
<path d="M12430 1818 c0 -26 5 -48 10 -48 6 0 10 16 10 36 0 27 5 37 20 41 30
8 24 22 -10 21 -29 -1 -30 -3 -30 -50z"/>
<path d="M12506 1854 c-9 -23 -8 -24 19 -34 14 -5 25 -14 25 -20 0 -5 -11 -10
-25 -10 -14 0 -25 -5 -25 -11 0 -6 14 -9 33 -7 24 2 33 8 35 26 2 14 -2 22
-11 22 -8 0 -20 7 -27 15 -11 13 -8 15 14 15 14 0 26 5 26 10 0 17 -57 12 -64
-6z"/>
<path d="M12596 1854 c-18 -46 1 -84 41 -84 32 0 29 18 -4 22 -42 5 -41 28 1
28 20 0 36 4 36 9 0 26 -15 41 -40 41 -16 0 -30 -7 -34 -16z m59 -14 c4 -6 -7
-10 -25 -10 -18 0 -29 4 -25 10 3 6 15 10 25 10 10 0 22 -4 25 -10z"/>
<path d="M12690 1818 c0 -56 17 -65 22 -10 2 30 7 38 26 40 20 3 22 -1 22 -37
0 -23 5 -41 10 -41 15 0 12 76 -3 88 -7 6 -27 10 -45 10 -32 -1 -32 -2 -32
-50z"/>
<path d="M12859 1893 c-13 -15 -11 -16 14 -9 24 6 27 3 27 -17 0 -12 -13 -37
-30 -55 -16 -18 -30 -35 -30 -38 0 -2 20 -4 45 -4 25 0 45 5 45 10 0 6 -12 10
-26 10 l-26 0 26 34 c31 41 32 48 8 69 -23 21 -36 21 -53 0z"/>
<path d="M12966 1894 c-20 -20 -21 -97 -1 -114 22 -18 48 -8 56 24 17 64 -20
125 -55 90z m44 -60 c0 -41 -2 -45 -22 -42 -40 5 -38 88 2 88 17 0 20 -6 20
-46z"/>
<path d="M13063 1903 c-21 -8 -14 -26 8 -20 34 9 34 -21 0 -63 -17 -21 -31
-41 -31 -44 0 -3 20 -6 45 -6 25 0 45 5 45 10 0 6 -11 10 -25 10 -30 0 -31 4
-5 37 24 31 25 46 4 67 -16 17 -21 18 -41 9z"/>
<path d="M13161 1891 c-25 -25 -27 -68 -5 -99 19 -27 36 -28 58 -3 24 27 18
89 -11 108 -19 13 -24 12 -42 -6z m49 -52 c0 -27 -11 -49 -25 -49 -19 0 -27
44 -14 77 10 27 11 27 25 9 8 -11 14 -28 14 -37z"/>
<path d="M11090 1594 l0 -65 36 3 c65 5 73 69 10 76 -34 4 -35 32 -1 32 16 0
25 -6 25 -15 0 -8 5 -15 10 -15 14 0 13 23 -2 38 -7 7 -27 12 -45 12 l-33 0 0
-66z m70 -24 c0 -14 -7 -20 -24 -20 -15 0 -26 7 -29 20 -4 17 0 20 24 20 22 0
29 -5 29 -20z"/>
<path d="M11212 1618 c-15 -15 -16 -60 0 -76 14 -14 68 -16 68 -2 0 6 -13 10
-30 10 -20 0 -30 5 -30 15 0 10 10 15 31 15 26 0 30 3 27 23 -3 25 -45 36 -66
15z m53 -18 c4 -6 -5 -10 -19 -10 -14 0 -26 5 -26 10 0 6 9 10 19 10 11 0 23
-4 26 -10z"/>
<path d="M11311 1580 c1 -55 1 -55 9 -15 4 22 4 47 -1 55 -5 10 -8 -5 -8 -40z"/>
<path d="M11335 1620 c-3 -5 3 -10 14 -10 12 0 21 5 21 10 0 6 -6 10 -14 10
-8 0 -18 -4 -21 -10z"/>
<path d="M11386 1611 c-9 -10 -16 -24 -16 -33 0 -24 36 -51 59 -43 12 3 21 2
21 -3 0 -18 -29 -34 -50 -27 -12 4 -20 2 -20 -5 0 -7 14 -10 38 -8 l37 3 3 65
3 65 -30 2 c-17 1 -35 -5 -45 -16z m56 -18 c7 -27 -2 -43 -23 -43 -14 0 -19 7
-19 30 0 23 5 30 19 30 10 0 21 -8 23 -17z"/>
<path d="M11497 1623 c-4 -3 -7 -23 -7 -44 0 -38 12 -49 51 -49 29 0 23 18 -8
22 -42 5 -41 28 1 28 37 0 47 15 24 38 -13 13 -50 16 -61 5z m53 -23 c0 -5
-12 -10 -26 -10 -14 0 -23 4 -19 10 3 6 15 10 26 10 10 0 19 -4 19 -10z"/>
<path d="M11590 1578 c0 -26 5 -48 10 -48 6 0 10 18 10 40 0 33 3 40 20 40 11
0 20 4 20 9 0 5 -13 9 -30 9 -29 -1 -30 -3 -30 -50z"/>
<path d="M11719 1653 c-13 -15 -11 -16 14 -9 24 6 27 3 27 -17 0 -12 -13 -37
-30 -55 -16 -18 -30 -35 -30 -38 0 -2 20 -4 45 -4 25 0 45 5 45 10 0 6 -12 10
-26 10 l-26 0 26 34 c31 41 32 48 8 69 -23 21 -36 21 -53 0z"/>
<path d="M11826 1654 c-20 -20 -21 -97 -1 -114 22 -18 48 -8 56 24 17 64 -20
125 -55 90z m44 -60 c0 -41 -2 -45 -22 -42 -40 5 -38 88 2 88 17 0 20 -6 20
-46z"/>
<path d="M11928 1646 c-10 -7 -18 -17 -18 -21 0 -4 7 -2 15 5 13 11 15 5 15
-44 0 -31 5 -56 10 -56 6 0 10 28 10 65 0 68 -3 73 -32 51z"/>
<path d="M12034 1644 c3 -9 6 -38 6 -65 0 -27 5 -49 10 -49 6 0 10 28 10 65 0
53 -3 65 -16 65 -11 0 -14 -5 -10 -16z"/>
<path d="M12015 1630 c3 -5 8 -10 11 -10 2 0 4 5 4 10 0 6 -5 10 -11 10 -5 0
-7 -4 -4 -10z"/>
</g>
</svg>
