<?xml version="1.0" standalone="no"?>
<!DOCTYPE svg PUBLIC "-//W3C//DTD SVG 20010904//EN"
 "http://www.w3.org/TR/2001/REC-SVG-20010904/DTD/svg10.dtd">
<svg version="1.0" xmlns="http://www.w3.org/2000/svg"
 width="1123.000000pt" height="515.000000pt" viewBox="0 0 1123.000000 515.000000"
 preserveAspectRatio="xMidYMid meet">
<metadata>
Created by potrace 1.16, written by Peter Selinger 2001-2019
</metadata>
<g transform="translate(0.000000,515.000000) scale(0.100000,-0.100000)"
fill="#000000" stroke="none">
<path d="M846 4884 c-34 -34 -9 -78 41 -72 22 2 29 9 31 31 6 50 -38 75 -72
41z"/>
<path d="M1611 4844 c-12 -15 -21 -35 -21 -45 0 -17 9 -19 80 -19 77 0 80 1
80 23 0 62 -99 91 -139 41z"/>
<path d="M3336 4758 c-13 -13 -27 -33 -31 -45 -6 -23 -5 -23 85 -23 90 0 91 0
85 23 -10 33 -52 67 -85 67 -16 0 -40 -10 -54 -22z"/>
<path d="M5975 4695 c-14 -13 -25 -33 -25 -45 0 -19 6 -20 85 -20 89 0 95 3
73 43 -28 53 -92 64 -133 22z"/>
<path d="M1260 4665 c0 -45 1 -46 28 -43 24 3 27 7 27 43 0 36 -3 40 -27 43
-27 3 -28 2 -28 -43z m48 23 c-6 -18 -28 -21 -28 -4 0 9 7 16 16 16 9 0 14 -5
12 -12z m0 -40 c-6 -18 -28 -21 -28 -4 0 9 7 16 16 16 9 0 14 -5 12 -12z"/>
<path d="M1847 4703 c-10 -10 -8 -25 2 -18 6 3 12 -12 14 -32 3 -35 4 -34 5
10 2 44 -5 57 -21 40z"/>
<path d="M1903 4694 c-3 -8 -1 -20 5 -26 7 -7 10 -5 9 7 -1 10 3 20 10 22 18
7 13 -56 -6 -67 -9 -5 -11 -9 -6 -10 30 0 50 42 35 71 -13 23 -38 25 -47 3z"/>
<path d="M1977 4704 c-10 -11 -9 -44 2 -44 5 0 7 10 4 21 -4 16 -2 20 8 17 12
-4 16 -28 10 -60 0 -3 -9 -9 -18 -11 -15 -4 -15 -5 -2 -6 24 -2 41 24 37 56
-3 27 -26 42 -41 27z"/>
<path d="M2037 4703 c-2 -5 -3 -24 -3 -43 1 -28 5 -35 21 -35 16 0 20 7 22 43
2 36 0 42 -17 42 -10 0 -21 -3 -23 -7z m33 -13 c0 -5 -4 -10 -10 -10 -5 0 -10
5 -10 10 0 6 5 10 10 10 6 0 10 -4 10 -10z m0 -45 c0 -8 -4 -15 -9 -15 -13 0
-22 16 -14 24 11 11 23 6 23 -9z"/>
<path d="M1341 4650 c1 -27 3 -29 6 -10 2 14 11 30 20 37 13 10 13 12 -6 10
-17 -1 -21 -7 -20 -37z"/>
<path d="M1391 4672 c-7 -14 -7 -24 3 -37 19 -27 48 -12 44 22 -4 33 -32 42
-47 15z m37 -14 c-5 -32 -28 -35 -28 -4 0 17 5 26 16 26 10 0 14 -7 12 -22z"/>
<path d="M1450 4687 c0 -2 5 -18 11 -35 12 -35 28 -34 30 1 1 20 2 19 12 -5
11 -29 27 -38 27 -15 0 6 3 23 5 37 l6 25 -12 -25 -11 -25 -10 25 -10 25 -14
-30 c-11 -26 -13 -27 -14 -8 0 12 -4 25 -10 28 -5 3 -10 4 -10 2z"/>
<path d="M1551 4651 c1 -36 1 -36 8 -6 3 17 13 30 21 30 8 0 18 -13 22 -30 6
-29 6 -29 5 5 -2 31 -5 35 -29 36 -26 1 -28 -2 -27 -35z"/>
<path d="M1633 4655 c0 -22 2 -30 4 -17 2 12 2 30 0 40 -3 9 -5 -1 -4 -23z"/>
<path d="M1662 4653 c1 -37 1 -37 5 -5 3 18 10 32 18 32 8 0 16 -14 18 -32 l5
-33 -2 35 c-1 28 -5 36 -23 38 -21 3 -23 -1 -21 -35z"/>
<path d="M1736 4683 c-14 -15 -5 -55 14 -60 11 -3 20 -10 20 -15 0 -5 5 -6 10
-3 6 3 10 23 10 43 0 32 -3 38 -24 40 -13 1 -26 -1 -30 -5z m35 -10 c0 -5 2
-18 3 -30 2 -18 0 -20 -16 -12 -18 10 -24 30 -11 42 9 9 23 9 24 0z"/>
<path d="M7196 4624 c-25 -25 -19 -34 24 -34 41 0 52 14 28 38 -16 16 -33 15
-52 -4z"/>
<path d="M3158 4603 c-2 -10 -1 -31 3 -48 l7 -30 2 30 c1 17 2 34 1 39 -1 5 4
13 11 17 10 7 9 9 -3 9 -9 0 -19 -8 -21 -17z"/>
<path d="M3710 4605 c-19 -22 -8 -70 15 -70 16 0 21 8 23 36 3 40 -18 59 -38
34z m30 -36 c0 -19 -5 -29 -15 -29 -15 0 -22 50 -9 63 12 12 24 -4 24 -34z"/>
<path d="M2967 4602 c6 -4 13 -23 16 -42 l4 -35 1 37 c2 25 7 38 20 41 9 3 1
5 -18 6 -19 0 -30 -3 -23 -7z"/>
<path d="M3258 4598 c-9 -25 5 -68 21 -67 10 0 11 2 4 6 -15 5 -17 40 -4 45 5
2 3 8 -4 15 -10 9 -15 9 -17 1z"/>
<path d="M3600 4592 c0 -11 -7 -25 -15 -32 -23 -19 -18 -30 13 -29 16 1 20 3
10 6 -16 4 -16 7 -3 33 9 18 11 31 5 35 -6 3 -10 -3 -10 -13z"/>
<path d="M3634 4596 c-11 -28 1 -61 22 -64 24 -3 36 23 27 58 -6 23 -41 27
-49 6z m36 -27 c0 -38 -24 -35 -28 4 -2 19 1 27 12 27 11 0 16 -10 16 -31z"/>
<path d="M3770 4590 c0 -11 6 -20 14 -20 26 0 28 -20 4 -30 l-23 -10 25 3 c32
3 40 36 11 44 -26 7 -27 20 -3 26 13 4 11 5 -5 6 -17 1 -23 -5 -23 -19z"/>
<path d="M3027 4576 c-11 -27 3 -46 32 -45 23 2 24 2 4 6 -29 6 -30 23 -2 23
26 0 20 24 -8 28 -11 2 -23 -4 -26 -12z m40 -2 c-3 -3 -12 -4 -19 -1 -8 3 -5
6 6 6 11 1 17 -2 13 -5z"/>
<path d="M3090 4580 c0 -5 10 -15 23 -22 l22 -12 -25 -7 c-23 -6 -23 -7 -3 -8
31 -1 37 15 12 32 -19 14 -20 15 -2 20 15 4 14 5 -4 6 -13 0 -23 -3 -23 -9z"/>
<path d="M3214 4583 c15 -4 16 -7 5 -14 -10 -6 -10 -9 -1 -9 6 0 12 -4 12 -10
0 -14 -27 -12 -33 3 -3 7 -6 5 -6 -5 -1 -13 7 -18 24 -18 21 0 25 5 25 30 0
25 -4 30 -22 29 -20 -1 -20 -2 -4 -6z"/>
<path d="M3300 4576 c0 -8 8 -17 18 -21 16 -7 15 -8 -3 -15 -19 -8 -19 -9 3
-9 26 -1 30 26 5 36 -15 6 -15 7 3 14 17 7 17 8 -3 8 -13 1 -23 -5 -23 -13z"/>
<path d="M3362 4560 c0 -19 2 -27 5 -17 2 9 2 25 0 35 -3 9 -5 1 -5 -18z"/>
<path d="M3394 4576 c-10 -26 4 -48 28 -44 17 2 23 10 23 28 0 18 -6 26 -23
28 -13 2 -25 -3 -28 -12z m41 -16 c0 -8 -8 -16 -17 -18 -13 -2 -18 3 -18 18 0
15 5 20 18 18 9 -2 17 -10 17 -18z"/>
<path d="M3471 4558 c2 -31 2 -31 6 -5 2 15 10 27 18 27 8 0 16 -12 18 -27 4
-26 4 -26 6 5 1 28 -2 32 -24 32 -22 0 -25 -4 -24 -32z"/>
<path d="M7870 4582 c-56 -19 -26 -105 30 -87 21 7 36 46 25 64 -10 17 -39 29
-55 23z"/>
<path d="M6010 4549 c-13 -9 -12 -10 2 -5 28 8 32 -14 9 -45 l-22 -29 28 1
c19 1 22 3 10 6 -17 4 -17 6 -2 23 29 32 8 73 -25 49z"/>
<path d="M6080 4545 c-19 -22 -8 -70 15 -70 16 0 21 8 23 36 3 40 -18 59 -38
34z m30 -36 c0 -19 -5 -29 -15 -29 -15 0 -22 50 -9 63 12 12 24 -4 24 -34z"/>
<path d="M6209 4548 c-11 -8 -11 -9 3 -4 28 8 32 -14 9 -45 l-22 -29 28 1 c22
0 24 2 10 8 -17 6 -17 8 -3 20 32 27 9 73 -25 49z"/>
<path d="M5810 4510 c0 -22 5 -40 10 -40 6 0 10 9 10 20 0 29 37 27 43 -2 2
-13 4 -3 4 22 1 25 -1 37 -4 28 -5 -22 -43 -24 -43 -3 0 8 -4 15 -10 15 -5 0
-10 -18 -10 -40z"/>
<path d="M6144 4538 c-4 -6 -3 -8 4 -4 7 4 12 -7 15 -31 l4 -38 1 43 c2 40 -9
55 -24 30z"/>
<path d="M5901 4503 c-1 -29 2 -33 24 -33 22 0 25 4 24 33 -2 30 -2 30 -6 5
-2 -16 -10 -28 -18 -28 -8 0 -16 12 -18 28 -4 25 -4 25 -6 -5z"/>
<path d="M2292 4513 c-13 -5 -42 -55 -42 -73 0 -6 31 -10 80 -10 74 0 80 2 80
20 0 47 -68 83 -118 63z"/>
<path d="M6962 4475 c0 -27 2 -43 5 -35 3 8 13 24 22 35 15 18 15 19 -1 7 -14
-12 -17 -10 -21 15 -2 16 -4 6 -5 -22z"/>
<path d="M7143 4475 c0 -27 2 -38 4 -22 2 15 2 37 0 50 -2 12 -4 0 -4 -28z"/>
<path d="M7248 4503 c-2 -10 -1 -31 3 -48 l7 -30 2 30 c1 17 2 34 1 39 -1 5 4
13 11 17 10 7 9 9 -3 9 -9 0 -19 -8 -21 -17z"/>
<path d="M7319 4508 c-11 -8 -11 -9 3 -4 28 8 32 -14 9 -45 l-22 -29 28 1 c22
0 24 2 10 8 -17 6 -17 8 -3 20 32 27 9 73 -25 49z"/>
<path d="M7526 4507 c-26 -19 -18 -71 12 -75 18 -3 22 1 22 22 0 20 -5 26 -22
26 -20 0 -21 1 -3 20 21 23 17 26 -9 7z m24 -52 c0 -8 -7 -15 -15 -15 -8 0
-15 7 -15 15 0 8 7 15 15 15 8 0 15 -7 15 -15z"/>
<path d="M6900 4506 c0 -2 -7 -21 -16 -42 -11 -27 -12 -35 -3 -26 16 15 49 16
49 0 0 -6 3 -9 6 -5 8 7 -18 77 -28 77 -4 0 -8 -2 -8 -4z m20 -37 c0 -5 -4 -9
-10 -9 -5 0 -10 7 -10 16 0 8 5 12 10 9 6 -3 10 -10 10 -16z"/>
<path d="M7382 4473 c2 -30 7 -38 23 -38 15 0 21 8 23 29 2 16 0 32 -5 37 -5
5 -7 -6 -5 -26 3 -28 1 -35 -13 -35 -14 0 -16 7 -13 35 2 19 0 35 -5 35 -4 0
-7 -17 -5 -37z"/>
<path d="M7454 4498 c-4 -6 -3 -8 4 -4 7 4 12 -7 15 -31 l4 -38 1 43 c2 40 -9
55 -24 30z"/>
<path d="M7022 4463 c2 -22 9 -28 28 -30 22 -1 22 -1 3 4 -28 6 -30 23 -3 23
11 0 20 7 20 15 0 9 -10 15 -26 15 -22 0 -25 -4 -22 -27z m35 11 c-3 -3 -12
-4 -19 -1 -8 3 -5 6 6 6 11 1 17 -2 13 -5z"/>
<path d="M7091 4458 c2 -28 2 -29 6 -8 3 14 10 28 17 32 7 5 5 8 -6 8 -14 0
-18 -8 -17 -32z"/>
<path d="M7172 4463 c3 -32 41 -45 51 -19 10 26 -3 46 -30 46 -21 0 -24 -4
-21 -27z m38 -3 c0 -11 -7 -20 -15 -20 -8 0 -15 9 -15 20 0 11 7 20 15 20 8 0
15 -9 15 -20z"/>
<path d="M6980 4452 c0 -12 19 -26 26 -19 2 2 -2 10 -11 17 -9 8 -15 8 -15 2z"/>
<path d="M2924 4416 c-19 -19 -34 -43 -34 -55 0 -20 5 -21 106 -21 105 0 105
0 99 23 -27 89 -109 115 -171 53z"/>
<path d="M8505 4425 c-43 -42 -34 -55 40 -55 58 0 65 2 65 19 0 21 -44 61 -67
61 -8 0 -25 -11 -38 -25z"/>
<path d="M5045 4345 c-14 -13 -25 -33 -25 -45 0 -19 6 -20 90 -20 94 0 100 3
78 43 -18 34 -39 46 -81 47 -27 0 -45 -7 -62 -25z"/>
<path d="M2060 4315 c0 -45 20 -66 21 -22 l0 22 16 -22 c8 -13 20 -23 26 -23
5 0 3 8 -6 18 -20 22 -22 43 -4 62 6 8 2 6 -10 -4 -21 -17 -23 -17 -23 -3 0
10 -4 17 -10 17 -5 0 -10 -20 -10 -45z"/>
<path d="M2213 4315 c0 -27 2 -38 4 -22 2 15 2 37 0 50 -2 12 -4 0 -4 -28z"/>
<path d="M2243 4315 c0 -27 2 -38 4 -22 2 15 2 37 0 50 -2 12 -4 0 -4 -28z"/>
<path d="M2373 4353 c23 -6 22 -26 -3 -48 -28 -26 -25 -35 13 -34 28 1 29 2 8
8 -21 6 -22 8 -7 20 9 7 16 24 16 37 0 19 -5 24 -22 23 -17 -1 -19 -2 -5 -6z"/>
<path d="M2424 4333 c-12 -47 30 -82 46 -38 10 26 -5 65 -24 65 -9 0 -19 -12
-22 -27z m36 -19 c0 -24 -4 -34 -12 -32 -24 8 -22 68 2 68 5 0 10 -16 10 -36z"/>
<path d="M2497 4354 c-14 -14 -7 -75 9 -81 21 -8 35 15 32 52 -3 29 -25 44
-41 29z m28 -39 c0 -16 -6 -30 -12 -32 -9 -3 -13 7 -13 32 0 25 4 35 13 33 6
-3 12 -17 12 -33z"/>
<path d="M2554 4336 c-7 -28 12 -69 28 -64 36 12 34 88 -2 88 -12 0 -22 -9
-26 -24z m41 3 c9 -13 -3 -59 -14 -59 -13 0 -22 30 -16 51 7 21 20 25 30 8z"/>
<path d="M2141 4322 c-13 -23 8 -58 30 -49 10 4 9 6 -3 6 -25 1 -22 21 3 21
14 0 19 5 17 17 -5 25 -35 28 -47 5z m34 -2 c3 -5 -1 -10 -9 -10 -9 0 -16 5
-16 10 0 6 4 10 9 10 6 0 13 -4 16 -10z"/>
<path d="M2261 4333 c-1 -7 4 -23 10 -37 9 -20 9 -29 -1 -43 -13 -16 -12 -17
2 -3 20 18 50 90 39 90 -5 0 -12 -12 -16 -27 l-7 -28 -13 30 c-7 17 -14 25
-14 18z"/>
<path d="M1209 4291 c-16 -16 -29 -39 -29 -50 0 -20 5 -21 95 -21 90 0 95 1
95 21 0 35 -53 79 -95 79 -27 0 -44 -8 -66 -29z"/>
<path d="M8200 4255 c0 -45 1 -46 28 -43 24 3 27 7 27 43 0 36 -3 40 -27 43
-27 3 -28 2 -28 -43z m48 23 c-6 -18 -28 -21 -28 -4 0 9 7 16 16 16 9 0 14 -5
12 -12z m0 -40 c-6 -18 -28 -21 -28 -4 0 9 7 16 16 16 9 0 14 -5 12 -12z"/>
<path d="M8532 4255 c1 -36 2 -41 5 -17 3 18 10 32 18 32 8 0 15 -14 18 -32
l4 -33 1 33 c2 23 -3 35 -15 39 -10 4 -21 11 -25 17 -4 6 -7 -11 -6 -39z"/>
<path d="M8653 4293 c23 -6 22 -26 -3 -48 -27 -25 -25 -35 8 -34 18 1 21 3 9
6 -17 4 -17 6 -2 30 19 29 13 54 -12 52 -17 -1 -17 -2 0 -6z"/>
<path d="M8707 4294 c-14 -14 -7 -75 9 -81 21 -8 35 15 32 52 -3 29 -25 44
-41 29z m28 -39 c0 -16 -6 -30 -12 -32 -9 -3 -13 7 -13 32 0 25 4 35 13 33 6
-3 12 -17 12 -33z"/>
<path d="M8775 4290 c-3 -5 -2 -10 4 -10 5 0 12 -17 14 -37 3 -35 4 -34 5 10
2 44 -9 60 -23 37z"/>
<path d="M8848 4293 c26 -5 26 -6 6 -44 -8 -17 -13 -33 -10 -36 5 -5 36 62 36
78 0 5 -12 8 -27 8 -24 -2 -25 -2 -5 -6z"/>
<path d="M8281 4240 c1 -27 3 -29 6 -10 2 14 11 30 20 37 13 10 13 12 -6 10
-17 -1 -21 -7 -20 -37z"/>
<path d="M8355 4266 c20 -15 20 -15 -2 -16 -16 0 -23 -6 -23 -20 0 -15 6 -19
25 -18 22 2 26 7 23 33 -2 21 -9 31 -23 33 l-20 4 20 -16z m10 -36 c-3 -5 -10
-10 -16 -10 -5 0 -9 5 -9 10 0 6 7 10 16 10 8 0 12 -4 9 -10z"/>
<path d="M8402 4243 c1 -37 1 -37 5 -5 3 18 10 32 18 32 8 0 16 -14 18 -32 l5
-33 -2 35 c-1 28 -5 36 -23 38 -21 3 -23 -1 -21 -35z"/>
<path d="M8474 4266 c-10 -25 0 -51 21 -54 18 -2 19 -2 3 8 -10 6 -18 17 -18
25 0 8 8 19 18 24 16 10 16 10 -1 11 -10 0 -20 -6 -23 -14z"/>
<path d="M2960 4260 c-12 -8 -11 -10 8 -10 27 0 28 -10 1 -44 l-20 -26 28 1
c18 1 22 3 10 6 -17 4 -17 6 -2 23 29 32 9 72 -25 50z"/>
<path d="M3031 4261 c-7 -5 -11 -22 -9 -42 2 -26 8 -34 23 -34 15 0 21 8 23
31 3 34 -16 58 -37 45z m29 -41 c0 -20 -5 -30 -15 -30 -10 0 -15 10 -15 30 0
20 5 30 15 30 10 0 15 -10 15 -30z"/>
<path d="M2792 4223 c-2 -41 -1 -43 26 -42 22 1 23 2 5 6 -17 3 -23 13 -26 41
l-4 37 -1 -42z"/>
<path d="M3084 4246 c-11 -28 1 -61 22 -64 24 -3 36 23 27 58 -6 23 -41 27
-49 6z m36 -27 c0 -38 -24 -35 -28 4 -2 19 1 27 12 27 11 0 16 -10 16 -31z"/>
<path d="M3162 4233 c-23 -33 -23 -33 -3 -33 12 0 21 -5 21 -10 0 -6 6 -5 14
2 8 7 10 15 6 18 -4 3 -10 16 -11 30 l-4 25 -23 -32z m18 -8 c0 -8 -4 -15 -10
-15 -5 0 -7 7 -4 15 4 8 8 15 10 15 2 0 4 -7 4 -15z"/>
<path d="M5846 4241 c-26 -29 -18 -89 16 -114 64 -48 149 37 101 101 -26 35
-90 43 -117 13z"/>
<path d="M2852 4213 c3 -32 41 -45 51 -19 10 26 -3 46 -30 46 -21 0 -24 -4
-21 -27z m38 -3 c0 -11 -7 -20 -15 -20 -8 0 -15 9 -15 20 0 11 7 20 15 20 8 0
15 -9 15 -20z"/>
<path d="M4903 4165 c0 -27 2 -38 4 -22 2 15 2 37 0 50 -2 12 -4 0 -4 -28z"/>
<path d="M5230 4199 c-13 -9 -12 -10 2 -5 27 8 32 -13 9 -38 -28 -29 -27 -36
7 -35 16 1 20 3 10 6 -16 4 -16 6 -1 29 14 22 14 27 2 39 -10 10 -18 11 -29 4z"/>
<path d="M4754 4186 c-3 -8 -4 -25 -2 -38 2 -18 10 -24 36 -26 27 -3 32 0 32
17 0 14 -6 21 -17 20 -11 0 -13 -3 -5 -6 21 -8 13 -25 -10 -21 -16 2 -24 11
-26 30 -3 22 1 27 25 31 l28 4 -28 2 c-16 0 -30 -5 -33 -13z"/>
<path d="M5118 4190 c-9 -27 4 -70 21 -70 13 0 13 2 2 9 -8 5 -12 18 -9 29 6
23 -7 53 -14 32z"/>
<path d="M5285 4180 c-9 -29 4 -60 25 -60 10 0 22 9 25 20 9 29 -4 60 -25 60
-10 0 -22 -9 -25 -20z m40 -20 c0 -27 -20 -38 -28 -15 -8 20 3 47 17 42 6 -2
11 -14 11 -27z"/>
<path d="M5355 4190 c-3 -5 -2 -10 4 -10 5 0 12 -15 14 -32 3 -29 4 -27 5 10
2 39 -9 55 -23 32z"/>
<path d="M5422 4163 c2 -30 7 -38 23 -38 15 0 21 8 23 29 2 16 0 32 -5 37 -5
5 -7 -6 -5 -26 3 -28 1 -35 -13 -35 -14 0 -16 7 -13 35 2 19 0 35 -5 35 -4 0
-7 -17 -5 -37z"/>
<path d="M5072 4158 c2 -17 9 -33 16 -36 11 -3 11 -1 0 17 -11 18 -11 23 0 30
11 7 10 9 -3 15 -13 5 -16 0 -13 -26z"/>
<path d="M4855 4171 c19 -8 19 -8 -2 -15 -31 -10 -30 -36 2 -36 21 0 25 5 25
30 0 25 -4 30 -22 29 -22 0 -22 -1 -3 -8z m15 -31 c0 -5 -7 -10 -16 -10 -8 0
-12 5 -9 10 3 6 10 10 16 10 5 0 9 -4 9 -10z"/>
<path d="M4934 4165 c-10 -24 4 -45 28 -44 l23 2 -22 4 c-28 5 -30 23 -3 23
11 0 20 7 20 15 0 8 -9 15 -20 15 -11 0 -23 -7 -26 -15z m33 -1 c-3 -3 -12 -4
-19 -1 -8 3 -5 6 6 6 11 1 17 -2 13 -5z"/>
<path d="M5002 4153 c3 -32 41 -45 51 -19 10 26 -3 46 -30 46 -21 0 -24 -4
-21 -27z m38 -3 c0 -11 -7 -20 -15 -20 -8 0 -15 9 -15 20 0 11 7 20 15 20 8 0
15 -9 15 -20z"/>
<path d="M5162 4150 c0 -19 2 -27 5 -17 2 9 2 25 0 35 -3 9 -5 1 -5 -18z"/>
<path d="M1153 4105 c0 -27 2 -38 4 -22 2 15 2 37 0 50 -2 12 -4 0 -4 -28z"/>
<path d="M1183 4105 c0 -27 2 -38 4 -22 2 15 2 37 0 50 -2 12 -4 0 -4 -28z"/>
<path d="M1011 4098 c1 -24 3 -35 6 -25 6 21 12 22 27 1 10 -12 12 -8 13 25 2
37 0 41 -23 41 -22 0 -24 -4 -23 -42z m37 20 c-6 -18 -28 -21 -28 -4 0 9 7 16
16 16 9 0 14 -5 12 -12z"/>
<path d="M1305 4130 c-3 -5 -2 -10 4 -10 5 0 12 -15 14 -32 3 -29 4 -27 5 10
2 39 -9 55 -23 32z"/>
<path d="M1366 4131 c-9 -14 4 -41 20 -41 20 0 17 -18 -3 -23 -15 -4 -15 -5
-2 -6 41 -3 53 71 12 77 -11 2 -24 -1 -27 -7z m40 -24 c2 -14 -1 -15 -17 -6
-11 5 -17 15 -13 20 9 14 27 6 30 -14z"/>
<path d="M1434 4125 c-7 -18 3 -35 22 -35 20 0 18 -18 -3 -23 -17 -4 -17 -5 0
-6 10 0 21 9 26 21 9 24 3 58 -9 58 -5 0 -6 -10 -3 -21 4 -16 2 -20 -8 -17 -8
3 -13 13 -13 22 2 20 -5 21 -12 1z"/>
<path d="M1502 4103 c2 -30 7 -38 23 -38 15 0 21 8 23 29 2 16 0 32 -5 37 -5
5 -7 -6 -5 -26 3 -28 1 -35 -13 -35 -14 0 -16 7 -13 35 2 19 0 35 -5 35 -4 0
-7 -17 -5 -37z"/>
<path d="M8350 4125 c0 -23 37 -55 63 -55 27 0 57 28 57 53 0 14 -11 17 -60
17 -47 0 -60 -3 -60 -15z"/>
<path d="M1082 4093 c3 -32 41 -45 51 -19 10 26 -3 46 -30 46 -21 0 -24 -4
-21 -27z m38 -3 c0 -11 -7 -20 -15 -20 -8 0 -15 9 -15 20 0 11 7 20 15 20 8 0
15 -9 15 -20z"/>
<path d="M1210 4106 c0 -8 8 -17 18 -21 16 -7 15 -8 -3 -15 -19 -8 -19 -9 3
-9 26 -1 30 26 5 36 -15 6 -15 7 3 14 17 7 17 8 -3 8 -13 1 -23 -5 -23 -13z"/>
<path d="M4515 4035 c-14 -13 -25 -36 -25 -50 0 -25 0 -25 90 -25 90 0 90 0
90 25 0 68 -104 102 -155 50z"/>
<path d="M5290 4025 c0 -35 42 -75 79 -75 37 0 80 36 83 70 3 25 2 25 -79 28
l-83 3 0 -26z"/>
<path d="M7566 3998 c-13 -13 -27 -33 -31 -45 -6 -23 -5 -23 85 -23 90 0 91 0
85 23 -10 33 -52 67 -85 67 -16 0 -40 -10 -54 -22z"/>
<path d="M2815 3968 c-30 -16 -55 -50 -55 -75 0 -22 3 -23 100 -23 94 0 100 1
100 21 0 64 -86 110 -145 77z"/>
<path d="M4221 3843 c1 -27 4 -38 6 -25 3 13 12 22 23 22 10 0 21 4 24 9 11
18 -6 41 -30 41 -22 0 -24 -4 -23 -47z m39 22 c0 -8 -7 -15 -15 -15 -8 0 -15
7 -15 15 0 8 7 15 15 15 8 0 15 -7 15 -15z"/>
<path d="M4690 3880 c0 -5 7 -7 15 -4 19 8 20 -16 0 -42 -21 -28 -18 -34 13
-33 23 2 24 2 4 6 l-22 4 19 25 c11 14 17 32 14 40 -6 16 -43 20 -43 4z"/>
<path d="M4754 3866 c-7 -28 12 -69 28 -64 36 12 34 88 -2 88 -12 0 -22 -9
-26 -24z m41 3 c9 -13 -3 -59 -14 -59 -13 0 -22 30 -16 51 7 21 20 25 30 8z"/>
<path d="M4824 3877 c-3 -9 -4 -28 -2 -44 2 -20 8 -28 23 -28 17 0 20 7 20 40
0 30 -4 41 -18 43 -9 2 -20 -3 -23 -11z m34 -29 c-3 -34 -20 -42 -26 -13 -5
22 5 45 18 45 7 0 10 -14 8 -32z"/>
<path d="M4897 3884 c-10 -11 -9 -44 2 -44 5 0 7 10 4 21 -4 16 -2 20 8 17 12
-4 16 -28 10 -60 0 -3 -9 -9 -18 -11 -15 -4 -15 -5 -2 -6 24 -2 41 24 37 56
-3 27 -26 42 -41 27z"/>
<path d="M4293 3835 c0 -22 2 -30 4 -17 2 12 2 30 0 40 -3 9 -5 -1 -4 -23z"/>
<path d="M4343 3864 c24 -7 21 -24 -4 -24 -29 0 -21 -35 9 -36 20 -1 23 3 20
30 -2 22 -8 31 -23 33 -16 1 -16 1 -2 -3z m12 -44 c-3 -5 -10 -10 -16 -10 -5
0 -9 5 -9 10 0 6 7 10 16 10 8 0 12 -4 9 -10z"/>
<path d="M4404 3861 c14 -5 16 -10 8 -15 -7 -4 -17 -16 -22 -27 -9 -17 -7 -19
17 -18 21 0 24 2 10 7 -16 7 -16 9 -3 27 21 28 20 35 -6 34 -21 0 -21 -1 -4
-8z"/>
<path d="M4453 3863 c21 -6 22 -17 2 -33 -23 -19 -18 -30 13 -29 16 1 20 3 10
6 -22 6 -23 17 -3 33 23 19 18 30 -12 29 -17 -1 -21 -3 -10 -6z"/>
<path d="M4509 3854 c-16 -19 -1 -48 27 -51 13 -2 11 1 -6 9 l-25 12 28 4 c29
4 33 12 15 30 -16 16 -23 15 -39 -4z m31 -4 c0 -5 -7 -10 -16 -10 -8 0 -12 5
-9 10 3 6 10 10 16 10 5 0 9 -4 9 -10z"/>
<path d="M4574 3858 c-4 -6 0 -16 9 -23 22 -16 21 -22 0 -28 -17 -4 -17 -5 0
-6 26 -2 34 29 11 42 -17 10 -17 11 1 18 16 6 17 8 3 8 -9 1 -20 -4 -24 -11z"/>
<path d="M4633 3835 c0 -22 2 -30 4 -17 2 12 2 30 0 40 -3 9 -5 -1 -4 -23z"/>
<path d="M8247 3852 c-23 -25 -21 -55 3 -77 32 -29 74 -10 78 35 5 54 -46 81
-81 42z"/>
<path d="M7630 3845 c0 -8 -9 -15 -20 -15 -16 0 -20 -7 -20 -30 0 -25 4 -30
25 -30 23 0 25 4 25 45 0 25 -2 45 -5 45 -3 0 -5 -7 -5 -15z m0 -45 c0 -11 -7
-20 -15 -20 -8 0 -15 9 -15 20 0 11 7 20 15 20 8 0 15 -9 15 -20z"/>
<path d="M7770 3849 c-13 -9 -12 -10 2 -5 27 8 32 -13 9 -38 -28 -29 -27 -36
7 -35 16 1 20 3 10 6 -16 4 -16 6 -1 29 14 22 14 27 2 39 -10 10 -18 11 -29 4z"/>
<path d="M7976 3847 c-25 -18 -18 -72 9 -72 28 0 33 35 6 42 -26 7 -26 12 -3
29 22 17 11 18 -12 1z m24 -52 c0 -8 -7 -15 -15 -15 -8 0 -15 7 -15 15 0 8 7
15 15 15 8 0 15 -7 15 -15z"/>
<path d="M7230 3810 c0 -36 3 -40 24 -40 28 0 41 14 29 33 -4 6 -6 20 -5 30 2
12 -4 17 -22 17 -24 0 -26 -4 -26 -40z m40 20 c0 -5 -7 -10 -15 -10 -8 0 -15
5 -15 10 0 6 7 10 15 10 8 0 15 -4 15 -10z m0 -35 c0 -8 -7 -15 -15 -15 -8 0
-15 7 -15 15 0 8 7 15 15 15 8 0 15 -7 15 -15z"/>
<path d="M7825 3830 c-9 -29 4 -60 25 -60 10 0 22 9 25 20 9 29 -4 60 -25 60
-10 0 -22 -9 -25 -20z m40 -20 c0 -27 -20 -38 -28 -15 -8 20 3 47 17 42 6 -2
11 -14 11 -27z"/>
<path d="M7904 3838 c-4 -6 -3 -8 4 -4 7 4 12 -7 15 -31 l4 -38 1 43 c2 40 -9
55 -24 30z"/>
<path d="M9434 3832 c-11 -7 -34 -45 -34 -56 0 -3 32 -6 70 -6 75 0 83 7 54
48 -15 22 -66 30 -90 14z"/>
<path d="M7304 3800 c1 -20 7 -26 29 -28 25 -3 27 -1 26 30 -1 30 -2 31 -8 8
-9 -33 -38 -39 -44 -8 -4 21 -4 21 -3 -2z"/>
<path d="M7381 3798 c2 -28 2 -29 6 -8 3 14 10 28 17 32 7 5 5 8 -6 8 -14 0
-18 -8 -17 -32z"/>
<path d="M7431 3798 c2 -31 2 -31 6 -5 2 15 10 27 18 27 8 0 16 -12 18 -27 4
-26 4 -26 6 5 1 28 -2 32 -24 32 -22 0 -25 -4 -24 -32z"/>
<path d="M7500 3816 c0 -8 8 -17 18 -21 16 -7 15 -8 -3 -15 -19 -8 -19 -9 3
-9 26 -1 30 24 5 34 -17 7 -16 8 2 15 19 8 19 9 -2 9 -13 1 -23 -5 -23 -13z"/>
<path d="M7562 3800 c0 -19 2 -27 5 -17 2 9 2 25 0 35 -3 9 -5 1 -5 -18z"/>
<path d="M7664 3815 c-10 -24 4 -45 28 -44 l23 2 -22 4 c-28 5 -30 23 -3 23
11 0 20 7 20 15 0 8 -9 15 -20 15 -11 0 -23 -7 -26 -15z m33 -1 c-3 -3 -12 -4
-19 -1 -8 3 -5 6 6 6 11 1 17 -2 13 -5z"/>
<path d="M2738 3783 c-2 -10 -1 -31 3 -48 l7 -30 2 30 c1 17 2 36 1 43 -1 6 3
12 8 12 5 0 12 -19 14 -42 l4 -43 1 48 c2 40 -1 47 -17 47 -10 0 -21 -8 -23
-17z"/>
<path d="M2909 3789 c-11 -7 -9 -9 9 -9 28 0 28 -17 0 -47 l-21 -23 34 1 c29
1 31 2 10 8 -21 6 -22 8 -7 20 32 27 10 72 -25 50z"/>
<path d="M2980 3785 c-19 -22 -8 -70 15 -70 16 0 21 8 23 36 3 40 -18 59 -38
34z m30 -36 c0 -19 -5 -29 -15 -29 -15 0 -22 50 -9 63 12 12 24 -4 24 -34z"/>
<path d="M3109 3789 c-11 -8 -10 -9 5 -7 10 2 21 -3 23 -9 3 -7 -3 -13 -14
-13 -17 -1 -17 -1 0 -11 23 -14 21 -27 -5 -32 -20 -4 -20 -4 4 -6 25 -1 27 2
26 38 0 41 -15 56 -39 40z"/>
<path d="M2570 3750 c0 -35 3 -40 24 -40 32 0 50 24 42 55 -5 20 -13 25 -36
25 -28 0 -30 -2 -30 -40z m55 0 c0 -18 -6 -26 -22 -28 -20 -3 -23 1 -23 28 0
27 3 31 23 28 16 -2 22 -10 22 -28z"/>
<path d="M3042 3753 c2 -30 7 -38 23 -38 15 0 21 8 23 29 2 16 0 32 -5 37 -5
5 -7 -6 -5 -26 3 -28 1 -35 -13 -35 -14 0 -16 7 -13 35 2 19 0 35 -5 35 -4 0
-7 -17 -5 -37z"/>
<path d="M2661 3743 c-1 -29 2 -33 24 -33 22 0 25 4 24 33 -2 30 -2 30 -6 5
-2 -16 -10 -28 -18 -28 -8 0 -16 12 -18 28 -4 25 -4 25 -6 -5z"/>
<path d="M2804 3756 c-10 -26 4 -48 28 -44 17 2 23 10 23 28 0 18 -6 26 -23
28 -13 2 -25 -3 -28 -12z m41 -16 c0 -8 -8 -16 -17 -18 -13 -2 -18 3 -18 18 0
15 5 20 18 18 9 -2 17 -10 17 -18z"/>
<path d="M10632 3748 c-24 -24 -13 -38 28 -38 26 0 40 5 40 13 0 18 -21 37
-40 37 -9 0 -21 -5 -28 -12z"/>
<path d="M9533 3655 c0 -27 2 -38 4 -22 2 15 2 37 0 50 -2 12 -4 0 -4 -28z"/>
<path d="M9105 3654 c-18 -44 -19 -52 -3 -36 15 15 48 16 48 0 0 -6 3 -9 6 -6
6 6 -22 78 -30 78 -3 0 -13 -16 -21 -36z m35 -6 c0 -5 -4 -8 -10 -8 -5 0 -10
10 -10 23 0 18 2 19 10 7 5 -8 10 -18 10 -22z"/>
<path d="M9598 3683 c28 -6 28 -20 0 -50 l-21 -23 34 1 c29 1 31 2 10 8 -21 6
-22 8 -7 20 9 7 16 22 16 32 0 14 -7 19 -27 18 -24 -2 -25 -2 -5 -6z"/>
<path d="M9654 3676 c-11 -28 1 -61 22 -64 24 -3 36 23 27 58 -6 23 -41 27
-49 6z m36 -27 c0 -38 -24 -35 -28 4 -2 19 1 27 12 27 11 0 16 -10 16 -31z"/>
<path d="M9724 3678 c-4 -6 -3 -8 4 -4 7 4 12 -7 15 -31 l4 -38 1 43 c2 40 -9
55 -24 30z"/>
<path d="M9786 3681 c-9 -14 4 -41 20 -41 20 0 17 -18 -3 -23 -15 -4 -15 -5
-2 -6 41 -3 53 71 12 77 -11 2 -24 -1 -27 -7z m40 -24 c2 -14 -1 -15 -17 -6
-11 5 -17 15 -13 20 9 14 27 6 30 -14z"/>
<path d="M2138 3662 c-28 -17 -58 -67 -58 -96 0 -14 17 -16 120 -16 133 0 135
1 105 64 -29 61 -110 84 -167 48z"/>
<path d="M3177 3663 c-11 -11 -38 -18 -82 -21 -47 -3 -65 -8 -65 -18 0 -11 21
-14 95 -14 87 0 95 2 95 19 0 24 -10 51 -19 51 -4 0 -14 -8 -24 -17z"/>
<path d="M9174 3655 c-9 -23 2 -43 28 -47 l23 -5 -25 -11 -25 -12 25 3 c22 2
25 7 28 45 3 39 2 42 -23 42 -14 0 -28 -7 -31 -15z m46 -15 c0 -11 -6 -20 -14
-20 -18 0 -29 16 -21 30 11 18 35 11 35 -10z"/>
<path d="M9263 3663 c18 -5 17 -6 -2 -20 -12 -8 -19 -19 -16 -24 10 -15 55
-11 55 5 0 29 -13 46 -34 45 -18 -1 -18 -2 -3 -6z m17 -33 c0 -5 -7 -10 -16
-10 -8 0 -12 5 -9 10 3 6 10 10 16 10 5 0 9 -4 9 -10z"/>
<path d="M9321 3638 c2 -28 2 -29 6 -8 3 14 10 28 17 32 7 5 5 8 -6 8 -14 0
-18 -8 -17 -32z"/>
<path d="M9366 3645 c2 -11 4 -23 4 -27 0 -17 18 -6 24 15 l7 22 9 -23 c6 -13
14 -21 19 -18 12 8 20 56 10 56 -5 0 -9 -10 -10 -22 l0 -23 -11 23 c-13 25
-28 29 -28 7 0 -18 -17 -20 -23 -2 -2 6 -3 3 -1 -8z"/>
<path d="M9480 3661 c25 -7 25 -7 3 -13 -32 -9 -30 -38 3 -38 22 0 25 4 22 28
-2 21 -9 27 -28 29 l-25 2 25 -8z m15 -31 c-3 -5 -10 -10 -16 -10 -5 0 -9 5
-9 10 0 6 7 10 16 10 8 0 12 -4 9 -10z"/>
<path d="M10810 3625 c-19 -22 -8 -70 15 -70 16 0 21 8 23 36 3 40 -18 59 -38
34z m30 -36 c0 -19 -5 -29 -15 -29 -15 0 -22 50 -9 63 12 12 24 -4 24 -34z"/>
<path d="M1470 3603 c-22 -20 -33 -40 -37 -70 -5 -39 -2 -46 30 -78 28 -28 43
-35 74 -35 48 0 81 22 100 67 42 102 -85 190 -167 116z"/>
<path d="M10333 3590 c0 -25 2 -35 4 -22 3 13 12 22 23 22 11 0 20 -9 23 -22
2 -13 4 -3 4 22 1 25 -1 37 -4 28 -2 -10 -13 -18 -23 -18 -10 0 -21 8 -23 18
-3 9 -5 -3 -4 -28z"/>
<path d="M10748 3623 c28 -6 28 -20 0 -50 l-21 -23 34 1 c29 1 31 2 10 8 -21
6 -22 8 -7 20 9 7 16 22 16 32 0 14 -7 19 -27 18 -24 -2 -25 -2 -5 -6z"/>
<path d="M10900 3612 c0 -11 -7 -25 -15 -32 -23 -19 -18 -30 13 -29 16 1 20 3
10 6 -16 4 -16 7 -3 33 9 18 11 31 5 35 -6 3 -10 -3 -10 -13z"/>
<path d="M10944 3618 c-4 -6 -3 -8 4 -4 7 4 12 -7 15 -31 l4 -38 1 43 c2 40
-9 55 -24 30z"/>
<path d="M10410 3596 c0 -30 13 -46 36 -46 21 0 24 4 23 33 -2 30 -2 30 -6 5
-5 -35 -33 -37 -33 -3 0 14 -4 25 -10 25 -5 0 -10 -6 -10 -14z"/>
<path d="M10510 3601 c25 -7 25 -7 3 -13 -32 -9 -30 -38 3 -38 22 0 25 4 22
28 -2 21 -9 27 -28 29 l-25 2 25 -8z m15 -31 c-3 -5 -10 -10 -16 -10 -5 0 -9
5 -9 10 0 6 7 10 16 10 8 0 12 -4 9 -10z"/>
<path d="M10561 3578 c2 -31 2 -31 6 -5 2 15 10 27 18 27 8 0 16 -12 18 -27 4
-26 4 -26 6 5 1 28 -2 32 -24 32 -22 0 -25 -4 -24 -32z"/>
<path d="M10634 3595 c-10 -24 4 -45 28 -45 25 0 14 -15 -17 -23 -16 -4 -14
-5 6 -6 29 -1 39 14 39 60 0 24 -4 29 -25 29 -14 0 -28 -7 -31 -15z m41 -15
c0 -8 -8 -16 -17 -18 -13 -2 -18 3 -18 18 0 15 5 20 18 18 9 -2 17 -10 17 -18z"/>
<path d="M3739 3545 c-52 -28 -61 -103 -19 -145 29 -29 67 -35 106 -16 64 30
71 120 11 156 -38 23 -62 24 -98 5z"/>
<path d="M3092 3500 c0 -41 2 -47 7 -25 3 17 13 30 21 30 8 0 18 -13 22 -30 6
-29 6 -29 5 5 -2 28 -6 35 -22 35 -11 0 -23 9 -27 20 -3 11 -6 -4 -6 -35z"/>
<path d="M2782 3493 c1 -41 2 -43 5 -13 l5 35 15 -35 15 -35 11 30 11 30 7
-30 c6 -26 7 -23 8 18 0 26 -1 47 -4 47 -3 0 -11 -15 -19 -32 l-14 -33 -13 33
c-19 46 -29 40 -27 -15z"/>
<path d="M3243 3533 c23 -6 22 -26 -3 -48 -28 -26 -25 -35 13 -34 28 1 29 2 8
8 -21 6 -22 8 -7 20 9 7 16 24 16 37 0 19 -5 24 -22 23 -17 -1 -19 -2 -5 -6z"/>
<path d="M3294 3513 c-12 -47 30 -82 46 -38 10 26 -5 65 -24 65 -9 0 -19 -12
-22 -27z m36 -19 c0 -24 -4 -34 -12 -32 -24 8 -22 68 2 68 5 0 10 -16 10 -36z"/>
<path d="M3367 3534 c-14 -14 -7 -75 9 -81 21 -8 35 15 32 52 -3 29 -25 44
-41 29z m28 -39 c0 -16 -6 -30 -12 -32 -9 -3 -13 7 -13 32 0 25 4 35 13 33 6
-3 12 -17 12 -33z"/>
<path d="M3457 3510 c4 -25 2 -30 -13 -30 -14 0 -15 3 -6 12 7 7 12 17 12 23
-1 11 -30 -25 -30 -37 0 -4 9 -8 20 -8 11 0 20 -6 20 -12 0 -10 2 -10 8 -1 10
16 3 83 -9 83 -5 0 -6 -13 -2 -30z"/>
<path d="M2880 3498 c0 -33 12 -47 38 -45 18 1 22 7 21 37 -1 34 -1 34 -8 6
-9 -41 -31 -46 -31 -7 0 17 -4 31 -10 31 -5 0 -10 -10 -10 -22z"/>
<path d="M2961 3480 c1 -34 1 -34 8 -6 9 42 29 44 34 4 l4 -33 1 37 c2 35 0
38 -23 36 -22 -2 -25 -7 -24 -38z"/>
<path d="M3034 3508 c-4 -6 0 -16 9 -23 22 -16 21 -22 0 -28 -14 -4 -13 -5 4
-6 32 -2 39 19 13 39 -22 17 -23 18 -4 23 15 4 16 5 2 6 -9 0 -20 -4 -24 -11z"/>
<path d="M3173 3485 c0 -22 2 -30 4 -17 2 12 2 30 0 40 -3 9 -5 -1 -4 -23z"/>
<path d="M1813 3435 c0 -27 2 -40 4 -27 3 13 12 22 23 22 11 0 20 -9 23 -22 2
-13 4 0 4 27 0 28 -2 40 -4 28 -3 -14 -12 -23 -23 -23 -11 0 -20 9 -23 23 -2
12 -4 0 -4 -28z"/>
<path d="M2012 3435 c1 -36 2 -41 5 -17 3 18 10 32 18 32 8 0 15 -14 18 -32
l4 -33 1 33 c2 23 -3 35 -15 39 -10 4 -21 11 -25 17 -4 6 -7 -11 -6 -39z"/>
<path d="M2350 3470 c0 -5 7 -7 15 -4 19 8 20 -16 0 -42 -21 -28 -18 -34 13
-33 23 2 24 2 4 6 l-22 4 19 25 c11 14 17 32 14 40 -6 16 -43 20 -43 4z"/>
<path d="M2414 3456 c-7 -28 12 -69 28 -64 36 12 34 88 -2 88 -12 0 -22 -9
-26 -24z m41 3 c9 -13 -3 -59 -14 -59 -13 0 -22 30 -16 51 7 21 20 25 30 8z"/>
<path d="M2484 3467 c-3 -9 -4 -28 -2 -44 2 -20 8 -28 23 -28 17 0 20 7 20 40
0 30 -4 41 -18 43 -9 2 -20 -3 -23 -11z m34 -29 c-3 -34 -20 -42 -26 -13 -5
22 5 45 18 45 7 0 10 -14 8 -32z"/>
<path d="M2551 3458 c-11 -30 2 -63 25 -63 27 0 28 78 1 83 -11 2 -20 -5 -26
-20z m34 -21 c0 -39 -19 -38 -23 2 -3 24 0 32 10 29 7 -3 13 -17 13 -31z"/>
<path d="M2207 3464 c-9 -9 9 -68 21 -70 7 -1 8 0 2 3 -14 7 -13 50 2 55 8 3
6 6 -4 10 -9 4 -18 5 -21 2z"/>
<path d="M1897 3454 c-13 -13 -7 -52 9 -58 28 -11 40 -5 14 6 l-25 11 23 5
c15 2 22 9 20 20 -3 18 -29 27 -41 16z m33 -14 c0 -5 -7 -10 -16 -10 -8 0 -12
5 -9 10 3 6 10 10 16 10 5 0 9 -4 9 -10z"/>
<path d="M1962 3428 c2 -17 10 -33 18 -36 12 -4 13 -2 3 9 -7 7 -13 21 -13 30
0 10 6 20 13 22 7 3 4 6 -6 6 -15 1 -18 -5 -15 -31z"/>
<path d="M2084 3446 c-10 -25 0 -51 21 -54 18 -2 19 -2 3 8 -10 6 -18 17 -18
25 0 8 8 19 18 24 16 10 16 10 -1 11 -10 0 -20 -6 -23 -14z"/>
<path d="M2141 3442 c-7 -14 -7 -24 3 -37 19 -27 48 -12 44 22 -4 33 -32 42
-47 15z m34 -17 c0 -10 -6 -20 -12 -22 -8 -3 -13 5 -13 22 0 17 5 25 13 23 6
-3 12 -13 12 -23z"/>
<path d="M2257 3454 c-13 -13 -7 -52 9 -58 28 -11 40 -5 14 6 l-25 11 23 5
c15 2 22 9 20 20 -3 18 -29 27 -41 16z m33 -14 c0 -5 -7 -10 -16 -10 -8 0 -12
5 -9 10 3 6 10 10 16 10 5 0 9 -4 9 -10z"/>
<path d="M2660 3408 c-19 -52 -55 -79 -114 -85 -51 -6 -54 -16 -12 -47 18 -14
41 -20 68 -20 35 1 48 8 76 39 31 34 34 42 29 82 -2 25 -11 51 -19 59 -12 12
-16 8 -28 -28z"/>
<path d="M5716 3369 c-15 -12 -26 -30 -26 -45 0 -23 2 -24 80 -24 74 0 80 2
80 20 0 31 -44 70 -78 70 -16 0 -41 -9 -56 -21z"/>
<path d="M1742 3353 c-7 -3 -19 -18 -28 -35 -22 -42 -11 -90 28 -123 27 -23
39 -26 72 -22 57 8 88 45 84 100 -3 40 -4 42 -48 50 -24 5 -54 15 -65 23 -21
15 -23 15 -43 7z"/>
<path d="M673 3330 c-33 -20 -55 -54 -67 -102 l-6 -28 145 0 145 0 -6 28 c-19
77 -69 122 -139 122 -22 0 -54 -9 -72 -20z"/>
<path d="M3478 3235 c-31 -17 -48 -44 -48 -74 0 -20 6 -21 96 -21 l96 0 -7 28
c-15 62 -85 96 -137 67z"/>
<path d="M5830 3219 c-13 -9 -12 -10 2 -5 27 8 32 -13 9 -38 -28 -29 -27 -36
7 -35 16 1 20 3 10 6 -16 4 -16 6 -1 29 14 22 14 27 2 39 -10 10 -18 11 -29 4z"/>
<path d="M2401 3204 c-21 -15 -51 -70 -51 -94 0 -6 41 -10 110 -10 l110 0 0
31 c0 48 -47 89 -102 89 -24 0 -54 -7 -67 -16z"/>
<path d="M5466 3190 c3 -19 8 -38 11 -43 7 -13 23 3 23 24 0 28 17 23 24 -7 9
-34 24 -21 31 26 l5 35 -13 -35 -14 -34 -6 32 c-8 41 -21 41 -35 0 -7 -23 -10
-27 -11 -13 -1 11 -6 27 -12 35 -7 11 -8 6 -3 -20z"/>
<path d="M5892 3183 c2 -30 7 -38 23 -38 15 0 21 8 23 29 2 16 0 32 -5 37 -5
5 -7 -6 -5 -26 3 -28 1 -35 -13 -35 -14 0 -16 7 -13 35 2 19 0 35 -5 35 -4 0
-7 -17 -5 -37z"/>
<path d="M5964 3208 c-4 -6 -3 -8 4 -4 7 4 12 -7 15 -31 l4 -38 1 43 c2 40 -9
55 -24 30z"/>
<path d="M6024 3208 c-4 -6 -3 -8 4 -4 7 4 12 -7 15 -31 l4 -38 1 43 c2 40 -9
55 -24 30z"/>
<path d="M5593 3193 c18 -5 17 -6 -2 -20 -12 -8 -19 -19 -16 -24 10 -15 55
-11 55 5 0 29 -13 46 -34 45 -18 -1 -18 -2 -3 -6z m17 -33 c0 -5 -7 -10 -16
-10 -8 0 -12 5 -9 10 3 6 10 10 16 10 5 0 9 -4 9 -10z"/>
<path d="M5641 3168 c1 -30 2 -31 8 -8 10 35 38 38 44 5 4 -24 4 -24 3 2 -1
23 -6 29 -28 31 -26 3 -28 1 -27 -30z"/>
<path d="M5716 3185 c-8 -23 4 -45 25 -45 25 0 24 -17 -1 -23 -17 -4 -16 -4 2
-3 20 1 23 7 26 44 3 39 1 42 -21 42 -14 0 -27 -7 -31 -15z m44 -15 c0 -11 -7
-20 -15 -20 -8 0 -15 9 -15 20 0 11 7 20 15 20 8 0 15 -9 15 -20z"/>
<path d="M1362 3145 c-102 -44 -53 -207 57 -191 96 14 121 136 39 186 -39 23
-52 24 -96 5z"/>
<path d="M410 3086 c0 -25 5 -46 10 -46 6 0 10 10 10 23 l1 22 17 -21 c18 -21
18 -21 18 20 -1 37 -4 41 -28 44 -27 3 -28 2 -28 -42z m42 19 c0 -5 -5 -11
-11 -13 -6 -2 -11 4 -11 13 0 9 5 15 11 13 6 -2 11 -8 11 -13z"/>
<path d="M847 3123 c-10 -10 -8 -25 2 -18 6 3 12 -12 14 -32 3 -35 4 -34 5 10
2 44 -5 57 -21 40z"/>
<path d="M903 3114 c-3 -8 -1 -20 5 -26 7 -7 10 -5 9 7 -1 10 3 20 10 22 18 7
13 -56 -6 -67 -9 -5 -11 -9 -6 -10 30 0 50 42 35 71 -13 23 -38 25 -47 3z"/>
<path d="M974 3116 c-3 -8 -4 -27 -2 -43 4 -38 43 -41 43 -3 0 18 -5 25 -17
24 -10 -1 -18 2 -18 7 0 4 8 13 18 18 16 10 16 10 -1 11 -10 0 -20 -6 -23 -14z
m31 -56 c-5 -8 -11 -8 -17 -2 -6 6 -7 16 -3 22 5 8 11 8 17 2 6 -6 7 -16 3
-22z"/>
<path d="M1047 3123 c-10 -10 -8 -25 2 -18 6 3 12 -12 14 -32 3 -35 4 -34 5
10 2 44 -5 57 -21 40z"/>
<path d="M490 3095 c-17 -21 -2 -50 26 -50 14 0 19 7 19 30 0 34 -24 45 -45
20z m37 -11 c8 -21 -13 -42 -28 -27 -13 13 -5 43 11 43 6 0 13 -7 17 -16z"/>
<path d="M559 3089 c-12 -24 6 -53 28 -44 9 3 13 0 10 -7 -2 -7 -13 -11 -23
-10 -15 3 -16 1 -7 -8 22 -24 43 -3 43 43 0 36 -3 43 -20 44 -11 1 -25 -7 -31
-18z m36 -14 c0 -10 -6 -20 -12 -22 -8 -3 -13 5 -13 22 0 17 5 25 13 23 6 -3
12 -13 12 -23z"/>
<path d="M634 3096 c-11 -28 0 -51 26 -53 l25 -3 -25 12 -25 11 23 5 c15 2 22
9 20 20 -4 22 -36 28 -44 8z m36 -6 c0 -5 -7 -10 -16 -10 -8 0 -12 5 -9 10 3
6 10 10 16 10 5 0 9 -4 9 -10z"/>
<path d="M701 3070 c1 -27 3 -29 6 -10 2 14 11 30 20 37 13 10 13 12 -6 10
-17 -1 -21 -7 -20 -37z"/>
<path d="M750 3095 c0 -9 7 -18 15 -21 20 -8 19 -21 -2 -27 -16 -4 -16 -5 -1
-6 24 -2 34 20 15 34 -22 16 -21 22 1 28 13 4 11 5 -5 6 -15 1 -23 -5 -23 -14z"/>
<path d="M3050 3025 c0 -36 3 -45 18 -45 29 0 41 14 37 45 -2 17 -4 33 -4 38
-1 4 -12 7 -26 7 -23 0 -25 -4 -25 -45z m40 20 c0 -8 -7 -15 -15 -15 -8 0 -15
7 -15 15 0 8 7 15 15 15 8 0 15 -7 15 -15z m8 -37 c-7 -19 -38 -22 -38 -4 0
10 9 16 21 16 12 0 19 -5 17 -12z"/>
<path d="M3750 3060 c0 -5 7 -7 15 -4 19 8 20 -16 0 -42 -21 -28 -18 -34 13
-33 23 2 24 2 4 6 l-22 4 19 25 c11 14 17 32 14 40 -6 16 -43 20 -43 4z"/>
<path d="M3814 3046 c-7 -28 12 -69 28 -64 36 12 34 88 -2 88 -12 0 -22 -9
-26 -24z m41 3 c9 -13 -3 -59 -14 -59 -13 0 -22 30 -16 51 7 21 20 25 30 8z"/>
<path d="M3884 3057 c-3 -9 -4 -28 -2 -44 2 -20 8 -28 23 -28 17 0 20 7 20 40
0 30 -4 41 -18 43 -9 2 -20 -3 -23 -11z m34 -29 c-3 -34 -20 -42 -26 -13 -5
22 5 45 18 45 7 0 10 -14 8 -32z"/>
<path d="M3950 3044 c-7 -17 -7 -32 0 -45 13 -23 36 -25 44 -3 10 26 7 32 -16
40 -21 6 -21 7 -3 20 17 13 17 14 2 14 -10 0 -22 -12 -27 -26z m35 -34 c0 -7
-6 -15 -12 -17 -8 -3 -13 4 -13 17 0 13 5 20 13 18 6 -3 12 -11 12 -18z"/>
<path d="M3237 3054 c-9 -9 9 -68 21 -70 7 -1 8 0 2 3 -14 7 -13 50 2 55 8 3
6 6 -4 10 -9 4 -18 5 -21 2z"/>
<path d="M3678 3055 c-2 -3 -2 -20 0 -40 3 -25 9 -35 21 -34 10 0 11 2 4 6
-16 6 -17 50 -1 55 8 3 6 6 -4 10 -9 4 -18 5 -20 3z"/>
<path d="M3129 3034 c-16 -19 -1 -48 27 -51 13 -2 11 1 -6 9 l-25 12 28 4 c29
4 33 12 15 30 -16 16 -23 15 -39 -4z m31 -4 c0 -5 -7 -10 -16 -10 -8 0 -12 5
-9 10 3 6 10 10 16 10 5 0 9 -4 9 -10z"/>
<path d="M3192 3018 c2 -17 10 -33 18 -36 12 -4 13 -2 3 9 -7 7 -13 21 -13 30
0 10 6 20 13 22 7 3 4 6 -6 6 -15 1 -18 -5 -15 -31z"/>
<path d="M3284 3036 c-11 -28 0 -51 26 -53 l25 -3 -25 12 -25 11 23 5 c15 2
22 9 20 20 -4 22 -36 28 -44 8z m36 -6 c0 -5 -7 -10 -15 -10 -8 0 -15 5 -15
10 0 6 7 10 15 10 8 0 15 -4 15 -10z"/>
<path d="M3352 3013 c1 -37 1 -37 5 -5 3 18 10 32 18 32 8 0 16 -14 18 -32 l5
-33 -2 35 c-1 28 -5 36 -23 38 -21 3 -23 -1 -21 -35z"/>
<path d="M3424 3036 c-10 -25 0 -51 21 -54 18 -2 19 -2 3 8 -25 15 -22 39 5
50 l22 9 -23 0 c-12 1 -25 -5 -28 -13z"/>
<path d="M3487 3043 c-13 -13 -7 -54 9 -60 24 -9 46 24 33 48 -10 19 -30 25
-42 12z m33 -29 c0 -31 -23 -28 -28 4 -2 15 2 22 12 22 11 0 16 -9 16 -26z"/>
<path d="M3553 3020 c2 -31 5 -35 30 -36 25 -1 27 2 26 35 l-1 36 -9 -33 c-12
-39 -31 -37 -41 4 -6 27 -6 27 -5 -6z"/>
<path d="M3634 3036 c-3 -8 -4 -25 -1 -38 3 -18 5 -16 6 9 0 17 7 34 14 36 9
4 9 6 -1 6 -7 1 -15 -5 -18 -13z"/>
<path d="M2472 3027 c-6 -7 -7 -28 -2 -52 7 -39 8 -39 9 -7 0 17 1 35 0 38 0
4 5 10 11 14 8 5 8 10 2 14 -5 3 -14 0 -20 -7z"/>
<path d="M2030 2985 c0 -25 5 -45 10 -45 6 0 10 9 10 20 0 29 37 27 43 -2 2
-13 4 0 4 27 0 28 -2 40 -4 28 -6 -30 -43 -32 -43 -3 0 11 -4 20 -10 20 -5 0
-10 -20 -10 -45z"/>
<path d="M2262 2985 c0 -38 2 -43 7 -21 9 42 29 44 34 4 4 -32 4 -32 5 6 2 33
0 38 -17 33 -13 -3 -21 1 -24 12 -3 9 -5 -6 -5 -34z"/>
<path d="M2333 2985 c0 -27 2 -38 4 -22 2 15 2 37 0 50 -2 12 -4 0 -4 -28z"/>
<path d="M2655 3020 c-3 -5 0 -7 8 -4 25 9 28 -12 7 -39 -26 -33 -25 -37 8
-36 24 2 25 2 4 6 l-24 5 22 23 c13 14 20 31 17 39 -7 18 -33 21 -42 6z"/>
<path d="M2714 3006 c-7 -28 12 -69 28 -64 36 12 34 88 -2 88 -12 0 -22 -9
-26 -24z m41 3 c9 -13 -3 -59 -14 -59 -13 0 -22 30 -16 51 7 21 20 25 30 8z"/>
<path d="M2784 3003 c-12 -47 30 -82 46 -38 10 26 -5 65 -24 65 -9 0 -19 -12
-22 -27z m36 -19 c0 -24 -4 -34 -12 -32 -24 8 -22 68 2 68 5 0 10 -16 10 -36z"/>
<path d="M2860 3020 c-9 -6 -10 -10 -3 -10 6 0 14 -17 16 -37 3 -35 4 -34 5
10 1 26 1 47 0 47 -2 0 -10 -5 -18 -10z"/>
<path d="M2123 2975 c0 -22 2 -30 4 -17 2 12 2 30 0 40 -3 9 -5 -1 -4 -23z"/>
<path d="M2151 2970 l1 -35 8 29 c5 16 15 33 22 37 8 5 5 8 -10 6 -18 -1 -22
-7 -21 -37z"/>
<path d="M2204 2998 c-4 -6 0 -16 9 -23 22 -16 21 -22 0 -28 -17 -4 -17 -5 0
-6 26 -2 34 29 11 42 -17 10 -17 11 1 18 16 6 17 8 3 8 -9 1 -20 -4 -24 -11z"/>
<path d="M2369 2994 c-16 -19 -1 -48 27 -51 13 -2 11 1 -6 9 l-25 12 28 4 c29
4 33 12 15 30 -16 16 -23 15 -39 -4z m31 -4 c0 -5 -7 -10 -16 -10 -8 0 -12 5
-9 10 3 6 10 10 16 10 5 0 9 -4 9 -10z"/>
<path d="M2433 2975 c0 -22 2 -30 4 -17 2 12 2 30 0 40 -3 9 -5 -1 -4 -23z"/>
<path d="M2509 2994 c-16 -19 -1 -48 27 -51 13 -2 11 1 -6 9 l-25 12 28 4 c29
4 33 12 15 30 -16 16 -23 15 -39 -4z m31 -4 c0 -5 -7 -10 -16 -10 -8 0 -12 5
-9 10 3 6 10 10 16 10 5 0 9 -4 9 -10z"/>
<path d="M2571 2970 l1 -35 8 29 c5 16 15 33 22 37 8 5 5 8 -10 6 -18 -1 -22
-7 -21 -37z"/>
<path d="M490 2960 c0 -6 48 -10 125 -10 77 0 125 4 125 10 0 6 -48 10 -125
10 -77 0 -125 -4 -125 -10z"/>
<path d="M3985 2920 c-11 -5 -53 -9 -92 -9 -42 -1 -73 -5 -73 -11 0 -6 40 -10
100 -10 93 0 100 1 100 20 0 22 -5 23 -35 10z"/>
<path d="M1977 2903 c-4 -3 -7 -17 -7 -30 0 -23 2 -23 100 -23 60 0 100 4 100
10 0 6 -24 10 -53 10 -33 0 -67 7 -92 20 -46 23 -40 22 -48 13z"/>
<path d="M1098 2885 c-21 -12 -28 -23 -28 -45 0 -16 -4 -40 -10 -55 -8 -22 -6
-30 15 -51 33 -33 93 -33 132 0 80 69 -17 202 -109 151z"/>
<path d="M662 2835 c-1 -38 1 -46 9 -35 8 11 12 12 16 3 2 -7 9 -13 15 -13 7
0 6 5 -1 14 -6 7 -8 22 -4 32 6 16 5 17 -9 6 -14 -12 -17 -10 -21 15 -2 17 -5
8 -5 -22z"/>
<path d="M232 2830 c0 -25 2 -37 5 -27 2 9 7 17 10 17 4 0 16 -8 27 -17 20
-18 20 -18 4 8 -15 24 -15 27 0 43 9 9 11 16 5 16 -6 0 -17 -7 -24 -16 -12
-14 -14 -14 -20 3 -5 11 -7 2 -7 -27z"/>
<path d="M764 2858 c-4 -6 -3 -8 4 -4 7 4 12 -7 15 -31 l4 -38 1 43 c2 40 -9
55 -24 30z"/>
<path d="M822 2848 c2 -15 9 -22 21 -22 24 2 21 -15 -5 -26 -23 -9 -23 -9 -2
-9 29 -1 49 58 25 73 -5 3 -8 -2 -7 -11 0 -9 -5 -18 -13 -21 -10 -3 -12 1 -8
17 3 11 1 21 -5 21 -5 0 -8 -10 -6 -22z"/>
<path d="M898 2863 c28 -6 28 -20 0 -50 l-21 -23 34 1 c29 1 31 2 10 8 -21 6
-22 8 -7 20 9 7 16 22 16 32 0 14 -7 19 -27 18 -24 -2 -25 -2 -5 -6z"/>
<path d="M967 2863 c20 -4 21 -6 7 -39 -8 -19 -12 -34 -9 -34 6 0 35 63 35 75
0 3 -12 4 -27 4 -23 -1 -24 -3 -6 -6z"/>
<path d="M304 2836 c-10 -25 3 -46 28 -45 23 0 23 0 -2 12 l-25 11 28 4 c32 4
31 25 -1 30 -13 2 -25 -3 -28 -12z"/>
<path d="M371 2815 c1 -20 3 -24 6 -10 3 11 12 25 20 32 13 10 12 12 -6 10
-17 -1 -21 -7 -20 -32z"/>
<path d="M421 2818 c1 -30 2 -30 8 -9 10 36 31 38 32 4 1 -27 1 -27 8 -4 9 34
31 39 31 7 0 -14 5 -26 10 -26 11 0 13 20 4 44 -4 11 -19 16 -50 16 -43 0 -44
-1 -43 -32z"/>
<path d="M555 2841 c19 -8 19 -8 -2 -15 -31 -10 -30 -36 2 -36 21 0 25 5 25
30 0 25 -4 30 -22 29 -22 0 -22 -1 -3 -8z m15 -31 c0 -5 -7 -10 -16 -10 -8 0
-12 5 -9 10 3 6 10 10 16 10 5 0 9 -4 9 -10z"/>
<path d="M604 2835 c-10 -24 4 -45 28 -44 l23 2 -22 4 c-14 3 -23 12 -23 23 0
11 9 20 23 23 l22 4 -23 2 c-12 0 -25 -6 -28 -14z"/>
<path d="M5569 2811 c-17 -17 -29 -40 -29 -55 l0 -26 100 0 c108 0 114 4 89
53 -32 63 -111 77 -160 28z"/>
<path d="M4140 2805 c-19 -22 -8 -70 15 -70 16 0 21 8 23 36 3 40 -18 59 -38
34z m30 -36 c0 -19 -5 -29 -15 -29 -15 0 -22 50 -9 63 12 12 24 -4 24 -34z"/>
<path d="M3592 2770 c0 -25 2 -37 5 -27 2 9 7 17 10 17 4 0 16 -8 27 -17 20
-18 20 -18 4 8 -15 24 -15 27 0 43 9 9 11 16 5 16 -6 0 -17 -7 -24 -16 -12
-14 -14 -14 -20 3 -5 11 -7 2 -7 -27z"/>
<path d="M4030 2792 c0 -11 -7 -25 -15 -32 -23 -19 -18 -30 13 -29 16 1 20 3
10 6 -16 4 -16 7 -3 33 9 18 11 31 5 35 -6 3 -10 -3 -10 -13z"/>
<path d="M4064 2796 c-11 -28 1 -61 22 -64 24 -3 36 23 27 58 -6 23 -41 27
-49 6z m36 -27 c0 -38 -24 -35 -28 4 -2 19 1 27 12 27 11 0 16 -10 16 -31z"/>
<path d="M4201 2792 c-15 -29 -2 -64 23 -60 29 4 34 38 6 45 -13 3 -19 11 -16
19 8 20 -2 17 -13 -4z m39 -37 c0 -8 -7 -15 -15 -15 -8 0 -15 7 -15 15 0 8 7
15 15 15 8 0 15 -7 15 -15z"/>
<path d="M3660 2776 c0 -30 13 -46 36 -46 21 0 24 4 23 33 -2 30 -2 30 -6 5
-5 -35 -33 -37 -33 -3 0 14 -4 25 -10 25 -5 0 -10 -6 -10 -14z"/>
<path d="M3741 2758 c2 -31 2 -31 6 -5 2 15 10 27 18 27 8 0 16 -12 18 -27 l4
-28 2 28 c0 16 7 27 15 27 8 0 17 -12 19 -27 4 -26 4 -26 6 5 1 32 0 32 -44
32 -44 0 -45 0 -44 -32z"/>
<path d="M3874 2783 c15 -4 16 -7 5 -14 -10 -6 -10 -9 -1 -9 6 0 12 -4 12 -10
0 -14 -27 -12 -33 3 -3 7 -6 5 -6 -5 -1 -13 7 -18 24 -18 21 0 25 5 25 30 0
25 -4 30 -22 29 -20 -1 -20 -2 -4 -6z"/>
<path d="M3921 2758 c1 -21 3 -26 6 -13 3 11 12 26 21 33 14 11 13 12 -6 12
-18 0 -22 -5 -21 -32z"/>
<path d="M1702 2738 c-2 -44 0 -48 21 -47 16 1 17 3 5 6 -12 3 -18 17 -21 46
l-4 42 -1 -47z"/>
<path d="M1830 2736 c0 -38 3 -46 19 -46 28 0 41 22 32 56 -5 19 -15 30 -29
32 -20 3 -22 -1 -22 -42z m40 19 c0 -8 -7 -15 -15 -15 -8 0 -15 7 -15 15 0 8
7 15 15 15 8 0 15 -7 15 -15z m0 -40 c0 -8 -7 -15 -15 -15 -8 0 -15 7 -15 15
0 8 7 15 15 15 8 0 15 -7 15 -15z"/>
<path d="M2213 2773 c23 -6 22 -26 -3 -48 -28 -26 -25 -35 13 -34 28 1 29 2 8
8 -21 6 -22 8 -7 20 9 7 16 24 16 37 0 19 -5 24 -22 23 -17 -1 -19 -2 -5 -6z"/>
<path d="M2264 2767 c-3 -9 -4 -28 -2 -44 2 -20 8 -28 23 -28 17 0 20 7 20 40
0 30 -4 41 -18 43 -9 2 -20 -3 -23 -11z m34 -29 c-3 -34 -20 -42 -26 -13 -5
22 5 45 18 45 7 0 10 -14 8 -32z"/>
<path d="M2337 2774 c-14 -14 -7 -75 9 -81 21 -8 35 15 32 52 -3 29 -25 44
-41 29z m28 -39 c0 -16 -6 -30 -12 -32 -9 -3 -13 7 -13 32 0 25 4 35 13 33 6
-3 12 -17 12 -33z"/>
<path d="M2394 2753 c-12 -47 30 -82 46 -38 10 26 -5 65 -24 65 -9 0 -19 -12
-22 -27z m36 -19 c0 -24 -4 -34 -12 -32 -24 8 -22 68 2 68 5 0 10 -16 10 -36z"/>
<path d="M7046 2759 c-15 -12 -26 -30 -26 -45 0 -23 2 -24 75 -24 80 0 84 3
60 49 -23 46 -66 54 -109 20z"/>
<path d="M1761 2742 c-13 -23 8 -58 30 -49 10 4 9 6 -3 6 -25 1 -22 21 3 21
14 0 19 5 17 17 -5 25 -35 28 -47 5z m34 -2 c3 -5 -1 -10 -9 -10 -9 0 -16 5
-16 10 0 6 4 10 9 10 6 0 13 -4 16 -10z"/>
<path d="M1923 2754 c24 -7 21 -24 -4 -24 -29 0 -21 -35 9 -36 20 -1 23 3 20
30 -2 22 -8 31 -23 33 -16 1 -16 1 -2 -3z m12 -44 c-3 -5 -10 -10 -16 -10 -5
0 -9 5 -9 10 0 6 7 10 16 10 8 0 12 -4 9 -10z"/>
<path d="M1971 2720 c1 -27 3 -29 6 -10 2 14 11 30 20 37 13 10 13 12 -6 10
-17 -1 -21 -7 -20 -37z"/>
<path d="M2027 2753 c-13 -13 -7 -54 9 -60 24 -9 46 24 33 48 -10 19 -30 25
-42 12z m33 -29 c0 -31 -23 -28 -28 4 -2 15 2 22 12 22 11 0 16 -9 16 -26z"/>
<path d="M2091 2721 c1 -36 1 -36 8 -6 3 17 13 30 21 30 8 0 18 -13 22 -30 6
-29 6 -29 5 5 -2 31 -5 35 -29 36 -26 1 -28 -2 -27 -35z"/>
<path d="M9826 2684 c-9 -8 -16 -24 -16 -35 0 -17 7 -19 60 -19 65 0 72 8 44
48 -18 26 -65 30 -88 6z"/>
<path d="M6119 2677 c-43 -33 -49 -84 -15 -123 49 -58 146 -20 146 57 0 60
-83 103 -131 66z"/>
<path d="M5275 2615 c0 -33 4 -45 15 -45 11 0 15 12 15 45 0 33 -4 45 -15 45
-11 0 -15 -12 -15 -45z"/>
<path d="M5763 2653 c23 -6 22 -26 -3 -48 -27 -25 -25 -35 8 -34 18 1 21 3 9
6 -17 4 -17 6 -2 30 19 29 13 54 -12 52 -17 -1 -17 -2 0 -6z"/>
<path d="M5817 2654 c-14 -14 -7 -75 9 -81 21 -8 35 15 32 52 -3 29 -25 44
-41 29z m28 -39 c0 -16 -6 -30 -12 -32 -9 -3 -13 7 -13 32 0 25 4 35 13 33 6
-3 12 -17 12 -33z"/>
<path d="M5887 2653 c-10 -10 -8 -25 2 -18 6 3 12 -12 14 -32 3 -35 4 -34 5
10 2 44 -5 57 -21 40z"/>
<path d="M5958 2653 c-2 -5 -1 -26 3 -48 l6 -40 2 48 c1 44 -3 57 -11 40z"/>
<path d="M5314 2624 c17 -40 18 -55 6 -69 -9 -11 -9 -15 -1 -15 14 0 56 89 46
98 -3 3 -8 -4 -12 -16 -6 -25 -23 -30 -23 -8 0 8 -5 18 -12 22 -8 5 -9 2 -4
-12z"/>
<path d="M5387 2634 c-13 -13 -7 -52 9 -58 28 -11 40 -5 14 6 l-25 11 23 5
c15 2 22 9 20 20 -3 18 -29 27 -41 16z m33 -14 c0 -5 -7 -10 -16 -10 -8 0 -12
5 -9 10 3 6 10 10 16 10 5 0 9 -4 9 -10z"/>
<path d="M5451 2600 c1 -34 1 -34 8 -6 9 42 29 44 34 4 l4 -33 1 37 c2 35 0
38 -23 36 -22 -2 -25 -7 -24 -38z"/>
<path d="M5526 2633 c-14 -15 -5 -55 14 -60 11 -3 20 -10 20 -15 0 -5 5 -6 10
-3 6 3 10 23 10 43 0 32 -3 38 -24 40 -13 1 -26 -1 -30 -5z m35 -10 c0 -5 2
-18 3 -30 2 -18 0 -20 -16 -12 -18 10 -24 30 -11 42 9 9 23 9 24 0z"/>
<path d="M5613 2633 c23 -6 22 -19 -4 -26 -29 -8 -18 -32 14 -33 20 -1 27 4
27 17 0 32 -12 49 -34 48 -16 -1 -17 -2 -3 -6z m17 -43 c0 -5 -4 -10 -10 -10
-5 0 -10 5 -10 10 0 6 5 10 10 10 6 0 10 -4 10 -10z"/>
<path d="M5674 2626 c-3 -8 -4 -25 -1 -38 3 -18 5 -16 6 9 0 17 7 34 14 36 9
4 9 6 -1 6 -7 1 -15 -5 -18 -13z"/>
<path d="M3990 2605 c-34 -37 -33 -90 4 -121 72 -63 176 19 132 104 -26 51
-96 59 -136 17z"/>
<path d="M6793 2575 c0 -27 2 -40 4 -27 3 13 12 22 23 22 11 0 20 -9 23 -22 2
-13 4 0 4 27 0 28 -2 40 -4 28 -3 -14 -12 -23 -23 -23 -11 0 -20 9 -23 23 -2
12 -4 0 -4 -28z"/>
<path d="M7010 2611 c0 -5 -9 -11 -21 -14 -30 -8 -23 -61 9 -65 20 -3 22 1 22
42 0 25 -2 46 -5 46 -3 0 -5 -4 -5 -9z m0 -47 c0 -31 -23 -28 -28 4 -2 15 2
22 12 22 11 0 16 -9 16 -26z"/>
<path d="M7145 2610 c-3 -5 0 -7 8 -4 25 9 28 -12 7 -39 -26 -33 -25 -37 8
-36 24 2 25 2 4 6 l-24 5 22 23 c13 14 20 31 17 39 -7 18 -33 21 -42 6z"/>
<path d="M7204 2596 c-7 -28 12 -69 28 -64 36 12 34 88 -2 88 -12 0 -22 -9
-26 -24z m41 3 c9 -13 -3 -59 -14 -59 -13 0 -22 30 -16 51 7 21 20 25 30 8z"/>
<path d="M7285 2610 c-3 -5 -2 -10 4 -10 5 0 12 -17 14 -37 3 -35 4 -34 5 10
2 44 -9 60 -23 37z"/>
<path d="M7340 2601 c0 -10 9 -21 20 -24 27 -7 25 -25 -2 -37 -13 -5 -18 -9
-11 -9 41 -3 61 42 23 54 -25 8 -26 22 -2 28 13 4 11 5 -5 6 -16 1 -23 -5 -23
-18z"/>
<path d="M4634 2566 c-21 -21 -34 -44 -34 -60 l0 -26 115 0 c72 0 115 4 115
10 0 26 -30 77 -53 93 -15 9 -45 17 -68 17 -33 0 -47 -6 -75 -34z"/>
<path d="M6871 2599 c-2 -13 21 -69 28 -69 4 0 12 16 18 35 13 41 7 47 -8 8
l-11 -28 -13 30 c-7 17 -14 27 -14 24z"/>
<path d="M6943 2565 c0 -22 2 -30 4 -17 2 12 2 30 0 40 -3 9 -5 -1 -4 -23z"/>
<path d="M7047 2594 c-13 -13 -7 -52 9 -58 28 -11 40 -5 14 6 l-25 11 23 5
c15 2 22 9 20 20 -3 18 -29 27 -41 16z m33 -14 c0 -5 -7 -10 -16 -10 -8 0 -12
5 -9 10 3 6 10 10 16 10 5 0 9 -4 9 -10z"/>
<path d="M9510 2516 c0 -25 5 -46 10 -46 6 0 10 10 10 23 l1 22 17 -21 c18
-21 18 -21 18 20 -1 37 -4 41 -28 44 -27 3 -28 2 -28 -42z m42 19 c0 -5 -5
-11 -11 -13 -6 -2 -11 4 -11 13 0 9 5 15 11 13 6 -2 11 -8 11 -13z"/>
<path d="M9843 2515 c0 -27 2 -38 4 -22 2 15 2 37 0 50 -2 12 -4 0 -4 -28z"/>
<path d="M9983 2553 c23 -6 22 -26 -3 -48 -28 -26 -25 -35 13 -34 28 1 29 2 8
8 -21 6 -22 8 -7 20 9 7 16 24 16 37 0 19 -5 24 -22 23 -17 -1 -19 -2 -5 -6z"/>
<path d="M10034 2547 c-3 -9 -4 -28 -2 -44 2 -20 8 -28 23 -28 17 0 20 7 20
40 0 30 -4 41 -18 43 -9 2 -20 -3 -23 -11z m34 -29 c-3 -34 -20 -42 -26 -13
-5 22 5 45 18 45 7 0 10 -14 8 -32z"/>
<path d="M10110 2550 c-9 -6 -10 -10 -3 -10 6 0 14 -17 16 -37 3 -35 4 -34 5
10 1 26 1 47 0 47 -2 0 -10 -5 -18 -10z"/>
<path d="M10163 2544 c-3 -8 -1 -20 5 -26 7 -7 10 -5 9 7 -1 10 3 20 10 22 18
7 13 -56 -6 -67 -9 -5 -11 -9 -6 -10 30 0 50 42 35 71 -13 23 -38 25 -47 3z"/>
<path d="M9727 2544 c-9 -9 9 -68 21 -70 7 -1 8 0 2 3 -14 7 -13 50 2 55 8 3
6 6 -4 10 -9 4 -18 5 -21 2z"/>
<path d="M9603 2533 c23 -6 22 -19 -4 -26 -22 -6 -22 -29 -1 -33 7 -1 8 0 2 3
-15 7 -12 23 4 23 8 0 17 -8 19 -17 3 -10 5 -1 6 20 1 32 -2 37 -21 36 -17 -1
-19 -2 -5 -6z"/>
<path d="M9651 2501 c1 -36 1 -36 8 -6 3 17 13 30 21 30 8 0 18 -13 22 -30 6
-29 6 -29 5 5 -2 31 -5 35 -29 36 -26 1 -28 -2 -27 -35z"/>
<path d="M9795 2526 c20 -15 20 -15 -2 -16 -16 0 -23 -6 -23 -20 0 -15 6 -19
25 -18 22 2 26 7 23 33 -2 21 -9 31 -23 33 l-20 4 20 -16z m10 -36 c-3 -5 -10
-10 -16 -10 -5 0 -9 5 -9 10 0 6 7 10 16 10 8 0 12 -4 9 -10z"/>
<path d="M9895 2526 c20 -15 20 -15 -2 -16 -16 0 -23 -6 -23 -20 0 -15 6 -19
25 -18 22 2 26 7 23 33 -2 21 -9 31 -23 33 l-20 4 20 -16z m10 -36 c-3 -5 -10
-10 -16 -10 -5 0 -9 5 -9 10 0 6 7 10 16 10 8 0 12 -4 9 -10z"/>
<path d="M6642 2513 c-12 -10 -24 -30 -28 -45 l-6 -28 86 0 c97 0 103 6 60 58
-31 37 -79 43 -112 15z"/>
<path d="M7435 2445 c-64 -63 16 -169 91 -121 50 33 51 96 2 130 -32 23 -65
20 -93 -9z"/>
<path d="M4331 2394 c-37 -27 -21 -74 26 -74 16 0 23 6 23 20 0 13 -6 20 -17
19 -11 0 -13 -3 -5 -6 19 -7 14 -23 -7 -23 -21 0 -33 22 -25 45 6 15 17 19 42
16 16 -2 15 6 -2 12 -7 3 -23 -1 -35 -9z"/>
<path d="M4571 2367 c-1 -45 1 -48 22 -45 30 4 39 58 8 58 -11 0 -22 8 -24 18
-3 9 -5 -5 -6 -31z m39 -17 c0 -11 -7 -20 -15 -20 -8 0 -15 9 -15 20 0 11 7
20 15 20 8 0 15 -9 15 -20z"/>
<path d="M5000 2395 c-19 -22 -8 -70 15 -70 16 0 21 8 23 36 3 40 -18 59 -38
34z m30 -36 c0 -19 -5 -29 -15 -29 -15 0 -22 50 -9 63 12 12 24 -4 24 -34z"/>
<path d="M4890 2382 c0 -11 -7 -25 -15 -32 -23 -19 -18 -30 13 -29 16 1 20 3
10 6 -16 4 -16 7 -3 33 9 18 11 31 5 35 -6 3 -10 -3 -10 -13z"/>
<path d="M4925 2380 c-9 -29 4 -60 25 -60 10 0 22 9 25 20 9 29 -4 60 -25 60
-10 0 -22 -9 -25 -20z m40 -20 c0 -27 -20 -38 -28 -15 -8 20 3 47 17 42 6 -2
11 -14 11 -27z"/>
<path d="M5056 2391 c-9 -14 4 -41 20 -41 20 0 17 -18 -3 -23 -15 -4 -15 -5
-2 -6 41 -3 53 71 12 77 -11 2 -24 -1 -27 -7z m40 -24 c2 -14 -1 -15 -17 -6
-11 5 -17 15 -13 20 9 14 27 6 30 -14z"/>
<path d="M5193 2382 c-6 -4 -15 -21 -19 -37 -4 -17 -13 -39 -20 -49 -11 -16
-10 -24 2 -47 18 -35 43 -49 87 -49 72 0 116 74 83 138 -9 17 -25 36 -35 42
-23 12 -81 13 -98 2z"/>
<path d="M4402 2350 c0 -19 2 -27 5 -17 2 9 2 25 0 35 -3 9 -5 1 -5 -18z"/>
<path d="M4431 2348 c1 -30 2 -31 8 -8 10 35 38 38 44 5 4 -24 4 -24 3 2 -1
23 -6 29 -28 31 -26 3 -28 1 -27 -30z"/>
<path d="M4505 2371 c-3 -6 5 -16 17 -22 l23 -13 -25 -7 -25 -7 28 -1 c31 -1
38 23 10 34 -17 7 -16 8 2 15 19 8 19 9 -2 9 -12 1 -24 -3 -28 -8z"/>
<path d="M4642 2353 c2 -22 9 -28 28 -30 22 -1 22 -1 3 4 -28 6 -30 23 -3 23
11 0 20 7 20 15 0 9 -10 15 -26 15 -22 0 -25 -4 -22 -27z m35 11 c-3 -3 -12
-4 -19 -1 -8 3 -5 6 6 6 11 1 17 -2 13 -5z"/>
<path d="M4711 2348 c2 -28 2 -29 6 -8 3 14 10 28 17 32 7 5 5 8 -6 8 -14 0
-18 -8 -17 -32z"/>
<path d="M4754 2365 c-9 -23 2 -43 28 -47 l23 -5 -25 -11 -25 -12 25 3 c22 2
25 7 28 45 3 39 2 42 -23 42 -14 0 -28 -7 -31 -15z m46 -15 c0 -21 -24 -28
-35 -10 -8 14 3 30 21 30 8 0 14 -9 14 -20z"/>
<path d="M6337 2363 c-13 -13 -7 -32 13 -38 27 -9 25 -33 -2 -38 l-23 -4 23
-2 c32 -2 41 29 14 47 -28 18 -28 29 1 35 20 4 20 4 1 6 -11 0 -24 -2 -27 -6z"/>
<path d="M6823 2363 c23 -6 22 -26 -3 -48 -27 -25 -25 -35 8 -34 18 1 21 3 9
6 -17 4 -17 6 -2 30 19 29 13 54 -12 52 -17 -1 -17 -2 0 -6z"/>
<path d="M6874 2357 c-3 -9 -4 -28 -2 -44 2 -20 8 -28 23 -28 17 0 20 7 20 40
0 30 -4 41 -18 43 -9 2 -20 -3 -23 -11z m34 -29 c-3 -34 -20 -42 -26 -13 -5
22 5 45 18 45 7 0 10 -14 8 -32z"/>
<path d="M6947 2363 c-10 -10 -8 -25 2 -18 6 3 12 -12 14 -32 3 -35 4 -34 5
10 2 44 -5 57 -21 40z"/>
<path d="M7016 2345 c-21 -32 -20 -45 4 -45 11 0 20 -6 20 -12 0 -10 2 -10 8
-1 10 15 3 83 -8 83 -4 0 -15 -11 -24 -25z m24 -15 c0 -11 -7 -20 -15 -20 -13
0 -14 4 -5 20 6 11 13 20 15 20 3 0 5 -9 5 -20z"/>
<path d="M4155 2342 c-47 -16 -85 -60 -85 -100 0 -22 1 -23 113 -20 l112 3 -3
24 c-5 36 -41 79 -75 91 -33 11 -33 11 -62 2z"/>
<path d="M6403 2315 c0 -22 2 -30 4 -17 2 12 2 30 0 40 -3 9 -5 -1 -4 -23z"/>
<path d="M6437 2343 c-16 -15 -7 -55 13 -60 16 -4 18 -8 9 -19 -10 -12 -9 -13
5 -8 11 4 16 19 16 50 0 36 -3 44 -18 44 -10 0 -22 -3 -25 -7z m33 -28 c0 -16
-6 -25 -15 -25 -9 0 -15 9 -15 25 0 16 6 25 15 25 9 0 15 -9 15 -25z"/>
<path d="M6523 2344 c24 -7 21 -24 -4 -24 -29 0 -21 -35 9 -36 20 -1 23 3 20
30 -2 22 -8 31 -23 33 -16 1 -16 1 -2 -3z m12 -44 c-3 -5 -10 -10 -16 -10 -5
0 -9 5 -9 10 0 6 7 10 16 10 8 0 12 -4 9 -10z"/>
<path d="M6571 2310 c1 -34 1 -34 8 -6 9 42 29 44 34 4 l4 -33 1 37 c2 35 0
38 -23 36 -22 -2 -25 -7 -24 -38z"/>
<path d="M6650 2335 c-17 -21 -2 -50 26 -50 14 0 19 7 19 30 0 34 -24 45 -45
20z m37 -11 c8 -21 -13 -42 -28 -27 -13 13 -5 43 11 43 6 0 13 -7 17 -16z"/>
<path d="M6717 2343 c-12 -12 -7 -22 13 -28 25 -8 26 -22 3 -28 -16 -4 -16 -5
-1 -6 24 -2 34 20 15 34 -22 16 -21 22 1 28 14 4 13 5 -4 6 -11 0 -24 -2 -27
-6z"/>
<path d="M9313 2260 c-21 -9 -43 -38 -43 -59 0 -7 27 -11 71 -11 68 0 70 1 64
23 -13 42 -52 63 -92 47z"/>
<path d="M6366 2188 c-9 -12 -16 -30 -16 -40 0 -16 10 -18 80 -18 70 0 80 2
80 18 0 10 -7 28 -16 40 -12 18 -25 22 -64 22 -39 0 -52 -4 -64 -22z"/>
<path d="M3850 2105 c0 -45 1 -46 28 -43 24 3 27 7 27 43 0 36 -3 40 -27 43
-27 3 -28 2 -28 -43z m43 20 c1 -5 -6 -11 -15 -13 -11 -2 -18 3 -18 13 0 17
30 18 33 0z m5 -37 c-7 -19 -38 -22 -38 -4 0 10 9 16 21 16 12 0 19 -5 17 -12z"/>
<path d="M4052 2110 c3 -37 6 -45 23 -45 28 0 34 52 8 62 -10 4 -21 11 -26 17
-4 6 -6 -9 -5 -34z m33 -15 c0 -10 -6 -20 -12 -22 -8 -3 -13 5 -13 22 0 17 5
25 13 23 6 -3 12 -13 12 -23z"/>
<path d="M4283 2143 c23 -6 22 -26 -3 -48 -28 -26 -25 -35 13 -34 28 1 29 2 8
8 -21 6 -22 8 -7 20 9 7 16 24 16 37 0 19 -5 24 -22 23 -17 -1 -19 -2 -5 -6z"/>
<path d="M4334 2123 c-12 -47 30 -82 46 -38 10 26 -5 65 -24 65 -9 0 -19 -12
-22 -27z m36 -19 c0 -24 -4 -34 -12 -32 -24 8 -22 68 2 68 5 0 10 -16 10 -36z"/>
<path d="M4407 2144 c-14 -14 -7 -75 9 -81 21 -8 35 15 32 52 -3 29 -25 44
-41 29z m28 -39 c0 -16 -6 -30 -12 -32 -9 -3 -13 7 -13 32 0 25 4 35 13 33 6
-3 12 -17 12 -33z"/>
<path d="M4467 2143 c-2 -5 -3 -24 -3 -43 1 -28 5 -35 21 -35 16 0 20 7 22 43
2 36 0 42 -17 42 -10 0 -21 -3 -23 -7z m33 -13 c0 -5 -4 -10 -10 -10 -5 0 -10
5 -10 10 0 6 5 10 10 10 6 0 10 -4 10 -10z m0 -45 c0 -8 -4 -15 -9 -15 -13 0
-22 16 -14 24 11 11 23 6 23 -9z"/>
<path d="M3955 2116 c20 -15 20 -15 -2 -16 -16 0 -23 -6 -23 -20 0 -15 6 -19
25 -18 22 2 26 7 23 33 -2 21 -9 31 -23 33 l-20 4 20 -16z m10 -36 c-3 -5 -10
-10 -16 -10 -5 0 -9 5 -9 10 0 6 7 10 16 10 8 0 12 -4 9 -10z"/>
<path d="M4004 2116 c-3 -8 -4 -25 -1 -38 3 -18 5 -16 6 9 0 17 7 34 14 36 9
4 9 6 -1 6 -7 1 -15 -5 -18 -13z"/>
<path d="M4124 2116 c-11 -28 0 -51 26 -53 l25 -3 -25 12 -25 11 23 5 c15 2
22 9 20 20 -4 22 -36 28 -44 8z m36 -6 c0 -5 -7 -10 -15 -10 -8 0 -15 5 -15
10 0 6 7 10 15 10 8 0 15 -4 15 -10z"/>
<path d="M4191 2090 c1 -27 3 -29 6 -10 2 14 11 30 20 37 13 10 13 12 -6 10
-17 -1 -21 -7 -20 -37z"/>
<path d="M7322 2108 c-21 -21 -14 -57 14 -70 31 -14 57 -1 62 31 7 42 -46 69
-76 39z"/>
<path d="M9123 2075 c0 -27 2 -38 4 -22 2 15 2 37 0 50 -2 12 -4 0 -4 -28z"/>
<path d="M9190 2105 c0 -8 -9 -15 -19 -15 -10 0 -21 -7 -25 -15 -9 -25 4 -45
30 -45 22 0 24 4 24 45 0 25 -2 45 -5 45 -3 0 -5 -7 -5 -15z m0 -45 c0 -11 -7
-20 -15 -20 -8 0 -15 9 -15 20 0 11 7 20 15 20 8 0 15 -9 15 -20z"/>
<path d="M9470 2109 c-13 -9 -12 -10 2 -5 27 8 32 -13 9 -38 -28 -29 -27 -36
7 -35 16 1 20 3 10 6 -16 4 -16 6 -1 29 14 22 14 27 2 39 -10 10 -18 11 -29 4z"/>
<path d="M4936 2089 c-14 -11 -26 -29 -26 -40 0 -17 7 -19 65 -19 58 0 65 2
65 19 0 20 -44 61 -65 61 -7 0 -24 -9 -39 -21z"/>
<path d="M8963 2070 c0 -25 2 -35 4 -22 3 15 11 22 28 22 17 0 25 -7 28 -22 2
-13 4 -3 4 22 1 25 -1 37 -4 28 -3 -11 -14 -18 -28 -18 -14 0 -25 7 -28 18 -3
9 -5 -3 -4 -28z"/>
<path d="M9525 2090 c-9 -29 4 -60 25 -60 10 0 22 9 25 20 9 29 -4 60 -25 60
-10 0 -22 -9 -25 -20z m40 -20 c0 -27 -20 -38 -28 -15 -8 20 3 47 17 42 6 -2
11 -14 11 -27z"/>
<path d="M9604 2098 c-4 -6 -3 -8 4 -4 7 4 12 -7 15 -31 l4 -38 1 43 c2 40 -9
55 -24 30z"/>
<path d="M9662 2088 c2 -15 9 -22 21 -22 24 2 21 -15 -5 -26 -23 -9 -23 -9 -2
-9 29 -1 49 58 25 73 -5 3 -8 -2 -7 -11 0 -9 -5 -18 -13 -21 -10 -3 -12 1 -8
17 3 11 1 21 -5 21 -5 0 -8 -10 -6 -22z"/>
<path d="M9070 2081 c25 -7 25 -7 3 -13 -32 -9 -30 -38 3 -38 22 0 25 4 22 28
-2 21 -9 27 -28 29 l-25 2 25 -8z m15 -31 c-3 -5 -10 -10 -16 -10 -5 0 -9 5
-9 10 0 6 7 10 16 10 8 0 12 -4 9 -10z"/>
<path d="M9244 2083 c15 -4 16 -7 5 -14 -10 -6 -10 -9 -1 -9 6 0 12 -4 12 -10
0 -14 -27 -12 -33 3 -3 7 -6 5 -6 -5 -1 -13 7 -18 24 -18 21 0 25 5 25 30 0
25 -4 30 -22 29 -20 -1 -20 -2 -4 -6z"/>
<path d="M9291 2058 c2 -31 2 -31 6 -5 2 15 10 27 18 27 8 0 16 -12 18 -27 4
-26 4 -26 6 5 1 28 -2 32 -24 32 -22 0 -25 -4 -24 -32z"/>
<path d="M9364 2075 c-10 -24 4 -45 28 -44 l23 2 -22 4 c-28 5 -30 23 -3 23
11 0 20 7 20 15 0 8 -9 15 -20 15 -11 0 -23 -7 -26 -15z m33 -1 c-3 -3 -12 -4
-19 -1 -8 3 -5 6 6 6 11 1 17 -2 13 -5z"/>
<path d="M2659 2051 c-23 -23 -29 -38 -29 -71 0 -53 42 -100 90 -100 85 0 133
76 95 150 -31 59 -107 69 -156 21z"/>
<path d="M6482 2015 c0 -27 2 -43 5 -35 3 8 13 24 22 35 15 18 15 19 -1 7 -14
-12 -17 -10 -21 15 -2 16 -4 6 -5 -22z"/>
<path d="M6580 2049 c-13 -9 -12 -10 2 -5 27 8 32 -13 9 -38 -28 -29 -27 -36
7 -35 16 1 20 3 10 6 -16 4 -16 6 -1 29 14 22 14 27 2 39 -10 10 -18 11 -29 4z"/>
<path d="M6779 2048 c-11 -8 -11 -9 3 -4 23 7 33 -10 12 -22 -15 -8 -15 -10 0
-15 23 -9 20 -25 -6 -30 -20 -5 -20 -5 2 -4 21 2 25 7 27 39 2 39 -13 54 -38
36z"/>
<path d="M6042 2013 c-2 -41 -1 -43 26 -42 22 1 23 2 5 6 -17 3 -23 13 -26 41
l-4 37 -1 -42z"/>
<path d="M6642 2013 c2 -30 7 -38 23 -38 15 0 21 8 23 29 2 16 0 32 -5 37 -5
5 -7 -6 -5 -26 3 -28 1 -35 -13 -35 -14 0 -16 7 -13 35 2 19 0 35 -5 35 -4 0
-7 -17 -5 -37z"/>
<path d="M6714 2038 c-4 -6 -3 -8 4 -4 7 4 12 -7 15 -31 l4 -38 1 43 c2 40 -9
55 -24 30z"/>
<path d="M6102 2003 c2 -22 9 -28 28 -30 22 -1 22 -1 3 4 -28 6 -30 23 -3 23
11 0 20 7 20 15 0 9 -10 15 -26 15 -22 0 -25 -4 -22 -27z m35 11 c-3 -3 -12
-4 -19 -1 -8 3 -5 6 6 6 11 1 17 -2 13 -5z"/>
<path d="M6171 1998 c2 -31 2 -31 6 -5 2 15 10 27 18 27 8 0 16 -12 18 -27 4
-26 4 -26 6 5 1 28 -2 32 -24 32 -22 0 -25 -4 -24 -32z"/>
<path d="M6244 2015 c-10 -24 4 -45 28 -45 25 0 14 -15 -17 -23 -16 -4 -14 -5
6 -6 29 -1 39 14 39 60 0 24 -4 29 -25 29 -14 0 -28 -7 -31 -15z m41 -15 c0
-8 -8 -16 -17 -18 -13 -2 -18 3 -18 18 0 15 5 20 18 18 9 -2 17 -10 17 -18z"/>
<path d="M6321 1998 c2 -31 2 -31 6 -5 2 15 10 27 18 27 8 0 16 -12 18 -27 4
-26 4 -26 6 5 1 28 -2 32 -24 32 -22 0 -25 -4 -24 -32z"/>
<path d="M6392 2000 c0 -19 2 -27 5 -17 2 9 2 25 0 35 -3 9 -5 1 -5 -18z"/>
<path d="M6420 2000 c0 -25 4 -30 23 -29 16 1 18 2 5 6 -10 2 -18 13 -18 23 0
10 8 21 18 23 13 4 11 5 -5 6 -19 1 -23 -4 -23 -29z"/>
<path d="M6500 1992 c0 -12 19 -26 26 -19 2 2 -2 10 -11 17 -9 8 -15 8 -15 2z"/>
<path d="M4662 1915 c1 -37 2 -41 5 -17 4 31 5 33 18 15 8 -10 15 -13 15 -7 0
7 -9 22 -20 35 l-19 24 1 -50z"/>
<path d="M4707 1923 c-2 -21 0 -42 4 -47 5 -6 9 10 9 37 0 57 -6 61 -13 10z"/>
<path d="M5050 1950 c0 -5 7 -7 15 -4 19 8 20 -16 0 -42 -21 -28 -18 -34 13
-33 23 2 24 2 4 6 l-22 4 19 25 c11 14 17 32 14 40 -6 16 -43 20 -43 4z"/>
<path d="M5114 1933 c-12 -47 30 -82 46 -38 10 26 -5 65 -24 65 -9 0 -19 -12
-22 -27z m36 -19 c0 -24 -4 -34 -12 -32 -24 8 -22 68 2 68 5 0 10 -16 10 -36z"/>
<path d="M5184 1947 c-3 -9 -4 -28 -2 -44 2 -20 8 -28 23 -28 17 0 20 7 20 40
0 30 -4 41 -18 43 -9 2 -20 -3 -23 -11z m34 -29 c-3 -34 -20 -42 -26 -13 -5
22 5 45 18 45 7 0 10 -14 8 -32z"/>
<path d="M5246 1943 c-4 -9 -1 -21 5 -27 9 -8 10 -7 6 6 -8 22 11 34 26 19 9
-9 8 -14 -3 -21 -13 -9 -13 -10 0 -10 11 -1 8 -6 -9 -20 -17 -15 -19 -20 -7
-20 21 0 39 37 32 66 -7 28 -40 33 -50 7z"/>
<path d="M4740 1918 c0 -33 12 -47 38 -45 18 1 22 7 21 37 -1 34 -1 34 -8 6
-9 -41 -31 -46 -31 -7 0 17 -4 31 -10 31 -5 0 -10 -10 -10 -22z"/>
<path d="M4821 1900 c1 -34 1 -34 8 -6 9 42 29 44 34 4 l4 -33 1 37 c2 35 0
38 -23 36 -22 -2 -25 -7 -24 -38z"/>
<path d="M4897 1934 c-13 -13 -7 -52 9 -58 28 -11 40 -5 14 6 l-25 11 23 5
c15 2 22 9 20 20 -3 18 -29 27 -41 16z m33 -14 c0 -5 -7 -10 -16 -10 -8 0 -12
5 -9 10 3 6 10 10 16 10 5 0 9 -4 9 -10z"/>
<path d="M4960 1925 c0 -9 7 -18 15 -21 20 -8 19 -21 -2 -27 -16 -4 -16 -5 -1
-6 24 -2 34 20 15 34 -22 16 -21 22 1 28 13 4 11 5 -5 6 -15 1 -23 -5 -23 -14z"/>
<path d="M6826 1915 c-11 -8 -28 -15 -38 -15 -10 0 -18 -7 -18 -15 0 -11 13
-15 54 -15 61 0 68 5 55 38 -10 25 -26 28 -53 7z"/>
<path d="M3214 1890 c-30 -12 -64 -58 -64 -86 0 -24 1 -24 110 -24 121 0 125
2 94 61 -23 46 -90 69 -140 49z"/>
<path d="M9950 1870 c-11 -11 -20 -29 -20 -40 0 -18 7 -20 70 -20 63 0 70 2
70 20 0 29 -36 60 -70 60 -17 0 -39 -9 -50 -20z"/>
<path d="M6560 1756 c0 -25 5 -46 10 -46 6 0 10 10 10 23 l1 22 17 -21 c18
-21 18 -21 18 20 -1 37 -4 41 -28 44 -27 3 -28 2 -28 -42z m42 19 c0 -5 -5
-11 -11 -13 -6 -2 -11 4 -11 13 0 9 5 15 11 13 6 -2 11 -8 11 -13z"/>
<path d="M6780 1786 c0 -9 -7 -12 -19 -9 -13 3 -21 -2 -26 -17 -8 -26 9 -49
36 -47 16 1 19 9 19 44 0 24 -2 43 -5 43 -3 0 -5 -6 -5 -14z m-3 -32 c8 -21
-13 -42 -28 -27 -13 13 -5 43 11 43 6 0 13 -7 17 -16z"/>
<path d="M6840 1790 c0 -5 7 -7 15 -4 19 8 20 -16 0 -42 -21 -28 -18 -34 13
-33 23 2 24 2 4 6 l-22 4 19 25 c11 14 17 32 14 40 -6 16 -43 20 -43 4z"/>
<path d="M6904 1776 c-7 -28 12 -69 28 -64 36 12 34 88 -2 88 -12 0 -22 -9
-26 -24z m41 3 c9 -13 -3 -59 -14 -59 -13 0 -22 30 -16 51 7 21 20 25 30 8z"/>
<path d="M6988 1793 c-2 -5 -1 -26 3 -48 l6 -40 2 48 c1 44 -3 57 -11 40z"/>
<path d="M7040 1781 c0 -10 7 -21 15 -25 21 -8 19 -34 -2 -39 -15 -4 -15 -5
-2 -6 9 0 23 6 30 15 11 14 10 19 -9 34 -27 22 -27 27 -4 33 13 4 11 5 -5 6
-16 1 -23 -5 -23 -18z"/>
<path d="M6641 1762 c-13 -23 8 -58 30 -49 10 4 9 6 -3 6 -25 1 -22 21 3 21
14 0 19 5 17 17 -5 25 -35 28 -47 5z m34 -2 c3 -5 -1 -10 -9 -10 -9 0 -16 5
-16 10 0 6 4 10 9 10 6 0 13 -4 16 -10z"/>
<path d="M6713 1745 c0 -22 2 -30 4 -17 2 12 2 30 0 40 -3 9 -5 -1 -4 -23z"/>
<path d="M9165 1760 c-41 -46 29 -116 75 -75 24 22 26 58 4 79 -21 22 -57 20
-79 -4z"/>
<path d="M6242 1720 c-18 -11 -37 -32 -42 -46 -21 -53 -19 -54 100 -54 l110 0
-6 28 c-11 43 -33 70 -66 81 -43 15 -58 14 -96 -9z"/>
<path d="M9622 1728 c-28 -28 -7 -79 33 -77 17 1 16 2 -5 8 -19 5 -25 13 -25
36 0 23 6 31 25 36 21 6 22 7 5 8 -12 1 -26 -4 -33 -11z"/>
<path d="M9833 1695 c-1 -27 1 -42 4 -32 6 22 19 22 27 1 4 -9 9 -14 13 -11 3
4 0 13 -7 22 -10 12 -10 18 1 33 12 15 11 15 -8 -1 -21 -19 -22 -18 -26 10 -2
15 -4 6 -4 -22z"/>
<path d="M10135 1730 c-3 -5 0 -7 8 -4 25 9 28 -12 7 -39 -26 -33 -25 -37 8
-36 24 2 25 2 4 6 l-24 5 22 23 c13 14 20 31 17 39 -7 18 -33 21 -42 6z"/>
<path d="M10194 1716 c-7 -28 12 -69 28 -64 36 12 34 88 -2 88 -12 0 -22 -9
-26 -24z m41 3 c9 -13 -3 -59 -14 -59 -13 0 -22 30 -16 51 7 21 20 25 30 8z"/>
<path d="M10283 1733 c23 -6 22 -26 -3 -48 -27 -25 -25 -35 8 -34 18 1 21 3 9
6 -17 4 -17 6 -2 30 19 29 13 54 -12 52 -17 -1 -17 -2 0 -6z"/>
<path d="M10337 1734 c-14 -14 -7 -75 9 -81 21 -8 35 15 32 52 -3 29 -25 44
-41 29z m28 -39 c0 -16 -6 -30 -12 -32 -9 -3 -13 7 -13 32 0 25 4 35 13 33 6
-3 12 -17 12 -33z"/>
<path d="M9691 1702 c-7 -14 -7 -24 3 -37 19 -27 48 -12 44 22 -4 33 -32 42
-47 15z m37 -14 c-5 -32 -28 -35 -28 -4 0 17 5 26 16 26 10 0 14 -7 12 -22z"/>
<path d="M9767 1713 c-13 -13 -7 -54 9 -60 24 -9 46 24 33 48 -10 19 -30 25
-42 12z m33 -29 c0 -31 -23 -28 -28 4 -2 15 2 22 12 22 11 0 16 -9 16 -26z"/>
<path d="M9894 1708 c-4 -6 0 -16 9 -23 22 -16 21 -22 0 -28 -14 -4 -13 -5 4
-6 32 -2 39 19 13 39 -22 17 -23 18 -4 23 15 4 16 5 2 6 -9 0 -20 -4 -24 -11z"/>
<path d="M9957 1714 c-13 -13 -7 -55 9 -61 24 -9 51 23 38 45 -12 19 -36 27
-47 16z m40 -20 c8 -21 -13 -42 -28 -27 -13 13 -5 43 11 43 6 0 13 -7 17 -16z"/>
<path d="M10032 1683 c1 -37 1 -37 5 -5 3 18 10 32 18 32 8 0 16 -14 18 -32
l5 -33 -2 35 c-1 28 -5 36 -23 38 -21 3 -23 -1 -21 -35z"/>
<path d="M3630 1695 c-19 -22 -8 -70 15 -70 16 0 21 8 23 36 3 40 -18 59 -38
34z m30 -36 c0 -19 -5 -29 -15 -29 -15 0 -22 50 -9 63 12 12 24 -4 24 -34z"/>
<path d="M2784 1686 c-3 -8 -4 -25 -2 -38 2 -18 10 -24 36 -26 27 -3 32 0 32
17 0 14 -6 21 -17 20 -11 0 -13 -3 -5 -6 21 -8 13 -25 -10 -21 -16 2 -24 11
-26 30 -3 22 1 27 25 31 l28 4 -28 2 c-16 0 -30 -5 -33 -13z"/>
<path d="M3257 1694 c-11 -19 5 -74 22 -74 13 0 13 2 2 9 -8 5 -12 18 -9 29 6
21 -6 50 -15 36z"/>
<path d="M3298 1688 c-9 -25 5 -68 21 -67 10 0 11 2 4 6 -15 5 -17 40 -4 45 5
2 3 8 -4 15 -10 9 -15 9 -17 1z"/>
<path d="M3520 1682 c0 -11 -7 -25 -15 -32 -23 -19 -18 -30 13 -29 16 1 20 3
10 6 -16 4 -16 7 -3 33 9 18 11 31 5 35 -6 3 -10 -3 -10 -13z"/>
<path d="M3555 1680 c-9 -29 4 -60 25 -60 10 0 22 9 25 20 9 29 -4 60 -25 60
-10 0 -22 -9 -25 -20z m40 -20 c0 -27 -20 -38 -28 -15 -8 20 3 47 17 42 6 -2
11 -14 11 -27z"/>
<path d="M3690 1681 c0 -10 9 -21 20 -24 26 -7 26 -24 0 -30 -17 -4 -17 -4 2
-3 30 1 37 35 9 43 -26 7 -27 20 -3 26 13 4 11 5 -5 6 -16 1 -23 -5 -23 -18z"/>
<path d="M2871 1648 c2 -28 2 -29 6 -8 3 14 10 28 17 32 7 5 5 8 -6 8 -14 0
-18 -8 -17 -32z"/>
<path d="M2935 1671 c19 -8 19 -8 -2 -15 -31 -10 -30 -36 2 -36 21 0 25 5 25
30 0 25 -4 30 -22 29 -22 0 -22 -1 -3 -8z m15 -31 c0 -5 -7 -10 -16 -10 -8 0
-12 5 -9 10 3 6 10 10 16 10 5 0 9 -4 9 -10z"/>
<path d="M2981 1648 c1 -30 2 -31 8 -8 10 35 38 38 44 5 4 -24 4 -24 3 2 -1
23 -6 29 -28 31 -26 3 -28 1 -27 -30z"/>
<path d="M3054 1666 c-10 -26 4 -48 28 -44 17 2 23 10 23 28 0 18 -6 26 -23
28 -13 2 -25 -3 -28 -12z m46 -16 c0 -11 -6 -20 -14 -20 -18 0 -29 16 -21 30
11 18 35 11 35 -10z"/>
<path d="M3120 1675 c0 -10 24 -55 29 -55 4 0 12 14 18 30 6 17 8 30 3 30 -4
0 -11 -10 -14 -22 l-7 -23 -9 23 c-8 19 -20 30 -20 17z"/>
<path d="M3187 1666 c-11 -27 3 -46 32 -45 23 2 24 2 4 6 -29 6 -30 23 -2 23
26 0 20 24 -8 28 -11 2 -23 -4 -26 -12z m40 -2 c-3 -3 -12 -4 -19 -1 -8 3 -5
6 6 6 11 1 17 -2 13 -5z"/>
<path d="M3344 1665 c-10 -24 4 -45 28 -44 l23 2 -22 4 c-28 5 -30 23 -3 23
11 0 20 7 20 15 0 8 -9 15 -20 15 -11 0 -23 -7 -26 -15z m33 -1 c-3 -3 -12 -4
-19 -1 -8 3 -5 6 6 6 11 1 17 -2 13 -5z"/>
<path d="M3411 1648 c1 -21 3 -26 6 -13 3 11 12 26 21 33 14 11 13 12 -6 12
-18 0 -22 -5 -21 -32z"/>
<path d="M5457 1649 c-16 -9 -47 -65 -47 -84 0 -3 43 -5 95 -5 52 0 95 2 95 5
0 20 -32 75 -48 84 -26 14 -71 14 -95 0z"/>
<path d="M4374 1606 c-21 -21 -34 -44 -34 -60 l0 -26 110 0 c69 0 110 4 110
10 0 29 -32 80 -59 94 -50 26 -88 21 -127 -18z"/>
<path d="M6276 1552 c-2 -4 -3 -20 -2 -34 4 -32 -8 -53 -23 -44 -17 11 -13 34
7 46 15 10 15 10 -3 8 -15 -3 -20 -11 -20 -33 0 -26 4 -30 28 -31 26 -1 27 1
27 47 0 47 -3 58 -14 41z"/>
<path d="M6010 1505 c0 -36 3 -45 18 -45 29 0 41 14 37 45 -2 17 -4 33 -4 38
-1 4 -12 7 -26 7 -23 0 -25 -4 -25 -45z m40 20 c0 -8 -7 -15 -15 -15 -8 0 -15
7 -15 15 0 8 7 15 15 15 8 0 15 -7 15 -15z m8 -37 c-7 -19 -38 -22 -38 -4 0
10 9 16 21 16 12 0 19 -5 17 -12z"/>
<path d="M6353 1543 c23 -6 22 -26 -3 -48 -28 -26 -25 -35 13 -34 28 1 29 2 8
8 -21 6 -22 8 -7 20 9 7 16 24 16 37 0 19 -5 24 -22 23 -17 -1 -19 -2 -5 -6z"/>
<path d="M6404 1523 c-12 -47 30 -82 46 -38 10 26 -5 65 -24 65 -9 0 -19 -12
-22 -27z m36 -19 c0 -24 -4 -34 -12 -32 -24 8 -22 68 2 68 5 0 10 -16 10 -36z"/>
<path d="M6480 1540 c-9 -6 -10 -10 -3 -10 6 0 14 -17 16 -37 3 -35 4 -34 5
10 1 26 1 47 0 47 -2 0 -10 -5 -18 -10z"/>
<path d="M6553 1543 c23 -6 22 -26 -3 -48 -28 -26 -25 -35 13 -34 24 1 26 3 9
6 -22 4 -23 5 -7 30 19 29 13 54 -12 52 -17 -1 -17 -2 0 -6z"/>
<path d="M6090 1515 c-17 -21 -2 -50 26 -50 14 0 19 7 19 30 0 34 -24 45 -45
20z m37 -11 c8 -21 -13 -42 -28 -27 -13 13 -5 43 11 43 6 0 13 -7 17 -16z"/>
<path d="M6162 1493 c1 -37 1 -37 5 -5 3 18 10 32 18 32 8 0 16 -14 18 -32 l5
-33 -2 35 c-1 28 -5 36 -23 38 -21 3 -23 -1 -21 -35z"/>
<path d="M10367 1503 c-4 -3 -7 -15 -7 -25 0 -14 8 -18 40 -18 41 0 52 14 28
38 -13 13 -50 16 -61 5z"/>
<path d="M5283 1445 c0 -27 2 -40 4 -27 3 13 12 22 23 22 11 0 20 -9 23 -22 2
-13 4 0 4 27 0 28 -2 40 -4 28 -3 -14 -12 -23 -23 -23 -11 0 -20 9 -23 23 -2
12 -4 0 -4 -28z"/>
<path d="M5393 1445 c0 -27 2 -38 4 -22 2 15 2 37 0 50 -2 12 -4 0 -4 -28z"/>
<path d="M5433 1445 c0 -27 2 -38 4 -22 2 15 2 37 0 50 -2 12 -4 0 -4 -28z"/>
<path d="M5503 1483 c23 -6 22 -26 -3 -48 -28 -26 -25 -35 13 -34 28 1 29 2 8
8 -21 6 -22 8 -7 20 9 7 16 24 16 37 0 19 -5 24 -22 23 -17 -1 -19 -2 -5 -6z"/>
<path d="M5554 1477 c-3 -9 -4 -28 -2 -44 2 -20 8 -28 23 -28 17 0 20 7 20 40
0 30 -4 41 -18 43 -9 2 -20 -3 -23 -11z m34 -29 c-3 -34 -20 -42 -26 -13 -5
22 5 45 18 45 7 0 10 -14 8 -32z"/>
<path d="M5630 1480 c-9 -6 -10 -10 -3 -10 6 0 14 -17 16 -37 3 -35 4 -34 5
10 1 26 1 47 0 47 -2 0 -10 -5 -18 -10z"/>
<path d="M5684 1463 c-12 -47 30 -82 46 -38 10 26 -5 65 -24 65 -9 0 -19 -12
-22 -27z m36 -19 c0 -24 -4 -34 -12 -32 -24 8 -22 68 2 68 5 0 10 -16 10 -36z"/>
<path d="M5363 1435 c0 -22 2 -30 4 -17 2 12 2 30 0 40 -3 9 -5 -1 -4 -23z"/>
<path d="M9032 1458 c-5 -7 -12 -22 -14 -33 -3 -18 3 -20 55 -23 54 -3 57 -2
57 21 0 12 -5 28 -12 35 -16 16 -73 15 -86 0z"/>
<path d="M4121 1403 c1 -27 4 -38 6 -26 2 13 13 24 26 26 l22 4 -22 2 c-13 0
-23 7 -23 15 0 8 10 17 23 19 19 4 18 4 -5 6 -27 1 -28 -1 -27 -46z"/>
<path d="M4353 1405 c0 -27 2 -38 4 -22 2 15 2 37 0 50 -2 12 -4 0 -4 -28z"/>
<path d="M4543 1443 c23 -6 22 -26 -3 -48 -28 -26 -25 -35 13 -34 28 1 29 2 8
8 -21 6 -22 8 -7 20 9 7 16 24 16 37 0 19 -5 24 -22 23 -17 -1 -19 -2 -5 -6z"/>
<path d="M4594 1437 c-3 -9 -4 -28 -2 -44 2 -20 8 -28 23 -28 17 0 20 7 20 40
0 30 -4 41 -18 43 -9 2 -20 -3 -23 -11z m34 -29 c-3 -34 -20 -42 -26 -13 -5
22 5 45 18 45 7 0 10 -14 8 -32z"/>
<path d="M4667 1444 c-14 -14 -7 -75 9 -81 21 -8 35 15 32 52 -3 29 -25 44
-41 29z m28 -39 c0 -16 -6 -30 -12 -32 -9 -3 -13 7 -13 32 0 25 4 35 13 33 6
-3 12 -17 12 -33z"/>
<path d="M4727 1443 c-2 -5 -3 -24 -3 -43 1 -28 5 -35 21 -35 16 0 20 7 22 43
2 36 0 42 -17 42 -10 0 -21 -3 -23 -7z m33 -13 c0 -5 -4 -10 -10 -10 -5 0 -10
5 -10 10 0 6 5 10 10 10 6 0 10 -4 10 -10z m0 -45 c0 -8 -4 -15 -9 -15 -13 0
-22 16 -14 24 11 11 23 6 23 -9z"/>
<path d="M6613 1426 c-24 -25 -62 -36 -124 -36 -22 0 -39 -4 -39 -10 0 -6 43
-10 110 -10 105 0 110 1 110 21 0 23 -17 59 -28 59 -4 0 -17 -11 -29 -24z"/>
<path d="M4187 1424 c-13 -13 -7 -55 9 -61 24 -9 51 23 38 45 -12 19 -36 27
-47 16z m40 -20 c8 -21 -13 -42 -28 -27 -13 13 -5 43 11 43 6 0 13 -7 17 -16z"/>
<path d="M4252 1395 c11 -33 28 -39 28 -9 0 8 5 14 10 14 6 0 10 -9 10 -20 0
-32 16 -23 27 15 6 19 7 35 3 35 -5 0 -11 -10 -13 -22 l-4 -23 -8 23 c-4 12
-11 22 -15 22 -4 0 -11 -10 -15 -22 l-8 -23 -4 23 c-2 12 -8 22 -13 22 -4 0
-3 -16 2 -35z"/>
<path d="M4384 1416 c-11 -28 0 -51 26 -53 l25 -3 -25 12 -25 11 23 5 c15 2
22 9 20 20 -4 22 -36 28 -44 8z m36 -6 c0 -5 -7 -10 -15 -10 -8 0 -15 5 -15
10 0 6 7 10 15 10 8 0 15 -4 15 -10z"/>
<path d="M4451 1390 c1 -27 3 -29 6 -10 2 14 11 30 20 37 13 10 13 12 -6 10
-17 -1 -21 -7 -20 -37z"/>
<path d="M4835 1370 c-3 -11 -19 -32 -35 -47 -23 -21 -27 -30 -19 -45 25 -47
105 -42 128 8 16 37 14 52 -14 79 -29 30 -51 32 -60 5z"/>
<path d="M9982 1348 c-2 -46 -1 -48 26 -47 22 1 23 2 5 6 -18 3 -23 13 -26 46
l-4 42 -1 -47z"/>
<path d="M10262 1345 c0 -40 2 -44 7 -20 3 17 13 30 21 30 8 0 18 -13 22 -30
6 -29 6 -29 5 5 -2 28 -6 35 -22 35 -11 0 -23 7 -27 15 -4 8 -6 -7 -6 -35z"/>
<path d="M10573 1383 c23 -6 22 -26 -3 -48 -28 -26 -25 -35 13 -34 28 1 29 2
8 8 -21 6 -22 8 -7 20 9 7 16 24 16 37 0 19 -5 24 -22 23 -17 -1 -19 -2 -5 -6z"/>
<path d="M10624 1377 c-3 -9 -4 -28 -2 -44 2 -20 8 -28 23 -28 17 0 20 7 20
40 0 30 -4 41 -18 43 -9 2 -20 -3 -23 -11z m34 -29 c-3 -34 -20 -42 -26 -13
-5 22 5 45 18 45 7 0 10 -14 8 -32z"/>
<path d="M10690 1380 c0 -5 7 -7 15 -4 19 8 20 -16 0 -42 -21 -28 -18 -34 13
-33 23 2 24 2 4 6 l-22 4 19 25 c11 14 17 32 14 40 -6 16 -43 20 -43 4z"/>
<path d="M10754 1363 c-12 -47 30 -82 46 -38 10 26 -5 65 -24 65 -9 0 -19 -12
-22 -27z m36 -19 c0 -24 -4 -34 -12 -32 -24 8 -22 68 2 68 5 0 10 -16 10 -36z"/>
<path d="M10047 1363 c-13 -13 -7 -54 9 -60 24 -9 46 24 33 48 -10 19 -30 25
-42 12z m33 -29 c0 -31 -23 -28 -28 4 -2 15 2 22 12 22 11 0 16 -9 16 -26z"/>
<path d="M10110 1348 c0 -33 12 -47 38 -45 18 1 22 7 21 37 -1 34 -1 34 -8 6
-9 -41 -31 -46 -31 -7 0 17 -4 31 -10 31 -5 0 -10 -10 -10 -22z"/>
<path d="M10190 1351 c-12 -23 11 -58 30 -46 8 5 11 3 8 -6 -3 -8 -13 -13 -23
-12 -11 1 -14 -2 -8 -8 21 -21 43 2 43 45 0 35 -3 42 -20 43 -11 1 -24 -6 -30
-16z m35 -16 c0 -10 -6 -20 -12 -22 -8 -3 -13 5 -13 22 0 17 5 25 13 23 6 -3
12 -13 12 -23z"/>
<path d="M10344 1356 c-3 -8 -4 -25 -1 -38 3 -18 5 -16 6 9 0 17 7 34 14 36 9
4 9 6 -1 6 -7 1 -15 -5 -18 -13z"/>
<path d="M10403 1363 c23 -6 22 -19 -4 -26 -22 -6 -22 -29 -1 -33 7 -1 8 0 2
3 -15 7 -12 23 4 23 8 0 17 -8 19 -17 3 -10 5 -1 6 20 1 32 -2 37 -21 36 -17
-1 -19 -2 -5 -6z"/>
<path d="M10451 1331 c1 -36 1 -36 8 -6 3 17 13 30 21 30 8 0 18 -13 22 -30 6
-29 6 -29 5 5 -2 31 -5 35 -29 36 -26 1 -28 -2 -27 -35z"/>
<path d="M8731 1321 c-7 -5 -13 -21 -13 -36 0 -31 17 -46 47 -43 27 4 34 48 8
48 -15 0 -16 -2 -3 -10 20 -12 -2 -35 -25 -26 -26 10 -15 59 15 67 20 6 21 7
5 8 -11 0 -26 -3 -34 -8z"/>
<path d="M8843 1285 c0 -27 2 -38 4 -22 2 15 2 37 0 50 -2 12 -4 0 -4 -28z"/>
<path d="M8873 1285 c0 -27 2 -38 4 -22 2 15 2 37 0 50 -2 12 -4 0 -4 -28z"/>
<path d="M9193 1323 c23 -6 22 -26 -3 -48 -28 -26 -25 -35 13 -34 28 1 29 2 8
8 -21 6 -22 8 -7 20 9 7 16 24 16 37 0 19 -5 24 -22 23 -17 -1 -19 -2 -5 -6z"/>
<path d="M9244 1317 c-3 -9 -4 -28 -2 -44 2 -20 8 -28 23 -28 17 0 20 7 20 40
0 30 -4 41 -18 43 -9 2 -20 -3 -23 -11z m34 -29 c-3 -34 -20 -42 -26 -13 -5
22 5 45 18 45 7 0 10 -14 8 -32z"/>
<path d="M9317 1323 c-10 -10 -8 -25 2 -18 6 3 12 -12 14 -32 3 -35 4 -34 5
10 2 44 -5 57 -21 40z"/>
<path d="M9377 1323 c-2 -5 -3 -24 -3 -43 1 -28 5 -35 21 -35 16 0 20 7 22 43
2 36 0 42 -17 42 -10 0 -21 -3 -23 -7z m33 -13 c0 -5 -4 -10 -10 -10 -5 0 -10
5 -10 10 0 6 5 10 10 10 6 0 10 -4 10 -10z m0 -45 c0 -8 -4 -15 -9 -15 -13 0
-22 16 -14 24 11 11 23 6 23 -9z"/>
<path d="M8927 1314 c-9 -9 9 -68 21 -70 7 -1 8 0 2 3 -14 7 -13 50 2 55 8 3
6 6 -4 10 -9 4 -18 5 -21 2z"/>
<path d="M8813 1275 c0 -22 2 -30 4 -17 2 12 2 30 0 40 -3 9 -5 -1 -4 -23z"/>
<path d="M8903 1275 c0 -22 2 -30 4 -17 2 12 2 30 0 40 -3 9 -5 -1 -4 -23z"/>
<path d="M8983 1303 c15 -4 16 -6 2 -26 -21 -29 -19 -37 8 -36 17 1 18 2 4 6
-15 4 -16 6 -2 26 21 29 19 37 -7 36 -18 -1 -19 -2 -5 -6z"/>
<path d="M9031 1292 c-13 -23 8 -58 30 -49 10 4 9 6 -3 6 -25 1 -22 21 3 21
14 0 19 5 17 17 -5 25 -35 28 -47 5z m34 -2 c3 -5 -1 -10 -9 -10 -9 0 -16 5
-16 10 0 6 4 10 9 10 6 0 13 -4 16 -10z"/>
<path d="M9104 1296 c-3 -8 -4 -25 -1 -38 3 -18 5 -16 6 9 0 17 7 34 14 36 9
4 9 6 -1 6 -7 1 -15 -5 -18 -13z"/>
<path d="M6670 1289 c-13 -9 -12 -10 2 -5 27 8 32 -13 9 -38 -28 -29 -27 -36
7 -35 16 1 20 3 10 6 -16 4 -16 6 -1 29 14 22 14 27 2 39 -10 10 -18 11 -29 4z"/>
<path d="M6210 1250 c0 -43 15 -55 22 -17 5 29 -1 57 -13 57 -5 0 -9 -18 -9
-40z"/>
<path d="M6246 1274 c-5 -14 -4 -15 9 -4 17 14 19 20 6 20 -5 0 -12 -7 -15
-16z"/>
<path d="M6725 1270 c-9 -29 4 -60 25 -60 10 0 22 9 25 20 9 29 -4 60 -25 60
-10 0 -22 -9 -25 -20z m40 -20 c0 -13 -5 -25 -11 -27 -14 -5 -25 22 -17 42 8
23 28 12 28 -15z"/>
<path d="M6804 1278 c-4 -6 -3 -8 4 -4 7 4 12 -7 15 -31 l4 -38 1 43 c2 40 -9
55 -24 30z"/>
<path d="M6867 1260 c-18 -29 -18 -30 2 -30 12 0 21 -6 21 -12 0 -10 2 -10 8
0 9 14 3 72 -7 72 -4 0 -15 -13 -24 -30z m19 -17 c-10 -10 -19 5 -10 18 6 11
8 11 12 0 2 -7 1 -15 -2 -18z"/>
<path d="M6291 1238 c2 -28 2 -29 6 -8 3 14 10 28 17 32 7 5 5 8 -6 8 -14 0
-18 -8 -17 -32z"/>
<path d="M6355 1261 c19 -8 19 -8 -2 -15 -31 -10 -30 -36 2 -36 21 0 25 5 25
30 0 25 -4 30 -22 29 -22 0 -22 -1 -3 -8z m15 -31 c0 -5 -7 -10 -16 -10 -8 0
-12 5 -9 10 3 6 10 10 16 10 5 0 9 -4 9 -10z"/>
<path d="M6401 1238 c1 -30 2 -30 8 -9 10 36 31 38 32 4 1 -27 1 -27 8 -4 9
34 31 39 31 7 0 -14 5 -26 10 -26 11 0 13 20 4 44 -4 11 -19 16 -50 16 -43 0
-44 -1 -43 -32z"/>
<path d="M6514 1256 c-10 -25 3 -46 28 -45 23 0 23 0 -2 12 l-25 11 28 4 c32
4 31 25 -1 30 -13 2 -25 -3 -28 -12z"/>
<path d="M6581 1235 c1 -20 3 -24 6 -10 3 11 12 25 20 32 13 10 12 12 -6 10
-17 -1 -21 -7 -20 -32z"/>
<path d="M6240 1242 c0 -5 7 -15 15 -22 8 -7 15 -8 15 -2 0 5 -7 15 -15 22 -8
7 -15 8 -15 2z"/>
<path d="M10080 1220 c0 -5 25 -10 55 -10 30 0 55 5 55 10 0 6 -25 10 -55 10
-30 0 -55 -4 -55 -10z"/>
<path d="M4247 1195 c-24 -24 -40 -69 -29 -80 10 -9 202 -5 202 4 0 21 -20 60
-41 80 -33 31 -99 29 -132 -4z"/>
<path d="M8880 1160 c0 -6 28 -10 65 -10 37 0 65 4 65 10 0 6 -28 10 -65 10
-37 0 -65 -4 -65 -10z"/>
<path d="M9703 1095 c0 -27 2 -38 4 -22 2 15 10 27 18 27 8 0 16 -12 18 -27 4
-26 4 -26 6 5 1 25 -3 32 -18 32 -11 0 -22 8 -24 18 -3 9 -5 -5 -4 -33z"/>
<path d="M10081 1095 c0 -34 2 -45 8 -36 8 13 12 13 27 0 16 -13 16 -12 6 7
-8 16 -8 24 0 32 9 9 9 12 1 12 -7 0 -15 -6 -20 -12 -5 -9 -10 -3 -14 17 -5
25 -7 21 -8 -20z"/>
<path d="M10379 1128 c-11 -8 -11 -9 3 -4 28 8 32 -14 9 -45 l-22 -29 28 1
c22 0 24 2 10 8 -17 6 -17 8 -3 20 32 27 9 73 -25 49z"/>
<path d="M10580 1125 c-19 -22 -8 -70 15 -70 16 0 21 8 23 36 3 40 -18 59 -38
34z m30 -36 c0 -19 -5 -29 -15 -29 -15 0 -22 50 -9 63 12 12 24 -4 24 -34z"/>
<path d="M9648 1123 l22 -4 -20 -29 c-27 -37 -26 -40 13 -39 23 1 26 3 10 6
-27 5 -28 11 -8 37 21 28 19 36 -12 35 -24 -2 -25 -2 -5 -6z"/>
<path d="M10442 1093 c2 -30 7 -38 23 -38 15 0 21 8 23 29 2 16 0 32 -5 37 -5
5 -7 -6 -5 -26 3 -28 1 -35 -13 -35 -14 0 -16 7 -13 35 2 19 0 35 -5 35 -4 0
-7 -17 -5 -37z"/>
<path d="M10518 1123 c28 -6 28 -20 0 -50 l-21 -23 34 1 c29 1 31 2 10 8 -21
6 -22 8 -7 20 9 7 16 22 16 32 0 14 -7 19 -27 18 -24 -2 -25 -2 -5 -6z"/>
<path d="M8106 1104 c-36 -36 -6 -104 46 -104 25 0 58 36 58 63 0 49 -70 76
-104 41z"/>
<path d="M9770 1096 c0 -30 13 -46 36 -46 21 0 24 4 23 33 -2 30 -2 30 -6 5
-5 -35 -33 -37 -33 -3 0 14 -4 25 -10 25 -5 0 -10 -6 -10 -14z"/>
<path d="M9851 1078 c1 -21 3 -26 6 -13 3 11 12 26 21 33 14 11 13 12 -6 12
-18 0 -22 -5 -21 -32z"/>
<path d="M9913 1103 c18 -5 17 -6 -2 -20 -12 -8 -19 -19 -16 -24 10 -15 55
-11 55 5 0 29 -13 46 -34 45 -18 -1 -18 -2 -3 -6z m17 -33 c0 -5 -7 -10 -16
-10 -8 0 -12 5 -9 10 3 6 10 10 16 10 5 0 9 -4 9 -10z"/>
<path d="M9966 1090 c4 -14 10 -29 14 -34 10 -10 33 30 27 47 -3 7 -8 -1 -12
-17 l-8 -29 -13 29 c-12 25 -13 26 -8 4z"/>
<path d="M10020 1100 c0 -5 10 -15 23 -22 l22 -12 -25 -7 c-23 -6 -23 -7 -3
-8 31 -1 37 15 12 32 -19 14 -20 15 -2 20 15 4 14 5 -4 6 -13 0 -23 -3 -23 -9z"/>
<path d="M10163 1103 c18 -5 17 -6 -2 -20 -12 -8 -19 -19 -16 -24 10 -15 55
-11 55 5 0 29 -13 46 -34 45 -18 -1 -18 -2 -3 -6z m17 -33 c0 -5 -7 -10 -16
-10 -8 0 -12 5 -9 10 3 6 10 10 16 10 5 0 9 -4 9 -10z"/>
<path d="M10211 1108 c-1 -4 4 -19 9 -34 7 -19 7 -30 -1 -40 -8 -10 -8 -14 0
-14 13 0 43 69 37 84 -2 6 -7 -2 -11 -18 l-8 -29 -13 29 c-7 16 -13 26 -13 22z"/>
<path d="M10295 1101 c19 -8 19 -8 -2 -15 -31 -10 -30 -36 2 -36 21 0 25 5 25
30 0 25 -4 30 -22 29 -22 0 -22 -1 -3 -8z m15 -31 c0 -5 -7 -10 -16 -10 -8 0
-12 5 -9 10 3 6 10 10 16 10 5 0 9 -4 9 -10z"/>
<path d="M8640 1035 c0 -45 1 -46 28 -43 24 3 27 7 27 43 0 36 -3 40 -27 43
-27 3 -28 2 -28 -43z m48 23 c-6 -18 -28 -21 -28 -4 0 9 7 16 16 16 9 0 14 -5
12 -12z m0 -40 c-6 -18 -28 -21 -28 -4 0 9 7 16 16 16 9 0 14 -5 12 -12z"/>
<path d="M8723 1035 c0 -27 2 -38 4 -22 2 15 2 37 0 50 -2 12 -4 0 -4 -28z"/>
<path d="M8882 1035 c0 -40 2 -44 7 -20 3 17 13 30 21 30 8 0 18 -13 22 -30 6
-29 6 -29 5 5 -2 28 -6 35 -22 35 -11 0 -23 7 -27 15 -4 8 -6 -7 -6 -35z"/>
<path d="M9003 1073 c23 -6 22 -26 -3 -48 -28 -26 -25 -35 13 -34 28 1 29 2 8
8 -21 6 -22 8 -7 20 9 7 16 24 16 37 0 19 -5 24 -22 23 -17 -1 -19 -2 -5 -6z"/>
<path d="M9054 1067 c-3 -9 -4 -28 -2 -44 2 -20 8 -28 23 -28 17 0 20 7 20 40
0 30 -4 41 -18 43 -9 2 -20 -3 -23 -11z m34 -29 c-3 -34 -20 -42 -26 -13 -5
22 5 45 18 45 7 0 10 -14 8 -32z"/>
<path d="M9130 1070 c-9 -6 -10 -10 -3 -10 6 0 14 -17 16 -37 3 -35 4 -34 5
10 1 26 1 47 0 47 -2 0 -10 -5 -18 -10z"/>
<path d="M9187 1073 c-2 -5 -3 -24 -3 -43 1 -28 5 -35 21 -35 16 0 20 7 22 43
2 36 0 42 -17 42 -10 0 -21 -3 -23 -7z m33 -13 c0 -5 -4 -10 -10 -10 -5 0 -10
5 -10 10 0 6 5 10 10 10 6 0 10 -4 10 -10z m0 -45 c0 -8 -4 -15 -9 -15 -13 0
-22 16 -14 24 11 11 23 6 23 -9z"/>
<path d="M8757 1054 c-13 -13 -7 -55 9 -61 24 -9 51 23 38 45 -12 19 -36 27
-47 16z m40 -20 c8 -21 -13 -42 -28 -27 -13 13 -5 43 11 43 6 0 13 -7 17 -16z"/>
<path d="M8830 1045 c-17 -21 -3 -55 23 -54 l22 0 -22 9 c-13 5 -23 16 -23 25
0 9 10 20 23 25 15 6 17 9 6 9 -9 1 -22 -6 -29 -14z"/>
<path d="M4002 1028 c-28 -28 -7 -79 33 -77 19 0 19 0 -1 9 -12 5 -25 13 -29
19 -11 19 5 50 28 54 20 4 21 4 2 6 -12 0 -26 -4 -33 -11z"/>
<path d="M4142 995 c0 -40 2 -44 7 -20 3 17 13 30 21 30 8 0 18 -13 22 -30 6
-29 6 -29 5 5 -2 28 -6 35 -22 35 -11 0 -23 7 -27 15 -4 8 -6 -7 -6 -35z"/>
<path d="M4390 1030 c0 -5 7 -7 15 -4 19 8 20 -16 0 -42 -21 -28 -18 -34 13
-33 23 2 24 2 4 6 l-22 4 19 25 c11 14 17 32 14 40 -6 16 -43 20 -43 4z"/>
<path d="M4454 1013 c-12 -47 30 -82 46 -38 10 26 -5 65 -24 65 -9 0 -19 -12
-22 -27z m36 -19 c0 -24 -4 -34 -12 -32 -24 8 -22 68 2 68 5 0 10 -16 10 -36z"/>
<path d="M4524 1027 c-3 -9 -4 -28 -2 -44 2 -20 8 -28 23 -28 17 0 20 7 20 40
0 30 -4 41 -18 43 -9 2 -20 -3 -23 -11z m34 -29 c-3 -34 -20 -42 -26 -13 -5
22 5 45 18 45 7 0 10 -14 8 -32z"/>
<path d="M4588 1005 c-5 -40 10 -59 37 -49 11 5 15 14 11 28 -3 11 -6 29 -6
39 0 10 -8 17 -19 17 -14 0 -20 -9 -23 -35z m32 15 c0 -5 -4 -10 -10 -10 -5 0
-10 5 -10 10 0 6 5 10 10 10 6 0 10 -4 10 -10z m5 -39 c7 -12 -12 -24 -25 -16
-11 7 -4 25 10 25 5 0 11 -4 15 -9z"/>
<path d="M4077 1013 c-13 -13 -7 -54 9 -60 24 -9 46 24 33 48 -10 19 -30 25
-42 12z m33 -29 c0 -31 -23 -28 -28 4 -2 15 2 22 12 22 11 0 16 -9 16 -26z"/>
<path d="M4219 1004 c-16 -19 -1 -48 27 -51 13 -2 11 1 -6 9 l-25 12 28 4 c29
4 33 12 15 30 -16 16 -23 15 -39 -4z m31 -4 c0 -5 -7 -10 -16 -10 -8 0 -12 5
-9 10 3 6 10 10 16 10 5 0 9 -4 9 -10z"/>
<path d="M4294 1006 c-3 -8 -4 -25 -1 -38 3 -17 5 -15 6 10 1 20 6 32 15 32 9
0 17 -13 19 -32 l5 -33 -2 35 c-1 25 -6 36 -19 38 -9 2 -20 -3 -23 -12z"/>
<path d="M9650 971 c0 -29 24 -64 51 -75 55 -23 100 -1 114 57 l7 27 -86 0
c-47 0 -86 -4 -86 -9z"/>
<path d="M10495 970 c3 -5 19 -10 35 -10 16 0 32 5 35 10 4 6 -10 10 -35 10
-25 0 -39 -4 -35 -10z"/>
<path d="M8700 910 c0 -6 43 -10 110 -10 67 0 110 4 110 10 0 6 -43 10 -110
10 -67 0 -110 -4 -110 -10z"/>
<path d="M7992 844 c-27 -19 -28 -45 -2 -69 17 -15 24 -16 45 -7 32 15 35 66
6 82 -25 13 -22 13 -49 -6z"/>
<path d="M8826 788 c8 -51 14 -62 14 -25 0 36 27 35 33 0 4 -26 4 -26 6 5 1
26 -3 32 -19 32 -11 0 -20 7 -20 15 0 8 -5 15 -10 15 -6 0 -8 -16 -4 -42z"/>
<path d="M8970 819 c-13 -9 -12 -10 2 -5 27 8 32 -13 9 -38 -28 -29 -27 -36 7
-35 16 1 20 3 10 6 -16 4 -16 6 -1 29 14 22 14 27 2 39 -10 10 -18 11 -29 4z"/>
<path d="M9174 822 c-6 -4 -11 -24 -12 -45 -1 -34 1 -38 21 -35 17 2 22 10 23
35 2 34 -14 57 -32 45z m17 -25 c-13 -13 -26 -3 -16 12 3 6 11 8 17 5 6 -4 6
-10 -1 -17z m9 -38 c0 -5 -7 -9 -15 -9 -15 0 -20 12 -9 23 8 8 24 -1 24 -14z"/>
<path d="M8401 816 c-2 -16 22 -76 30 -76 9 0 33 69 26 76 -2 3 -7 -7 -11 -21
-8 -33 -19 -32 -33 3 -6 15 -11 23 -12 18z"/>
<path d="M9025 800 c-9 -29 4 -60 25 -60 10 0 22 9 25 20 9 29 -4 60 -25 60
-10 0 -22 -9 -25 -20z m40 -20 c0 -13 -5 -25 -11 -27 -14 -5 -25 22 -17 42 8
23 28 12 28 -15z"/>
<path d="M9104 808 c-4 -6 -3 -8 4 -4 7 4 12 -7 15 -31 l4 -38 1 43 c2 40 -9
55 -24 30z"/>
<path d="M8474 786 c-10 -26 4 -48 28 -44 17 2 23 10 23 28 0 18 -6 26 -23 28
-13 2 -25 -3 -28 -12z m46 -16 c0 -11 -6 -20 -14 -20 -18 0 -29 16 -21 30 11
18 35 11 35 -10z"/>
<path d="M8545 791 c-3 -6 5 -16 17 -22 l23 -13 -25 -7 -25 -7 28 -1 c31 -1
38 23 10 34 -17 7 -16 8 2 15 19 8 19 9 -2 9 -12 1 -24 -3 -28 -8z"/>
<path d="M8604 786 c-10 -26 4 -48 28 -44 17 2 23 10 23 28 0 18 -6 26 -23 28
-13 2 -25 -3 -28 -12z m46 -16 c0 -11 -6 -20 -14 -20 -18 0 -29 16 -21 30 11
18 35 11 35 -10z"/>
<path d="M8681 773 c-1 -29 2 -33 24 -33 22 0 25 4 24 33 -2 30 -2 30 -6 5 -2
-16 -10 -28 -18 -28 -8 0 -16 12 -18 28 -4 25 -4 25 -6 -5z"/>
<path d="M8754 785 c-10 -24 4 -45 28 -45 25 0 14 -15 -17 -23 -16 -4 -14 -5
6 -6 29 -1 39 14 39 60 0 24 -4 29 -25 29 -14 0 -28 -7 -31 -15z m41 -15 c0
-8 -8 -16 -17 -18 -13 -2 -18 3 -18 18 0 15 5 20 18 18 9 -2 17 -10 17 -18z"/>
<path d="M8902 770 c0 -19 2 -27 5 -17 2 9 2 25 0 35 -3 9 -5 1 -5 -18z"/>
<path d="M10226 778 c-24 -34 -20 -38 39 -38 30 0 55 3 55 8 0 20 -34 52 -55
52 -13 0 -31 -10 -39 -22z"/>
<path d="M9550 753 c-50 -64 29 -143 93 -93 20 16 27 30 27 55 0 64 -80 89
-120 38z"/>
<path d="M8600 655 c0 -12 16 -15 80 -15 64 0 80 3 80 15 0 12 -16 15 -80 15
-64 0 -80 -3 -80 -15z"/>
<path d="M10062 625 c0 -27 2 -44 5 -37 4 10 8 10 19 1 8 -7 14 -7 14 -1 0 5
-6 15 -14 22 -8 6 -17 24 -19 38 -2 15 -4 5 -5 -23z"/>
<path d="M10240 655 c0 -8 -9 -15 -20 -15 -16 0 -20 -7 -20 -30 0 -25 4 -30
25 -30 23 0 25 4 25 45 0 25 -2 45 -5 45 -3 0 -5 -7 -5 -15z m0 -45 c0 -11 -7
-20 -15 -20 -8 0 -15 9 -15 20 0 11 7 20 15 20 8 0 15 -9 15 -20z"/>
<path d="M10400 659 c-13 -9 -12 -10 2 -5 27 8 32 -13 9 -38 -28 -29 -27 -36
7 -35 16 1 20 3 10 6 -16 4 -16 6 -1 29 14 22 14 27 2 39 -10 10 -18 11 -29 4z"/>
<path d="M10529 658 c-11 -8 -11 -9 3 -4 28 8 32 -14 9 -45 l-22 -29 28 1 c22
0 24 2 10 8 -17 6 -17 8 -3 20 32 27 9 73 -25 49z"/>
<path d="M9881 618 l2 -43 6 35 7 35 8 -32 c9 -40 23 -42 33 -5 l7 27 7 -30
c6 -27 7 -26 8 13 1 50 -5 53 -24 10 l-14 -33 -11 33 c-17 45 -30 40 -29 -10z"/>
<path d="M10462 623 c2 -30 7 -38 23 -38 15 0 21 8 23 29 2 16 0 32 -5 37 -5
5 -7 -6 -5 -26 3 -28 1 -35 -13 -35 -14 0 -16 7 -13 35 2 19 0 35 -5 35 -4 0
-7 -17 -5 -37z"/>
<path d="M10592 623 c2 -30 7 -38 23 -38 15 0 21 8 23 29 2 16 0 32 -5 37 -5
5 -7 -6 -5 -26 3 -28 1 -35 -13 -35 -14 0 -16 7 -13 35 2 19 0 35 -5 35 -4 0
-7 -17 -5 -37z"/>
<path d="M10003 633 c18 -5 17 -6 -2 -20 -12 -8 -19 -19 -16 -24 10 -15 55
-11 55 5 0 29 -13 46 -34 45 -18 -1 -18 -2 -3 -6z m17 -33 c0 -5 -7 -10 -16
-10 -8 0 -12 5 -9 10 3 6 10 10 16 10 5 0 9 -4 9 -10z"/>
<path d="M10121 608 c2 -28 2 -29 6 -8 3 14 10 28 17 32 7 5 5 8 -6 8 -14 0
-18 -8 -17 -32z"/>
<path d="M10172 610 c0 -19 2 -27 5 -17 2 9 2 25 0 35 -3 9 -5 1 -5 -18z"/>
<path d="M10272 610 c0 -19 2 -27 5 -17 2 9 2 25 0 35 -3 9 -5 1 -5 -18z"/>
<path d="M10300 630 c0 -5 10 -15 23 -22 l22 -12 -25 -7 c-23 -6 -23 -7 -3 -8
31 -1 37 15 12 32 -19 14 -20 15 -2 20 15 4 14 5 -4 6 -13 0 -23 -3 -23 -9z"/>
<path d="M7705 605 c-28 -27 -32 -61 -10 -92 49 -70 160 0 120 76 -24 48 -72
55 -110 16z"/>
<path d="M6891 573 c-17 -16 -33 -40 -37 -55 l-6 -28 106 0 106 0 0 26 c0 15
-12 38 -29 55 -40 40 -98 41 -140 2z"/>
<path d="M8370 525 c0 -36 3 -45 18 -45 29 0 41 14 37 45 -2 17 -4 33 -4 38
-1 4 -12 7 -26 7 -23 0 -25 -4 -25 -45z m40 20 c0 -8 -7 -15 -15 -15 -8 0 -15
7 -15 15 0 8 7 15 15 15 8 0 15 -7 15 -15z m8 -37 c-7 -19 -38 -22 -38 -4 0
10 9 16 21 16 12 0 19 -5 17 -12z"/>
<path d="M8553 525 c0 -27 2 -38 4 -22 2 15 2 37 0 50 -2 12 -4 0 -4 -28z"/>
<path d="M8735 560 c-3 -5 0 -7 8 -4 25 9 28 -12 7 -39 -26 -33 -25 -37 8 -36
24 2 25 2 4 6 l-24 5 22 23 c13 14 20 31 17 39 -7 18 -33 21 -42 6z"/>
<path d="M8807 564 c-14 -14 -7 -75 9 -81 21 -8 35 15 32 52 -3 29 -25 44 -41
29z m28 -39 c0 -16 -6 -30 -12 -32 -9 -3 -13 7 -13 32 0 25 4 35 13 33 6 -3
12 -17 12 -33z"/>
<path d="M8875 560 c-3 -5 -2 -10 4 -10 5 0 12 -17 14 -37 3 -35 4 -34 5 10 2
44 -9 60 -23 37z"/>
<path d="M8948 563 c26 -5 26 -6 6 -44 -8 -17 -13 -33 -10 -36 5 -5 36 62 36
78 0 5 -12 8 -27 8 -24 -2 -25 -2 -5 -6z"/>
<path d="M3586 519 c-14 -17 -26 -39 -26 -50 0 -17 8 -19 96 -19 l96 0 -6 28
c-10 41 -50 72 -96 72 -30 0 -43 -6 -64 -31z"/>
<path d="M8463 543 c23 -6 22 -19 -4 -26 -22 -6 -22 -29 -1 -33 7 -1 8 0 2 3
-15 7 -12 23 4 23 8 0 17 -8 19 -17 3 -10 5 -1 6 20 1 32 -2 37 -21 36 -17 -1
-19 -2 -5 -6z"/>
<path d="M8513 515 c0 -22 2 -30 4 -17 2 12 2 30 0 40 -3 9 -5 -1 -4 -23z"/>
<path d="M8579 534 c-16 -19 -1 -48 27 -51 13 -2 11 1 -6 9 l-25 12 28 4 c29
4 33 12 15 30 -16 16 -23 15 -39 -4z m31 -4 c0 -5 -7 -10 -16 -10 -8 0 -12 5
-9 10 3 6 10 10 16 10 5 0 9 -4 9 -10z"/>
<path d="M8634 534 c17 -40 18 -55 6 -69 -9 -11 -9 -15 -1 -15 14 0 56 89 46
98 -3 3 -8 -4 -12 -16 -6 -25 -23 -30 -23 -8 0 8 -5 18 -12 22 -8 5 -9 2 -4
-12z"/>
<path d="M1869 461 c-16 -16 -29 -39 -29 -50 0 -20 5 -21 95 -21 90 0 95 1 95
21 0 35 -53 79 -95 79 -27 0 -44 -8 -66 -29z"/>
<path d="M975 416 c-27 -12 -55 -51 -55 -76 0 -6 40 -10 90 -10 50 0 90 2 90
4 0 1 -5 18 -11 36 -8 22 -22 37 -45 46 -39 16 -32 16 -69 0z"/>
<path d="M6761 375 c0 -34 2 -45 8 -36 8 13 12 13 27 0 16 -13 16 -12 6 7 -8
16 -8 24 0 32 9 9 9 12 1 12 -7 0 -15 -6 -20 -12 -5 -9 -10 -3 -14 17 -5 25
-7 21 -8 -20z"/>
<path d="M6882 375 c0 -36 2 -43 7 -25 10 36 38 38 44 3 5 -28 5 -28 3 2 -1
23 -6 31 -23 33 -12 2 -24 11 -26 20 -3 9 -5 -5 -5 -33z"/>
<path d="M6620 370 c0 -36 2 -40 25 -40 28 0 45 27 25 40 -9 5 -9 9 -1 14 17
11 3 26 -25 26 -21 0 -24 -4 -24 -40z m40 20 c0 -5 -7 -10 -15 -10 -8 0 -15 5
-15 10 0 6 7 10 15 10 8 0 15 -4 15 -10z m3 -35 c1 -5 -6 -11 -15 -13 -11 -2
-18 3 -18 13 0 17 30 18 33 0z"/>
<path d="M7080 392 c0 -11 -7 -25 -15 -32 -23 -19 -18 -30 13 -29 16 1 20 3
10 6 -16 4 -16 7 -3 33 9 18 11 31 5 35 -6 3 -10 -3 -10 -13z"/>
<path d="M7114 396 c-11 -28 1 -61 22 -64 24 -3 36 23 27 58 -6 23 -41 27 -49
6z m36 -27 c0 -38 -24 -35 -28 4 -2 19 1 27 12 27 11 0 16 -10 16 -31z"/>
<path d="M7185 400 c-3 -5 -2 -10 4 -10 5 0 12 -15 14 -32 3 -29 4 -27 5 10 2
39 -9 55 -23 32z"/>
<path d="M7250 390 c0 -11 6 -20 14 -20 26 0 28 -20 4 -30 l-23 -10 25 3 c32
3 40 36 11 44 -26 7 -27 20 -3 26 13 4 11 5 -5 6 -17 1 -23 -5 -23 -19z"/>
<path d="M6715 381 c19 -8 19 -8 -2 -15 -31 -10 -30 -36 2 -36 21 0 25 5 25
30 0 25 -4 30 -22 29 -22 0 -22 -1 -3 -8z m15 -31 c0 -5 -7 -10 -16 -10 -8 0
-12 5 -9 10 3 6 10 10 16 10 5 0 9 -4 9 -10z"/>
<path d="M6820 380 c0 -5 10 -15 23 -22 l22 -12 -25 -7 c-23 -6 -23 -7 -3 -8
31 -1 37 15 12 32 -19 14 -20 15 -2 20 15 4 14 5 -4 6 -13 0 -23 -3 -23 -9z"/>
<path d="M6955 373 c16 -40 17 -56 4 -65 -12 -8 -12 -9 0 -6 16 5 55 88 42 88
-5 0 -12 -10 -15 -22 l-7 -23 -9 23 c-5 12 -12 22 -16 22 -3 0 -3 -8 1 -17z"/>
<path d="M3453 335 c0 -27 2 -38 4 -22 2 15 10 27 18 27 8 0 16 -12 18 -27 4
-26 4 -26 6 5 1 25 -3 32 -18 32 -11 0 -22 8 -24 18 -3 9 -5 -5 -4 -33z"/>
<path d="M3700 369 c-13 -9 -12 -10 2 -5 27 8 32 -13 9 -38 -28 -29 -27 -36 7
-35 16 1 20 3 10 6 -16 4 -16 6 -1 29 14 22 14 27 2 39 -10 10 -18 11 -29 4z"/>
<path d="M3906 367 c-25 -18 -18 -72 9 -72 28 0 33 35 6 42 -26 7 -26 12 -3
29 22 17 11 18 -12 1z m24 -52 c0 -8 -7 -15 -15 -15 -8 0 -15 7 -15 15 0 8 7
15 15 15 8 0 15 -7 15 -15z"/>
<path d="M3374 356 c-3 -8 -4 -25 -2 -38 2 -18 10 -23 33 -25 28 -2 28 -1 5 5
-18 6 -25 15 -25 32 0 17 7 26 25 31 l25 7 -28 1 c-15 1 -30 -5 -33 -13z"/>
<path d="M3755 350 c-9 -29 4 -60 25 -60 10 0 22 9 25 20 9 29 -4 60 -25 60
-10 0 -22 -9 -25 -20z m40 -20 c0 -13 -5 -25 -11 -27 -14 -5 -25 22 -17 42 8
23 28 12 28 -15z"/>
<path d="M3824 356 c-11 -28 1 -61 22 -64 24 -3 36 23 27 58 -6 23 -41 27 -49
6z m36 -27 c0 -38 -24 -35 -28 4 -2 19 1 27 12 27 11 0 16 -10 16 -31z"/>
<path d="M3522 323 c2 -22 9 -28 28 -30 22 -1 22 -1 3 4 -28 6 -30 23 -3 23
11 0 20 7 20 15 0 9 -10 15 -26 15 -22 0 -25 -4 -22 -27z m35 11 c-3 -3 -12
-4 -19 -1 -8 3 -5 6 6 6 11 1 17 -2 13 -5z"/>
<path d="M3591 318 c2 -31 2 -31 6 -5 2 15 10 27 18 27 8 0 16 -12 18 -27 4
-26 4 -26 6 5 1 28 -2 32 -24 32 -22 0 -25 -4 -24 -32z"/>
<path d="M2163 313 c-22 -8 -15 -44 8 -50 21 -6 21 -7 3 -20 -19 -14 -18 -15
1 -11 15 2 21 12 23 39 3 37 -9 51 -35 42z m27 -29 c0 -8 -7 -14 -15 -14 -15
0 -21 21 -9 33 10 9 24 -2 24 -19z"/>
<path d="M1611 268 c1 -24 3 -35 6 -25 5 21 22 22 29 2 4 -8 11 -15 17 -15 8
0 8 3 0 11 -7 7 -9 25 -6 40 5 26 3 29 -21 29 -24 0 -26 -3 -25 -42z m37 20
c-6 -18 -28 -21 -28 -4 0 9 7 16 16 16 9 0 14 -5 12 -12z"/>
<path d="M2024 298 c-4 -6 -3 -8 4 -4 7 4 12 -7 15 -31 l4 -38 1 43 c2 40 -9
55 -24 30z"/>
<path d="M2084 295 c-7 -18 3 -35 22 -35 20 0 18 -18 -3 -23 -17 -4 -17 -5 0
-6 10 0 21 9 26 21 9 24 3 58 -9 58 -5 0 -6 -10 -3 -21 4 -16 2 -20 -8 -17 -8
3 -13 13 -13 22 2 20 -5 21 -12 1z"/>
<path d="M2216 301 c-9 -14 4 -41 20 -41 20 0 17 -18 -3 -23 -15 -4 -15 -5 -2
-6 41 -3 53 71 12 77 -11 2 -24 -1 -27 -7z m40 -24 c2 -14 -1 -15 -17 -6 -11
5 -17 15 -13 20 9 14 27 6 30 -14z"/>
<path d="M1684 276 c-10 -26 4 -48 28 -44 17 2 23 10 23 28 0 18 -6 26 -23 28
-13 2 -25 -3 -28 -12z m41 -16 c0 -8 -8 -16 -17 -18 -13 -2 -18 3 -18 18 0 15
5 20 18 18 9 -2 17 -10 17 -18z"/>
<path d="M1750 280 c0 -5 10 -15 23 -22 l22 -12 -25 -7 c-23 -6 -23 -7 -3 -8
31 -1 37 15 12 32 -19 14 -20 15 -2 20 15 4 14 5 -4 6 -13 0 -23 -3 -23 -9z"/>
<path d="M1810 276 c0 -8 8 -17 18 -21 16 -7 15 -8 -3 -15 -19 -8 -19 -9 3 -9
26 -1 30 26 5 36 -15 6 -15 7 3 14 17 7 17 8 -3 8 -13 1 -23 -5 -23 -13z"/>
<path d="M1872 263 c2 -22 9 -28 28 -30 22 -1 22 -1 3 4 -28 6 -30 23 -3 23
11 0 20 7 20 15 0 9 -10 15 -26 15 -22 0 -25 -4 -22 -27z m35 11 c-3 -3 -12
-4 -19 -1 -8 3 -5 6 6 6 11 1 17 -2 13 -5z"/>
<path d="M1941 258 c2 -28 2 -29 6 -8 3 14 10 28 17 32 7 5 5 8 -6 8 -14 0
-18 -8 -17 -32z"/>
<path d="M694 238 c-4 -7 2 -18 14 -26 28 -18 28 -29 0 -35 -20 -4 -19 -4 5
-6 34 -1 37 28 5 48 l-23 15 25 7 c23 6 23 7 3 8 -12 1 -25 -4 -29 -11z"/>
<path d="M1085 240 c-3 -5 -2 -10 4 -10 5 0 12 -15 14 -32 3 -29 4 -27 5 10 2
39 -9 55 -23 32z"/>
<path d="M1146 241 c-9 -14 4 -41 20 -41 20 0 17 -18 -3 -23 -15 -4 -15 -5 -2
-6 41 -3 53 71 12 77 -11 2 -24 -1 -27 -7z m40 -24 c2 -14 -1 -15 -17 -6 -11
5 -17 15 -13 20 9 14 27 6 30 -14z"/>
<path d="M1220 250 c-1 -3 -2 -21 -3 -40 -2 -29 2 -36 20 -38 19 -3 22 1 21
37 0 23 -4 41 -9 41 -5 0 -6 -7 -3 -15 4 -8 1 -15 -4 -15 -6 0 -13 8 -15 18
-3 9 -6 15 -7 12z m30 -61 c0 -5 -7 -9 -15 -9 -15 0 -20 12 -9 23 8 8 24 -1
24 -14z"/>
<path d="M1287 220 c-18 -29 -18 -30 2 -30 12 0 21 -6 21 -12 0 -10 2 -10 8 0
9 14 3 72 -7 72 -4 0 -15 -13 -24 -30z m19 -17 c-10 -10 -19 5 -10 18 6 11 8
11 12 0 2 -7 1 -15 -2 -18z"/>
<path d="M762 200 c0 -19 2 -27 5 -17 2 9 2 25 0 35 -3 9 -5 1 -5 -18z"/>
<path d="M791 198 c1 -30 2 -30 8 -9 10 36 31 38 32 4 1 -27 1 -27 8 -4 9 34
31 39 31 7 0 -14 5 -26 10 -26 11 0 13 20 4 44 -4 11 -19 16 -50 16 -43 0 -44
-1 -43 -32z"/>
<path d="M904 216 c-10 -26 4 -48 28 -44 17 2 23 10 23 28 0 18 -6 26 -23 28
-13 2 -25 -3 -28 -12z m46 -16 c0 -11 -6 -20 -14 -20 -18 0 -29 16 -21 30 11
18 35 11 35 -10z"/>
<path d="M981 198 c2 -31 2 -31 6 -5 2 15 10 27 18 27 8 0 16 -12 18 -27 4
-26 4 -26 6 5 1 28 -2 32 -24 32 -22 0 -25 -4 -24 -32z"/>
</g>
</svg>
