<?xml version="1.0" standalone="no"?>
<!DOCTYPE svg PUBLIC "-//W3C//DTD SVG 20010904//EN"
 "http://www.w3.org/TR/2001/REC-SVG-20010904/DTD/svg10.dtd">
<svg version="1.0" xmlns="http://www.w3.org/2000/svg"
 width="287.000000pt" height="106.000000pt" viewBox="0 0 287.000000 106.000000"
 preserveAspectRatio="xMidYMid meet">
<metadata>
Created by potrace 1.16, written by Peter Selinger 2001-2019
</metadata>
<g transform="translate(0.000000,106.000000) scale(0.100000,-0.100000)"
fill="#000000" stroke="none">
<path d="M44 965 c-3 -8 -4 -20 -2 -27 3 -7 7 -1 10 15 6 29 1 36 -8 12z"/>
<path d="M144 966 c-3 -8 -4 -21 -1 -28 3 -7 6 -2 7 12 l2 25 8 -25 c7 -23 8
-23 9 -3 1 27 -17 40 -25 19z"/>
<path d="M214 971 c-2 -2 -4 -191 -3 -420 0 -229 3 -410 6 -402 5 11 7 11 14
0 6 -10 9 -11 9 -1 0 6 9 12 20 12 11 0 20 -6 20 -12 0 -10 3 -9 9 1 7 11 9
11 14 0 4 -10 6 -10 6 -1 1 9 82 12 372 12 293 0 369 -3 363 -12 -6 -10 -5
-10 7 -1 20 16 1185 18 1205 2 8 -7 14 -7 19 1 4 6 98 10 276 10 l269 0 0 405
0 405 -1257 1 c-692 1 -1277 2 -1301 3 -24 0 -46 -1 -48 -3z m80 -27 c14 -14
16 -14 16 0 0 14 123 16 1236 15 680 0 1243 -3 1250 -6 19 -7 21 -333 2 -334
-10 0 -10 -2 -1 -6 16 -6 19 -443 3 -443 -6 0 -10 72 -11 193 -1 105 -5 273
-8 372 l-7 180 -2 -187 -2 -188 -561 0 c-371 0 -558 -3 -554 -10 3 -5 -3 -10
-14 -10 -20 0 -21 -5 -21 -175 0 -110 -4 -175 -10 -175 -5 0 -10 6 -10 13 0 8
-4 7 -10 -3 -6 -10 -10 49 -10 177 0 174 2 192 18 196 13 4 11 5 -5 6 l-23 1
0 -195 0 -195 -55 0 -55 0 0 211 0 212 90 -6 c49 -3 90 -2 90 2 0 6 -108 28
-167 33 -8 1 -13 16 -13 40 0 33 -3 38 -22 37 -17 -1 -19 -2 -5 -6 12 -3 17
-14 17 -38 l0 -33 -42 5 c-24 4 -46 10 -49 16 -4 5 -24 6 -48 2 -37 -6 -42 -4
-50 17 -7 17 -10 18 -10 6 -1 -10 -8 -18 -16 -18 -8 0 -15 8 -16 18 0 10 -3
12 -6 5 -2 -7 -13 -13 -24 -13 -24 0 -26 37 -1 43 13 4 11 5 -5 6 -18 1 -23
-4 -23 -24 0 -27 -1 -28 -24 -19 -13 5 -16 23 -16 89 0 71 3 84 18 88 13 4 11
5 -5 6 -22 1 -23 -2 -23 -89 0 -83 -1 -90 -20 -90 -19 0 -20 7 -20 94 0 82 2
95 18 99 13 4 11 5 -5 6 -22 1 -23 -2 -23 -95 l0 -97 -52 6 c-29 3 -88 9 -130
13 l-78 7 -2 36 -1 36 -4 -37 c-3 -25 -9 -38 -19 -38 -9 0 -15 12 -16 38 l-1
37 -4 -38 -4 -38 -53 2 c-29 1 -58 -1 -66 -6 -9 -5 -15 -4 -18 4 -3 10 -6 10
-11 2 -9 -14 -104 4 -228 44 l-83 26 1 47 c1 38 2 42 9 22 7 -23 8 -23 9 -3 1
12 -3 25 -9 28 -5 3 -10 21 -10 40 0 30 -2 32 -22 27 -19 -5 -20 -7 -5 -10 14
-3 17 -15 17 -73 0 -38 -4 -69 -9 -69 -5 0 -13 -32 -19 -71 -12 -82 -27 -107
-30 -52 -2 21 2 40 10 44 10 7 10 9 1 9 -7 0 -13 7 -13 16 0 8 5 12 10 9 6 -3
10 -1 10 4 0 6 -4 11 -10 11 -5 0 -10 21 -10 48 0 34 3 43 10 32 8 -12 10 -11
10 7 0 12 -4 25 -10 28 -5 3 -10 25 -10 48 0 31 3 38 10 27 8 -13 10 -12 10 3
0 22 33 23 54 1z m-14 -268 c0 -58 -4 -85 -13 -89 -10 -4 -10 14 -3 84 5 49
10 89 12 89 2 0 4 -38 4 -84z m50 -1 c0 -36 -3 -65 -6 -65 -26 0 -46 82 -23
95 6 4 8 13 5 21 -3 8 1 14 9 14 12 0 15 -15 15 -65z m125 32 l97 -24 -73 -18
c-41 -10 -87 -18 -104 -17 -24 1 -26 -1 -11 -7 19 -7 19 -8 -2 -13 -21 -6 -22
-3 -22 54 0 32 4 57 9 54 5 -3 53 -16 106 -29z m288 -34 c-7 -2 -21 -2 -30 0
-10 3 -4 5 12 5 17 0 24 -2 18 -5z m44 1 c-3 -3 -12 -4 -19 -1 -8 3 -5 6 6 6
11 1 17 -2 13 -5z m53 -4 c0 -5 -7 -10 -15 -10 -8 0 -15 5 -15 10 0 6 7 10 15
10 8 0 15 -4 15 -10z m173 -6 c55 -7 63 -24 11 -24 -56 0 -174 22 -174 33 0 9
25 7 163 -9z m-413 -244 l0 -250 -75 0 -75 0 0 209 c0 209 0 210 23 214 19 4
18 4 -5 6 l-28 1 0 -204 c0 -172 -2 -205 -15 -210 -13 -5 -15 24 -15 218 l0
223 63 18 c34 9 67 19 72 20 6 2 20 4 33 4 l22 1 0 -250z m40 0 c0 -216 -2
-250 -15 -250 -13 0 -15 34 -15 250 0 216 2 250 15 250 13 0 15 -34 15 -250z
m106 236 c0 0 -2 -109 -4 -242 -3 -197 -7 -241 -18 -241 -11 0 -14 36 -15 196
0 108 -4 216 -8 241 -6 29 -9 -41 -10 -196 -1 -207 -3 -241 -16 -241 -13 0
-15 33 -15 233 0 128 -3 239 -6 247 -4 12 3 14 43 10 26 -3 48 -6 49 -7z m364
-18 c0 -13 -32 -6 -37 9 -3 7 3 9 16 6 12 -3 21 -10 21 -15z m-320 -226 c0
-206 -2 -239 -15 -239 -13 0 -15 33 -15 239 0 205 2 238 15 238 13 0 15 -33
15 -238z m50 -8 c0 -201 -2 -234 -15 -234 -13 0 -15 33 -15 240 0 209 2 239
15 234 13 -5 15 -41 15 -240z m315 236 c3 -5 -3 -10 -14 -10 -12 0 -21 5 -21
10 0 6 6 10 14 10 8 0 18 -4 21 -10z m-127 -16 c27 -4 32 -9 32 -33 0 -25 -3
-28 -25 -23 l-25 4 0 -201 0 -201 -80 0 -80 0 0 235 0 235 73 -6 c39 -3 87 -7
105 -10z m175 9 c-7 -2 -19 -2 -25 0 -7 3 -2 5 12 5 14 0 19 -2 13 -5z m-906
-25 c-3 -8 -6 -5 -6 6 -1 11 2 17 5 13 3 -3 4 -12 1 -19z m950 16 c-3 -3 -12
-4 -19 -1 -8 3 -5 6 6 6 11 1 17 -2 13 -5z m40 0 c-3 -3 -12 -4 -19 -1 -8 3
-5 6 6 6 11 1 17 -2 13 -5z m-887 -229 l0 -225 -30 0 -30 0 0 213 c0 212 0
214 23 225 12 6 25 11 30 11 4 1 7 -100 7 -224z m710 0 c0 -218 -1 -225 -20
-225 -19 0 -20 7 -20 225 0 218 1 225 20 225 19 0 20 -7 20 -225z m50 -6 c0
-212 -1 -219 -20 -219 -19 0 -20 7 -20 224 0 219 0 224 20 219 19 -5 20 -14
20 -224z m50 1 c0 -213 -1 -220 -20 -220 -19 0 -20 7 -20 220 0 213 1 220 20
220 19 0 20 -7 20 -220z m40 2 c0 -188 -2 -219 -15 -219 -13 0 -15 31 -15 219
0 187 2 218 15 218 13 0 15 -31 15 -218z m60 177 c0 -24 -4 -29 -25 -29 -22 0
-25 4 -25 34 0 30 2 33 25 28 20 -3 25 -10 25 -33z m40 -182 c0 -183 -2 -214
-15 -214 -13 0 -15 31 -15 214 0 183 2 213 15 213 13 0 15 -30 15 -213z m69
207 l31 -6 0 -209 c0 -202 -1 -209 -20 -209 -19 0 -20 7 -22 193 l-3 192 -2
-192 c-3 -185 -4 -193 -23 -193 -19 0 -20 7 -20 215 0 234 -4 221 59 209z
m-1179 -13 c0 -6 -4 -13 -10 -16 -5 -3 -10 1 -10 9 0 9 5 16 10 16 6 0 10 -4
10 -9z m90 -200 c0 -196 -1 -210 -18 -208 -13 1 -19 10 -20 35 -2 19 1 39 6
46 11 14 12 46 0 46 -4 0 -8 14 -8 30 0 17 5 30 10 30 6 0 10 11 10 25 0 14
-4 25 -10 25 -5 0 -10 16 -10 35 0 19 5 35 10 35 6 0 10 11 10 25 0 14 -4 25
-10 25 -5 0 -10 11 -10 24 0 22 10 33 33 35 4 1 7 -93 7 -208z m-50 -11 c0
-193 -1 -200 -20 -200 -18 0 -20 7 -20 70 0 43 -4 70 -11 70 -6 0 -8 9 -3 23
4 12 7 29 6 37 0 8 5 53 10 100 10 71 19 99 36 100 1 0 2 -90 2 -200z m770 6
c0 -154 -2 -185 -15 -190 -13 -5 -15 20 -15 184 0 162 2 190 15 190 13 0 15
-27 15 -184z m-823 152 c-3 -8 -6 -5 -6 6 -1 11 2 17 5 13 3 -3 4 -12 1 -19z
m1073 -176 c0 -152 -2 -179 -15 -179 -13 0 -15 27 -15 179 0 152 2 178 15 178
13 0 15 -26 15 -178z m420 -7 l0 -175 -25 0 -25 0 0 175 0 175 25 0 25 0 0
-175z m40 0 c0 -149 -2 -175 -15 -175 -13 0 -15 26 -15 175 0 149 2 175 15
175 13 0 15 -26 15 -175z m50 2 c0 -148 -2 -174 -15 -174 -13 0 -15 26 -15
174 0 147 2 173 15 173 13 0 15 -26 15 -173z m50 0 c0 -148 -2 -174 -15 -174
-13 0 -15 26 -15 174 0 147 2 173 15 173 13 0 15 -26 15 -173z m100 -2 c0
-149 -2 -175 -15 -175 -13 0 -15 26 -15 175 0 149 2 175 15 175 13 0 15 -26
15 -175z m220 0 c0 -168 -1 -175 -20 -175 -19 0 -20 7 -20 164 0 148 2 165 18
169 13 4 11 5 -5 6 -23 1 -23 1 -23 -169 l0 -170 -80 0 -80 0 0 175 0 175 105
0 105 0 0 -175z m40 -2 c0 -104 -4 -172 -9 -164 -7 11 -9 11 -14 0 -3 -8 -6
66 -6 164 -1 151 1 177 14 177 13 0 15 -26 15 -177z m60 162 c0 -9 -9 -15 -25
-15 -16 0 -25 6 -25 15 0 9 9 15 25 15 16 0 25 -6 25 -15z m50 -160 c0 -168
-1 -175 -20 -175 -19 0 -20 7 -20 169 0 153 2 170 18 174 9 3 18 5 20 6 1 0 2
-78 2 -174z m40 2 c0 -148 -2 -174 -15 -174 -13 0 -15 26 -15 174 0 147 2 173
15 173 13 0 15 -26 15 -173z m50 0 c0 -148 -2 -174 -15 -174 -13 0 -15 26 -15
174 0 147 2 173 15 173 13 0 15 -26 15 -173z m40 163 c-17 -5 -19 -8 -7 -9 15
-1 17 -16 17 -164 0 -139 -2 -164 -15 -164 -13 0 -15 25 -15 158 0 86 -3 164
-6 173 -5 12 0 16 22 15 l29 -1 -25 -8z m60 -163 c0 -148 -2 -174 -15 -174
-13 0 -15 26 -15 174 0 147 2 173 15 173 13 0 15 -26 15 -173z m50 -2 c0 -168
-1 -175 -20 -175 -19 0 -20 7 -20 175 0 168 1 175 20 175 19 0 20 -7 20 -175z
m120 0 l0 -175 -55 0 -55 0 0 175 0 175 55 0 55 0 0 -175z m40 0 c0 -149 -2
-175 -15 -175 -13 0 -15 26 -15 175 0 149 2 175 15 175 13 0 15 -26 15 -175z
m50 0 c0 -149 -2 -175 -15 -175 -13 0 -15 26 -15 175 0 149 2 175 15 175 13 0
15 -26 15 -175z m-1120 2 c0 -139 -2 -164 -15 -164 -13 0 -15 25 -15 164 0
138 2 163 15 163 13 0 15 -25 15 -163z m250 -5 c0 -143 -2 -169 -15 -169 -13
0 -15 26 -15 169 0 143 2 168 15 168 13 0 15 -25 15 -168z m360 -11 c0 -123
-3 -150 -15 -155 -13 -5 -15 16 -15 149 0 131 2 155 15 155 13 0 15 -23 15
-149z m-1973 47 c-3 -8 -6 -5 -6 6 -1 11 2 17 5 13 3 -3 4 -12 1 -19z m-70
-175 c-3 -10 -5 -2 -5 17 0 19 2 27 5 18 2 -10 2 -26 0 -35z"/>
<path d="M1917 883 c-13 -12 -7 -24 16 -34 l22 -10 -22 5 c-13 2 -23 0 -23 -5
0 -5 11 -9 25 -9 29 0 33 17 8 36 -17 13 -17 14 1 7 13 -4 17 -3 12 5 -8 13
-29 16 -39 5z"/>
<path d="M1972 860 c0 -19 2 -27 5 -17 2 9 2 25 0 35 -3 9 -5 1 -5 -18z"/>
<path d="M1990 858 c0 -24 3 -29 9 -19 8 12 12 12 25 2 13 -11 15 -9 13 16 -2
21 -8 29 -25 31 -19 3 -22 -1 -22 -30z m30 12 c0 -5 -4 -10 -10 -10 -5 0 -10
5 -10 10 0 6 5 10 10 10 6 0 10 -4 10 -10z"/>
<path d="M2057 883 c-13 -12 -7 -24 16 -34 l22 -10 -22 5 c-13 2 -23 0 -23 -5
0 -5 11 -9 25 -9 29 0 33 17 8 36 -17 13 -17 14 1 7 13 -4 17 -3 12 5 -8 13
-29 16 -39 5z"/>
<path d="M2291 883 c0 -7 -8 -13 -16 -13 -8 0 -15 -9 -15 -19 0 -16 7 -19 48
-19 34 0 41 3 27 8 -17 7 -17 9 -2 9 9 1 17 6 17 12 0 7 -10 9 -25 7 -16 -4
-25 0 -28 11 -3 9 -5 10 -6 4z m-1 -33 c0 -5 -4 -10 -10 -10 -5 0 -10 5 -10
10 0 6 5 10 10 10 6 0 10 -4 10 -10z"/>
<path d="M2362 860 c0 -19 2 -27 5 -17 2 9 2 25 0 35 -3 9 -5 1 -5 -18z"/>
<path d="M1690 860 c0 -6 28 -10 65 -10 37 0 65 4 65 10 0 6 -28 10 -65 10
-37 0 -65 -4 -65 -10z"/>
<path d="M2131 848 c1 -17 2 -19 6 -5 2 9 8 17 13 17 5 0 11 -8 13 -17 4 -15
5 -15 7 2 l1 20 9 -20 c8 -19 9 -19 9 3 1 18 -4 22 -29 22 -25 0 -30 -4 -29
-22z"/>
<path d="M2205 860 c-4 -7 -3 -16 3 -22 14 -14 45 -2 40 15 -6 16 -34 21 -43
7z"/>
<path d="M1910 740 c0 -28 2 -29 38 -26 47 4 70 -3 50 -15 -10 -7 -8 -9 5 -9
11 0 21 9 24 20 3 11 13 20 22 21 11 0 9 3 -6 9 -12 5 -42 8 -67 6 -33 -2 -46
1 -46 11 0 7 -4 13 -10 13 -5 0 -10 -13 -10 -30z"/>
<path d="M2320 740 c0 -16 5 -30 10 -30 6 0 10 14 10 30 0 17 -4 30 -10 30 -5
0 -10 -13 -10 -30z"/>
<path d="M2512 755 c-8 -10 -22 -12 -42 -8 -25 5 -30 2 -30 -14 0 -19 7 -20
71 -20 43 0 66 3 57 8 -10 7 -9 9 5 9 9 0 17 -4 17 -10 0 -5 5 -10 10 -10 6 0
10 14 10 30 0 17 -4 30 -10 30 -5 0 -10 -6 -10 -12 0 -7 -11 -13 -25 -13 -14
0 -25 6 -25 13 0 16 -12 15 -28 -3z m-42 -25 c0 -5 -4 -10 -10 -10 -5 0 -10 5
-10 10 0 6 5 10 10 10 6 0 10 -4 10 -10z"/>
<path d="M1690 740 c0 -6 28 -10 65 -10 37 0 65 4 65 10 0 6 -28 10 -65 10
-37 0 -65 -4 -65 -10z"/>
<path d="M2071 728 c0 -22 1 -22 9 -3 7 17 9 17 9 3 1 -25 21 -23 21 2 0 13
-7 20 -20 20 -14 0 -20 -6 -19 -22z"/>
<path d="M2120 730 c0 -13 7 -20 20 -20 13 0 20 7 20 20 0 13 -7 20 -20 20
-13 0 -20 -7 -20 -20z m30 0 c0 -5 -4 -10 -10 -10 -5 0 -10 5 -10 10 0 6 5 10
10 10 6 0 10 -4 10 -10z"/>
<path d="M2170 730 c0 -11 2 -20 4 -20 2 0 6 9 9 20 3 11 1 20 -4 20 -5 0 -9
-9 -9 -20z"/>
<path d="M2201 728 c1 -17 2 -19 6 -5 2 9 8 17 13 17 5 0 11 -8 13 -17 4 -15
5 -15 7 2 l1 20 9 -20 c8 -19 9 -19 9 3 1 18 -4 22 -29 22 -25 0 -30 -4 -29
-22z"/>
<path d="M2290 735 c11 -13 10 -14 -4 -9 -9 3 -16 1 -16 -5 0 -6 9 -11 20 -11
13 0 20 7 20 20 0 12 -7 20 -16 20 -14 0 -14 -3 -4 -15z"/>
<path d="M2371 728 c0 -22 1 -22 9 -3 7 17 9 17 9 3 1 -10 6 -18 11 -18 6 0
10 8 11 18 0 14 2 14 9 -3 8 -19 9 -19 9 3 1 18 -4 22 -29 22 -25 0 -30 -4
-29 -22z"/>
<path d="M1671 618 c2 -30 2 -31 6 -6 4 27 6 27 86 31 l82 3 -87 2 -88 2 1
-32z"/>
<path d="M1914 635 c-10 -25 4 -45 31 -45 16 0 25 6 25 15 0 8 -7 15 -16 15
-8 0 -12 -4 -9 -10 7 -11 -8 -14 -18 -4 -13 13 6 34 25 28 14 -4 18 -2 14 5
-10 16 -46 13 -52 -4z"/>
<path d="M2132 620 c0 -19 2 -27 5 -17 2 9 2 25 0 35 -3 9 -5 1 -5 -18z"/>
<path d="M2220 620 c0 -16 5 -30 10 -30 6 0 10 14 10 30 0 17 -4 30 -10 30 -5
0 -10 -13 -10 -30z"/>
<path d="M2422 620 c0 -19 2 -27 5 -17 2 9 8 17 13 17 5 0 11 -8 13 -17 4 -14
5 -12 6 5 1 13 -5 22 -13 22 -8 0 -17 6 -19 13 -3 6 -5 -4 -5 -23z"/>
<path d="M2470 622 c0 -18 4 -32 9 -32 4 0 7 12 5 26 -4 38 -14 42 -14 6z"/>
<path d="M2600 640 c0 -5 -7 -10 -15 -10 -8 0 -15 -9 -15 -20 0 -13 7 -20 20
-20 16 0 20 7 20 30 0 17 -2 30 -5 30 -3 0 -5 -4 -5 -10z m0 -30 c0 -5 -4 -10
-10 -10 -5 0 -10 5 -10 10 0 6 5 10 10 10 6 0 10 -4 10 -10z"/>
<path d="M2670 643 c0 -7 -12 -13 -26 -13 -24 0 -25 -2 -13 -17 10 -11 10 -14
2 -9 -7 4 -13 2 -13 -3 0 -18 38 -12 43 7 4 16 5 16 6 0 2 -27 61 -25 61 2 0
12 -7 20 -16 20 -12 0 -14 -3 -6 -13 8 -10 6 -13 -9 -13 -11 0 -18 5 -15 12 2
6 0 17 -5 25 -6 10 -9 10 -9 2z"/>
<path d="M1980 610 c0 -13 7 -20 20 -20 13 0 20 7 20 20 0 13 -7 20 -20 20
-13 0 -20 -7 -20 -20z m30 0 c0 -5 -4 -10 -10 -10 -5 0 -10 5 -10 10 0 6 5 10
10 10 6 0 10 -4 10 -10z"/>
<path d="M2030 610 c0 -13 7 -20 20 -20 13 0 20 7 20 20 0 13 -7 20 -20 20
-13 0 -20 -7 -20 -20z m30 0 c0 -5 -4 -10 -10 -10 -5 0 -10 5 -10 10 0 6 5 10
10 10 6 0 10 -4 10 -10z"/>
<path d="M2080 610 c0 -12 7 -20 18 -21 14 0 14 -2 -3 -9 -19 -8 -19 -9 3 -9
18 -1 22 4 22 29 0 23 -4 30 -20 30 -13 0 -20 -7 -20 -20z m30 0 c0 -5 -4 -10
-10 -10 -5 0 -10 5 -10 10 0 6 5 10 10 10 6 0 10 -4 10 -10z"/>
<path d="M2155 620 c-9 -14 3 -30 23 -30 15 0 15 2 2 10 -13 8 -12 10 3 10 10
0 15 5 12 10 -3 6 -12 10 -20 10 -8 0 -17 -4 -20 -10z"/>
<path d="M2251 608 c1 -17 2 -19 6 -5 2 9 8 17 13 17 5 0 11 -8 13 -17 4 -14
5 -12 6 5 1 16 -5 22 -19 22 -14 0 -20 -6 -19 -22z"/>
<path d="M2303 610 c1 -21 21 -27 32 -10 3 6 1 10 -5 10 -6 0 -8 5 -5 10 3 6
-1 10 -9 10 -9 0 -14 -8 -13 -20z"/>
<path d="M2352 610 c0 -14 2 -19 5 -12 2 6 2 18 0 25 -3 6 -5 1 -5 -13z"/>
<path d="M2370 610 c0 -12 7 -20 18 -21 15 0 14 -2 -3 -10 l-20 -9 20 3 c14 1
21 11 23 30 3 22 -1 27 -17 27 -14 0 -21 -6 -21 -20z m25 0 c3 -5 1 -10 -4
-10 -6 0 -11 5 -11 10 0 6 2 10 4 10 3 0 8 -4 11 -10z"/>
<path d="M2503 610 c1 -21 21 -27 32 -10 3 6 1 10 -5 10 -6 0 -8 5 -5 10 3 6
-1 10 -9 10 -9 0 -14 -8 -13 -20z"/>
<path d="M1528 523 c6 -2 18 -2 25 0 6 3 1 5 -13 5 -14 0 -19 -2 -12 -5z"/>
<path d="M558 613 c6 -2 18 -2 25 0 6 3 1 5 -13 5 -14 0 -19 -2 -12 -5z"/>
<path d="M508 593 c6 -2 18 -2 25 0 6 3 1 5 -13 5 -14 0 -19 -2 -12 -5z"/>
<path d="M968 563 c6 -2 18 -2 25 0 6 3 1 5 -13 5 -14 0 -19 -2 -12 -5z"/>
<path d="M44 855 c-3 -8 -4 -20 -2 -27 3 -7 7 -1 10 15 6 29 1 36 -8 12z"/>
<path d="M144 856 c-3 -8 -4 -21 -1 -28 3 -7 6 -2 7 12 l2 25 8 -25 c7 -23 8
-23 9 -3 1 27 -17 40 -25 19z"/>
<path d="M40 725 c0 -17 5 -25 13 -22 6 2 12 12 12 22 0 10 -6 20 -12 23 -8 2
-13 -6 -13 -23z m17 -7 c-3 -8 -6 -5 -6 6 -1 11 2 17 5 13 3 -3 4 -12 1 -19z"/>
<path d="M160 730 c-1 -23 -2 -23 -10 -5 -7 16 -9 17 -9 3 -1 -9 4 -20 9 -23
12 -7 24 19 17 37 -3 7 -6 2 -7 -12z"/>
<path d="M44 625 c-3 -8 -4 -20 -2 -27 3 -7 7 -1 10 15 6 29 1 36 -8 12z"/>
<path d="M144 626 c-3 -8 -4 -21 -1 -28 3 -7 6 -2 7 12 l2 25 8 -25 c7 -23 8
-23 9 -3 1 27 -17 40 -25 19z"/>
<path d="M44 515 c-3 -8 -4 -20 -2 -27 3 -7 7 -1 10 15 6 29 1 36 -8 12z"/>
<path d="M144 516 c-3 -8 -4 -21 -1 -28 3 -7 6 -2 7 12 l2 25 8 -25 c7 -23 8
-23 9 -3 1 27 -17 40 -25 19z"/>
<path d="M40 385 c0 -17 5 -25 13 -22 6 2 12 12 12 22 0 10 -6 20 -12 23 -8 2
-13 -6 -13 -23z m17 -7 c-3 -8 -6 -5 -6 6 -1 11 2 17 5 13 3 -3 4 -12 1 -19z"/>
<path d="M160 390 c-1 -23 -2 -23 -10 -5 -7 16 -9 17 -9 3 -1 -9 4 -20 9 -23
12 -7 24 19 17 37 -3 7 -6 2 -7 -12z"/>
<path d="M40 275 c0 -17 5 -25 13 -22 16 5 16 39 0 45 -8 2 -13 -6 -13 -23z
m17 -7 c-3 -8 -6 -5 -6 6 -1 11 2 17 5 13 3 -3 4 -12 1 -19z"/>
<path d="M160 280 c-1 -23 -2 -23 -10 -5 -7 16 -9 17 -9 3 -1 -9 4 -20 9 -23
12 -7 24 19 17 37 -3 7 -6 2 -7 -12z"/>
<path d="M44 175 c-3 -8 -4 -20 -2 -27 3 -7 7 -1 10 15 6 29 1 36 -8 12z"/>
<path d="M144 176 c-3 -8 -4 -21 -1 -28 3 -7 6 -2 7 12 l2 25 8 -25 c7 -23 8
-23 9 -3 1 27 -17 40 -25 19z"/>
<path d="M370 140 c0 -6 -5 -8 -11 -4 -8 4 -7 0 1 -15 6 -12 15 -19 21 -16 12
8 12 32 -1 40 -5 3 -10 1 -10 -5z"/>
<path d="M980 140 c0 -6 -5 -8 -11 -4 -8 4 -7 0 1 -15 6 -12 15 -19 21 -16 12
8 12 32 -1 40 -5 3 -10 1 -10 -5z"/>
<path d="M1586 134 c-8 -22 1 -31 16 -16 9 9 9 15 1 23 -7 7 -12 5 -17 -7z"/>
<path d="M2201 130 c14 -31 19 -36 19 -24 0 6 -7 19 -16 30 -14 18 -14 18 -3
-6z"/>
<path d="M294 97 c3 -10 6 -21 6 -23 0 -2 7 -4 15 -4 18 0 20 26 3 36 -8 5 -9
1 -5 -12 7 -18 6 -18 -9 1 -15 18 -16 18 -10 2z"/>
<path d="M900 101 c0 -10 22 -31 33 -31 16 0 2 33 -15 36 -10 1 -18 -1 -18 -5z"/>
<path d="M1525 100 c-4 -6 -3 -16 3 -22 6 -6 12 -6 17 2 4 6 3 16 -3 22 -6 6
-12 6 -17 -2z"/>
<path d="M2135 100 c-4 -6 -3 -16 3 -22 6 -6 12 -6 17 2 4 6 3 16 -3 22 -6 6
-12 6 -17 -2z"/>
<path d="M234 68 c-4 -7 -3 -8 4 -4 11 7 17 -6 13 -27 -1 -5 3 -6 8 -3 11 7 3
46 -10 46 -4 0 -11 -5 -15 -12z"/>
<path d="M844 68 c-4 -7 -3 -8 4 -4 8 5 12 -1 12 -14 0 -12 4 -19 9 -16 11 7
2 46 -10 46 -4 0 -11 -5 -15 -12z"/>
<path d="M1454 68 c-4 -7 -3 -8 4 -4 8 5 12 -1 12 -14 0 -12 4 -19 9 -16 11 7
2 46 -10 46 -4 0 -11 -5 -15 -12z"/>
<path d="M2075 70 c3 -5 8 -10 11 -10 2 0 4 5 4 10 0 6 -5 10 -11 10 -5 0 -7
-4 -4 -10z"/>
<path d="M2080 40 c0 -5 7 -7 15 -4 8 4 15 8 15 10 0 2 -7 4 -15 4 -8 0 -15
-4 -15 -10z"/>
</g>
</svg>
