<?xml version="1.0" standalone="no"?>
<!DOCTYPE svg PUBLIC "-//W3C//DTD SVG 20010904//EN"
 "http://www.w3.org/TR/2001/REC-SVG-20010904/DTD/svg10.dtd">
<svg version="1.0" xmlns="http://www.w3.org/2000/svg"
 width="288.000000pt" height="106.000000pt" viewBox="0 0 288.000000 106.000000"
 preserveAspectRatio="xMidYMid meet">
<metadata>
Created by potrace 1.16, written by Peter Selinger 2001-2019
</metadata>
<g transform="translate(0.000000,106.000000) scale(0.100000,-0.100000)"
fill="#000000" stroke="none">
<path d="M244 963 c1 -16 6 -26 11 -24 6 2 9 12 7 23 -2 13 3 18 22 18 18 0
25 -6 28 -22 4 -28 22 -30 25 -3 l3 20 -9 -20 c-9 -19 -10 -19 -10 2 l-1 23
1257 0 c691 0 1258 2 1261 5 3 3 -580 5 -1295 5 l-1300 0 1 -27z"/>
<path d="M64 965 c-3 -8 -3 -19 1 -25 11 -18 25 -11 25 15 0 27 -17 34 -26 10z
m13 -17 c-3 -8 -6 -5 -6 6 -1 11 2 17 5 13 3 -3 4 -12 1 -19z"/>
<path d="M174 955 c1 -25 20 -23 23 2 2 15 1 15 -6 -2 l-9 -20 -4 20 -5 20 1
-20z"/>
<path d="M420 898 c-1 -29 -7 -64 -15 -78 l-14 -25 -1 38 c0 28 -4 37 -17 37
-14 0 -15 -2 -4 -9 15 -10 11 -73 -9 -153 -8 -35 -15 -45 -27 -41 -12 5 -12 7
-1 14 10 7 9 9 -4 9 -22 0 -23 -8 -1 -32 16 -18 16 -19 -3 -13 -18 6 -18 6 -1
-5 17 -11 17 -13 2 -37 -10 -14 -14 -35 -11 -47 4 -17 -2 -30 -23 -50 -16 -16
-33 -27 -37 -27 -4 1 -10 -10 -11 -25 l-4 -26 25 28 25 29 1 -46 c0 -85 -11
-140 -29 -137 -11 2 -17 -5 -18 -22 l-2 -25 8 25 c8 23 9 22 10 -12 1 -20 -4
-40 -9 -43 -6 -3 -10 -21 -10 -38 0 -22 3 -28 9 -18 7 11 9 11 14 0 4 -10 6
-10 6 -1 1 6 10 12 21 12 11 0 20 -6 20 -12 0 -10 3 -9 9 1 7 11 9 11 14 0 4
-10 6 -10 6 -1 1 15 581 18 581 2 0 -5 7 -10 15 -10 8 0 15 5 15 10 0 6 133
10 380 10 297 0 380 -3 380 -12 0 -10 3 -9 9 1 7 11 9 11 14 0 4 -10 6 -10 6
-2 1 17 738 18 758 2 10 -9 13 -8 13 2 0 11 2 11 10 -1 6 -10 10 -11 10 -2 0
9 39 12 158 13 86 1 147 4 135 6 -23 4 -33 23 -13 23 6 0 10 6 10 14 0 10 -20
14 -87 15 -360 5 -1093 81 -1093 113 0 6 -10 8 -22 4 -28 -7 -210 37 -269 65
-75 37 -129 80 -129 105 0 12 6 25 13 27 7 3 5 6 -5 6 -12 1 -18 -6 -18 -20 0
-27 -24 -19 -28 9 -2 14 -11 22 -24 22 -30 0 -177 140 -178 169 0 18 -4 22
-19 18 -12 -3 -33 6 -54 24 -20 16 -59 40 -88 53 -28 14 -56 31 -60 38 -7 10
-9 10 -9 1 0 -7 -12 -13 -27 -13 -16 -1 -45 -7 -65 -14 -36 -13 -38 -12 -38 6
0 16 -5 19 -21 15 -11 -3 -36 1 -56 10 -20 8 -47 13 -60 10 -20 -4 -23 0 -23
29 0 27 -4 34 -20 34 -17 0 -20 -7 -20 -52z m30 8 c0 -19 -4 -38 -10 -41 -6
-4 -10 10 -10 34 0 23 5 41 10 41 6 0 10 -15 10 -34z m125 -62 c22 -14 33 -23
23 -20 -10 3 -18 -3 -23 -17 -7 -22 -7 -22 -15 3 l-8 25 -1 -28 c-1 -26 -33
-66 -53 -67 -4 0 -9 28 -11 63 -3 62 -3 62 -5 -15 -3 -104 -22 -113 -22 -10 0
43 3 82 7 85 15 15 70 5 108 -19z m-135 -178 c-7 -7 -10 18 -10 80 0 118 14
132 18 18 2 -51 -1 -91 -8 -98z m310 123 l0 -50 -27 20 c-73 54 -79 60 -63 71
8 5 32 10 53 10 l37 0 0 -51z m112 2 c93 -66 95 -70 82 -153 -8 -44 -23 -41
-25 5 -1 24 -3 26 -6 10 -5 -26 -23 -31 -23 -8 0 8 -3 14 -7 14 -28 -5 -33 4
-33 56 0 42 -3 55 -15 55 -10 0 -15 -11 -15 -35 0 -38 -13 -44 -42 -18 -13 12
-18 30 -18 69 l0 53 29 -9 c17 -4 49 -22 73 -39z m-214 -19 c2 -24 -1 -32 -12
-32 -12 0 -16 10 -16 36 0 45 24 42 28 -4z m-48 -576 c-7 -7 -10 87 -10 290 0
166 3 304 8 308 4 4 8 -126 10 -290 1 -192 -1 -301 -8 -308z m-180 520 c0 -41
-4 -78 -10 -81 -6 -4 -10 23 -10 74 0 47 4 81 10 81 6 0 10 -31 10 -74z m160
-231 c0 -190 -4 -295 -10 -295 -6 0 -10 103 -10 288 0 254 3 302 17 302 2 0 3
-133 3 -295z m130 262 l36 -32 -6 -260 -6 -260 -2 238 -2 238 -22 -3 -23 -3
-3 -237 c-1 -147 -6 -238 -12 -238 -6 0 -10 109 -10 295 0 162 3 295 8 295 4
0 23 -15 42 -33z m127 -54 c-2 -16 -4 -5 -4 22 0 28 2 40 4 28 2 -13 2 -35 0
-50z m-287 -230 c0 -183 -4 -273 -10 -263 -13 21 -13 540 0 540 6 0 10 -99 10
-277z m100 -4 c0 -177 -3 -268 -10 -264 -6 4 -10 105 -10 271 0 169 4 264 10
264 6 0 10 -97 10 -271z m-130 -5 c0 -174 -3 -263 -10 -259 -6 4 -10 101 -10
259 0 223 3 266 17 266 2 0 3 -120 3 -266z m-149 143 c-13 -13 -15 33 -3 84 6
32 7 30 10 -20 2 -30 -2 -59 -7 -64z m439 -164 l0 -243 -25 0 -25 0 0 260 0
261 25 -18 24 -18 1 -242z m157 185 c-2 -18 -4 -4 -4 32 0 36 2 50 4 33 2 -18
2 -48 0 -65z m87 -10 c-3 -4 0 -8 5 -8 6 0 11 -16 11 -36 0 -38 -19 -39 -21
-1 -1 17 -2 18 -6 5 -2 -10 -9 -18 -14 -18 -5 0 -9 8 -10 18 0 10 -3 12 -6 4
-2 -6 -9 -10 -14 -6 -13 8 -11 42 4 47 7 3 5 6 -5 6 -14 1 -18 10 -18 38 l0
37 40 -39 c21 -21 37 -42 34 -47z m-584 -406 c-6 -12 -9 60 -10 224 0 132 3
244 8 248 11 12 14 -452 2 -472z m240 229 c0 -143 -4 -232 -10 -236 -7 -4 -10
75 -10 229 0 151 4 236 10 236 6 0 10 -83 10 -229z m-260 -11 c0 -147 -4 -230
-10 -230 -6 0 -10 78 -10 214 0 192 4 246 16 246 2 0 4 -103 4 -230z m387
-107 c-1 -65 -3 -14 -3 112 0 127 2 180 3 118 2 -62 2 -165 0 -230z m43 95 c0
-148 -4 -218 -10 -208 -13 20 -13 430 0 430 6 0 10 -81 10 -222z m-460 -9 c0
-137 -3 -208 -10 -204 -6 4 -10 83 -10 204 0 174 3 211 17 211 2 0 3 -95 3
-211z m490 1 c0 -133 -4 -210 -10 -210 -6 0 -10 77 -10 210 0 133 4 210 10
210 6 0 10 -77 10 -210z m209 129 c-27 -27 -39 -16 -39 33 l0 42 29 -28 c29
-28 29 -28 10 -47z m-772 39 c-3 -8 -6 -5 -6 6 -1 11 2 17 5 13 3 -3 4 -12 1
-19z m593 -180 c0 -135 -4 -198 -10 -188 -13 20 -13 390 0 390 6 0 10 -74 10
-202z m-570 -192 c-12 -12 -14 331 -2 361 4 10 8 -65 10 -166 1 -116 -1 -188
-8 -195z m597 97 c-1 -54 -3 -12 -3 92 0 105 2 149 3 98 2 -51 2 -136 0 -190z
m43 71 c0 -114 -3 -173 -10 -169 -6 4 -10 75 -10 181 0 114 3 173 10 169 6 -4
10 -75 10 -181z m-660 -5 c0 -141 -2 -170 -13 -160 -10 8 -17 7 -25 -1 -9 -9
-12 12 -11 92 1 58 4 95 6 82 5 -28 27 -24 31 6 2 15 -2 22 -12 22 -20 0 -21
39 -2 46 10 4 14 16 11 37 -4 29 0 47 11 47 2 0 4 -77 4 -171z m690 1 c0 -107
-4 -170 -10 -170 -6 0 -10 63 -10 170 0 107 4 170 10 170 6 0 10 -63 10 -170z
m100 155 c0 -8 -4 -15 -10 -15 -5 0 -10 7 -10 15 0 8 5 15 10 15 6 0 10 -7 10
-15z m30 -16 c0 -11 -4 -17 -10 -14 -5 3 -10 15 -10 26 0 11 5 17 10 14 6 -3
10 -15 10 -26z m-100 -144 c0 -92 -4 -156 -10 -160 -7 -4 -10 52 -10 160 0
108 3 164 10 160 6 -4 10 -68 10 -160z m125 145 c3 -5 1 -10 -4 -10 -6 0 -11
5 -11 10 0 6 2 10 4 10 3 0 8 -4 11 -10z m-85 -166 c0 -94 -4 -143 -10 -139
-6 4 -10 63 -10 146 0 86 4 139 10 139 6 0 10 -55 10 -146z m30 1 c0 -90 -4
-145 -10 -145 -6 0 -10 55 -10 145 0 90 4 145 10 145 6 0 10 -55 10 -145z
m130 109 c0 -2 -11 2 -25 8 -14 6 -25 15 -25 20 0 5 11 1 25 -8 14 -9 25 -18
25 -20z m-100 -108 c0 -79 -4 -137 -10 -141 -6 -4 -10 43 -10 134 0 87 4 141
10 141 6 0 10 -51 10 -134z m40 -17 c0 -84 -4 -128 -10 -124 -13 8 -13 255 0
255 6 0 10 -50 10 -131z m43 107 c14 -11 17 -29 17 -109 0 -109 -4 -127 -31
-127 -18 0 -19 9 -19 125 0 69 3 125 8 125 4 0 15 -7 25 -14z m44 -173 c-2
-32 -3 -8 -3 52 0 61 1 87 3 58 2 -29 2 -78 0 -110z m43 39 c0 -73 -3 -102
-10 -92 -13 20 -13 213 0 205 6 -4 10 -52 10 -113z m30 -2 c0 -60 -4 -100 -10
-100 -6 0 -10 40 -10 100 0 60 4 100 10 100 6 0 10 -40 10 -100z m32 -10 c-2
-50 -8 -90 -13 -90 -5 0 -9 43 -9 95 0 71 3 93 13 90 9 -4 11 -30 9 -95z m25
-42 c-2 -24 -4 -5 -4 42 0 47 2 66 4 43 2 -24 2 -62 0 -85z m80 116 c-3 -3
-12 -4 -19 -1 -8 3 -5 6 6 6 11 1 17 -2 13 -5z m96 -18 c25 -6 39 -26 17 -26
-5 0 -10 5 -10 10 0 6 -13 10 -29 10 -17 0 -33 5 -37 11 -4 7 0 9 12 6 11 -3
31 -8 47 -11z m-118 -2 c18 -4 20 -12 17 -74 -3 -66 -5 -70 -28 -70 -23 0 -24
2 -24 75 0 41 3 75 8 75 4 0 16 -3 27 -6z m233 -31 c11 -11 11 -13 -1 -13 -36
0 -77 14 -77 26 0 17 58 7 78 -13z m-191 -75 c-2 -18 -4 -4 -4 32 0 36 2 50 4
33 2 -18 2 -48 0 -65z m43 21 c0 -37 -4 -58 -10 -54 -5 3 -10 31 -10 61 0 30
5 54 10 54 6 0 10 -27 10 -61z m263 46 c22 -4 37 -11 37 -20 0 -11 -6 -12 -23
-6 -13 5 -30 9 -38 9 -46 -3 -69 3 -69 18 0 12 7 14 28 10 15 -2 44 -7 65 -11z
m-233 -50 c0 -30 -4 -55 -10 -55 -5 0 -10 25 -10 55 0 30 5 55 10 55 6 0 10
-25 10 -55z m30 1 c0 -25 -4 -48 -10 -51 -6 -4 -10 13 -10 44 0 28 5 51 10 51
6 0 10 -20 10 -44z m425 23 c145 -15 162 -26 33 -22 -57 2 -104 7 -105 11 -2
4 -25 5 -53 4 -42 -3 -50 -1 -50 13 0 14 6 16 33 11 17 -3 82 -10 142 -17z
m-1765 -14 c0 -14 -4 -25 -9 -25 -4 0 -6 11 -3 25 2 14 6 25 8 25 2 0 4 -11 4
-25z m1380 -22 c0 -35 -3 -44 -10 -33 -13 20 -13 80 0 80 6 0 10 -21 10 -47z
m30 -4 c0 -21 -4 -39 -10 -39 -5 0 -10 21 -10 46 0 27 4 43 10 39 6 -3 10 -24
10 -46z m30 7 c0 -49 -16 -53 -18 -5 -2 22 2 39 8 39 5 0 10 -15 10 -34z m27
-23 c-3 -10 -5 -2 -5 17 0 19 2 27 5 18 2 -10 2 -26 0 -35z m43 11 c0 -21 -4
-33 -10 -29 -5 3 -10 19 -10 36 0 16 5 29 10 29 6 0 10 -16 10 -36z m30 -4 c0
-16 -4 -30 -10 -30 -5 0 -10 14 -10 30 0 17 5 30 10 30 6 0 10 -13 10 -30z
m30 6 c0 -14 -4 -28 -10 -31 -6 -4 -10 7 -10 24 0 17 5 31 10 31 6 0 10 -11
10 -24z m420 14 c11 -8 7 -9 -15 -4 -37 8 -45 14 -19 14 10 0 26 -5 34 -10z
m47 4 c-3 -3 -12 -4 -19 -1 -8 3 -5 6 6 6 11 1 17 -2 13 -5z m-427 -30 c0 -14
-4 -23 -10 -19 -5 3 -10 15 -10 26 0 10 5 19 10 19 6 0 10 -12 10 -26z m30 1
c0 -14 -4 -25 -10 -25 -5 0 -10 11 -10 25 0 14 5 25 10 25 6 0 10 -11 10 -25z
m30 6 c0 -11 -4 -23 -10 -26 -6 -4 -10 5 -10 19 0 14 5 26 10 26 6 0 10 -9 10
-19z m523 12 c-7 -2 -21 -2 -30 0 -10 3 -4 5 12 5 17 0 24 -2 18 -5z m-483
-24 c0 -11 -4 -17 -10 -14 -5 3 -10 13 -10 21 0 8 5 14 10 14 6 0 10 -9 10
-21z m30 1 c0 -11 -4 -20 -10 -20 -5 0 -10 9 -10 20 0 11 5 20 10 20 6 0 10
-9 10 -20z m30 13 c0 -5 -5 -15 -10 -23 -8 -12 -10 -11 -10 8 0 12 5 22 10 22
6 0 10 -3 10 -7z m70 -13 c0 -5 -4 -10 -10 -10 -5 0 -10 5 -10 10 0 6 5 10 10
10 6 0 10 -4 10 -10z m30 -5 c0 -8 -4 -15 -10 -15 -5 0 -10 7 -10 15 0 8 5 15
10 15 6 0 10 -7 10 -15z m30 0 c0 -8 -4 -15 -10 -15 -5 0 -10 7 -10 15 0 8 5
15 10 15 6 0 10 -7 10 -15z m91 5 c5 0 9 -4 9 -10 0 -5 -11 -10 -25 -10 -16 0
-25 6 -25 16 0 11 5 14 16 10 9 -3 20 -6 25 -6z m79 -10 c0 -5 -2 -10 -4 -10
-3 0 -8 5 -11 10 -3 6 -1 10 4 10 6 0 11 -4 11 -10z m30 0 c0 -5 -4 -10 -10
-10 -5 0 -10 5 -10 10 0 6 5 10 10 10 6 0 10 -4 10 -10z m30 6 c0 -3 -4 -8
-10 -11 -5 -3 -10 -1 -10 4 0 6 5 11 10 11 6 0 10 -2 10 -4z m70 -6 c0 -5 -4
-10 -10 -10 -5 0 -10 5 -10 10 0 6 5 10 10 10 6 0 10 -4 10 -10z m100 0 c0 -5
-2 -10 -4 -10 -3 0 -8 5 -11 10 -3 6 -1 10 4 10 6 0 11 -4 11 -10z m30 0 c0
-5 -4 -10 -10 -10 -5 0 -10 5 -10 10 0 6 5 10 10 10 6 0 10 -4 10 -10z m30 6
c0 -3 -4 -8 -10 -11 -5 -3 -10 -1 -10 4 0 6 5 11 10 11 6 0 10 -2 10 -4z m70
-6 c0 -5 -4 -10 -10 -10 -5 0 -10 5 -10 10 0 6 5 10 10 10 6 0 10 -4 10 -10z
m30 0 c0 -5 -4 -10 -10 -10 -5 0 -10 5 -10 10 0 6 5 10 10 10 6 0 10 -4 10
-10z"/>
<path d="M319 308 c-8 -16 -3 -48 6 -48 7 0 12 11 11 25 -1 20 -11 34 -17 23z"/>
<path d="M2235 940 l560 -5 0 -185 0 -185 -560 -5 -560 -5 568 -3 567 -2 0
188 c0 133 -4 192 -12 200 -9 9 -146 11 -568 10 l-555 -3 560 -5z"/>
<path d="M1664 755 c0 -99 2 -138 3 -87 2 51 2 132 0 180 -1 48 -3 6 -3 -93z"/>
<path d="M1949 907 c-1 -1 -3 -14 -5 -29 -3 -26 0 -28 32 -28 31 0 34 3 34 28
0 25 -4 29 -30 30 -16 0 -31 0 -31 -1z m31 -17 c13 -8 13 -10 -2 -10 -9 0 -20
5 -23 10 -8 13 5 13 25 0z m-3 -26 c-3 -3 -12 -4 -19 -1 -8 3 -5 6 6 6 11 1
17 -2 13 -5z"/>
<path d="M2020 878 c0 -26 3 -30 11 -18 8 11 12 12 16 3 9 -23 22 -13 20 15
-2 20 -8 28 -25 30 -19 3 -22 -1 -22 -30z m30 12 c0 -5 -4 -10 -10 -10 -5 0
-10 5 -10 10 0 6 5 10 10 10 6 0 10 -4 10 -10z"/>
<path d="M2089 908 c-1 -2 -3 -15 -5 -30 -2 -24 1 -28 22 -28 15 0 24 6 24 15
0 8 -6 15 -14 15 -8 0 -18 5 -22 11 -4 8 1 9 16 4 15 -5 20 -4 16 4 -6 9 -34
16 -37 9z m28 -44 c-3 -3 -12 -4 -19 -1 -8 3 -5 6 6 6 11 1 17 -2 13 -5z"/>
<path d="M2302 895 c-8 -10 -22 -12 -42 -8 -25 5 -30 2 -30 -14 0 -19 7 -20
71 -20 43 0 66 3 57 8 -10 7 -9 9 5 9 9 0 17 -4 17 -10 0 -5 5 -10 10 -10 6 0
10 14 10 30 0 17 -4 30 -10 30 -5 0 -10 -6 -10 -12 0 -7 -11 -13 -25 -13 -14
0 -25 6 -25 13 0 16 -12 15 -28 -3z m-42 -25 c0 -5 -4 -10 -10 -10 -5 0 -10 5
-10 10 0 6 5 10 10 10 6 0 10 -4 10 -10z"/>
<path d="M64 875 c-4 -9 -4 -19 0 -22 3 -4 6 2 7 13 1 15 3 13 9 -6 7 -23 8
-23 9 -3 1 27 -17 40 -25 18z"/>
<path d="M174 876 c-3 -8 -4 -21 -1 -28 3 -7 6 -2 7 12 l2 25 8 -25 c7 -23 8
-23 9 -3 1 27 -17 40 -25 19z"/>
<path d="M243 877 c0 -7 7 -19 15 -26 12 -11 13 -10 10 10 -3 24 -25 38 -25
16z"/>
<path d="M317 883 c-11 -11 -8 -21 9 -27 14 -5 15 -4 5 8 -9 11 -9 15 1 19 7
3 8 6 2 6 -6 1 -14 -2 -17 -6z"/>
<path d="M1720 880 c0 -6 28 -10 65 -10 37 0 65 4 65 10 0 6 -28 10 -65 10
-37 0 -65 -4 -65 -10z"/>
<path d="M2161 868 c0 -22 1 -22 9 -3 7 17 9 17 9 3 1 -10 6 -18 11 -18 6 0
10 8 11 18 0 14 2 14 9 -3 8 -19 9 -19 9 3 1 18 -4 22 -29 22 -25 0 -30 -4
-29 -22z"/>
<path d="M64 775 c-3 -8 -3 -19 1 -25 11 -18 25 -11 25 15 0 27 -17 34 -26 10z
m13 -17 c-3 -8 -6 -5 -6 6 -1 11 2 17 5 13 3 -3 4 -12 1 -19z"/>
<path d="M174 765 c1 -25 20 -23 23 2 2 15 1 15 -6 -2 l-9 -20 -4 20 -5 20 1
-20z"/>
<path d="M243 775 c0 -8 5 -15 11 -15 6 0 4 -5 -4 -10 -9 -6 -10 -10 -3 -10
17 0 24 15 17 34 -8 20 -21 21 -21 1z"/>
<path d="M314 765 c1 -25 20 -23 23 2 2 15 1 15 -6 -2 l-9 -20 -4 20 -5 20 1
-20z"/>
<path d="M1942 760 c0 -19 2 -27 5 -17 2 9 2 25 0 35 -3 9 -5 1 -5 -18z"/>
<path d="M2352 760 c0 -19 2 -27 5 -17 2 9 2 25 0 35 -3 9 -5 1 -5 -18z"/>
<path d="M2550 780 c0 -5 -7 -10 -15 -10 -8 0 -15 -9 -15 -20 0 -13 7 -20 20
-20 16 0 20 7 20 30 0 17 -2 30 -5 30 -3 0 -5 -4 -5 -10z m0 -30 c0 -5 -4 -10
-10 -10 -5 0 -10 5 -10 10 0 6 5 10 10 10 6 0 10 -4 10 -10z"/>
<path d="M2622 760 c0 -19 2 -27 5 -17 2 9 2 25 0 35 -3 9 -5 1 -5 -18z"/>
<path d="M1720 760 c0 -6 28 -10 65 -10 37 0 65 4 65 10 0 6 -28 10 -65 10
-37 0 -65 -4 -65 -10z"/>
<path d="M1960 748 c0 -17 5 -19 27 -15 35 7 60 -2 41 -14 -10 -7 -8 -9 5 -9
11 0 21 9 24 20 3 11 10 20 17 20 6 0 5 4 -3 9 -7 5 -35 9 -62 9 -42 0 -49 -3
-49 -20z m30 2 c0 -5 -4 -10 -10 -10 -5 0 -10 5 -10 10 0 6 5 10 10 10 6 0 10
-4 10 -10z"/>
<path d="M2090 750 c0 -25 20 -27 21 -2 0 14 2 14 9 -3 8 -19 9 -19 9 3 1 16
-5 22 -19 22 -13 0 -20 -7 -20 -20z"/>
<path d="M2144 759 c-10 -16 6 -28 35 -27 19 1 31 7 34 18 4 15 -2 18 -29 18
-19 0 -37 -4 -40 -9z"/>
<path d="M2231 748 c0 -22 1 -22 9 -3 7 17 9 17 9 3 1 -10 6 -18 11 -18 6 0
10 8 11 18 0 14 2 14 9 -3 8 -19 9 -19 9 3 1 18 -4 22 -29 22 -25 0 -30 -4
-29 -22z"/>
<path d="M2316 755 c16 -13 16 -14 2 -9 -10 3 -18 1 -18 -5 0 -6 9 -11 20 -11
13 0 20 7 20 20 0 14 -7 20 -22 20 -21 0 -21 0 -2 -15z"/>
<path d="M2390 750 c0 -25 20 -27 21 -2 0 14 2 14 9 -3 7 -17 9 -17 9 -2 1 9
5 17 10 17 5 0 12 -8 14 -17 4 -14 5 -12 6 5 1 19 -4 22 -34 22 -28 0 -35 -4
-35 -20z"/>
<path d="M2470 750 c0 -13 7 -20 20 -20 13 0 20 7 20 20 0 13 -7 20 -20 20
-13 0 -20 -7 -20 -20z m30 0 c0 -5 -4 -10 -10 -10 -5 0 -10 5 -10 10 0 6 5 10
10 10 6 0 10 -4 10 -10z"/>
<path d="M2570 750 c0 -14 6 -20 23 -19 21 0 21 1 2 9 -17 7 -17 9 -2 9 24 1
22 21 -3 21 -13 0 -20 -7 -20 -20z"/>
<path d="M64 675 c-3 -8 -3 -19 1 -25 11 -18 25 -11 25 15 0 27 -17 34 -26 10z
m13 -17 c-3 -8 -6 -5 -6 6 -1 11 2 17 5 13 3 -3 4 -12 1 -19z"/>
<path d="M174 665 c1 -25 20 -23 23 2 2 15 1 15 -6 -2 l-9 -20 -4 20 -5 20 1
-20z"/>
<path d="M249 681 c9 -6 10 -11 2 -15 -17 -11 -13 -26 7 -26 13 0 14 2 3 9 -9
6 -10 11 -2 15 13 9 5 26 -12 26 -8 0 -8 -3 2 -9z"/>
<path d="M1777 663 c80 -4 82 -4 86 -31 4 -25 4 -24 6 6 l1 32 -87 -2 -88 -2
82 -3z"/>
<path d="M1944 655 c-9 -23 3 -45 26 -45 11 0 20 7 20 15 0 8 -5 15 -11 15 -5
0 -7 -5 -3 -11 4 -7 1 -10 -7 -7 -20 7 -17 33 4 32 9 -1 17 2 17 7 0 15 -40
10 -46 -6z"/>
<path d="M2162 640 c0 -19 2 -27 5 -17 2 9 2 25 0 35 -3 9 -5 1 -5 -18z"/>
<path d="M2250 640 c0 -16 5 -30 10 -30 6 0 10 14 10 30 0 17 -4 30 -10 30 -5
0 -10 -13 -10 -30z"/>
<path d="M2452 640 c0 -19 2 -27 5 -17 2 9 9 17 14 17 5 0 9 -8 10 -17 0 -15
2 -15 9 2 7 17 9 17 9 3 1 -13 9 -18 30 -18 24 0 29 4 28 21 -1 14 -7 19 -19
16 -10 -3 -22 2 -28 11 -5 10 -10 12 -10 5 0 -7 -9 -13 -19 -13 -11 0 -22 6
-24 13 -3 6 -5 -4 -5 -23z m88 -16 c0 -2 -7 -4 -15 -4 -8 0 -15 4 -15 10 0 5
7 7 15 4 8 -4 15 -8 15 -10z"/>
<path d="M2606 650 c-21 -21 -14 -40 15 -40 14 0 19 7 19 30 0 34 -7 37 -34
10z"/>
<path d="M2698 660 c-10 -30 3 -50 33 -50 22 0 29 5 29 20 0 14 -7 20 -24 20
-13 0 -26 6 -28 13 -3 8 -6 8 -10 -3z m46 -28 c2 -4 -4 -8 -15 -8 -10 0 -19 4
-19 8 0 10 27 10 34 0z"/>
<path d="M2004 639 c-11 -18 7 -27 49 -26 30 2 42 6 42 17 0 11 -12 15 -42 17
-24 0 -45 -3 -49 -8z"/>
<path d="M2110 630 c0 -12 7 -20 18 -21 15 0 14 -2 -3 -10 l-20 -9 20 3 c14 1
21 11 23 30 3 22 -1 27 -17 27 -14 0 -21 -6 -21 -20z m25 0 c3 -5 1 -10 -4
-10 -6 0 -11 5 -11 10 0 6 2 10 4 10 3 0 8 -4 11 -10z"/>
<path d="M2180 630 c0 -14 6 -20 23 -19 21 0 21 1 2 9 -17 7 -17 9 -2 9 24 1
22 21 -3 21 -13 0 -20 -7 -20 -20z"/>
<path d="M2281 627 c0 -21 1 -21 9 -2 7 17 9 17 9 3 1 -13 9 -18 30 -18 23 0
29 4 28 19 -1 15 -9 19 -39 19 -33 1 -38 -2 -37 -21z"/>
<path d="M2370 628 c0 -10 6 -18 13 -17 6 1 19 1 27 0 13 -1 13 -2 0 -12 -12
-8 -12 -10 5 -7 13 2 21 12 23 30 3 26 1 27 -32 26 -28 -1 -36 -5 -36 -20z"/>
<path d="M2661 633 c10 -11 10 -14 2 -9 -7 4 -13 2 -13 -3 0 -6 7 -11 15 -11
8 0 15 9 15 20 0 12 -7 20 -16 20 -14 0 -15 -2 -3 -17z"/>
<path d="M64 585 c-4 -9 -4 -19 0 -22 3 -4 6 2 7 13 1 15 3 13 9 -6 7 -23 8
-23 9 -3 1 27 -17 40 -25 18z"/>
<path d="M174 586 c-3 -8 -4 -21 -1 -28 3 -7 6 -2 7 12 l2 25 8 -25 c7 -23 8
-23 9 -3 1 27 -17 40 -25 19z"/>
<path d="M249 598 c-7 -17 -4 -48 5 -48 14 0 18 37 5 45 -5 4 -10 5 -10 3z"/>
<path d="M64 485 c-4 -9 -4 -19 0 -22 3 -4 6 2 7 13 1 15 3 13 9 -6 7 -23 8
-23 9 -3 1 27 -17 40 -25 18z"/>
<path d="M174 486 c-3 -8 -4 -21 -1 -28 3 -7 6 -2 7 12 l2 25 8 -25 c7 -23 8
-23 9 -3 1 27 -17 40 -25 19z"/>
<path d="M64 385 c-3 -8 -3 -19 1 -25 11 -18 25 -11 25 15 0 27 -17 34 -26 10z
m13 -17 c-3 -8 -6 -5 -6 6 -1 11 2 17 5 13 3 -3 4 -12 1 -19z"/>
<path d="M174 375 c1 -25 20 -23 23 2 2 15 1 15 -6 -2 l-9 -20 -4 20 -5 20 1
-20z"/>
<path d="M245 375 c0 -14 3 -25 8 -25 4 0 7 11 7 25 0 14 -3 25 -7 25 -5 0 -8
-11 -8 -25z"/>
<path d="M64 295 c-4 -9 -4 -19 0 -22 3 -4 6 2 7 13 1 15 3 13 9 -6 7 -23 8
-23 9 -3 1 27 -17 40 -25 18z"/>
<path d="M174 296 c-3 -8 -4 -21 -1 -28 3 -7 6 -2 7 12 l2 25 8 -25 c7 -23 8
-23 9 -3 1 27 -17 40 -25 19z"/>
<path d="M64 195 c-4 -9 -4 -19 0 -22 3 -4 6 2 7 13 1 15 3 13 9 -6 7 -23 8
-23 9 -3 1 27 -17 40 -25 18z"/>
<path d="M174 196 c-3 -8 -4 -21 -1 -28 3 -7 6 -2 7 12 l2 25 8 -25 c7 -23 8
-23 9 -3 1 27 -17 40 -25 19z"/>
<path d="M466 163 c-10 -11 -7 -31 7 -36 7 -3 13 3 14 14 2 20 -10 33 -21 22z"/>
<path d="M850 156 c0 -7 6 -19 14 -25 19 -16 32 5 16 24 -16 19 -30 19 -30 1z
m30 -17 c0 -6 -4 -7 -10 -4 -5 3 -10 11 -10 16 0 6 5 7 10 4 6 -3 10 -11 10
-16z"/>
<path d="M1256 154 c-8 -22 1 -31 16 -16 9 9 9 15 1 23 -7 7 -12 5 -17 -7z"/>
<path d="M1640 156 c0 -7 6 -19 14 -25 19 -16 32 5 16 24 -16 19 -30 19 -30 1z
m30 -17 c0 -6 -4 -7 -10 -4 -5 3 -10 11 -10 16 0 6 5 7 10 4 6 -3 10 -11 10
-16z"/>
<path d="M2046 154 c-8 -22 1 -31 16 -16 9 9 9 15 1 23 -7 7 -12 5 -17 -7z"/>
<path d="M2440 160 c0 -8 5 -22 10 -30 9 -13 10 -13 10 0 0 8 -5 22 -10 30 -9
13 -10 13 -10 0z"/>
<path d="M405 120 c-4 -6 -3 -16 3 -22 6 -6 12 -6 17 2 4 6 3 16 -3 22 -6 6
-12 6 -17 -2z"/>
<path d="M790 118 c0 -9 5 -20 10 -23 13 -8 13 5 0 25 -8 13 -10 13 -10 -2z"/>
<path d="M810 125 c0 -5 5 -17 10 -25 5 -8 10 -10 10 -5 0 6 -5 17 -10 25 -5
8 -10 11 -10 5z"/>
<path d="M1195 120 c-4 -6 -3 -16 3 -22 6 -6 12 -6 17 2 4 6 3 16 -3 22 -6 6
-12 6 -17 -2z"/>
<path d="M1580 116 c0 -8 5 -18 12 -22 8 -5 9 -2 4 11 -5 15 -4 16 9 5 13 -11
14 -10 9 4 -8 20 -34 21 -34 2z"/>
<path d="M1985 120 c-4 -6 -3 -16 3 -22 6 -6 12 -6 17 2 4 6 3 16 -3 22 -6 6
-12 6 -17 -2z"/>
<path d="M2370 116 c0 -8 5 -18 12 -22 8 -5 9 -2 4 11 -5 15 -4 16 9 5 13 -11
14 -10 9 4 -8 20 -34 21 -34 2z"/>
<path d="M345 90 c3 -5 8 -10 11 -10 2 0 4 5 4 10 0 6 -5 10 -11 10 -5 0 -7
-4 -4 -10z"/>
<path d="M730 96 c0 -2 7 -7 16 -10 8 -3 12 -2 9 4 -6 10 -25 14 -25 6z"/>
<path d="M1124 88 c-4 -7 -3 -8 4 -4 8 5 12 -1 12 -14 0 -12 4 -19 9 -16 11 7
2 46 -10 46 -4 0 -11 -5 -15 -12z"/>
<path d="M1914 88 c-4 -7 -3 -8 4 -4 8 5 12 -1 12 -14 0 -12 4 -19 9 -16 11 7
2 46 -10 46 -4 0 -11 -5 -15 -12z"/>
<path d="M1546 63 c-6 -14 -5 -15 5 -6 7 7 10 15 7 18 -3 3 -9 -2 -12 -12z"/>
<path d="M2336 63 c-6 -14 -5 -15 5 -6 7 7 10 15 7 18 -3 3 -9 -2 -12 -12z"/>
<path d="M350 60 c0 -5 7 -7 15 -4 8 4 15 8 15 10 0 2 -7 4 -15 4 -8 0 -15 -4
-15 -10z"/>
</g>
</svg>
