<?xml version="1.0" standalone="no"?>
<!DOCTYPE svg PUBLIC "-//W3C//DTD SVG 20010904//EN"
 "http://www.w3.org/TR/2001/REC-SVG-20010904/DTD/svg10.dtd">
<svg version="1.0" xmlns="http://www.w3.org/2000/svg"
 width="506.000000pt" height="249.000000pt" viewBox="0 0 506.000000 249.000000"
 preserveAspectRatio="xMidYMid meet">
<metadata>
Created by potrace 1.16, written by Peter Selinger 2001-2019
</metadata>
<g transform="translate(0.000000,249.000000) scale(0.100000,-0.100000)"
fill="#000000" stroke="none">
<path d="M1100 2268 c0 -3 7 -19 15 -34 8 -16 15 -22 15 -14 -1 8 -7 24 -15
34 -8 11 -15 17 -15 14z"/>
<path d="M1258 2240 c-3 -16 -1 -30 4 -30 4 0 8 14 8 30 0 17 -2 30 -4 30 -2
0 -6 -13 -8 -30z"/>
<path d="M1312 2240 c0 -19 2 -27 5 -17 2 9 2 25 0 35 -3 9 -5 1 -5 -18z"/>
<path d="M1342 2240 c0 -19 2 -27 5 -17 2 9 2 25 0 35 -3 9 -5 1 -5 -18z"/>
<path d="M1512 2240 c0 -19 2 -27 5 -17 2 9 2 25 0 35 -3 9 -5 1 -5 -18z"/>
<path d="M1682 2240 c0 -19 2 -27 5 -17 2 9 2 25 0 35 -3 9 -5 1 -5 -18z"/>
<path d="M3540 2258 c0 -8 7 -21 15 -28 19 -16 19 -1 0 24 -12 16 -15 17 -15
4z"/>
<path d="M3582 2240 c0 -19 2 -27 5 -17 2 9 2 25 0 35 -3 9 -5 1 -5 -18z"/>
<path d="M3621 2243 c-1 -21 4 -33 12 -33 7 0 18 15 25 33 10 29 10 30 -3 13
-8 -11 -16 -25 -16 -30 -1 -6 -5 3 -9 19 l-8 30 -1 -32z"/>
<path d="M3701 2260 c0 -8 4 -24 9 -35 5 -13 9 -14 9 -5 0 8 -4 24 -9 35 -5
13 -9 14 -9 5z"/>
<path d="M3732 2240 c0 -19 2 -27 5 -17 2 9 2 25 0 35 -3 9 -5 1 -5 -18z"/>
<path d="M3801 2246 c-1 -28 -2 -29 -16 -10 -12 16 -14 17 -15 3 0 -16 28 -35
37 -25 3 2 3 17 0 33 l-4 28 -2 -29z"/>
<path d="M3882 2240 c0 -19 2 -27 5 -17 2 9 2 25 0 35 -3 9 -5 1 -5 -18z"/>
<path d="M1432 2235 c0 -16 2 -22 5 -12 2 9 2 23 0 30 -3 6 -5 -1 -5 -18z"/>
<path d="M1637 2253 c-3 -5 -1 -17 4 -28 7 -17 8 -17 8 8 1 27 -4 34 -12 20z"/>
<path d="M1748 2235 c-3 -14 -1 -25 3 -25 5 0 9 11 9 25 0 14 -2 25 -4 25 -2
0 -6 -11 -8 -25z"/>
<path d="M3932 2235 c0 -16 2 -22 5 -12 2 9 2 23 0 30 -3 6 -5 -1 -5 -18z"/>
<path d="M4182 2235 c0 -16 2 -22 5 -12 2 9 2 23 0 30 -3 6 -5 -1 -5 -18z"/>
<path d="M4292 2235 c0 -16 2 -22 5 -12 2 9 2 23 0 30 -3 6 -5 -1 -5 -18z"/>
<path d="M1231 2234 c0 -11 3 -14 6 -6 3 7 2 16 -1 19 -3 4 -6 -2 -5 -13z"/>
<path d="M1285 2240 c-3 -5 -1 -10 4 -10 6 0 11 5 11 10 0 6 -2 10 -4 10 -3 0
-8 -4 -11 -10z"/>
<path d="M1590 2240 c-13 -8 -13 -11 -1 -22 10 -10 12 -10 7 0 -9 15 6 16 21
1 9 -9 11 -7 9 7 -3 22 -16 27 -36 14z"/>
<path d="M1710 2243 c0 -5 5 -15 10 -23 7 -12 9 -10 7 8 -1 19 -17 33 -17 15z"/>
<path d="M3751 2234 c0 -11 3 -14 6 -6 3 7 2 16 -1 19 -3 4 -6 -2 -5 -13z"/>
<path d="M3825 2240 c-3 -5 -1 -10 4 -10 6 0 11 5 11 10 0 6 -2 10 -4 10 -3 0
-8 -4 -11 -10z"/>
<path d="M4120 2232 c0 -12 4 -22 9 -22 10 0 9 26 -2 36 -4 4 -7 -2 -7 -14z"/>
<path d="M4317 2230 c-3 -11 -1 -20 4 -20 5 0 9 9 9 20 0 11 -2 20 -4 20 -2 0
-6 -9 -9 -20z"/>
<path d="M1170 2229 c0 -5 5 -7 10 -4 6 3 10 8 10 11 0 2 -4 4 -10 4 -5 0 -10
-5 -10 -11z"/>
<path d="M3977 2227 c-3 -8 3 -14 16 -15 12 0 17 2 12 6 -6 4 -13 11 -16 15
-4 4 -9 2 -12 -6z"/>
<path d="M4232 2224 c-7 -8 -8 -14 -3 -14 10 0 25 19 20 25 -2 1 -10 -3 -17
-11z"/>
<path d="M1770 2220 c0 -5 5 -10 11 -10 5 0 7 5 4 10 -3 6 -8 10 -11 10 -2 0
-4 -4 -4 -10z"/>
<path d="M4260 2220 c0 -5 5 -10 11 -10 5 0 7 5 4 10 -3 6 -8 10 -11 10 -2 0
-4 -4 -4 -10z"/>
<path d="M422 2138 c-1 -26 1 -30 9 -15 6 10 6 23 1 33 -7 12 -9 8 -10 -18z"/>
<path d="M2947 2155 c-4 -8 -3 -16 1 -19 4 -3 9 4 9 15 2 23 -3 25 -10 4z"/>
<path d="M452 2140 c0 -14 2 -19 5 -12 2 6 2 18 0 25 -3 6 -5 1 -5 -13z"/>
<path d="M470 2140 c0 -19 3 -21 12 -12 9 9 9 15 0 24 -9 9 -12 7 -12 -12z"/>
<path d="M2994 2149 c-3 -6 -1 -16 5 -22 8 -8 11 -5 11 11 0 24 -5 28 -16 11z"/>
<path d="M3022 2140 c0 -14 2 -19 5 -12 2 6 2 18 0 25 -3 6 -5 1 -5 -13z"/>
<path d="M2185 2089 c-167 -107 -272 -198 -594 -518 -280 -279 -421 -402 -562
-495 -115 -76 -263 -153 -369 -190 -41 -15 -81 -29 -89 -32 -8 -2 -12 -7 -9
-10 9 -8 217 74 306 121 217 116 355 229 731 599 357 351 420 404 667 563 11
6 15 12 9 12 -5 1 -46 -22 -90 -50z"/>
<path d="M4625 1999 c-378 -286 -716 -567 -1130 -939 -77 -69 -176 -156 -219
-193 -84 -71 -177 -124 -197 -111 -8 5 -9 3 -4 -5 20 -33 115 25 283 174 64
57 196 173 291 259 96 85 179 153 183 150 4 -3 8 1 8 8 1 14 215 195 449 381
75 59 144 115 154 124 16 15 19 16 28 3 9 -13 10 -12 6 2 -4 11 12 30 54 63
32 25 59 43 59 38 0 -4 7 3 16 15 8 12 20 20 25 17 5 -4 9 -2 9 4 0 16 99 83
111 75 7 -4 9 -3 6 3 -8 13 18 37 31 29 5 -3 9 1 9 9 0 8 -3 15 -6 15 -3 0
-78 -55 -166 -121z"/>
<path d="M620 2070 c0 -16 2 -30 4 -30 2 0 6 14 8 30 3 17 1 30 -4 30 -4 0 -8
-13 -8 -30z"/>
<path d="M792 2070 c0 -19 2 -27 5 -17 2 9 2 25 0 35 -3 9 -5 1 -5 -18z"/>
<path d="M3128 2093 c6 -2 18 -2 25 0 6 3 1 5 -13 5 -14 0 -19 -2 -12 -5z"/>
<path d="M3332 2063 l1 -38 4 33 c3 25 8 32 19 28 9 -3 12 -1 9 4 -3 6 -13 10
-21 10 -10 0 -14 -11 -12 -37z"/>
<path d="M750 2079 c0 -6 -8 -8 -17 -5 -10 3 -25 1 -33 -4 -13 -8 -13 -11 -1
-22 10 -10 12 -10 7 0 -4 6 -2 12 3 12 6 0 11 -4 11 -10 0 -5 5 -10 11 -10 5
0 7 5 4 10 -3 6 -2 10 4 10 5 0 12 -6 14 -12 3 -7 6 -1 6 15 1 15 -1 27 -4 27
-3 0 -5 -5 -5 -11z"/>
<path d="M862 2065 c0 -16 2 -22 5 -12 2 9 2 23 0 30 -3 6 -5 -1 -5 -18z"/>
<path d="M3292 2060 c0 -19 2 -27 5 -17 2 9 2 25 0 35 -3 9 -5 1 -5 -18z"/>
<path d="M655 2069 c-4 -6 -5 -12 -2 -15 2 -3 7 2 10 11 7 17 1 20 -8 4z"/>
<path d="M820 2073 c0 -5 5 -15 10 -23 7 -12 9 -10 7 8 -1 19 -17 33 -17 15z"/>
<path d="M883 2060 c-1 -11 2 -20 5 -20 4 0 8 9 9 20 1 11 -2 20 -5 20 -4 0
-8 -9 -9 -20z"/>
<path d="M3376 2064 c-9 -8 -16 -21 -16 -27 0 -8 3 -7 9 2 5 7 11 9 13 5 3 -5
3 -4 2 3 -2 7 2 15 8 19 6 4 8 3 5 -2 -3 -6 -2 -16 4 -24 7 -12 9 -10 9 7 0
29 -15 37 -34 17z"/>
<path d="M3448 2055 c2 -14 6 -25 8 -25 2 0 4 11 4 25 0 14 -4 25 -9 25 -4 0
-6 -11 -3 -25z"/>
<path d="M3190 2065 c0 -5 5 -17 10 -25 5 -8 10 -10 10 -5 0 6 -5 17 -10 25
-5 8 -10 11 -10 5z"/>
<path d="M3221 2053 c-1 -18 4 -22 28 -21 27 1 27 2 12 19 -19 23 -22 24 -15
4 4 -8 1 -15 -4 -15 -6 0 -13 8 -15 18 -4 13 -5 12 -6 -5z"/>
<path d="M612 1960 c0 -19 2 -27 5 -17 2 9 2 25 0 35 -3 9 -5 1 -5 -18z"/>
<path d="M662 1955 c0 -16 2 -22 5 -12 2 9 2 23 0 30 -3 6 -5 -1 -5 -18z"/>
<path d="M553 1963 c9 -2 25 -2 35 0 9 3 1 5 -18 5 -19 0 -27 -2 -17 -5z"/>
<path d="M642 1950 c0 -14 2 -19 5 -12 2 6 2 18 0 25 -3 6 -5 1 -5 -13z"/>
<path d="M3073 1943 c9 -2 23 -2 30 0 6 3 -1 5 -18 5 -16 0 -22 -2 -12 -5z"/>
<path d="M355 1910 c-3 -6 1 -7 9 -4 18 7 21 14 7 14 -6 0 -13 -4 -16 -10z"/>
<path d="M2875 1910 c-3 -6 1 -7 9 -4 18 7 21 14 7 14 -6 0 -13 -4 -16 -10z"/>
<path d="M366 1864 c-5 -14 -4 -15 9 -4 17 14 19 20 6 20 -5 0 -12 -7 -15 -16z"/>
<path d="M2870 1828 c0 -4 6 -8 14 -8 8 0 17 4 20 8 2 4 -4 8 -15 8 -10 0 -19
-4 -19 -8z"/>
<path d="M358 1823 c6 -2 18 -2 25 0 6 3 1 5 -13 5 -14 0 -19 -2 -12 -5z"/>
<path d="M425 1799 c-4 -6 -5 -12 -2 -15 2 -3 7 2 10 11 7 17 1 20 -8 4z"/>
<path d="M2901 1797 c-1 -12 -6 -16 -13 -11 -7 4 -10 4 -6 -1 4 -4 3 -15 -4
-24 -7 -9 -1 -6 11 5 13 12 21 28 18 35 -4 10 -6 8 -6 -4z"/>
<path d="M447 1786 c-4 -10 -5 -21 -2 -24 9 -9 17 6 13 25 -3 17 -4 17 -11 -1z"/>
<path d="M470 1780 c0 -19 3 -21 12 -12 9 9 9 15 0 24 -9 9 -12 7 -12 -12z"/>
<path d="M2994 1789 c-3 -6 -1 -16 5 -22 8 -8 11 -5 11 11 0 24 -5 28 -16 11z"/>
<path d="M3022 1780 c0 -14 2 -19 5 -12 2 6 2 18 0 25 -3 6 -5 1 -5 -13z"/>
<path d="M369 1773 c-13 -16 -12 -17 4 -4 9 7 17 15 17 17 0 8 -8 3 -21 -13z"/>
<path d="M2892 1744 c-7 -8 -8 -14 -3 -14 10 0 25 19 20 25 -2 1 -10 -3 -17
-11z"/>
<path d="M370 1740 c-13 -8 -12 -10 3 -10 9 0 17 5 17 10 0 12 -1 12 -20 0z"/>
<path d="M369 1693 c-13 -16 -12 -17 4 -4 9 7 17 15 17 17 0 8 -8 3 -21 -13z"/>
<path d="M2879 1693 c-13 -15 -12 -15 9 -4 23 12 28 21 13 21 -5 0 -15 -7 -22
-17z"/>
<path d="M370 1670 c-9 -6 -10 -10 -3 -10 6 0 15 5 18 10 8 12 4 12 -15 0z"/>
<path d="M2880 1670 c-13 -8 -13 -10 2 -10 9 0 20 5 23 10 8 13 -5 13 -25 0z"/>
<path d="M353 1613 c9 -2 23 -2 30 0 6 3 -1 5 -18 5 -16 0 -22 -2 -12 -5z"/>
<path d="M2873 1613 c9 -2 23 -2 30 0 6 3 -1 5 -18 5 -16 0 -22 -2 -12 -5z"/>
<path d="M2880 1549 c-24 -7 -24 -7 -2 -8 12 -1 22 -6 22 -12 0 -6 -7 -8 -17
-4 -15 5 -16 4 -5 -6 14 -15 36 1 30 23 -2 10 -10 12 -28 7z"/>
<path d="M353 1543 c9 -2 23 -2 30 0 6 3 -1 5 -18 5 -16 0 -22 -2 -12 -5z"/>
<path d="M370 1520 c-13 -8 -12 -10 3 -10 9 0 17 5 17 10 0 12 -1 12 -20 0z"/>
<path d="M2900 1484 c0 -9 -5 -12 -12 -8 -10 6 -10 4 0 -8 11 -14 10 -17 -5
-21 -15 -4 -15 -5 3 -6 17 -1 21 5 22 29 0 17 -1 30 -4 30 -2 0 -4 -7 -4 -16z"/>
<path d="M358 1443 c6 -2 18 -2 25 0 6 3 1 5 -13 5 -14 0 -19 -2 -12 -5z"/>
<path d="M432 1425 c0 -16 2 -22 5 -12 2 9 2 23 0 30 -3 6 -5 -1 -5 -18z"/>
<path d="M2952 1420 c0 -19 2 -27 5 -17 2 9 2 25 0 35 -3 9 -5 1 -5 -18z"/>
<path d="M452 1420 c0 -14 2 -19 5 -12 2 6 2 18 0 25 -3 6 -5 1 -5 -13z"/>
<path d="M470 1420 c0 -19 3 -21 12 -12 9 9 9 15 0 24 -9 9 -12 7 -12 -12z"/>
<path d="M2994 1429 c-3 -6 -1 -16 5 -22 8 -8 11 -5 11 11 0 24 -5 28 -16 11z"/>
<path d="M3022 1420 c0 -14 2 -19 5 -12 2 6 2 18 0 25 -3 6 -5 1 -5 -13z"/>
<path d="M2885 1420 c-18 -8 -18 -9 -2 -9 10 -1 15 -5 12 -11 -3 -5 -1 -10 4
-10 6 0 11 9 11 20 0 11 -1 20 -2 19 -2 0 -12 -4 -23 -9z"/>
<path d="M363 1407 c0 -8 6 -14 12 -14 6 0 12 6 12 14 0 7 -6 13 -12 13 -6 0
-12 -6 -12 -13z"/>
<path d="M353 1373 c9 -2 23 -2 30 0 6 3 -1 5 -18 5 -16 0 -22 -2 -12 -5z"/>
<path d="M2860 1376 c0 -2 11 -6 25 -8 14 -3 25 -1 25 3 0 5 -11 9 -25 9 -14
0 -25 -2 -25 -4z"/>
<path d="M368 1343 c7 -3 16 -2 19 1 4 3 -2 6 -13 5 -11 0 -14 -3 -6 -6z"/>
<path d="M2878 1343 c6 -2 18 -2 25 0 6 3 1 5 -13 5 -14 0 -19 -2 -12 -5z"/>
<path d="M2885 1320 c-16 -7 -17 -9 -3 -9 9 -1 20 4 23 9 7 11 7 11 -20 0z"/>
<path d="M368 1313 c7 -3 16 -2 19 1 4 3 -2 6 -13 5 -11 0 -14 -3 -6 -6z"/>
<path d="M1551 1278 c-1 -33 2 -38 22 -37 16 1 18 2 5 6 -10 2 -18 8 -18 13 0
5 8 11 18 13 15 4 15 5 0 6 -9 0 -19 9 -21 19 -3 9 -5 0 -6 -20z"/>
<path d="M1748 1303 c15 -6 16 -49 2 -56 -6 -3 -5 -4 2 -3 7 1 14 17 16 34 3
26 0 32 -15 31 -10 0 -13 -3 -5 -6z"/>
<path d="M1807 1303 c-2 -5 0 -21 4 -38 7 -29 7 -29 8 8 1 35 -3 46 -12 30z"/>
<path d="M1840 1275 c0 -24 5 -35 15 -35 8 0 15 5 15 11 0 5 -4 7 -10 4 -6 -3
-10 5 -10 19 0 13 6 27 13 29 7 3 5 6 -5 6 -14 1 -18 -7 -18 -34z"/>
<path d="M1880 1300 c0 -5 7 -7 15 -4 8 4 15 8 15 10 0 2 -7 4 -15 4 -8 0 -15
-4 -15 -10z"/>
<path d="M1603 1284 c-2 -7 -3 -21 0 -31 3 -12 6 -7 7 12 l2 30 7 -30 7 -30 5
31 c4 22 1 31 -9 31 -8 0 -16 -6 -19 -13z"/>
<path d="M1656 1292 c-3 -5 1 -9 9 -9 8 0 12 4 9 9 -3 4 -7 8 -9 8 -2 0 -6 -4
-9 -8z"/>
<path d="M1694 1286 c-3 -8 -4 -23 -2 -33 3 -11 6 -6 9 15 6 34 2 42 -7 18z"/>
<path d="M2876 1292 c-2 -4 4 -8 15 -8 10 0 19 4 19 8 0 4 -6 8 -14 8 -8 0
-17 -4 -20 -8z"/>
<path d="M4010 1260 c0 -35 3 -40 23 -39 16 1 18 2 5 6 -10 2 -18 11 -18 18 0
7 8 16 18 18 16 4 16 5 0 6 -10 0 -18 5 -18 10 0 5 8 12 18 14 13 4 11 5 -5 6
-20 1 -23 -4 -23 -39z"/>
<path d="M4230 1293 c5 -2 10 -19 10 -36 0 -33 -14 -28 -23 8 l-5 20 -1 -20
c-1 -30 16 -52 29 -39 15 15 9 67 -8 70 -7 1 -8 0 -2 -3z"/>
<path d="M4298 1293 c-2 -5 -1 -24 3 -43 l6 -35 2 43 c1 39 -3 52 -11 35z"/>
<path d="M4337 1293 c-11 -11 -8 -61 4 -69 14 -8 29 14 28 41 l-1 20 -5 -20
c-9 -36 -23 -41 -23 -8 0 17 6 34 13 36 6 3 7 6 1 6 -6 1 -14 -2 -17 -6z"/>
<path d="M4388 1293 c-2 -5 -1 -24 3 -43 l6 -35 2 43 c1 39 -3 52 -11 35z"/>
<path d="M1892 1268 c-17 -17 -15 -28 6 -27 11 0 12 2 4 6 -10 4 -10 8 -1 19
14 17 8 19 -9 2z"/>
<path d="M4061 1248 c2 -31 2 -31 6 -5 2 15 8 27 13 27 5 0 10 -12 12 -27 3
-27 4 -27 9 5 5 28 3 32 -18 32 -20 0 -23 -5 -22 -32z"/>
<path d="M4120 1270 c0 -5 7 -7 15 -4 8 4 15 8 15 10 0 2 -7 4 -15 4 -8 0 -15
-4 -15 -10z"/>
<path d="M4156 1264 c-3 -9 -2 -23 4 -32 8 -14 9 -12 10 10 0 17 6 28 18 31
13 4 12 5 -4 6 -12 0 -25 -6 -28 -15z"/>
<path d="M368 1263 c7 -3 16 -2 19 1 4 3 -2 6 -13 5 -11 0 -14 -3 -6 -6z"/>
<path d="M2876 1261 c-4 -5 3 -7 14 -4 23 6 26 13 6 13 -8 0 -17 -4 -20 -9z"/>
<path d="M1650 1248 c0 -4 7 -8 15 -8 8 0 15 4 15 8 0 5 -7 9 -15 9 -8 0 -15
-4 -15 -9z"/>
<path d="M368 1233 c7 -3 16 -2 19 1 4 3 -2 6 -13 5 -11 0 -14 -3 -6 -6z"/>
<path d="M2878 1233 c6 -2 18 -2 25 0 6 3 1 5 -13 5 -14 0 -19 -2 -12 -5z"/>
<path d="M4120 1230 c0 -6 7 -10 15 -10 8 0 15 2 15 4 0 2 -7 6 -15 10 -8 3
-15 1 -15 -4z"/>
<path d="M2885 1210 c-19 -8 -19 -9 3 -9 12 -1 22 4 22 9 0 6 -1 10 -2 9 -2 0
-12 -4 -23 -9z"/>
<path d="M368 1203 c7 -3 16 -2 19 1 4 3 -2 6 -13 5 -11 0 -14 -3 -6 -6z"/>
<path d="M368 1183 c7 -3 16 -2 19 1 4 3 -2 6 -13 5 -11 0 -14 -3 -6 -6z"/>
<path d="M2876 1181 c-4 -5 3 -7 14 -4 23 6 26 13 6 13 -8 0 -17 -4 -20 -9z"/>
<path d="M368 1153 c7 -3 16 -2 19 1 4 3 -2 6 -13 5 -11 0 -14 -3 -6 -6z"/>
<path d="M2878 1153 c6 -2 18 -2 25 0 6 3 1 5 -13 5 -14 0 -19 -2 -12 -5z"/>
<path d="M1551 1117 c-1 -23 3 -36 9 -32 6 3 10 1 10 -6 0 -7 2 -10 5 -7 3 2
-1 22 -9 44 l-15 39 0 -38z"/>
<path d="M1584 1135 c-3 -8 -1 -27 4 -42 10 -27 10 -26 11 15 1 43 -5 54 -15
27z"/>
<path d="M1750 1110 c0 -33 4 -40 19 -40 10 0 21 7 25 15 3 8 15 15 27 15 23
0 22 21 -2 28 -11 3 -11 2 1 -7 13 -10 13 -11 0 -11 -8 0 -21 9 -28 20 -21 35
-42 25 -42 -20z m35 0 c0 -13 -6 -25 -12 -27 -9 -3 -13 6 -13 27 0 21 4 30 13
28 6 -3 12 -15 12 -28z"/>
<path d="M2198 1143 c7 -3 16 -2 19 1 4 3 -2 6 -13 5 -11 0 -14 -3 -6 -6z"/>
<path d="M2237 1143 c-13 -13 -7 -33 11 -33 14 0 15 2 2 10 -13 9 -13 11 0 20
8 5 10 10 4 10 -6 0 -14 -3 -17 -7z"/>
<path d="M360 1136 c0 -2 7 -6 15 -10 8 -3 15 -1 15 4 0 6 -7 10 -15 10 -8 0
-15 -2 -15 -4z"/>
<path d="M2096 1123 c-6 -14 -5 -15 5 -6 7 7 10 15 7 18 -3 3 -9 -2 -12 -12z"/>
<path d="M2137 1133 c-2 -5 0 -21 4 -38 7 -29 7 -29 8 8 1 35 -3 46 -12 30z"/>
<path d="M2888 1133 c17 -7 15 -21 -5 -26 -14 -4 -12 -5 5 -6 16 -1 22 5 22
19 0 13 -6 20 -17 19 -11 0 -13 -3 -5 -6z"/>
<path d="M4011 1100 l1 -45 10 34 c6 23 6 37 -1 44 -8 8 -11 -2 -10 -33z"/>
<path d="M4056 1103 c9 -52 14 -54 14 -5 0 23 -5 42 -10 42 -7 0 -8 -14 -4
-37z"/>
<path d="M4240 1100 c0 -33 3 -40 20 -40 11 0 20 5 20 12 0 6 8 4 19 -6 14
-13 21 -14 27 -5 4 7 3 10 -4 5 -6 -3 -13 -2 -17 4 -3 5 2 10 12 11 15 0 14 2
-4 9 -12 5 -24 18 -28 29 -3 12 -15 21 -26 21 -16 0 -19 -7 -19 -40z m35 0 c0
-13 -6 -25 -12 -27 -9 -3 -13 6 -13 27 0 21 4 30 13 28 6 -3 12 -15 12 -28z"/>
<path d="M4615 1133 c6 -4 12 -21 13 -37 1 -22 -2 -27 -14 -22 -8 3 -12 2 -9
-4 3 -6 13 -10 21 -10 20 0 14 72 -6 77 -9 3 -11 1 -5 -4z"/>
<path d="M4657 1133 c-4 -3 -7 -14 -7 -24 0 -13 5 -17 17 -12 11 4 12 8 5 11
-7 2 -12 8 -12 13 0 6 5 7 10 4 6 -3 10 -1 10 4 0 12 -13 14 -23 4z"/>
<path d="M4726 1132 c-3 -5 1 -9 9 -9 8 0 12 4 9 9 -3 4 -7 8 -9 8 -2 0 -6 -4
-9 -8z"/>
<path d="M4770 1130 c0 -6 4 -9 8 -6 5 3 9 -8 10 -24 1 -36 -11 -38 -33 -7
l-17 22 7 -24 c6 -20 4 -23 -9 -18 -9 4 -16 3 -16 -2 0 -5 18 -8 40 -8 40 0
40 0 37 35 -1 20 -8 37 -15 40 -6 2 -12 -1 -12 -8z"/>
<path d="M1610 1115 c0 -8 7 -15 15 -15 8 0 15 7 15 15 0 8 -7 15 -15 15 -8 0
-15 -7 -15 -15z"/>
<path d="M1659 1128 c-14 -42 -1 -76 17 -46 4 7 3 8 -4 4 -7 -4 -12 -2 -12 3
0 6 6 11 13 11 9 0 8 3 -2 9 -11 7 -11 9 0 14 10 4 10 6 2 6 -7 1 -13 0 -14
-1z"/>
<path d="M1691 1098 c2 -28 2 -29 6 -8 3 14 10 28 17 32 7 5 5 8 -6 8 -14 0
-18 -8 -17 -32z"/>
<path d="M1904 1119 c-3 -5 3 -6 12 -2 10 3 15 2 12 -3 -3 -5 -2 -18 3 -29 7
-18 8 -17 8 7 1 14 7 28 14 31 6 2 0 4 -16 4 -15 0 -30 -3 -33 -8z"/>
<path d="M1984 1116 c-8 -22 3 -49 19 -43 6 2 12 14 12 27 0 27 -22 39 -31 16z
m26 -16 c0 -11 -4 -20 -10 -20 -5 0 -10 9 -10 20 0 11 5 20 10 20 6 0 10 -9
10 -20z"/>
<path d="M2036 1123 c7 -4 14 -19 17 -33 4 -22 5 -21 4 4 -1 17 -9 31 -17 33
-10 3 -11 2 -4 -4z"/>
<path d="M4453 1095 c0 -22 2 -30 4 -17 2 12 2 30 0 40 -3 9 -5 -1 -4 -23z"/>
<path d="M1851 1103 c-1 -12 4 -25 9 -28 12 -7 12 2 0 30 -8 19 -9 19 -9 -2z"/>
<path d="M4084 1108 c-4 -6 -3 -8 4 -4 6 3 13 2 17 -4 3 -5 -2 -10 -12 -11
-11 0 -13 -3 -5 -6 7 -3 22 3 33 13 10 9 22 14 26 11 4 -4 -2 -13 -12 -21 -20
-15 -12 -38 10 -29 17 6 20 49 5 58 -6 4 -17 1 -25 -5 -11 -9 -15 -9 -15 -1 0
14 -17 14 -26 -1z m66 -32 c0 -3 -4 -8 -10 -11 -5 -3 -10 -1 -10 4 0 6 5 11
10 11 6 0 10 -2 10 -4z"/>
<path d="M4174 1106 c-3 -8 -4 -23 -1 -33 3 -12 5 -8 6 10 0 16 5 26 11 22 6
-3 10 -1 10 4 0 16 -20 13 -26 -3z"/>
<path d="M4300 1112 c0 -5 7 -9 15 -9 8 0 12 4 9 9 -3 4 -9 8 -15 8 -5 0 -9
-4 -9 -8z"/>
<path d="M4376 1093 c9 -38 14 -42 14 -10 0 14 -5 29 -10 32 -7 4 -8 -3 -4
-22z"/>
<path d="M4405 1111 c-3 -7 0 -8 9 -5 9 3 16 1 16 -5 0 -6 -7 -11 -15 -11 -16
0 -21 -25 -7 -34 15 -9 34 11 30 34 -3 26 -22 37 -33 21z m25 -35 c0 -3 -4 -8
-10 -11 -5 -3 -10 -1 -10 4 0 6 5 11 10 11 6 0 10 -2 10 -4z"/>
<path d="M4472 1090 c0 -19 2 -27 5 -17 2 9 2 25 0 35 -3 9 -5 1 -5 -18z"/>
<path d="M4495 1110 c-3 -6 1 -7 9 -4 18 7 21 14 7 14 -6 0 -13 -4 -16 -10z"/>
<path d="M4544 1108 c-4 -6 -3 -8 4 -4 6 4 12 -5 15 -21 4 -26 4 -26 6 5 1 32
-11 42 -25 20z"/>
<path d="M368 1103 c7 -3 16 -2 19 1 4 3 -2 6 -13 5 -11 0 -14 -3 -6 -6z"/>
<path d="M2201 1094 c0 -11 3 -14 6 -6 3 7 2 16 -1 19 -3 4 -6 -2 -5 -13z"/>
<path d="M1900 1091 c0 -6 4 -13 10 -16 6 -3 7 1 4 9 -7 18 -14 21 -14 7z"/>
<path d="M2088 1093 c6 -2 18 -2 25 0 6 3 1 5 -13 5 -14 0 -19 -2 -12 -5z"/>
<path d="M2255 1090 c-4 -6 -11 -7 -17 -4 -7 4 -8 2 -4 -4 10 -16 23 -15 30 3
6 17 0 20 -9 5z"/>
<path d="M4037 1094 c-4 -4 -7 -14 -7 -23 0 -11 3 -12 11 -4 6 6 10 16 7 23
-2 6 -7 8 -11 4z"/>
<path d="M4517 1080 c-6 -21 -9 -22 -17 -10 -6 9 -10 10 -10 3 0 -6 4 -14 9
-17 12 -8 34 20 29 36 -3 7 -8 1 -11 -12z"/>
<path d="M1616 1078 c3 -5 10 -6 15 -3 13 9 11 12 -6 12 -8 0 -12 -4 -9 -9z"/>
<path d="M1816 1078 c3 -5 10 -6 15 -3 13 9 11 12 -6 12 -8 0 -12 -4 -9 -9z"/>
<path d="M2946 1075 c4 -8 8 -15 10 -15 2 0 4 7 4 15 0 8 -4 15 -10 15 -5 0
-7 -7 -4 -15z"/>
<path d="M4357 1083 c-4 -3 -7 -11 -7 -17 0 -6 5 -5 12 2 6 6 9 14 7 17 -3 3
-9 2 -12 -2z"/>
<path d="M4680 1081 c0 -8 -7 -11 -15 -7 -8 3 -15 1 -15 -4 0 -6 6 -10 14 -10
17 0 31 18 22 27 -3 4 -6 1 -6 -6z"/>
<path d="M452 1060 c0 -14 2 -19 5 -12 2 6 2 18 0 25 -3 6 -5 1 -5 -13z"/>
<path d="M470 1060 c0 -19 3 -21 12 -12 9 9 9 15 0 24 -9 9 -12 7 -12 -12z"/>
<path d="M2994 1069 c-3 -6 -1 -16 5 -22 8 -8 11 -5 11 11 0 24 -5 28 -16 11z"/>
<path d="M3022 1060 c0 -14 2 -19 5 -12 2 6 2 18 0 25 -3 6 -5 1 -5 -13z"/>
<path d="M4086 1058 c3 -5 10 -6 15 -3 13 9 11 12 -6 12 -8 0 -12 -4 -9 -9z"/>
<path d="M2900 1052 c0 -7 -10 -13 -22 -13 -19 -1 -20 -2 -4 -6 20 -5 44 12
33 24 -4 3 -7 1 -7 -5z"/>
<path d="M347 1038 c2 -5 10 -8 18 -8 8 0 16 3 18 8 3 4 -5 7 -18 7 -13 0 -21
-3 -18 -7z"/>
<path d="M375 1000 c-16 -7 -17 -9 -3 -9 9 -1 20 4 23 9 7 11 7 11 -20 0z"/>
<path d="M353 943 c9 -2 23 -2 30 0 6 3 -1 5 -18 5 -16 0 -22 -2 -12 -5z"/>
<path d="M2873 943 c9 -2 23 -2 30 0 6 3 -1 5 -18 5 -16 0 -22 -2 -12 -5z"/>
<path d="M3002 700 c0 -14 2 -19 5 -12 2 6 2 18 0 25 -3 6 -5 1 -5 -13z"/>
<path d="M3022 700 c0 -14 2 -19 5 -12 2 6 2 18 0 25 -3 6 -5 1 -5 -13z"/>
<path d="M902 650 c0 -19 2 -27 5 -17 2 9 2 25 0 35 -3 9 -5 1 -5 -18z"/>
<path d="M4620 661 c0 -11 -5 -21 -12 -23 -7 -3 -6 -7 5 -11 14 -5 17 -1 17
23 0 17 -2 30 -5 30 -3 0 -5 -9 -5 -19z"/>
<path d="M1102 645 c0 -16 2 -22 5 -12 2 9 2 23 0 30 -3 6 -5 -1 -5 -18z"/>
<path d="M1342 645 c0 -16 2 -22 5 -12 2 9 2 23 0 30 -3 6 -5 -1 -5 -18z"/>
<path d="M3442 645 c0 -16 2 -22 5 -12 2 9 2 23 0 30 -3 6 -5 -1 -5 -18z"/>
<path d="M4222 645 c0 -16 2 -22 5 -12 2 9 2 23 0 30 -3 6 -5 -1 -5 -18z"/>
<path d="M4820 656 c0 -8 -5 -16 -12 -18 -7 -3 -6 -7 5 -11 13 -5 17 -1 17 18
0 14 -2 25 -5 25 -3 0 -5 -6 -5 -14z"/>
<path d="M921 644 c0 -11 3 -14 6 -6 3 7 2 16 -1 19 -3 4 -6 -2 -5 -13z"/>
<path d="M1136 647 c3 -10 9 -15 12 -12 3 3 0 11 -7 18 -10 9 -11 8 -5 -6z"/>
<path d="M1317 641 c-4 -17 -3 -21 5 -13 5 5 8 16 6 23 -3 8 -7 3 -11 -10z"/>
<path d="M1536 647 c3 -10 9 -15 12 -12 3 3 0 11 -7 18 -10 9 -11 8 -5 -6z"/>
<path d="M1721 644 c0 -11 3 -14 6 -6 3 7 2 16 -1 19 -3 4 -6 -2 -5 -13z"/>
<path d="M1936 647 c3 -10 9 -15 12 -12 3 3 0 11 -7 18 -10 9 -11 8 -5 -6z"/>
<path d="M2120 651 c0 -5 -8 -12 -17 -14 -14 -4 -12 -5 5 -6 13 -1 22 5 22 14
0 8 -2 15 -5 15 -3 0 -5 -4 -5 -9z"/>
<path d="M2336 647 c3 -10 9 -15 12 -12 3 3 0 11 -7 18 -10 9 -11 8 -5 -6z"/>
<path d="M3021 644 c0 -11 3 -14 6 -6 3 7 2 16 -1 19 -3 4 -6 -2 -5 -13z"/>
<path d="M3236 647 c3 -10 9 -15 12 -12 3 3 0 11 -7 18 -10 9 -11 8 -5 -6z"/>
<path d="M3461 644 c0 -11 3 -14 6 -6 3 7 2 16 -1 19 -3 4 -6 -2 -5 -13z"/>
<path d="M3861 644 c0 -11 3 -14 6 -6 3 7 2 16 -1 19 -3 4 -6 -2 -5 -13z"/>
<path d="M4261 644 c0 -11 3 -14 6 -6 3 7 2 16 -1 19 -3 4 -6 -2 -5 -13z"/>
<path d="M4421 634 c0 -11 3 -14 6 -6 3 7 2 16 -1 19 -3 4 -6 -2 -5 -13z"/>
<path d="M2298 633 c7 -3 16 -2 19 1 4 3 -2 6 -13 5 -11 0 -14 -3 -6 -6z"/>
<path d="M1473 560 c0 -25 2 -35 4 -22 2 12 2 32 0 45 -2 12 -4 2 -4 -23z"/>
<path d="M3981 563 c-1 -24 1 -43 3 -43 8 0 12 48 5 66 -5 13 -8 7 -8 -23z"/>
<path d="M1233 555 c0 -22 2 -30 4 -17 2 12 2 30 0 40 -3 9 -5 -1 -4 -23z"/>
<path d="M3753 555 c0 -22 2 -30 4 -17 2 12 2 30 0 40 -3 9 -5 -1 -4 -23z"/>
<path d="M3933 555 c0 -22 2 -30 4 -17 2 12 2 30 0 40 -3 9 -5 -1 -4 -23z"/>
<path d="M1262 545 c0 -16 2 -22 5 -12 2 9 2 23 0 30 -3 6 -5 -1 -5 -18z"/>
<path d="M1282 545 c0 -16 2 -22 5 -12 2 9 2 23 0 30 -3 6 -5 -1 -5 -18z"/>
<path d="M1302 545 c0 -16 2 -22 5 -12 2 9 2 23 0 30 -3 6 -5 -1 -5 -18z"/>
<path d="M1320 543 c0 -21 3 -24 9 -14 5 8 7 20 4 28 -8 21 -13 15 -13 -14z"/>
<path d="M1492 545 c0 -16 2 -22 5 -12 2 9 2 23 0 30 -3 6 -5 -1 -5 -18z"/>
<path d="M1582 545 c0 -16 2 -22 5 -12 2 9 2 23 0 30 -3 6 -5 -1 -5 -18z"/>
<path d="M3808 563 c7 -3 16 -2 19 1 4 3 -2 6 -13 5 -11 0 -14 -3 -6 -6z"/>
<path d="M3873 563 c-15 -6 -17 -29 -3 -38 6 -4 7 1 3 11 -5 13 -3 16 10 11 9
-3 17 -2 17 3 0 12 -13 18 -27 13z"/>
<path d="M4053 551 c3 -36 27 -40 26 -4 -2 27 -2 27 -7 3 l-5 -25 -8 25 -8 25
2 -24z"/>
<path d="M4090 545 c0 -14 2 -25 4 -25 2 0 6 11 8 25 3 14 1 25 -3 25 -5 0 -9
-11 -9 -25z"/>
<path d="M1531 544 c0 -11 3 -14 6 -6 3 7 2 16 -1 19 -3 4 -6 -2 -5 -13z"/>
<path d="M1116 381 c-9 -16 -16 -44 -16 -61 0 -32 27 -96 37 -86 3 3 0 12 -7
21 -16 19 -16 111 0 130 7 9 10 18 7 21 -3 3 -13 -8 -21 -25z"/>
<path d="M1270 405 c0 -6 5 -16 11 -22 12 -12 8 -103 -5 -138 -7 -20 -7 -20 8
-1 19 24 30 78 23 108 -7 26 -36 68 -37 53z"/>
<path d="M1415 394 c-27 -28 -14 -52 38 -68 9 -3 17 -15 17 -26 0 -29 -48 -28
-60 3 -9 22 -9 21 -9 -4 -1 -24 2 -26 35 -25 43 1 65 26 48 54 -6 9 -21 18
-33 20 -30 5 -39 32 -16 48 10 8 14 14 8 14 -7 0 -19 -7 -28 -16z"/>
<path d="M1643 402 c-8 -5 -8 -12 3 -26 13 -19 14 -19 14 7 0 30 0 30 -17 19z"/>
<path d="M3556 381 c-9 -16 -16 -44 -16 -61 0 -32 27 -96 37 -86 3 3 0 12 -7
21 -16 19 -16 111 0 130 7 9 10 18 7 21 -3 3 -13 -8 -21 -25z"/>
<path d="M3720 405 c0 -6 5 -16 11 -22 12 -12 8 -103 -5 -138 -7 -20 -7 -20 8
-1 19 24 30 78 23 108 -7 26 -36 68 -37 53z"/>
<path d="M3865 394 c-27 -28 -14 -52 38 -68 9 -3 17 -15 17 -26 0 -29 -48 -28
-60 3 -9 22 -9 21 -9 -4 -1 -24 2 -26 35 -25 43 1 65 26 48 54 -6 9 -21 18
-33 20 -30 5 -39 32 -16 48 10 8 14 14 8 14 -7 0 -19 -7 -28 -16z"/>
<path d="M1466 385 c4 -8 8 -15 10 -15 2 0 4 7 4 15 0 8 -4 15 -10 15 -5 0 -7
-7 -4 -15z"/>
<path d="M1508 393 c7 -3 12 -25 12 -58 0 -33 -5 -55 -12 -58 -7 -3 3 -5 22
-5 19 0 29 2 23 5 -8 3 -13 25 -13 58 0 33 5 55 13 58 6 3 -4 5 -23 5 -19 0
-29 -2 -22 -5z"/>
<path d="M1583 384 c-8 -23 9 -47 38 -54 15 -4 24 -13 24 -25 0 -26 -35 -32
-52 -9 -12 17 -13 17 -13 -3 0 -17 6 -20 38 -19 34 1 37 3 37 31 0 24 -6 33
-33 45 -24 10 -32 19 -29 32 6 23 -1 24 -10 2z"/>
<path d="M3608 393 c7 -3 12 -26 12 -63 l0 -58 31 2 c30 2 49 19 49 43 0 20
-32 45 -51 40 -15 -4 -19 0 -19 19 0 16 -5 24 -17 23 -11 0 -13 -3 -5 -6z m67
-78 c0 -23 -4 -30 -20 -30 -21 0 -31 25 -21 51 11 28 41 12 41 -21z"/>
<path d="M3916 385 c4 -8 8 -15 10 -15 2 0 4 7 4 15 0 8 -4 15 -10 15 -5 0 -7
-7 -4 -15z"/>
<path d="M3958 394 c7 -4 12 -26 12 -59 0 -33 -5 -55 -12 -58 -7 -3 15 -6 50
-6 61 -1 62 -1 61 27 0 26 -1 26 -9 5 -7 -17 -18 -23 -40 -23 -30 0 -30 0 -30
55 0 54 0 55 30 55 17 0 34 -7 40 -17 10 -16 10 -16 8 2 -3 17 -12 20 -63 22
-33 1 -54 0 -47 -3z"/>
<path d="M4088 393 c7 -3 12 -25 12 -58 0 -33 -5 -55 -12 -58 -7 -3 3 -5 22
-5 19 0 29 2 23 5 -8 3 -13 25 -13 58 0 33 5 55 13 58 6 3 -4 5 -23 5 -19 0
-29 -2 -22 -5z"/>
<path d="M4160 378 c1 -21 2 -21 11 -5 5 9 21 17 35 17 l25 0 -36 -52 c-19
-29 -35 -56 -35 -60 0 -5 20 -8 45 -8 25 0 45 4 45 9 0 5 3 18 6 28 5 13 2 12
-10 -4 -10 -13 -28 -23 -42 -23 l-25 0 36 52 c19 29 35 56 35 60 0 5 -20 8
-45 8 -40 0 -45 -2 -45 -22z"/>
<path d="M1175 350 c-4 -6 -4 -14 0 -18 3 -3 10 0 14 7 5 7 14 10 20 7 16 -11
13 -56 -4 -63 -25 -9 -32 7 -11 23 16 11 17 14 4 14 -24 0 -41 -25 -26 -37 16
-12 78 -13 78 -1 0 4 -4 8 -9 8 -6 0 -11 15 -13 33 -2 24 -8 33 -25 35 -11 2
-24 -2 -28 -8z"/>
<path d="M4015 340 c-3 -5 -1 -10 4 -10 6 0 11 5 11 10 0 6 -2 10 -4 10 -3 0
-8 -4 -11 -10z"/>
</g>
</svg>
