<?xml version="1.0" standalone="no"?>
<!DOCTYPE svg PUBLIC "-//W3C//DTD SVG 20010904//EN"
 "http://www.w3.org/TR/2001/REC-SVG-20010904/DTD/svg10.dtd">
<svg version="1.0" xmlns="http://www.w3.org/2000/svg"
 width="365.000000pt" height="269.000000pt" viewBox="0 0 365.000000 269.000000"
 preserveAspectRatio="xMidYMid meet">
<metadata>
Created by potrace 1.16, written by Peter Selinger 2001-2019
</metadata>
<g transform="translate(0.000000,269.000000) scale(0.100000,-0.100000)"
fill="#000000" stroke="none">
<path d="M530 2511 c0 -22 -5 -42 -12 -44 -10 -4 -10 -6 0 -6 9 -1 12 -56 12
-240 0 -182 -3 -241 -12 -244 -10 -4 -10 -6 0 -6 18 -1 18 -477 0 -484 -10 -4
-10 -6 0 -6 18 -1 18 -477 0 -484 -10 -4 -10 -6 0 -6 18 -1 18 -477 0 -484
-10 -4 -10 -6 0 -6 9 -1 12 -33 13 -123 0 -68 3 -117 6 -110 7 17 369 17 376
0 4 -10 6 -10 6 0 1 18 377 18 384 0 4 -10 6 -10 6 0 1 18 377 18 384 0 4 -10
6 -10 6 0 1 9 46 12 191 12 145 0 190 -3 190 -12 0 -10 2 -10 8 -1 6 10 138
13 583 16 559 2 554 2 -178 5 l-753 2 0 40 c0 22 -4 40 -10 40 -5 0 -10 -18
-10 -40 l0 -40 -590 0 -590 0 0 1125 0 1125 590 0 590 0 0 -35 c0 -19 5 -35
10 -35 6 0 10 16 10 35 l0 35 753 3 c436 1 182 3 -605 5 l-1358 2 0 -39z"/>
<path d="M330 2481 c0 -6 4 -13 10 -16 6 -3 7 1 4 9 -7 18 -14 21 -14 7z"/>
<path d="M400 2479 c0 -5 -4 -7 -10 -4 -5 3 -10 1 -10 -4 0 -6 5 -11 10 -11 6
0 10 -5 10 -11 0 -6 -7 -8 -17 -4 -14 5 -15 3 -6 -6 16 -16 31 -4 31 26 0 14
-2 25 -4 25 -2 0 -4 -5 -4 -11z"/>
<path d="M425 2479 c-4 -6 -5 -12 -2 -15 2 -3 7 2 10 11 7 17 1 20 -8 4z"/>
<path d="M304 2457 c3 -10 6 -21 6 -23 0 -2 7 -4 15 -4 8 0 15 5 15 11 0 5 -4
8 -9 4 -6 -3 -15 3 -21 12 -11 17 -11 17 -6 0z"/>
<path d="M454 2462 c4 -3 14 -7 22 -8 9 -1 13 0 10 4 -4 3 -14 7 -22 8 -9 1
-13 0 -10 -4z"/>
<path d="M3234 2205 c0 -132 2 -185 3 -117 2 68 2 176 0 240 -1 64 -3 9 -3
-123z"/>
<path d="M1720 2335 c0 -25 5 -45 10 -45 6 0 10 20 10 45 0 25 -4 45 -10 45
-5 0 -10 -20 -10 -45z"/>
<path d="M1720 2155 c0 -25 5 -45 10 -45 6 0 10 20 10 45 0 25 -4 45 -10 45
-5 0 -10 -20 -10 -45z"/>
<path d="M3042 2099 c-95 -56 -171 -103 -169 -106 5 -4 314 173 337 194 8 7
12 13 10 13 -3 0 -83 -46 -178 -101z"/>
<path d="M147 2083 c-4 -3 -7 -12 -7 -20 0 -20 33 -16 53 7 9 11 13 20 8 20
-5 0 -14 -7 -21 -15 -7 -8 -17 -15 -22 -15 -6 0 -8 7 -4 15 6 16 3 19 -7 8z"/>
<path d="M198 2043 c7 -3 16 -2 19 1 4 3 -2 6 -13 5 -11 0 -14 -3 -6 -6z"/>
<path d="M145 2020 c-14 -22 6 -50 35 -50 26 0 41 16 39 43 0 7 -4 2 -10 -11
-12 -32 -54 -27 -53 6 1 24 -2 27 -11 12z"/>
<path d="M1720 1975 c0 -25 5 -45 10 -45 6 0 10 20 10 45 0 25 -4 45 -10 45
-5 0 -10 -20 -10 -45z"/>
<path d="M2485 2015 c15 -6 293 -35 324 -34 49 1 7 8 -143 24 -143 14 -202 18
-181 10z"/>
<path d="M330 1991 c0 -6 4 -13 10 -16 6 -3 7 1 4 9 -7 18 -14 21 -14 7z"/>
<path d="M380 1985 c-14 -17 -5 -48 13 -43 6 3 13 12 13 22 2 12 1 13 -3 1 -2
-8 -9 -15 -14 -15 -12 0 -11 7 1 31 13 23 7 25 -10 4z"/>
<path d="M425 1989 c-4 -6 -5 -12 -2 -15 2 -3 7 2 10 11 7 17 1 20 -8 4z"/>
<path d="M2408 1953 c-111 -154 -309 -445 -306 -449 4 -3 264 364 331 468 31
46 11 32 -25 -19z"/>
<path d="M304 1967 c3 -10 6 -21 6 -23 0 -2 7 -4 15 -4 8 0 15 5 15 11 0 5 -4
8 -9 4 -6 -3 -15 3 -21 12 -11 17 -11 17 -6 0z"/>
<path d="M454 1972 c4 -3 14 -7 22 -8 9 -1 13 0 10 4 -4 3 -14 7 -22 8 -9 1
-13 0 -10 -4z"/>
<path d="M206 1953 c-4 -5 -20 -8 -34 -8 -20 0 -28 -6 -30 -22 -3 -21 1 -23
37 -23 23 0 41 5 41 10 0 6 -7 10 -17 10 -14 0 -14 2 2 20 17 19 18 29 1 13z
m-31 -23 c3 -5 -1 -10 -9 -10 -9 0 -16 5 -16 10 0 6 4 10 9 10 6 0 13 -4 16
-10z"/>
<path d="M174 1840 c0 -21 30 -28 41 -10 3 6 -1 7 -9 4 -11 -4 -16 0 -16 10 0
9 -4 16 -8 16 -4 0 -8 -9 -8 -20z"/>
<path d="M1720 1785 c0 -25 5 -45 10 -45 6 0 10 20 10 45 0 25 -4 45 -10 45
-5 0 -10 -20 -10 -45z"/>
<path d="M158 1793 c12 -2 32 -2 45 0 12 2 2 4 -23 4 -25 0 -35 -2 -22 -4z"/>
<path d="M205 1769 c-4 -6 -14 -8 -22 -5 -8 3 -11 1 -8 -4 9 -15 32 -12 39 5
6 17 0 20 -9 4z"/>
<path d="M178 1733 c6 -2 18 -2 25 0 6 3 1 5 -13 5 -14 0 -19 -2 -12 -5z"/>
<path d="M205 1709 c-4 -6 -14 -8 -24 -4 -13 5 -14 4 -3 -6 10 -11 15 -10 29
4 10 9 14 17 11 17 -4 0 -10 -5 -13 -11z"/>
<path d="M145 1670 c-14 -22 6 -50 35 -50 26 0 41 16 39 43 0 7 -4 2 -10 -11
-12 -32 -54 -27 -53 6 1 24 -2 27 -11 12z"/>
<path d="M1720 1605 c0 -25 5 -45 10 -45 6 0 10 20 10 45 0 25 -4 45 -10 45
-5 0 -10 -20 -10 -45z"/>
<path d="M170 1571 c0 -5 9 -7 20 -4 11 3 20 7 20 9 0 2 -9 4 -20 4 -11 0 -20
-4 -20 -9z"/>
<path d="M170 1538 c0 -5 16 -8 35 -8 19 0 35 3 35 8 0 4 -16 7 -35 7 -19 0
-35 -3 -35 -7z"/>
<path d="M190 1510 l-25 -8 28 -1 c15 -1 27 4 27 9 0 6 -1 10 -2 9 -2 -1 -14
-5 -28 -9z"/>
<path d="M330 1501 c0 -6 4 -13 10 -16 6 -3 7 1 4 9 -7 18 -14 21 -14 7z"/>
<path d="M425 1499 c-4 -6 -5 -12 -2 -15 2 -3 7 2 10 11 7 17 1 20 -8 4z"/>
<path d="M140 1456 c0 -20 4 -36 9 -36 5 0 7 9 4 20 -3 11 -1 20 4 20 6 0 18
-9 28 -20 10 -11 22 -20 27 -20 11 0 11 57 -1 64 -4 3 -6 -7 -3 -22 l5 -27
-36 28 -37 28 0 -35z"/>
<path d="M304 1477 c3 -10 6 -21 6 -23 0 -2 7 -4 15 -4 8 0 15 5 15 11 0 5 -4
8 -9 4 -6 -3 -15 3 -21 12 -11 17 -11 17 -6 0z"/>
<path d="M454 1482 c4 -3 14 -7 22 -8 9 -1 13 0 10 4 -4 3 -14 7 -22 8 -9 1
-13 0 -10 -4z"/>
<path d="M1720 1425 c0 -25 5 -45 10 -45 6 0 10 20 10 45 0 25 -4 45 -10 45
-5 0 -10 -20 -10 -45z"/>
<path d="M1885 999 c-189 -473 -193 -483 -175 -459 9 12 10 10 9 -10 -4 -44 1
-70 11 -70 12 0 14 97 2 102 -5 2 71 202 169 446 97 243 174 442 171 442 -4 0
-88 -203 -187 -451z"/>
<path d="M190 1380 c-24 -8 -24 -8 -2 -9 12 -1 22 -5 22 -10 0 -5 -10 -11 -22
-13 -21 -3 -21 -4 5 -9 24 -6 27 -4 27 22 0 16 -1 29 -2 28 -2 -1 -14 -5 -28
-9z"/>
<path d="M176 1321 c-3 -5 2 -8 11 -7 9 0 18 -5 20 -11 3 -8 -5 -13 -19 -14
-18 -1 -19 -2 -4 -6 26 -7 42 12 26 32 -14 17 -26 19 -34 6z"/>
<path d="M1720 1240 c0 -27 5 -50 10 -50 6 0 10 23 10 50 0 28 -4 50 -10 50
-5 0 -10 -22 -10 -50z"/>
<path d="M182 1233 c-18 -2 -30 -8 -28 -12 7 -10 66 -1 66 10 0 5 -1 8 -2 7
-2 0 -18 -3 -36 -5z"/>
<path d="M190 1200 c-24 -8 -24 -8 -2 -9 12 -1 22 -5 22 -10 0 -5 -10 -11 -22
-13 -21 -3 -21 -4 5 -9 24 -6 27 -4 27 22 0 16 -1 29 -2 28 -2 -1 -14 -5 -28
-9z"/>
<path d="M177 1120 c6 -24 34 -23 41 0 5 13 3 13 -11 1 -15 -12 -17 -11 -17 3
0 9 -4 16 -9 16 -5 0 -7 -9 -4 -20z"/>
<path d="M1720 1055 c0 -25 5 -45 10 -45 6 0 10 20 10 45 0 25 -4 45 -10 45
-5 0 -10 -20 -10 -45z"/>
<path d="M190 1080 l-25 -8 28 -1 c15 -1 27 4 27 9 0 6 -1 10 -2 9 -2 -1 -14
-5 -28 -9z"/>
<path d="M204 1052 c3 -6 -2 -15 -11 -21 -17 -10 -17 -10 2 -12 16 -1 16 -2
-5 -8 l-25 -7 27 -6 c24 -4 26 -2 26 24 -1 16 -6 31 -11 35 -6 3 -7 1 -3 -5z"/>
<path d="M330 1011 c0 -6 4 -13 10 -16 6 -3 7 1 4 9 -7 18 -14 21 -14 7z"/>
<path d="M395 1010 c3 -5 8 -10 11 -10 2 0 4 5 4 10 0 6 -5 10 -11 10 -5 0 -7
-4 -4 -10z"/>
<path d="M425 1009 c-4 -6 -5 -12 -2 -15 2 -3 7 2 10 11 7 17 1 20 -8 4z"/>
<path d="M304 987 c3 -10 6 -21 6 -23 0 -2 7 -4 15 -4 8 0 15 5 15 11 0 5 -4
8 -9 4 -6 -3 -15 3 -21 12 -11 17 -11 17 -6 0z"/>
<path d="M454 992 c4 -3 14 -7 22 -8 9 -1 13 0 10 4 -4 3 -14 7 -22 8 -9 1
-13 0 -10 -4z"/>
<path d="M380 975 c-10 -13 -9 -15 11 -14 13 0 18 3 11 6 -6 2 -10 9 -6 14 9
15 -2 10 -16 -6z"/>
<path d="M185 970 l-30 -8 33 -1 c17 0 32 4 32 9 0 6 -1 9 -2 9 -2 -1 -16 -5
-33 -9z"/>
<path d="M185 930 l-30 -8 33 -1 c17 0 32 4 32 9 0 6 -1 9 -2 9 -2 -1 -16 -5
-33 -9z"/>
<path d="M1720 875 c0 -25 5 -45 10 -45 6 0 10 20 10 45 0 25 -4 45 -10 45 -5
0 -10 -20 -10 -45z"/>
<path d="M174 890 c0 -21 30 -28 41 -10 3 6 -1 7 -9 4 -11 -4 -16 0 -16 10 0
9 -4 16 -8 16 -4 0 -8 -9 -8 -20z"/>
<path d="M720 753 c-91 -79 -167 -150 -169 -156 -2 -5 60 46 139 114 206 179
216 188 205 188 -5 0 -84 -66 -175 -146z"/>
<path d="M930 898 c15 -16 343 -239 346 -235 5 5 -312 226 -336 235 -8 3 -13
3 -10 0z"/>
<path d="M176 851 c-3 -5 2 -8 11 -7 9 0 18 -5 20 -11 3 -8 -5 -13 -19 -14
-18 -1 -19 -2 -4 -6 26 -7 42 12 26 32 -14 17 -26 19 -34 6z"/>
<path d="M140 777 c0 -45 50 -65 70 -28 13 25 13 42 -1 19 -14 -25 -59 -24
-59 1 0 11 6 22 13 24 7 3 5 6 -5 6 -12 1 -18 -6 -18 -22z"/>
<path d="M1720 695 c0 -25 5 -45 10 -45 6 0 10 20 10 45 0 25 -4 45 -10 45 -5
0 -10 -20 -10 -45z"/>
<path d="M1335 633 c6 -6 75 -33 155 -61 80 -28 154 -54 165 -58 14 -5 17 -4
10 4 -5 5 -75 33 -155 60 -80 28 -154 54 -165 58 -14 5 -17 4 -10 -3z"/>
<path d="M330 521 c0 -6 4 -13 10 -16 6 -3 7 1 4 9 -7 18 -14 21 -14 7z"/>
<path d="M374 515 c-8 -21 3 -48 19 -43 6 3 13 17 13 31 1 26 1 26 -3 2 -2
-14 -9 -25 -15 -25 -6 0 -8 11 -6 25 6 28 1 33 -8 10z"/>
<path d="M425 519 c-4 -6 -5 -12 -2 -15 2 -3 7 2 10 11 7 17 1 20 -8 4z"/>
<path d="M304 497 c3 -10 6 -21 6 -23 0 -2 7 -4 15 -4 8 0 15 5 15 11 0 5 -4
8 -9 4 -6 -3 -15 3 -21 12 -11 17 -11 17 -6 0z"/>
<path d="M454 502 c4 -3 14 -7 22 -8 9 -1 13 0 10 4 -4 3 -14 7 -22 8 -9 1
-13 0 -10 -4z"/>
<path d="M390 220 c12 -7 12 -12 2 -22 -17 -17 -15 -28 6 -28 13 0 14 2 3 9
-9 6 -10 11 -2 15 17 11 13 36 -6 36 -15 0 -16 -2 -3 -10z"/>
<path d="M423 206 c1 -17 9 -31 17 -33 10 -3 11 -2 4 4 -7 4 -14 19 -17 33 -4
22 -5 21 -4 -4z"/>
<path d="M447 209 c4 -13 8 -18 11 -10 2 7 -1 18 -6 23 -8 8 -9 4 -5 -13z"/>
<path d="M475 200 c0 -16 3 -30 8 -30 4 0 7 14 7 30 0 17 -3 30 -7 30 -5 0 -8
-13 -8 -30z"/>
<path d="M517 223 c-11 -10 -8 -41 3 -48 6 -4 16 -2 23 3 7 6 23 12 37 14 21
3 19 5 -11 9 -27 3 -35 1 -32 -8 3 -7 0 -13 -7 -13 -8 0 -11 9 -8 25 6 27 5
29 -5 18z"/>
<path d="M613 206 c1 -17 9 -31 17 -33 10 -3 11 -2 4 4 -7 4 -14 19 -17 33 -4
22 -5 21 -4 -4z"/>
<path d="M637 209 c4 -13 8 -18 11 -10 2 7 -1 18 -6 23 -8 8 -9 4 -5 -13z"/>
<path d="M770 220 c12 -7 12 -12 2 -22 -17 -17 -15 -28 6 -28 13 0 14 2 3 9
-9 6 -10 11 -2 15 17 11 13 36 -6 36 -15 0 -16 -2 -3 -10z"/>
<path d="M804 200 c1 -32 30 -34 32 -2 1 18 1 19 -3 2 -6 -27 -21 -25 -26 3
-3 19 -4 19 -3 -3z"/>
<path d="M855 200 c0 -16 5 -30 11 -30 6 0 9 13 6 30 -2 17 -7 30 -11 30 -3 0
-6 -13 -6 -30z"/>
<path d="M897 223 c-11 -10 -8 -41 4 -49 6 -3 16 -1 22 5 6 6 22 11 36 11 31
0 25 5 -16 13 -26 5 -31 3 -26 -8 3 -8 0 -15 -7 -15 -8 0 -11 9 -8 25 6 27 5
29 -5 18z"/>
<path d="M993 206 c1 -17 9 -31 17 -33 10 -3 11 -2 4 4 -7 4 -14 19 -17 33 -4
22 -5 21 -4 -4z"/>
<path d="M1017 210 c3 -11 9 -20 15 -20 5 0 4 9 -2 20 -6 11 -12 20 -14 20 -2
0 -2 -9 1 -20z"/>
<path d="M1160 220 c12 -7 12 -12 2 -22 -17 -17 -15 -28 6 -28 13 0 14 2 3 9
-9 6 -10 11 -2 15 17 11 13 36 -6 36 -15 0 -16 -2 -3 -10z"/>
<path d="M1194 200 c1 -32 30 -34 32 -2 1 18 1 19 -3 2 -6 -27 -21 -25 -26 3
-3 19 -4 19 -3 -3z"/>
<path d="M1245 200 c0 -16 5 -30 11 -30 6 0 9 13 6 30 -2 17 -7 30 -11 30 -3
0 -6 -13 -6 -30z"/>
<path d="M1287 223 c-11 -10 -8 -41 3 -48 6 -4 16 -2 23 3 7 6 23 12 37 14 21
3 19 5 -11 9 -27 3 -35 1 -32 -8 3 -7 0 -13 -7 -13 -8 0 -11 9 -8 25 6 27 5
29 -5 18z"/>
<path d="M1383 206 c1 -17 9 -31 17 -33 10 -3 11 -2 4 4 -7 4 -14 19 -17 33
-4 22 -5 21 -4 -4z"/>
<path d="M1409 205 c5 -18 6 -18 9 -2 3 13 10 17 23 14 10 -3 19 -1 19 4 0 5
-13 8 -29 7 -23 -2 -27 -6 -22 -23z"/>
<path d="M1550 220 c12 -7 12 -12 2 -22 -17 -17 -15 -28 6 -28 13 0 14 2 3 9
-9 6 -10 11 -2 15 17 11 13 36 -6 36 -15 0 -16 -2 -3 -10z"/>
<path d="M1584 200 c1 -32 30 -34 32 -2 1 18 1 19 -3 2 -6 -27 -21 -25 -26 3
-3 19 -4 19 -3 -3z"/>
<path d="M1635 200 c0 -16 3 -30 8 -30 4 0 7 14 7 30 0 17 -3 30 -7 30 -5 0
-8 -13 -8 -30z"/>
<path d="M1677 223 c-11 -10 -8 -41 3 -48 6 -4 16 -2 23 3 7 6 23 12 37 14 21
3 19 5 -11 9 -27 3 -35 1 -32 -8 3 -7 0 -13 -7 -13 -8 0 -11 9 -8 25 6 27 5
29 -5 18z"/>
<path d="M1780 200 c0 -16 4 -30 8 -30 5 0 7 14 4 30 -2 17 -6 30 -8 30 -2 0
-4 -13 -4 -30z"/>
<path d="M1814 215 c-8 -21 3 -48 19 -43 6 3 13 17 13 31 1 26 1 26 -3 2 -2
-14 -9 -25 -15 -25 -6 0 -8 11 -6 25 6 28 1 33 -8 10z"/>
<path d="M1940 220 c12 -7 12 -12 2 -22 -17 -17 -15 -28 6 -28 13 0 14 2 3 9
-9 6 -10 11 -2 15 17 11 13 36 -6 36 -15 0 -16 -2 -3 -10z"/>
<path d="M1973 206 c1 -17 9 -31 17 -33 10 -3 11 -2 4 4 -7 4 -14 19 -17 33
-4 22 -5 21 -4 -4z"/>
<path d="M1997 209 c4 -13 8 -18 11 -10 2 7 -1 18 -6 23 -8 8 -9 4 -5 -13z"/>
<path d="M2025 200 c0 -16 3 -30 8 -30 4 0 7 14 7 30 0 17 -3 30 -7 30 -5 0
-8 -13 -8 -30z"/>
<path d="M2066 223 c5 -5 12 -12 16 -18 4 -6 8 -2 8 8 0 9 -7 17 -17 17 -9 0
-12 -3 -7 -7z"/>
<path d="M2163 206 c1 -17 9 -31 17 -33 10 -3 11 -2 4 4 -7 4 -14 19 -17 33
-4 22 -5 21 -4 -4z"/>
<path d="M2187 209 c4 -13 8 -18 11 -10 2 7 -1 18 -6 23 -8 8 -9 4 -5 -13z"/>
<path d="M2323 217 c0 -9 4 -14 8 -11 4 2 10 -5 14 -16 6 -20 35 -28 35 -10 0
6 -4 9 -9 8 -4 -2 -17 8 -28 21 -15 18 -20 20 -20 8z"/>
<path d="M2370 221 c0 -6 4 -13 10 -16 6 -3 7 1 4 9 -7 18 -14 21 -14 7z"/>
<path d="M2440 226 c0 -2 7 -6 15 -10 8 -3 15 -1 15 4 0 6 -7 10 -15 10 -8 0
-15 -2 -15 -4z"/>
<path d="M2534 215 c-4 -8 -18 -16 -33 -16 l-26 -2 25 -4 c14 -3 31 -10 38
-16 18 -15 35 5 29 34 -4 22 -4 22 -6 -3 0 -16 -6 -28 -12 -28 -7 0 -9 10 -7
25 6 28 1 33 -8 10z"/>
<path d="M2589 213 c-8 -9 -9 -14 -2 -10 7 5 13 -1 16 -15 3 -17 5 -14 6 10 1
37 -1 39 -20 15z"/>
<path d="M2713 217 c0 -9 4 -14 8 -11 4 2 10 -5 14 -16 6 -20 35 -28 35 -10 0
6 -4 9 -9 8 -4 -2 -17 8 -28 21 -15 18 -20 20 -20 8z"/>
<path d="M2760 221 c0 -6 4 -13 10 -16 6 -3 7 1 4 9 -7 18 -14 21 -14 7z"/>
<path d="M2830 226 c0 -2 7 -6 15 -10 8 -3 15 -1 15 4 0 6 -7 10 -15 10 -8 0
-15 -2 -15 -4z"/>
<path d="M2924 215 c-4 -8 -18 -16 -33 -16 l-26 -2 25 -4 c14 -3 31 -10 38
-16 18 -15 35 5 29 34 -4 22 -4 22 -6 -3 0 -16 -6 -28 -12 -28 -7 0 -9 10 -7
25 6 28 1 33 -8 10z"/>
<path d="M2976 223 c5 -5 12 -12 16 -18 4 -6 8 -2 8 8 0 9 -7 17 -17 17 -9 0
-12 -3 -7 -7z"/>
<path d="M3103 217 c0 -9 4 -14 8 -11 4 2 10 -5 14 -16 6 -20 35 -28 35 -10 0
6 -4 9 -9 8 -4 -2 -17 8 -28 21 -15 18 -20 20 -20 8z"/>
<path d="M3150 221 c0 -6 4 -13 10 -16 6 -3 7 1 4 9 -7 18 -14 21 -14 7z"/>
<path d="M3220 226 c0 -2 7 -6 15 -10 8 -3 15 -1 15 4 0 6 -7 10 -15 10 -8 0
-15 -2 -15 -4z"/>
<path d="M3325 200 c0 -16 3 -30 8 -30 4 0 7 14 7 30 0 17 -3 30 -7 30 -5 0
-8 -13 -8 -30z"/>
<path d="M3363 206 c1 -17 9 -31 17 -33 10 -3 11 -2 4 4 -7 4 -14 19 -17 33
-4 22 -5 21 -4 -4z"/>
<path d="M3387 209 c4 -13 8 -18 11 -10 2 7 -1 18 -6 23 -8 8 -9 4 -5 -13z"/>
<path d="M2113 193 c9 -2 23 -2 30 0 6 3 -1 5 -18 5 -16 0 -22 -2 -12 -5z"/>
<path d="M2451 184 c0 -11 3 -14 6 -6 3 7 2 16 -1 19 -3 4 -6 -2 -5 -13z"/>
<path d="M2841 184 c0 -11 3 -14 6 -6 3 7 2 16 -1 19 -3 4 -6 -2 -5 -13z"/>
<path d="M3231 184 c0 -11 3 -14 6 -6 3 7 2 16 -1 19 -3 4 -6 -2 -5 -13z"/>
<path d="M3273 193 c9 -2 23 -2 30 0 6 3 -1 5 -18 5 -16 0 -22 -2 -12 -5z"/>
<path d="M2308 173 c6 -2 18 -2 25 0 6 3 1 5 -13 5 -14 0 -19 -2 -12 -5z"/>
<path d="M2698 173 c6 -2 18 -2 25 0 6 3 1 5 -13 5 -14 0 -19 -2 -12 -5z"/>
<path d="M3088 173 c6 -2 18 -2 25 0 6 3 1 5 -13 5 -14 0 -19 -2 -12 -5z"/>
<path d="M1990 77 c0 -43 -17 -50 -23 -9 -4 25 -4 25 -6 -5 -1 -28 2 -33 22
-33 21 0 23 4 20 36 -3 49 -13 57 -13 11z"/>
<path d="M1740 95 c0 -2 9 -19 21 -37 12 -18 18 -24 14 -13 -4 11 -10 28 -12
38 -5 15 -23 25 -23 12z"/>
<path d="M1799 98 c-6 -20 -2 -68 6 -68 6 0 10 16 10 35 0 19 -3 35 -7 35 -5
0 -8 -1 -9 -2z"/>
<path d="M1833 64 c-7 -20 11 -38 31 -31 17 7 23 47 7 47 -5 0 -7 -10 -4 -21
4 -16 2 -20 -8 -17 -8 3 -13 13 -13 22 2 20 -5 21 -13 0z"/>
<path d="M1895 55 c0 -14 3 -25 8 -25 4 0 7 9 7 20 0 11 5 20 11 20 6 0 9 -9
6 -20 -3 -12 0 -20 8 -20 8 0 11 9 7 25 -3 17 -11 25 -26 25 -16 0 -21 -6 -21
-25z"/>
<path d="M2020 56 c0 -14 5 -26 10 -26 6 0 10 9 10 19 0 11 -4 23 -10 26 -6 4
-10 -5 -10 -19z"/>
</g>
</svg>
