<?xml version="1.0" standalone="no"?>
<!DOCTYPE svg PUBLIC "-//W3C//DTD SVG 20010904//EN"
 "http://www.w3.org/TR/2001/REC-SVG-20010904/DTD/svg10.dtd">
<svg version="1.0" xmlns="http://www.w3.org/2000/svg"
 width="509.000000pt" height="241.000000pt" viewBox="0 0 509.000000 241.000000"
 preserveAspectRatio="xMidYMid meet">
<metadata>
Created by potrace 1.16, written by Peter Selinger 2001-2019
</metadata>
<g transform="translate(0.000000,241.000000) scale(0.100000,-0.100000)"
fill="#000000" stroke="none">
<path d="M1082 2140 c0 -19 2 -27 5 -17 2 9 2 25 0 35 -3 9 -5 1 -5 -18z"/>
<path d="M1100 2159 c0 -8 7 -23 15 -33 11 -14 15 -16 15 -5 0 8 -7 23 -15 33
-11 14 -15 16 -15 5z"/>
<path d="M1156 2157 c3 -10 9 -15 12 -12 3 3 0 11 -7 18 -10 9 -11 8 -5 -6z"/>
<path d="M1183 2143 c-7 -15 -11 -29 -8 -31 3 -3 5 1 5 9 0 11 2 11 10 -1 7
-11 10 -7 10 18 0 39 -2 39 -17 5z"/>
<path d="M1262 2140 c0 -19 2 -27 5 -17 2 9 2 25 0 35 -3 9 -5 1 -5 -18z"/>
<path d="M1342 2140 c0 -19 2 -27 5 -17 2 9 2 25 0 35 -3 9 -5 1 -5 -18z"/>
<path d="M1680 2166 c0 -2 7 -6 15 -10 8 -3 15 -1 15 4 0 6 -7 10 -15 10 -8 0
-15 -2 -15 -4z"/>
<path d="M3645 2140 c-9 -16 -13 -30 -11 -30 3 0 12 14 21 30 9 17 13 30 11
30 -3 0 -12 -13 -21 -30z"/>
<path d="M3691 2140 c0 -33 1 -34 10 -11 6 16 6 28 -1 35 -7 7 -10 -1 -9 -24z"/>
<path d="M3727 2158 c-2 -7 -1 -22 4 -33 6 -16 8 -14 8 13 1 33 -4 41 -12 20z"/>
<path d="M3882 2140 c0 -19 2 -27 5 -17 2 9 2 25 0 35 -3 9 -5 1 -5 -18z"/>
<path d="M4038 2140 c2 -16 6 -30 8 -30 2 0 4 14 4 30 0 17 -4 30 -8 30 -5 0
-7 -13 -4 -30z"/>
<path d="M4212 2140 c0 -19 2 -27 5 -17 2 9 2 25 0 35 -3 9 -5 1 -5 -18z"/>
<path d="M4235 2140 c0 -15 3 -26 8 -23 4 2 7 13 7 23 0 10 -3 21 -7 23 -5 3
-8 -8 -8 -23z"/>
<path d="M1052 2138 c7 -15 15 -23 17 -17 2 6 -4 18 -13 27 -15 15 -15 15 -4
-10z"/>
<path d="M1392 2135 c0 -16 2 -22 5 -12 2 9 2 23 0 30 -3 6 -5 -1 -5 -18z"/>
<path d="M1642 2135 c0 -16 2 -22 5 -12 2 9 2 23 0 30 -3 6 -5 -1 -5 -18z"/>
<path d="M1752 2135 c0 -16 2 -22 5 -12 2 9 2 23 0 30 -3 6 -5 -1 -5 -18z"/>
<path d="M3932 2135 c0 -16 2 -22 5 -12 2 9 2 23 0 30 -3 6 -5 -1 -5 -18z"/>
<path d="M1212 2130 c0 -14 2 -19 5 -12 2 6 2 18 0 25 -3 6 -5 1 -5 -13z"/>
<path d="M1285 2140 c-3 -5 -1 -10 4 -10 6 0 11 5 11 10 0 6 -2 10 -4 10 -3 0
-8 -4 -11 -10z"/>
<path d="M1546 2135 c-9 -26 -7 -32 5 -12 6 10 9 21 6 23 -2 3 -7 -2 -11 -11z"/>
<path d="M1603 2143 c-23 -4 -33 -33 -12 -33 5 0 7 5 4 10 -3 6 -1 10 4 10 6
0 11 -4 11 -10 0 -19 16 -10 17 10 1 11 1 19 0 19 -1 -1 -12 -4 -24 -6z"/>
<path d="M1710 2135 c-7 -9 -10 -18 -6 -22 3 -3 6 0 6 8 0 12 2 11 11 -1 9
-13 10 -13 6 2 -3 9 -1 19 6 22 8 3 8 5 1 5 -6 1 -17 -6 -24 -14z"/>
<path d="M1774 2130 c0 -11 4 -20 8 -20 4 0 8 9 8 20 0 11 -4 20 -8 20 -4 0
-8 -9 -8 -20z"/>
<path d="M3540 2146 c0 -2 8 -10 18 -17 15 -13 16 -12 3 4 -13 16 -21 21 -21
13z"/>
<path d="M3816 2135 c-21 -21 -21 -20 12 -22 16 0 20 1 8 4 -15 4 -16 7 -5 13
7 5 11 12 7 15 -3 3 -13 -1 -22 -10z"/>
<path d="M3912 2130 c0 -14 2 -19 5 -12 2 6 2 18 0 25 -3 6 -5 1 -5 -13z"/>
<path d="M3982 2130 c0 -14 2 -19 5 -12 2 6 2 18 0 25 -3 6 -5 1 -5 -13z"/>
<path d="M4125 2140 c-3 -5 -1 -10 4 -10 6 0 11 5 11 10 0 6 -2 10 -4 10 -3 0
-8 -4 -11 -10z"/>
<path d="M4155 2140 c-3 -5 -1 -10 4 -10 6 0 11 5 11 10 0 6 -2 10 -4 10 -3 0
-8 -4 -11 -10z"/>
<path d="M4267 2130 c-3 -11 -1 -20 4 -20 5 0 9 9 9 20 0 11 -2 20 -4 20 -2 0
-6 -9 -9 -20z"/>
<path d="M4290 2130 c0 -11 4 -20 9 -20 5 0 7 9 4 20 -3 11 -7 20 -9 20 -2 0
-4 -9 -4 -20z"/>
<path d="M4322 2130 c0 -14 2 -19 5 -12 2 6 2 18 0 25 -3 6 -5 1 -5 -13z"/>
<path d="M1230 2130 c0 -5 5 -10 10 -10 6 0 10 5 10 10 0 6 -4 10 -10 10 -5 0
-10 -4 -10 -10z"/>
<path d="M1436 2123 c-6 -14 -5 -15 5 -6 7 7 10 15 7 18 -3 3 -9 -2 -12 -12z"/>
<path d="M3770 2131 c0 -6 5 -13 10 -16 6 -3 10 1 10 9 0 9 -4 16 -10 16 -5 0
-10 -4 -10 -9z"/>
<path d="M362 2040 c0 -19 2 -27 5 -17 2 9 2 25 0 35 -3 9 -5 1 -5 -18z"/>
<path d="M402 2040 c0 -19 2 -27 5 -17 2 9 2 25 0 35 -3 9 -5 1 -5 -18z"/>
<path d="M475 2047 c-4 -10 -5 -21 -1 -24 10 -10 18 4 13 24 -4 17 -4 17 -12
0z"/>
<path d="M502 2040 c0 -14 2 -19 5 -12 2 6 2 18 0 25 -3 6 -5 1 -5 -13z"/>
<path d="M2932 2040 c0 -14 2 -19 5 -12 2 6 2 18 0 25 -3 6 -5 1 -5 -13z"/>
<path d="M3002 2040 c0 -14 2 -19 5 -12 2 6 2 18 0 25 -3 6 -5 1 -5 -13z"/>
<path d="M3021 2034 c0 -11 3 -14 6 -6 3 7 2 16 -1 19 -3 4 -6 -2 -5 -13z"/>
<path d="M2200 2009 c-19 -16 -46 -32 -60 -36 -14 -3 -55 -30 -91 -59 -36 -30
-72 -54 -79 -54 -8 0 -27 -4 -44 -9 -17 -6 -78 -24 -136 -42 -172 -51 -307
-128 -448 -255 -61 -54 -199 -134 -232 -134 -20 0 -60 -28 -60 -41 0 -6 7 -3
16 5 8 9 23 16 32 16 8 0 47 16 86 36 l71 36 -26 -28 c-14 -16 -79 -90 -144
-164 -133 -151 -228 -254 -235 -256 -3 0 -36 -31 -75 -69 -59 -58 -104 -92
-231 -172 -11 -6 -14 -12 -7 -12 6 -1 49 24 95 55 46 31 94 58 108 61 32 6 48
19 70 62 10 20 30 47 45 61 15 14 103 111 195 215 186 212 214 240 249 250 13
4 45 20 70 34 25 15 59 31 75 35 16 4 50 25 75 46 26 22 66 46 91 55 24 9 54
24 65 34 34 30 91 61 114 61 23 0 67 27 116 72 30 27 58 33 305 61 19 3 -8 3
-60 0 -52 -2 -106 -7 -120 -9 -27 -6 -31 -10 66 77 12 10 30 19 39 19 16 0
115 66 115 76 0 10 -18 1 -50 -27z m-316 -200 c-23 -26 -86 -59 -112 -59 -10
0 -45 -19 -78 -41 -32 -23 -73 -46 -90 -50 -16 -5 -54 -29 -83 -54 -29 -25
-62 -45 -73 -45 -11 0 -47 -16 -80 -35 -33 -20 -62 -34 -65 -32 -7 8 130 127
200 173 91 60 181 102 292 136 110 33 113 33 89 7z m-1094 -879 c-6 -11 -18
-20 -27 -20 -14 0 -14 2 2 20 10 11 22 20 27 20 5 0 4 -9 -2 -20z"/>
<path d="M4722 2015 c-17 -14 -45 -31 -64 -37 -18 -6 -57 -31 -85 -55 -34 -28
-81 -55 -130 -73 -203 -74 -384 -167 -542 -279 -103 -73 -245 -150 -277 -151
-11 0 -31 -12 -45 -27 -17 -20 -18 -23 -3 -10 11 9 30 17 42 17 12 0 48 14 80
32 l57 32 -60 -54 c-83 -76 -204 -203 -263 -277 -27 -34 -53 -59 -57 -55 -3 4
-5 2 -3 -4 1 -7 -19 -42 -46 -78 -26 -37 -46 -69 -43 -72 2 -3 14 10 26 28 11
18 21 29 21 25 0 -16 -42 -67 -50 -62 -5 3 -17 -7 -26 -22 -80 -129 -166 -250
-185 -258 -12 -5 -25 -17 -27 -25 -4 -12 0 -11 21 3 15 9 32 17 38 17 16 0
116 77 123 95 3 8 -20 -6 -50 -30 -56 -46 -71 -55 -57 -32 83 128 116 177 123
177 4 0 10 10 14 23 3 13 16 28 29 34 15 7 38 40 61 86 68 136 372 461 456
488 19 6 57 25 85 41 27 17 63 33 79 35 16 3 52 24 80 49 27 24 64 46 80 50
17 4 59 26 92 50 34 24 71 44 83 44 24 0 82 34 124 74 15 14 38 26 51 26 13 0
29 6 35 14 7 8 66 29 131 47 66 18 120 36 120 40 0 8 -108 -19 -164 -41 -16
-6 -30 -9 -32 -7 -7 7 75 67 92 67 14 0 114 68 114 77 0 10 -23 -1 -48 -22z
m-351 -224 c-18 -16 -49 -32 -70 -36 -20 -4 -64 -27 -98 -51 -34 -24 -71 -44
-82 -44 -11 0 -47 -22 -80 -50 -33 -27 -69 -50 -80 -50 -11 0 -48 -16 -81 -36
-34 -20 -63 -34 -65 -32 -6 6 154 116 246 169 87 50 316 159 334 159 5 -1 -5
-14 -24 -29z"/>
<path d="M790 1996 c0 -2 7 -7 16 -10 8 -3 12 -2 9 4 -6 10 -25 14 -25 6z"/>
<path d="M3128 1993 c6 -2 18 -2 25 0 6 3 1 5 -13 5 -14 0 -19 -2 -12 -5z"/>
<path d="M3330 1965 c0 -19 2 -35 4 -35 2 0 6 16 8 35 2 19 0 35 -4 35 -4 0
-8 -16 -8 -35z"/>
<path d="M752 1965 c0 -16 2 -22 5 -12 2 9 2 23 0 30 -3 6 -5 -1 -5 -18z"/>
<path d="M862 1965 c0 -16 2 -22 5 -12 2 9 2 23 0 30 -3 6 -5 -1 -5 -18z"/>
<path d="M656 1965 c-9 -26 -7 -32 5 -12 6 10 9 21 6 23 -2 3 -7 -2 -11 -11z"/>
<path d="M697 1973 c-4 -3 -7 -13 -7 -22 1 -13 3 -13 11 2 11 19 8 33 -4 20z"/>
<path d="M725 1970 c-3 -5 -1 -10 4 -10 6 0 11 5 11 10 0 6 -2 10 -4 10 -3 0
-8 -4 -11 -10z"/>
<path d="M835 1970 c3 -5 8 -10 11 -10 2 0 4 5 4 10 0 6 -5 10 -11 10 -5 0 -7
-4 -4 -10z"/>
<path d="M887 1960 c3 -11 7 -20 9 -20 2 0 4 9 4 20 0 11 -4 20 -9 20 -5 0 -7
-9 -4 -20z"/>
<path d="M3292 1955 c0 -16 2 -22 5 -12 2 9 2 23 0 30 -3 6 -5 -1 -5 -18z"/>
<path d="M3220 1951 c0 -11 4 -22 9 -25 4 -3 6 6 3 19 -5 30 -12 33 -12 6z"/>
<path d="M3247 1949 c4 -13 8 -18 11 -10 2 7 -1 18 -6 23 -8 8 -9 4 -5 -13z"/>
<path d="M3383 1949 c-2 -23 3 -25 10 -4 4 8 3 16 -1 19 -4 3 -9 -4 -9 -15z"/>
<path d="M3452 1950 c0 -14 2 -19 5 -12 2 6 2 18 0 25 -3 6 -5 1 -5 -13z"/>
<path d="M3190 1950 c0 -5 5 -10 11 -10 5 0 7 5 4 10 -3 6 -8 10 -11 10 -2 0
-4 -4 -4 -10z"/>
<path d="M396 1857 c3 -10 9 -15 12 -12 3 3 0 11 -7 18 -10 9 -11 8 -5 -6z"/>
<path d="M553 1863 c9 -2 23 -2 30 0 6 3 -1 5 -18 5 -16 0 -22 -2 -12 -5z"/>
<path d="M642 1850 c0 -14 2 -19 5 -12 2 6 2 18 0 25 -3 6 -5 1 -5 -13z"/>
<path d="M3123 1835 c0 -22 2 -30 4 -17 2 12 2 30 0 40 -3 9 -5 -1 -4 -23z"/>
<path d="M362 1835 c0 -16 2 -22 5 -12 2 9 2 23 0 30 -3 6 -5 -1 -5 -18z"/>
<path d="M502 1835 c0 -16 2 -22 5 -12 2 9 2 23 0 30 -3 6 -5 -1 -5 -18z"/>
<path d="M3002 1835 c0 -16 2 -22 5 -12 2 9 2 23 0 30 -3 6 -5 -1 -5 -18z"/>
<path d="M470 1835 c0 -8 5 -15 10 -15 6 0 10 7 10 15 0 8 -4 15 -10 15 -5 0
-10 -7 -10 -15z"/>
<path d="M2927 1831 c-4 -17 -3 -21 5 -13 5 5 8 16 6 23 -3 8 -7 3 -11 -10z"/>
<path d="M3021 1834 c0 -11 3 -14 6 -6 3 7 2 16 -1 19 -3 4 -6 -2 -5 -13z"/>
<path d="M3060 1840 c0 -5 11 -10 25 -10 14 0 25 5 25 10 0 6 -11 10 -25 10
-14 0 -25 -4 -25 -10z"/>
<path d="M3180 1831 c0 -11 3 -22 8 -24 4 -3 7 6 7 19 0 13 -3 24 -7 24 -5 0
-8 -9 -8 -19z"/>
<path d="M293 1763 c0 -7 4 -13 8 -13 4 0 9 6 12 13 3 8 0 14 -7 14 -7 0 -13
-6 -13 -14z"/>
<path d="M2817 1767 c-3 -8 0 -14 7 -14 7 0 13 6 13 14 0 7 -4 13 -8 13 -4 0
-9 -6 -12 -13z"/>
<path d="M288 1723 c6 -2 18 -2 25 0 6 3 1 5 -13 5 -14 0 -19 -2 -12 -5z"/>
<path d="M2808 1723 c6 -2 18 -2 25 0 6 3 1 5 -13 5 -14 0 -19 -2 -12 -5z"/>
<path d="M2830 1698 c0 -9 -6 -19 -12 -21 -10 -4 -10 -6 0 -6 14 -1 28 26 18
36 -3 4 -6 -1 -6 -9z"/>
<path d="M362 1630 c0 -19 2 -27 5 -17 2 9 2 25 0 35 -3 9 -5 1 -5 -18z"/>
<path d="M2822 1645 c-11 -12 -10 -15 3 -15 8 0 15 7 15 15 0 18 -2 18 -18 0z"/>
<path d="M475 1637 c-4 -10 -5 -21 -1 -24 10 -10 18 4 13 24 -4 17 -4 17 -12
0z"/>
<path d="M502 1630 c0 -14 2 -19 5 -12 2 6 2 18 0 25 -3 6 -5 1 -5 -13z"/>
<path d="M2902 1630 c0 -14 2 -19 5 -12 2 6 2 18 0 25 -3 6 -5 1 -5 -13z"/>
<path d="M2920 1630 c0 -11 5 -20 10 -20 6 0 10 9 10 20 0 11 -4 20 -10 20 -5
0 -10 -9 -10 -20z"/>
<path d="M3002 1630 c0 -14 2 -19 5 -12 2 6 2 18 0 25 -3 6 -5 1 -5 -13z"/>
<path d="M3022 1630 c0 -14 2 -19 5 -12 2 6 2 18 0 25 -3 6 -5 1 -5 -13z"/>
<path d="M298 1633 c7 -3 16 -2 19 1 4 3 -2 6 -13 5 -11 0 -14 -3 -6 -6z"/>
<path d="M381 1624 c0 -11 3 -14 6 -6 3 7 2 16 -1 19 -3 4 -6 -2 -5 -13z"/>
<path d="M300 1595 c-11 -13 -10 -14 4 -9 9 3 16 10 16 15 0 13 -6 11 -20 -6z"/>
<path d="M300 1570 c-8 -5 -12 -12 -9 -15 4 -3 12 1 19 10 14 17 11 19 -10 5z"/>
<path d="M2820 1570 c-9 -6 -10 -10 -3 -10 6 0 15 5 18 10 8 12 4 12 -15 0z"/>
<path d="M283 1513 c9 -2 23 -2 30 0 6 3 -1 5 -18 5 -16 0 -22 -2 -12 -5z"/>
<path d="M2803 1513 c9 -2 23 -2 30 0 6 3 -1 5 -18 5 -16 0 -22 -2 -12 -5z"/>
<path d="M283 1443 c9 -2 23 -2 30 0 6 3 -1 5 -18 5 -16 0 -22 -2 -12 -5z"/>
<path d="M397 1437 c-3 -8 -2 -20 3 -26 5 -9 8 -4 8 13 0 29 -3 32 -11 13z"/>
<path d="M2803 1443 c9 -2 23 -2 30 0 6 3 -1 5 -18 5 -16 0 -22 -2 -12 -5z"/>
<path d="M2903 1424 c0 -17 2 -22 7 -13 5 6 6 18 3 26 -8 19 -10 16 -10 -13z"/>
<path d="M3002 1425 c0 -16 2 -22 5 -12 2 9 2 23 0 30 -3 6 -5 -1 -5 -18z"/>
<path d="M470 1425 c0 -8 5 -15 10 -15 6 0 10 7 10 15 0 8 -4 15 -10 15 -5 0
-10 -7 -10 -15z"/>
<path d="M502 1420 c0 -14 2 -19 5 -12 2 6 2 18 0 25 -3 6 -5 1 -5 -13z"/>
<path d="M2927 1421 c-4 -17 -3 -21 5 -13 5 5 8 16 6 23 -3 8 -7 3 -11 -10z"/>
<path d="M3021 1424 c0 -11 3 -14 6 -6 3 7 2 16 -1 19 -3 4 -6 -2 -5 -13z"/>
<path d="M2806 1418 c3 -4 12 -8 20 -8 8 0 14 4 14 8 0 4 -9 8 -19 8 -11 0
-17 -4 -15 -8z"/>
<path d="M298 1413 c7 -3 16 -2 19 1 4 3 -2 6 -13 5 -11 0 -14 -3 -6 -6z"/>
<path d="M2830 1388 c0 -9 -6 -19 -12 -21 -10 -4 -10 -6 0 -6 14 -1 28 26 18
36 -3 4 -6 -1 -6 -9z"/>
<path d="M1021 1320 c-33 -59 -70 -100 -91 -100 -10 0 -23 -6 -29 -14 -10 -12
-6 -12 26 -1 24 8 48 27 66 51 34 49 60 95 55 100 -3 2 -15 -14 -27 -36z"/>
<path d="M288 1343 c6 -2 18 -2 25 0 6 3 1 5 -13 5 -14 0 -19 -2 -12 -5z"/>
<path d="M2808 1343 c6 -2 18 -2 25 0 6 3 1 5 -13 5 -14 0 -19 -2 -12 -5z"/>
<path d="M298 1313 c7 -3 16 -2 19 1 4 3 -2 6 -13 5 -11 0 -14 -3 -6 -6z"/>
<path d="M2808 1313 c6 -2 18 -2 25 0 6 3 1 5 -13 5 -14 0 -19 -2 -12 -5z"/>
<path d="M3503 1268 c-18 -28 -38 -44 -53 -46 -30 -5 -50 -20 -50 -38 0 -10 6
-8 20 6 11 11 26 20 34 20 16 0 92 87 83 96 -2 3 -18 -14 -34 -38z"/>
<path d="M2818 1293 c7 -3 16 -2 19 1 4 3 -2 6 -13 5 -11 0 -14 -3 -6 -6z"/>
<path d="M283 1263 c9 -2 23 -2 30 0 6 3 -1 5 -18 5 -16 0 -22 -2 -12 -5z"/>
<path d="M298 1243 c7 -3 16 -2 19 1 4 3 -2 6 -13 5 -11 0 -14 -3 -6 -6z"/>
<path d="M2810 1246 c0 -2 7 -6 15 -10 8 -3 15 -1 15 4 0 6 -7 10 -15 10 -8 0
-15 -2 -15 -4z"/>
<path d="M475 1227 c-4 -10 -5 -21 -1 -24 10 -10 18 4 13 24 -4 17 -4 17 -12
0z"/>
<path d="M502 1220 c0 -14 2 -19 5 -12 2 6 2 18 0 25 -3 6 -5 1 -5 -13z"/>
<path d="M3002 1215 c0 -16 2 -22 5 -12 2 9 2 23 0 30 -3 6 -5 -1 -5 -18z"/>
<path d="M2902 1210 c0 -14 2 -19 5 -12 2 6 2 18 0 25 -3 6 -5 1 -5 -13z"/>
<path d="M2926 1221 c-4 -7 -5 -15 -2 -18 9 -9 19 4 14 18 -4 11 -6 11 -12 0z"/>
<path d="M3021 1214 c0 -11 3 -14 6 -6 3 7 2 16 -1 19 -3 4 -6 -2 -5 -13z"/>
<path d="M298 1213 c7 -3 16 -2 19 1 4 3 -2 6 -13 5 -11 0 -14 -3 -6 -6z"/>
<path d="M2818 1213 c7 -3 16 -2 19 1 4 3 -2 6 -13 5 -11 0 -14 -3 -6 -6z"/>
<path d="M298 1183 c7 -3 16 -2 19 1 4 3 -2 6 -13 5 -11 0 -14 -3 -6 -6z"/>
<path d="M2808 1183 c6 -2 18 -2 25 0 6 3 1 5 -13 5 -14 0 -19 -2 -12 -5z"/>
<path d="M298 1163 c7 -3 16 -2 19 1 4 3 -2 6 -13 5 -11 0 -14 -3 -6 -6z"/>
<path d="M2806 1161 c-4 -5 3 -7 14 -4 23 6 26 13 6 13 -8 0 -17 -4 -20 -9z"/>
<path d="M298 1133 c7 -3 16 -2 19 1 4 3 -2 6 -13 5 -11 0 -14 -3 -6 -6z"/>
<path d="M2808 1133 c6 -2 18 -2 25 0 6 3 1 5 -13 5 -14 0 -19 -2 -12 -5z"/>
<path d="M298 1103 c7 -3 16 -2 19 1 4 3 -2 6 -13 5 -11 0 -14 -3 -6 -6z"/>
<path d="M2808 1103 c6 -2 18 -2 25 0 6 3 1 5 -13 5 -14 0 -19 -2 -12 -5z"/>
<path d="M298 1083 c7 -3 16 -2 19 1 4 3 -2 6 -13 5 -11 0 -14 -3 -6 -6z"/>
<path d="M2806 1081 c-4 -5 3 -7 14 -4 23 6 26 13 6 13 -8 0 -17 -4 -20 -9z"/>
<path d="M3978 1073 c6 -2 18 -2 25 0 6 3 1 5 -13 5 -14 0 -19 -2 -12 -5z"/>
<path d="M4177 1064 c-10 -10 -9 -62 2 -68 14 -9 33 21 29 45 -3 23 -19 35
-31 23z m23 -28 c0 -14 -4 -28 -10 -31 -6 -4 -10 7 -10 24 0 17 5 31 10 31 6
0 10 -11 10 -24z"/>
<path d="M4240 1036 c0 -19 4 -37 9 -40 13 -9 33 21 28 41 -4 14 -5 14 -6 -4
-2 -34 -21 -38 -21 -4 0 16 6 32 13 34 7 3 5 6 -5 6 -14 1 -18 -7 -18 -33z"/>
<path d="M4290 1052 c0 -10 7 -19 15 -19 10 0 12 4 4 13 -7 8 -6 14 3 17 8 4
7 6 -4 6 -11 1 -18 -6 -18 -17z"/>
<path d="M4330 1060 c0 -5 7 -7 15 -4 8 4 15 8 15 10 0 2 -7 4 -15 4 -8 0 -15
-4 -15 -10z"/>
<path d="M298 1053 c7 -3 16 -2 19 1 4 3 -2 6 -13 5 -11 0 -14 -3 -6 -6z"/>
<path d="M1511 1023 c1 -21 3 -30 6 -21 2 9 12 19 21 21 15 4 15 5 0 6 -10 0
-18 5 -18 10 0 5 8 12 18 14 13 4 11 5 -5 6 -20 1 -23 -4 -22 -36z"/>
<path d="M1700 1052 c0 -5 7 -9 15 -9 8 0 15 4 15 9 0 4 -7 8 -15 8 -8 0 -15
-4 -15 -8z"/>
<path d="M1767 1053 c-4 -3 -7 -19 -7 -35 0 -20 5 -28 18 -27 10 0 12 3 5 6
-7 2 -13 16 -13 29 0 14 4 22 10 19 6 -3 10 -1 10 4 0 12 -13 14 -23 4z"/>
<path d="M1800 1041 c-13 -25 -13 -28 4 -28 8 0 12 6 9 15 -3 8 0 18 8 23 9 6
10 9 2 9 -7 0 -17 -9 -23 -19z"/>
<path d="M1842 1048 c-16 -16 -15 -33 3 -48 13 -10 18 -11 28 -1 9 10 8 15 -5
25 -22 16 -23 30 -2 22 8 -3 12 -2 9 4 -8 13 -18 13 -33 -2z m28 -38 c0 -5 -4
-10 -10 -10 -5 0 -10 5 -10 10 0 6 5 10 10 10 6 0 10 -4 10 -10z"/>
<path d="M2808 1053 c6 -2 18 -2 25 0 6 3 1 5 -13 5 -14 0 -19 -2 -12 -5z"/>
<path d="M4024 1046 c-3 -8 -4 -25 -2 -38 3 -17 5 -13 9 15 5 38 2 47 -7 23z"/>
<path d="M4085 1051 c-3 -6 -13 -8 -23 -5 -11 4 -13 3 -6 -3 7 -4 13 -17 15
-28 5 -22 31 -28 35 -7 1 7 0 8 -3 2 -8 -17 -23 -11 -23 9 0 24 16 36 23 19 4
-9 6 -10 6 -1 1 16 -16 26 -24 14z"/>
<path d="M4122 1020 c0 -19 2 -27 5 -17 2 9 2 25 0 35 -3 9 -5 1 -5 -18z"/>
<path d="M4350 1045 c0 -5 5 -17 10 -25 5 -8 10 -10 10 -5 0 6 -5 17 -10 25
-5 8 -10 11 -10 5z"/>
<path d="M402 1010 c0 -19 2 -27 5 -17 2 9 2 25 0 35 -3 9 -5 1 -5 -18z"/>
<path d="M1560 1015 c0 -14 2 -25 4 -25 2 0 6 11 8 25 3 14 1 25 -3 25 -5 0
-9 -11 -9 -25z"/>
<path d="M1598 1033 c6 -2 12 -13 12 -24 0 -12 7 -19 18 -18 10 0 12 3 5 6 -7
2 -13 11 -13 18 0 7 6 16 13 18 6 3 -1 5 -18 5 -16 0 -24 -2 -17 -5z"/>
<path d="M1647 1027 c-3 -8 -2 -19 3 -26 5 -9 9 -4 12 13 5 27 -6 36 -15 13z"/>
<path d="M2820 1030 c-13 -8 -12 -10 3 -10 9 0 17 5 17 10 0 12 -1 12 -20 0z"/>
<path d="M3978 1033 c6 -2 18 -2 25 0 6 3 1 5 -13 5 -14 0 -19 -2 -12 -5z"/>
<path d="M298 1023 c7 -3 16 -2 19 1 4 3 -2 6 -13 5 -11 0 -14 -3 -6 -6z"/>
<path d="M470 1016 c0 -8 5 -18 10 -21 6 -3 10 3 10 14 0 12 -4 21 -10 21 -5
0 -10 -6 -10 -14z"/>
<path d="M502 1010 c0 -14 2 -19 5 -12 2 6 2 18 0 25 -3 6 -5 1 -5 -13z"/>
<path d="M2932 1010 c0 -14 2 -19 5 -12 2 6 2 18 0 25 -3 6 -5 1 -5 -13z"/>
<path d="M3002 1010 c0 -14 2 -19 5 -12 2 6 2 18 0 25 -3 6 -5 1 -5 -13z"/>
<path d="M3021 1014 c0 -11 3 -14 6 -6 3 7 2 16 -1 19 -3 4 -6 -2 -5 -13z"/>
<path d="M4310 1011 c0 -7 -5 -9 -12 -5 -7 5 -8 3 -3 -5 5 -9 10 -10 18 -2 6
6 8 14 4 18 -4 3 -7 1 -7 -6z"/>
<path d="M4330 1011 c0 -6 4 -13 10 -16 6 -3 7 1 4 9 -7 18 -14 21 -14 7z"/>
<path d="M298 1003 c7 -3 16 -2 19 1 4 3 -2 6 -13 5 -11 0 -14 -3 -6 -6z"/>
<path d="M2818 1003 c7 -3 16 -2 19 1 4 3 -2 6 -13 5 -11 0 -14 -3 -6 -6z"/>
<path d="M1808 993 c7 -3 16 -2 19 1 4 3 -2 6 -13 5 -11 0 -14 -3 -6 -6z"/>
<path d="M3978 993 c6 -2 18 -2 25 0 6 3 1 5 -13 5 -14 0 -19 -2 -12 -5z"/>
<path d="M284 932 c11 -12 19 -13 27 -5 7 7 3 12 -16 15 -25 5 -25 4 -11 -10z"/>
<path d="M2810 941 c-20 -6 -22 -8 -8 -13 9 -4 22 -1 28 8 7 8 11 14 9 13 -2
-1 -15 -4 -29 -8z"/>
<path d="M4005 901 c-3 -10 -1 -29 4 -42 9 -21 10 -19 10 19 1 45 -4 54 -14
23z"/>
<path d="M4213 914 c20 -6 24 -60 5 -67 -8 -2 -7 -3 2 -3 10 1 15 12 15 36 0
27 -4 35 -20 37 -16 1 -16 1 -2 -3z"/>
<path d="M4580 910 c-1 -8 -2 -21 -1 -29 2 -7 -2 -10 -8 -6 -16 9 -13 -4 3
-20 18 -19 25 -1 15 40 -4 17 -8 23 -9 15z"/>
<path d="M4610 916 c0 -2 7 -6 15 -10 8 -3 15 -1 15 4 0 6 -7 10 -15 10 -8 0
-15 -2 -15 -4z"/>
<path d="M4655 910 c-3 -6 1 -7 9 -4 21 8 21 -19 1 -36 -22 -18 -18 -30 8 -29
18 1 18 2 4 6 -17 4 -18 6 -2 24 10 10 15 25 12 34 -7 17 -23 20 -32 5z"/>
<path d="M4728 913 c6 -2 18 -2 25 0 6 3 1 5 -13 5 -14 0 -19 -2 -12 -5z"/>
<path d="M4776 903 c-6 -14 -5 -15 5 -6 7 7 10 15 7 18 -3 3 -9 -2 -12 -12z"/>
<path d="M2797 898 c2 -5 13 -8 23 -8 10 0 21 3 23 8 3 4 -8 7 -23 7 -15 0
-26 -3 -23 -7z"/>
<path d="M298 893 c7 -3 16 -2 19 1 4 3 -2 6 -13 5 -11 0 -14 -3 -6 -6z"/>
<path d="M4034 886 c-3 -9 -4 -23 0 -31 6 -16 36 -21 36 -5 0 5 -7 7 -15 4 -8
-4 -15 -1 -15 5 0 6 7 11 16 11 9 0 14 5 12 12 -7 19 -27 21 -34 4z"/>
<path d="M4080 890 c0 -5 7 -7 15 -4 8 4 15 8 15 10 0 2 -7 4 -15 4 -8 0 -15
-4 -15 -10z"/>
<path d="M4120 874 c0 -14 -4 -23 -8 -20 -4 2 -14 1 -22 -5 -11 -6 -8 -9 13
-9 22 0 27 4 27 25 0 34 18 32 23 -2 4 -26 4 -26 6 5 1 26 -3 32 -19 32 -15 0
-20 -7 -20 -26z"/>
<path d="M4254 886 c-3 -9 -4 -23 0 -31 6 -16 36 -21 36 -5 0 5 -7 7 -15 4 -8
-4 -15 -1 -15 5 0 6 7 11 16 11 9 0 14 5 12 12 -7 19 -27 21 -34 4z"/>
<path d="M4342 870 c0 -19 2 -27 5 -17 2 9 2 25 0 35 -3 9 -5 1 -5 -18z"/>
<path d="M4360 890 c0 -5 7 -7 15 -4 8 4 15 8 15 10 0 2 -7 4 -15 4 -8 0 -15
-4 -15 -10z"/>
<path d="M4431 870 c0 -29 1 -32 10 -17 7 11 7 23 0 35 -9 14 -10 11 -10 -18z"/>
<path d="M4450 896 c0 -2 7 -6 15 -10 8 -3 15 -1 15 4 0 6 -7 10 -15 10 -8 0
-15 -2 -15 -4z"/>
<path d="M4491 868 c2 -30 2 -31 6 -5 5 34 20 35 26 2 4 -23 4 -23 3 2 -1 18
-7 29 -18 31 -15 3 -18 -3 -17 -30z"/>
<path d="M1510 853 c0 -43 5 -41 13 5 4 18 2 32 -3 32 -6 0 -10 -16 -10 -37z"/>
<path d="M1554 874 c3 -9 6 -25 6 -37 1 -20 2 -20 11 -4 5 9 17 17 24 17 18 0
20 16 4 26 -6 3 -15 0 -20 -7 -7 -11 -9 -10 -9 4 0 9 -5 17 -11 17 -6 0 -8 -7
-5 -16z"/>
<path d="M1722 858 c-2 -27 2 -38 12 -38 8 0 18 4 21 10 3 5 0 7 -9 4 -11 -4
-16 3 -19 28 l-4 33 -1 -37z"/>
<path d="M1912 858 c-2 -28 2 -38 13 -38 10 0 15 9 14 28 l-1 27 -8 -25 c-7
-24 -7 -23 -12 10 l-5 35 -1 -37z"/>
<path d="M2073 877 c-3 -5 -2 -11 1 -14 3 -4 7 0 7 8 1 8 4 1 8 -15 3 -16 12
-31 18 -34 17 -5 29 26 15 40 -8 8 -9 5 -5 -11 3 -12 1 -21 -6 -21 -15 0 -14
47 2 53 6 3 2 4 -11 4 -13 -1 -26 -5 -29 -10z"/>
<path d="M2147 883 c-2 -5 0 -21 4 -38 7 -29 7 -29 8 8 1 35 -3 46 -12 30z"/>
<path d="M3981 880 c0 -8 4 -22 9 -30 12 -18 12 -2 0 25 -6 13 -9 15 -9 5z"/>
<path d="M4301 880 c0 -8 3 -21 8 -29 7 -11 10 -9 16 8 4 13 4 25 1 28 -3 4
-6 -2 -7 -13 0 -18 -1 -18 -9 1 -6 13 -9 15 -9 5z"/>
<path d="M4616 865 c-16 -24 -16 -25 6 -24 13 0 17 3 11 6 -9 3 -10 10 -3 24
15 27 5 23 -14 -6z"/>
<path d="M1620 870 c0 -6 5 -8 10 -5 6 3 10 -3 10 -14 0 -10 -6 -22 -12 -24
-8 -3 -5 -6 5 -6 14 -1 18 5 15 26 -3 26 -28 46 -28 23z"/>
<path d="M1664 866 c-3 -8 -4 -23 -1 -33 3 -12 6 -7 7 12 l2 30 8 -30 8 -30 1
27 c1 30 -16 47 -25 24z"/>
<path d="M1776 873 c-10 -10 -7 -41 5 -49 6 -3 16 -1 22 5 9 9 8 11 -5 6 -10
-4 -18 -3 -18 3 0 5 9 12 20 15 11 3 20 9 20 14 0 10 -35 15 -44 6z"/>
<path d="M1874 868 c-4 -7 -3 -8 4 -4 7 4 12 2 12 -3 0 -6 -4 -11 -10 -11 -5
0 -10 -7 -10 -15 0 -8 7 -15 15 -15 10 0 15 10 15 30 0 30 -13 40 -26 18z"/>
<path d="M1954 865 c-4 -8 -4 -22 0 -30 6 -17 26 -20 26 -4 0 5 -4 7 -10 4 -5
-3 -10 3 -10 15 0 13 4 19 12 14 7 -4 8 -3 4 4 -10 16 -15 15 -22 -3z"/>
<path d="M1991 848 c2 -31 2 -31 6 -5 2 15 9 25 14 22 5 -4 9 -1 9 4 0 6 -7
11 -15 11 -11 0 -15 -10 -14 -32z"/>
<path d="M4370 870 c-9 -6 -10 -10 -3 -10 6 0 15 5 18 10 8 12 4 12 -15 0z"/>
<path d="M1852 845 c0 -16 2 -22 5 -12 2 9 2 23 0 30 -3 6 -5 -1 -5 -18z"/>
<path d="M4731 854 c0 -11 3 -14 6 -6 3 7 2 16 -1 19 -3 4 -6 -2 -5 -13z"/>
<path d="M1825 847 c-4 -10 -5 -21 -1 -24 10 -10 18 4 13 24 -4 17 -4 17 -12
0z"/>
<path d="M4460 850 c-13 -8 -12 -10 3 -10 9 0 17 5 17 10 0 12 -1 12 -20 0z"/>
<path d="M270 840 c0 -5 11 -10 25 -10 14 0 25 5 25 10 0 6 -11 10 -25 10 -14
0 -25 -4 -25 -10z"/>
<path d="M1530 835 c0 -8 5 -15 10 -15 6 0 10 7 10 15 0 8 -4 15 -10 15 -5 0
-10 -7 -10 -15z"/>
<path d="M2061 834 c0 -11 3 -14 6 -6 3 7 2 16 -1 19 -3 4 -6 -2 -5 -13z"/>
<path d="M2241 838 c-1 -10 6 -18 14 -18 8 0 15 5 15 11 0 5 -4 8 -9 5 -5 -4
-12 0 -14 6 -3 8 -6 6 -6 -4z"/>
<path d="M2803 843 c9 -2 23 -2 30 0 6 3 -1 5 -18 5 -16 0 -22 -2 -12 -5z"/>
<path d="M4368 843 c6 -2 18 -2 25 0 6 3 1 5 -13 5 -14 0 -19 -2 -12 -5z"/>
<path d="M1590 830 c-9 -6 -10 -10 -3 -10 6 0 15 5 18 10 8 12 4 12 -15 0z"/>
<path d="M502 805 c0 -16 2 -22 5 -12 2 9 2 23 0 30 -3 6 -5 -1 -5 -18z"/>
<path d="M3002 805 c0 -16 2 -22 5 -12 2 9 2 23 0 30 -3 6 -5 -1 -5 -18z"/>
<path d="M470 805 c0 -8 5 -15 10 -15 6 0 10 7 10 15 0 8 -4 15 -10 15 -5 0
-10 -7 -10 -15z"/>
<path d="M2927 801 c-4 -17 -3 -21 5 -13 5 5 8 16 6 23 -3 8 -7 3 -11 -10z"/>
<path d="M3021 804 c0 -11 3 -14 6 -6 3 7 2 16 -1 19 -3 4 -6 -2 -5 -13z"/>
<path d="M658 695 c-26 -24 -67 -49 -90 -57 -23 -7 -44 -19 -46 -26 -3 -11 1
-11 19 1 13 8 35 17 49 20 26 7 129 91 120 100 -3 3 -26 -14 -52 -38z"/>
<path d="M482 600 c0 -14 2 -19 5 -12 2 6 2 18 0 25 -3 6 -5 1 -5 -13z"/>
<path d="M502 600 c0 -14 2 -19 5 -12 2 6 2 18 0 25 -3 6 -5 1 -5 -13z"/>
<path d="M3002 600 c0 -14 2 -19 5 -12 2 6 2 18 0 25 -3 6 -5 1 -5 -13z"/>
<path d="M3022 600 c0 -14 2 -19 5 -12 2 6 2 18 0 25 -3 6 -5 1 -5 -13z"/>
<path d="M1202 540 c0 -19 2 -27 5 -17 2 9 2 25 0 35 -3 9 -5 1 -5 -18z"/>
<path d="M1562 540 c0 -19 2 -27 5 -17 2 9 2 25 0 35 -3 9 -5 1 -5 -18z"/>
<path d="M1928 552 c9 -10 19 -17 21 -16 6 5 -20 34 -30 34 -5 0 -1 -8 9 -18z"/>
<path d="M2285 560 c3 -5 8 -10 11 -10 2 0 4 5 4 10 0 6 -5 10 -11 10 -5 0 -7
-4 -4 -10z"/>
<path d="M3742 545 c0 -16 2 -22 5 -12 2 9 2 23 0 30 -3 6 -5 -1 -5 -18z"/>
<path d="M3792 545 c0 -16 2 -22 5 -12 2 9 2 23 0 30 -3 6 -5 -1 -5 -18z"/>
<path d="M4512 545 c0 -16 2 -22 5 -12 2 9 2 23 0 30 -3 6 -5 -1 -5 -18z"/>
<path d="M882 540 c0 -14 2 -19 5 -12 2 6 2 18 0 25 -3 6 -5 1 -5 -13z"/>
<path d="M902 540 c0 -14 2 -19 5 -12 2 6 2 18 0 25 -3 6 -5 1 -5 -13z"/>
<path d="M1221 544 c0 -11 3 -14 6 -6 3 7 2 16 -1 19 -3 4 -6 -2 -5 -13z"/>
<path d="M2361 544 c0 -11 3 -14 6 -6 3 7 2 16 -1 19 -3 4 -6 -2 -5 -13z"/>
<path d="M3022 540 c0 -14 2 -19 5 -12 2 6 2 18 0 25 -3 6 -5 1 -5 -13z"/>
<path d="M3042 540 c0 -14 2 -19 5 -12 2 6 2 18 0 25 -3 6 -5 1 -5 -13z"/>
<path d="M3760 539 c0 -11 5 -17 10 -14 6 3 10 13 10 21 0 8 -4 14 -10 14 -5
0 -10 -9 -10 -21z"/>
<path d="M4131 544 c0 -11 3 -14 6 -6 3 7 2 16 -1 19 -3 4 -6 -2 -5 -13z"/>
<path d="M4480 545 c0 -8 5 -15 10 -15 6 0 10 7 10 15 0 8 -4 15 -10 15 -5 0
-10 -7 -10 -15z"/>
<path d="M4851 544 c0 -11 3 -14 6 -6 3 7 2 16 -1 19 -3 4 -6 -2 -5 -13z"/>
<path d="M1423 455 c0 -22 2 -30 4 -17 2 12 2 30 0 40 -3 9 -5 -1 -4 -23z"/>
<path d="M1471 454 c1 -30 3 -33 7 -14 l5 25 6 -25 c5 -18 8 -21 13 -10 3 9
-3 26 -13 39 l-19 23 1 -38z"/>
<path d="M3753 455 c0 -22 2 -30 4 -17 2 12 2 30 0 40 -3 9 -5 -1 -4 -23z"/>
<path d="M3933 455 c0 -22 2 -30 4 -17 2 12 2 30 0 40 -3 9 -5 -1 -4 -23z"/>
<path d="M1262 445 c0 -16 2 -22 5 -12 2 9 2 23 0 30 -3 6 -5 -1 -5 -18z"/>
<path d="M1281 442 l1 -27 8 25 8 25 2 -25 2 -25 8 25 c7 21 8 22 9 5 1 -14 8
-21 24 -22 12 0 16 1 10 4 -7 3 -13 11 -13 19 0 8 -3 14 -7 15 -5 0 -18 2 -30
5 -20 3 -23 0 -22 -24z"/>
<path d="M1538 459 c-6 -16 8 -39 24 -39 4 0 7 12 7 28 -2 27 -2 27 -7 2 l-5
-25 -6 25 c-6 20 -8 22 -13 9z"/>
<path d="M1580 445 c0 -14 2 -25 4 -25 2 0 6 11 8 25 3 14 1 25 -3 25 -5 0 -9
-11 -9 -25z"/>
<path d="M3802 445 c0 -16 2 -22 5 -12 2 9 2 23 0 30 -3 6 -5 -1 -5 -18z"/>
<path d="M3821 443 l1 -28 7 25 8 25 5 -25 c5 -25 5 -25 7 3 1 18 -4 27 -14
27 -10 0 -15 -9 -14 -27z"/>
<path d="M3860 459 c0 -5 6 -9 14 -9 8 0 17 -8 19 -17 3 -12 5 -10 6 7 1 19
-4 26 -19 27 -11 1 -20 -2 -20 -8z"/>
<path d="M3992 445 c0 -16 2 -22 5 -12 2 9 2 23 0 30 -3 6 -5 -1 -5 -18z"/>
<path d="M4032 450 c0 -14 2 -19 5 -12 2 6 2 18 0 25 -3 6 -5 1 -5 -13z"/>
<path d="M4052 445 c0 -16 2 -22 5 -12 2 9 2 23 0 30 -3 6 -5 -1 -5 -18z"/>
<path d="M4071 443 c1 -23 2 -24 6 -6 2 12 12 24 21 26 12 3 10 5 -5 6 -19 1
-23 -4 -22 -26z"/>
<path d="M4122 445 c0 -16 2 -22 5 -12 2 9 2 23 0 30 -3 6 -5 -1 -5 -18z"/>
<path d="M4011 444 c0 -11 3 -14 6 -6 3 7 2 16 -1 19 -3 4 -6 -2 -5 -13z"/>
<path d="M3860 430 c0 -5 5 -10 11 -10 5 0 7 5 4 10 -3 6 -8 10 -11 10 -2 0
-4 -4 -4 -10z"/>
<path d="M1116 281 c-9 -16 -16 -44 -16 -61 0 -32 27 -96 37 -86 3 3 0 12 -7
21 -16 19 -16 111 0 130 7 9 10 18 7 21 -3 3 -13 -8 -21 -25z"/>
<path d="M1270 305 c0 -6 5 -16 11 -22 12 -12 8 -103 -5 -138 -7 -20 -7 -20 8
-1 19 24 30 78 23 108 -7 26 -36 68 -37 53z"/>
<path d="M1463 302 c-8 -5 -8 -12 3 -26 13 -19 14 -19 14 7 0 30 0 30 -17 19z"/>
<path d="M1643 302 c-8 -5 -8 -12 3 -26 13 -19 14 -19 14 7 0 30 0 30 -17 19z"/>
<path d="M3556 281 c-9 -16 -16 -44 -16 -61 0 -32 27 -96 37 -86 3 3 0 12 -7
21 -16 19 -16 111 0 130 7 9 10 18 7 21 -3 3 -13 -8 -21 -25z"/>
<path d="M3720 305 c0 -6 5 -16 11 -22 12 -12 8 -103 -5 -138 -7 -20 -7 -20 8
-1 19 24 30 78 23 108 -7 26 -36 68 -37 53z"/>
<path d="M3913 302 c-8 -5 -8 -12 3 -26 13 -19 14 -19 14 7 0 30 0 30 -17 19z"/>
<path d="M1403 284 c-8 -23 9 -47 38 -54 15 -4 24 -13 24 -25 0 -26 -35 -32
-52 -9 -12 17 -13 17 -13 -3 0 -17 6 -20 38 -19 34 1 37 3 37 31 0 24 -6 33
-33 45 -24 10 -32 19 -29 32 6 23 -1 24 -10 2z"/>
<path d="M1508 293 c7 -3 12 -25 12 -58 0 -33 -5 -55 -12 -58 -7 -3 3 -5 22
-5 19 0 29 2 23 5 -8 3 -13 25 -13 58 0 33 5 55 13 58 6 3 -4 5 -23 5 -19 0
-29 -2 -22 -5z"/>
<path d="M1583 284 c-8 -23 9 -47 38 -54 15 -4 24 -13 24 -25 0 -26 -35 -32
-52 -9 -12 17 -13 17 -13 -3 0 -17 6 -20 38 -19 34 1 37 3 37 31 0 24 -6 33
-33 45 -24 10 -32 19 -29 32 6 23 -1 24 -10 2z"/>
<path d="M3608 293 c7 -3 12 -26 12 -63 l0 -58 31 2 c30 2 49 19 49 43 0 20
-32 45 -51 40 -15 -4 -19 0 -19 19 0 16 -5 24 -17 23 -11 0 -13 -3 -5 -6z m67
-78 c0 -23 -4 -30 -20 -30 -21 0 -31 25 -21 51 11 28 41 12 41 -21z"/>
<path d="M3853 284 c-8 -23 9 -47 38 -54 15 -4 24 -13 24 -25 0 -26 -35 -32
-52 -9 -12 17 -13 17 -13 -3 0 -17 6 -20 38 -19 34 1 37 3 37 31 0 24 -6 33
-33 45 -24 10 -32 19 -29 32 6 23 -1 24 -10 2z"/>
<path d="M3958 294 c7 -4 12 -26 12 -59 0 -33 -5 -55 -12 -58 -7 -3 15 -6 50
-6 61 -1 62 -1 61 27 0 26 -1 26 -9 5 -7 -17 -18 -23 -40 -23 -30 0 -30 0 -30
55 0 54 0 55 30 55 17 0 34 -7 40 -17 10 -16 10 -16 8 2 -3 17 -12 20 -63 22
-33 1 -54 0 -47 -3z"/>
<path d="M4088 293 c7 -3 12 -25 12 -58 0 -33 -5 -55 -12 -58 -7 -3 3 -5 22
-5 19 0 29 2 23 5 -8 3 -13 25 -13 58 0 33 5 55 13 58 6 3 -4 5 -23 5 -19 0
-29 -2 -22 -5z"/>
<path d="M4160 278 c1 -21 2 -21 11 -5 5 9 21 17 35 17 l25 0 -36 -52 c-19
-29 -35 -56 -35 -60 0 -5 20 -8 45 -8 25 0 45 4 45 9 0 5 3 18 6 28 5 13 2 12
-10 -4 -10 -13 -28 -23 -42 -23 l-25 0 36 52 c19 29 35 56 35 60 0 5 -20 8
-45 8 -40 0 -45 -2 -45 -22z"/>
<path d="M1175 250 c-4 -6 -4 -14 0 -18 3 -3 10 0 14 7 5 7 14 10 20 7 16 -11
13 -56 -4 -63 -25 -9 -32 7 -11 23 16 11 17 14 4 14 -24 0 -41 -25 -26 -37 16
-12 78 -13 78 -1 0 4 -4 8 -9 8 -6 0 -11 15 -13 33 -2 24 -8 33 -25 35 -11 2
-24 -2 -28 -8z"/>
<path d="M4015 240 c-3 -5 -1 -10 4 -10 6 0 11 5 11 10 0 6 -2 10 -4 10 -3 0
-8 -4 -11 -10z"/>
</g>
</svg>
