<?xml version="1.0" standalone="no"?>
<!DOCTYPE svg PUBLIC "-//W3C//DTD SVG 20010904//EN"
 "http://www.w3.org/TR/2001/REC-SVG-20010904/DTD/svg10.dtd">
<svg version="1.0" xmlns="http://www.w3.org/2000/svg"
 width="532.000000pt" height="248.000000pt" viewBox="0 0 532.000000 248.000000"
 preserveAspectRatio="xMidYMid meet">
<metadata>
Created by potrace 1.16, written by Peter Selinger 2001-2019
</metadata>
<g transform="translate(0.000000,248.000000) scale(0.100000,-0.100000)"
fill="#000000" stroke="none">
<path d="M1315 2220 c-3 -5 1 -20 9 -32 9 -12 16 -17 16 -11 0 7 -5 15 -11 18
-6 4 -8 13 -5 21 6 16 0 19 -9 4z"/>
<path d="M1469 2198 c-3 -22 -1 -34 4 -29 5 5 7 21 5 37 -3 27 -4 26 -9 -8z"/>
<path d="M1522 2200 c0 -19 2 -27 5 -17 2 9 2 25 0 35 -3 9 -5 1 -5 -18z"/>
<path d="M4008 2195 c-2 -19 0 -35 4 -35 4 0 8 16 8 35 0 19 -2 35 -4 35 -2 0
-6 -16 -8 -35z"/>
<path d="M1292 2195 c0 -16 2 -22 5 -12 2 9 2 23 0 30 -3 6 -5 -1 -5 -18z"/>
<path d="M1371 2215 c1 -19 18 -51 18 -35 0 8 -4 22 -9 30 -5 8 -9 11 -9 5z"/>
<path d="M1722 2195 c0 -16 2 -22 5 -12 2 9 2 23 0 30 -3 6 -5 -1 -5 -18z"/>
<path d="M1892 2195 c0 -16 2 -22 5 -12 2 9 2 23 0 30 -3 6 -5 -1 -5 -18z"/>
<path d="M1915 2196 c0 -12 5 -23 11 -23 13 0 12 23 -2 37 -5 5 -9 0 -9 -14z"/>
<path d="M3750 2214 c0 -5 7 -18 15 -28 8 -11 15 -16 15 -10 0 5 -7 18 -15 28
-8 11 -15 16 -15 10z"/>
<path d="M3792 2195 c0 -16 2 -22 5 -12 2 9 2 23 0 30 -3 6 -5 -1 -5 -18z"/>
<path d="M3832 2195 c0 -16 2 -22 5 -12 2 9 2 23 0 30 -3 6 -5 -1 -5 -18z"/>
<path d="M3860 2199 c-7 -11 -10 -23 -7 -25 2 -2 9 7 15 21 14 30 7 33 -8 4z"/>
<path d="M3932 2199 c-7 -12 -11 -24 -8 -27 3 -3 6 1 6 9 0 11 2 11 10 -1 8
-12 10 -9 10 13 0 33 -1 33 -18 6z"/>
<path d="M4092 2195 c0 -16 2 -22 5 -12 2 9 2 23 0 30 -3 6 -5 -1 -5 -18z"/>
<path d="M4392 2190 c0 -19 2 -27 5 -17 2 9 2 25 0 35 -3 9 -5 1 -5 -18z"/>
<path d="M4502 2190 c0 -19 2 -27 5 -17 2 9 2 25 0 35 -3 9 -5 1 -5 -18z"/>
<path d="M1260 2201 c0 -5 5 -13 10 -16 6 -3 10 -2 10 4 0 5 -4 13 -10 16 -5
3 -10 2 -10 -4z"/>
<path d="M1642 2185 c0 -16 2 -22 5 -12 2 9 2 23 0 30 -3 6 -5 -1 -5 -18z"/>
<path d="M1846 2202 c-2 -4 -1 -14 5 -22 7 -12 9 -10 9 8 0 23 -5 28 -14 14z"/>
<path d="M1958 2187 c-3 -19 -2 -25 4 -19 6 6 8 18 6 28 -3 14 -5 12 -10 -9z"/>
<path d="M4142 2190 c0 -14 2 -19 5 -12 2 6 2 18 0 25 -3 6 -5 1 -5 -13z"/>
<path d="M4180 2183 c0 -21 3 -24 9 -14 5 8 7 20 4 28 -8 21 -13 15 -13 -14z"/>
<path d="M4296 2195 c-9 -26 -7 -32 5 -12 6 10 9 21 6 23 -2 3 -7 -2 -11 -11z"/>
<path d="M4333 2194 c-3 -8 -1 -20 5 -26 8 -8 9 -4 5 12 -5 17 -3 21 7 15 9
-5 11 -4 6 3 -10 16 -15 15 -23 -4z"/>
<path d="M4470 2185 c0 -14 2 -25 4 -25 2 0 6 11 8 25 3 14 1 25 -3 25 -5 0
-9 -11 -9 -25z"/>
<path d="M4528 2185 c-3 -14 -1 -25 3 -25 5 0 9 11 9 25 0 14 -2 25 -4 25 -2
0 -6 -11 -8 -25z"/>
<path d="M1421 2184 c0 -11 3 -14 6 -6 3 7 2 16 -1 19 -3 4 -6 -2 -5 -13z"/>
<path d="M1440 2184 c0 -8 5 -12 10 -9 6 4 8 11 5 16 -9 14 -15 11 -15 -7z"/>
<path d="M1790 2186 c0 -8 4 -17 9 -20 5 -4 7 3 4 14 -6 23 -13 26 -13 6z"/>
<path d="M1820 2180 c6 -11 12 -20 14 -20 2 0 2 9 -1 20 -3 11 -9 20 -15 20
-5 0 -4 -9 2 -20z"/>
<path d="M3961 2184 c0 -11 3 -14 6 -6 3 7 2 16 -1 19 -3 4 -6 -2 -5 -13z"/>
<path d="M3980 2184 c0 -8 5 -12 10 -9 6 4 8 11 5 16 -9 14 -15 11 -15 -7z"/>
<path d="M1981 2174 c0 -11 3 -14 6 -6 3 7 2 16 -1 19 -3 4 -6 -2 -5 -13z"/>
<path d="M572 2095 c0 -16 2 -22 5 -12 2 9 2 23 0 30 -3 6 -5 -1 -5 -18z"/>
<path d="M682 2095 c0 -16 2 -22 5 -12 2 9 2 23 0 30 -3 6 -5 -1 -5 -18z"/>
<path d="M3130 2113 c0 -4 5 -15 10 -23 8 -13 10 -13 10 2 0 9 -4 20 -10 23
-5 3 -10 3 -10 -2z"/>
<path d="M3232 2100 c0 -14 2 -19 5 -12 2 6 2 18 0 25 -3 6 -5 1 -5 -13z"/>
<path d="M650 2095 c0 -8 5 -15 10 -15 6 0 10 7 10 15 0 8 -4 15 -10 15 -5 0
-10 -7 -10 -15z"/>
<path d="M3205 2101 c-3 -5 -1 -12 5 -16 5 -3 10 1 10 9 0 18 -6 21 -15 7z"/>
<path d="M600 2070 c0 -5 5 -10 11 -10 5 0 7 5 4 10 -3 6 -8 10 -11 10 -2 0
-4 -4 -4 -10z"/>
<path d="M2370 2072 c0 -5 -6 -9 -12 -9 -47 -3 -224 -40 -283 -60 -27 -10 -53
-16 -57 -15 -5 1 -8 -3 -8 -8 0 -5 -5 -10 -11 -10 -29 0 -219 -174 -219 -200
0 -6 -3 -10 -8 -10 -4 0 -12 -9 -17 -20 -6 -10 -30 -51 -53 -90 -24 -39 -92
-164 -151 -278 -59 -114 -120 -229 -136 -257 -51 -91 -139 -207 -200 -262 -66
-60 -186 -125 -234 -127 -17 0 -31 -4 -31 -7 0 -4 -17 -11 -37 -17 -24 -6 -30
-10 -16 -11 11 -1 48 7 82 18 33 10 63 16 66 13 3 -3 5 1 5 8 0 7 3 10 6 7 4
-4 20 3 36 15 25 17 32 18 40 7 8 -11 9 -11 4 3 -7 22 54 63 67 45 6 -8 7 -6
3 5 -5 17 9 35 17 21 2 -5 3 -3 1 3 -1 7 13 27 33 45 19 19 54 59 76 89 22 30
44 57 49 58 4 2 8 10 8 18 0 8 5 14 10 14 6 0 10 6 10 13 0 7 24 56 53 108 28
53 65 123 81 157 16 34 33 59 37 56 4 -2 7 4 7 13 -2 22 90 193 103 193 5 0 8
3 8 8 -3 17 2 31 14 44 6 7 18 25 26 41 28 53 137 178 191 219 64 48 132 80
172 82 15 0 28 4 28 9 0 4 5 5 10 2 6 -3 10 -1 10 6 0 7 10 9 25 7 14 -3 25
-1 25 6 0 6 5 4 10 -4 8 -12 10 -12 10 -1 0 8 3 12 6 8 3 -3 17 -2 29 3 13 5
46 10 74 11 60 3 74 10 55 27 -8 7 -14 9 -14 4z"/>
<path d="M4865 2069 c-148 -27 -216 -43 -269 -65 -33 -13 -61 -22 -64 -20 -2
3 -18 -9 -34 -25 -17 -16 -35 -29 -39 -29 -4 0 -19 -11 -32 -24 -14 -14 -28
-22 -31 -19 -3 4 -6 0 -6 -7 0 -7 -20 -33 -45 -57 -25 -23 -45 -47 -45 -53 0
-5 -4 -10 -10 -10 -5 0 -10 -4 -10 -8 0 -5 -30 -58 -66 -118 -36 -60 -104
-182 -151 -271 -47 -90 -89 -160 -94 -157 -5 3 -6 -1 -4 -8 12 -31 -165 -281
-253 -359 -59 -51 -168 -113 -187 -105 -8 3 -15 1 -15 -5 0 -6 -5 -7 -12 -3
-6 4 -8 3 -4 -4 7 -12 -137 -48 -154 -37 -5 3 -10 1 -10 -4 0 -19 60 -12 154
20 50 17 99 31 108 32 9 1 16 4 15 8 -1 4 17 20 40 36 48 32 193 171 193 184
0 5 5 9 10 9 6 0 10 7 10 15 0 8 5 15 10 15 6 0 10 7 10 15 0 8 5 15 10 15 6
0 10 5 10 10 0 6 24 52 54 104 30 51 73 130 96 175 23 44 46 79 50 76 5 -3 8
3 7 13 -1 20 90 192 102 192 4 0 8 6 8 13 0 25 107 171 178 242 45 46 96 84
143 108 39 21 72 35 72 31 0 -3 6 -2 13 3 6 6 20 9 30 8 9 -2 17 2 17 8 0 7 5
5 10 -3 7 -11 10 -11 10 -2 0 7 5 10 12 6 6 -4 8 -3 5 3 -4 6 4 13 18 15 13 3
26 0 29 -6 3 -7 5 -6 5 2 1 7 6 10 11 7 6 -3 10 -2 10 3 0 4 21 9 46 11 45 2
94 16 94 26 0 3 -1 4 -2 4 -2 -1 -25 -5 -53 -10z"/>
<path d="M832 2020 c0 -19 2 -27 5 -17 2 9 2 25 0 35 -3 9 -5 1 -5 -18z"/>
<path d="M1001 2023 c-1 -33 11 -43 25 -22 4 8 9 7 15 -2 6 -10 8 -7 6 9 -2
26 -12 29 -23 5 -6 -15 -8 -13 -14 12 l-8 30 -1 -32z"/>
<path d="M3353 2015 c0 -22 2 -30 4 -17 2 12 2 30 0 40 -3 9 -5 -1 -4 -23z"/>
<path d="M3542 2018 c-2 -27 2 -38 12 -38 8 0 18 4 21 10 3 5 0 7 -9 4 -11 -4
-16 3 -19 28 l-4 33 -1 -37z"/>
<path d="M3570 2043 c0 -15 19 -37 26 -31 3 4 -1 14 -10 23 -9 9 -16 13 -16 8z"/>
<path d="M962 2015 c0 -16 2 -22 5 -12 2 9 2 23 0 30 -3 6 -5 -1 -5 -18z"/>
<path d="M1068 2017 c-3 -19 -2 -25 4 -19 6 6 8 18 6 28 -3 14 -5 12 -10 -9z"/>
<path d="M3502 2010 c0 -19 2 -27 5 -17 2 9 2 25 0 35 -3 9 -5 1 -5 -18z"/>
<path d="M900 2016 c0 -8 4 -17 9 -20 5 -4 7 3 4 14 -6 23 -13 26 -13 6z"/>
<path d="M930 2010 c6 -11 12 -20 14 -20 2 0 2 9 -1 20 -3 11 -9 20 -15 20 -5
0 -4 -9 2 -20z"/>
<path d="M3384 2011 c1 -8 8 -15 17 -16 12 -2 15 3 11 18 -5 20 -6 20 -12 1
-6 -15 -8 -16 -12 -4 -4 11 -5 11 -4 1z"/>
<path d="M3475 2020 c-4 -6 -11 -7 -17 -4 -7 4 -8 2 -4 -4 7 -12 36 -5 36 9 0
12 -7 11 -15 -1z"/>
<path d="M3614 2015 c-3 -8 -4 -20 -1 -27 3 -7 6 -3 6 9 1 12 7 24 14 26 9 4
9 6 -1 6 -7 1 -15 -6 -18 -14z"/>
<path d="M3653 2023 c4 -3 0 -14 -8 -23 -13 -14 -12 -16 5 -17 15 -1 20 5 20
23 0 13 -5 24 -12 24 -6 0 -8 -3 -5 -7z"/>
<path d="M3430 2006 c0 -8 4 -17 9 -20 5 -4 7 3 4 14 -6 23 -13 26 -13 6z"/>
<path d="M820 1913 c0 -21 3 -24 9 -14 5 8 7 20 4 28 -8 21 -13 15 -13 -14z"/>
<path d="M755 1920 c-4 -6 5 -10 19 -10 14 0 26 5 26 10 0 6 -9 10 -19 10 -11
0 -23 -4 -26 -10z"/>
<path d="M852 1905 c0 -16 2 -22 5 -12 2 9 2 23 0 30 -3 6 -5 -1 -5 -18z"/>
<path d="M872 1905 c0 -16 2 -22 5 -12 2 9 2 23 0 30 -3 6 -5 -1 -5 -18z"/>
<path d="M3338 1923 c6 -2 18 -2 25 0 6 3 1 5 -13 5 -14 0 -19 -2 -12 -5z"/>
<path d="M3283 1893 c9 -2 23 -2 30 0 6 3 -1 5 -18 5 -16 0 -22 -2 -12 -5z"/>
<path d="M572 1860 c0 -19 2 -27 5 -17 2 9 2 25 0 35 -3 9 -5 1 -5 -18z"/>
<path d="M654 1869 c-3 -6 -1 -16 5 -22 8 -8 11 -5 11 11 0 24 -5 28 -16 11z"/>
<path d="M682 1855 c0 -16 2 -22 5 -12 2 9 2 23 0 30 -3 6 -5 -1 -5 -18z"/>
<path d="M3112 1860 c0 -14 2 -19 5 -12 2 6 2 18 0 25 -3 6 -5 1 -5 -13z"/>
<path d="M3130 1861 c0 -12 5 -21 10 -21 6 0 10 6 10 14 0 8 -4 18 -10 21 -5
3 -10 -3 -10 -14z"/>
<path d="M3207 1865 c-4 -8 -2 -17 3 -20 6 -4 10 3 10 14 0 25 -6 27 -13 6z"/>
<path d="M3232 1860 c0 -14 2 -19 5 -12 2 6 2 18 0 25 -3 6 -5 1 -5 -13z"/>
<path d="M508 1863 c7 -3 16 -2 19 1 4 3 -2 6 -13 5 -11 0 -14 -3 -6 -6z"/>
<path d="M3006 1861 c-3 -4 6 -6 19 -3 14 2 25 6 25 8 0 8 -39 4 -44 -5z"/>
<path d="M515 1829 c-4 -6 -5 -12 -2 -15 2 -3 7 2 10 11 7 17 1 20 -8 4z"/>
<path d="M498 1783 c6 -2 18 -2 25 0 6 3 1 5 -13 5 -14 0 -19 -2 -12 -5z"/>
<path d="M3018 1783 c6 -2 18 -2 25 0 6 3 1 5 -13 5 -14 0 -19 -2 -12 -5z"/>
<path d="M515 1740 c-16 -7 -17 -9 -3 -9 9 -1 20 4 23 9 7 11 7 11 -20 0z"/>
<path d="M3030 1740 c-13 -8 -12 -10 3 -10 9 0 17 5 17 10 0 12 -1 12 -20 0z"/>
<path d="M514 1662 c3 -5 0 -13 -6 -15 -9 -4 -10 -6 -1 -6 17 -1 25 16 12 25
-7 4 -9 3 -5 -4z"/>
<path d="M3025 1650 c-3 -5 -2 -10 4 -10 5 0 13 5 16 10 3 6 2 10 -4 10 -5 0
-13 -4 -16 -10z"/>
<path d="M604 1629 c-3 -6 -1 -16 5 -22 8 -8 11 -5 11 11 0 24 -5 28 -16 11z"/>
<path d="M682 1615 c0 -16 2 -22 5 -12 2 9 2 23 0 30 -3 6 -5 -1 -5 -18z"/>
<path d="M3113 1614 c0 -17 2 -22 7 -13 5 6 6 18 3 26 -8 19 -10 16 -10 -13z"/>
<path d="M3134 1614 c-1 -13 2 -21 7 -18 11 6 12 31 2 37 -5 3 -9 -6 -9 -19z"/>
<path d="M3207 1625 c-4 -8 -2 -17 3 -20 6 -4 10 3 10 14 0 25 -6 27 -13 6z"/>
<path d="M3232 1620 c0 -14 2 -19 5 -12 2 6 2 18 0 25 -3 6 -5 1 -5 -13z"/>
<path d="M505 1620 c-3 -6 1 -7 9 -4 18 7 21 14 7 14 -6 0 -13 -4 -16 -10z"/>
<path d="M650 1615 c0 -8 5 -15 10 -15 6 0 10 7 10 15 0 8 -4 15 -10 15 -5 0
-10 -7 -10 -15z"/>
<path d="M3025 1620 c-3 -6 1 -7 9 -4 18 7 21 14 7 14 -6 0 -13 -4 -16 -10z"/>
<path d="M481 1575 c0 -16 3 -25 7 -19 4 7 16 14 27 17 19 4 19 5 -2 6 -12 0
-24 7 -26 14 -3 6 -6 -1 -6 -18z"/>
<path d="M3013 1573 c9 -2 23 -2 30 0 6 3 -1 5 -18 5 -16 0 -22 -2 -12 -5z"/>
<path d="M3023 1457 c-1 -11 -1 -18 0 -16 2 2 8 11 15 20 9 12 9 16 -1 16 -7
0 -14 -9 -14 -20z"/>
<path d="M520 1430 c-9 -6 -10 -10 -3 -10 6 0 15 5 18 10 8 12 4 12 -15 0z"/>
<path d="M3030 1430 c-13 -8 -12 -10 3 -10 9 0 17 5 17 10 0 12 -1 12 -20 0z"/>
<path d="M508 1393 c7 -3 16 -2 19 1 4 3 -2 6 -13 5 -11 0 -14 -3 -6 -6z"/>
<path d="M682 1375 c0 -16 2 -22 5 -12 2 9 2 23 0 30 -3 6 -5 -1 -5 -18z"/>
<path d="M3018 1393 c6 -2 18 -2 25 0 6 3 1 5 -13 5 -14 0 -19 -2 -12 -5z"/>
<path d="M3207 1385 c-4 -8 -2 -17 3 -20 6 -4 10 3 10 14 0 25 -6 27 -13 6z"/>
<path d="M3232 1380 c0 -14 2 -19 5 -12 2 6 2 18 0 25 -3 6 -5 1 -5 -13z"/>
<path d="M650 1375 c0 -8 5 -15 10 -15 6 0 10 7 10 15 0 8 -4 15 -10 15 -5 0
-10 -7 -10 -15z"/>
<path d="M3112 1370 c0 -14 2 -19 5 -12 2 6 2 18 0 25 -3 6 -5 1 -5 -13z"/>
<path d="M3137 1384 c-4 -4 -7 -14 -7 -23 0 -11 3 -12 11 -4 6 6 10 16 7 23
-2 6 -7 8 -11 4z"/>
<path d="M503 1365 c0 -11 4 -12 14 -4 7 6 13 13 13 15 0 2 -6 4 -13 4 -8 0
-14 -7 -14 -15z"/>
<path d="M3028 1373 c7 -3 16 -2 19 1 4 3 -2 6 -13 5 -11 0 -14 -3 -6 -6z"/>
<path d="M3035 1350 c3 -5 8 -10 11 -10 2 0 4 5 4 10 0 6 -5 10 -11 10 -5 0
-7 -4 -4 -10z"/>
<path d="M493 1323 c9 -2 23 -2 30 0 6 3 -1 5 -18 5 -16 0 -22 -2 -12 -5z"/>
<path d="M3013 1323 c9 -2 23 -2 30 0 6 3 -1 5 -18 5 -16 0 -22 -2 -12 -5z"/>
<path d="M508 1293 c7 -3 16 -2 19 1 4 3 -2 6 -13 5 -11 0 -14 -3 -6 -6z"/>
<path d="M3028 1293 c7 -3 16 -2 19 1 4 3 -2 6 -13 5 -11 0 -14 -3 -6 -6z"/>
<path d="M508 1273 c7 -3 16 -2 19 1 4 3 -2 6 -13 5 -11 0 -14 -3 -6 -6z"/>
<path d="M3028 1273 c7 -3 16 -2 19 1 4 3 -2 6 -13 5 -11 0 -14 -3 -6 -6z"/>
<path d="M508 1243 c7 -3 16 -2 19 1 4 3 -2 6 -13 5 -11 0 -14 -3 -6 -6z"/>
<path d="M3028 1243 c7 -3 16 -2 19 1 4 3 -2 6 -13 5 -11 0 -14 -3 -6 -6z"/>
<path d="M508 1213 c7 -3 16 -2 19 1 4 3 -2 6 -13 5 -11 0 -14 -3 -6 -6z"/>
<path d="M3028 1213 c7 -3 16 -2 19 1 4 3 -2 6 -13 5 -11 0 -14 -3 -6 -6z"/>
<path d="M500 1190 c0 -5 7 -7 15 -4 8 4 15 8 15 10 0 2 -7 4 -15 4 -8 0 -15
-4 -15 -10z"/>
<path d="M3020 1190 c0 -5 7 -7 15 -4 8 4 15 8 15 10 0 2 -7 4 -15 4 -8 0 -15
-4 -15 -10z"/>
<path d="M500 1160 c0 -5 7 -7 15 -4 8 4 15 8 15 10 0 2 -7 4 -15 4 -8 0 -15
-4 -15 -10z"/>
<path d="M3028 1163 c7 -3 16 -2 19 1 4 3 -2 6 -13 5 -11 0 -14 -3 -6 -6z"/>
<path d="M610 1146 c0 -8 -5 -16 -12 -18 -7 -3 -6 -7 5 -11 13 -5 17 -1 17 18
0 14 -2 25 -5 25 -3 0 -5 -6 -5 -14z"/>
<path d="M655 1147 c-4 -10 -5 -21 -1 -24 10 -10 18 4 13 24 -4 17 -4 17 -12
0z"/>
<path d="M682 1135 c0 -16 2 -22 5 -12 2 9 2 23 0 30 -3 6 -5 -1 -5 -18z"/>
<path d="M3207 1145 c-4 -8 -2 -17 3 -20 6 -4 10 3 10 14 0 25 -6 27 -13 6z"/>
<path d="M3232 1140 c0 -14 2 -19 5 -12 2 6 2 18 0 25 -3 6 -5 1 -5 -13z"/>
<path d="M3140 1141 c0 -5 -8 -12 -17 -14 -14 -4 -12 -5 5 -6 13 -1 22 5 22
14 0 8 -2 15 -5 15 -3 0 -5 -4 -5 -9z"/>
<path d="M4170 1110 c0 -37 2 -40 28 -39 23 2 24 2 5 6 -27 5 -31 23 -5 23 16
1 16 1 0 11 -24 14 -22 27 5 32 19 4 18 4 -5 6 -26 1 -28 -2 -28 -39z"/>
<path d="M4385 1139 c-4 -6 -4 -13 -1 -16 3 -4 6 -1 6 6 0 7 5 9 12 5 7 -4 8
-3 4 4 -9 15 -13 15 -21 1z"/>
<path d="M4455 1139 c-4 -6 -4 -13 -1 -16 3 -4 6 -1 6 6 0 7 5 9 12 5 7 -4 8
-3 4 4 -9 15 -13 15 -21 1z"/>
<path d="M4490 1129 c-7 -11 -9 -23 -7 -26 3 -2 8 5 12 16 7 23 25 29 25 8 0
-7 -7 -23 -16 -35 -14 -21 -14 -22 8 -21 13 0 17 3 11 6 -10 3 -10 10 -2 25
11 21 6 48 -10 48 -6 0 -15 -9 -21 -21z"/>
<path d="M4544 1135 c-3 -8 -4 -20 -1 -27 3 -7 6 -3 6 10 1 15 5 21 13 16 7
-4 8 -3 4 4 -10 16 -15 15 -22 -3z"/>
<path d="M508 1133 c7 -3 16 -2 19 1 4 3 -2 6 -13 5 -11 0 -14 -3 -6 -6z"/>
<path d="M1758 1133 c7 -3 16 -2 19 1 4 3 -2 6 -13 5 -11 0 -14 -3 -6 -6z"/>
<path d="M1932 1108 c2 -17 9 -33 16 -34 7 -1 8 0 2 3 -14 7 -13 50 3 56 7 3
4 6 -6 6 -15 1 -18 -5 -15 -31z"/>
<path d="M1994 1126 c-13 -34 0 -51 41 -53 22 -1 34 1 28 3 -10 4 -10 11 -2
25 11 21 5 39 -14 39 -8 0 -8 -3 2 -9 11 -7 11 -12 0 -32 l-13 -24 -6 29 c-6
33 -27 46 -36 22z m26 -21 c0 -14 -4 -25 -10 -25 -5 0 -10 11 -10 25 0 14 5
25 10 25 6 0 10 -11 10 -25z"/>
<path d="M2090 1133 c5 -2 10 -9 10 -14 0 -6 -4 -7 -10 -4 -5 3 -10 2 -10 -4
0 -5 6 -12 13 -14 9 -4 8 -8 -3 -16 -13 -9 -12 -11 3 -11 15 0 18 7 15 32 -2
17 -9 33 -16 34 -7 1 -8 0 -2 -3z"/>
<path d="M3028 1133 c7 -3 16 -2 19 1 4 3 -2 6 -13 5 -11 0 -14 -3 -6 -6z"/>
<path d="M1824 1116 c-3 -8 -4 -23 -2 -33 3 -11 6 -6 9 15 6 34 2 42 -7 18z"/>
<path d="M1845 1110 c-8 -27 10 -49 26 -33 13 13 8 45 -8 50 -6 2 -14 -6 -18
-17z m25 -15 c0 -8 -4 -15 -10 -15 -5 0 -10 7 -10 15 0 8 5 15 10 15 6 0 10
-7 10 -15z"/>
<path d="M4234 1116 c-3 -8 -4 -23 -2 -33 3 -11 6 -6 9 15 6 34 2 42 -7 18z"/>
<path d="M4263 1117 c-3 -6 -1 -7 5 -3 8 5 12 0 12 -13 0 -11 4 -22 9 -25 4
-3 6 6 3 19 -2 14 0 25 6 25 6 0 13 -11 15 -25 4 -23 4 -23 3 2 -1 22 -6 28
-24 29 -12 1 -25 -3 -29 -9z"/>
<path d="M4334 1116 c-3 -8 -4 -23 -2 -33 3 -11 6 -6 9 15 6 34 2 42 -7 18z"/>
<path d="M500 1110 c0 -6 7 -10 15 -10 8 0 15 2 15 4 0 2 -7 6 -15 10 -8 3
-15 1 -15 -4z"/>
<path d="M1790 1101 c0 -12 -8 -21 -22 -24 -21 -4 -20 -4 3 -6 21 -1 28 4 31
24 3 14 1 25 -3 25 -5 0 -9 -9 -9 -19z"/>
<path d="M1961 1104 c0 -11 3 -14 6 -6 3 7 2 16 -1 19 -3 4 -6 -2 -5 -13z"/>
<path d="M3020 1110 c0 -6 7 -10 15 -10 8 0 15 2 15 4 0 2 -7 6 -15 10 -8 3
-15 1 -15 -4z"/>
<path d="M4565 1111 c-3 -5 -1 -12 5 -16 5 -3 10 1 10 9 0 18 -6 21 -15 7z"/>
<path d="M1758 1103 c7 -3 16 -2 19 1 4 3 -2 6 -13 5 -11 0 -14 -3 -6 -6z"/>
<path d="M508 1083 c7 -3 16 -2 19 1 4 3 -2 6 -13 5 -11 0 -14 -3 -6 -6z"/>
<path d="M3028 1083 c7 -3 16 -2 19 1 4 3 -2 6 -13 5 -11 0 -14 -3 -6 -6z"/>
<path d="M4380 1080 c0 -6 7 -10 15 -10 8 0 15 2 15 4 0 2 -7 6 -15 10 -8 3
-15 1 -15 -4z"/>
<path d="M4450 1080 c0 -6 7 -10 15 -10 8 0 15 2 15 4 0 2 -7 6 -15 10 -8 3
-15 1 -15 -4z"/>
<path d="M4540 1080 c0 -6 7 -10 15 -10 8 0 15 2 15 4 0 2 -7 6 -15 10 -8 3
-15 1 -15 -4z"/>
<path d="M515 1060 c-16 -7 -17 -9 -3 -9 9 -1 20 4 23 9 7 11 7 11 -20 0z"/>
<path d="M3028 1053 c7 -3 16 -2 19 1 4 3 -2 6 -13 5 -11 0 -14 -3 -6 -6z"/>
<path d="M481 1028 c-2 -38 27 -65 43 -39 3 5 -2 8 -11 7 -10 0 -20 9 -24 24
-4 14 -7 18 -8 8z"/>
<path d="M3007 988 c2 -5 10 -8 18 -8 8 0 16 3 18 8 3 4 -5 7 -18 7 -13 0 -21
-3 -18 -7z"/>
<path d="M4170 948 c0 -49 5 -47 14 5 4 23 3 37 -4 37 -5 0 -10 -19 -10 -42z"/>
<path d="M4214 975 c-3 -8 -1 -27 4 -42 10 -27 10 -26 11 15 1 43 -5 54 -15
27z"/>
<path d="M4400 945 c0 -46 13 -58 38 -33 25 25 8 78 -25 78 -9 0 -13 -15 -13
-45z m35 0 c0 -16 -6 -30 -12 -32 -9 -3 -13 7 -13 32 0 25 4 35 13 33 6 -3 12
-17 12 -33z"/>
<path d="M4820 986 c0 -2 7 -6 15 -10 8 -3 15 -1 15 4 0 6 -7 10 -15 10 -8 0
-15 -2 -15 -4z"/>
<path d="M4937 983 c-13 -12 -7 -43 8 -43 8 0 15 5 15 11 0 5 -4 7 -10 4 -5
-3 -10 1 -10 10 0 10 5 13 12 9 7 -4 8 -3 4 4 -8 14 -10 14 -19 5z"/>
<path d="M1741 940 l1 -45 10 34 c6 23 6 37 -1 44 -8 8 -11 -2 -10 -33z"/>
<path d="M1772 943 c-15 -48 -8 -55 8 -8 7 20 10 38 8 41 -3 2 -10 -13 -16
-33z"/>
<path d="M1963 974 c20 -6 24 -60 5 -67 -8 -2 -7 -3 2 -3 10 1 15 12 15 36 0
27 -4 35 -20 37 -16 1 -16 1 -2 -3z"/>
<path d="M2340 970 c-1 -8 -2 -21 -1 -29 2 -7 -2 -10 -8 -6 -16 9 -13 -4 4
-21 10 -10 15 -11 15 -3 0 8 4 8 15 -1 9 -7 18 -10 22 -6 3 3 1 6 -5 6 -7 0
-12 7 -12 15 0 8 5 15 10 15 6 0 10 -5 10 -12 0 -6 3 -8 7 -4 5 4 -1 14 -12
22 -17 13 -18 16 -5 25 13 9 13 10 0 7 -8 -3 -17 -15 -21 -29 -6 -23 -6 -23
-11 6 -3 17 -6 23 -8 15z"/>
<path d="M2420 976 c0 -2 9 -6 20 -9 11 -3 20 -1 20 4 0 5 -9 9 -20 9 -11 0
-20 -2 -20 -4z"/>
<path d="M2476 972 c-3 -5 1 -9 9 -9 8 0 12 4 9 9 -3 4 -7 8 -9 8 -2 0 -6 -4
-9 -8z"/>
<path d="M4610 946 c0 -19 3 -37 8 -40 4 -2 6 13 4 35 -5 48 -12 51 -12 5z"/>
<path d="M4775 970 c-3 -5 -1 -10 4 -10 6 0 11 5 11 10 0 6 -2 10 -4 10 -3 0
-8 -4 -11 -10z"/>
<path d="M4865 970 c-3 -5 -1 -10 4 -10 6 0 11 5 11 10 0 6 -2 10 -4 10 -3 0
-8 -4 -11 -10z"/>
<path d="M4986 963 c-6 -14 -5 -15 5 -6 7 7 10 15 7 18 -3 3 -9 -2 -12 -12z"/>
<path d="M531 961 c-8 -5 -21 -7 -30 -4 -13 4 -14 3 -2 -5 14 -10 51 0 51 13
0 7 -3 6 -19 -4z"/>
<path d="M2143 935 c0 -22 2 -30 4 -17 2 12 2 30 0 40 -3 9 -5 -1 -4 -23z"/>
<path d="M4244 956 c-13 -33 0 -51 36 -51 29 0 36 4 38 24 4 28 -12 49 -23 30
-5 -8 -4 -10 3 -5 7 4 12 3 12 -2 0 -20 -29 -21 -35 -1 -7 22 -23 25 -31 5z
m21 -6 c3 -5 1 -10 -4 -10 -6 0 -11 5 -11 10 0 6 2 10 4 10 3 0 8 -4 11 -10z
m10 -30 c-3 -5 -10 -10 -16 -10 -5 0 -9 5 -9 10 0 6 7 10 16 10 8 0 12 -4 9
-10z m35 0 c0 -5 -4 -10 -10 -10 -5 0 -10 5 -10 10 0 6 5 10 10 10 6 0 10 -4
10 -10z"/>
<path d="M4343 963 c-7 -3 -12 -17 -12 -31 2 -24 2 -24 6 -4 2 12 9 22 14 22
5 0 10 -10 10 -22 1 -17 3 -18 6 -6 6 23 -9 46 -24 41z"/>
<path d="M4467 963 c-4 -3 -7 -12 -7 -20 0 -19 37 -16 44 4 4 10 4 14 0 10 -4
-4 -12 -2 -19 3 -7 5 -15 7 -18 3z m18 -13 c3 -5 1 -10 -4 -10 -6 0 -11 5 -11
10 0 6 2 10 4 10 3 0 8 -4 11 -10z"/>
<path d="M4574 959 c-4 -8 -3 -9 4 -5 7 4 12 3 12 -3 0 -5 -9 -13 -20 -16 -24
-8 -26 -21 -4 -29 22 -9 34 1 34 29 0 27 -15 41 -26 24z m16 -39 c0 -5 -4 -10
-10 -10 -5 0 -10 5 -10 10 0 6 5 10 10 10 6 0 10 -4 10 -10z"/>
<path d="M4654 956 c-9 -23 0 -51 16 -51 10 0 15 10 15 29 0 32 -21 47 -31 22z
m26 -21 c0 -14 -4 -25 -10 -25 -11 0 -14 33 -3 43 11 11 13 8 13 -18z"/>
<path d="M4704 956 c-3 -8 -4 -23 -1 -33 3 -12 5 -8 6 10 0 16 5 26 11 22 6
-3 10 -1 10 4 0 16 -20 13 -26 -3z"/>
<path d="M1803 944 c-9 -23 3 -39 30 -39 21 -1 24 2 16 17 -7 14 -6 16 5 12 8
-3 17 -13 20 -22 2 -10 4 -4 3 13 -2 26 -6 30 -35 31 -20 1 -36 -4 -39 -12z
m32 -24 c-3 -5 -10 -10 -16 -10 -5 0 -9 5 -9 10 0 6 7 10 16 10 8 0 12 -4 9
-10z"/>
<path d="M1896 953 c7 -4 14 -19 17 -33 4 -22 5 -21 4 4 -1 17 -9 31 -17 33
-10 3 -11 2 -4 -4z"/>
<path d="M2004 945 c-4 -8 -4 -22 0 -30 6 -17 26 -20 26 -4 0 5 -4 7 -10 4 -5
-3 -10 -1 -10 4 0 6 6 11 13 11 9 0 8 3 -2 9 -11 7 -11 9 0 14 11 4 11 6 1 6
-7 1 -15 -6 -18 -14z"/>
<path d="M2041 944 c0 -11 3 -14 6 -6 3 7 2 16 -1 19 -3 4 -6 -2 -5 -13z"/>
<path d="M2082 930 c0 -19 2 -27 5 -17 2 9 2 25 0 35 -3 9 -5 1 -5 -18z"/>
<path d="M2100 949 c0 -5 6 -7 13 -3 7 5 6 0 -3 -11 -9 -11 -10 -16 -2 -11 6
4 12 3 12 -3 0 -5 -6 -12 -12 -14 -8 -3 -6 -6 5 -6 12 -1 17 7 17 29 0 20 -5
30 -15 30 -8 0 -15 -5 -15 -11z"/>
<path d="M2162 930 c0 -19 2 -27 5 -17 2 9 2 25 0 35 -3 9 -5 1 -5 -18z"/>
<path d="M2180 950 c0 -6 5 -8 10 -5 6 3 10 -3 10 -15 0 -13 -4 -19 -12 -14
-7 5 -8 3 -3 -5 10 -17 28 2 23 25 -3 19 -28 32 -28 14z"/>
<path d="M2221 933 l1 -28 8 25 7 25 5 -30 5 -30 2 33 c1 22 -3 32 -14 32 -10
0 -15 -9 -14 -27z"/>
<path d="M2061 943 c-1 -6 -4 -20 -7 -30 -5 -17 -5 -17 6 0 6 10 9 23 6 30 -3
9 -5 9 -5 0z"/>
<path d="M2460 940 c0 -5 7 -7 15 -4 10 4 15 0 15 -11 0 -10 -5 -13 -12 -9 -7
4 -8 3 -4 -5 10 -16 26 -4 26 20 0 12 -7 19 -20 19 -11 0 -20 -4 -20 -10z"/>
<path d="M4190 938 c0 -9 5 -20 10 -23 13 -8 13 5 0 25 -8 13 -10 13 -10 -2z"/>
<path d="M4510 931 c0 -5 5 -13 10 -16 6 -3 10 -2 10 4 0 5 -4 13 -10 16 -5 3
-10 2 -10 -4z"/>
<path d="M4970 929 c0 -5 10 -9 22 -9 12 0 18 3 14 7 -10 11 -36 12 -36 2z"/>
<path d="M606 917 c3 -10 9 -15 12 -12 3 3 0 11 -7 18 -10 9 -11 8 -5 -6z"/>
<path d="M3131 906 c7 -15 15 -23 17 -16 3 7 -3 19 -13 28 -15 16 -16 15 -4
-12z"/>
<path d="M682 895 c0 -16 2 -22 5 -12 2 9 2 23 0 30 -3 6 -5 -1 -5 -18z"/>
<path d="M3207 905 c-4 -8 -2 -17 3 -20 6 -4 10 3 10 14 0 25 -6 27 -13 6z"/>
<path d="M3232 900 c0 -14 2 -19 5 -12 2 6 2 18 0 25 -3 6 -5 1 -5 -13z"/>
<path d="M4467 909 c7 -7 15 -10 18 -7 3 3 -2 9 -12 12 -14 6 -15 5 -6 -5z"/>
<path d="M4936 908 c3 -5 10 -6 15 -3 13 9 11 12 -6 12 -8 0 -12 -4 -9 -9z"/>
<path d="M650 895 c0 -8 5 -15 10 -15 6 0 10 7 10 15 0 8 -4 15 -10 15 -5 0
-10 -7 -10 -15z"/>
<path d="M493 893 c9 -2 23 -2 30 0 6 3 -1 5 -18 5 -16 0 -22 -2 -12 -5z"/>
<path d="M3013 893 c9 -2 23 -2 30 0 6 3 -1 5 -18 5 -16 0 -22 -2 -12 -5z"/>
<path d="M860 702 c0 -4 -8 -9 -17 -10 -10 -1 -27 -4 -38 -6 -11 -2 -28 -5
-37 -5 -10 -1 -18 -5 -18 -9 0 -4 27 -4 60 2 38 6 60 15 60 23 0 7 -2 13 -5
13 -3 0 -5 -4 -5 -8z"/>
<path d="M3310 679 c0 -5 -4 -8 -8 -5 -4 2 -14 1 -22 -5 -11 -6 -8 -9 13 -9
17 0 27 5 27 15 0 8 -2 15 -5 15 -3 0 -5 -5 -5 -11z"/>
<path d="M3232 660 c0 -14 2 -19 5 -12 2 6 2 18 0 25 -3 6 -5 1 -5 -13z"/>
<path d="M3211 654 c0 -11 3 -14 6 -6 3 7 2 16 -1 19 -3 4 -6 -2 -5 -13z"/>
<path d="M1385 620 c3 -5 8 -10 11 -10 2 0 4 5 4 10 0 6 -5 10 -11 10 -5 0 -7
-4 -4 -10z"/>
<path d="M2286 615 c4 -8 8 -15 10 -15 2 0 4 7 4 15 0 8 -4 15 -10 15 -5 0 -7
-7 -4 -15z"/>
<path d="M3452 600 c0 -19 2 -27 5 -17 2 9 2 25 0 35 -3 9 -5 1 -5 -18z"/>
<path d="M3676 615 c4 -8 8 -15 10 -15 2 0 4 7 4 15 0 8 -4 15 -10 15 -5 0 -7
-7 -4 -15z"/>
<path d="M4128 605 c-3 -14 -1 -28 3 -31 5 -3 9 9 9 25 0 38 -6 40 -12 6z"/>
<path d="M4798 623 c7 -3 16 -2 19 1 4 3 -2 6 -13 5 -11 0 -14 -3 -6 -6z"/>
<path d="M1181 603 c-1 -12 -9 -24 -18 -26 -17 -4 -17 -5 0 -6 19 -1 32 21 24
41 -3 7 -6 3 -6 -9z"/>
<path d="M1202 600 c0 -14 2 -19 5 -12 2 6 2 18 0 25 -3 6 -5 1 -5 -13z"/>
<path d="M2503 592 c0 -15 2 -20 7 -13 4 7 11 12 16 12 16 -2 10 22 -6 24 -10
2 -16 -7 -17 -23z"/>
<path d="M3232 600 c0 -14 2 -19 5 -12 2 6 2 18 0 25 -3 6 -5 1 -5 -13z"/>
<path d="M3252 600 c0 -14 2 -19 5 -12 2 6 2 18 0 25 -3 6 -5 1 -5 -13z"/>
<path d="M4152 600 c0 -14 2 -19 5 -12 2 6 2 18 0 25 -3 6 -5 1 -5 -13z"/>
<path d="M4172 600 c0 -14 2 -19 5 -12 2 6 2 18 0 25 -3 6 -5 1 -5 -13z"/>
<path d="M4372 600 c0 -14 2 -19 5 -12 2 6 2 18 0 25 -3 6 -5 1 -5 -13z"/>
<path d="M4392 600 c0 -14 2 -19 5 -12 2 6 2 18 0 25 -3 6 -5 1 -5 -13z"/>
<path d="M1630 602 c0 -6 -8 -13 -17 -15 -16 -4 -16 -5 -1 -6 18 -1 34 16 24
26 -3 4 -6 1 -6 -5z"/>
<path d="M1836 595 c4 -8 8 -15 10 -15 2 0 4 7 4 15 0 8 -4 15 -10 15 -5 0 -7
-7 -4 -15z"/>
<path d="M2051 594 c0 -11 3 -14 6 -6 3 7 2 16 -1 19 -3 4 -6 -2 -5 -13z"/>
<path d="M2077 603 c-4 -3 -7 -11 -7 -17 0 -6 5 -5 12 2 6 6 9 14 7 17 -3 3
-9 2 -12 -2z"/>
<path d="M3471 594 c0 -11 3 -14 6 -6 3 7 2 16 -1 19 -3 4 -6 -2 -5 -13z"/>
<path d="M3917 603 c-4 -3 -7 -11 -7 -17 0 -6 5 -5 12 2 6 6 9 14 7 17 -3 3
-9 2 -12 -2z"/>
<path d="M1427 542 c6 -4 13 -21 15 -37 3 -29 4 -29 9 8 4 32 2 37 -16 37 -12
0 -16 -3 -8 -8z"/>
<path d="M1683 515 c0 -22 2 -30 4 -17 2 12 2 30 0 40 -3 9 -5 -1 -4 -23z"/>
<path d="M3955 540 c3 -5 12 -7 20 -3 21 7 19 13 -6 13 -11 0 -18 -4 -14 -10z"/>
<path d="M4193 515 c0 -22 2 -30 4 -17 2 12 2 30 0 40 -3 9 -5 -1 -4 -23z"/>
<path d="M4142 510 c0 -19 2 -27 5 -17 2 9 2 25 0 35 -3 9 -5 1 -5 -18z"/>
<path d="M1472 500 c0 -14 2 -19 5 -12 2 6 2 18 0 25 -3 6 -5 1 -5 -13z"/>
<path d="M1492 500 c0 -14 2 -19 5 -12 2 6 2 18 0 25 -3 6 -5 1 -5 -13z"/>
<path d="M1512 500 c0 -14 2 -19 5 -12 2 6 2 18 0 25 -3 6 -5 1 -5 -13z"/>
<path d="M1532 500 c0 -14 2 -19 5 -12 2 6 2 18 0 25 -3 6 -5 1 -5 -13z"/>
<path d="M1702 500 c0 -14 2 -19 5 -12 2 6 2 18 0 25 -3 6 -5 1 -5 -13z"/>
<path d="M1742 500 c0 -14 2 -19 5 -12 2 6 2 18 0 25 -3 6 -5 1 -5 -13z"/>
<path d="M1792 500 c0 -14 2 -19 5 -12 2 6 2 18 0 25 -3 6 -5 1 -5 -13z"/>
<path d="M4072 500 c0 -14 2 -19 5 -12 2 6 2 18 0 25 -3 6 -5 1 -5 -13z"/>
<path d="M4094 500 c0 -13 4 -16 10 -10 7 7 7 13 0 20 -6 6 -10 3 -10 -10z"/>
<path d="M4262 500 c0 -14 2 -19 5 -12 2 6 2 18 0 25 -3 6 -5 1 -5 -13z"/>
<path d="M4282 500 c0 -14 2 -19 5 -12 2 6 2 18 0 25 -3 6 -5 1 -5 -13z"/>
<path d="M4302 500 c0 -14 2 -19 5 -12 2 6 2 18 0 25 -3 6 -5 1 -5 -13z"/>
<path d="M4210 494 c0 -8 5 -12 10 -9 6 3 10 10 10 16 0 5 -4 9 -10 9 -5 0
-10 -7 -10 -16z"/>
<path d="M1334 349 c-29 -32 -27 -121 5 -151 l23 -23 -17 28 c-23 36 -24 107
-1 141 20 31 16 34 -10 5z"/>
<path d="M1485 348 c9 -15 17 -47 17 -73 0 -26 -8 -58 -17 -73 l-17 -27 23 23
c20 18 24 33 24 77 0 44 -4 59 -24 77 l-23 23 17 -27z"/>
<path d="M3774 349 c-29 -32 -27 -121 5 -151 l23 -23 -17 28 c-23 36 -24 107
-1 141 20 31 16 34 -10 5z"/>
<path d="M3935 348 c9 -15 17 -47 17 -73 0 -26 -8 -58 -17 -73 l-17 -27 23 23
c20 18 24 33 24 77 0 44 -4 59 -24 77 l-23 23 17 -27z"/>
<path d="M1620 345 c-17 -21 -5 -45 30 -58 34 -13 40 -40 13 -56 -10 -6 -13
-11 -7 -11 21 0 46 27 43 46 -2 10 -19 26 -36 34 -36 17 -45 50 -13 50 10 0
24 -8 29 -17 10 -17 10 -16 11 2 0 16 -7 21 -29 23 -16 1 -34 -5 -41 -13z"/>
<path d="M1718 353 c7 -3 12 -25 12 -58 0 -33 -5 -55 -12 -58 -7 -3 3 -5 22
-5 19 0 29 2 23 5 -8 3 -13 25 -13 58 0 33 5 55 13 58 6 3 -4 5 -23 5 -19 0
-29 -2 -22 -5z"/>
<path d="M1797 354 c-4 -4 -7 -18 -7 -31 0 -17 9 -27 36 -38 29 -12 35 -19 31
-35 -3 -11 -1 -18 4 -14 5 3 9 16 9 29 0 19 -9 28 -36 40 -39 16 -41 38 -6 43
16 2 25 -4 31 -20 l10 -23 0 25 c1 22 -4 26 -32 28 -18 1 -36 -1 -40 -4z"/>
<path d="M3818 353 c8 -3 12 -26 12 -64 0 -50 3 -59 18 -59 13 0 14 2 4 9 -19
12 -11 55 11 59 23 5 33 -25 18 -50 -10 -16 -10 -19 0 -16 44 15 32 73 -15 73
-22 -1 -26 4 -26 27 0 20 -5 28 -17 27 -11 0 -13 -3 -5 -6z"/>
<path d="M4070 345 c-17 -21 -5 -45 30 -58 34 -13 40 -40 13 -56 -10 -6 -13
-11 -7 -11 21 0 46 27 43 46 -2 10 -19 26 -36 34 -36 17 -45 50 -13 50 10 0
24 -8 29 -17 10 -17 10 -16 11 2 0 16 -7 21 -29 23 -16 1 -34 -5 -41 -13z"/>
<path d="M4169 351 c9 -6 12 -25 10 -65 l-4 -56 53 0 c47 0 52 2 52 23 -1 20
-2 20 -11 5 -6 -11 -22 -18 -39 -18 -26 0 -30 4 -30 26 0 21 4 25 20 21 12 -3
20 0 20 8 0 8 -8 11 -20 8 -16 -4 -20 0 -20 21 0 21 5 26 24 26 14 0 32 -10
40 -22 16 -23 21 -13 10 16 -5 12 -20 16 -63 16 -35 0 -51 -4 -42 -9z"/>
<path d="M4298 353 c7 -3 12 -25 12 -58 0 -33 -5 -55 -12 -58 -7 -3 3 -5 22
-5 19 0 29 2 23 5 -8 3 -13 25 -13 58 0 33 5 55 13 58 6 3 -4 5 -23 5 -19 0
-29 -2 -22 -5z"/>
<path d="M4371 333 c0 -27 1 -27 9 -5 6 15 18 22 35 22 29 0 29 0 -17 -67 -15
-23 -28 -44 -28 -47 0 -3 20 -6 44 -6 37 0 45 4 49 22 8 29 1 36 -8 9 -4 -14
-15 -21 -31 -21 -13 0 -24 2 -24 5 0 2 14 26 30 52 17 26 30 51 30 55 0 4 -20
8 -45 8 -43 0 -45 -1 -44 -27z"/>
<path d="M1385 301 c-5 -10 -4 -16 3 -19 8 -2 7 -8 -3 -19 -8 -8 -13 -19 -10
-24 10 -15 23 -10 21 8 0 10 7 19 18 21 15 3 18 0 13 -17 -4 -17 -1 -21 16
-20 12 0 16 3 10 6 -7 2 -13 18 -13 33 0 16 -4 32 -10 35 -6 3 -7 -1 -4 -9 4
-10 1 -16 -9 -16 -9 0 -17 8 -19 18 -3 14 -5 15 -13 3z"/>
<path d="M1610 247 c0 -20 4 -25 15 -21 13 5 13 9 3 23 -7 9 -14 18 -15 20 -2
2 -3 -8 -3 -22z"/>
<path d="M4060 247 c0 -20 4 -25 15 -21 13 5 13 9 3 23 -7 9 -14 18 -15 20 -2
2 -3 -8 -3 -22z"/>
<path d="M1790 248 c0 -10 4 -18 9 -18 5 0 18 -3 28 -6 15 -5 15 -3 -2 7 -11
7 -23 17 -27 23 -5 7 -8 4 -8 -6z"/>
</g>
</svg>
