<?xml version="1.0" standalone="no"?>
<!DOCTYPE svg PUBLIC "-//W3C//DTD SVG 20010904//EN"
 "http://www.w3.org/TR/2001/REC-SVG-20010904/DTD/svg10.dtd">
<svg version="1.0" xmlns="http://www.w3.org/2000/svg"
 width="864.000000pt" height="216.000000pt" viewBox="0 0 864.000000 216.000000"
 preserveAspectRatio="xMidYMid meet">
<metadata>
Created by potrace 1.16, written by Peter Selinger 2001-2019
</metadata>
<g transform="translate(0.000000,216.000000) scale(0.100000,-0.100000)"
fill="#000000" stroke="none">
<path d="M0 1080 l0 -1080 4320 0 4320 0 0 1080 0 1080 -4320 0 -4320 0 0
-1080z m1990 5 l0 -325 -325 0 -325 0 0 325 0 325 325 0 325 0 0 -325z m2770
0 l0 -325 -325 0 -325 0 0 325 0 325 325 0 325 0 0 -325z m2760 0 l0 -325
-325 0 -325 0 0 325 0 325 325 0 325 0 0 -325z m-4563 242 c-12 -13 -24 -22
-26 -20 -6 4 30 43 40 43 5 0 -2 -10 -14 -23z m7 -76 c-2 -3 -12 3 -22 13 -16
17 -16 18 5 5 12 -7 20 -15 17 -18z m146 -8 c0 -15 -2 -16 -10 -3 -8 12 -10
12 -10 1 0 -8 -3 -12 -6 -8 -8 7 4 27 17 27 5 0 9 -8 9 -17z m-338 -21 c-15
-15 -29 -26 -31 -25 -6 4 41 53 50 53 4 0 -4 -13 -19 -28z m113 18 c3 -6 -1
-7 -9 -4 -18 7 -21 14 -7 14 6 0 13 -4 16 -10z m131 -5 c8 -19 -13 -45 -35
-44 -11 0 -9 3 7 9 24 10 30 35 10 43 -10 4 -10 6 0 6 7 1 15 -6 18 -14z m124
-15 c0 -5 -10 -10 -22 -9 -22 0 -22 1 -3 9 11 5 21 9 23 9 1 1 2 -3 2 -9z
m-330 -4 c0 -2 -8 -10 -17 -17 -16 -13 -17 -12 -4 4 13 16 21 21 21 13z m87
-28 c-3 -7 -5 -2 -5 12 0 14 2 19 5 13 2 -7 2 -19 0 -25z m138 2 c-10 -11 -22
-20 -26 -20 -5 0 2 10 14 23 27 28 38 25 12 -3z m42 -12 c-3 -8 -6 -5 -6 6 -1
11 2 17 5 13 3 -3 4 -12 1 -19z m2810 0 c-3 -8 -6 -5 -6 6 -1 11 2 17 5 13 3
-3 4 -12 1 -19z m-3042 -18 c-10 -11 -22 -20 -26 -20 -5 0 2 10 14 23 27 28
38 25 12 -3z m252 8 c-3 -8 -6 -5 -6 6 -1 11 2 17 5 13 3 -3 4 -12 1 -19z
m170 0 c-3 -8 -6 -5 -6 6 -1 11 2 17 5 13 3 -3 4 -12 1 -19z m2360 0 c-3 -8
-6 -5 -6 6 -1 11 2 17 5 13 3 -3 4 -12 1 -19z m-2890 -20 c-3 -8 -6 -5 -6 6
-1 11 2 17 5 13 3 -3 4 -12 1 -19z m134 -11 l-24 -22 19 27 c10 14 21 24 23
22 3 -3 -6 -15 -18 -27z m2816 11 c-3 -8 -6 -5 -6 6 -1 11 2 17 5 13 3 -3 4
-12 1 -19z m-3566 3 c-11 -7 -11 -14 4 -38 16 -28 16 -30 -4 -64 -24 -38 -28
-32 -7 9 12 23 12 31 0 52 -18 34 -17 50 4 50 13 0 14 -2 3 -9z m1831 -33 c21
-12 38 -27 38 -34 0 -14 -95 -64 -123 -64 -13 0 -17 5 -13 16 3 9 6 20 6 25 0
6 5 7 10 4 8 -5 7 -11 -1 -21 -18 -22 4 -18 63 12 50 25 51 27 32 41 -25 20
-97 53 -103 48 -2 -3 2 -11 9 -20 7 -8 8 -15 2 -15 -12 0 -24 29 -17 41 7 10
43 -3 97 -33z m933 32 c-3 -5 1 -22 8 -37 13 -25 13 -32 -4 -63 -11 -19 -19
-28 -19 -20 0 8 7 24 15 34 13 17 13 22 0 42 -17 27 -20 54 -4 54 5 0 7 -4 4
-10z m1840 -39 c16 -9 30 -21 30 -27 0 -12 -95 -63 -117 -64 -20 0 -21 6 -7
35 9 19 9 18 5 -2 -2 -13 0 -23 5 -23 12 0 109 49 109 55 0 6 -97 55 -109 55
-6 0 -8 -8 -5 -17 5 -15 4 -16 -5 -3 -6 8 -11 21 -11 28 0 13 47 -3 105 -37z
m-4312 32 c-40 -2 -107 -2 -150 0 -43 1 -10 3 72 3 83 0 118 -2 78 -3z m704 1
c-3 -3 -12 -4 -19 -1 -8 3 -5 6 6 6 11 1 17 -2 13 -5z m2056 -1 c-40 -2 -106
-2 -145 0 -40 1 -8 3 72 3 80 0 112 -2 73 -3z m664 -15 c-3 -8 -6 -5 -6 6 -1
11 2 17 5 13 3 -3 4 -12 1 -19z m40 0 c-3 -8 -6 -5 -6 6 -1 11 2 17 5 13 3 -3
4 -12 1 -19z m-3297 -43 l0 -55 -37 2 c-37 1 -37 1 -5 5 31 4 32 6 32 48 0 33
-4 45 -17 48 -14 4 -12 5 5 6 20 1 22 -3 22 -54z m637 33 c-3 -8 -6 -5 -6 6
-1 11 2 17 5 13 3 -3 4 -12 1 -19z m40 0 c-3 -8 -6 -5 -6 6 -1 11 2 17 5 13 3
-3 4 -12 1 -19z m2233 -33 l0 -55 -107 2 -108 2 103 3 102 4 0 44 0 44 -87 4
-88 3 93 2 92 2 0 -55z m260 35 c-6 -11 -13 -20 -16 -20 -2 0 0 9 6 20 6 11
13 20 16 20 2 0 0 -9 -6 -20z m40 0 c-6 -11 -13 -20 -16 -20 -2 0 0 9 6 20 6
11 13 20 16 20 2 0 0 -9 -6 -20z m-133 -12 c-3 -8 -6 -5 -6 6 -1 11 2 17 5 13
3 -3 4 -12 1 -19z m-2930 -10 c-3 -8 -6 -5 -6 6 -1 11 2 17 5 13 3 -3 4 -12 1
-19z m936 15 l-143 -4 0 -24 c0 -24 0 -24 123 -28 l122 -3 -127 -2 -128 -2 0
35 0 35 148 -2 147 -2 -142 -3z m2675 -56 l197 -2 -202 -3 -203 -2 2 38 c1 36
1 36 5 5 l4 -33 197 -3z m130 56 c-60 -2 -156 -2 -215 0 -60 1 -11 3 107 3
118 0 167 -2 108 -3z m-3655 -10 c-7 -2 -19 -2 -25 0 -7 3 -2 5 12 5 14 0 19
-2 13 -5z m2884 -25 c-3 -7 -5 -2 -5 12 0 14 2 19 5 13 2 -7 2 -19 0 -25z
m280 0 c-3 -7 -5 -2 -5 12 0 14 2 19 5 13 2 -7 2 -19 0 -25z m-2620 -10 c-3
-7 -5 -2 -5 12 0 14 2 19 5 13 2 -7 2 -19 0 -25z m2470 10 c-3 -8 -6 -5 -6 6
-1 11 2 17 5 13 3 -3 4 -12 1 -19z m40 0 c-3 -8 -6 -5 -6 6 -1 11 2 17 5 13 3
-3 4 -12 1 -19z m-2660 -10 c-3 -8 -6 -5 -6 6 -1 11 2 17 5 13 3 -3 4 -12 1
-19z m40 0 c-3 -8 -6 -5 -6 6 -1 11 2 17 5 13 3 -3 4 -12 1 -19z m2473 2 c-6
-11 -13 -20 -16 -20 -2 0 0 9 6 20 6 11 13 20 16 20 2 0 0 -9 -6 -20z m-2963
-12 c-3 -8 -6 -5 -6 6 -1 11 2 17 5 13 3 -3 4 -12 1 -19z m-40 -10 c-3 -8 -6
-5 -6 6 -1 11 2 17 5 13 3 -3 4 -12 1 -19z m170 0 c-3 -8 -6 -5 -6 6 -1 11 2
17 5 13 3 -3 4 -12 1 -19z m2780 -10 c-3 -7 -5 -2 -5 12 0 14 2 19 5 13 2 -7
2 -19 0 -25z m150 -10 c-3 -8 -6 -5 -6 6 -1 11 2 17 5 13 3 -3 4 -12 1 -19z
m40 0 c-3 -8 -6 -5 -6 6 -1 11 2 17 5 13 3 -3 4 -12 1 -19z m-2660 -10 c-3 -8
-6 -5 -6 6 -1 11 2 17 5 13 3 -3 4 -12 1 -19z m40 0 c-3 -8 -6 -5 -6 6 -1 11
2 17 5 13 3 -3 4 -12 1 -19z m2730 0 c-3 -8 -6 -5 -6 6 -1 11 2 17 5 13 3 -3
4 -12 1 -19z m-3584 5 c-40 -2 -107 -2 -150 0 -43 1 -10 3 72 3 83 0 118 -2
78 -3z m392 -11 c-3 -3 -11 0 -18 7 -9 10 -8 11 6 5 10 -3 15 -9 12 -12z m98
3 c-3 -9 -8 -14 -10 -11 -3 3 -2 9 2 15 9 16 15 13 8 -4z m474 -7 c-3 -8 -6
-5 -6 6 -1 11 2 17 5 13 3 -3 4 -12 1 -19z m1796 15 c-40 -2 -106 -2 -145 0
-40 1 -8 3 72 3 80 0 112 -2 73 -3z m794 -15 c-3 -8 -6 -5 -6 6 -1 11 2 17 5
13 3 -3 4 -12 1 -19z m-3230 -10 c-3 -8 -6 -5 -6 6 -1 11 2 17 5 13 3 -3 4
-12 1 -19z m260 0 c-3 -8 -6 -5 -6 6 -1 11 2 17 5 13 3 -3 4 -12 1 -19z m350
0 c-3 -8 -6 -5 -6 6 -1 11 2 17 5 13 3 -3 4 -12 1 -19z m2406 7 c-3 -9 -8 -14
-10 -11 -3 3 -2 9 2 15 9 16 15 13 8 -4z m-2646 -17 c-3 -8 -6 -5 -6 6 -1 11
2 17 5 13 3 -3 4 -12 1 -19z m30 0 c-3 -8 -6 -5 -6 6 -1 11 2 17 5 13 3 -3 4
-12 1 -19z m-262 2 c-3 -5 -12 -10 -18 -10 -7 0 -6 4 3 10 19 12 23 12 15 0z
m-102 -20 c-3 -12 -8 -19 -11 -16 -5 6 5 36 12 36 2 0 2 -9 -1 -20z m3214 -12
c-3 -7 -5 -2 -5 12 0 14 2 19 5 13 2 -7 2 -19 0 -25z m-2966 -5 c-8 -15 -10
-15 -11 -2 0 17 10 32 18 25 2 -3 -1 -13 -7 -23z m346 -5 c-3 -7 -5 -2 -5 12
0 14 2 19 5 13 2 -7 2 -19 0 -25z m2370 10 c-3 -8 -6 -5 -6 6 -1 11 2 17 5 13
3 -3 4 -12 1 -19z m220 0 c-3 -8 -6 -5 -6 6 -1 11 2 17 5 13 3 -3 4 -12 1 -19z
m-3230 -10 c-3 -8 -6 -5 -6 6 -1 11 2 17 5 13 3 -3 4 -12 1 -19z m610 0 c-3
-8 -6 -5 -6 6 -1 11 2 17 5 13 3 -3 4 -12 1 -19z m-240 -10 c-3 -8 -6 -5 -6 6
-1 11 2 17 5 13 3 -3 4 -12 1 -19z m30 0 c-3 -8 -6 -5 -6 6 -1 11 2 17 5 13 3
-3 4 -12 1 -19z m2570 0 c-3 -8 -6 -5 -6 6 -1 11 2 17 5 13 3 -3 4 -12 1 -19z
m-2690 -40 c-3 -8 -6 -5 -6 6 -1 11 2 17 5 13 3 -3 4 -12 1 -19z m-30 -10 c-3
-8 -6 -5 -6 6 -1 11 2 17 5 13 3 -3 4 -12 1 -19z m113 1 c0 -6 -4 -7 -10 -4
-5 3 -10 11 -10 16 0 6 5 7 10 4 6 -3 10 -11 10 -16z m27 -1 c-3 -8 -6 -5 -6
6 -1 11 2 17 5 13 3 -3 4 -12 1 -19z m-120 -40 c-3 -8 -6 -5 -6 6 -1 11 2 17
5 13 3 -3 4 -12 1 -19z"/>
<path d="M1635 1233 c-35 -9 -55 -35 -55 -69 0 -36 22 -53 85 -68 40 -10 55
-24 55 -52 0 -27 -26 -44 -70 -44 -17 0 -40 5 -51 10 -15 8 -19 7 -19 -3 0
-17 30 -27 83 -27 27 0 45 7 62 25 47 47 23 95 -59 119 -30 9 -57 23 -60 32
-16 41 44 75 97 55 22 -9 27 -8 27 4 0 8 -8 15 -17 15 -10 0 -27 2 -38 4 -11
2 -29 2 -40 -1z"/>
<path d="M4420 1120 c0 -80 4 -130 10 -130 6 0 10 50 10 130 0 80 -4 130 -10
130 -6 0 -10 -50 -10 -130z"/>
<path d="M7120 1120 c0 -80 4 -130 10 -130 6 0 10 25 10 56 l0 55 43 -3 c39
-3 44 -6 70 -55 37 -70 68 -74 33 -5 -13 27 -32 54 -40 62 -15 12 -15 14 4 27
20 14 27 66 12 90 -11 18 -58 33 -103 33 l-39 0 0 -130z m110 90 c25 -25 25
-45 -1 -71 -14 -14 -30 -19 -52 -17 -29 3 -32 6 -35 42 -2 21 -1 44 2 52 8 21
63 17 86 -6z"/>
</g>
</svg>
