<?xml version="1.0" standalone="no"?>
<!DOCTYPE svg PUBLIC "-//W3C//DTD SVG 20010904//EN"
 "http://www.w3.org/TR/2001/REC-SVG-20010904/DTD/svg10.dtd">
<svg version="1.0" xmlns="http://www.w3.org/2000/svg"
 width="290.000000pt" height="107.000000pt" viewBox="0 0 290.000000 107.000000"
 preserveAspectRatio="xMidYMid meet">
<metadata>
Created by potrace 1.16, written by Peter Selinger 2001-2019
</metadata>
<g transform="translate(0.000000,107.000000) scale(0.100000,-0.100000)"
fill="#000000" stroke="none">
<path d="M191 930 c-1 -25 -3 -200 -2 -390 0 -190 -3 -358 -6 -375 l-6 -30 -8
25 -7 25 -1 -27 c-1 -28 12 -37 24 -18 9 14 42 13 47 -2 9 -27 28 7 28 50 0
40 5 53 33 82 l32 35 6 -75 5 -75 2 76 c2 76 2 77 35 92 17 8 44 17 60 21 l27
6 0 -95 c0 -69 -3 -94 -11 -89 -7 4 -10 1 -7 -6 2 -7 11 -14 19 -15 12 -2 13
15 11 100 -3 93 -2 104 15 108 10 3 28 8 40 12 22 6 22 4 26 -102 l3 -108 2
113 c1 82 5 112 15 112 6 0 22 3 34 6 22 6 22 4 26 -112 l3 -119 2 121 2 122
28 6 c15 4 35 9 44 12 16 5 18 -8 21 -128 l3 -133 2 136 2 136 45 10 45 10 2
-146 2 -146 3 140 c2 77 7 147 11 155 4 8 9 -55 12 -140 l6 -155 2 148 2 147
38 1 37 2 -35 6 -35 6 43 12 42 11 2 -167 2 -166 6 170 5 170 33 3 c17 2 32 7
32 13 0 5 4 9 10 9 6 0 11 -72 13 -182 l2 -183 3 183 2 182 35 0 35 0 3 -182
2 -183 3 183 2 182 45 0 45 0 3 -182 2 -183 3 183 2 182 45 0 45 0 3 -182 2
-183 3 183 c3 245 21 245 24 0 l3 -183 2 180 c2 99 8 184 13 189 6 6 10 29 10
53 0 49 6 53 112 78 l58 13 3 -256 2 -257 3 258 c1 198 5 257 15 257 6 0 22 3
35 6 l22 6 0 -259 c0 -221 2 -262 16 -279 15 -18 15 -18 10 0 -6 16 -4 17 9 6
8 -7 15 -8 15 -2 0 14 -25 33 -33 25 -4 -3 -7 109 -7 250 l0 257 28 6 c15 3
35 8 44 11 16 4 18 -15 21 -269 l2 -273 3 272 c2 249 3 272 20 277 16 5 179
36 188 36 2 0 5 -132 6 -292 l3 -293 2 290 c3 305 3 305 50 305 l23 0 3 -297
2 -298 5 305 5 305 5 -305 5 -305 3 303 c1 234 5 302 15 302 6 0 22 3 35 6
l22 6 2 -308 3 -309 5 310 5 310 5 -310 5 -310 3 311 2 312 35 4 35 4 3 -316
2 -315 3 318 c1 174 5 317 10 317 4 0 48 7 97 15 50 8 96 15 102 15 10 0 13
-76 16 -332 l2 -333 3 331 2 332 23 6 c12 3 28 6 34 6 10 0 13 -78 16 -337 l2
-338 3 338 2 337 55 0 55 0 3 -337 2 -338 3 338 c1 261 5 337 15 337 6 0 22 3
34 6 l23 6 3 -343 2 -344 3 348 2 347 -37 1 c-32 0 -35 2 -18 10 20 9 -75 3
-122 -8 -19 -4 -22 0 -26 39 l-4 43 -1 -42 c-1 -27 -7 -43 -14 -43 -7 0 -23
-3 -35 -6 -20 -6 -22 -2 -26 42 l-3 49 -2 -47 c-2 -42 -5 -48 -24 -48 -28 0
-285 -27 -350 -36 l-48 -7 -2 49 -1 49 -6 -50 c-6 -47 -8 -50 -38 -53 -32 -3
-32 -3 -36 50 l-3 53 -2 -56 -2 -57 -87 -16 c-49 -9 -97 -18 -108 -20 -11 -2
-27 -6 -35 -9 -8 -3 -30 -10 -47 -16 -33 -10 -33 -10 -33 25 0 34 0 34 -45 34
l-45 0 0 -44 0 -45 -52 -14 c-29 -9 -68 -18 -85 -22 l-33 -7 0 130 c0 97 -3
132 -14 141 -9 8 -170 10 -582 8 l-569 -2 573 -3 572 -2 0 -190 0 -190 -575 0
c-565 0 -576 0 -565 -19 7 -14 6 -21 -3 -24 -9 -4 -9 -6 1 -6 7 -1 15 6 18 14
5 13 47 15 293 14 l286 -1 -115 -39 c-63 -21 -127 -38 -141 -39 -15 0 -29 -7
-32 -14 -3 -8 -23 -18 -44 -22 -21 -4 -40 -10 -43 -13 -12 -16 -86 -43 -153
-56 -39 -7 -80 -17 -89 -20 -17 -7 -18 15 -21 326 -1 184 -4 314 -6 289z
m1952 -147 c-7 -2 -21 -2 -30 0 -10 3 -4 5 12 5 17 0 24 -2 18 -5z m-56 -9
c-3 -3 -12 -4 -19 -1 -8 3 -5 6 6 6 11 1 17 -2 13 -5z m-437 -33 c0 -21 -6
-30 -22 -35 -42 -11 -48 -7 -48 29 0 33 2 35 35 35 32 0 35 -3 35 -29z m363
22 c-7 -2 -19 -2 -25 0 -7 3 -2 5 12 5 14 0 19 -2 13 -5z m-50 -10 c-7 -2 -21
-2 -30 0 -10 3 -4 5 12 5 17 0 24 -2 18 -5z m-60 -10 c-7 -2 -19 -2 -25 0 -7
3 -2 5 12 5 14 0 19 -2 13 -5z m-56 -9 c-3 -3 -12 -4 -19 -1 -8 3 -5 6 6 6 11
1 17 -2 13 -5z m-884 -224 c-11 -5 -44 -15 -72 -24 -44 -13 -51 -13 -51 -1 0
17 50 33 105 33 32 1 36 -1 18 -8z m-133 -30 c0 -5 -28 -18 -62 -28 -94 -29
-128 -35 -128 -23 0 6 35 21 78 35 85 27 112 31 112 16z m-200 -59 c0 -9 -34
-21 -60 -21 -9 1 -5 7 10 15 29 16 50 19 50 6z m-325 -117 c-11 -8 -26 -22
-32 -31 -12 -15 -13 -14 -13 9 0 21 6 28 28 31 15 2 29 5 32 5 3 1 -4 -5 -15
-14z m-70 -30 c0 -10 3 -22 7 -25 5 -3 -3 -20 -17 -39 l-25 -34 0 55 c0 31 3
59 7 63 12 11 28 0 28 -20z m14 -91 c0 -16 -3 -22 -6 -14 -4 11 -7 11 -14 0
-4 -7 -10 -11 -13 -8 -6 5 21 49 30 49 2 0 4 -12 3 -27z"/>
<path d="M2820 566 c0 -314 -3 -405 -12 -409 -8 -3 -6 -6 5 -6 16 -1 17 25 17
409 0 226 -2 410 -5 410 -3 0 -5 -182 -5 -404z"/>
<path d="M53 880 c2 -30 22 -34 23 -5 l1 20 -5 -20 c-5 -18 -6 -18 -13 5 l-8
25 2 -25z"/>
<path d="M160 875 c0 -14 4 -25 9 -25 4 0 6 11 3 25 -2 14 -6 25 -8 25 -2 0
-4 -11 -4 -25z"/>
<path d="M232 870 c0 -14 2 -19 5 -12 2 6 2 18 0 25 -3 6 -5 1 -5 -13z"/>
<path d="M515 879 c-8 -12 -8 -11 20 -28 19 -12 19 -12 -2 -8 -13 3 -23 1 -23
-4 0 -5 11 -9 25 -9 29 0 32 17 8 37 -17 14 -17 14 0 9 11 -3 16 -2 12 4 -8
13 -32 13 -40 -1z"/>
<path d="M572 860 c0 -19 2 -27 5 -17 2 9 2 25 0 35 -3 9 -5 1 -5 -18z"/>
<path d="M590 860 c0 -30 14 -41 23 -17 4 9 8 8 16 -3 8 -12 11 -8 11 18 0 28
-3 32 -25 32 -21 0 -25 -5 -25 -30z m40 10 c0 -5 -4 -10 -10 -10 -5 0 -10 5
-10 10 0 6 5 10 10 10 6 0 10 -4 10 -10z"/>
<path d="M655 881 c-3 -5 5 -17 17 -26 l23 -17 -24 7 c-16 5 -21 4 -17 -4 9
-14 46 -14 46 0 0 7 -8 18 -17 26 -17 14 -17 14 0 9 9 -3 17 -1 17 4 0 13 -37
13 -45 1z"/>
<path d="M890 880 c0 -5 -7 -10 -15 -10 -8 0 -15 -9 -15 -20 0 -13 7 -20 20
-20 16 0 20 7 20 30 0 17 -2 30 -5 30 -3 0 -5 -4 -5 -10z m0 -30 c0 -5 -4 -10
-10 -10 -5 0 -10 5 -10 10 0 6 5 10 10 10 6 0 10 -4 10 -10z"/>
<path d="M960 877 c0 -8 -10 -13 -22 -13 -29 1 -31 -27 -3 -32 16 -3 17 -1 5
7 -13 9 -13 11 2 11 9 0 19 -6 21 -12 3 -7 6 2 6 20 1 17 -1 32 -4 32 -3 0 -5
-6 -5 -13z"/>
<path d="M290 860 c0 -6 30 -10 70 -10 40 0 70 4 70 10 0 6 -30 10 -70 10 -40
0 -70 -4 -70 -10z"/>
<path d="M730 850 c0 -25 20 -27 21 -2 0 14 2 14 9 -3 7 -17 9 -17 9 -2 1 9 5
17 10 17 5 0 12 -8 14 -17 4 -14 5 -12 6 5 1 19 -4 22 -34 22 -28 0 -35 -4
-35 -20z"/>
<path d="M810 850 c0 -13 7 -20 20 -20 13 0 20 7 20 20 0 13 -7 20 -20 20 -13
0 -20 -7 -20 -20z m30 0 c0 -5 -4 -10 -10 -10 -5 0 -10 5 -10 10 0 6 5 10 10
10 6 0 10 -4 10 -10z"/>
<path d="M2582 488 l3 -333 2 328 3 327 35 0 35 0 3 -327 2 -328 3 333 2 332
-45 0 -45 0 2 -332z"/>
<path d="M53 760 c2 -30 22 -34 23 -5 l1 20 -5 -20 c-5 -18 -6 -18 -13 5 l-8
25 2 -25z"/>
<path d="M160 755 c0 -14 4 -25 9 -25 4 0 6 11 3 25 -2 14 -6 25 -8 25 -2 0
-4 -11 -4 -25z"/>
<path d="M231 764 c0 -11 3 -14 6 -6 3 7 2 16 -1 19 -3 4 -6 -2 -5 -13z"/>
<path d="M2382 468 l3 -313 2 308 3 307 35 0 35 0 3 -307 2 -308 3 313 2 312
-45 0 -45 0 2 -312z"/>
<path d="M510 740 c0 -16 5 -30 10 -30 6 0 10 14 10 30 0 17 -4 30 -10 30 -5
0 -10 -13 -10 -30z"/>
<path d="M932 740 c0 -19 2 -27 5 -17 2 9 2 25 0 35 -3 9 -5 1 -5 -18z"/>
<path d="M1130 760 c0 -5 -7 -10 -15 -10 -8 0 -15 -9 -15 -20 0 -13 7 -20 20
-20 16 0 20 7 20 30 0 17 -2 30 -5 30 -3 0 -5 -4 -5 -10z m0 -30 c0 -5 -4 -10
-10 -10 -5 0 -10 5 -10 10 0 6 5 10 10 10 6 0 10 -4 10 -10z"/>
<path d="M1200 757 c0 -8 -10 -13 -22 -13 -29 1 -31 -27 -3 -32 16 -3 17 -1 5
7 -13 9 -13 11 3 11 9 0 17 -4 17 -10 0 -5 5 -10 10 -10 6 0 10 14 10 30 0 17
-4 30 -10 30 -5 0 -10 -6 -10 -13z"/>
<path d="M290 740 c0 -6 28 -10 65 -10 37 0 65 4 65 10 0 6 -28 10 -65 10 -37
0 -65 -4 -65 -10z"/>
<path d="M540 730 c0 -13 7 -20 20 -20 13 0 20 7 20 20 0 13 -7 20 -20 20 -13
0 -20 -7 -20 -20z m30 0 c0 -5 -4 -10 -10 -10 -5 0 -10 5 -10 10 0 6 5 10 10
10 6 0 10 -4 10 -10z"/>
<path d="M590 730 c0 -12 7 -20 18 -21 15 0 14 -2 -3 -10 l-20 -9 20 3 c14 1
21 11 23 30 3 22 -1 27 -17 27 -14 0 -21 -6 -21 -20z m30 0 c0 -5 -4 -10 -10
-10 -5 0 -10 5 -10 10 0 6 5 10 10 10 6 0 10 -4 10 -10z"/>
<path d="M671 728 c1 -17 2 -19 6 -5 2 9 8 17 13 17 5 0 11 -8 13 -17 4 -14 5
-12 6 5 1 16 -5 22 -19 22 -14 0 -20 -6 -19 -22z"/>
<path d="M720 730 c0 -13 7 -20 20 -20 13 0 20 7 20 20 0 13 -7 20 -20 20 -13
0 -20 -7 -20 -20z m30 0 c0 -5 -4 -10 -10 -10 -5 0 -10 5 -10 10 0 6 5 10 10
10 6 0 10 -4 10 -10z"/>
<path d="M770 730 c0 -25 17 -26 23 -2 4 16 5 16 6 0 0 -10 6 -18 11 -18 6 0
10 8 11 18 0 14 2 14 9 -3 7 -17 9 -17 9 -2 1 9 5 17 10 17 5 0 12 -8 14 -17
4 -14 5 -12 6 5 1 20 -3 22 -49 22 -43 0 -50 -3 -50 -20z"/>
<path d="M891 733 c10 -11 10 -14 2 -9 -7 4 -13 2 -13 -3 0 -6 9 -11 20 -11
13 0 20 7 20 20 0 14 -7 20 -21 20 -19 0 -20 -2 -8 -17z"/>
<path d="M970 730 c0 -25 20 -27 21 -2 0 14 2 14 9 -3 7 -17 9 -17 9 -2 1 9 5
17 10 17 5 0 12 -8 14 -17 4 -14 5 -12 6 5 1 19 -4 22 -34 22 -28 0 -35 -4
-35 -20z"/>
<path d="M1050 730 c0 -13 7 -20 20 -20 13 0 20 7 20 20 0 13 -7 20 -20 20
-13 0 -20 -7 -20 -20z m30 0 c0 -5 -4 -10 -10 -10 -5 0 -10 5 -10 10 0 6 5 10
10 10 6 0 10 -4 10 -10z"/>
<path d="M2298 733 c12 -2 32 -2 45 0 12 2 2 4 -23 4 -25 0 -35 -2 -22 -4z"/>
<path d="M1872 413 l3 -258 2 253 3 252 35 0 35 0 3 -252 2 -253 3 258 2 257
-45 0 -45 0 2 -257z"/>
<path d="M53 640 c2 -30 22 -34 23 -5 l1 20 -5 -20 c-5 -18 -6 -18 -13 5 l-8
25 2 -25z"/>
<path d="M160 635 c0 -14 4 -25 9 -25 4 0 6 11 3 25 -2 14 -6 25 -8 25 -2 0
-4 -11 -4 -25z"/>
<path d="M270 615 l0 -35 88 2 87 2 -82 3 c-80 4 -83 5 -83 28 0 23 3 24 83
28 l82 3 -87 2 -88 2 0 -35z"/>
<path d="M520 635 c-19 -22 -3 -55 26 -53 26 3 34 34 12 56 -16 16 -23 15 -38
-3z m33 -11 c-7 -3 -9 -12 -6 -20 3 -8 1 -14 -5 -14 -12 0 -23 26 -15 34 4 3
13 6 22 5 10 0 11 -3 4 -5z"/>
<path d="M742 610 c0 -19 2 -29 5 -21 4 10 7 11 13 1 10 -17 40 -5 40 15 0 20
-30 32 -40 15 -6 -10 -9 -8 -13 6 -2 10 -5 3 -5 -16z"/>
<path d="M832 610 c0 -19 2 -27 5 -17 2 9 2 25 0 35 -3 9 -5 1 -5 -18z"/>
<path d="M950 609 c0 -24 4 -30 16 -25 8 3 13 2 10 -3 -3 -5 0 -11 7 -13 23
-9 37 4 37 34 0 27 -3 30 -25 26 -14 -3 -25 -1 -25 3 0 5 -4 9 -10 9 -5 0 -10
-14 -10 -31z m47 -11 c-3 -8 -6 -5 -6 6 -1 11 2 17 5 13 3 -3 4 -12 1 -19z"/>
<path d="M1031 607 c1 -31 1 -31 9 -7 l7 25 11 -25 11 -25 0 26 c1 19 -5 28
-19 32 -17 4 -20 0 -19 -26z"/>
<path d="M1080 612 c0 -18 4 -32 8 -32 9 0 8 47 -1 57 -4 3 -7 -8 -7 -25z"/>
<path d="M1200 633 c-34 -13 -33 -53 1 -50 14 1 19 9 19 29 0 15 -1 28 -2 27
-2 0 -10 -3 -18 -6z m5 -22 c3 -5 1 -12 -5 -16 -5 -3 -10 1 -10 9 0 18 6 21
15 7z"/>
<path d="M1278 634 c-3 -2 -3 -15 -1 -28 4 -17 12 -23 34 -24 25 -1 29 3 29
24 0 19 -5 25 -17 22 -10 -2 -18 -8 -18 -15 0 -6 -4 -15 -9 -20 -5 -5 -7 1 -3
14 5 22 -4 38 -15 27z"/>
<path d="M583 614 c-7 -18 11 -39 26 -30 17 11 13 46 -4 46 -9 0 -18 -7 -22
-16z m27 -9 c0 -8 -4 -15 -10 -15 -5 0 -10 7 -10 15 0 8 5 15 10 15 6 0 10 -7
10 -15z"/>
<path d="M633 614 c-7 -18 11 -39 26 -30 17 11 13 46 -4 46 -9 0 -18 -7 -22
-16z m27 -9 c0 -8 -4 -15 -10 -15 -5 0 -10 7 -10 15 0 8 5 15 10 15 6 0 10 -7
10 -15z"/>
<path d="M684 616 c-10 -26 9 -61 28 -50 15 10 9 64 -7 64 -9 0 -18 -6 -21
-14z m26 -12 c0 -8 -5 -12 -10 -9 -6 4 -8 11 -5 16 9 14 15 11 15 -7z"/>
<path d="M850 605 c0 -31 20 -33 21 -2 1 21 1 21 9 -3 l8 -25 1 28 c1 21 -4
27 -19 27 -15 0 -20 -7 -20 -25z"/>
<path d="M907 623 c-8 -18 -1 -38 16 -41 13 -3 17 3 17 22 0 24 -23 37 -33 19z"/>
<path d="M1110 605 c0 -14 6 -25 13 -25 20 0 25 9 20 31 -8 28 -33 24 -33 -6z"/>
<path d="M1230 606 c0 -20 5 -26 21 -26 15 0 20 5 17 22 -5 34 -38 37 -38 4z"/>
<path d="M53 520 c2 -30 22 -34 23 -5 l1 20 -5 -20 c-5 -18 -6 -18 -13 5 l-8
25 2 -25z"/>
<path d="M160 515 c0 -14 4 -25 9 -25 4 0 6 11 3 25 -2 14 -6 25 -8 25 -2 0
-4 -11 -4 -25z"/>
<path d="M1472 343 l3 -188 2 182 3 182 38 4 37 4 -42 1 -43 2 2 -187z"/>
<path d="M53 400 c2 -30 22 -34 23 -5 l1 20 -5 -20 c-5 -18 -6 -18 -13 5 l-8
25 2 -25z"/>
<path d="M160 395 c0 -14 4 -25 9 -25 4 0 6 11 3 25 -2 14 -6 25 -8 25 -2 0
-4 -11 -4 -25z"/>
<path d="M234 395 c-1 -16 3 -25 13 -25 10 0 13 6 9 16 -3 9 -6 20 -6 25 0 21
-15 7 -16 -16z"/>
<path d="M378 403 c12 -2 32 -2 45 0 12 2 2 4 -23 4 -25 0 -35 -2 -22 -4z"/>
<path d="M53 280 c2 -30 22 -34 23 -5 l1 20 -5 -20 c-5 -18 -6 -18 -13 5 l-8
25 2 -25z"/>
<path d="M160 275 c0 -14 4 -25 9 -25 4 0 6 11 3 25 -2 14 -6 25 -8 25 -2 0
-4 -11 -4 -25z"/>
<path d="M53 160 c2 -30 22 -34 23 -5 l1 20 -5 -20 c-5 -18 -6 -18 -13 5 l-8
25 2 -25z"/>
<path d="M385 130 c-9 -15 16 -43 27 -32 10 10 0 42 -12 42 -5 0 -12 -5 -15
-10z m23 -25 c-3 -3 -9 2 -12 12 -6 14 -5 15 5 6 7 -7 10 -15 7 -18z"/>
<path d="M1611 120 c14 -31 19 -36 19 -24 0 6 -7 19 -16 30 -14 18 -14 18 -3
-6z"/>
<path d="M320 88 c0 -9 5 -20 10 -23 13 -8 13 5 0 25 -8 13 -10 13 -10 -2z"/>
<path d="M340 93 c0 -4 5 -15 10 -23 8 -13 10 -13 10 2 0 9 -4 20 -10 23 -5 3
-10 3 -10 -2z"/>
<path d="M1545 90 c-4 -6 -3 -16 3 -22 6 -6 12 -6 17 2 4 6 3 16 -3 22 -6 6
-12 6 -17 -2z"/>
<path d="M272 59 c11 -6 15 -16 11 -27 -5 -14 -3 -15 7 -5 11 10 11 15 0 28
-7 8 -18 15 -24 15 -6 0 -3 -5 6 -11z"/>
<path d="M1485 60 c3 -5 8 -10 11 -10 2 0 4 5 4 10 0 6 -5 10 -11 10 -5 0 -7
-4 -4 -10z"/>
<path d="M1490 30 c0 -5 7 -7 15 -4 8 4 15 8 15 10 0 2 -7 4 -15 4 -8 0 -15
-4 -15 -10z"/>
</g>
</svg>
