<?xml version="1.0" standalone="no"?>
<!DOCTYPE svg PUBLIC "-//W3C//DTD SVG 20010904//EN"
 "http://www.w3.org/TR/2001/REC-SVG-20010904/DTD/svg10.dtd">
<svg version="1.0" xmlns="http://www.w3.org/2000/svg"
 width="936.000000pt" height="1584.000000pt" viewBox="0 0 936.000000 1584.000000"
 preserveAspectRatio="xMidYMid meet">
<metadata>
Created by potrace 1.16, written by Peter Selinger 2001-2019
</metadata>
<g transform="translate(0.000000,1584.000000) scale(0.100000,-0.100000)"
fill="#000000" stroke="none">
<path d="M4526 14135 c-8 -8 -20 -41 -26 -73 -6 -31 -14 -67 -17 -79 -3 -13 0
-23 6 -23 6 0 11 9 11 20 0 15 7 20 29 20 39 0 64 26 58 59 -3 14 -1 35 3 46
15 39 -32 61 -64 30z m54 -12 c0 -14 -15 -29 -35 -37 -19 -8 -19 -8 3 -17 32
-12 25 -44 -8 -44 -23 0 -25 3 -22 35 5 47 19 70 42 70 11 0 20 -3 20 -7z"/>
<path d="M3460 14070 c0 -40 4 -70 10 -70 6 0 10 30 10 70 0 40 -4 70 -10 70
-6 0 -10 -30 -10 -70z"/>
<path d="M3510 14070 c0 -40 4 -70 10 -70 6 0 10 26 10 58 l1 57 31 -57 c43
-80 58 -76 58 12 0 40 -4 70 -10 70 -5 0 -10 -26 -10 -57 l-1 -58 -31 58 c-43
79 -58 75 -58 -13z"/>
<path d="M3666 14124 c-9 -8 -16 -19 -16 -24 0 -13 42 -40 62 -40 10 0 18 -4
18 -10 0 -5 1 -13 3 -17 1 -5 -18 -10 -43 -14 -42 -5 -43 -6 -17 -13 15 -5 38
-5 51 -2 45 11 43 62 -3 72 -60 15 -63 44 -5 44 21 0 33 4 29 10 -10 16 -62
12 -79 -6z"/>
<path d="M3790 14070 c0 -40 4 -70 10 -70 6 0 10 14 10 30 0 23 4 30 20 30 12
0 26 -12 35 -30 9 -16 20 -30 25 -30 15 0 12 9 -10 40 -13 18 -16 31 -10 35
16 10 12 52 -6 59 -9 3 -29 6 -45 6 l-29 0 0 -70z m70 30 c0 -15 -7 -20 -25
-20 -18 0 -25 5 -25 20 0 15 7 20 25 20 18 0 25 -5 25 -20z"/>
<path d="M3955 14106 c-8 -20 -22 -52 -29 -71 -9 -20 -11 -35 -5 -35 5 0 12 7
15 15 9 22 70 20 83 -2 5 -10 13 -15 16 -11 10 9 -39 131 -54 136 -6 2 -18
-12 -26 -32z m45 -43 c0 -7 -11 -13 -24 -13 -24 0 -24 2 -14 32 10 29 12 30
25 13 7 -11 13 -25 13 -32z"/>
<path d="M4070 14070 c0 -40 4 -70 10 -70 6 0 10 26 10 58 l1 57 31 -57 c43
-80 58 -76 58 12 0 40 -4 70 -10 70 -5 0 -10 -26 -10 -57 l-1 -58 -31 58 c-43
79 -58 75 -58 -13z"/>
<path d="M4210 14070 l0 -70 38 0 c55 0 82 23 82 70 0 47 -27 70 -82 70 l-38
0 0 -70z m88 38 c7 -7 12 -24 12 -38 0 -34 -17 -50 -52 -50 -27 0 -28 2 -28
50 0 48 1 50 28 50 15 0 33 -5 40 -12z"/>
<path d="M4879 14124 c-7 -9 -14 -33 -14 -54 0 -21 7 -45 14 -54 16 -19 52
-21 69 -4 16 16 16 100 0 116 -17 17 -53 15 -69 -4z m56 -54 c0 -38 -3 -45
-21 -48 -16 -2 -23 4 -28 22 -10 42 3 78 28 74 18 -3 21 -10 21 -48z"/>
<path d="M5060 14131 c0 -6 14 -11 32 -13 35 -3 52 -28 19 -28 -28 0 -36 -18
-9 -22 15 -2 23 -10 23 -23 0 -15 -8 -21 -32 -23 -18 -2 -33 -8 -33 -13 0 -6
16 -9 36 -7 44 4 65 28 48 56 -8 12 -8 22 0 35 9 15 7 21 -8 33 -22 16 -76 19
-76 5z"/>
<path d="M5190 14131 c0 -6 14 -11 32 -13 35 -3 52 -28 19 -28 -28 0 -36 -18
-9 -22 15 -2 23 -10 23 -23 0 -15 -8 -21 -32 -23 -18 -2 -33 -8 -33 -13 0 -6
16 -9 36 -7 44 4 65 28 48 56 -8 12 -8 22 0 35 9 15 7 21 -8 33 -22 16 -76 19
-76 5z"/>
<path d="M5749 14124 c-7 -9 -14 -33 -14 -54 0 -44 19 -70 49 -70 33 0 46 19
46 70 0 25 -5 51 -12 58 -17 17 -53 15 -69 -4z m56 -54 c0 -38 -3 -45 -21 -48
-25 -4 -38 32 -28 74 5 18 12 24 28 22 18 -3 21 -10 21 -48z"/>
<path d="M5939 14124 c-7 -9 -14 -33 -14 -54 0 -44 19 -70 49 -70 33 0 46 19
46 70 0 25 -5 51 -12 58 -17 17 -53 15 -69 -4z m56 -54 c0 -38 -3 -45 -21 -48
-25 -4 -38 32 -28 74 5 18 12 24 28 22 18 -3 21 -10 21 -48z"/>
<path d="M6060 14131 c0 -6 14 -11 32 -13 35 -3 52 -28 19 -28 -28 0 -36 -18
-9 -22 15 -2 23 -10 23 -23 0 -15 -8 -21 -32 -23 -18 -2 -33 -8 -33 -13 0 -6
16 -9 36 -7 44 4 65 28 48 56 -8 12 -8 22 0 35 9 15 7 21 -8 33 -22 16 -76 19
-76 5z"/>
<path d="M5385 14094 c4 -11 10 -45 13 -76 2 -32 8 -55 13 -52 5 3 9 12 9 19
0 8 14 37 30 63 31 51 35 62 22 62 -4 0 -16 -16 -26 -35 -24 -43 -34 -44 -38
-3 -2 17 -9 34 -17 36 -11 4 -12 0 -6 -14z"/>
<path d="M4370 14090 c0 -5 5 -10 10 -10 6 0 10 5 10 10 0 6 -4 10 -10 10 -5
0 -10 -4 -10 -10z"/>
<path d="M4665 14080 c-4 -6 18 -10 60 -10 42 0 64 4 60 10 -3 6 -30 10 -60
10 -30 0 -57 -4 -60 -10z"/>
<path d="M5545 14080 c-4 -6 18 -10 60 -10 42 0 64 4 60 10 -3 6 -30 10 -60
10 -30 0 -57 -4 -60 -10z"/>
<path d="M4665 14040 c-4 -6 18 -10 60 -10 42 0 64 4 60 10 -3 6 -30 10 -60
10 -30 0 -57 -4 -60 -10z"/>
<path d="M5545 14040 c-4 -6 18 -10 60 -10 42 0 64 4 60 10 -3 6 -30 10 -60
10 -30 0 -57 -4 -60 -10z"/>
<path d="M5320 14004 c0 -14 4 -23 10 -19 6 3 10 15 10 26 0 10 -4 19 -10 19
-5 0 -10 -12 -10 -26z"/>
<path d="M4370 14010 c0 -5 5 -10 10 -10 6 0 10 5 10 10 0 6 -4 10 -10 10 -5
0 -10 -4 -10 -10z"/>
<path d="M5000 14010 c0 -5 5 -10 10 -10 6 0 10 5 10 10 0 6 -4 10 -10 10 -5
0 -10 -4 -10 -10z"/>
<path d="M5870 14010 c0 -5 5 -10 10 -10 6 0 10 5 10 10 0 6 -4 10 -10 10 -5
0 -10 -4 -10 -10z"/>
<path d="M1170 13886 c0 -34 -5 -56 -12 -59 -10 -4 -10 -6 0 -6 9 -1 12 -52
12 -220 0 -166 -3 -221 -12 -224 -10 -4 -10 -6 0 -6 9 -1 12 -51 12 -215 0
-162 -3 -216 -12 -219 -10 -4 -10 -6 0 -6 9 -1 12 -51 12 -215 0 -162 -3 -216
-12 -219 -10 -4 -10 -6 0 -6 18 -1 18 -437 0 -444 -10 -4 -10 -6 0 -6 18 -1
18 -427 0 -434 -10 -4 -10 -6 0 -6 8 -1 12 -23 13 -73 1 -40 3 -65 6 -55 4 16
33 17 433 17 400 0 429 -1 433 -17 4 -17 5 -17 6 0 1 16 29 17 430 17 401 0
430 -1 434 -17 4 -17 5 -17 6 0 1 16 29 17 435 17 405 0 435 -1 439 -17 4 -17
5 -17 6 0 1 16 29 17 430 17 401 0 430 -1 434 -17 4 -17 5 -17 6 0 1 16 29 17
430 17 401 0 430 -1 434 -17 4 -17 5 -17 6 0 1 16 29 17 430 17 401 0 430 -1
434 -17 4 -17 5 -17 6 0 1 16 29 17 430 17 401 0 430 -1 434 -17 4 -17 5 -17
6 0 1 16 29 17 435 17 405 0 435 -1 439 -17 4 -17 5 -17 6 0 1 15 15 17 136
17 l135 0 0 1225 0 1225 -3630 0 -3630 0 0 -54z m7250 -3 l0 -48 -3620 -4
-3620 -3 0 51 0 51 3620 0 3620 0 0 -47z m-2005 -70 c-336 -9 -1048 -59 -1270
-88 -60 -8 -186 -24 -280 -35 -191 -23 -217 -28 -438 -76 -618 -135 -959 -268
-1345 -524 -358 -239 -635 -507 -942 -915 -345 -457 -442 -522 -797 -532
l-163 -5 0 1071 0 1071 23 0 c12 -1 47 -9 77 -20 41 -14 57 -16 62 -7 13 21 9
25 -44 46 l-53 20 2630 -2 c1447 0 2590 -2 2540 -4z m2005 -1153 l0 -1160
-3620 0 -3620 0 0 45 0 45 98 0 c192 0 366 36 470 96 24 14 91 71 149 127 58
56 108 97 110 91 2 -6 17 -32 33 -58 26 -41 32 -45 50 -36 20 11 20 11 -4 43
-13 18 -31 47 -40 65 l-17 33 40 52 c22 28 82 109 134 179 102 139 356 430
413 473 19 15 65 57 102 94 220 219 644 484 978 612 162 61 295 102 524 158
316 77 430 98 770 140 726 90 1298 117 2903 137 286 4 517 10 517 15 0 5 2 9
5 9 3 0 5 -522 5 -1160z"/>
<path d="M1414 13706 c-5 -12 78 -137 94 -143 4 -2 13 1 21 6 16 11 5 33 -56
109 -36 44 -50 51 -59 28z"/>
<path d="M1563 13493 c-18 -7 -16 -18 13 -92 31 -78 37 -86 57 -75 14 8 12 19
-13 83 -32 81 -39 91 -57 84z"/>
<path d="M1640 13225 c0 -9 10 -48 22 -89 18 -61 24 -72 40 -68 23 6 23 8 -4
98 -16 57 -25 74 -40 74 -10 0 -18 -7 -18 -15z"/>
<path d="M1714 12977 c-9 -24 32 -162 49 -165 26 -5 27 11 5 96 -13 54 -25 82
-35 82 -7 0 -16 -6 -19 -13z"/>
<path d="M1774 12708 c3 -13 6 -32 6 -43 1 -16 2 -17 9 -5 5 8 11 27 15 43 5
23 3 27 -15 27 -17 0 -20 -4 -15 -22z"/>
<path d="M1828 12625 c-11 -19 -20 -75 -11 -75 23 1 31 17 24 50 -4 19 -9 30
-13 25z"/>
<path d="M1830 12465 c0 -3 9 -43 21 -89 18 -73 23 -83 40 -79 22 6 22 6 10
53 -6 19 -15 54 -21 78 -8 31 -16 42 -30 42 -11 0 -20 -2 -20 -5z"/>
<path d="M1911 12211 c-12 -8 -11 -22 9 -90 23 -81 26 -86 53 -76 12 5 10 20
-12 90 -14 47 -28 85 -31 85 -3 0 -11 -4 -19 -9z"/>
<path d="M7862 13324 c-33 -23 -25 -55 18 -69 19 -7 35 -17 34 -23 -1 -7 -2
-17 -2 -23 -1 -8 -18 -10 -47 -7 -44 5 -61 -4 -29 -16 27 -10 59 -7 82 10 34
23 25 55 -21 77 -33 15 -37 20 -26 33 8 10 25 14 46 12 20 -3 32 0 30 6 -6 18
-60 18 -85 0z"/>
<path d="M7210 13245 c0 -25 1 -25 90 -25 89 0 90 0 90 25 0 25 -1 25 -90 25
-89 0 -90 0 -90 -25z"/>
<path d="M7470 13245 c0 -25 1 -25 85 -25 84 0 85 0 85 25 0 25 -1 25 -85 25
-84 0 -85 0 -85 -25z"/>
<path d="M7976 13255 c-5 -11 -9 -38 -10 -60 -1 -33 3 -40 19 -42 11 -2 14 0
8 3 -19 9 -16 61 5 73 9 6 12 11 5 11 -6 0 -13 8 -15 18 -3 15 -5 15 -12 -3z"/>
<path d="M7855 12978 c-7 -22 -25 -118 -25 -133 0 -8 4 -15 9 -15 4 0 14 28
20 63 7 34 14 70 17 80 6 19 -14 24 -21 5z"/>
<path d="M7906 12905 c-5 -11 -9 -38 -10 -60 -1 -33 3 -40 19 -42 11 -2 14 0
8 3 -19 9 -16 61 5 73 9 6 12 11 5 11 -6 0 -13 8 -15 18 -3 15 -5 15 -12 -3z"/>
<path d="M7855 12638 c-7 -22 -25 -118 -25 -133 0 -27 17 -15 24 15 4 23 11
30 30 30 18 0 27 -8 35 -30 5 -16 15 -30 20 -30 14 0 14 4 -3 45 -13 29 -13
35 0 46 17 14 18 41 2 57 -16 16 -78 15 -83 0z m71 -23 c8 -20 -13 -45 -37
-45 -14 0 -19 7 -19 30 0 25 4 30 25 30 14 0 28 -7 31 -15z"/>
<path d="M7180 12555 l0 -25 245 0 245 0 0 25 0 25 -245 0 -245 0 0 -25z"/>
<path d="M7996 12565 c-5 -11 -9 -38 -10 -60 -1 -33 3 -40 19 -42 11 -2 14 0
8 3 -19 9 -16 61 5 73 9 6 12 11 5 11 -6 0 -13 8 -15 18 -3 15 -5 15 -12 -3z"/>
<path d="M7855 12288 c-7 -22 -25 -118 -25 -133 0 -27 17 -15 24 15 4 23 11
30 30 30 18 0 27 -8 35 -30 5 -16 15 -30 20 -30 14 0 14 4 -3 45 -13 29 -13
35 0 46 17 14 18 41 2 57 -16 16 -78 15 -83 0z m71 -23 c8 -20 -13 -45 -37
-45 -14 0 -19 7 -19 30 0 25 4 30 25 30 14 0 28 -7 31 -15z"/>
<path d="M7312 12203 c59 -2 158 -2 220 0 62 1 14 3 -107 3 -121 0 -172 -2
-113 -3z"/>
<path d="M8031 12193 c-1 -14 -9 -23 -23 -26 -23 -4 -23 -4 -1 -6 16 -1 23 -9
26 -28 l4 -28 2 27 c1 19 7 28 24 31 22 4 22 4 0 6 -14 1 -23 9 -26 24 -4 22
-4 22 -6 0z"/>
<path d="M8125 12180 c-3 -4 3 -7 13 -6 9 0 17 -6 17 -14 0 -8 -8 -14 -17 -14
-10 1 -16 -2 -13 -6 2 -4 21 -7 42 -6 34 1 38 4 38 26 0 22 -4 25 -38 26 -21
1 -40 -2 -42 -6z m75 -20 c0 -11 -4 -20 -9 -20 -14 0 -23 18 -16 30 10 17 25
11 25 -10z"/>
<path d="M2147 11743 c-14 -15 -14 -18 6 -33 26 -20 122 -70 136 -70 5 0 11 9
14 19 3 15 -5 23 -37 37 -22 10 -55 28 -72 40 -28 21 -32 21 -47 7z"/>
<path d="M2386 11644 c-9 -23 -8 -23 60 -34 91 -15 114 -13 114 9 0 15 -10 20
-47 25 -27 4 -64 9 -84 12 -28 4 -38 2 -43 -12z"/>
<path d="M2650 11616 l0 -26 90 0 c83 0 90 1 90 20 0 17 -7 20 -44 20 -24 0
-64 3 -90 6 -45 7 -46 6 -46 -20z"/>
<path d="M2910 11610 c0 -19 7 -20 90 -20 83 0 90 1 90 20 0 19 -7 20 -90 20
-83 0 -90 -1 -90 -20z"/>
<path d="M3180 11610 c0 -19 7 -20 90 -20 83 0 90 1 90 20 0 19 -7 20 -90 20
-83 0 -90 -1 -90 -20z"/>
<path d="M3440 11610 c0 -19 7 -20 90 -20 83 0 90 1 90 20 0 19 -7 20 -90 20
-83 0 -90 -1 -90 -20z"/>
<path d="M3710 11610 c0 -19 7 -20 90 -20 83 0 90 1 90 20 0 19 -7 20 -90 20
-83 0 -90 -1 -90 -20z"/>
<path d="M3970 11610 c0 -19 7 -20 90 -20 83 0 90 1 90 20 0 19 -7 20 -90 20
-83 0 -90 -1 -90 -20z"/>
<path d="M4240 11610 c0 -19 7 -20 90 -20 83 0 90 1 90 20 0 19 -7 20 -90 20
-83 0 -90 -1 -90 -20z"/>
<path d="M4500 11610 c0 -19 7 -20 90 -20 83 0 90 1 90 20 0 19 -7 20 -90 20
-83 0 -90 -1 -90 -20z"/>
<path d="M4770 11610 c0 -19 7 -20 90 -20 83 0 90 1 90 20 0 19 -7 20 -90 20
-83 0 -90 -1 -90 -20z"/>
<path d="M5030 11610 c0 -19 7 -20 90 -20 83 0 90 1 90 20 0 19 -7 20 -90 20
-83 0 -90 -1 -90 -20z"/>
<path d="M5300 11610 c0 -19 7 -20 90 -20 83 0 90 1 90 20 0 19 -7 20 -90 20
-83 0 -90 -1 -90 -20z"/>
<path d="M5560 11610 c0 -19 7 -20 90 -20 83 0 90 1 90 20 0 19 -7 20 -90 20
-83 0 -90 -1 -90 -20z"/>
<path d="M5830 11610 c0 -19 7 -20 90 -20 83 0 90 1 90 20 0 19 -7 20 -90 20
-83 0 -90 -1 -90 -20z"/>
<path d="M6090 11610 c0 -19 7 -20 90 -20 83 0 90 1 90 20 0 19 -7 20 -90 20
-83 0 -90 -1 -90 -20z"/>
<path d="M6360 11610 c0 -19 6 -20 91 -20 81 0 90 2 87 18 -3 14 -17 17 -91
20 -82 3 -87 2 -87 -18z"/>
<path d="M6620 11610 c0 -18 7 -20 90 -20 52 0 90 4 90 10 0 12 -25 17 -112
24 -63 5 -68 4 -68 -14z"/>
<path d="M6970 11620 c0 -5 -18 -10 -40 -10 -22 0 -40 -4 -40 -10 0 -6 37 -10
91 -10 79 0 90 2 85 16 -3 9 -6 18 -6 20 0 2 -20 4 -45 4 -25 0 -45 -4 -45
-10z"/>
<path d="M7150 11610 c0 -19 6 -20 93 -19 92 1 84 15 -10 18 -24 0 -43 6 -43
11 0 6 -9 10 -20 10 -13 0 -20 -7 -20 -20z"/>
<path d="M7500 11616 c0 -10 -14 -16 -42 -19 -24 -2 -2 -4 49 -5 87 -2 91 -1
86 18 -4 16 -14 20 -49 20 -32 0 -44 -4 -44 -14z"/>
<path d="M7680 11610 c0 -19 6 -20 93 -18 89 2 90 2 20 5 -56 3 -73 7 -73 18
0 8 -9 15 -20 15 -13 0 -20 -7 -20 -20z"/>
<path d="M8030 11616 c0 -10 -14 -16 -42 -19 -24 -2 -2 -4 49 -5 87 -2 91 -1
86 18 -4 16 -14 20 -49 20 -32 0 -44 -4 -44 -14z"/>
<path d="M8210 11610 c0 -18 6 -20 78 -18 69 2 71 2 20 5 -42 3 -58 8 -58 18
0 8 -9 15 -20 15 -13 0 -20 -7 -20 -20z"/>
<path d="M890 13880 c0 -5 5 -10 10 -10 15 0 12 -87 -2 -93 -7 -3 3 -5 22 -5
19 0 29 2 23 5 -8 3 -13 25 -13 59 0 47 -2 54 -20 54 -11 0 -20 -4 -20 -10z"/>
<path d="M1021 13871 c-15 -27 -14 -63 2 -85 32 -43 81 15 61 72 -12 34 -48
42 -63 13z m44 -42 c0 -32 -4 -44 -15 -44 -16 0 -26 54 -16 82 12 30 31 6 31
-38z"/>
<path d="M970 13780 c0 -5 5 -10 10 -10 6 0 10 5 10 10 0 6 -4 10 -10 10 -5 0
-10 -4 -10 -10z"/>
<path d="M881 13421 c-24 -44 -3 -107 34 -100 23 5 36 49 26 87 -9 34 -45 42
-60 13z m44 -41 c0 -49 -19 -64 -35 -28 -8 17 -8 32 -1 52 16 40 36 27 36 -24z"/>
<path d="M1024 13427 c-3 -8 -4 -21 -3 -28 1 -8 -1 -22 -6 -32 -9 -21 10 -47
35 -47 25 0 44 26 35 47 -4 10 -8 29 -9 43 -1 29 -42 42 -52 17z m42 -8 c10
-17 -13 -36 -27 -22 -12 12 -4 33 11 33 5 0 12 -5 16 -11z m1 -55 c8 -21 -13
-42 -28 -27 -13 13 -5 43 11 43 6 0 13 -7 17 -16z"/>
<path d="M970 13330 c0 -5 5 -10 10 -10 6 0 10 5 10 10 0 6 -4 10 -10 10 -5 0
-10 -4 -10 -10z"/>
<path d="M881 12981 c-24 -44 -3 -107 34 -100 23 5 36 49 26 87 -9 34 -45 42
-60 13z m44 -41 c0 -49 -19 -64 -35 -28 -8 17 -8 32 -1 52 16 40 36 27 36 -24z"/>
<path d="M1026 12978 c-19 -26 -20 -51 -6 -79 15 -27 48 -24 62 6 13 30 -5 59
-34 52 -11 -3 -18 0 -18 8 0 15 27 28 41 19 5 -3 9 0 9 5 0 20 -39 11 -54 -11z
m39 -58 c0 -13 -6 -25 -12 -27 -16 -6 -27 21 -19 43 9 23 31 11 31 -16z"/>
<path d="M970 12890 c0 -5 5 -10 10 -10 6 0 10 5 10 10 0 6 -4 10 -10 10 -5 0
-10 -4 -10 -10z"/>
<path d="M881 12541 c-24 -44 -3 -107 34 -100 23 5 36 49 26 87 -9 34 -45 42
-60 13z m44 -41 c0 -49 -19 -64 -35 -28 -8 17 -8 32 -1 52 16 40 36 27 36 -24z"/>
<path d="M1057 12520 c5 -36 3 -40 -16 -40 -21 0 -21 1 -5 25 9 14 14 28 11
31 -5 5 -37 -47 -37 -61 0 -3 11 -5 25 -5 17 0 25 -6 26 -17 0 -14 2 -15 6 -3
3 8 11 18 17 22 8 5 7 8 -1 8 -8 0 -13 15 -13 40 0 22 -4 40 -9 40 -5 0 -7
-18 -4 -40z"/>
<path d="M970 12450 c0 -5 5 -10 10 -10 6 0 10 5 10 10 0 6 -4 10 -10 10 -5 0
-10 -4 -10 -10z"/>
<path d="M881 12091 c-24 -44 -3 -107 34 -100 23 5 36 49 26 87 -9 34 -45 42
-60 13z m44 -41 c0 -49 -19 -64 -35 -28 -8 17 -8 32 -1 52 16 40 36 27 36 -24z"/>
<path d="M1015 12100 c-4 -7 2 -9 19 -4 35 8 45 -19 19 -49 -49 -56 -49 -57
-7 -56 23 1 30 3 17 6 -28 5 -29 15 -3 38 24 22 26 60 4 69 -23 9 -42 7 -49
-4z"/>
<path d="M970 12000 c0 -5 5 -10 10 -10 6 0 10 5 10 10 0 6 -4 10 -10 10 -5 0
-10 -4 -10 -10z"/>
<path d="M881 11651 c-24 -44 -3 -107 34 -100 23 5 36 49 26 87 -9 34 -45 42
-60 13z m44 -41 c0 -49 -19 -64 -35 -28 -8 17 -8 32 -1 52 16 40 36 27 36 -24z"/>
<path d="M1021 11651 c-15 -27 -14 -63 2 -85 32 -43 81 15 61 72 -12 34 -48
42 -63 13z m44 -42 c0 -32 -4 -44 -15 -44 -16 0 -26 54 -16 82 12 30 31 6 31
-38z"/>
<path d="M970 11560 c0 -5 5 -10 10 -10 6 0 10 5 10 10 0 6 -4 10 -10 10 -5 0
-10 -4 -10 -10z"/>
<path d="M1141 11411 c-24 -44 -3 -107 34 -100 23 5 36 49 26 87 -9 34 -45 42
-60 13z m44 -41 c0 -49 -19 -64 -35 -28 -8 17 -8 32 -1 52 16 40 36 27 36 -24z"/>
<path d="M1964 11419 c-4 -7 0 -9 13 -5 12 4 25 1 32 -8 10 -11 6 -21 -19 -49
-16 -19 -30 -37 -30 -41 0 -3 17 -5 38 -5 30 2 32 3 9 6 l-28 4 26 30 c14 17
25 36 25 43 0 30 -51 49 -66 25z"/>
<path d="M2050 11402 c0 -23 4 -28 23 -28 17 1 22 -5 22 -24 0 -19 -5 -25 -22
-24 -13 0 -23 -3 -23 -8 0 -17 50 -7 60 12 13 24 -3 60 -25 60 -24 0 -17 28 8
33 16 3 13 5 -10 6 -30 1 -33 -2 -33 -27z"/>
<path d="M2840 11405 c0 -15 6 -25 14 -25 7 0 19 -7 26 -15 16 -20 -6 -48 -32
-42 -10 3 -18 1 -18 -4 0 -15 46 -10 60 6 17 20 9 48 -18 60 -28 13 -28 32 1
38 19 4 18 4 -5 6 -24 1 -28 -3 -28 -24z"/>
<path d="M2932 11418 c-7 -7 -12 -29 -12 -49 0 -73 62 -78 68 -5 5 54 -26 84
-56 54z m40 -23 c8 -19 8 -31 -1 -51 -15 -34 -35 -26 -39 15 -6 61 19 83 40
36z"/>
<path d="M3723 11423 c31 -5 32 -7 12 -63 -8 -24 -13 -45 -10 -48 5 -6 30 50
40 91 7 26 6 27 -31 26 -31 -2 -33 -3 -11 -6z"/>
<path d="M3790 11402 c0 -23 4 -28 23 -28 17 1 22 -5 22 -24 0 -19 -5 -25 -22
-24 -13 0 -23 -3 -23 -8 0 -17 50 -7 60 12 13 24 -3 60 -25 60 -24 0 -17 28 8
33 16 3 13 5 -10 6 -30 1 -33 -2 -33 -27z"/>
<path d="M4540 11420 c0 -5 5 -10 10 -10 15 0 12 -87 -2 -93 -7 -3 3 -5 22 -5
19 0 29 2 23 5 -8 3 -13 25 -13 59 0 47 -2 54 -20 54 -11 0 -20 -4 -20 -10z"/>
<path d="M4632 11418 c-7 -7 -12 -29 -12 -49 0 -73 62 -78 68 -5 5 54 -26 84
-56 54z m40 -23 c8 -19 8 -31 -1 -51 -15 -34 -35 -26 -39 15 -6 61 19 83 40
36z"/>
<path d="M4721 11411 c-24 -44 -3 -107 34 -100 23 5 36 49 26 87 -9 34 -45 42
-60 13z m44 -41 c0 -49 -19 -64 -35 -28 -8 17 -8 32 -1 52 16 40 36 27 36 -24z"/>
<path d="M5410 11420 c0 -5 5 -10 10 -10 15 0 12 -87 -2 -93 -7 -3 3 -5 22 -5
19 0 29 2 23 5 -8 3 -13 25 -13 59 0 47 -2 54 -20 54 -11 0 -20 -4 -20 -10z"/>
<path d="M5490 11422 c0 -6 9 -8 20 -5 32 9 35 -23 6 -61 -14 -19 -26 -37 -26
-40 0 -3 17 -5 38 -5 34 1 35 2 9 8 l-29 6 22 27 c29 38 23 72 -12 76 -16 2
-28 -1 -28 -6z"/>
<path d="M5590 11405 c0 -15 6 -25 14 -25 7 0 19 -7 26 -15 16 -20 -6 -48 -32
-42 -10 3 -18 1 -18 -4 0 -15 46 -10 60 6 17 20 9 48 -18 60 -28 13 -28 32 1
38 19 4 18 4 -5 6 -24 1 -28 -3 -28 -24z"/>
<path d="M6290 11420 c0 -5 5 -10 10 -10 15 0 12 -87 -2 -93 -7 -3 3 -5 22 -5
19 0 29 2 23 5 -8 3 -13 25 -13 59 0 47 -2 54 -20 54 -11 0 -20 -4 -20 -10z"/>
<path d="M6370 11402 c0 -23 4 -28 23 -28 17 1 22 -5 22 -24 0 -19 -5 -25 -22
-24 -13 0 -23 -3 -23 -8 0 -17 50 -7 60 12 13 24 -3 60 -25 60 -24 0 -17 28 8
33 16 3 13 5 -10 6 -30 1 -33 -2 -33 -27z"/>
<path d="M6471 11411 c-24 -44 -3 -107 34 -100 23 5 36 49 26 87 -9 34 -45 42
-60 13z m44 -41 c0 -49 -19 -64 -35 -28 -8 17 -8 32 -1 52 16 40 36 27 36 -24z"/>
<path d="M7160 11420 c0 -5 5 -10 10 -10 15 0 12 -87 -2 -93 -7 -3 3 -5 22 -5
19 0 29 2 23 5 -8 3 -13 25 -13 59 0 47 -2 54 -20 54 -11 0 -20 -4 -20 -10z"/>
<path d="M7263 11423 c15 -2 27 -6 27 -8 0 -2 -9 -27 -20 -55 -11 -27 -16 -50
-11 -50 5 0 18 27 29 60 l21 60 -37 -1 c-30 -2 -32 -3 -9 -6z"/>
<path d="M7340 11405 c0 -15 6 -25 14 -25 7 0 19 -7 26 -15 16 -20 -6 -48 -32
-42 -10 3 -18 1 -18 -4 0 -15 46 -10 60 6 17 20 9 48 -18 60 -28 13 -28 32 1
38 19 4 18 4 -5 6 -24 1 -28 -3 -28 -24z"/>
<path d="M8014 11419 c-4 -7 0 -9 13 -5 12 4 25 1 32 -8 10 -11 6 -21 -19 -49
-16 -19 -30 -37 -30 -41 0 -3 17 -5 38 -5 30 2 32 3 9 6 l-28 4 26 30 c14 17
25 36 25 43 0 30 -51 49 -66 25z"/>
<path d="M8112 11418 c-7 -7 -12 -29 -12 -49 0 -73 62 -78 68 -5 5 54 -26 84
-56 54z m40 -23 c8 -19 8 -31 -1 -51 -15 -34 -35 -26 -39 15 -6 61 19 83 40
36z"/>
<path d="M8201 11411 c-24 -44 -3 -107 34 -100 23 5 36 49 26 87 -9 34 -45 42
-60 13z m44 -41 c0 -49 -19 -64 -35 -28 -8 17 -8 32 -1 52 16 40 36 27 36 -24z"/>
<path d="M4396 10965 c-8 -8 -20 -41 -26 -73 -6 -31 -14 -67 -17 -79 -3 -13 0
-23 6 -23 6 0 11 9 11 20 0 15 7 20 29 20 39 0 64 26 58 59 -3 14 -1 35 3 46
15 39 -32 61 -64 30z m54 -12 c0 -14 -15 -29 -35 -37 -19 -8 -19 -8 3 -17 32
-12 25 -44 -8 -44 -23 0 -25 3 -22 35 5 47 19 70 42 70 11 0 20 -3 20 -7z"/>
<path d="M3590 10900 c0 -40 4 -70 10 -70 6 0 10 30 10 70 0 40 -4 70 -10 70
-6 0 -10 -30 -10 -70z"/>
<path d="M3640 10900 c0 -40 4 -70 10 -70 6 0 10 26 10 58 l1 57 31 -57 c43
-80 58 -76 58 12 0 40 -4 70 -10 70 -5 0 -10 -26 -10 -57 l-1 -58 -31 58 c-43
79 -58 75 -58 -13z"/>
<path d="M3796 10954 c-9 -8 -16 -19 -16 -24 0 -13 42 -40 62 -40 10 0 18 -4
18 -10 0 -5 1 -13 3 -17 1 -5 -18 -10 -43 -14 -42 -5 -43 -6 -17 -13 15 -5 38
-5 51 -2 45 11 43 62 -3 72 -60 15 -63 44 -5 44 21 0 33 4 29 10 -10 16 -62
12 -79 -6z"/>
<path d="M3920 10900 c0 -40 4 -70 10 -70 6 0 10 14 10 30 0 23 4 30 20 30 12
0 26 -12 35 -30 9 -16 20 -30 25 -30 15 0 12 9 -10 40 -13 18 -16 31 -10 35
16 10 12 52 -6 59 -9 3 -29 6 -45 6 l-29 0 0 -70z m70 30 c0 -15 -7 -20 -25
-20 -18 0 -25 5 -25 20 0 15 7 20 25 20 18 0 25 -5 25 -20z"/>
<path d="M4060 10900 c0 -40 4 -70 10 -70 6 0 10 14 10 30 0 23 5 30 19 30 36
0 51 12 51 40 0 30 -15 40 -61 40 l-29 0 0 -70z m70 30 c0 -15 -7 -20 -25 -20
-18 0 -25 5 -25 20 0 15 7 20 25 20 18 0 25 -5 25 -20z"/>
<path d="M4180 10900 c0 -40 4 -70 10 -70 6 0 10 30 10 70 0 40 -4 70 -10 70
-6 0 -10 -30 -10 -70z"/>
<path d="M4749 10954 c-7 -9 -14 -33 -14 -54 0 -21 7 -45 14 -54 16 -19 52
-21 69 -4 16 16 16 100 0 116 -17 17 -53 15 -69 -4z m56 -54 c0 -38 -3 -45
-21 -48 -16 -2 -23 4 -28 22 -10 42 3 78 28 74 18 -3 21 -10 21 -48z"/>
<path d="M4935 10960 c-3 -5 3 -10 14 -10 18 0 21 -6 21 -50 0 -37 -4 -50 -14
-50 -8 0 -18 -4 -21 -10 -4 -6 12 -10 39 -10 25 0 46 5 46 10 0 6 -7 10 -15
10 -12 0 -15 13 -15 60 0 57 -1 60 -24 60 -14 0 -28 -4 -31 -10z"/>
<path d="M5060 10961 c0 -6 14 -11 32 -13 35 -3 52 -28 19 -28 -28 0 -36 -18
-9 -22 15 -2 23 -10 23 -23 0 -15 -8 -21 -32 -23 -18 -2 -33 -8 -33 -13 0 -6
16 -9 36 -7 44 4 65 28 48 56 -8 12 -8 22 0 35 9 15 7 21 -8 33 -22 16 -76 19
-76 5z"/>
<path d="M5629 10954 c-7 -9 -14 -33 -14 -54 0 -44 19 -70 49 -70 33 0 46 19
46 70 0 25 -5 51 -12 58 -17 17 -53 15 -69 -4z m56 -54 c0 -38 -3 -45 -21 -48
-25 -4 -38 32 -28 74 5 18 12 24 28 22 18 -3 21 -10 21 -48z"/>
<path d="M5819 10954 c-7 -9 -14 -33 -14 -54 0 -44 19 -70 49 -70 33 0 46 19
46 70 0 25 -5 51 -12 58 -17 17 -53 15 -69 -4z m56 -54 c0 -38 -3 -45 -21 -48
-25 -4 -38 32 -28 74 5 18 12 24 28 22 18 -3 21 -10 21 -48z"/>
<path d="M5930 10961 c0 -6 14 -11 32 -13 35 -3 52 -28 19 -28 -28 0 -36 -18
-9 -22 15 -2 23 -10 23 -23 0 -15 -8 -21 -32 -23 -18 -2 -33 -8 -33 -13 0 -6
16 -9 36 -7 44 4 65 28 48 56 -8 12 -8 22 0 35 9 15 7 21 -8 33 -22 16 -76 19
-76 5z"/>
<path d="M5255 10924 c4 -11 10 -45 13 -76 2 -32 8 -55 13 -52 5 3 9 12 9 19
0 8 14 37 30 63 31 51 35 62 22 62 -4 0 -16 -16 -26 -35 -24 -43 -34 -44 -38
-3 -2 17 -9 34 -17 36 -11 4 -12 0 -6 -14z"/>
<path d="M4240 10920 c0 -5 5 -10 10 -10 6 0 10 5 10 10 0 6 -4 10 -10 10 -5
0 -10 -4 -10 -10z"/>
<path d="M4545 10910 c-4 -6 18 -10 60 -10 42 0 64 4 60 10 -3 6 -30 10 -60
10 -30 0 -57 -4 -60 -10z"/>
<path d="M5415 10910 c-4 -6 18 -10 60 -10 42 0 64 4 60 10 -3 6 -30 10 -60
10 -30 0 -57 -4 -60 -10z"/>
<path d="M4545 10870 c-4 -6 18 -10 60 -10 42 0 64 4 60 10 -3 6 -30 10 -60
10 -30 0 -57 -4 -60 -10z"/>
<path d="M5415 10870 c-4 -6 18 -10 60 -10 42 0 64 4 60 10 -3 6 -30 10 -60
10 -30 0 -57 -4 -60 -10z"/>
<path d="M5190 10834 c0 -14 4 -23 10 -19 6 3 10 15 10 26 0 10 -4 19 -10 19
-5 0 -10 -12 -10 -26z"/>
<path d="M4240 10840 c0 -5 5 -10 10 -10 6 0 10 5 10 10 0 6 -4 10 -10 10 -5
0 -10 -4 -10 -10z"/>
<path d="M4870 10840 c0 -5 5 -10 10 -10 6 0 10 5 10 10 0 6 -4 10 -10 10 -5
0 -10 -4 -10 -10z"/>
<path d="M5740 10840 c0 -5 5 -10 10 -10 6 0 10 5 10 10 0 6 -4 10 -10 10 -5
0 -10 -4 -10 -10z"/>
<path d="M1170 10726 c0 -26 -5 -46 -12 -49 -10 -4 -10 -6 0 -6 9 -1 12 -52
12 -220 0 -166 -3 -221 -12 -224 -10 -4 -10 -6 0 -6 9 -1 12 -52 12 -220 0
-166 -3 -221 -12 -224 -10 -4 -10 -6 0 -6 9 -1 12 -52 12 -220 0 -166 -3 -221
-12 -224 -10 -4 -10 -6 0 -6 18 -1 18 -437 0 -444 -10 -4 -10 -6 0 -6 18 -1
18 -427 0 -434 -10 -4 -10 -6 0 -6 8 -1 12 -23 13 -73 1 -40 3 -65 6 -55 4 16
33 17 433 17 400 0 429 -1 433 -17 4 -17 5 -17 6 0 1 16 29 17 430 17 401 0
430 -1 434 -17 4 -17 5 -17 6 0 1 16 29 17 435 17 405 0 435 -1 439 -17 4 -17
5 -17 6 0 1 16 29 17 430 17 401 0 430 -1 434 -17 4 -17 5 -17 6 0 1 16 29 17
430 17 401 0 430 -1 434 -17 4 -17 5 -17 6 0 1 16 29 17 430 17 401 0 430 -1
434 -17 4 -17 5 -17 6 0 1 16 29 17 430 17 401 0 430 -1 434 -17 4 -17 5 -17
6 0 1 16 29 17 435 17 405 0 435 -1 439 -17 4 -17 5 -17 6 0 1 15 15 17 136
17 l135 0 0 1225 0 1225 -3630 0 -3630 0 0 -44z m7250 -21 l0 -55 -3547 4
c-1952 2 -3579 8 -3618 12 l-70 9 -3 43 -3 42 3620 0 3621 0 0 -55z m-6980
-83 c0 -13 14 -20 63 -30 34 -6 72 -14 83 -18 16 -4 23 0 27 15 5 21 -1 24
-88 44 -11 3 1467 4 3285 4 1818 -1 3260 -2 3205 -4 -254 -6 -712 -24 -830
-33 -71 -5 -195 -15 -275 -20 -663 -49 -1362 -161 -1720 -275 -58 -19 -141
-43 -186 -54 -85 -22 -156 -47 -294 -106 -47 -20 -106 -45 -132 -55 -127 -52
-430 -219 -607 -335 -197 -130 -220 -148 -450 -350 -106 -93 -215 -188 -241
-210 -26 -22 -88 -74 -137 -115 -49 -42 -127 -102 -172 -135 -46 -33 -125 -91
-175 -128 -188 -140 -468 -255 -719 -297 -150 -25 -372 -41 -624 -46 l-273 -6
0 1082 0 1083 85 -7 c57 -5 85 -4 85 3 0 6 20 11 45 11 36 0 45 -3 45 -18z
m6980 -1137 l0 -1155 -3620 0 -3620 0 0 40 c0 33 4 40 22 44 13 3 127 8 253
11 301 8 570 34 735 71 216 49 462 158 621 275 48 35 144 107 215 159 70 52
132 97 136 98 4 2 29 -15 55 -38 42 -37 48 -39 62 -25 14 14 11 19 -32 56 -47
40 -48 42 -30 61 10 11 44 41 76 65 32 25 149 126 259 224 202 179 239 208
443 343 117 77 346 211 455 266 135 68 427 188 520 214 36 10 115 33 176 52
266 81 566 145 939 198 167 24 248 34 605 71 335 35 824 62 1270 70 405 8 450
11 450 36 0 10 2 19 5 19 3 0 5 -520 5 -1155z"/>
<path d="M1694 10568 c-3 -11 -4 -20 -2 -21 1 -1 39 -14 83 -29 58 -19 82 -23
87 -15 17 27 8 32 -104 67 -56 18 -57 18 -64 -2z"/>
<path d="M1941 10471 c-9 -16 -1 -25 61 -65 60 -39 74 -45 85 -33 17 16 6 27
-79 81 -54 34 -58 35 -67 17z"/>
<path d="M2161 10326 c-11 -13 -9 -21 11 -45 14 -16 42 -44 62 -62 32 -28 39
-30 52 -18 12 13 6 23 -49 77 -55 55 -65 61 -76 48z"/>
<path d="M2347 10133 c-14 -15 -11 -21 34 -72 27 -30 49 -59 49 -63 0 -12 28
-10 35 2 8 13 -9 41 -63 103 -36 41 -41 44 -55 30z"/>
<path d="M2508 9927 c-15 -12 -11 -20 39 -86 49 -65 57 -71 70 -58 14 13 10
21 -28 73 -67 90 -62 85 -81 71z"/>
<path d="M2670 9716 c-10 -13 -5 -27 36 -86 26 -38 51 -70 55 -70 3 0 11 6 17
13 8 9 0 29 -34 77 -57 83 -58 84 -74 66z"/>
<path d="M2820 9495 c-10 -12 -3 -26 36 -80 46 -63 66 -76 79 -55 5 8 -89 150
-100 150 -1 0 -8 -7 -15 -15z"/>
<path d="M2981 9286 c-11 -13 -6 -25 39 -81 55 -69 59 -72 78 -53 11 11 3 25
-75 117 -26 30 -30 32 -42 17z"/>
<path d="M3346 8903 c-5 -11 1 -23 16 -35 48 -39 107 -78 116 -78 9 0 26 31
20 35 -2 0 -33 22 -70 48 -37 26 -69 47 -71 47 -3 0 -8 -8 -11 -17z"/>
<path d="M3570 8759 c-10 -17 -6 -22 27 -35 21 -9 58 -24 82 -35 53 -23 48
-23 54 2 4 15 -1 23 -21 31 -15 6 -51 21 -79 34 -52 23 -53 23 -63 3z"/>
<path d="M3820 8679 c0 -4 -3 -14 -6 -22 -4 -11 14 -20 76 -36 44 -12 85 -19
90 -16 26 16 3 32 -75 56 -47 15 -85 23 -85 18z"/>
<path d="M4070 8591 c0 -16 12 -21 73 -31 39 -6 77 -13 84 -15 11 -4 30 32 21
39 -4 4 -143 26 -162 26 -9 0 -16 -8 -16 -19z"/>
<path d="M4330 8551 c0 -15 11 -19 68 -24 103 -10 112 -9 112 12 0 20 -49 31
-136 31 -36 0 -44 -3 -44 -19z"/>
<path d="M4600 8533 c0 -19 5 -23 33 -23 17 0 56 -3 85 -6 48 -6 52 -5 52 15
0 11 -1 21 -2 22 -2 0 -40 4 -85 7 -82 7 -83 7 -83 -15z"/>
<path d="M4860 8522 c0 -27 18 -32 106 -32 67 0 74 2 74 20 0 17 -7 20 -44 20
-24 0 -64 3 -90 6 -42 6 -46 5 -46 -14z"/>
<path d="M5126 8504 c-3 -9 -6 -18 -6 -20 0 -2 41 -4 90 -4 83 0 90 1 90 20 0
18 -7 20 -84 20 -67 0 -85 -3 -90 -16z"/>
<path d="M5390 8496 l0 -26 90 0 c83 0 90 1 90 20 0 18 -7 20 -59 20 -32 0
-73 3 -90 6 -28 6 -31 4 -31 -20z"/>
<path d="M5657 8490 c-5 -19 0 -20 84 -20 82 0 89 1 89 20 0 18 -7 20 -84 20
-75 0 -84 -2 -89 -20z"/>
<path d="M5920 8485 c0 -25 1 -25 90 -25 81 0 90 2 90 19 0 22 -35 31 -121 31
-56 0 -59 -1 -59 -25z"/>
<path d="M6187 8480 c-5 -19 0 -20 84 -20 82 0 89 1 89 20 0 18 -7 20 -84 20
-75 0 -84 -2 -89 -20z"/>
<path d="M6450 8480 c0 -19 7 -20 90 -20 83 0 90 1 90 20 0 19 -7 20 -90 20
-83 0 -90 -1 -90 -20z"/>
<path d="M6720 8475 c0 -25 1 -25 85 -25 84 0 85 0 85 25 0 25 -1 25 -85 25
-84 0 -85 0 -85 -25z"/>
<path d="M6980 8470 c0 -19 7 -20 90 -20 70 0 90 3 90 14 0 17 -43 26 -121 26
-52 0 -59 -2 -59 -20z"/>
<path d="M7550 8476 c0 -8 -10 -17 -22 -19 -13 -2 20 -4 72 -4 52 0 83 2 68 4
-16 2 -28 11 -28 19 0 10 -13 14 -45 14 -32 0 -45 -4 -45 -14z"/>
<path d="M8080 8470 c0 -17 7 -20 45 -20 38 0 45 3 45 20 0 17 -7 20 -45 20
-38 0 -45 -3 -45 -20z"/>
<path d="M8358 8483 c7 -3 16 -2 19 1 4 3 -2 6 -13 5 -11 0 -14 -3 -6 -6z"/>
<path d="M7250 8460 c0 -6 35 -10 85 -10 50 0 85 4 85 10 0 6 -35 10 -85 10
-50 0 -85 -4 -85 -10z"/>
<path d="M890 10730 c0 -5 5 -10 10 -10 15 0 12 -87 -2 -93 -7 -3 3 -5 22 -5
19 0 29 2 23 5 -8 3 -13 25 -13 59 0 47 -2 54 -20 54 -11 0 -20 -4 -20 -10z"/>
<path d="M1021 10721 c-15 -27 -14 -63 2 -85 32 -43 81 15 61 72 -12 34 -48
42 -63 13z m44 -42 c0 -32 -4 -44 -15 -44 -16 0 -26 54 -16 82 12 30 31 6 31
-38z"/>
<path d="M970 10630 c0 -5 5 -10 10 -10 6 0 10 5 10 10 0 6 -4 10 -10 10 -5 0
-10 -4 -10 -10z"/>
<path d="M881 10271 c-24 -44 -3 -107 34 -100 23 5 36 49 26 87 -9 34 -45 42
-60 13z m44 -41 c0 -49 -19 -64 -35 -28 -8 17 -8 32 -1 52 16 40 36 27 36 -24z"/>
<path d="M1024 10277 c-3 -8 -4 -21 -3 -28 1 -8 -1 -22 -6 -32 -9 -21 10 -47
35 -47 25 0 44 26 35 47 -4 10 -8 29 -9 43 -1 29 -42 42 -52 17z m42 -8 c10
-17 -13 -36 -27 -22 -12 12 -4 33 11 33 5 0 12 -5 16 -11z m1 -55 c8 -21 -13
-42 -28 -27 -13 13 -5 43 11 43 6 0 13 -7 17 -16z"/>
<path d="M970 10180 c0 -5 5 -10 10 -10 6 0 10 5 10 10 0 6 -4 10 -10 10 -5 0
-10 -4 -10 -10z"/>
<path d="M881 9821 c-24 -44 -3 -107 34 -100 23 5 36 49 26 87 -9 34 -45 42
-60 13z m44 -41 c0 -49 -19 -64 -35 -28 -8 17 -8 32 -1 52 16 40 36 27 36 -24z"/>
<path d="M1026 9818 c-19 -26 -20 -51 -6 -79 15 -27 48 -24 62 6 13 30 -5 59
-34 52 -11 -3 -18 0 -18 8 0 15 27 28 41 19 5 -3 9 0 9 5 0 20 -39 11 -54 -11z
m39 -58 c0 -27 -22 -39 -31 -16 -8 22 3 49 19 43 6 -2 12 -14 12 -27z"/>
<path d="M970 9730 c0 -5 5 -10 10 -10 6 0 10 5 10 10 0 6 -4 10 -10 10 -5 0
-10 -4 -10 -10z"/>
<path d="M881 9371 c-24 -44 -3 -107 34 -100 23 5 36 49 26 87 -9 34 -45 42
-60 13z m44 -41 c0 -49 -19 -64 -35 -28 -8 17 -8 32 -1 52 16 40 36 27 36 -24z"/>
<path d="M1057 9350 c5 -36 3 -40 -16 -40 -21 0 -21 1 -5 25 9 14 14 28 11 31
-5 5 -37 -47 -37 -61 0 -3 11 -5 25 -5 17 0 25 -6 26 -17 0 -14 2 -15 6 -3 3
8 11 18 17 22 8 5 7 8 -1 8 -8 0 -13 15 -13 40 0 22 -4 40 -9 40 -5 0 -7 -18
-4 -40z"/>
<path d="M970 9280 c0 -5 5 -10 10 -10 6 0 10 5 10 10 0 6 -4 10 -10 10 -5 0
-10 -4 -10 -10z"/>
<path d="M881 8921 c-24 -44 -3 -107 34 -100 23 5 36 49 26 87 -9 34 -45 42
-60 13z m44 -41 c0 -49 -19 -64 -35 -28 -8 17 -8 32 -1 52 16 40 36 27 36 -24z"/>
<path d="M1015 8930 c-4 -7 2 -9 19 -4 35 8 45 -19 19 -49 -49 -56 -49 -57 -7
-56 23 1 30 3 17 6 -28 5 -29 15 -3 38 24 22 26 60 4 69 -23 9 -42 7 -49 -4z"/>
<path d="M970 8830 c0 -5 5 -10 10 -10 6 0 10 5 10 10 0 6 -4 10 -10 10 -5 0
-10 -4 -10 -10z"/>
<path d="M881 8481 c-24 -44 -3 -107 34 -100 23 5 36 49 26 87 -9 34 -45 42
-60 13z m44 -41 c0 -49 -19 -64 -35 -28 -8 17 -8 32 -1 52 16 40 36 27 36 -24z"/>
<path d="M1021 8481 c-15 -27 -14 -63 2 -85 32 -43 81 15 61 72 -12 34 -48 42
-63 13z m44 -42 c0 -32 -4 -44 -15 -44 -16 0 -26 54 -16 82 12 30 31 6 31 -38z"/>
<path d="M970 8390 c0 -5 5 -10 10 -10 6 0 10 5 10 10 0 6 -4 10 -10 10 -5 0
-10 -4 -10 -10z"/>
<path d="M1141 8241 c-24 -44 -3 -107 34 -100 23 5 36 49 26 87 -9 34 -45 42
-60 13z m44 -41 c0 -49 -19 -64 -35 -28 -8 17 -8 32 -1 52 16 40 36 27 36 -24z"/>
<path d="M1964 8249 c-4 -7 0 -9 13 -5 12 4 25 1 32 -8 10 -11 6 -21 -19 -49
-16 -19 -30 -37 -30 -41 0 -3 17 -5 38 -5 30 2 32 3 9 6 l-28 4 26 30 c14 17
25 36 25 43 0 30 -51 49 -66 25z"/>
<path d="M2050 8232 c0 -23 4 -28 23 -28 17 1 22 -5 22 -24 0 -19 -5 -25 -22
-24 -13 0 -23 -3 -23 -8 0 -17 50 -7 60 12 13 24 -3 60 -25 60 -24 0 -17 28 8
33 16 3 13 5 -10 6 -30 1 -33 -2 -33 -27z"/>
<path d="M2840 8235 c0 -15 6 -25 14 -25 7 0 19 -7 26 -15 16 -20 -6 -48 -32
-42 -10 3 -18 1 -18 -4 0 -15 46 -10 60 6 17 20 9 48 -18 60 -28 13 -28 32 1
38 19 4 18 4 -5 6 -24 1 -28 -3 -28 -24z"/>
<path d="M2932 8248 c-7 -7 -12 -29 -12 -49 0 -73 62 -78 68 -5 5 54 -26 84
-56 54z m40 -23 c8 -19 8 -31 -1 -51 -15 -34 -35 -26 -39 15 -6 61 19 83 40
36z"/>
<path d="M3723 8253 c31 -5 32 -7 12 -63 -8 -24 -13 -45 -10 -48 5 -6 30 50
40 91 7 26 6 27 -31 26 -31 -2 -33 -3 -11 -6z"/>
<path d="M3790 8232 c0 -23 4 -28 23 -28 17 1 22 -5 22 -24 0 -19 -5 -25 -22
-24 -13 0 -23 -3 -23 -8 0 -17 50 -7 60 12 13 24 -3 60 -25 60 -24 0 -17 28 8
33 16 3 13 5 -10 6 -30 1 -33 -2 -33 -27z"/>
<path d="M4540 8250 c0 -5 5 -10 10 -10 15 0 12 -87 -2 -93 -7 -3 3 -5 22 -5
19 0 29 2 23 5 -8 3 -13 25 -13 59 0 47 -2 54 -20 54 -11 0 -20 -4 -20 -10z"/>
<path d="M4632 8248 c-7 -7 -12 -29 -12 -49 0 -73 62 -78 68 -5 5 54 -26 84
-56 54z m40 -23 c8 -19 8 -31 -1 -51 -15 -34 -35 -26 -39 15 -6 61 19 83 40
36z"/>
<path d="M4721 8241 c-24 -44 -3 -107 34 -100 23 5 36 49 26 87 -9 34 -45 42
-60 13z m44 -41 c0 -49 -19 -64 -35 -28 -8 17 -8 32 -1 52 16 40 36 27 36 -24z"/>
<path d="M5410 8250 c0 -5 5 -10 10 -10 15 0 12 -87 -2 -93 -7 -3 3 -5 22 -5
19 0 29 2 23 5 -8 3 -13 25 -13 59 0 47 -2 54 -20 54 -11 0 -20 -4 -20 -10z"/>
<path d="M5490 8252 c0 -6 9 -8 20 -5 32 9 35 -23 6 -61 -14 -19 -26 -37 -26
-40 0 -3 17 -5 38 -5 34 1 35 2 9 8 l-29 6 22 27 c29 38 23 72 -12 76 -16 2
-28 -1 -28 -6z"/>
<path d="M5590 8235 c0 -15 6 -25 14 -25 7 0 19 -7 26 -15 16 -20 -6 -48 -32
-42 -10 3 -18 1 -18 -4 0 -15 46 -10 60 6 17 20 9 48 -18 60 -28 13 -28 32 1
38 19 4 18 4 -5 6 -24 1 -28 -3 -28 -24z"/>
<path d="M6290 8250 c0 -5 5 -10 10 -10 15 0 12 -87 -2 -93 -7 -3 3 -5 22 -5
19 0 29 2 23 5 -8 3 -13 25 -13 59 0 47 -2 54 -20 54 -11 0 -20 -4 -20 -10z"/>
<path d="M6370 8232 c0 -23 4 -28 23 -28 17 1 22 -5 22 -24 0 -19 -5 -25 -22
-24 -13 0 -23 -3 -23 -8 0 -17 50 -7 60 12 13 24 -3 60 -25 60 -24 0 -17 28 8
33 16 3 13 5 -10 6 -30 1 -33 -2 -33 -27z"/>
<path d="M6471 8241 c-24 -44 -3 -107 34 -100 23 5 36 49 26 87 -9 34 -45 42
-60 13z m44 -41 c0 -49 -19 -64 -35 -28 -8 17 -8 32 -1 52 16 40 36 27 36 -24z"/>
<path d="M7160 8250 c0 -5 5 -10 10 -10 15 0 12 -87 -2 -93 -7 -3 3 -5 22 -5
19 0 29 2 23 5 -8 3 -13 25 -13 59 0 47 -2 54 -20 54 -11 0 -20 -4 -20 -10z"/>
<path d="M7263 8253 c15 -2 27 -6 27 -8 0 -2 -9 -27 -20 -55 -11 -27 -16 -50
-11 -50 5 0 18 27 29 60 l21 60 -37 -1 c-30 -2 -32 -3 -9 -6z"/>
<path d="M7340 8235 c0 -15 6 -25 14 -25 7 0 19 -7 26 -15 16 -20 -6 -48 -32
-42 -10 3 -18 1 -18 -4 0 -15 46 -10 60 6 17 20 9 48 -18 60 -28 13 -28 32 1
38 19 4 18 4 -5 6 -24 1 -28 -3 -28 -24z"/>
<path d="M8014 8249 c-4 -7 0 -9 13 -5 12 4 25 1 32 -8 10 -11 6 -21 -19 -49
-16 -19 -30 -37 -30 -41 0 -3 17 -5 38 -5 30 2 32 3 9 6 l-28 4 26 30 c14 17
25 36 25 43 0 30 -51 49 -66 25z"/>
<path d="M8112 8248 c-7 -7 -12 -29 -12 -49 0 -73 62 -78 68 -5 5 54 -26 84
-56 54z m40 -23 c8 -19 8 -31 -1 -51 -15 -34 -35 -26 -39 15 -6 61 19 83 40
36z"/>
<path d="M8201 8241 c-24 -44 -3 -107 34 -100 23 5 36 49 26 87 -9 34 -45 42
-60 13z m44 -41 c0 -49 -19 -64 -35 -28 -8 17 -8 32 -1 52 16 40 36 27 36 -24z"/>
<path d="M4536 7785 c-8 -8 -20 -41 -26 -73 -6 -31 -14 -67 -17 -79 -3 -13 0
-23 6 -23 6 0 11 9 11 20 0 15 7 20 29 20 39 0 64 26 58 59 -3 14 -1 35 3 46
15 39 -32 61 -64 30z m54 -12 c0 -14 -15 -29 -35 -37 -19 -8 -19 -8 3 -17 32
-12 25 -44 -8 -44 -23 0 -25 3 -22 35 5 47 19 70 42 70 11 0 20 -3 20 -7z"/>
<path d="M3450 7720 c0 -40 4 -70 10 -70 6 0 10 30 10 70 0 40 -4 70 -10 70
-6 0 -10 -30 -10 -70z"/>
<path d="M3500 7720 c0 -40 4 -70 10 -70 6 0 10 26 10 58 l1 57 31 -57 c43
-80 58 -76 58 12 0 40 -4 70 -10 70 -5 0 -10 -26 -10 -57 l-1 -58 -31 58 c-43
79 -58 75 -58 -13z"/>
<path d="M3650 7720 l0 -70 38 0 c55 0 82 23 82 70 0 47 -27 70 -82 70 l-38 0
0 -70z m88 38 c7 -7 12 -24 12 -38 0 -34 -17 -50 -52 -50 -27 0 -28 2 -28 50
0 48 1 50 28 50 15 0 33 -5 40 -12z"/>
<path d="M3800 7720 c0 -40 4 -70 10 -70 6 0 10 14 10 30 0 23 4 30 20 30 12
0 26 -12 35 -30 9 -16 20 -30 25 -30 15 0 12 9 -10 40 -13 18 -16 31 -10 35
16 10 12 52 -6 59 -9 3 -29 6 -45 6 l-29 0 0 -70z m70 30 c0 -15 -7 -20 -25
-20 -18 0 -25 5 -25 20 0 15 7 20 25 20 18 0 25 -5 25 -20z"/>
<path d="M3965 7756 c-8 -20 -22 -52 -29 -71 -9 -20 -11 -35 -5 -35 5 0 12 7
15 15 9 22 70 20 83 -2 5 -10 13 -15 16 -11 10 9 -39 131 -54 136 -6 2 -18
-12 -26 -32z m45 -43 c0 -7 -11 -13 -24 -13 -24 0 -24 2 -14 32 10 29 12 30
25 13 7 -11 13 -25 13 -32z"/>
<path d="M4080 7720 c0 -40 4 -70 10 -70 6 0 10 26 10 58 l1 57 31 -57 c43
-80 58 -76 58 12 0 40 -4 70 -10 70 -5 0 -10 -26 -10 -57 l-1 -58 -31 58 c-43
79 -58 75 -58 -13z"/>
<path d="M4230 7720 l0 -70 38 0 c55 0 82 23 82 70 0 47 -27 70 -82 70 l-38 0
0 -70z m88 38 c7 -7 12 -24 12 -38 0 -34 -17 -50 -52 -50 -27 0 -28 2 -28 50
0 48 1 50 28 50 15 0 33 -5 40 -12z"/>
<path d="M4889 7774 c-7 -9 -14 -33 -14 -54 0 -21 7 -45 14 -54 16 -19 52 -21
69 -4 16 16 16 100 0 116 -17 17 -53 15 -69 -4z m56 -54 c0 -38 -3 -45 -21
-48 -16 -2 -23 4 -28 22 -10 42 3 78 28 74 18 -3 21 -10 21 -48z"/>
<path d="M5065 7781 c-3 -5 9 -11 27 -13 17 -2 33 -8 35 -14 2 -6 -15 -32 -38
-57 l-41 -47 52 0 c31 0 49 4 45 10 -3 6 -18 10 -32 10 l-25 0 31 35 c17 20
31 40 31 45 0 29 -70 55 -85 31z"/>
<path d="M5195 7781 c-3 -5 9 -11 27 -13 17 -2 33 -8 35 -14 2 -6 -15 -32 -38
-57 l-41 -47 52 0 c31 0 49 4 45 10 -3 6 -18 10 -32 10 l-25 0 31 35 c17 20
31 40 31 45 0 29 -70 55 -85 31z"/>
<path d="M5759 7774 c-7 -9 -14 -33 -14 -54 0 -44 19 -70 49 -70 33 0 46 19
46 70 0 25 -5 51 -12 58 -17 17 -53 15 -69 -4z m56 -54 c0 -38 -3 -45 -21 -48
-25 -4 -38 32 -28 74 5 18 12 24 28 22 18 -3 21 -10 21 -48z"/>
<path d="M5949 7774 c-7 -9 -14 -33 -14 -54 0 -44 19 -70 49 -70 33 0 46 19
46 70 0 25 -5 51 -12 58 -17 17 -53 15 -69 -4z m56 -54 c0 -38 -3 -45 -21 -48
-25 -4 -38 32 -28 74 5 18 12 24 28 22 18 -3 21 -10 21 -48z"/>
<path d="M6060 7780 c0 -5 14 -10 30 -10 17 0 30 -2 30 -5 0 -2 -9 -27 -20
-55 -23 -58 -23 -60 -11 -60 7 0 61 119 61 135 0 3 -20 5 -45 5 -25 0 -45 -4
-45 -10z"/>
<path d="M5385 7744 c4 -11 10 -45 13 -76 2 -32 8 -55 13 -52 5 3 9 12 9 19 0
8 14 37 30 63 31 51 35 62 22 62 -4 0 -16 -16 -26 -35 -24 -43 -34 -44 -38 -3
-2 17 -9 34 -17 36 -11 4 -12 0 -6 -14z"/>
<path d="M4380 7740 c0 -5 5 -10 10 -10 6 0 10 5 10 10 0 6 -4 10 -10 10 -5 0
-10 -4 -10 -10z"/>
<path d="M4685 7730 c-4 -6 18 -10 60 -10 42 0 64 4 60 10 -3 6 -30 10 -60 10
-30 0 -57 -4 -60 -10z"/>
<path d="M5545 7730 c-4 -6 18 -10 60 -10 42 0 64 4 60 10 -3 6 -30 10 -60 10
-30 0 -57 -4 -60 -10z"/>
<path d="M4685 7690 c-4 -6 18 -10 60 -10 42 0 64 4 60 10 -3 6 -30 10 -60 10
-30 0 -57 -4 -60 -10z"/>
<path d="M5545 7690 c-4 -6 18 -10 60 -10 42 0 64 4 60 10 -3 6 -30 10 -60 10
-30 0 -57 -4 -60 -10z"/>
<path d="M5320 7654 c0 -14 4 -23 10 -19 6 3 10 15 10 26 0 10 -4 19 -10 19
-5 0 -10 -12 -10 -26z"/>
<path d="M4380 7660 c0 -5 5 -10 10 -10 6 0 10 5 10 10 0 6 -4 10 -10 10 -5 0
-10 -4 -10 -10z"/>
<path d="M5010 7660 c0 -5 5 -10 10 -10 6 0 10 5 10 10 0 6 -4 10 -10 10 -5 0
-10 -4 -10 -10z"/>
<path d="M5870 7660 c0 -5 5 -10 10 -10 6 0 10 5 10 10 0 6 -4 10 -10 10 -5 0
-10 -4 -10 -10z"/>
<path d="M1170 7546 c0 -26 -5 -46 -12 -49 -10 -4 -10 -6 0 -6 9 -1 12 -51 12
-215 0 -162 -3 -216 -12 -219 -10 -4 -10 -6 0 -6 9 -1 12 -52 12 -220 0 -166
-3 -221 -12 -224 -10 -4 -10 -6 0 -6 18 -1 18 -437 0 -444 -10 -4 -10 -6 0 -6
9 -1 12 -52 12 -220 0 -166 -3 -221 -12 -224 -10 -4 -10 -6 0 -6 18 -1 18
-437 0 -444 -10 -4 -10 -6 0 -6 8 -1 12 -23 13 -73 1 -40 3 -65 6 -55 4 16 33
17 433 17 400 0 429 -1 433 -17 4 -17 5 -17 6 0 1 16 29 17 430 17 401 0 430
-1 434 -17 4 -17 5 -17 6 0 1 16 29 17 435 17 405 0 435 -1 439 -17 4 -17 5
-17 6 0 1 16 29 17 430 17 401 0 430 -1 434 -17 4 -17 5 -17 6 0 1 16 29 17
430 17 401 0 430 -1 434 -17 4 -17 5 -17 6 0 1 16 29 17 430 17 401 0 430 -1
434 -17 4 -17 5 -17 6 0 1 16 29 17 430 17 401 0 430 -1 434 -17 4 -17 5 -17
6 0 1 16 29 17 435 17 405 0 435 -1 439 -17 4 -17 5 -17 6 0 1 15 15 17 136
17 l135 0 0 1225 0 1225 -3630 0 -3630 0 0 -44z m7250 -58 l0 -93 -3440 -4
-3441 -4 -50 23 c-42 20 -52 22 -59 10 -5 -8 -6 -18 -4 -22 3 -4 -51 -8 -120
-8 l-126 0 0 35 0 35 43 -6 c23 -3 57 -10 76 -15 37 -9 51 -5 51 16 0 16 -45
32 -117 41 l-53 7 0 38 0 39 3620 0 3620 0 0 -92z m-6905 -138 c54 -27 61 -28
72 -13 10 13 9 19 -5 29 -14 11 269 13 1623 12 902 -1 1604 -3 1560 -5 -348
-12 -856 -90 -1080 -165 -142 -47 -314 -134 -465 -234 -254 -169 -450 -377
-699 -739 -57 -82 -107 -154 -111 -158 -4 -5 -20 12 -35 37 -29 49 -36 54 -53
33 -8 -9 -3 -25 19 -60 16 -26 29 -52 29 -58 0 -12 -40 -72 -52 -77 -4 -2 -8
-9 -8 -15 -1 -18 -142 -204 -223 -296 -64 -72 -192 -181 -250 -215 -106 -61
-298 -111 -462 -120 -60 -4 -129 -9 -152 -12 l-43 -5 0 1045 0 1046 138 0
c131 0 139 -2 197 -30z m6905 -1085 l0 -1115 -3620 0 -3620 0 0 45 c0 39 3 45
21 45 78 0 281 25 369 46 207 49 287 86 417 196 112 95 219 218 347 403 27 39
62 84 77 100 15 17 28 35 28 40 0 15 181 277 285 413 136 178 347 381 513 493
264 178 482 261 848 323 272 46 415 60 750 76 251 13 1867 29 2863 30 468 0
712 3 712 10 0 6 2 10 5 10 3 0 5 -502 5 -1115z"/>
<path d="M1656 7285 c-3 -8 5 -25 17 -38 12 -12 37 -39 55 -61 20 -23 39 -36
47 -32 23 9 18 20 -37 85 -52 62 -71 73 -82 46z"/>
<path d="M1822 7081 c-10 -6 -3 -25 33 -84 42 -67 49 -74 65 -64 10 6 16 16
13 22 -36 60 -86 135 -91 135 -4 0 -13 -4 -20 -9z"/>
<path d="M1967 6858 c-18 -13 -17 -18 19 -91 40 -81 41 -82 63 -68 10 7 5 25
-25 90 -36 76 -40 81 -57 69z"/>
<path d="M2077 6618 c-15 -12 -12 -20 26 -90 36 -64 45 -75 60 -67 15 9 13 17
-23 89 -22 44 -42 80 -43 80 -2 0 -11 -6 -20 -12z"/>
<path d="M2193 6383 c-9 -3 0 -29 27 -84 41 -81 45 -85 68 -70 11 7 5 25 -28
85 -23 42 -45 76 -48 75 -4 0 -13 -3 -19 -6z"/>
<path d="M2470 5925 c-10 -12 -7 -21 18 -52 17 -21 43 -51 60 -66 25 -24 31
-26 41 -13 11 13 3 26 -45 81 -32 36 -58 65 -60 65 -1 0 -7 -7 -14 -15z"/>
<path d="M2651 5737 c-19 -19 -13 -25 59 -74 63 -42 72 -45 86 -31 14 13 7 20
-59 66 -55 37 -78 47 -86 39z"/>
<path d="M2874 5595 c-9 -23 1 -30 80 -59 82 -31 86 -31 86 -7 0 15 -18 26
-72 48 -40 15 -76 29 -80 31 -5 2 -11 -4 -14 -13z"/>
<path d="M3124 5506 c-9 -22 -8 -23 64 -41 72 -19 106 -17 110 6 2 12 -12 18
-60 27 -35 7 -73 15 -85 18 -16 4 -25 1 -29 -10z"/>
<path d="M3380 5452 c0 -18 8 -21 68 -27 37 -3 77 -8 90 -11 31 -6 29 24 -3
36 -14 5 -54 12 -90 16 -61 6 -65 6 -65 -14z"/>
<path d="M3728 5437 c23 -6 42 -16 42 -24 0 -7 11 -13 25 -13 18 0 25 5 25 20
0 17 -7 20 -39 20 -21 0 -51 2 -67 4 -16 1 -10 -2 14 -7z"/>
<path d="M3910 5410 c0 -19 7 -20 90 -20 83 0 90 1 90 20 0 19 -7 20 -90 20
-83 0 -90 -1 -90 -20z"/>
<path d="M4180 5406 l0 -26 85 0 c78 0 85 2 85 20 0 17 -7 20 -47 20 -27 0
-65 3 -85 6 -36 6 -38 5 -38 -20z"/>
<path d="M4440 5400 c0 -19 7 -20 90 -20 83 0 90 1 90 20 0 19 -7 20 -90 20
-83 0 -90 -1 -90 -20z"/>
<path d="M4710 5395 c0 -25 1 -25 86 -25 83 0 85 1 82 23 -3 20 -9 22 -85 25
-83 3 -83 3 -83 -23z"/>
<path d="M4970 5390 c0 -19 7 -20 90 -20 83 0 90 1 90 20 0 19 -7 20 -90 20
-83 0 -90 -1 -90 -20z"/>
<path d="M5240 5390 c0 -18 7 -20 85 -20 78 0 85 2 85 20 0 18 -7 20 -85 20
-78 0 -85 -2 -85 -20z"/>
<path d="M5500 5390 c0 -19 7 -20 90 -20 83 0 90 1 90 20 0 19 -7 20 -90 20
-83 0 -90 -1 -90 -20z"/>
<path d="M5770 5390 c0 -18 7 -20 85 -20 78 0 85 2 85 20 0 18 -7 20 -85 20
-78 0 -85 -2 -85 -20z"/>
<path d="M6030 5390 c0 -19 7 -20 90 -20 83 0 90 1 90 20 0 19 -7 20 -90 20
-83 0 -90 -1 -90 -20z"/>
<path d="M6300 5390 c0 -18 7 -20 85 -20 78 0 85 2 85 20 0 18 -7 20 -85 20
-78 0 -85 -2 -85 -20z"/>
<path d="M6560 5390 c0 -19 7 -20 90 -20 83 0 90 1 90 20 0 19 -7 20 -90 20
-83 0 -90 -1 -90 -20z"/>
<path d="M6830 5390 c0 -18 7 -20 85 -20 78 0 85 2 85 20 0 18 -7 20 -85 20
-78 0 -85 -2 -85 -20z"/>
<path d="M7090 5390 c0 -19 7 -20 90 -20 83 0 90 1 90 20 0 19 -7 20 -90 20
-83 0 -90 -1 -90 -20z"/>
<path d="M7360 5390 c0 -18 7 -20 85 -20 78 0 85 2 85 20 0 18 -7 20 -85 20
-78 0 -85 -2 -85 -20z"/>
<path d="M7620 5390 c0 -19 7 -20 90 -20 83 0 90 1 90 20 0 19 -7 20 -90 20
-83 0 -90 -1 -90 -20z"/>
<path d="M7890 5390 c0 -18 7 -20 85 -20 78 0 85 2 85 20 0 18 -7 20 -85 20
-78 0 -85 -2 -85 -20z"/>
<path d="M8150 5390 c0 -19 7 -20 90 -20 83 0 90 1 90 20 0 19 -7 20 -90 20
-83 0 -90 -1 -90 -20z"/>
<path d="M890 7550 c0 -5 5 -10 10 -10 15 0 12 -87 -2 -93 -7 -3 3 -5 22 -5
19 0 29 2 23 5 -8 3 -13 25 -13 59 0 47 -2 54 -20 54 -11 0 -20 -4 -20 -10z"/>
<path d="M1021 7541 c-15 -27 -14 -63 2 -85 32 -43 81 15 61 72 -12 34 -48 42
-63 13z m44 -42 c0 -32 -4 -44 -15 -44 -16 0 -26 54 -16 82 12 30 31 6 31 -38z"/>
<path d="M970 7450 c0 -5 5 -10 10 -10 6 0 10 5 10 10 0 6 -4 10 -10 10 -5 0
-10 -4 -10 -10z"/>
<path d="M881 7101 c-24 -44 -3 -107 34 -100 23 5 36 49 26 87 -9 34 -45 42
-60 13z m44 -41 c0 -49 -19 -64 -35 -28 -8 17 -8 32 -1 52 16 40 36 27 36 -24z"/>
<path d="M1024 7107 c-3 -8 -4 -21 -3 -28 1 -8 -1 -22 -6 -32 -9 -21 10 -47
35 -47 25 0 44 26 35 47 -4 10 -8 29 -9 43 -1 29 -42 42 -52 17z m42 -8 c10
-17 -13 -36 -27 -22 -12 12 -4 33 11 33 5 0 12 -5 16 -11z m1 -55 c8 -21 -13
-42 -28 -27 -13 13 -5 43 11 43 6 0 13 -7 17 -16z"/>
<path d="M970 7010 c0 -5 5 -10 10 -10 6 0 10 5 10 10 0 6 -4 10 -10 10 -5 0
-10 -4 -10 -10z"/>
<path d="M881 6651 c-24 -44 -3 -107 34 -100 23 5 36 49 26 87 -9 34 -45 42
-60 13z m44 -41 c0 -49 -19 -64 -35 -28 -8 17 -8 32 -1 52 16 40 36 27 36 -24z"/>
<path d="M1026 6648 c-19 -26 -20 -51 -6 -79 15 -27 48 -24 62 6 13 30 -5 59
-34 52 -11 -3 -18 0 -18 8 0 15 27 28 41 19 5 -3 9 0 9 5 0 20 -39 11 -54 -11z
m39 -58 c0 -13 -6 -25 -12 -27 -16 -6 -27 21 -19 43 9 23 31 11 31 -16z"/>
<path d="M970 6560 c0 -5 5 -10 10 -10 6 0 10 5 10 10 0 6 -4 10 -10 10 -5 0
-10 -4 -10 -10z"/>
<path d="M881 6201 c-24 -44 -3 -107 34 -100 23 5 36 49 26 87 -9 34 -45 42
-60 13z m44 -41 c0 -49 -19 -64 -35 -28 -8 17 -8 32 -1 52 16 40 36 27 36 -24z"/>
<path d="M1057 6180 c5 -36 3 -40 -16 -40 -21 0 -21 1 -5 25 9 14 14 28 11 31
-5 5 -37 -47 -37 -61 0 -3 11 -5 25 -5 17 0 25 -6 26 -17 0 -14 2 -15 6 -3 3
8 11 18 17 22 8 5 7 8 -1 8 -8 0 -13 15 -13 40 0 22 -4 40 -9 40 -5 0 -7 -18
-4 -40z"/>
<path d="M970 6110 c0 -5 5 -10 10 -10 6 0 10 5 10 10 0 6 -4 10 -10 10 -5 0
-10 -4 -10 -10z"/>
<path d="M881 5751 c-24 -44 -3 -107 34 -100 23 5 36 49 26 87 -9 34 -45 42
-60 13z m44 -41 c0 -49 -19 -64 -35 -28 -8 17 -8 32 -1 52 16 40 36 27 36 -24z"/>
<path d="M1015 5760 c-4 -7 2 -9 19 -4 35 8 45 -19 19 -49 -49 -56 -49 -57 -7
-56 23 1 30 3 17 6 -28 5 -29 15 -3 38 24 22 26 60 4 69 -23 9 -42 7 -49 -4z"/>
<path d="M970 5660 c0 -5 5 -10 10 -10 6 0 10 5 10 10 0 6 -4 10 -10 10 -5 0
-10 -4 -10 -10z"/>
<path d="M881 5301 c-24 -44 -3 -107 34 -100 23 5 36 49 26 87 -9 34 -45 42
-60 13z m44 -41 c0 -49 -19 -64 -35 -28 -8 17 -8 32 -1 52 16 40 36 27 36 -24z"/>
<path d="M1021 5301 c-15 -27 -14 -63 2 -85 32 -43 81 15 61 72 -12 34 -48 42
-63 13z m44 -42 c0 -32 -4 -44 -15 -44 -16 0 -26 54 -16 82 12 30 31 6 31 -38z"/>
<path d="M970 5210 c0 -5 5 -10 10 -10 6 0 10 5 10 10 0 6 -4 10 -10 10 -5 0
-10 -4 -10 -10z"/>
<path d="M1141 5061 c-24 -44 -3 -107 34 -100 23 5 36 49 26 87 -9 34 -45 42
-60 13z m44 -41 c0 -49 -19 -64 -35 -28 -8 17 -8 32 -1 52 16 40 36 27 36 -24z"/>
<path d="M1964 5069 c-4 -7 0 -9 13 -5 12 4 25 1 32 -8 10 -11 6 -21 -19 -49
-16 -19 -30 -37 -30 -41 0 -3 17 -5 38 -5 30 2 32 3 9 6 l-28 4 26 30 c14 17
25 36 25 43 0 30 -51 49 -66 25z"/>
<path d="M2050 5052 c0 -23 4 -28 23 -28 17 1 22 -5 22 -24 0 -19 -5 -25 -22
-24 -13 0 -23 -3 -23 -8 0 -17 50 -7 60 12 13 24 -3 60 -25 60 -24 0 -17 28 8
33 16 3 13 5 -10 6 -30 1 -33 -2 -33 -27z"/>
<path d="M2840 5055 c0 -15 6 -25 14 -25 7 0 19 -7 26 -15 16 -20 -6 -48 -32
-42 -10 3 -18 1 -18 -4 0 -15 46 -10 60 6 17 20 9 48 -18 60 -28 13 -28 32 1
38 19 4 18 4 -5 6 -24 1 -28 -3 -28 -24z"/>
<path d="M2932 5068 c-7 -7 -12 -29 -12 -49 0 -73 62 -78 68 -5 5 54 -26 84
-56 54z m40 -23 c8 -19 8 -31 -1 -51 -15 -34 -35 -26 -39 15 -6 61 19 83 40
36z"/>
<path d="M3723 5073 c31 -5 32 -7 12 -63 -8 -24 -13 -45 -10 -48 5 -6 30 50
40 91 7 26 6 27 -31 26 -31 -2 -33 -3 -11 -6z"/>
<path d="M3790 5052 c0 -23 4 -28 23 -28 17 1 22 -5 22 -24 0 -19 -5 -25 -22
-24 -13 0 -23 -3 -23 -8 0 -17 50 -7 60 12 13 24 -3 60 -25 60 -24 0 -17 28 8
33 16 3 13 5 -10 6 -30 1 -33 -2 -33 -27z"/>
<path d="M4540 5070 c0 -5 5 -10 10 -10 15 0 12 -87 -2 -93 -7 -3 3 -5 22 -5
19 0 29 2 23 5 -8 3 -13 25 -13 59 0 47 -2 54 -20 54 -11 0 -20 -4 -20 -10z"/>
<path d="M4632 5068 c-7 -7 -12 -29 -12 -49 0 -73 62 -78 68 -5 5 54 -26 84
-56 54z m40 -23 c8 -19 8 -31 -1 -51 -15 -34 -35 -26 -39 15 -6 61 19 83 40
36z"/>
<path d="M4721 5061 c-24 -44 -3 -107 34 -100 23 5 36 49 26 87 -9 34 -45 42
-60 13z m44 -41 c0 -49 -19 -64 -35 -28 -8 17 -8 32 -1 52 16 40 36 27 36 -24z"/>
<path d="M5410 5070 c0 -5 5 -10 10 -10 15 0 12 -87 -2 -93 -7 -3 3 -5 22 -5
19 0 29 2 23 5 -8 3 -13 25 -13 59 0 47 -2 54 -20 54 -11 0 -20 -4 -20 -10z"/>
<path d="M5490 5072 c0 -6 9 -8 20 -5 32 9 35 -23 6 -61 -14 -19 -26 -37 -26
-40 0 -3 17 -5 38 -5 34 1 35 2 9 8 l-29 6 22 27 c29 38 23 72 -12 76 -16 2
-28 -1 -28 -6z"/>
<path d="M5590 5055 c0 -15 6 -25 14 -25 7 0 19 -7 26 -15 16 -20 -6 -48 -32
-42 -10 3 -18 1 -18 -4 0 -15 46 -10 60 6 17 20 9 48 -18 60 -28 13 -28 32 1
38 19 4 18 4 -5 6 -24 1 -28 -3 -28 -24z"/>
<path d="M6290 5070 c0 -5 5 -10 10 -10 15 0 12 -87 -2 -93 -7 -3 3 -5 22 -5
19 0 29 2 23 5 -8 3 -13 25 -13 59 0 47 -2 54 -20 54 -11 0 -20 -4 -20 -10z"/>
<path d="M6370 5052 c0 -23 4 -28 23 -28 17 1 22 -5 22 -24 0 -19 -5 -25 -22
-24 -13 0 -23 -3 -23 -8 0 -17 50 -7 60 12 13 24 -3 60 -25 60 -24 0 -17 28 8
33 16 3 13 5 -10 6 -30 1 -33 -2 -33 -27z"/>
<path d="M6471 5061 c-24 -44 -3 -107 34 -100 23 5 36 49 26 87 -9 34 -45 42
-60 13z m44 -41 c0 -49 -19 -64 -35 -28 -8 17 -8 32 -1 52 16 40 36 27 36 -24z"/>
<path d="M7160 5070 c0 -5 5 -10 10 -10 15 0 12 -87 -2 -93 -7 -3 3 -5 22 -5
19 0 29 2 23 5 -8 3 -13 25 -13 59 0 47 -2 54 -20 54 -11 0 -20 -4 -20 -10z"/>
<path d="M7263 5073 c15 -2 27 -6 27 -8 0 -2 -9 -27 -20 -55 -11 -27 -16 -50
-11 -50 5 0 18 27 29 60 l21 60 -37 -1 c-30 -2 -32 -3 -9 -6z"/>
<path d="M7340 5055 c0 -15 6 -25 14 -25 7 0 19 -7 26 -15 16 -20 -6 -48 -32
-42 -10 3 -18 1 -18 -4 0 -15 46 -10 60 6 17 20 9 48 -18 60 -28 13 -28 32 1
38 19 4 18 4 -5 6 -24 1 -28 -3 -28 -24z"/>
<path d="M8014 5069 c-4 -7 0 -9 13 -5 12 4 25 1 32 -8 10 -11 6 -21 -19 -49
-16 -19 -30 -37 -30 -41 0 -3 17 -5 38 -5 30 2 32 3 9 6 l-28 4 26 30 c14 17
25 36 25 43 0 30 -51 49 -66 25z"/>
<path d="M8112 5068 c-7 -7 -12 -29 -12 -49 0 -73 62 -78 68 -5 5 54 -26 84
-56 54z m40 -23 c8 -19 8 -31 -1 -51 -15 -34 -35 -26 -39 15 -6 61 19 83 40
36z"/>
<path d="M8201 5061 c-24 -44 -3 -107 34 -100 23 5 36 49 26 87 -9 34 -45 42
-60 13z m44 -41 c0 -49 -19 -64 -35 -28 -8 17 -8 32 -1 52 16 40 36 27 36 -24z"/>
<path d="M4406 4615 c-8 -8 -20 -41 -26 -73 -6 -31 -14 -67 -17 -79 -3 -13 0
-23 6 -23 6 0 11 9 11 20 0 15 7 20 29 20 39 0 64 26 58 59 -3 14 -1 35 3 46
15 39 -32 61 -64 30z m54 -12 c0 -14 -15 -29 -35 -37 -19 -8 -19 -8 3 -17 32
-12 25 -44 -8 -44 -23 0 -25 3 -22 35 5 47 19 70 42 70 11 0 20 -3 20 -7z"/>
<path d="M3580 4550 c0 -40 4 -70 10 -70 6 0 10 30 10 70 0 40 -4 70 -10 70
-6 0 -10 -30 -10 -70z"/>
<path d="M3630 4550 c0 -40 4 -70 10 -70 6 0 10 26 10 58 l1 57 31 -57 c43
-80 58 -76 58 12 0 40 -4 70 -10 70 -5 0 -10 -26 -10 -57 l-1 -58 -31 58 c-43
79 -58 75 -58 -13z"/>
<path d="M3780 4550 l0 -70 38 0 c55 0 82 23 82 70 0 47 -27 70 -82 70 l-38 0
0 -70z m88 38 c7 -7 12 -24 12 -38 0 -34 -17 -50 -52 -50 -27 0 -28 2 -28 50
0 48 1 50 28 50 15 0 33 -5 40 -12z"/>
<path d="M3930 4550 c0 -40 4 -70 10 -70 6 0 10 14 10 30 0 23 4 30 20 30 12
0 26 -12 35 -30 9 -16 20 -30 25 -30 15 0 12 9 -10 40 -13 18 -16 31 -10 35
16 10 12 52 -6 59 -9 3 -29 6 -45 6 l-29 0 0 -70z m70 30 c0 -15 -7 -20 -25
-20 -18 0 -25 5 -25 20 0 15 7 20 25 20 18 0 25 -5 25 -20z"/>
<path d="M4070 4550 c0 -40 4 -70 10 -70 6 0 10 14 10 30 0 23 5 30 19 30 36
0 51 12 51 40 0 30 -15 40 -61 40 l-29 0 0 -70z m70 30 c0 -15 -7 -20 -25 -20
-18 0 -25 5 -25 20 0 15 7 20 25 20 18 0 25 -5 25 -20z"/>
<path d="M4190 4550 c0 -40 4 -70 10 -70 6 0 10 30 10 70 0 40 -4 70 -10 70
-6 0 -10 -30 -10 -70z"/>
<path d="M4769 4604 c-7 -9 -14 -33 -14 -54 0 -21 7 -45 14 -54 16 -19 52 -21
69 -4 16 16 16 100 0 116 -17 17 -53 15 -69 -4z m56 -54 c0 -38 -3 -45 -21
-48 -16 -2 -23 4 -28 22 -10 42 3 78 28 74 18 -3 21 -10 21 -48z"/>
<path d="M4959 4604 c-7 -9 -14 -33 -14 -54 0 -21 7 -45 14 -54 16 -19 52 -21
69 -4 16 16 16 100 0 116 -17 17 -53 15 -69 -4z m56 -54 c0 -38 -3 -45 -21
-48 -16 -2 -23 4 -28 22 -10 42 3 78 28 74 18 -3 21 -10 21 -48z"/>
<path d="M5070 4610 c0 -5 14 -10 30 -10 17 0 30 -2 30 -5 0 -2 -9 -27 -20
-55 -23 -58 -23 -60 -11 -60 7 0 61 119 61 135 0 3 -20 5 -45 5 -25 0 -45 -4
-45 -10z"/>
<path d="M5639 4604 c-7 -9 -14 -33 -14 -54 0 -44 19 -70 49 -70 33 0 46 19
46 70 0 25 -5 51 -12 58 -17 17 -53 15 -69 -4z m56 -54 c0 -38 -3 -45 -21 -48
-25 -4 -38 32 -28 74 5 18 12 24 28 22 18 -3 21 -10 21 -48z"/>
<path d="M5829 4604 c-7 -9 -14 -33 -14 -54 0 -44 19 -70 49 -70 33 0 46 19
46 70 0 25 -5 51 -12 58 -17 17 -53 15 -69 -4z m56 -54 c0 -38 -3 -45 -21 -48
-25 -4 -38 32 -28 74 5 18 12 24 28 22 18 -3 21 -10 21 -48z"/>
<path d="M5950 4611 c0 -6 14 -11 32 -13 35 -3 52 -28 19 -28 -28 0 -36 -18
-9 -22 15 -2 23 -10 23 -23 0 -15 -8 -21 -32 -23 -18 -2 -33 -8 -33 -13 0 -6
16 -9 36 -7 44 4 65 28 48 56 -8 12 -8 22 0 35 9 15 7 21 -8 33 -22 16 -76 19
-76 5z"/>
<path d="M5275 4574 c4 -11 10 -45 13 -76 2 -32 8 -55 13 -52 5 3 9 12 9 19 0
8 14 37 30 63 31 51 35 62 22 62 -4 0 -16 -16 -26 -35 -24 -43 -34 -44 -38 -3
-2 17 -9 34 -17 36 -11 4 -12 0 -6 -14z"/>
<path d="M4250 4570 c0 -5 5 -10 10 -10 6 0 10 5 10 10 0 6 -4 10 -10 10 -5 0
-10 -4 -10 -10z"/>
<path d="M4555 4560 c-4 -6 18 -10 60 -10 42 0 64 4 60 10 -3 6 -30 10 -60 10
-30 0 -57 -4 -60 -10z"/>
<path d="M5425 4560 c-4 -6 18 -10 60 -10 42 0 64 4 60 10 -3 6 -30 10 -60 10
-30 0 -57 -4 -60 -10z"/>
<path d="M4555 4520 c-4 -6 18 -10 60 -10 42 0 64 4 60 10 -3 6 -30 10 -60 10
-30 0 -57 -4 -60 -10z"/>
<path d="M5425 4520 c-4 -6 18 -10 60 -10 42 0 64 4 60 10 -3 6 -30 10 -60 10
-30 0 -57 -4 -60 -10z"/>
<path d="M5200 4484 c0 -14 4 -23 10 -19 6 3 10 15 10 26 0 10 -4 19 -10 19
-5 0 -10 -12 -10 -26z"/>
<path d="M4250 4490 c0 -5 5 -10 10 -10 6 0 10 5 10 10 0 6 -4 10 -10 10 -5 0
-10 -4 -10 -10z"/>
<path d="M4880 4490 c0 -5 5 -10 10 -10 6 0 10 5 10 10 0 6 -4 10 -10 10 -5 0
-10 -4 -10 -10z"/>
<path d="M5760 4490 c0 -5 5 -10 10 -10 6 0 10 5 10 10 0 6 -4 10 -10 10 -5 0
-10 -4 -10 -10z"/>
<path d="M1170 4376 c0 -26 -5 -46 -12 -49 -10 -4 -10 -6 0 -6 9 -1 12 -52 12
-220 0 -166 -3 -221 -12 -224 -10 -4 -10 -6 0 -6 9 -1 12 -51 12 -215 0 -162
-3 -216 -12 -219 -10 -4 -10 -6 0 -6 18 -1 18 -437 0 -444 -10 -4 -10 -6 0 -6
18 -1 18 -437 0 -444 -10 -4 -10 -6 0 -6 18 -1 18 -437 0 -444 -10 -4 -10 -6
0 -6 8 -1 12 -23 13 -73 1 -40 3 -65 6 -55 4 16 33 17 433 17 400 0 429 -1
433 -17 4 -17 5 -17 6 0 1 16 29 17 430 17 401 0 430 -1 434 -17 4 -17 5 -17
6 0 1 16 29 17 435 17 405 0 435 -1 439 -17 4 -17 5 -17 6 0 1 16 29 17 430
17 401 0 430 -1 434 -17 4 -17 5 -17 6 0 1 16 29 17 430 17 401 0 430 -1 434
-17 4 -17 5 -17 6 0 1 16 29 17 430 17 401 0 430 -1 434 -17 4 -17 5 -17 6 0
1 16 29 17 430 17 401 0 430 -1 434 -17 4 -17 5 -17 6 0 1 16 29 17 435 17
405 0 435 -1 439 -17 4 -17 5 -17 6 0 1 15 15 17 136 17 l135 0 0 1225 0 1225
-3630 0 -3630 0 0 -44z m7250 -151 l0 -185 -2658 0 c-2235 0 -2666 2 -2705 14
-39 12 -47 12 -51 0 -5 -12 -150 -14 -916 -14 l-910 0 0 124 0 124 85 -6 c80
-5 85 -4 85 15 0 19 -9 21 -85 28 l-85 7 0 39 0 39 3620 0 3620 0 0 -185z
m-5347 -220 c48 -14 92 -23 97 -20 14 9 12 32 -2 38 -7 3 1172 6 2620 6 l2632
1 0 -1025 0 -1025 -3620 0 -3620 0 0 44 0 43 248 7 c784 22 1286 63 1757 145
61 11 146 25 190 31 91 13 466 96 630 139 189 50 199 53 230 67 17 8 163 58
325 113 162 54 385 133 495 176 110 42 227 87 260 100 33 12 104 41 159 64 54
22 105 41 114 41 8 0 20 6 26 14 6 7 49 26 96 41 47 15 102 36 123 47 98 49
822 308 997 357 175 49 447 117 600 151 80 17 178 41 219 51 165 44 522 108
694 125 62 6 67 9 67 30 0 13 -4 24 -8 24 -86 0 -556 -83 -762 -134 -52 -13
-160 -38 -240 -56 -168 -38 -650 -163 -713 -185 -23 -9 -116 -41 -207 -72 -91
-30 -189 -66 -218 -79 -30 -13 -73 -29 -95 -35 -48 -13 -298 -109 -372 -143
-56 -26 -206 -76 -229 -76 -8 0 -36 9 -62 20 -37 16 -49 18 -56 8 -13 -22 -10
-27 30 -44 l37 -16 -55 -24 c-30 -14 -95 -40 -145 -59 -49 -18 -112 -43 -140
-55 -27 -12 -79 -33 -115 -45 -36 -13 -94 -35 -130 -48 -416 -159 -915 -315
-1175 -369 -27 -5 -72 -16 -99 -24 -26 -8 -59 -14 -72 -14 -13 0 -65 -9 -116
-19 -51 -10 -136 -27 -188 -36 -52 -9 -115 -21 -140 -25 -25 -5 -90 -14 -145
-20 -55 -7 -136 -18 -180 -25 -44 -8 -104 -16 -132 -19 -29 -2 -57 -7 -61 -10
-5 -3 -81 -8 -168 -11 -87 -3 -182 -10 -210 -16 -28 -5 -68 -9 -90 -8 -64 2
-427 -11 -452 -16 -12 -3 -135 -8 -272 -10 l-250 -5 0 955 0 955 903 0 903 0
87 -25z"/>
<path d="M1440 4291 c0 -16 11 -19 82 -24 78 -5 97 0 98 24 0 12 -43 19 -112
19 -60 0 -68 -2 -68 -19z"/>
<path d="M1700 4271 c0 -15 11 -19 61 -25 102 -10 119 -8 119 13 0 15 -10 19
-52 25 -97 11 -128 8 -128 -13z"/>
<path d="M1970 4259 c0 -4 -3 -14 -6 -22 -4 -11 9 -16 63 -22 37 -3 78 -9 91
-12 17 -4 22 -1 22 16 0 23 -7 25 -107 39 -35 5 -63 5 -63 1z"/>
<path d="M2230 4207 c0 -22 5 -25 48 -31 26 -4 63 -9 83 -12 30 -4 37 -2 42
15 5 21 0 23 -93 36 -25 4 -53 9 -62 11 -14 4 -18 -1 -18 -19z"/>
<path d="M2490 4165 c0 -20 8 -24 63 -34 34 -7 72 -15 83 -17 16 -4 23 0 27
15 6 23 10 21 -105 45 -68 14 -68 14 -68 -9z"/>
<path d="M2750 4110 c0 -14 11 -22 43 -30 23 -6 58 -15 77 -21 47 -12 47 -12
53 10 4 17 -6 22 -72 40 -95 26 -101 26 -101 1z"/>
<path d="M3260 3970 c0 -15 16 -24 78 -44 75 -24 100 -22 90 6 -5 12 -128 58
-156 58 -7 0 -12 -9 -12 -20z"/>
<path d="M3517 3904 c-4 -4 -7 -13 -7 -20 0 -15 146 -77 161 -68 22 13 1 36
-56 60 -79 34 -89 36 -98 28z"/>
<path d="M3756 3794 c-8 -21 -13 -18 74 -54 88 -35 88 -35 92 -12 3 13 -12 24
-57 43 -89 40 -102 42 -109 23z"/>
<path d="M3996 3684 c-4 -11 5 -19 32 -30 20 -9 57 -25 81 -36 36 -17 45 -18
52 -7 14 23 12 25 -59 58 -77 35 -97 38 -106 15z"/>
<path d="M4236 3574 c-4 -9 -5 -17 -4 -18 2 -1 38 -18 80 -38 74 -36 78 -37
88 -18 9 16 2 23 -61 54 -81 40 -94 43 -103 20z"/>
<path d="M4478 3463 c-3 -14 15 -28 71 -56 71 -36 76 -37 88 -20 12 16 7 21
-59 55 -83 42 -95 45 -100 21z"/>
<path d="M4717 3349 c-4 -16 7 -26 65 -55 69 -35 98 -38 98 -11 0 12 -47 39
-126 73 -29 12 -32 12 -37 -7z"/>
<path d="M4956 3234 c-8 -21 -13 -17 74 -58 77 -35 90 -37 90 -8 0 12 -23 27
-73 47 -39 17 -75 31 -78 33 -4 2 -9 -5 -13 -14z"/>
<path d="M5196 3124 c-8 -21 -16 -15 79 -51 78 -30 80 -30 88 -10 4 11 6 21 5
22 -7 4 -154 55 -159 55 -4 0 -10 -7 -13 -16z"/>
<path d="M5696 2943 c-4 -9 -3 -20 1 -24 8 -6 148 -59 159 -59 3 0 4 10 2 21
-2 17 -21 28 -78 50 -41 16 -75 29 -76 29 -1 0 -5 -8 -8 -17z"/>
<path d="M5945 2859 c-4 -11 -5 -22 -3 -23 1 -1 39 -12 83 -24 60 -16 81 -18
87 -9 14 22 9 26 -64 47 -40 12 -78 23 -85 25 -7 2 -15 -5 -18 -16z"/>
<path d="M6200 2781 c0 -15 14 -22 73 -36 39 -9 78 -18 85 -21 7 -2 12 6 12
19 0 20 -9 24 -77 40 -96 21 -93 21 -93 -2z"/>
<path d="M6457 2730 c-5 -21 2 -24 113 -49 60 -14 60 -14 60 9 0 13 -9 22 -27
26 -45 10 -107 25 -124 30 -11 3 -18 -3 -22 -16z"/>
<path d="M6718 2676 c-3 -19 5 -22 62 -33 94 -17 107 -16 113 7 3 11 2 20 -1
20 -4 0 -44 6 -89 14 -81 13 -82 13 -85 -8z"/>
<path d="M6980 2637 c0 -23 5 -25 58 -31 31 -4 69 -9 83 -12 19 -4 28 0 33 12
9 24 -5 30 -80 38 -35 4 -71 9 -79 12 -11 5 -15 -1 -15 -19z"/>
<path d="M7240 2602 c0 -23 15 -28 113 -38 63 -6 67 -6 67 13 0 17 -9 22 -45
27 -25 3 -65 9 -90 12 -40 6 -45 4 -45 -14z"/>
<path d="M7506 2575 c-3 -10 -4 -20 -2 -23 3 -2 43 -7 90 -11 85 -6 86 -6 86
16 0 20 -5 23 -39 23 -21 0 -58 3 -83 6 -37 5 -46 3 -52 -11z"/>
<path d="M7770 2551 c0 -22 25 -29 120 -34 44 -2 55 1 58 15 4 20 -10 24 -110
33 -63 5 -68 4 -68 -14z"/>
<path d="M8034 2541 c-2 -2 -4 -13 -4 -23 0 -15 8 -18 44 -18 24 0 64 -3 90
-6 46 -7 48 -6 44 17 -3 23 -8 24 -86 29 -46 3 -86 3 -88 1z"/>
<path d="M8300 2511 c0 -26 67 -42 81 -20 15 24 4 34 -39 37 -36 3 -42 0 -42
-17z"/>
<path d="M890 4380 c0 -5 5 -10 10 -10 15 0 12 -87 -2 -93 -7 -3 3 -5 22 -5
19 0 29 2 23 5 -8 3 -13 25 -13 59 0 47 -2 54 -20 54 -11 0 -20 -4 -20 -10z"/>
<path d="M1021 4371 c-15 -27 -14 -63 2 -85 32 -43 81 15 61 72 -12 34 -48 42
-63 13z m44 -42 c0 -32 -4 -44 -15 -44 -16 0 -26 54 -16 82 12 30 31 6 31 -38z"/>
<path d="M970 4280 c0 -5 5 -10 10 -10 6 0 10 5 10 10 0 6 -4 10 -10 10 -5 0
-10 -4 -10 -10z"/>
<path d="M881 3921 c-24 -44 -3 -107 34 -100 23 5 36 49 26 87 -9 34 -45 42
-60 13z m44 -41 c0 -49 -19 -64 -35 -28 -8 17 -8 32 -1 52 16 40 36 27 36 -24z"/>
<path d="M1024 3927 c-3 -8 -4 -21 -3 -28 1 -8 -1 -22 -6 -32 -9 -21 10 -47
35 -47 25 0 44 26 35 47 -4 10 -8 29 -9 43 -1 29 -42 42 -52 17z m42 -8 c10
-17 -13 -36 -27 -22 -12 12 -4 33 11 33 5 0 12 -5 16 -11z m1 -55 c8 -21 -13
-42 -28 -27 -13 13 -5 43 11 43 6 0 13 -7 17 -16z"/>
<path d="M970 3830 c0 -5 5 -10 10 -10 6 0 10 5 10 10 0 6 -4 10 -10 10 -5 0
-10 -4 -10 -10z"/>
<path d="M881 3481 c-24 -44 -3 -107 34 -100 23 5 36 49 26 87 -9 34 -45 42
-60 13z m44 -41 c0 -49 -19 -64 -35 -28 -8 17 -8 32 -1 52 16 40 36 27 36 -24z"/>
<path d="M1026 3478 c-19 -26 -20 -51 -6 -79 15 -27 48 -24 62 6 13 30 -5 59
-34 52 -11 -3 -18 0 -18 8 0 15 27 28 41 19 5 -3 9 0 9 5 0 20 -39 11 -54 -11z
m39 -58 c0 -27 -22 -39 -31 -16 -8 22 3 49 19 43 6 -2 12 -14 12 -27z"/>
<path d="M970 3390 c0 -5 5 -10 10 -10 6 0 10 5 10 10 0 6 -4 10 -10 10 -5 0
-10 -4 -10 -10z"/>
<path d="M881 3031 c-24 -44 -3 -107 34 -100 23 5 36 49 26 87 -9 34 -45 42
-60 13z m44 -41 c0 -49 -19 -64 -35 -28 -8 17 -8 32 -1 52 16 40 36 27 36 -24z"/>
<path d="M1057 3010 c5 -36 3 -40 -16 -40 -21 0 -21 1 -5 25 9 14 14 28 11 31
-5 5 -37 -47 -37 -61 0 -3 11 -5 25 -5 17 0 25 -6 26 -17 0 -14 2 -15 6 -3 3
8 11 18 17 22 8 5 7 8 -1 8 -8 0 -13 15 -13 40 0 22 -4 40 -9 40 -5 0 -7 -18
-4 -40z"/>
<path d="M970 2940 c0 -5 5 -10 10 -10 6 0 10 5 10 10 0 6 -4 10 -10 10 -5 0
-10 -4 -10 -10z"/>
<path d="M881 2581 c-24 -44 -3 -107 34 -100 23 5 36 49 26 87 -9 34 -45 42
-60 13z m44 -41 c0 -49 -19 -64 -35 -28 -8 17 -8 32 -1 52 16 40 36 27 36 -24z"/>
<path d="M1015 2590 c-4 -7 2 -9 19 -4 35 8 45 -19 19 -49 -49 -56 -49 -57 -7
-56 23 1 30 3 17 6 -28 5 -29 15 -3 38 24 22 26 60 4 69 -23 9 -42 7 -49 -4z"/>
<path d="M970 2490 c0 -5 5 -10 10 -10 6 0 10 5 10 10 0 6 -4 10 -10 10 -5 0
-10 -4 -10 -10z"/>
<path d="M881 2131 c-24 -44 -3 -107 34 -100 23 5 36 49 26 87 -9 34 -45 42
-60 13z m44 -41 c0 -49 -19 -64 -35 -28 -8 17 -8 32 -1 52 16 40 36 27 36 -24z"/>
<path d="M1021 2131 c-15 -27 -14 -63 2 -85 32 -43 81 15 61 72 -12 34 -48 42
-63 13z m44 -42 c0 -32 -4 -44 -15 -44 -16 0 -26 54 -16 82 12 30 31 6 31 -38z"/>
<path d="M970 2040 c0 -5 5 -10 10 -10 6 0 10 5 10 10 0 6 -4 10 -10 10 -5 0
-10 -4 -10 -10z"/>
<path d="M1141 1891 c-24 -44 -3 -107 34 -100 23 5 36 49 26 87 -9 34 -45 42
-60 13z m44 -41 c0 -49 -19 -64 -35 -28 -8 17 -8 32 -1 52 16 40 36 27 36 -24z"/>
<path d="M1964 1899 c-4 -7 0 -9 13 -5 12 4 25 1 32 -8 10 -11 6 -21 -19 -49
-16 -19 -30 -37 -30 -41 0 -3 17 -5 38 -5 30 2 32 3 9 6 l-28 4 26 30 c14 17
25 36 25 43 0 30 -51 49 -66 25z"/>
<path d="M2050 1882 c0 -23 4 -28 23 -28 17 1 22 -5 22 -24 0 -19 -5 -25 -22
-24 -13 0 -23 -3 -23 -8 0 -17 50 -7 60 12 13 24 -3 60 -25 60 -24 0 -17 28 8
33 16 3 13 5 -10 6 -30 1 -33 -2 -33 -27z"/>
<path d="M2840 1885 c0 -15 6 -25 14 -25 7 0 19 -7 26 -15 16 -20 -6 -48 -32
-42 -10 3 -18 1 -18 -4 0 -15 46 -10 60 6 17 20 9 48 -18 60 -28 13 -28 32 1
38 19 4 18 4 -5 6 -24 1 -28 -3 -28 -24z"/>
<path d="M2932 1898 c-7 -7 -12 -29 -12 -49 0 -73 62 -78 68 -5 5 54 -26 84
-56 54z m40 -23 c8 -19 8 -31 -1 -51 -15 -34 -35 -26 -39 15 -6 61 19 83 40
36z"/>
<path d="M3723 1903 c31 -5 32 -7 12 -63 -8 -24 -13 -45 -10 -48 5 -6 30 50
40 91 7 26 6 27 -31 26 -31 -2 -33 -3 -11 -6z"/>
<path d="M3790 1882 c0 -23 4 -28 23 -28 17 1 22 -5 22 -24 0 -19 -5 -25 -22
-24 -13 0 -23 -3 -23 -8 0 -17 50 -7 60 12 13 24 -3 60 -25 60 -24 0 -17 28 8
33 16 3 13 5 -10 6 -30 1 -33 -2 -33 -27z"/>
<path d="M4540 1900 c0 -5 5 -10 10 -10 15 0 12 -87 -2 -93 -7 -3 3 -5 22 -5
19 0 29 2 23 5 -8 3 -13 25 -13 59 0 47 -2 54 -20 54 -11 0 -20 -4 -20 -10z"/>
<path d="M4632 1898 c-7 -7 -12 -29 -12 -49 0 -73 62 -78 68 -5 5 54 -26 84
-56 54z m40 -23 c8 -19 8 -31 -1 -51 -15 -34 -35 -26 -39 15 -6 61 19 83 40
36z"/>
<path d="M4721 1891 c-24 -44 -3 -107 34 -100 23 5 36 49 26 87 -9 34 -45 42
-60 13z m44 -41 c0 -49 -19 -64 -35 -28 -8 17 -8 32 -1 52 16 40 36 27 36 -24z"/>
<path d="M5410 1900 c0 -5 5 -10 10 -10 15 0 12 -87 -2 -93 -7 -3 3 -5 22 -5
19 0 29 2 23 5 -8 3 -13 25 -13 59 0 47 -2 54 -20 54 -11 0 -20 -4 -20 -10z"/>
<path d="M5490 1902 c0 -6 9 -8 20 -5 32 9 35 -23 6 -61 -14 -19 -26 -37 -26
-40 0 -3 17 -5 38 -5 34 1 35 2 9 8 l-29 6 22 27 c29 38 23 72 -12 76 -16 2
-28 -1 -28 -6z"/>
<path d="M5590 1885 c0 -15 6 -25 14 -25 7 0 19 -7 26 -15 16 -20 -6 -48 -32
-42 -10 3 -18 1 -18 -4 0 -15 46 -10 60 6 17 20 9 48 -18 60 -28 13 -28 32 1
38 19 4 18 4 -5 6 -24 1 -28 -3 -28 -24z"/>
<path d="M6290 1900 c0 -5 5 -10 10 -10 15 0 12 -87 -2 -93 -7 -3 3 -5 22 -5
19 0 29 2 23 5 -8 3 -13 25 -13 59 0 47 -2 54 -20 54 -11 0 -20 -4 -20 -10z"/>
<path d="M6370 1882 c0 -23 4 -28 23 -28 17 1 22 -5 22 -24 0 -19 -5 -25 -22
-24 -13 0 -23 -3 -23 -8 0 -17 50 -7 60 12 13 24 -3 60 -25 60 -24 0 -17 28 8
33 16 3 13 5 -10 6 -30 1 -33 -2 -33 -27z"/>
<path d="M6471 1891 c-24 -44 -3 -107 34 -100 23 5 36 49 26 87 -9 34 -45 42
-60 13z m44 -41 c0 -49 -19 -64 -35 -28 -8 17 -8 32 -1 52 16 40 36 27 36 -24z"/>
<path d="M7160 1900 c0 -5 5 -10 10 -10 15 0 12 -87 -2 -93 -7 -3 3 -5 22 -5
19 0 29 2 23 5 -8 3 -13 25 -13 59 0 47 -2 54 -20 54 -11 0 -20 -4 -20 -10z"/>
<path d="M7263 1903 c15 -2 27 -6 27 -8 0 -2 -9 -27 -20 -55 -11 -27 -16 -50
-11 -50 5 0 18 27 29 60 l21 60 -37 -1 c-30 -2 -32 -3 -9 -6z"/>
<path d="M7340 1885 c0 -15 6 -25 14 -25 7 0 19 -7 26 -15 16 -20 -6 -48 -32
-42 -10 3 -18 1 -18 -4 0 -15 46 -10 60 6 17 20 9 48 -18 60 -28 13 -28 32 1
38 19 4 18 4 -5 6 -24 1 -28 -3 -28 -24z"/>
<path d="M8014 1899 c-4 -7 0 -9 13 -5 12 4 25 1 32 -8 10 -11 6 -21 -19 -49
-16 -19 -30 -37 -30 -41 0 -3 17 -5 38 -5 30 2 32 3 9 6 l-28 4 26 30 c14 17
25 36 25 43 0 30 -51 49 -66 25z"/>
<path d="M8112 1898 c-7 -7 -12 -29 -12 -49 0 -73 62 -78 68 -5 5 54 -26 84
-56 54z m40 -23 c8 -19 8 -31 -1 -51 -15 -34 -35 -26 -39 15 -6 61 19 83 40
36z"/>
<path d="M8201 1891 c-24 -44 -3 -107 34 -100 23 5 36 49 26 87 -9 34 -45 42
-60 13z m44 -41 c0 -49 -19 -64 -35 -28 -8 17 -8 32 -1 52 16 40 36 27 36 -24z"/>
</g>
</svg>
